<svg xmlns="http://www.w3.org/2000/svg" xmlns:xlink="http://www.w3.org/1999/xlink" width="22" height="22" viewBox="0 0 22 22" fill="none"><defs><rect id="path_0" x="0" y="0" width="22" height="22" /></defs><g opacity="1" transform="translate(0 0)  rotate(0 11 11)"><mask id="bg-mask-0" fill="white"><use xlink:href="#path_0"></use></mask><g mask="url(#bg-mask-0)" ><path id="并集" fill-rule="evenodd" style="fill:#000000" transform="translate(5.407821229050278 1.5977653631284916)  rotate(0 5.653631284916201 9.217877094972067)" opacity="1" d="M9.83 5.41C10.65 5.41 11.31 6.07 11.31 6.88L11.31 16.96C11.31 17.78 10.65 18.44 9.83 18.44L1.47 18.44C0.66 18.44 0 17.78 0 16.96L0 6.88C0 6.07 0.66 5.41 1.47 5.41L1.72 5.41L1.72 1.47C1.72 0.66 2.38 0 3.2 0L8.23 0C9.05 0 9.71 0.66 9.71 1.47L9.71 5.41L9.83 5.41ZM2.97 1.38C2.96 1.41 2.95 1.44 2.95 1.47L2.95 5.41L8.48 5.41L8.48 1.47C8.48 1.44 8.47 1.41 8.46 1.38C8.45 1.35 8.43 1.32 8.41 1.3C8.39 1.28 8.36 1.26 8.33 1.25C8.3 1.24 8.27 1.23 8.23 1.23L3.2 1.23C3.16 1.23 3.13 1.24 3.1 1.25C3.07 1.26 3.04 1.28 3.02 1.3C3 1.32 2.98 1.35 2.97 1.38ZM10.06 17.06C10.05 17.09 10.03 17.11 10.01 17.14C9.98 17.16 9.96 17.18 9.93 17.19C9.9 17.2 9.87 17.21 9.83 17.21L1.47 17.21C1.44 17.21 1.41 17.2 1.38 17.19C1.35 17.18 1.32 17.16 1.3 17.14C1.28 17.11 1.26 17.09 1.25 17.06C1.24 17.03 1.23 17 1.23 16.96L1.23 6.88C1.23 6.85 1.24 6.82 1.25 6.79C1.26 6.76 1.28 6.73 1.3 6.71C1.32 6.69 1.35 6.67 1.38 6.66C1.41 6.64 1.44 6.64 1.47 6.64L9.83 6.64C9.87 6.64 9.9 6.64 9.93 6.66C9.96 6.67 9.98 6.69 10.01 6.71C10.03 6.73 10.05 6.76 10.06 6.79C10.07 6.82 10.08 6.85 10.08 6.88L10.08 16.96C10.08 17 10.07 17.03 10.06 17.06Z" /></g></g></svg>