<svg xmlns="http://www.w3.org/2000/svg" xmlns:xlink="http://www.w3.org/1999/xlink" width="22" height="22" viewBox="0 0 22 22" fill="none"><defs><rect id="path_0" x="0" y="0" width="22" height="22" /></defs><g opacity="1" transform="translate(0 0)  rotate(0 11 11)"><mask id="bg-mask-0" fill="white"><use xlink:href="#path_0"></use></mask><g mask="url(#bg-mask-0)" ><path id="并集" fill-rule="evenodd" style="fill:#000000" transform="translate(3.055555555555557 2.5361111111111114)  rotate(0 8.127777777777778 8.463888888888889)" opacity="1" d="M1.21 16.44C1.21 16.46 1.2 16.47 1.2 16.49C1.19 16.51 1.18 16.53 1.18 16.55L1.15 16.61C1.14 16.62 1.13 16.64 1.12 16.66C1.11 16.67 1.1 16.69 1.08 16.7C1.07 16.72 1.06 16.73 1.04 16.75L1 16.79C0.98 16.8 0.97 16.81 0.95 16.83C0.93 16.84 0.92 16.85 0.9 16.86C0.88 16.87 0.86 16.87 0.84 16.88C0.83 16.89 0.81 16.9 0.79 16.9C0.77 16.91 0.75 16.91 0.73 16.92C0.71 16.92 0.69 16.92 0.67 16.93L0.55 16.93L0.52 16.92L0.49 16.92C0.48 16.91 0.47 16.91 0.46 16.91L0.43 16.9C0.42 16.9 0.41 16.9 0.41 16.89C0.4 16.89 0.39 16.89 0.38 16.88C0.37 16.88 0.36 16.87 0.35 16.87C0.34 16.86 0.33 16.86 0.32 16.86L0.3 16.84C0.29 16.84 0.28 16.83 0.27 16.83C0.26 16.82 0.26 16.81 0.25 16.81C0.24 16.8 0.23 16.8 0.22 16.79C0.22 16.78 0.21 16.78 0.2 16.77L0.18 16.75C0.17 16.74 0.17 16.73 0.16 16.73C0.15 16.72 0.15 16.71 0.14 16.7C0.13 16.7 0.13 16.69 0.12 16.68L0.1 16.66C0.1 16.65 0.09 16.64 0.09 16.63L0.07 16.61C0.07 16.6 0.06 16.59 0.06 16.58C0.06 16.57 0.05 16.56 0.05 16.55C0.04 16.54 0.04 16.53 0.04 16.52C0.03 16.51 0.03 16.5 0.03 16.49C0.02 16.48 0.02 16.47 0.02 16.47C0.02 16.46 0.01 16.45 0.01 16.44L0.01 16.41L0 16.38L0 0.56C0 0.54 0.01 0.52 0.01 0.51C0.01 0.49 0.02 0.47 0.02 0.45C0.03 0.44 0.03 0.42 0.04 0.4C0.04 0.39 0.05 0.37 0.06 0.35C0.06 0.34 0.07 0.32 0.08 0.31C0.09 0.29 0.1 0.28 0.11 0.26C0.12 0.25 0.13 0.23 0.14 0.22L0.18 0.18C0.19 0.17 0.2 0.16 0.22 0.15C0.23 0.13 0.24 0.12 0.26 0.11C0.27 0.1 0.29 0.09 0.3 0.08C0.32 0.07 0.33 0.07 0.35 0.06C0.37 0.05 0.38 0.04 0.4 0.04C0.41 0.03 0.43 0.03 0.45 0.02C0.47 0.02 0.48 0.01 0.5 0.01C0.54 0 0.57 0 0.61 0L0.66 0C0.68 0 0.7 0.01 0.72 0.01C0.73 0.01 0.75 0.02 0.77 0.02C0.79 0.03 0.8 0.03 0.82 0.04C0.84 0.04 0.85 0.05 0.87 0.06C0.88 0.06 0.9 0.07 0.92 0.08C0.93 0.09 0.94 0.1 0.96 0.11C0.97 0.12 0.99 0.13 1 0.14C1.02 0.15 1.03 0.17 1.04 0.18C1.05 0.19 1.07 0.2 1.08 0.22C1.09 0.23 1.1 0.24 1.11 0.26C1.12 0.27 1.13 0.29 1.14 0.3C1.15 0.32 1.16 0.33 1.16 0.35C1.17 0.37 1.18 0.38 1.18 0.4C1.19 0.41 1.2 0.43 1.2 0.45C1.21 0.47 1.21 0.48 1.21 0.5C1.22 0.54 1.22 0.57 1.22 0.61L1.22 16.38C1.22 16.4 1.21 16.42 1.21 16.44ZM15.28 0.69C15.88 1.04 16.26 1.69 16.26 2.39L16.26 14.67C16.26 15.36 15.88 16.01 15.28 16.36C14.67 16.71 13.93 16.71 13.32 16.36L2.69 10.22C2.08 9.87 1.71 9.23 1.71 8.53C1.71 7.83 2.08 7.18 2.69 6.83L13.32 0.69C13.93 0.34 14.67 0.34 15.28 0.69ZM3.32 8.18C3.29 8.21 3.26 8.25 3.24 8.28C3.22 8.32 3.2 8.36 3.19 8.4C3.18 8.44 3.18 8.48 3.18 8.53C3.18 8.57 3.18 8.61 3.19 8.65C3.2 8.69 3.22 8.73 3.24 8.77C3.26 8.81 3.29 8.84 3.32 8.87C3.35 8.9 3.38 8.93 3.42 8.95L14.06 15.09C14.09 15.11 14.13 15.13 14.17 15.14C14.22 15.15 14.26 15.15 14.3 15.15C14.34 15.15 14.38 15.15 14.43 15.14C14.47 15.13 14.51 15.11 14.54 15.09C14.58 15.07 14.62 15.04 14.65 15.01C14.68 14.98 14.7 14.95 14.72 14.91C14.74 14.87 14.76 14.83 14.77 14.79C14.78 14.75 14.79 14.71 14.79 14.67L14.79 2.39C14.79 2.34 14.78 2.3 14.77 2.26C14.76 2.22 14.74 2.18 14.72 2.14C14.7 2.1 14.68 2.07 14.65 2.04C14.62 2.01 14.58 1.98 14.54 1.96C14.51 1.94 14.47 1.92 14.43 1.91C14.38 1.9 14.34 1.9 14.3 1.9C14.26 1.9 14.22 1.9 14.17 1.91C14.13 1.92 14.09 1.94 14.06 1.96L3.42 8.1C3.38 8.12 3.35 8.15 3.32 8.18Z" /></g></g></svg>