<svg xmlns="http://www.w3.org/2000/svg" xmlns:xlink="http://www.w3.org/1999/xlink" width="22" height="22" viewBox="0 0 22 22" fill="none"><defs><rect id="path_0" x="0" y="0" width="22" height="22" /></defs><g opacity="1" transform="translate(0 0)  rotate(0 11 11)"><mask id="bg-mask-0" fill="white"><use xlink:href="#path_0"></use></mask><g mask="url(#bg-mask-0)" ><path id="并集" fill-rule="evenodd" style="fill:#000000" transform="translate(2.4235494047736594 2.697877064282345)  rotate(0 9.054891967773438 8.240721808539496)" opacity="1" d="M8.4,0.32C8.4,0.31 8.39,0.31 8.39,0.3C8.38,0.29 8.38,0.28 8.37,0.27C8.37,0.26 8.36,0.26 8.35,0.25L8.34,0.22C8.33,0.22 8.32,0.21 8.32,0.2C8.31,0.19 8.3,0.19 8.3,0.18C8.29,0.17 8.28,0.17 8.27,0.16C8.27,0.15 8.26,0.15 8.25,0.14L8.23,0.12C8.22,0.12 8.21,0.11 8.2,0.1C8.19,0.1 8.19,0.09 8.18,0.09C8.17,0.08 8.16,0.08 8.15,0.07C8.14,0.07 8.13,0.06 8.13,0.06C8.12,0.06 8.11,0.05 8.1,0.05C8.09,0.04 8.08,0.04 8.07,0.04C8.06,0.03 8.05,0.03 8.04,0.03L8.01,0.02C8,0.02 7.99,0.01 7.98,0.01C7.97,0.01 7.96,0.01 7.95,0.01C7.94,0.01 7.93,0 7.92,0C7.91,0 7.9,0 7.89,0C7.88,0 7.87,0 7.86,0C7.85,0 7.84,0 7.83,0C7.82,0 7.81,0 7.8,0C7.79,0 7.78,0.01 7.77,0.01C7.76,0.01 7.75,0.01 7.74,0.01C7.73,0.01 7.72,0.02 7.72,0.02L7.69,0.03C7.68,0.03 7.67,0.03 7.66,0.04C7.65,0.04 7.64,0.04 7.63,0.05C7.62,0.05 7.61,0.06 7.6,0.06C7.59,0.06 7.58,0.07 7.58,0.07C7.57,0.08 7.56,0.08 7.55,0.09C7.54,0.09 7.53,0.1 7.52,0.1C7.52,0.11 7.51,0.12 7.5,0.12L7.48,0.14C7.47,0.15 7.46,0.15 7.45,0.16C7.45,0.17 7.44,0.17 7.43,0.18L0.46,7.15C0.39,7.22 0.32,7.31 0.26,7.39C0.2,7.48 0.16,7.58 0.12,7.67C0.08,7.77 0.05,7.87 0.03,7.97C0.01,8.07 0,8.17 0,8.27C0,8.37 0.01,8.47 0.03,8.57C0.05,8.67 0.08,8.77 0.12,8.87C0.16,8.96 0.2,9.06 0.26,9.15C0.32,9.23 0.39,9.32 0.46,9.39L7.37,16.3C7.38,16.31 7.39,16.32 7.4,16.33C7.42,16.34 7.43,16.35 7.44,16.36C7.45,16.37 7.46,16.37 7.47,16.38C7.48,16.39 7.5,16.4 7.51,16.4C7.52,16.41 7.53,16.42 7.55,16.42C7.56,16.43 7.57,16.43 7.59,16.44C7.6,16.44 7.61,16.45 7.63,16.45C7.64,16.46 7.65,16.46 7.67,16.46C7.68,16.47 7.69,16.47 7.71,16.47L7.75,16.48C7.76,16.48 7.78,16.48 7.79,16.48C7.81,16.48 7.82,16.48 7.83,16.48C7.85,16.48 7.86,16.48 7.88,16.48C7.89,16.48 7.9,16.47 7.92,16.47C7.93,16.47 7.95,16.46 7.96,16.46C7.97,16.46 7.99,16.45 8,16.45C8.01,16.45 8.01,16.44 8.02,16.44C8.06,16.43 8.1,16.41 8.14,16.38C8.17,16.36 8.21,16.33 8.24,16.3L8.26,16.28C8.27,16.27 8.27,16.27 8.28,16.26C8.28,16.25 8.29,16.24 8.3,16.23C8.3,16.23 8.31,16.22 8.31,16.21L8.33,16.18C8.34,16.18 8.34,16.17 8.35,16.16C8.35,16.15 8.35,16.14 8.36,16.13C8.36,16.12 8.37,16.11 8.37,16.1C8.37,16.09 8.38,16.09 8.38,16.08C8.38,16.07 8.39,16.06 8.39,16.05L8.4,16.02C8.4,16.01 8.4,16 8.41,15.99C8.41,15.98 8.41,15.97 8.41,15.96C8.41,15.95 8.41,15.94 8.41,15.93C8.42,15.92 8.42,15.91 8.42,15.9C8.42,15.89 8.42,15.88 8.42,15.87C8.42,15.86 8.42,15.85 8.42,15.84C8.42,15.83 8.42,15.82 8.41,15.81C8.41,15.8 8.41,15.79 8.41,15.78C8.41,15.77 8.41,15.76 8.41,15.75C8.4,15.74 8.4,15.73 8.4,15.72L8.39,15.69C8.39,15.68 8.38,15.67 8.38,15.66C8.38,15.65 8.37,15.65 8.37,15.64C8.37,15.63 8.36,15.62 8.36,15.61C8.35,15.6 8.35,15.59 8.35,15.58C8.34,15.57 8.34,15.56 8.33,15.56L8.31,15.53C8.31,15.52 8.3,15.51 8.3,15.51L8.28,15.48C8.27,15.47 8.27,15.47 8.26,15.46L8.24,15.44L1.65,8.85L17.5,8.85C17.51,8.85 17.52,8.85 17.53,8.85C17.54,8.85 17.55,8.85 17.56,8.85L17.59,8.85C17.6,8.84 17.61,8.84 17.62,8.84C17.63,8.84 17.64,8.84 17.65,8.83C17.66,8.83 17.67,8.83 17.68,8.83C17.69,8.82 17.7,8.82 17.7,8.82C17.71,8.81 17.72,8.81 17.73,8.81C17.74,8.8 17.75,8.8 17.76,8.79C17.77,8.79 17.78,8.78 17.79,8.78L17.81,8.77C17.82,8.76 17.83,8.75 17.84,8.75C17.85,8.74 17.85,8.74 17.86,8.73C17.87,8.73 17.88,8.72 17.89,8.71C17.89,8.71 17.9,8.7 17.91,8.69C17.92,8.69 17.92,8.68 17.93,8.67C17.94,8.67 17.94,8.66 17.95,8.65C17.96,8.64 17.96,8.64 17.97,8.63C17.98,8.62 17.98,8.61 17.99,8.61C17.99,8.6 18,8.59 18.01,8.58C18.01,8.57 18.02,8.56 18.02,8.56L18.04,8.53C18.04,8.52 18.05,8.51 18.05,8.5C18.05,8.49 18.06,8.48 18.06,8.47C18.07,8.47 18.07,8.46 18.07,8.45C18.08,8.44 18.08,8.43 18.08,8.42L18.09,8.39C18.09,8.38 18.1,8.37 18.1,8.36C18.1,8.35 18.1,8.34 18.1,8.33L18.11,8.3C18.11,8.29 18.11,8.28 18.11,8.27C18.11,8.26 18.11,8.25 18.11,8.24C18.11,8.23 18.11,8.22 18.11,8.21C18.11,8.2 18.11,8.19 18.11,8.18L18.1,8.15C18.1,8.14 18.1,8.13 18.1,8.12C18.1,8.11 18.09,8.1 18.09,8.09L18.08,8.06C18.08,8.05 18.08,8.04 18.07,8.04C18.07,8.03 18.07,8.02 18.06,8.01C18.06,8 18.05,7.99 18.05,7.98C18.05,7.97 18.04,7.96 18.04,7.95L18.02,7.93C18.02,7.92 18.01,7.91 18.01,7.9C18,7.89 17.99,7.89 17.99,7.88C17.98,7.87 17.98,7.86 17.97,7.85C17.96,7.85 17.96,7.84 17.95,7.83C17.94,7.82 17.94,7.82 17.93,7.81C17.92,7.8 17.92,7.79 17.91,7.79C17.9,7.78 17.89,7.78 17.89,7.77C17.88,7.76 17.87,7.76 17.86,7.75C17.85,7.74 17.85,7.74 17.84,7.73C17.83,7.73 17.82,7.72 17.81,7.72L17.79,7.7C17.78,7.7 17.77,7.69 17.76,7.69C17.75,7.68 17.74,7.68 17.73,7.68C17.72,7.67 17.71,7.67 17.7,7.67C17.7,7.66 17.69,7.66 17.68,7.66C17.67,7.65 17.66,7.65 17.65,7.65C17.64,7.65 17.63,7.64 17.62,7.64C17.61,7.64 17.6,7.64 17.59,7.64L17.56,7.63C17.55,7.63 17.54,7.63 17.53,7.63C17.52,7.63 17.51,7.63 17.5,7.63L1.71,7.63L8.3,1.04C8.3,1.04 8.31,1.03 8.32,1.02C8.32,1.01 8.33,1.01 8.34,1L8.35,0.98C8.36,0.97 8.37,0.96 8.37,0.95C8.38,0.94 8.38,0.93 8.39,0.93C8.39,0.92 8.4,0.91 8.4,0.9C8.41,0.89 8.41,0.88 8.42,0.87C8.42,0.86 8.42,0.85 8.43,0.85C8.43,0.84 8.43,0.83 8.44,0.82C8.44,0.81 8.45,0.8 8.45,0.79L8.46,0.76C8.46,0.75 8.46,0.74 8.46,0.73C8.47,0.72 8.47,0.71 8.47,0.7C8.47,0.69 8.47,0.68 8.47,0.67C8.47,0.66 8.47,0.65 8.47,0.64C8.47,0.63 8.47,0.62 8.48,0.61C8.47,0.6 8.47,0.59 8.47,0.58C8.47,0.57 8.47,0.56 8.47,0.55C8.47,0.54 8.47,0.53 8.47,0.52C8.47,0.51 8.47,0.5 8.46,0.49C8.46,0.48 8.46,0.47 8.46,0.46L8.45,0.43C8.45,0.42 8.44,0.42 8.44,0.41C8.43,0.4 8.43,0.39 8.43,0.38C8.42,0.37 8.42,0.36 8.42,0.35C8.41,0.34 8.41,0.33 8.4,0.32Z " /></g></g></svg>