<svg xmlns="http://www.w3.org/2000/svg" xmlns:xlink="http://www.w3.org/1999/xlink" width="22" height="22" viewBox="0 0 22 22" fill="none"><defs><rect id="path_0" x="0" y="0" width="22" height="22" /></defs><g opacity="1" transform="translate(0 0)  rotate(0 11 11)"><mask id="bg-mask-0" fill="white"><use xlink:href="#path_0"></use></mask><g mask="url(#bg-mask-0)" ><path id="并集" fill-rule="evenodd" style="fill:#000000" transform="translate(2.5666666666666664 2.5361111111111114)  rotate(0 8.127777777777776 8.463888888888889)" opacity="1" d="M15.13 16.65C15.15 16.68 15.18 16.72 15.21 16.74L15.21 16.75C15.24 16.78 15.27 16.8 15.3 16.82C15.34 16.85 15.37 16.87 15.41 16.88C15.45 16.9 15.48 16.91 15.52 16.92C15.56 16.92 15.6 16.93 15.64 16.93C15.68 16.93 15.72 16.92 15.76 16.92C15.8 16.91 15.84 16.9 15.87 16.88C15.91 16.87 15.95 16.85 15.98 16.83C16.01 16.81 16.04 16.78 16.07 16.75L16.08 16.75C16.11 16.72 16.13 16.69 16.15 16.66C16.17 16.62 16.19 16.59 16.21 16.55C16.22 16.52 16.23 16.48 16.24 16.44C16.25 16.4 16.26 16.36 16.26 16.32L16.26 0.61C16.26 0.59 16.25 0.57 16.25 0.55C16.25 0.53 16.25 0.51 16.24 0.49C16.24 0.47 16.23 0.45 16.23 0.43C16.22 0.41 16.22 0.4 16.21 0.38L16.18 0.32C16.17 0.31 16.16 0.29 16.15 0.27C16.14 0.26 16.13 0.24 16.12 0.22C16.1 0.21 16.09 0.19 16.08 0.18C16.06 0.17 16.05 0.15 16.03 0.14C16.02 0.13 16 0.11 15.98 0.1C15.97 0.09 15.95 0.08 15.93 0.07C15.91 0.06 15.9 0.05 15.88 0.05C15.86 0.04 15.84 0.03 15.82 0.03C15.8 0.02 15.78 0.02 15.76 0.01C15.74 0.01 15.72 0 15.7 0L15.58 0L15.56 0.01L15.52 0.01C15.51 0.01 15.51 0.02 15.5 0.02C15.49 0.02 15.48 0.02 15.47 0.03C15.46 0.03 15.45 0.03 15.44 0.04C15.43 0.04 15.42 0.04 15.41 0.05C15.4 0.05 15.39 0.06 15.38 0.06C15.37 0.06 15.37 0.07 15.36 0.07L15.33 0.09C15.32 0.09 15.31 0.1 15.3 0.1C15.3 0.11 15.29 0.11 15.28 0.12C15.27 0.13 15.26 0.13 15.26 0.14C15.25 0.15 15.24 0.15 15.23 0.16C15.23 0.17 15.22 0.17 15.21 0.18C15.21 0.19 15.2 0.19 15.19 0.2C15.18 0.21 15.18 0.22 15.17 0.22C15.17 0.23 15.16 0.24 15.15 0.25C15.15 0.26 15.14 0.26 15.14 0.27C15.13 0.28 15.13 0.29 15.12 0.3L15.11 0.32C15.1 0.33 15.1 0.34 15.09 0.35C15.09 0.36 15.08 0.37 15.08 0.38C15.08 0.39 15.07 0.4 15.07 0.41C15.07 0.41 15.06 0.42 15.06 0.43C15.06 0.44 15.05 0.45 15.05 0.46L15.05 0.49C15.04 0.5 15.04 0.51 15.04 0.52L15.04 0.55C15.04 0.56 15.03 0.57 15.03 0.58L15.03 16.32C15.03 16.36 15.04 16.39 15.04 16.43C15.05 16.47 15.06 16.51 15.08 16.55C15.09 16.58 15.11 16.62 15.13 16.65ZM0.98 0.69C1.58 0.34 2.33 0.34 2.93 0.69L13.57 6.83C14.17 7.18 14.55 7.83 14.55 8.52C14.55 9.22 14.17 9.87 13.57 10.22L2.93 16.36C2.33 16.71 1.58 16.71 0.98 16.36C0.37 16.01 0 15.36 0 14.66L0 2.39C0 1.69 0.37 1.04 0.98 0.69ZM1.83 1.91C1.87 1.9 1.91 1.9 1.96 1.9C2 1.9 2.04 1.9 2.08 1.91C2.12 1.92 2.16 1.94 2.2 1.96L12.83 8.1C12.87 8.12 12.91 8.15 12.94 8.18C12.97 8.21 12.99 8.24 13.01 8.28C13.04 8.32 13.05 8.36 13.06 8.4C13.07 8.44 13.08 8.48 13.08 8.52C13.08 8.57 13.07 8.61 13.06 8.65C13.05 8.69 13.04 8.73 13.01 8.77C12.99 8.81 12.97 8.84 12.94 8.87C12.91 8.9 12.87 8.93 12.83 8.95L2.2 15.09C2.16 15.11 2.12 15.13 2.08 15.14C2.04 15.15 2 15.15 1.96 15.15C1.91 15.15 1.87 15.15 1.83 15.14C1.79 15.13 1.75 15.11 1.71 15.09C1.67 15.07 1.64 15.04 1.61 15.01C1.58 14.98 1.55 14.95 1.53 14.91C1.51 14.87 1.49 14.83 1.48 14.79C1.47 14.75 1.47 14.71 1.47 14.66L1.47 2.39C1.47 2.34 1.47 2.3 1.48 2.26C1.49 2.22 1.51 2.18 1.53 2.14C1.55 2.1 1.58 2.07 1.61 2.04C1.64 2.01 1.67 1.98 1.71 1.96C1.75 1.94 1.79 1.92 1.83 1.91Z" /></g></g></svg>