<svg xmlns="http://www.w3.org/2000/svg" xmlns:xlink="http://www.w3.org/1999/xlink" width="22" height="22" viewBox="0 0 22 22" fill="none"><defs><rect id="path_0" x="0" y="0" width="22" height="22" /></defs><g opacity="1" transform="translate(0 0)  rotate(0 11 11)"><mask id="bg-mask-0" fill="white"><use xlink:href="#path_0"></use></mask><g mask="url(#bg-mask-0)" ><path id="减去顶层" fill-rule="evenodd" style="fill:#000000" transform="translate(6.1008361660979205 0.9519876998380621)  rotate(0 5.253297000946738 9.901809484487334)" opacity="1" d="M4.87 18.64C3.68 19.52 2.25 19.75 1.24 19.79L0.93 19.79C0.73 19.83 0.53 19.77 0.38 19.63C0.24 19.48 0.16 19.28 0.19 19.08C0.24 18.92 0.29 18.75 0.34 18.55C0.46 18.02 0.31 16.9 0.13 15.93C-0.18 15.01 0.07 14 0.77 13.34C1.33 12.96 2.05 12.59 2.78 12.61C2.67 12.2 2.69 11.76 2.84 11.36L6.48 1.37C6.67 0.85 7.05 0.43 7.55 0.19C8.05 -0.04 8.62 -0.06 9.14 0.13C9.66 0.31 10.08 0.7 10.31 1.2C10.54 1.7 10.57 2.27 10.38 2.79L6.74 12.78C6.57 13.27 6.21 13.68 5.74 13.92C7.51 15.72 6.43 17.49 4.87 18.64ZM8.55 1.21C8.6 1.22 8.66 1.24 8.71 1.25C8.77 1.27 8.82 1.3 8.86 1.33C8.91 1.36 8.96 1.39 9 1.43C9.04 1.47 9.08 1.51 9.11 1.55C9.14 1.6 9.17 1.65 9.19 1.7C9.22 1.75 9.24 1.8 9.25 1.86C9.26 1.91 9.27 1.97 9.27 2.02C9.27928 2.07567 9.27134 2.12273 9.26216 2.17716C9.26144 2.1814 9.26072 2.18567 9.26 2.19C9.26 2.24 9.24 2.3 9.22 2.35L5.59 12.34C5.57 12.4 5.54 12.45 5.51 12.49C5.48 12.54 5.45 12.59 5.41 12.63C5.37 12.67 5.33 12.71 5.29 12.74C5.24 12.77 5.2 12.8 5.14 12.83C5.09 12.85 5.04 12.87 4.98 12.88C4.93 12.89 4.88 12.9 4.82 12.91C4.76 12.91 4.71 12.9 4.65 12.9C4.6 12.89 4.54 12.87 4.49 12.85C4.44 12.83 4.39 12.81 4.34 12.78C4.29 12.75 4.25 12.72 4.2 12.68C4.16 12.64 4.13 12.6 4.09 12.56C4.06 12.51 4.03 12.46 4.01 12.41C3.98 12.36 3.96 12.31 3.95 12.25C3.94 12.2 3.93 12.14 3.93 12.09C3.93 12.03 3.93 11.98 3.94 11.92C3.95 11.87 3.96 11.81 3.98 11.76L7.61 1.77C7.63 1.71 7.66 1.66 7.69 1.61C7.72 1.57 7.75 1.52 7.79 1.48C7.83 1.44 7.87 1.4 7.91 1.37C7.96 1.33 8.01 1.31 8.06 1.28C8.11 1.26 8.16 1.24 8.22 1.23C8.27 1.21 8.33 1.21 8.38 1.2C8.44 1.2 8.49 1.21 8.55 1.21ZM5.12 15.06C5.06 14.97 4.98 14.88 4.9 14.8C4.71 14.59 4.47 14.39 4.18 14.19C4.17 14.18 4.15 14.17 4.13 14.16C4.1 14.14 4.07 14.12 4.04 14.11C3.99 14.08 3.94 14.06 3.9 14.04C3.77 13.98 3.65 13.94 3.53 13.9Q3.305 13.84 3.08 13.81C2.92 13.8 2.77 13.81 2.61 13.83C2.45 13.86 2.28 13.91 2.13 13.99C1.94 14.08 1.73 14.19 1.73 14.19C1.44 14.36 1.31 14.72 1.42 15.04L1.47 15.18C1.47 15.18 1.66 15.83 1.7 16.23C1.74 16.57 1.75 16.93 1.73 17.29C1.72 17.6 1.69 17.92 1.64 18.23C1.62 18.33 1.6 18.43 1.58 18.52C1.78 18.5 1.98 18.48 2.17 18.44C2.4 18.4 2.63 18.34 2.85 18.28C3.08 18.2 3.31 18.11 3.52 18.01C3.74 17.9 3.95 17.78 4.14 17.64C4.32 17.5 4.49 17.36 4.64 17.22C4.8 17.07 4.93 16.92 5.04 16.78C5.15 16.63 5.23 16.49 5.3 16.36C5.36 16.23 5.39 16.11 5.41 15.99C5.42 15.94 5.42 15.89 5.42 15.83C5.42 15.78 5.42 15.72 5.41 15.67C5.39 15.55 5.34 15.42 5.27 15.29C5.23 15.22 5.18 15.14 5.12 15.06Z" /></g></g></svg>