<svg xmlns="http://www.w3.org/2000/svg" xmlns:xlink="http://www.w3.org/1999/xlink" width="22" height="22" viewBox="0 0 22 22" fill="none"><defs><rect id="path_0" x="0" y="0" width="22" height="22" /><filter id="filter_2" x="1.1611113705546305" y="1.593749336901464" width="19.861111111111114" height="18.450667487250435" filterUnits="userSpaceOnUse" color-interpolation-filters="sRGB"></filter></defs><g opacity="1" transform="translate(0 0)  rotate(0 11 11)"><mask id="bg-mask-0" fill="white"><use xlink:href="#path_0"></use></mask><g mask="url(#bg-mask-0)" ><path id="并集" fill-rule="evenodd" style="fill:#000000" transform="translate(1.1611113705546305 1.593749336901464)  rotate(0 9.930555555555555 9.225333743625217)" opacity="1" d="M0.1 9.19C0.1 9.2 0.09 9.21 0.09 9.22L0.07 9.24C0.07 9.25 0.06 9.26 0.06 9.27C0.05 9.28 0.05 9.29 0.05 9.3C0.04 9.31 0.04 9.32 0.04 9.33C0.03 9.33 0.03 9.34 0.03 9.35L0.02 9.38C0.02 9.39 0.01 9.4 0.01 9.41L0.01 9.44L0 9.47L0 9.59C0 9.6 0 9.61 0.01 9.62L0.01 9.65C0.01 9.66 0.02 9.67 0.02 9.68C0.02 9.69 0.02 9.7 0.03 9.71C0.03 9.72 0.03 9.73 0.04 9.74C0.04 9.75 0.04 9.76 0.05 9.76C0.05 9.77 0.06 9.78 0.06 9.79C0.06 9.8 0.07 9.81 0.07 9.82L0.09 9.84C0.09 9.85 0.1 9.86 0.1 9.87C0.11 9.88 0.11 9.89 0.12 9.89C0.13 9.9 0.13 9.91 0.14 9.92L0.16 9.94L0.18 9.96C0.19 9.98 0.21 9.99 0.22 10C0.24 10.01 0.26 10.03 0.27 10.04L0.33 10.07C0.34 10.08 0.36 10.09 0.38 10.09C0.4 10.1 0.42 10.11 0.44 10.11C0.45 10.12 0.47 10.12 0.49 10.13C0.51 10.13 0.53 10.14 0.55 10.14L0.67 10.14C0.69 10.13 0.71 10.13 0.73 10.13C0.75 10.12 0.77 10.12 0.79 10.11C0.81 10.11 0.83 10.1 0.85 10.09C0.87 10.08 0.88 10.08 0.9 10.07C0.92 10.06 0.94 10.05 0.95 10.04C0.97 10.02 0.99 10.01 1 10C1.02 9.99 1.03 9.97 1.05 9.96L2.38 8.61L2.38 17.23C2.38 17.9 2.93 18.45 3.61 18.45L16.19 18.45C16.87 18.45 17.42 17.9 17.42 17.23L17.42 8.58L18.82 9.96C18.83 9.98 18.85 9.99 18.86 10C18.88 10.02 18.9 10.03 18.91 10.04L18.97 10.07C18.98 10.08 19 10.09 19.02 10.1C19.04 10.1 19.06 10.11 19.08 10.11C19.1 10.12 19.12 10.12 19.14 10.13C19.15 10.13 19.17 10.14 19.19 10.14L19.31 10.14C19.33 10.13 19.35 10.13 19.37 10.13C19.39 10.12 19.41 10.12 19.43 10.11C19.45 10.11 19.47 10.1 19.49 10.09C19.51 10.08 19.52 10.08 19.54 10.07C19.56 10.06 19.58 10.04 19.59 10.03C19.61 10.02 19.63 10.01 19.64 10L19.69 9.96C19.7 9.94 19.71 9.93 19.73 9.91C19.74 9.9 19.75 9.88 19.76 9.86C19.77 9.85 19.78 9.83 19.79 9.81C19.8 9.8 19.81 9.78 19.82 9.76C19.82 9.74 19.83 9.72 19.84 9.7C19.84 9.68 19.85 9.66 19.85 9.64C19.85 9.62 19.86 9.6 19.86 9.58L19.86 9.46C19.86 9.44 19.85 9.43 19.85 9.41C19.84 9.39 19.84 9.37 19.83 9.35C19.83 9.33 19.82 9.31 19.81 9.29C19.8 9.27 19.8 9.25 19.79 9.24C19.78 9.22 19.77 9.2 19.76 9.19C19.75 9.17 19.73 9.15 19.72 9.14C19.71 9.12 19.69 9.11 19.68 9.09L11.31 0.83C11.25 0.77 11.19 0.72 11.13 0.67L10.88 0.43C10.61 0.15 10.23 0 9.84 0C9.45 0 9.07 0.16 8.8 0.44L8.57 0.68C8.5 0.73 8.44 0.79 8.37 0.85L0.18 9.1C0.17 9.11 0.16 9.11 0.16 9.12C0.15 9.13 0.14 9.13 0.14 9.14C0.13 9.15 0.12 9.16 0.12 9.17C0.11 9.17 0.11 9.18 0.1 9.19ZM9.68 1.47C9.74 1.46 9.79 1.46 9.84 1.46C9.9 1.46 9.95 1.46 10.01 1.47C10.06 1.48 10.12 1.5 10.17 1.52C10.22 1.54 10.27 1.56 10.31 1.59C10.32 1.59 10.32 1.6 10.33 1.6L16.19 7.47L16.19 17.23L3.61 17.23L3.61 7.46L9.37 1.6L9.38 1.6C9.42 1.57 9.47 1.54 9.52 1.52C9.57 1.5 9.63 1.48 9.68 1.47Z" /></g></g></svg>