<svg xmlns="http://www.w3.org/2000/svg" xmlns:xlink="http://www.w3.org/1999/xlink" width="22" height="22.000000000000455" viewBox="0 0 22 22.000000000000455" fill="none"><defs><rect id="path_0" x="0" y="0" width="22" height="22.000000000000398" /></defs><g opacity="1" transform="translate(-1.1368683772161603e-13 1.1368683772161603e-13)  rotate(0 11 11.000000000000199)"><mask id="bg-mask-0" fill="white"><use xlink:href="#path_0"></use></mask><g mask="url(#bg-mask-0)" ><path id="并集" fill-rule="evenodd" style="fill:#000000" transform="translate(1.4666667007726417 2.749999998307967)  rotate(0 9.655555555555555 8.54834840562624)" opacity="1" d="M19.31 1.47C19.31 0.66 18.65 0 17.84 0L1.47 0C0.66 0 0 0.66 0 1.47L0 13.26C0 14.07 0.66 14.73 1.47 14.73L2.11 14.73L2.12 15.89C2.13 16.36 2.4 16.78 2.83 16.98C3.25 17.18 3.76 17.12 4.12 16.82L6.66 14.73L17.84 14.73C18.65 14.73 19.31 14.07 19.31 13.26L19.31 1.47ZM18.07 13.36C18.06 13.39 18.04 13.41 18.02 13.43C17.99 13.46 17.97 13.48 17.94 13.49C17.91 13.5 17.88 13.51 17.84 13.51L6.23 13.51L3.34 15.87L3.32 13.51L1.47 13.51C1.43 13.51 1.4 13.5 1.37 13.49C1.34 13.48 1.32 13.46 1.29 13.43C1.27 13.41 1.25 13.39 1.24 13.36C1.23 13.33 1.22 13.3 1.22 13.26L1.22 1.47C1.22 1.43 1.23 1.4 1.24 1.37C1.25 1.34 1.27 1.32 1.29 1.29C1.32 1.27 1.34 1.25 1.37 1.24C1.4 1.23 1.43 1.22 1.47 1.22L17.84 1.22C17.88 1.22 17.91 1.23 17.94 1.24C17.97 1.25 17.99 1.27 18.02 1.29C18.04 1.32 18.06 1.34 18.07 1.37C18.08 1.4 18.09 1.43 18.09 1.47L18.09 13.26C18.09 13.3 18.08 13.33 18.07 13.36ZM8.99 8.93L8.99 8.96C8.99 8.97 8.99 8.98 9 8.99L9 9.02C9.01 9.03 9.01 9.05 9.01 9.06C9.02 9.07 9.02 9.08 9.02 9.09C9.03 9.1 9.03 9.11 9.03 9.12C9.04 9.13 9.04 9.14 9.05 9.15L9.06 9.18C9.07 9.19 9.07 9.2 9.08 9.21C9.08 9.22 9.09 9.23 9.1 9.24L9.12 9.26C9.12 9.27 9.13 9.28 9.14 9.29C9.14 9.3 9.15 9.3 9.16 9.31C9.17 9.32 9.17 9.33 9.18 9.34C9.19 9.34 9.2 9.35 9.2 9.36C9.21 9.37 9.22 9.37 9.23 9.38C9.24 9.39 9.25 9.39 9.25 9.4C9.26 9.41 9.27 9.41 9.28 9.42C9.29 9.43 9.3 9.43 9.31 9.44C9.32 9.44 9.33 9.45 9.34 9.45L9.37 9.47C9.38 9.47 9.39 9.48 9.4 9.48C9.41 9.49 9.42 9.49 9.43 9.49C9.44 9.5 9.45 9.5 9.46 9.5C9.47 9.51 9.48 9.51 9.49 9.51C9.5 9.52 9.51 9.52 9.52 9.52C9.54 9.52 9.55 9.52 9.56 9.53L9.75 9.53C9.77 9.52 9.78 9.52 9.79 9.52C9.8 9.52 9.81 9.52 9.82 9.51C9.83 9.51 9.84 9.51 9.85 9.5C9.86 9.5 9.87 9.5 9.88 9.49C9.89 9.49 9.9 9.49 9.91 9.48C9.92 9.48 9.93 9.47 9.94 9.47L9.97 9.45C9.98 9.45 9.99 9.44 10 9.44C10.01 9.43 10.02 9.43 10.03 9.42C10.04 9.41 10.05 9.41 10.06 9.4C10.06 9.39 10.07 9.39 10.08 9.38C10.09 9.37 10.1 9.37 10.11 9.36C10.12 9.35 10.12 9.34 10.13 9.34C10.14 9.33 10.15 9.32 10.15 9.31C10.16 9.3 10.17 9.3 10.18 9.29C10.18 9.28 10.19 9.27 10.2 9.26C10.2 9.25 10.21 9.24 10.21 9.24C10.22 9.23 10.23 9.22 10.23 9.21C10.24 9.2 10.24 9.19 10.25 9.18L10.26 9.15C10.27 9.14 10.27 9.13 10.28 9.12C10.28 9.11 10.29 9.1 10.29 9.09C10.29 9.08 10.3 9.07 10.3 9.06C10.3 9.05 10.3 9.03 10.31 9.02L10.31 8.99C10.32 8.98 10.32 8.97 10.32 8.96L10.32 8.93C10.33 8.92 10.33 8.91 10.33 8.89L10.33 2.72C10.33 2.71 10.33 2.7 10.32 2.68L10.32 2.65C10.32 2.64 10.32 2.63 10.31 2.62L10.31 2.59C10.3 2.58 10.3 2.57 10.3 2.55C10.3 2.54 10.29 2.53 10.29 2.52C10.29 2.51 10.28 2.5 10.28 2.49C10.27 2.48 10.27 2.47 10.26 2.46L10.25 2.43C10.24 2.42 10.24 2.41 10.23 2.4L10.21 2.38C10.21 2.37 10.2 2.36 10.2 2.35C10.19 2.34 10.18 2.33 10.18 2.32C10.17 2.31 10.16 2.31 10.15 2.3C10.15 2.29 10.14 2.28 10.13 2.27C10.12 2.27 10.12 2.26 10.11 2.25C10.1 2.24 10.09 2.24 10.08 2.23C10.07 2.22 10.06 2.22 10.06 2.21C10.05 2.2 10.04 2.2 10.03 2.19C10.02 2.19 10.01 2.18 10 2.17C9.99 2.17 9.98 2.16 9.97 2.16L9.94 2.14C9.93 2.14 9.92 2.13 9.91 2.13C9.9 2.12 9.89 2.12 9.88 2.12C9.87 2.11 9.86 2.11 9.85 2.11C9.84 2.1 9.83 2.1 9.82 2.1C9.81 2.09 9.8 2.09 9.79 2.09L9.75 2.09L9.72 2.08L9.59 2.08L9.56 2.09L9.52 2.09C9.51 2.09 9.5 2.09 9.49 2.1C9.48 2.1 9.47 2.1 9.46 2.11C9.45 2.11 9.44 2.11 9.43 2.12C9.42 2.12 9.41 2.12 9.4 2.13C9.39 2.13 9.38 2.14 9.37 2.14L9.34 2.16C9.33 2.16 9.32 2.17 9.31 2.17C9.3 2.18 9.29 2.19 9.28 2.19C9.27 2.2 9.26 2.2 9.25 2.21C9.25 2.22 9.24 2.22 9.23 2.23C9.22 2.24 9.21 2.24 9.2 2.25C9.2 2.26 9.19 2.27 9.18 2.27C9.17 2.28 9.17 2.29 9.16 2.3C9.15 2.31 9.14 2.31 9.14 2.32C9.13 2.33 9.12 2.34 9.12 2.35C9.11 2.36 9.1 2.37 9.1 2.38L9.08 2.4C9.07 2.41 9.07 2.42 9.06 2.43L9.05 2.46C9.04 2.47 9.04 2.48 9.03 2.49C9.03 2.5 9.03 2.51 9.02 2.52C9.02 2.53 9.02 2.54 9.01 2.55C9.01 2.57 9.01 2.58 9 2.59L9 2.62C8.99 2.63 8.99 2.64 8.99 2.65L8.99 2.68C8.99 2.7 8.98 2.71 8.98 2.72L8.98 8.89C8.98 8.91 8.99 8.92 8.99 8.93ZM9.66 10.45C10.2 10.45 10.63 10.89 10.63 11.43C10.63 11.97 10.2 12.41 9.66 12.41C9.12 12.41 8.68 11.97 8.68 11.43C8.68 10.89 9.12 10.45 9.66 10.45Z" /></g></g></svg>