<svg xmlns="http://www.w3.org/2000/svg" xmlns:xlink="http://www.w3.org/1999/xlink" width="22" height="22" viewBox="0 0 22 22" fill="none"><defs><rect id="path_0" x="0" y="0" width="22" height="22" /></defs><g opacity="1" transform="translate(0 0)  rotate(0 11 11)"><mask id="bg-mask-0" fill="white"><use xlink:href="#path_0"></use></mask><g mask="url(#bg-mask-0)" ><path id="并集 (轮廓)" fill-rule="evenodd" style="fill:#000000" transform="translate(2.1388888888888893 3.666666666666668)  rotate(0 8.86111111111111 7.333333333333333)" opacity="1" d="M17.72 9.11C17.72 12.16 15.27 14.63 12.22 14.67L4.52 14.67C2.02 14.63 0 12.59 0 10.08C0 8.37 0.94 6.87 2.34 6.09C2.33 5.93 2.32 5.78 2.32 5.62C2.32 2.52 4.84 0 7.94 0C10.35 0 12.41 1.51 13.21 3.64C15.78 4.13 17.72 6.39 17.72 9.11ZM15.23 12.17C15.43 11.98 15.6 11.76 15.76 11.53C15.92 11.3 16.05 11.05 16.16 10.79C16.27 10.53 16.35 10.26 16.41 9.98Q16.5 9.545 16.5 9.11C16.5 8.84 16.48 8.58 16.43 8.33C16.39 8.08 16.32 7.84 16.23 7.6C16.15 7.37 16.04 7.14 15.92 6.93C15.79 6.72 15.65 6.51 15.49 6.32C15.33 6.14 15.16 5.96 14.97 5.8C14.79 5.64 14.59 5.5 14.37 5.37C14.16 5.25 13.94 5.14 13.71 5.05C13.47 4.96 13.23 4.89 12.98 4.84L12.31 4.72L12.06 4.07C11.99 3.87 11.89 3.67 11.79 3.47C11.68 3.28 11.56 3.1 11.42 2.93C11.29 2.75 11.14 2.59 10.98 2.44C10.82 2.29 10.65 2.15 10.48 2.02C10.3 1.9 10.11 1.78 9.91 1.68C9.71 1.58 9.51 1.5 9.3 1.43C9.08 1.36 8.86 1.31 8.64 1.28C8.41 1.24 8.18 1.22 7.94 1.22C7.64 1.22 7.35 1.25 7.06 1.31C6.77 1.37 6.5 1.45 6.23 1.57C5.97 1.68 5.72 1.81 5.48 1.97C5.25 2.13 5.03 2.31 4.83 2.51C4.63 2.71 4.45 2.93 4.3 3.16C4.14 3.4 4 3.65 3.89 3.91C3.78 4.18 3.69 4.45 3.63 4.73C3.57 5.03 3.54 5.32 3.54 5.62C3.54 5.74 3.55 5.87 3.56 5.99L3.62 6.77L2.94 7.15C2.81 7.22 2.69 7.3 2.57 7.39C2.45 7.48 2.34 7.57 2.24 7.68C2.13 7.78 2.04 7.89 1.94 8Q1.805 8.18 1.7 8.36Q1.58 8.555 1.49 8.75C1.44 8.89 1.39 9.03 1.35 9.17C1.31 9.32 1.27 9.47 1.25 9.62C1.23 9.77 1.22 9.93 1.22 10.08C1.22 10.31 1.24 10.54 1.29 10.76C1.33 10.98 1.4 11.19 1.49 11.39C1.57 11.59 1.67 11.78 1.8 11.96C1.92 12.14 2.05 12.31 2.21 12.46C2.36 12.61 2.53 12.75 2.7 12.87C2.89 12.99 3.08 13.1 3.28 13.18C3.48 13.27 3.69 13.33 3.9 13.38C4.13 13.42 4.35 13.44 4.58 13.44L12.17 13.44C12.46 13.44 12.75 13.42 13.04 13.36C13.32 13.3 13.59 13.21 13.85 13.1C14.11 12.99 14.35 12.86 14.59 12.7C14.82 12.55 15.03 12.37 15.23 12.17Z" /></g></g></svg>