<svg xmlns="http://www.w3.org/2000/svg" xmlns:xlink="http://www.w3.org/1999/xlink" width="22" height="22" viewBox="0 0 22 22" fill="none"><defs><rect id="path_0" x="0" y="0" width="22" height="22" /></defs><g opacity="1" transform="translate(0 0)  rotate(0 11 11)"><mask id="bg-mask-0" fill="white"><use xlink:href="#path_0"></use></mask><g mask="url(#bg-mask-0)" ><path id="并集" fill-rule="evenodd" style="fill:#000000" transform="translate(2.322222245465337 1.5888888888888886)  rotate(0 8.86111111111111 9.5973267449273)" opacity="1" d="M1.49 8.75Q1.58 8.555 1.7 8.36Q1.805 8.18 1.94 8C2.04 7.89 2.13 7.78 2.24 7.68C2.34 7.57 2.45 7.48 2.57 7.39C2.69 7.3 2.81 7.22 2.94 7.15L3.62 6.77L3.56 5.99C3.55 5.87 3.54 5.74 3.54 5.62C3.54 5.32 3.57 5.03 3.63 4.73C3.69 4.45 3.78 4.18 3.89 3.91C4 3.65 4.14 3.4 4.29 3.16C4.45 2.93 4.63 2.71 4.83 2.51Q5.13 2.21 5.49 1.97C5.72 1.81 5.97 1.68 6.23 1.57C6.5 1.45 6.77 1.37 7.06 1.31C7.35 1.25 7.64 1.22 7.94 1.22C8.18 1.22 8.41 1.24 8.64 1.28C8.86 1.31 9.08 1.36 9.3 1.43C9.51 1.5 9.71 1.59 9.91 1.68C10.11 1.78 10.3 1.9 10.48 2.02C10.66 2.15 10.82 2.29 10.98 2.44C11.14 2.59 11.29 2.75 11.42 2.93C11.56 3.1 11.68 3.28 11.79 3.47C11.89 3.67 11.99 3.87 12.06 4.07L12.31 4.72L12.98 4.84C13.23 4.89 13.47 4.96 13.71 5.05C13.94 5.14 14.16 5.24 14.37 5.37C14.59 5.5 14.79 5.64 14.97 5.8C15.16 5.96 15.33 6.14 15.49 6.32C15.65 6.51 15.79 6.71 15.92 6.93C16.04 7.14 16.15 7.37 16.23 7.6C16.32 7.84 16.39 8.08 16.43 8.33C16.48 8.58 16.5 8.84 16.5 9.11Q16.5 9.545 16.41 9.98C16.35 10.26 16.27 10.53 16.16 10.79C16.05 11.05 15.92 11.3 15.76 11.53C15.6 11.76 15.43 11.98 15.23 12.17C15.03 12.37 14.82 12.55 14.59 12.7C14.35 12.86 14.11 12.99 13.85 13.1C13.59 13.21 13.32 13.3 13.04 13.36C12.75 13.42 12.46 13.44 12.17 13.44L10.57 13.44L10.57 14.67L12.22 14.67C15.27 14.63 17.72 12.16 17.72 9.11C17.72 6.39 15.78 4.13 13.21 3.64C12.41 1.51 10.35 0 7.94 0C4.84 0 2.32 2.52 2.32 5.62C2.32 5.78 2.33 5.93 2.34 6.09C0.94 6.87 0 8.37 0 10.08C0 12.59 2.02 14.63 4.52 14.67L6.78 14.67L6.78 13.44L4.58 13.44C4.35 13.44 4.13 13.42 3.91 13.38C3.69 13.33 3.48 13.27 3.28 13.18C3.08 13.1 2.89 12.99 2.7 12.87C2.53 12.75 2.36 12.61 2.21 12.46C2.05 12.31 1.92 12.14 1.8 11.96C1.67 11.78 1.57 11.59 1.49 11.39C1.4 11.19 1.33 10.98 1.29 10.76C1.25 10.54 1.22 10.31 1.22 10.08C1.22 9.93 1.23 9.77 1.25 9.62C1.27 9.47 1.31 9.32 1.35 9.17C1.39 9.03 1.44 8.89 1.49 8.75ZM12.34 15.51C12.35 15.53 12.36 15.55 12.36 15.57C12.37 15.59 12.38 15.61 12.38 15.63C12.38 15.65 12.39 15.67 12.39 15.69L12.39 15.81C12.39 15.83 12.38 15.85 12.38 15.87C12.38 15.89 12.37 15.91 12.36 15.92C12.36 15.94 12.35 15.96 12.35 15.98C12.34 16 12.33 16.02 12.32 16.03L12.29 16.09C12.28 16.1 12.27 16.12 12.25 16.14L12.21 16.18L9.59 18.8C9.53 18.87 9.46 18.92 9.38 18.97C9.31 19.02 9.23 19.06 9.15 19.1C9.06 19.13 8.98 19.15 8.9 19.17C8.81 19.19 8.73 19.19 8.64 19.19C8.55 19.19 8.47 19.19 8.38 19.17C8.3 19.15 8.22 19.13 8.13 19.1C8.05 19.06 7.97 19.02 7.9 18.97C7.82 18.92 7.75 18.87 7.69 18.8L5.07 16.18L5.03 16.14C5.01 16.12 5 16.1 4.99 16.09L4.96 16.03C4.95 16.02 4.94 16 4.94 15.98C4.93 15.96 4.92 15.94 4.92 15.92C4.91 15.91 4.9 15.89 4.9 15.87C4.9 15.85 4.89 15.83 4.89 15.81L4.89 15.69C4.89 15.67 4.9 15.65 4.9 15.63C4.9 15.61 4.91 15.59 4.92 15.57C4.92 15.55 4.93 15.53 4.94 15.51C4.94 15.49 4.95 15.48 4.96 15.46C4.97 15.44 4.98 15.42 4.99 15.41C5 15.39 5.02 15.37 5.03 15.36C5.04 15.34 5.05 15.33 5.07 15.32L5.09 15.29C5.1 15.29 5.1 15.28 5.11 15.27L5.14 15.26C5.14 15.25 5.15 15.24 5.16 15.24C5.17 15.23 5.18 15.23 5.19 15.22L5.21 15.21C5.22 15.2 5.23 15.2 5.24 15.19C5.25 15.19 5.26 15.19 5.27 15.18C5.28 15.18 5.28 15.18 5.29 15.17C5.3 15.17 5.31 15.17 5.32 15.16L5.35 15.15L5.38 15.15C5.39 15.14 5.4 15.14 5.41 15.14L5.59 15.14C5.6 15.14 5.61 15.15 5.62 15.15L5.65 15.15L5.68 15.16C5.69 15.16 5.7 15.17 5.71 15.17C5.71 15.18 5.72 15.18 5.73 15.18C5.74 15.19 5.75 15.19 5.76 15.19C5.77 15.2 5.78 15.2 5.79 15.21C5.8 15.21 5.81 15.22 5.81 15.22C5.82 15.23 5.83 15.23 5.84 15.24C5.85 15.24 5.86 15.25 5.86 15.26C5.87 15.26 5.88 15.27 5.89 15.27C5.9 15.28 5.9 15.29 5.91 15.29C5.92 15.3 5.92 15.31 5.93 15.32L8.01 17.39L8.01 9.66L8.02 9.63L8.02 9.6C8.02 9.59 8.03 9.58 8.03 9.57C8.03 9.56 8.03 9.55 8.04 9.54L8.04 9.51C8.05 9.5 8.05 9.49 8.06 9.48C8.06 9.47 8.06 9.46 8.07 9.46C8.07 9.45 8.08 9.44 8.08 9.43L8.1 9.4C8.1 9.39 8.11 9.39 8.11 9.38C8.12 9.37 8.12 9.36 8.13 9.35C8.14 9.35 8.14 9.34 8.15 9.33C8.15 9.32 8.16 9.31 8.17 9.31C8.17 9.3 8.18 9.29 8.19 9.28L8.21 9.26C8.22 9.26 8.22 9.25 8.23 9.24C8.24 9.24 8.25 9.23 8.26 9.23C8.26 9.22 8.27 9.21 8.28 9.21C8.29 9.2 8.3 9.2 8.31 9.19L8.33 9.18C8.34 9.17 8.35 9.17 8.36 9.16C8.37 9.16 8.38 9.16 8.39 9.15C8.4 9.15 8.41 9.14 8.41 9.14C8.42 9.14 8.43 9.13 8.44 9.13C8.45 9.13 8.46 9.13 8.47 9.12L8.5 9.12C8.51 9.12 8.52 9.11 8.53 9.11L8.71 9.11C8.72 9.11 8.73 9.12 8.74 9.12L8.77 9.12C8.78 9.13 8.79 9.13 8.8 9.13C8.81 9.13 8.82 9.14 8.83 9.14C8.84 9.14 8.85 9.15 8.85 9.15C8.86 9.16 8.87 9.16 8.88 9.16C8.89 9.17 8.9 9.17 8.91 9.18L8.93 9.19C8.94 9.2 8.95 9.2 8.96 9.21C8.97 9.21 8.98 9.22 8.98 9.23C8.99 9.23 9 9.24 9.01 9.24C9.02 9.25 9.02 9.26 9.03 9.26L9.05 9.28C9.06 9.29 9.07 9.3 9.07 9.31C9.08 9.31 9.09 9.32 9.09 9.33L9.11 9.35C9.12 9.36 9.12 9.37 9.13 9.38C9.13 9.39 9.14 9.39 9.14 9.4L9.16 9.43C9.16 9.44 9.17 9.45 9.17 9.46C9.18 9.46 9.18 9.47 9.18 9.48C9.19 9.49 9.19 9.5 9.2 9.51L9.2 9.54C9.21 9.55 9.21 9.56 9.21 9.57C9.22 9.58 9.22 9.59 9.22 9.6C9.22 9.61 9.22 9.62 9.23 9.63L9.23 17.43L11.35 15.32C11.36 15.31 11.36 15.3 11.37 15.29C11.38 15.29 11.38 15.28 11.39 15.27C11.4 15.27 11.41 15.26 11.42 15.26C11.42 15.25 11.43 15.24 11.44 15.24C11.45 15.23 11.46 15.23 11.47 15.22C11.47 15.22 11.48 15.21 11.49 15.21C11.5 15.2 11.51 15.2 11.52 15.19C11.53 15.19 11.54 15.19 11.55 15.18C11.56 15.18 11.57 15.18 11.57 15.17C11.58 15.17 11.59 15.16 11.6 15.16L11.63 15.15L11.66 15.15C11.67 15.15 11.68 15.14 11.69 15.14L11.87 15.14C11.88 15.14 11.89 15.14 11.9 15.15L11.93 15.15L11.96 15.16C11.97 15.17 11.98 15.17 11.99 15.17C12 15.18 12 15.18 12.01 15.18C12.02 15.19 12.03 15.19 12.04 15.19C12.05 15.2 12.06 15.2 12.07 15.21L12.09 15.22C12.1 15.23 12.11 15.23 12.12 15.24C12.13 15.24 12.14 15.25 12.14 15.26L12.17 15.27C12.18 15.28 12.18 15.29 12.19 15.29L12.21 15.32C12.23 15.33 12.24 15.34 12.25 15.36C12.26 15.37 12.28 15.39 12.29 15.41C12.3 15.42 12.31 15.44 12.32 15.46C12.33 15.48 12.34 15.49 12.34 15.51Z" /></g></g></svg>