<svg xmlns="http://www.w3.org/2000/svg" xmlns:xlink="http://www.w3.org/1999/xlink" width="22" height="22" viewBox="0 0 22 22" fill="none"><defs><rect id="path_0" x="0" y="0" width="22" height="22" /></defs><g opacity="1" transform="translate(0 0)  rotate(0 11 11)"><mask id="bg-mask-0" fill="white"><use xlink:href="#path_0"></use></mask><g mask="url(#bg-mask-0)" ><path id="并集" fill-rule="evenodd" style="fill:#000000" transform="translate(2.3222220548878596 2.6888887145235856)  rotate(0 8.86111111111111 9.107381354437933)" opacity="1" d="M2.32 5.62C2.32 2.52 4.84 0 7.94 0C10.35 0 12.41 1.51 13.21 3.64C15.78 4.13 17.72 6.39 17.72 9.11C17.72 12.16 15.27 14.63 12.22 14.67L10.57 14.67L10.57 13.44L12.17 13.44C12.46 13.44 12.75 13.42 13.04 13.36C13.32 13.3 13.59 13.21 13.85 13.1C14.11 12.99 14.35 12.86 14.59 12.7C14.82 12.55 15.03 12.37 15.23 12.17C15.43 11.98 15.6 11.76 15.76 11.53C15.92 11.3 16.05 11.05 16.16 10.79C16.27 10.53 16.35 10.26 16.41 9.98C16.47 9.69 16.5 9.4 16.5 9.11C16.5 8.84 16.48 8.58 16.43 8.33C16.39 8.08 16.32 7.84 16.23 7.6C16.15 7.37 16.04 7.14 15.92 6.93C15.79 6.71 15.65 6.51 15.49 6.32C15.33 6.14 15.16 5.96 14.97 5.8C14.79 5.64 14.59 5.5 14.37 5.37C14.16 5.24 13.94 5.14 13.71 5.05C13.47 4.96 13.23 4.89 12.98 4.84L12.31 4.72L12.06 4.07C11.99 3.87 11.89 3.67 11.79 3.47C11.68 3.28 11.56 3.1 11.42 2.93C11.29 2.75 11.14 2.59 10.98 2.44C10.82 2.29 10.66 2.15 10.48 2.02C10.3 1.9 10.11 1.78 9.91 1.68C9.71 1.59 9.51 1.5 9.3 1.43C9.08 1.36 8.86 1.31 8.64 1.28C8.41 1.24 8.18 1.22 7.94 1.22C7.64 1.22 7.35 1.25 7.06 1.31C6.77 1.37 6.5 1.45 6.23 1.57C5.97 1.68 5.72 1.81 5.49 1.97C5.25 2.13 5.03 2.31 4.83 2.51C4.63 2.71 4.45 2.93 4.29 3.16C4.14 3.4 4 3.65 3.89 3.91C3.78 4.18 3.69 4.45 3.63 4.73C3.57 5.03 3.54 5.32 3.54 5.62C3.54 5.74 3.55 5.87 3.56 5.99L3.62 6.77L2.94 7.15C2.81 7.22 2.69 7.3 2.57 7.39C2.45 7.48 2.34 7.57 2.24 7.68C2.13 7.78 2.04 7.89 1.94 8Q1.805 8.18 1.7 8.36Q1.58 8.555 1.49 8.75C1.44 8.89 1.39 9.03 1.35 9.17C1.31 9.32 1.27 9.47 1.25 9.62C1.23 9.77 1.22 9.93 1.22 10.08C1.22 10.31 1.25 10.54 1.29 10.76C1.33 10.98 1.4 11.19 1.49 11.39C1.57 11.59 1.67 11.78 1.8 11.96C1.92 12.14 2.05 12.31 2.21 12.46C2.36 12.61 2.53 12.75 2.7 12.87C2.89 12.99 3.08 13.1 3.28 13.18C3.48 13.27 3.69 13.33 3.91 13.38C4.13 13.42 4.35 13.44 4.58 13.44L6.78 13.44L6.78 14.67L4.52 14.67C2.02 14.63 0 12.59 0 10.08C0 8.37 0.94 6.87 2.34 6.09C2.33 5.93 2.32 5.78 2.32 5.62ZM4.92 11.4L4.91 11.42C4.91 11.43 4.9 11.44 4.9 11.45L4.9 11.48C4.89 11.49 4.89 11.5 4.89 11.51L4.89 11.63C4.89 11.64 4.89 11.65 4.9 11.66L4.9 11.69C4.9 11.7 4.91 11.71 4.91 11.72L4.92 11.75L4.92 11.78C4.93 11.79 4.93 11.8 4.94 11.81C4.94 11.82 4.94 11.83 4.95 11.83C4.95 11.84 4.96 11.85 4.96 11.86C4.97 11.87 4.97 11.88 4.98 11.89L4.99 11.91C5 11.92 5 11.93 5.01 11.94C5.01 11.95 5.02 11.95 5.03 11.96C5.03 11.97 5.04 11.98 5.05 11.98L5.07 12.01C5.08 12.02 5.1 12.03 5.11 12.05C5.13 12.06 5.14 12.07 5.16 12.08C5.18 12.09 5.19 12.1 5.21 12.11L5.27 12.14C5.28 12.15 5.3 12.15 5.32 12.16C5.34 12.16 5.36 12.17 5.38 12.17C5.4 12.18 5.42 12.18 5.44 12.18L5.5 12.18L5.5 12.19C5.52 12.18 5.54 12.18 5.56 12.18C5.58 12.18 5.6 12.18 5.62 12.17C5.64 12.17 5.66 12.16 5.68 12.16C5.7 12.15 5.72 12.15 5.73 12.14L5.79 12.11C5.81 12.1 5.82 12.09 5.84 12.08C5.86 12.07 5.87 12.06 5.89 12.05C5.9 12.03 5.92 12.02 5.93 12.01L8.01 9.93L8.01 17.66L8.02 17.69L8.02 17.72C8.02 17.73 8.03 17.74 8.03 17.75C8.03 17.76 8.03 17.77 8.04 17.78L8.04 17.81C8.05 17.82 8.05 17.83 8.06 17.84C8.06 17.85 8.06 17.86 8.07 17.87C8.07 17.87 8.08 17.88 8.08 17.89L8.1 17.92C8.1 17.93 8.11 17.93 8.11 17.94C8.12 17.95 8.12 17.96 8.13 17.97L8.15 17.99C8.15 18 8.16 18.01 8.17 18.01C8.17 18.02 8.18 18.03 8.19 18.04L8.21 18.06C8.22 18.06 8.22 18.07 8.23 18.08C8.24 18.08 8.25 18.09 8.26 18.1C8.26 18.1 8.27 18.11 8.28 18.11C8.29 18.12 8.3 18.12 8.31 18.13L8.33 18.14C8.34 18.15 8.35 18.15 8.36 18.16C8.37 18.16 8.38 18.16 8.39 18.17C8.4 18.17 8.41 18.18 8.41 18.18C8.42 18.18 8.43 18.19 8.44 18.19C8.45 18.19 8.46 18.19 8.47 18.2L8.5 18.2C8.51 18.2 8.52 18.21 8.53 18.21L8.71 18.21C8.72 18.21 8.73 18.2 8.74 18.2L8.77 18.2C8.78 18.19 8.79 18.19 8.8 18.19C8.81 18.19 8.82 18.18 8.83 18.18C8.84 18.18 8.85 18.17 8.85 18.17C8.86 18.16 8.87 18.16 8.88 18.16C8.89 18.15 8.9 18.15 8.91 18.14L8.93 18.13C8.94 18.12 8.95 18.12 8.96 18.11C8.97 18.11 8.98 18.1 8.98 18.1C8.99 18.09 9 18.08 9.01 18.08C9.02 18.07 9.02 18.06 9.03 18.06L9.05 18.04C9.06 18.03 9.07 18.02 9.07 18.01C9.08 18.01 9.09 18 9.09 17.99C9.1 17.98 9.11 17.98 9.11 17.97C9.12 17.96 9.12 17.95 9.13 17.94C9.13 17.93 9.14 17.93 9.14 17.92L9.16 17.89C9.16 17.88 9.17 17.87 9.17 17.87C9.18 17.86 9.18 17.85 9.18 17.84C9.19 17.83 9.19 17.82 9.2 17.81L9.2 17.78C9.21 17.77 9.21 17.76 9.21 17.75C9.22 17.74 9.22 17.73 9.22 17.72C9.22 17.71 9.22 17.7 9.23 17.69L9.23 9.89L11.35 12.01L11.37 12.03C11.38 12.03 11.39 12.04 11.39 12.05L11.42 12.06C11.42 12.07 11.43 12.08 11.44 12.08C11.45 12.09 11.46 12.09 11.47 12.1C11.47 12.1 11.48 12.11 11.49 12.11C11.5 12.12 11.51 12.12 11.52 12.13C11.53 12.13 11.54 12.13 11.55 12.14C11.56 12.14 11.56 12.14 11.57 12.15C11.58 12.15 11.59 12.16 11.6 12.16L11.63 12.17L11.66 12.17C11.67 12.17 11.68 12.18 11.69 12.18L11.75 12.18C11.76 12.18 11.77 12.18 11.78 12.19C11.79 12.18 11.8 12.18 11.81 12.18L11.87 12.18C11.88 12.18 11.89 12.17 11.9 12.17L11.93 12.17L11.96 12.16C11.97 12.16 11.98 12.15 11.99 12.15C12 12.14 12 12.14 12.01 12.14C12.02 12.13 12.03 12.13 12.04 12.13C12.05 12.12 12.06 12.12 12.07 12.11C12.08 12.11 12.09 12.1 12.09 12.1C12.1 12.09 12.11 12.09 12.12 12.08C12.13 12.08 12.14 12.07 12.14 12.06L12.17 12.05C12.18 12.04 12.18 12.03 12.19 12.03L12.21 12.01C12.22 12 12.23 11.99 12.23 11.98C12.24 11.98 12.25 11.97 12.25 11.96L12.27 11.94C12.28 11.93 12.28 11.92 12.29 11.91C12.29 11.9 12.3 11.9 12.3 11.89C12.31 11.88 12.31 11.87 12.32 11.86C12.32 11.85 12.33 11.84 12.33 11.84C12.34 11.83 12.34 11.82 12.34 11.81C12.35 11.8 12.35 11.79 12.36 11.78C12.36 11.77 12.36 11.76 12.37 11.75L12.37 11.72C12.38 11.71 12.38 11.7 12.38 11.69C12.38 11.68 12.38 11.67 12.39 11.66L12.39 11.48C12.38 11.47 12.38 11.46 12.38 11.45C12.38 11.44 12.38 11.43 12.37 11.42L12.37 11.4C12.36 11.39 12.36 11.38 12.36 11.37C12.35 11.36 12.35 11.35 12.34 11.34C12.34 11.33 12.34 11.32 12.33 11.31C12.33 11.3 12.32 11.29 12.32 11.29C12.31 11.28 12.31 11.27 12.3 11.26C12.3 11.25 12.29 11.24 12.29 11.23C12.28 11.23 12.28 11.22 12.27 11.21L12.25 11.19C12.25 11.18 12.24 11.17 12.23 11.16L9.59 8.52C9.53 8.46 9.46 8.4 9.38 8.35C9.31 8.3 9.23 8.26 9.15 8.23C9.06 8.19 8.98 8.17 8.9 8.15C8.81 8.13 8.73 8.13 8.64 8.13C8.55 8.13 8.47 8.13 8.38 8.15C8.3 8.17 8.22 8.19 8.13 8.23C8.05 8.26 7.97 8.3 7.9 8.35C7.82 8.4 7.75 8.46 7.69 8.52L5.07 11.14L5.05 11.16C5.04 11.17 5.03 11.18 5.03 11.19C5.02 11.19 5.01 11.2 5.01 11.21C5 11.22 5 11.23 4.99 11.23L4.98 11.26C4.97 11.27 4.97 11.28 4.96 11.28C4.96 11.29 4.95 11.3 4.95 11.31C4.94 11.32 4.94 11.33 4.94 11.34C4.93 11.35 4.93 11.36 4.92 11.37L4.92 11.4Z" /></g></g></svg>