<svg xmlns="http://www.w3.org/2000/svg" xmlns:xlink="http://www.w3.org/1999/xlink" width="22" height="22" viewBox="0 0 22 22" fill="none"><defs><rect id="path_0" x="0" y="0" width="22" height="22" /></defs><g opacity="1" transform="translate(0 0)  rotate(0 11 11)"><mask id="bg-mask-0" fill="white"><use xlink:href="#path_0"></use></mask><g mask="url(#bg-mask-0)" ><path id="并集" fill-rule="evenodd" style="fill:#000000" transform="translate(0.9777777777777779 1.2833333333333332)  rotate(0 10.022222222222222 9.716666666666667)" opacity="1" d="M11 0.98C11 1.52 10.56 1.96 10.02 1.96C9.48 1.96 9.04 1.52 9.04 0.98C9.04 0.44 9.48 0 10.02 0C10.56 0 11 0.44 11 0.98ZM4.52 2.81C4.52 3.35 4.08 3.79 3.54 3.79C3 3.79 2.57 3.35 2.57 2.81C2.57 2.27 3 1.83 3.54 1.83C4.08 1.83 4.52 2.27 4.52 2.81ZM15.89 2.81C15.89 2.27 16.33 1.83 16.87 1.83C17.41 1.83 17.84 2.27 17.84 2.81C17.84 3.35 17.41 3.79 16.87 3.79C16.33 3.79 15.89 3.35 15.89 2.81ZM2.93 9.66C2.93 13.57 6.11 16.74 10.02 16.74C13.94 16.74 17.11 13.57 17.11 9.66C17.11 5.74 13.94 2.57 10.02 2.57C6.11 2.57 2.93 5.74 2.93 9.66ZM13.3 14.52C13.46 14.42 13.61 14.3 13.75 14.18C13.9 14.06 14.04 13.94 14.17 13.8C14.3 13.67 14.43 13.53 14.55 13.39C14.67 13.24 14.78 13.09 14.89 12.93C14.99 12.78 15.09 12.62 15.18 12.45C15.27 12.28 15.35 12.11 15.43 11.94C15.58 11.58 15.69 11.22 15.77 10.84C15.85 10.45 15.89 10.06 15.89 9.66C15.89 9.25 15.85 8.86 15.77 8.47C15.69 8.09 15.58 7.73 15.43 7.37C15.35 7.2 15.27 7.03 15.18 6.86C15.09 6.69 14.99 6.53 14.89 6.38C14.78 6.22 14.67 6.07 14.55 5.92C14.43 5.78 14.3 5.64 14.17 5.51C14.04 5.37 13.9 5.25 13.75 5.13C13.61 5.01 13.46 4.89 13.3 4.79C13.15 4.68 12.98 4.59 12.82 4.5C12.65 4.41 12.48 4.32 12.31 4.25C11.95 4.1 11.58 3.99 11.21 3.91C10.82 3.83 10.42 3.79 10.02 3.79C9.62 3.79 9.23 3.83 8.84 3.91C8.46 3.99 8.09 4.1 7.74 4.25C7.56 4.32 7.39 4.41 7.23 4.5C7.06 4.59 6.9 4.68 6.74 4.79C6.59 4.89 6.44 5.01 6.29 5.13C6.15 5.25 6.01 5.37 5.87 5.51C5.74 5.64 5.61 5.78 5.5 5.92C5.38 6.07 5.26 6.22 5.16 6.38C5.05 6.53 4.95 6.69 4.86 6.86C4.77 7.03 4.69 7.2 4.62 7.37C4.47 7.73 4.35 8.09 4.28 8.47C4.2 8.86 4.16 9.25 4.16 9.66C4.16 10.06 4.2 10.45 4.28 10.84C4.35 11.22 4.47 11.58 4.62 11.94C4.69 12.11 4.77 12.28 4.86 12.45C4.95 12.62 5.05 12.78 5.16 12.93C5.26 13.09 5.38 13.24 5.5 13.39C5.61 13.53 5.74 13.67 5.87 13.8C6.01 13.94 6.15 14.06 6.29 14.18C6.44 14.3 6.59 14.42 6.74 14.52C6.9 14.63 7.06 14.73 7.23 14.81C7.39 14.91 7.56 14.99 7.74 15.06C8.09 15.21 8.46 15.33 8.84 15.4C9.23 15.48 9.62 15.52 10.02 15.52C10.42 15.52 10.82 15.48 11.21 15.4C11.58 15.33 11.95 15.21 12.31 15.06C12.48 14.99 12.65 14.91 12.82 14.81C12.98 14.73 13.15 14.63 13.3 14.52ZM0 9.9C0 9.36 0.44 8.92 0.98 8.92C1.52 8.92 1.96 9.36 1.96 9.9C1.96 10.44 1.52 10.88 0.98 10.88C0.44 10.88 0 10.44 0 9.9ZM18.09 9.9C18.09 9.36 18.53 8.92 19.07 8.92C19.61 8.92 20.04 9.36 20.04 9.9C20.04 10.44 19.61 10.88 19.07 10.88C18.53 10.88 18.09 10.44 18.09 9.9ZM2.32 16.13C2.32 15.59 2.76 15.16 3.3 15.16C3.84 15.16 4.28 15.59 4.28 16.13C4.28 16.67 3.84 17.11 3.3 17.11C2.76 17.11 2.32 16.67 2.32 16.13ZM16.99 17.11C17.53 17.11 17.97 16.67 17.97 16.13C17.97 15.59 17.53 15.16 16.99 15.16C16.45 15.16 16.01 15.59 16.01 16.13C16.01 16.67 16.45 17.11 16.99 17.11ZM10.02 17.48C9.48 17.48 9.04 17.92 9.04 18.46C9.04 19 9.48 19.43 10.02 19.43C10.56 19.43 11 19 11 18.46C11 17.92 10.56 17.48 10.02 17.48Z" /></g></g></svg>