<svg xmlns="http://www.w3.org/2000/svg" xmlns:xlink="http://www.w3.org/1999/xlink" width="22" height="22" viewBox="0 0 22 22" fill="none"><defs><rect id="path_0" x="0" y="0" width="22" height="22" /></defs><g opacity="1" transform="translate(0 0)  rotate(0 11 11)"><mask id="bg-mask-0" fill="white"><use xlink:href="#path_0"></use></mask><g mask="url(#bg-mask-0)" ><path id="并集" fill-rule="evenodd" style="fill:#000000" transform="translate(1.344444444444445 2.6583333333333314)  rotate(0 9.655555555555555 8.341666666666667)" opacity="1" d="M0 1.47C0 0.66 0.66 0 1.47 0L17.84 0C18.65 0 19.31 0.66 19.31 1.47L19.31 15.22C19.31 16.03 18.65 16.68 17.84 16.68L1.47 16.68C0.66 16.68 0 16.03 0 15.22L0 1.47ZM18.09 15.22C18.09 15.25 18.08 15.28 18.07 15.31C18.06 15.34 18.04 15.37 18.02 15.39C17.99 15.41 17.97 15.43 17.94 15.44C17.91 15.46 17.88 15.46 17.84 15.46L1.47 15.46C1.43 15.46 1.4 15.46 1.37 15.44C1.34 15.43 1.32 15.41 1.29 15.39C1.27 15.37 1.25 15.34 1.24 15.31C1.23 15.28 1.22 15.25 1.22 15.22L1.22 1.47C1.22 1.43 1.23 1.4 1.24 1.37C1.25 1.34 1.27 1.32 1.29 1.29C1.32 1.27 1.34 1.25 1.37 1.24C1.4 1.23 1.43 1.22 1.47 1.22L17.84 1.22C17.88 1.22 17.91 1.23 17.94 1.24C17.97 1.25 17.99 1.27 18.02 1.29C18.04 1.32 18.06 1.34 18.07 1.37C18.08 1.4 18.09 1.43 18.09 1.47L18.09 15.22ZM7.28 4.18C7.27 4.17 7.26 4.16 7.26 4.15C7.25 4.15 7.24 4.14 7.24 4.13C7.23 4.13 7.22 4.12 7.22 4.11C7.21 4.1 7.2 4.1 7.19 4.09L7.17 4.07C7.16 4.07 7.15 4.06 7.15 4.05C7.14 4.05 7.13 4.04 7.12 4.04C7.11 4.03 7.1 4.03 7.09 4.02C7.09 4.02 7.08 4.01 7.07 4.01C7.06 4 7.05 4 7.04 3.99C7.03 3.99 7.02 3.99 7.01 3.98C6.94 3.96 6.87 3.94 6.79 3.94C6.77 3.94 6.75 3.94 6.73 3.95C6.7 3.95 6.67 3.95 6.65 3.96C6.62 3.97 6.59 3.97 6.57 3.99C6.54 4 6.51 4.01 6.49 4.02C6.47 4.04 6.44 4.05 6.42 4.07C6.4 4.08 6.38 4.1 6.36 4.12C6.34 4.14 6.32 4.16 6.3 4.19C6.29 4.21 6.27 4.23 6.26 4.26C6.25 4.28 6.23 4.31 6.22 4.33L3.04 12.54C3.01 12.61 2.99 12.68 2.99 12.76C2.99 12.8 3 12.84 3.01 12.89C3.02 12.93 3.03 12.97 3.05 13.01C3.05 13.03 3.06 13.04 3.07 13.06C3.08 13.08 3.09 13.1 3.11 13.11C3.12 13.13 3.13 13.14 3.14 13.16L3.18 13.2C3.2 13.22 3.21 13.23 3.23 13.24C3.24 13.26 3.26 13.27 3.28 13.28C3.29 13.29 3.31 13.3 3.33 13.31C3.35 13.32 3.37 13.32 3.38 13.33C3.39 13.33 3.4 13.34 3.41 13.34C3.42 13.34 3.43 13.35 3.44 13.35C3.45 13.35 3.46 13.36 3.47 13.36L3.5 13.36C3.51 13.37 3.52 13.37 3.53 13.37L3.68 13.37L3.71 13.36L3.74 13.36L3.77 13.35C3.78 13.35 3.79 13.35 3.8 13.34C3.81 13.34 3.81 13.34 3.82 13.33C3.83 13.33 3.84 13.32 3.85 13.32C3.86 13.32 3.87 13.31 3.88 13.31C3.89 13.3 3.9 13.3 3.91 13.29C3.91 13.29 3.92 13.28 3.93 13.28C3.94 13.27 3.95 13.27 3.96 13.26L3.98 13.24C3.99 13.24 4 13.23 4 13.22C4.01 13.22 4.02 13.21 4.03 13.2L4.05 13.18L4.07 13.16L4.09 13.14C4.09 13.13 4.1 13.12 4.1 13.11C4.11 13.11 4.12 13.1 4.12 13.09C4.13 13.08 4.13 13.07 4.14 13.06C4.14 13.05 4.15 13.05 4.15 13.04C4.16 13.03 4.16 13.02 4.16 13.01C4.17 13 4.17 12.99 4.18 12.98L7.36 4.77C7.37 4.76 7.37 4.76 7.37 4.75C7.38 4.74 7.38 4.73 7.38 4.72C7.38 4.71 7.39 4.7 7.39 4.69L7.39 4.66C7.4 4.65 7.4 4.64 7.4 4.63L7.4 4.45C7.39 4.44 7.39 4.43 7.39 4.42L7.38 4.39C7.38 4.38 7.38 4.37 7.37 4.36C7.37 4.35 7.37 4.34 7.36 4.33C7.36 4.32 7.36 4.32 7.35 4.31C7.35 4.3 7.34 4.29 7.34 4.28C7.33 4.27 7.33 4.26 7.33 4.25L7.31 4.23C7.31 4.22 7.3 4.21 7.29 4.2C7.29 4.19 7.28 4.19 7.28 4.18ZM8.13 13.33L8.16 13.33C8.17 13.34 8.18 13.34 8.19 13.34C8.2 13.34 8.21 13.35 8.22 13.35L16.01 13.35C16.02 13.35 16.04 13.35 16.06 13.34C16.08 13.34 16.1 13.34 16.11 13.33C16.13 13.33 16.15 13.32 16.17 13.31C16.18 13.31 16.2 13.3 16.22 13.29C16.24 13.28 16.25 13.27 16.27 13.26C16.28 13.25 16.3 13.24 16.31 13.23C16.33 13.22 16.34 13.21 16.36 13.2C16.37 13.19 16.38 13.17 16.4 13.16C16.41 13.14 16.42 13.13 16.43 13.12C16.44 13.1 16.45 13.09 16.46 13.07C16.48 13.05 16.48 13.04 16.49 13.02C16.5 13.01 16.51 12.99 16.52 12.97C16.52 12.95 16.53 12.94 16.53 12.92C16.54 12.9 16.55 12.88 16.55 12.86C16.55 12.85 16.55 12.83 16.56 12.81L16.56 12.68L16.55 12.65L16.55 12.62C16.55 12.61 16.55 12.6 16.54 12.59C16.54 12.58 16.54 12.57 16.53 12.56L16.53 12.54C16.52 12.53 16.52 12.52 16.51 12.51C16.51 12.5 16.51 12.49 16.5 12.48C16.5 12.47 16.49 12.46 16.49 12.45L16.47 12.43C16.47 12.42 16.46 12.41 16.46 12.4L16.44 12.38C16.44 12.37 16.43 12.36 16.42 12.35L16.4 12.33C16.4 12.32 16.39 12.32 16.38 12.31C16.38 12.3 16.37 12.3 16.36 12.29L16.34 12.27C16.33 12.26 16.32 12.26 16.31 12.25L16.29 12.23C16.28 12.23 16.27 12.22 16.26 12.22L16.24 12.2C16.23 12.2 16.22 12.19 16.21 12.19C16.2 12.19 16.19 12.18 16.18 12.18C16.17 12.17 16.17 12.17 16.16 12.17C16.15 12.16 16.14 12.16 16.13 12.16C16.12 12.15 16.11 12.15 16.1 12.15C16.09 12.15 16.08 12.14 16.07 12.14L16.04 12.14L16.01 12.13L8.25 12.13C8.24 12.14 8.22 12.14 8.2 12.14C8.18 12.15 8.16 12.15 8.14 12.15C8.12 12.16 8.11 12.17 8.09 12.17C8.07 12.18 8.05 12.19 8.04 12.2C8.02 12.2 8 12.21 7.99 12.22C7.97 12.23 7.96 12.24 7.94 12.25L7.86 12.33C7.84 12.35 7.83 12.36 7.82 12.38C7.81 12.39 7.8 12.41 7.79 12.42C7.78 12.44 7.77 12.46 7.76 12.47C7.75 12.49 7.75 12.51 7.74 12.53C7.73 12.54 7.73 12.56 7.72 12.58C7.72 12.6 7.71 12.62 7.71 12.64C7.71 12.65 7.7 12.67 7.7 12.69L7.7 12.8C7.7 12.81 7.7 12.82 7.71 12.83L7.71 12.86C7.71 12.87 7.72 12.88 7.72 12.89C7.72 12.9 7.72 12.91 7.73 12.92C7.73 12.93 7.73 12.94 7.74 12.95C7.74 12.96 7.74 12.97 7.75 12.98C7.75 12.98 7.76 12.99 7.76 13C7.76 13.01 7.77 13.02 7.77 13.03L7.79 13.06C7.79 13.06 7.8 13.07 7.8 13.08C7.81 13.09 7.81 13.1 7.82 13.11C7.83 13.11 7.83 13.12 7.84 13.13L7.86 13.15C7.86 13.16 7.87 13.17 7.88 13.17C7.89 13.18 7.89 13.19 7.9 13.19L7.92 13.21C7.93 13.22 7.94 13.23 7.95 13.23L7.97 13.25C7.98 13.25 7.99 13.26 8 13.27L8.02 13.28C8.03 13.29 8.04 13.29 8.05 13.29C8.06 13.3 8.07 13.3 8.08 13.31C8.09 13.31 8.1 13.31 8.11 13.32C8.11 13.32 8.12 13.32 8.13 13.33Z" /></g></g></svg>