<svg xmlns="http://www.w3.org/2000/svg" xmlns:xlink="http://www.w3.org/1999/xlink" width="22" height="22" viewBox="0 0 22 22" fill="none"><defs><rect id="path_0" x="0" y="0" width="22" height="22" /><filter id="filter_2" x="1.1000000849583387" y="3.177776880939149" width="19.555555470597227" height="14.904469158276513" filterUnits="userSpaceOnUse" color-interpolation-filters="sRGB"></filter></defs><g opacity="1" transform="translate(0 0)  rotate(0 11 11)"><mask id="bg-mask-0" fill="white"><use xlink:href="#path_0"></use></mask><g mask="url(#bg-mask-0)" ><path id="并集" fill-rule="evenodd" style="fill:#000000" transform="translate(1.1000000849583387 3.177776880939149)  rotate(0 9.777777735298613 7.452234579138256)" opacity="1" d="M6.82 13.38C6.79 13.43 6.76 13.46 6.73 13.5C6.7 13.53 6.66 13.56 6.62 13.59C6.58 13.61 6.53 13.64 6.49 13.65C6.44 13.67 6.39 13.68 6.35 13.68L6.2 13.68C6.15 13.67 6.11 13.65 6.06 13.64C6.02 13.62 5.98 13.6 5.94 13.57C5.9 13.54 5.86 13.51 5.83 13.47L1.07 7.93C1.06 7.92 1.05 7.9 1.03 7.89L0.99 7.85C0.97 7.84 0.96 7.83 0.94 7.82C0.92 7.81 0.9 7.8 0.89 7.79L0.83 7.76C0.81 7.75 0.79 7.75 0.78 7.74C0.76 7.74 0.74 7.73 0.72 7.73C0.7 7.73 0.68 7.72 0.66 7.72L0.6 7.72C0.58 7.72 0.56 7.72 0.54 7.73C0.52 7.73 0.5 7.73 0.48 7.74C0.46 7.74 0.44 7.75 0.42 7.75C0.4 7.76 0.38 7.76 0.36 7.77C0.35 7.78 0.33 7.79 0.31 7.8C0.29 7.81 0.28 7.82 0.26 7.83C0.24 7.84 0.23 7.86 0.21 7.87L0.17 7.91C0.15 7.93 0.14 7.95 0.12 7.96L0.09 8.02C0.07 8.04 0.06 8.06 0.06 8.08L0.03 8.14C0.02 8.16 0.02 8.18 0.01 8.2C0.01 8.22 0.01 8.25 0 8.27L0 8.33C0 8.37 0 8.41 0.01 8.44C0.02 8.48 0.03 8.51 0.04 8.54C0.05 8.58 0.07 8.61 0.08 8.64C0.1 8.67 0.12 8.7 0.15 8.73L4.9 14.27C5 14.38 5.11 14.47 5.23 14.56C5.34 14.64 5.47 14.71 5.6 14.77C5.73 14.82 5.87 14.86 6.01 14.88C6.16 14.91 6.3 14.91 6.45 14.9C6.6 14.89 6.74 14.86 6.88 14.81C7.01 14.76 7.14 14.7 7.27 14.62C7.39 14.55 7.5 14.46 7.6 14.36C7.7 14.25 7.79 14.14 7.87 14.01L15.68 0.92C15.69 0.91 15.7 0.89 15.71 0.87C15.72 0.85 15.72 0.83 15.73 0.82C15.74 0.8 15.74 0.78 15.75 0.76C15.75 0.74 15.76 0.72 15.76 0.7C15.76 0.68 15.77 0.66 15.77 0.64L15.77 0.58C15.76 0.56 15.76 0.54 15.76 0.52C15.76 0.5 15.75 0.48 15.75 0.46C15.74 0.44 15.74 0.42 15.73 0.4C15.72 0.39 15.72 0.37 15.71 0.35C15.7 0.33 15.69 0.31 15.68 0.3C15.67 0.28 15.66 0.26 15.65 0.25C15.63 0.23 15.62 0.21 15.61 0.2C15.59 0.19 15.58 0.17 15.57 0.16C15.55 0.14 15.53 0.13 15.52 0.12C15.5 0.11 15.49 0.1 15.47 0.09C15.46 0.08 15.45 0.08 15.44 0.07C15.43 0.07 15.42 0.06 15.42 0.06C15.41 0.05 15.4 0.05 15.39 0.05C15.38 0.04 15.37 0.04 15.36 0.04C15.35 0.03 15.34 0.03 15.33 0.03C15.32 0.02 15.31 0.02 15.3 0.02C15.29 0.02 15.28 0.01 15.27 0.01L15.24 0.01C15.23 0.01 15.22 0 15.21 0L15.09 0C15.08 0 15.07 0.01 15.06 0.01L15.04 0.01C15.03 0.01 15.02 0.02 15.01 0.02C15 0.02 14.99 0.02 14.98 0.03C14.97 0.03 14.96 0.03 14.95 0.04C14.94 0.04 14.93 0.04 14.92 0.05C14.91 0.05 14.9 0.05 14.89 0.06C14.88 0.06 14.88 0.07 14.87 0.07C14.86 0.08 14.85 0.08 14.84 0.09C14.83 0.09 14.82 0.1 14.82 0.1C14.81 0.11 14.8 0.11 14.79 0.12C14.78 0.13 14.77 0.13 14.77 0.14C14.76 0.15 14.75 0.15 14.74 0.16C14.74 0.17 14.73 0.17 14.72 0.18C14.72 0.19 14.71 0.19 14.7 0.2C14.7 0.21 14.69 0.22 14.68 0.22C14.68 0.23 14.67 0.24 14.66 0.25C14.66 0.26 14.65 0.26 14.65 0.27C14.64 0.28 14.64 0.29 14.63 0.3L6.82 13.38Z M19.54 5.40445L19.54 5.37445C19.55 5.36445 19.55 5.35445 19.55 5.34445L19.55 5.28445C19.56 5.27445 19.56 5.26445 19.56 5.25445C19.56 5.24445 19.56 5.23445 19.55 5.22445L19.55 5.16445C19.55 5.15445 19.55 5.14445 19.54 5.13445L19.54 5.10445C19.53 5.09445 19.53 5.08445 19.53 5.07445C19.53 5.06445 19.52 5.05445 19.52 5.05445C19.52 5.04445 19.51 5.03445 19.51 5.02445C19.51 5.01445 19.5 5.00445 19.5 4.99445C19.49 4.98445 19.49 4.97445 19.48 4.96445C19.48 4.95445 19.47 4.95445 19.47 4.94445C19.46 4.93445 19.46 4.92445 19.45 4.91445C19.45 4.90445 19.44 4.90445 19.44 4.89445C19.43 4.88445 19.42 4.87445 19.42 4.86445C19.41 4.86445 19.4 4.85445 19.4 4.84445C19.39 4.83445 19.38 4.83445 19.38 4.82445C19.37 4.81445 19.36 4.81445 19.35 4.80445C19.35 4.79445 19.34 4.79445 19.33 4.78445L19.31 4.76445C19.3 4.75445 19.29 4.75445 19.28 4.74445C19.28 4.74445 19.27 4.73445 19.26 4.73445C19.25 4.72445 19.24 4.72445 19.23 4.71445C19.22 4.71445 19.21 4.70445 19.21 4.70445C19.2 4.69445 19.19 4.69445 19.18 4.69445C19.17 4.68445 19.16 4.68445 19.15 4.68445C19.14 4.67445 19.13 4.67445 19.12 4.67445C19.11 4.66445 19.1 4.66445 19.09 4.66445C19.08 4.66445 19.07 4.65445 19.06 4.65445L19.03 4.65445C19.02 4.65445 19.01 4.64445 19 4.64445L15.4 4.64445C15.39 4.64445 15.38 4.65445 15.37 4.65445L15.34 4.65445C15.33 4.65445 15.32 4.66445 15.31 4.66445C15.3 4.66445 15.29 4.66445 15.28 4.67445C15.27 4.67445 15.26 4.67445 15.26 4.68445C15.25 4.68445 15.24 4.68445 15.23 4.69445C15.22 4.69445 15.21 4.69445 15.2 4.70445C15.19 4.70445 15.18 4.71445 15.17 4.71445L15.15 4.73445C15.14 4.73445 15.13 4.74445 15.12 4.74445L15.1 4.76445C15.09 4.77445 15.08 4.77445 15.07 4.78445C15.07 4.79445 15.06 4.79445 15.05 4.80445L15.03 4.82445L15.01 4.84445C15 4.85445 15 4.86445 14.99 4.86445C14.98 4.87445 14.98 4.88445 14.97 4.89445L14.95 4.91445C14.95 4.92445 14.94 4.93445 14.94 4.94445L14.92 4.96445C14.92 4.97445 14.91 4.98445 14.91 4.99445C14.9 5.00445 14.9 5.01445 14.9 5.02445C14.89 5.03445 14.89 5.04445 14.89 5.05445C14.88 5.05445 14.88 5.06445 14.88 5.07445C14.87 5.08445 14.87 5.09445 14.87 5.10445C14.87 5.11445 14.86 5.12445 14.86 5.13445L14.86 5.16445C14.86 5.17445 14.85 5.18445 14.85 5.19445L14.85 5.31445C14.85 5.32445 14.86 5.33445 14.86 5.34445L14.86 5.37445C14.86 5.38445 14.87 5.39445 14.87 5.40445C14.87 5.41445 14.87 5.42445 14.88 5.43445C14.88 5.44445 14.88 5.45445 14.89 5.46445C14.89 5.47445 14.89 5.48445 14.9 5.48445C14.9 5.49445 14.9 5.50445 14.91 5.51445C14.91 5.52445 14.92 5.53445 14.92 5.54445C14.93 5.55445 14.93 5.56445 14.94 5.57445C14.94 5.57445 14.95 5.58445 14.95 5.59445C14.96 5.60445 14.96 5.61445 14.97 5.62445C14.98 5.62445 14.98 5.63445 14.99 5.64445L15.01 5.66445C15.02 5.67445 15.02 5.68445 15.03 5.68445C15.04 5.69445 15.04 5.70445 15.05 5.70445L15.07 5.72445C15.08 5.73445 15.09 5.74445 15.1 5.74445L15.12 5.76445C15.13 5.76445 15.14 5.77445 15.15 5.78445C15.16 5.78445 15.16 5.79445 15.17 5.79445C15.18 5.79445 15.19 5.80445 15.2 5.80445C15.21 5.81445 15.22 5.81445 15.23 5.82445C15.24 5.82445 15.25 5.82445 15.26 5.83445C15.26 5.83445 15.27 5.83445 15.28 5.84445L15.31 5.84445C15.32 5.85445 15.33 5.85445 15.34 5.85445C15.35 5.85445 15.36 5.85445 15.37 5.86445L19.03 5.86445C19.04 5.85445 19.05 5.85445 19.06 5.85445C19.07 5.85445 19.08 5.85445 19.09 5.84445L19.12 5.84445C19.13 5.83445 19.14 5.83445 19.15 5.83445C19.16 5.82445 19.17 5.82445 19.18 5.82445C19.19 5.81445 19.2 5.81445 19.21 5.80445C19.21 5.80445 19.22 5.79445 19.23 5.79445C19.24 5.79445 19.25 5.78445 19.26 5.78445L19.28 5.76445C19.29 5.75445 19.3 5.75445 19.31 5.74445C19.32 5.74445 19.32 5.73445 19.33 5.72445C19.34 5.72445 19.35 5.71445 19.35 5.70445C19.36 5.70445 19.37 5.69445 19.38 5.68445L19.4 5.66445C19.4 5.65445 19.41 5.65445 19.42 5.64445C19.42 5.63445 19.43 5.62445 19.44 5.62445C19.44 5.61445 19.45 5.60445 19.45 5.59445C19.46 5.58445 19.46 5.57445 19.47 5.57445C19.47 5.56445 19.48 5.55445 19.48 5.54445C19.49 5.53445 19.49 5.52445 19.5 5.51445C19.5 5.50445 19.51 5.49445 19.51 5.48445C19.51 5.48445 19.52 5.47445 19.52 5.46445C19.52 5.45445 19.53 5.44445 19.53 5.43445C19.53 5.42445 19.53 5.41445 19.54 5.40445Z M19.4544 8.33667L19.4344 8.31667C19.4244 8.30667 19.4244 8.29667 19.4144 8.28667L19.3944 8.26667C19.3944 8.25667 19.3844 8.25667 19.3744 8.24667C19.3744 8.23667 19.3644 8.23667 19.3544 8.22667L19.3344 8.20667C19.3244 8.19667 19.3144 8.19667 19.3044 8.18667C19.3044 8.17667 19.2944 8.17667 19.2844 8.16667C19.2744 8.16667 19.2644 8.15667 19.2544 8.15667C19.2544 8.14667 19.2444 8.14667 19.2344 8.13667C19.2244 8.13667 19.2144 8.12667 19.2044 8.12667C19.1944 8.11667 19.1844 8.11667 19.1744 8.11667C19.1644 8.10667 19.1644 8.10667 19.1544 8.10667C19.1444 8.09667 19.1344 8.09667 19.1244 8.09667C19.1144 8.08667 19.1044 8.08667 19.0944 8.08667C19.0844 8.08667 19.0744 8.07667 19.0644 8.07667L19.0344 8.07667C19.0244 8.07667 19.0144 8.06667 19.0044 8.06667L13.7744 8.06667C13.7644 8.06667 13.7544 8.07667 13.7444 8.07667L13.7144 8.07667C13.7044 8.07667 13.6944 8.08667 13.6844 8.08667C13.6744 8.08667 13.6644 8.08667 13.6544 8.09667C13.6444 8.09667 13.6344 8.09667 13.6344 8.10667C13.6244 8.10667 13.6144 8.10667 13.6044 8.11667C13.5944 8.11667 13.5844 8.11667 13.5744 8.12667C13.5644 8.12667 13.5544 8.13667 13.5444 8.13667L13.5244 8.15667C13.5144 8.15667 13.5044 8.16667 13.4944 8.16667L13.4744 8.18667C13.4644 8.19667 13.4544 8.19667 13.4444 8.20667C13.4444 8.21667 13.4344 8.21667 13.4244 8.22667L13.4044 8.24667L13.3844 8.26667C13.3744 8.27667 13.3744 8.28667 13.3644 8.28667C13.3544 8.29667 13.3544 8.30667 13.3444 8.31667L13.3244 8.33667C13.3244 8.34667 13.3144 8.35667 13.3144 8.36667L13.2944 8.38667C13.2944 8.39667 13.2844 8.40667 13.2844 8.41667C13.2744 8.42667 13.2744 8.43667 13.2744 8.44667C13.2644 8.45667 13.2644 8.46667 13.2644 8.47667C13.2544 8.47667 13.2544 8.48667 13.2544 8.49667C13.2444 8.50667 13.2444 8.51667 13.2444 8.52667C13.2444 8.53667 13.2344 8.54667 13.2344 8.55667L13.2344 8.58667C13.2344 8.59667 13.2244 8.60667 13.2244 8.61667L13.2244 8.73667C13.2244 8.74667 13.2344 8.75667 13.2344 8.76667L13.2344 8.79667C13.2344 8.80667 13.2444 8.81667 13.2444 8.82667C13.2444 8.83667 13.2444 8.84667 13.2544 8.85667C13.2544 8.86667 13.2544 8.87667 13.2644 8.88667C13.2644 8.89667 13.2644 8.90667 13.2744 8.90667C13.2744 8.91667 13.2744 8.92667 13.2844 8.93667C13.2844 8.94667 13.2944 8.95667 13.2944 8.96667C13.3044 8.97667 13.3044 8.98667 13.3144 8.99667C13.3144 8.99667 13.3244 9.00667 13.3244 9.01667C13.3344 9.02667 13.3344 9.03667 13.3444 9.04667C13.3544 9.04667 13.3544 9.05667 13.3644 9.06667L13.3844 9.08667C13.3944 9.09667 13.3944 9.10667 13.4044 9.10667C13.4144 9.11667 13.4144 9.12667 13.4244 9.12667L13.4444 9.14667C13.4544 9.15667 13.4644 9.16667 13.4744 9.16667L13.4944 9.18667C13.5044 9.18667 13.5144 9.19667 13.5244 9.20667C13.5344 9.20667 13.5344 9.21667 13.5444 9.21667C13.5544 9.21667 13.5644 9.22667 13.5744 9.22667C13.5844 9.23667 13.5944 9.23667 13.6044 9.24667C13.6144 9.24667 13.6244 9.24667 13.6344 9.25667C13.6344 9.25667 13.6444 9.25667 13.6544 9.26667L13.6844 9.26667C13.6944 9.27667 13.7044 9.27667 13.7144 9.27667C13.7244 9.27667 13.7344 9.27667 13.7444 9.28667L19.0344 9.28667C19.0444 9.27667 19.0544 9.27667 19.0644 9.27667C19.0744 9.27667 19.0844 9.27667 19.0944 9.26667L19.1244 9.26667C19.1344 9.25667 19.1444 9.25667 19.1544 9.25667C19.1644 9.24667 19.1644 9.24667 19.1744 9.24667C19.1844 9.23667 19.1944 9.23667 19.2044 9.22667C19.2144 9.22667 19.2244 9.21667 19.2344 9.21667C19.2444 9.21667 19.2544 9.20667 19.2544 9.20667C19.2644 9.19667 19.2744 9.18667 19.2844 9.18667C19.2944 9.17667 19.3044 9.17667 19.3044 9.16667C19.3144 9.16667 19.3244 9.15667 19.3344 9.14667C19.3444 9.14667 19.3444 9.13667 19.3544 9.12667C19.3644 9.12667 19.3744 9.11667 19.3744 9.10667C19.3844 9.10667 19.3944 9.09667 19.3944 9.08667C19.4044 9.07667 19.4144 9.07667 19.4144 9.06667C19.4244 9.05667 19.4244 9.04667 19.4344 9.04667C19.4444 9.03667 19.4444 9.02667 19.4544 9.01667C19.4544 9.00667 19.4644 8.99667 19.4644 8.99667C19.4744 8.98667 19.4744 8.97667 19.4844 8.96667C19.4844 8.95667 19.4944 8.94667 19.4944 8.93667C19.5044 8.92667 19.5044 8.91667 19.5044 8.90667C19.5144 8.90667 19.5144 8.89667 19.5244 8.88667L19.5244 8.85667C19.5344 8.84667 19.5344 8.83667 19.5344 8.82667C19.5444 8.81667 19.5444 8.80667 19.5444 8.79667L19.5444 8.76667C19.5544 8.75667 19.5544 8.74667 19.5544 8.73667L19.5544 8.61667C19.5544 8.60667 19.5544 8.59667 19.5444 8.58667L19.5444 8.55667C19.5444 8.54667 19.5444 8.53667 19.5344 8.52667C19.5344 8.51667 19.5344 8.50667 19.5244 8.49667L19.5244 8.47667C19.5144 8.46667 19.5144 8.45667 19.5044 8.44667C19.5044 8.43667 19.5044 8.42667 19.4944 8.41667C19.4944 8.40667 19.4844 8.39667 19.4844 8.38667L19.4644 8.36667C19.4644 8.35667 19.4544 8.34667 19.4544 8.33667Z M11.8867 12.7089L19.0367 12.7089C19.0467 12.6989 19.0567 12.6989 19.0667 12.6989C19.0767 12.6989 19.0867 12.6989 19.0967 12.6889L19.1267 12.6889C19.1267 12.6789 19.1367 12.6789 19.1467 12.6789C19.1567 12.6689 19.1667 12.6689 19.1767 12.6689C19.1867 12.6589 19.1967 12.6589 19.2067 12.6489C19.2167 12.6489 19.2267 12.6389 19.2367 12.6389C19.2367 12.6389 19.2467 12.6289 19.2567 12.6289C19.2667 12.6189 19.2767 12.6089 19.2867 12.6089L19.3067 12.5889C19.3167 12.5889 19.3267 12.5789 19.3367 12.5689L19.3567 12.5489C19.3667 12.5489 19.3667 12.5389 19.3767 12.5289C19.3867 12.5289 19.3867 12.5189 19.3967 12.5089L19.4167 12.4889C19.4267 12.4789 19.4267 12.4689 19.4367 12.4689C19.4367 12.4589 19.4467 12.4489 19.4567 12.4389C19.4567 12.4289 19.4667 12.4189 19.4667 12.4189C19.4767 12.4089 19.4767 12.3989 19.4867 12.3889C19.4867 12.3789 19.4967 12.3689 19.4967 12.3589C19.4967 12.3489 19.5067 12.3389 19.5067 12.3289C19.5167 12.3289 19.5167 12.3189 19.5167 12.3089C19.5267 12.2989 19.5267 12.2889 19.5267 12.2789C19.5367 12.2689 19.5367 12.2589 19.5367 12.2489C19.5367 12.2389 19.5467 12.2289 19.5467 12.2189L19.5467 12.1889C19.5467 12.1789 19.5467 12.1689 19.5567 12.1589L19.5567 12.0389C19.5467 12.0289 19.5467 12.0189 19.5467 12.0089L19.5467 11.9789C19.5467 11.9689 19.5367 11.9589 19.5367 11.9489C19.5367 11.9389 19.5367 11.9289 19.5267 11.9189C19.5267 11.9089 19.5267 11.8989 19.5167 11.8989C19.5167 11.8889 19.5167 11.8789 19.5067 11.8689C19.5067 11.8589 19.4967 11.8489 19.4967 11.8389C19.4967 11.8289 19.4867 11.8189 19.4867 11.8089L19.4667 11.7889C19.4667 11.7789 19.4567 11.7689 19.4567 11.7589C19.4467 11.7489 19.4367 11.7489 19.4367 11.7389C19.4267 11.7289 19.4267 11.7189 19.4167 11.7089C19.4067 11.7089 19.4067 11.6989 19.3967 11.6889L19.3767 11.6689L19.3567 11.6489C19.3467 11.6389 19.3367 11.6389 19.3367 11.6289C19.3267 11.6189 19.3167 11.6189 19.3067 11.6089L19.2867 11.5889C19.2767 11.5889 19.2667 11.5789 19.2567 11.5789C19.2467 11.5689 19.2367 11.5689 19.2367 11.5589C19.2267 11.5589 19.2167 11.5489 19.2067 11.5489C19.1967 11.5389 19.1867 11.5389 19.1767 11.5389C19.1667 11.5289 19.1567 11.5289 19.1467 11.5289C19.1367 11.5189 19.1267 11.5189 19.1267 11.5189C19.1167 11.5089 19.1067 11.5089 19.0967 11.5089C19.0867 11.5089 19.0767 11.4989 19.0667 11.4989L19.0367 11.4989C19.0267 11.4989 19.0167 11.4889 19.0067 11.4889L11.9167 11.4889C11.9067 11.4889 11.8967 11.4989 11.8867 11.4989L11.8567 11.4989C11.8467 11.4989 11.8367 11.5089 11.8267 11.5089C11.8167 11.5089 11.8067 11.5089 11.7967 11.5189C11.7867 11.5189 11.7767 11.5189 11.7767 11.5289C11.7667 11.5289 11.7567 11.5289 11.7467 11.5389C11.7367 11.5389 11.7267 11.5389 11.7167 11.5489C11.7067 11.5489 11.6967 11.5589 11.6867 11.5589L11.6667 11.5789C11.6567 11.5789 11.6467 11.5889 11.6367 11.5889L11.6167 11.6089C11.6067 11.6189 11.5967 11.6189 11.5867 11.6289C11.5867 11.6389 11.5767 11.6389 11.5667 11.6489L11.5467 11.6689L11.5267 11.6889C11.5167 11.6989 11.5167 11.7089 11.5067 11.7089C11.4967 11.7189 11.4967 11.7289 11.4867 11.7389L11.4667 11.7589C11.4667 11.7689 11.4567 11.7789 11.4567 11.7889L11.4367 11.8089C11.4367 11.8189 11.4267 11.8289 11.4267 11.8389C11.4167 11.8489 11.4167 11.8589 11.4167 11.8689C11.4067 11.8789 11.4067 11.8889 11.4067 11.8989C11.3967 11.8989 11.3967 11.9089 11.3967 11.9189C11.3867 11.9289 11.3867 11.9389 11.3867 11.9489C11.3867 11.9589 11.3767 11.9689 11.3767 11.9789L11.3767 12.0089C11.3767 12.0189 11.3667 12.0289 11.3667 12.0389L11.3667 12.1589C11.3667 12.1689 11.3767 12.1789 11.3767 12.1889L11.3767 12.2189C11.3767 12.2289 11.3867 12.2389 11.3867 12.2489C11.3867 12.2589 11.3867 12.2689 11.3967 12.2789C11.3967 12.2889 11.3967 12.2989 11.4067 12.3089C11.4067 12.3189 11.4067 12.3289 11.4167 12.3289C11.4167 12.3389 11.4167 12.3489 11.4267 12.3589C11.4267 12.3689 11.4367 12.3789 11.4367 12.3889C11.4467 12.3989 11.4467 12.4089 11.4567 12.4189C11.4567 12.4189 11.4667 12.4289 11.4667 12.4389C11.4767 12.4489 11.4767 12.4589 11.4867 12.4689C11.4967 12.4689 11.4967 12.4789 11.5067 12.4889L11.5267 12.5089C11.5367 12.5189 11.5367 12.5289 11.5467 12.5289C11.5567 12.5389 11.5567 12.5489 11.5667 12.5489L11.5867 12.5689C11.5967 12.5789 11.6067 12.5889 11.6167 12.5889L11.6367 12.6089C11.6467 12.6089 11.6567 12.6189 11.6667 12.6289C11.6767 12.6289 11.6767 12.6389 11.6867 12.6389C11.6967 12.6389 11.7067 12.6489 11.7167 12.6489C11.7267 12.6589 11.7367 12.6589 11.7467 12.6689C11.7567 12.6689 11.7667 12.6689 11.7767 12.6789C11.7767 12.6789 11.7867 12.6789 11.7967 12.6889L11.8267 12.6889C11.8367 12.6989 11.8467 12.6989 11.8567 12.6989C11.8667 12.6989 11.8767 12.6989 11.8867 12.7089Z " /></g></g></svg>