<svg xmlns="http://www.w3.org/2000/svg" xmlns:xlink="http://www.w3.org/1999/xlink" width="22" height="22" viewBox="0 0 22 22" fill="none"><defs><rect id="path_0" x="0" y="0" width="22" height="22" /></defs><g opacity="1" transform="translate(0 0)  rotate(0 11 11)"><mask id="bg-mask-0" fill="white"><use xlink:href="#path_0"></use></mask><g mask="url(#bg-mask-0)" ><path id="并集" fill-rule="evenodd" style="fill:#000000" transform="translate(2.68888888888889 2.68888888888889)  rotate(0 8.372222222222222 8.31111111111111)" opacity="1" d="M1.47 0L15.28 0C16.09 0 16.74 0.66 16.74 1.47L16.74 15.16C16.74 15.97 16.09 16.62 15.28 16.62L1.47 16.62C0.66 16.62 0 15.97 0 15.16L0 1.47C0 0.66 0.66 0 1.47 0ZM13.2 1.22L13.2 2.22C13.2 2.56 13.08 2.89 12.86 3.16L11.36 4.97C11.08 5.31 10.67 5.5 10.23 5.5L4.89 5.5C4.08 5.5 3.42 4.84 3.42 4.03L3.42 1.22L1.47 1.22C1.43 1.22 1.4 1.23 1.37 1.24C1.34 1.25 1.32 1.27 1.29 1.29C1.27 1.32 1.25 1.34 1.24 1.37C1.23 1.4 1.22 1.43 1.22 1.47L1.22 15.16C1.22 15.19 1.23 15.22 1.24 15.25C1.25 15.28 1.27 15.31 1.29 15.33C1.32 15.35 1.34 15.37 1.37 15.38C1.4 15.39 1.43 15.4 1.47 15.4L3.42 15.4L3.42 9.9C3.42 9.09 4.08 8.43 4.89 8.43L12.06 8.43C12.69 8.43 13.2 8.94 13.2 9.57L13.2 15.4L15.28 15.4C15.31 15.4 15.34 15.39 15.37 15.38C15.4 15.37 15.43 15.35 15.45 15.33C15.47 15.31 15.49 15.28 15.5 15.25C15.52 15.22 15.52 15.19 15.52 15.16L15.52 1.47C15.52 1.43 15.52 1.4 15.5 1.37C15.49 1.34 15.47 1.32 15.45 1.29C15.43 1.27 15.4 1.25 15.37 1.24C15.34 1.23 15.31 1.22 15.28 1.22L13.2 1.22ZM11.98 2.22C11.98 2.25 11.97 2.28 11.96 2.3C11.95 2.33 11.94 2.36 11.92 2.38L10.42 4.19C10.39 4.22 10.37 4.24 10.33 4.25C10.3 4.27 10.27 4.28 10.23 4.28L4.89 4.28C4.85 4.28 4.82 4.27 4.79 4.26C4.76 4.25 4.74 4.23 4.72 4.21C4.69 4.18 4.68 4.16 4.66 4.13C4.65 4.1 4.64 4.07 4.64 4.03L4.64 1.22L11.98 1.22L11.98 2.22ZM4.64 15.4L11.98 15.4L11.98 9.66L4.89 9.66C4.85 9.66 4.82 9.66 4.79 9.67C4.76 9.69 4.74 9.7 4.72 9.73C4.69 9.75 4.68 9.78 4.66 9.8C4.65 9.83 4.64 9.87 4.64 9.9L4.64 15.4Z" /></g></g></svg>