<svg xmlns="http://www.w3.org/2000/svg" xmlns:xlink="http://www.w3.org/1999/xlink" width="22" height="22" viewBox="0 0 22 22" fill="none"><defs><rect id="path_0" x="0" y="0" width="22" height="22" /></defs><g opacity="1" transform="translate(0 0)  rotate(0 11 11)"><mask id="bg-mask-0" fill="white"><use xlink:href="#path_0"></use></mask><g mask="url(#bg-mask-0)" ><path id="并集" fill-rule="evenodd" style="fill:#000000" transform="translate(1.344444444444445 1.344444444444445)  rotate(0 9.655555555555555 9.655555555555555)" opacity="1" d="M0 9.66C0 4.32 4.32 0 9.66 0C14.99 0 19.31 4.32 19.31 9.66C19.31 14.99 14.99 19.31 9.66 19.31C4.32 19.31 0 14.99 0 9.66ZM16.65 4.94C16.8 5.17 16.94 5.4 17.07 5.64C17.2 5.88 17.32 6.12 17.43 6.37C17.53 6.63 17.63 6.88 17.71 7.15C17.79 7.41 17.86 7.68 17.92 7.95C17.97 8.23 18.02 8.51 18.04 8.79C18.07 9.08 18.09 9.37 18.09 9.66C18.09 9.95 18.07 10.23 18.04 10.52C18.02 10.8 17.97 11.08 17.92 11.36C17.86 11.63 17.79 11.9 17.71 12.16C17.63 12.43 17.53 12.68 17.43 12.94C17.32 13.19 17.2 13.43 17.07 13.67C16.94 13.91 16.8 14.14 16.65 14.37C16.5 14.59 16.34 14.81 16.16 15.02C15.99 15.23 15.81 15.43 15.62 15.62C15.43 15.81 15.23 15.99 15.02 16.16C14.81 16.34 14.59 16.5 14.37 16.65C14.14 16.8 13.91 16.94 13.67 17.07C13.43 17.2 13.19 17.32 12.94 17.43C12.68 17.53 12.43 17.63 12.16 17.71C11.9 17.79 11.63 17.86 11.36 17.92C11.08 17.97 10.8 18.02 10.52 18.04C10.23 18.07 9.95 18.09 9.66 18.09C9.37 18.09 9.08 18.07 8.79 18.04C8.51 18.02 8.23 17.97 7.95 17.92C7.68 17.86 7.41 17.79 7.15 17.71C6.88 17.63 6.63 17.53 6.37 17.43C6.12 17.32 5.88 17.2 5.64 17.07C5.4 16.94 5.17 16.8 4.94 16.65C4.72 16.5 4.5 16.34 4.29 16.16C4.08 15.99 3.88 15.81 3.69 15.62C3.5 15.43 3.32 15.23 3.15 15.02C2.97 14.81 2.81 14.59 2.66 14.37C2.51 14.14 2.37 13.91 2.24 13.67C2.11 13.43 1.99 13.19 1.88 12.94C1.78 12.68 1.68 12.43 1.6 12.16C1.52 11.9 1.45 11.63 1.39 11.36C1.34 11.08 1.29 10.8 1.27 10.52C1.24 10.23 1.22 9.95 1.22 9.66C1.22 9.37 1.24 9.08 1.27 8.79C1.29 8.51 1.34 8.23 1.39 7.95C1.45 7.68 1.52 7.41 1.6 7.15C1.68 6.88 1.78 6.63 1.88 6.37C1.99 6.12 2.11 5.88 2.24 5.64C2.37 5.4 2.51 5.17 2.66 4.94C2.81 4.72 2.97 4.5 3.15 4.29Q3.405 3.975 3.69 3.69Q3.975 3.405 4.29 3.15C4.5 2.97 4.72 2.81 4.94 2.66C5.17 2.51 5.4 2.37 5.64 2.24C5.88 2.11 6.12 1.99 6.37 1.88C6.63 1.78 6.88 1.68 7.15 1.6C7.41 1.52 7.68 1.45 7.95 1.39C8.23 1.34 8.51 1.29 8.79 1.27C9.08 1.24 9.37 1.22 9.66 1.22C9.95 1.22 10.23 1.24 10.52 1.27C10.8 1.29 11.08 1.34 11.36 1.39C11.63 1.45 11.9 1.52 12.16 1.6C12.43 1.68 12.68 1.78 12.94 1.88C13.19 1.99 13.43 2.11 13.67 2.24C13.91 2.37 14.14 2.51 14.37 2.66C14.59 2.81 14.81 2.97 15.02 3.15C15.23 3.32 15.43 3.5 15.62 3.69C15.81 3.88 15.99 4.08 16.16 4.29C16.34 4.5 16.5 4.72 16.65 4.94ZM9.66 5.99C10.2 5.99 10.63 5.55 10.63 5.01C10.63 4.47 10.2 4.03 9.66 4.03C9.12 4.03 8.68 4.47 8.68 5.01C8.68 5.55 9.12 5.99 9.66 5.99ZM9.82 6.8L9.79 6.8C9.78 6.79 9.77 6.79 9.75 6.79L9.72 6.79C9.71 6.79 9.7 6.78 9.69 6.78L9.62 6.78C9.61 6.78 9.6 6.79 9.59 6.79L9.56 6.79C9.55 6.79 9.54 6.79 9.52 6.8L9.49 6.8C9.48 6.81 9.47 6.81 9.46 6.81C9.45 6.82 9.44 6.82 9.43 6.82C9.42 6.83 9.41 6.83 9.4 6.83C9.39 6.84 9.38 6.84 9.37 6.85L9.34 6.86C9.33 6.87 9.32 6.87 9.31 6.88C9.3 6.88 9.29 6.89 9.28 6.9C9.27 6.9 9.26 6.91 9.25 6.92L9.23 6.94C9.22 6.94 9.21 6.95 9.2 6.96C9.2 6.97 9.19 6.97 9.18 6.98C9.17 6.99 9.17 7 9.16 7C9.15 7.01 9.14 7.02 9.14 7.03L9.12 7.05C9.11 7.06 9.1 7.07 9.1 7.08C9.09 7.09 9.08 7.1 9.08 7.11C9.07 7.12 9.07 7.13 9.06 7.14L9.05 7.17C9.04 7.18 9.04 7.19 9.03 7.2C9.03 7.21 9.03 7.22 9.02 7.23C9.02 7.24 9.02 7.25 9.01 7.26C9.01 7.27 9.01 7.28 9 7.29L9 7.32C8.99 7.34 8.99 7.35 8.99 7.36L8.99 7.39C8.99 7.4 8.98 7.41 8.98 7.42L8.98 15.8C8.98 15.81 8.99 15.82 8.99 15.83L8.99 15.87C8.99 15.88 8.99 15.89 9 15.9L9 15.93C9.01 15.94 9.01 15.95 9.01 15.96C9.02 15.97 9.02 15.98 9.02 15.99C9.03 16 9.03 16.01 9.03 16.02C9.04 16.03 9.04 16.04 9.05 16.05L9.06 16.08C9.07 16.09 9.07 16.1 9.08 16.11C9.08 16.12 9.09 16.13 9.1 16.14C9.1 16.15 9.11 16.16 9.12 16.17C9.12 16.18 9.13 16.18 9.14 16.19C9.14 16.2 9.15 16.21 9.16 16.22L9.18 16.24C9.19 16.25 9.2 16.26 9.2 16.27C9.21 16.27 9.22 16.28 9.23 16.29C9.24 16.29 9.25 16.3 9.25 16.31C9.26 16.31 9.27 16.32 9.28 16.33C9.29 16.33 9.3 16.34 9.31 16.34C9.32 16.35 9.33 16.35 9.34 16.36L9.37 16.37C9.38 16.38 9.39 16.38 9.4 16.39C9.41 16.39 9.42 16.4 9.43 16.4C9.44 16.4 9.45 16.41 9.46 16.41C9.47 16.41 9.48 16.42 9.49 16.42C9.5 16.42 9.51 16.42 9.52 16.43L9.56 16.43L9.59 16.44L9.72 16.44L9.75 16.43L9.79 16.43C9.8 16.42 9.81 16.42 9.82 16.42C9.83 16.42 9.84 16.41 9.85 16.41C9.86 16.41 9.87 16.4 9.88 16.4C9.89 16.4 9.9 16.39 9.91 16.39C9.92 16.38 9.93 16.38 9.94 16.37L9.97 16.36C9.98 16.35 9.99 16.35 10 16.34C10.01 16.34 10.02 16.33 10.03 16.33C10.04 16.32 10.05 16.31 10.06 16.31C10.06 16.3 10.07 16.29 10.08 16.29C10.09 16.28 10.1 16.27 10.11 16.27C10.12 16.26 10.12 16.25 10.13 16.24C10.14 16.23 10.15 16.23 10.15 16.22L10.18 16.19C10.18 16.18 10.19 16.18 10.2 16.17C10.2 16.16 10.21 16.15 10.21 16.14C10.22 16.13 10.23 16.12 10.23 16.11C10.24 16.1 10.24 16.09 10.25 16.08L10.26 16.05C10.27 16.04 10.27 16.03 10.28 16.02C10.28 16.01 10.29 16 10.29 15.99C10.29 15.98 10.3 15.97 10.3 15.96C10.3 15.95 10.3 15.94 10.31 15.93L10.31 15.9C10.32 15.89 10.32 15.88 10.32 15.87L10.32 15.83C10.33 15.82 10.33 15.81 10.33 15.8L10.33 7.42C10.33 7.41 10.33 7.4 10.32 7.39L10.32 7.36C10.32 7.35 10.32 7.34 10.31 7.32L10.31 7.29C10.3 7.28 10.3 7.27 10.3 7.26C10.3 7.25 10.29 7.24 10.29 7.23C10.29 7.22 10.28 7.21 10.28 7.2C10.27 7.19 10.27 7.18 10.26 7.17L10.25 7.14C10.24 7.13 10.24 7.12 10.23 7.11C10.23 7.1 10.22 7.09 10.21 7.08C10.21 7.07 10.2 7.06 10.2 7.05C10.19 7.05 10.18 7.04 10.18 7.03L10.15 7L10.13 6.98L10.11 6.96C10.1 6.95 10.09 6.94 10.08 6.94L10.06 6.92C10.05 6.91 10.04 6.9 10.03 6.9C10.02 6.89 10.01 6.88 10 6.88C9.99 6.87 9.98 6.87 9.97 6.86L9.94 6.85C9.93 6.84 9.92 6.84 9.91 6.83C9.9 6.83 9.89 6.83 9.88 6.82C9.87 6.82 9.86 6.82 9.85 6.81C9.84 6.81 9.83 6.81 9.82 6.8Z" /></g></g></svg>