<svg xmlns="http://www.w3.org/2000/svg" xmlns:xlink="http://www.w3.org/1999/xlink" width="22" height="22" viewBox="0 0 22 22" fill="none"><defs><rect id="path_0" x="0" y="0" width="22" height="22" /></defs><g opacity="1" transform="translate(0 0)  rotate(0 11 11)"><mask id="bg-mask-0" fill="white"><use xlink:href="#path_0"></use></mask><g mask="url(#bg-mask-0)" ><path id="圆形 1 (轮廓)" fill-rule="evenodd" style="fill:#000000" transform="translate(1.8945496738972754 2.6888743108462734)  rotate(0 9.105432049001172 8.281071829487084)" opacity="1" d="M9.09 0C11.14 0 13.13 0.68 14.74 1.95C16.35 3.22 17.49 5 17.96 6.99C18.44 8.99 18.23 11.08 17.36 12.94C16.76 14.24 15.86 15.37 14.75 16.25C14.36 16.53 13.87 16.62 13.41 16.49C12.95 16.36 12.57 16.04 12.38 15.6L10.72 12.31C10.55 11.91 10.67 11.45 11.01 11.18C11.28 10.93 11.5 10.63 11.66 10.29C11.93 9.72 11.99 9.07 11.84 8.45C11.7 7.84 11.35 7.29 10.85 6.89C10.35 6.5 9.73 6.29 9.1 6.29C8.47 6.29 7.85 6.51 7.36 6.9C6.86 7.29 6.51 7.84 6.37 8.46C6.22 9.08 6.29 9.73 6.56 10.3C6.74 10.7 7.02 11.05 7.36 11.32C7.62 11.5 7.72 11.84 7.59 12.14L5.85 15.61C5.66 16.05 5.29 16.38 4.83 16.5C4.37 16.63 3.88 16.55 3.49 16.27C2.37 15.4 1.47 14.27 0.86 12.97C-0.01 11.11 -0.23 9.02 0.24 7.02C0.71 5.03 1.84 3.25 3.45 1.97C5.05 0.7 7.04 0 9.09 0ZM1.51 11.21C1.63 11.64 1.78 12.05 1.97 12.45C2.1 12.73 2.25 13 2.41 13.27C2.57 13.53 2.75 13.78 2.94 14.02C3.13 14.26 3.34 14.49 3.55 14.7C3.76 14.91 3.98 15.1 4.21 15.29C4.23 15.3 4.25 15.3 4.26 15.31C4.29 15.32 4.31 15.33 4.34 15.33C4.37 15.34 4.39 15.34 4.42 15.34C4.45 15.34 4.47 15.33 4.5 15.33C4.53 15.32 4.55 15.31 4.57 15.3C4.6 15.28 4.62 15.27 4.64 15.25C4.66 15.23 4.68 15.21 4.69 15.19C4.71 15.17 4.72 15.15 4.73 15.12C4.74 15.1 4.75 15.09 4.76 15.07L6.29 12L6.26 11.97C6.15 11.86 6.04 11.74 5.94 11.62C5.85 11.5 5.76 11.37 5.67 11.23C5.59 11.1 5.52 10.96 5.45 10.82C5.35 10.61 5.27 10.4 5.21 10.18C5.15 9.97 5.11 9.75 5.09 9.52C5.07 9.3 5.06 9.08 5.08 8.85C5.09 8.62 5.12 8.4 5.18 8.18C5.23 7.96 5.3 7.75 5.38 7.54C5.47 7.33 5.58 7.13 5.7 6.94C5.82 6.75 5.95 6.57 6.1 6.41C6.25 6.24 6.42 6.08 6.6 5.94C6.77 5.8 6.96 5.68 7.16 5.57C7.36 5.46 7.56 5.37 7.77 5.29C7.98 5.22 8.2 5.16 8.42 5.13C8.65 5.09 8.87 5.07 9.1 5.07C9.33 5.07 9.55 5.09 9.77 5.12C10 5.16 10.21 5.22 10.43 5.29C10.64 5.36 10.84 5.45 11.04 5.56C11.24 5.67 11.43 5.79 11.6 5.93C11.78 6.07 11.95 6.23 12.1 6.4C12.25 6.56 12.39 6.74 12.51 6.93C12.63 7.12 12.73 7.32 12.82 7.52C12.91 7.73 12.98 7.95 13.03 8.17C13.09 8.39 13.12 8.61 13.13 8.84C13.15 9.06 13.15 9.29 13.12 9.51C13.1 9.73 13.06 9.95 13 10.17C12.94 10.39 12.86 10.6 12.77 10.81C12.66 11.05 12.52 11.28 12.36 11.49C12.23 11.67 12.09 11.84 11.93 11.99L13.47 15.05L13.5 15.11C13.51 15.13 13.52 15.16 13.54 15.18C13.56 15.2 13.57 15.22 13.59 15.24C13.61 15.25 13.63 15.27 13.66 15.28C13.68 15.29 13.71 15.3 13.73 15.31C13.76 15.32 13.79 15.32 13.81 15.32L13.89 15.32C13.92 15.31 13.94 15.31 13.97 15.3C13.99 15.29 14 15.28 14.02 15.27C14.25 15.09 14.47 14.89 14.68 14.68C14.89 14.47 15.1 14.24 15.29 14C15.48 13.76 15.65 13.5 15.82 13.24C15.98 12.98 16.13 12.71 16.26 12.43C16.44 12.03 16.59 11.61 16.71 11.19C16.83 10.76 16.91 10.33 16.95 9.89C16.99 9.46 17 9.02 16.97 8.58C16.94 8.14 16.88 7.71 16.77 7.28C16.67 6.85 16.53 6.43 16.36 6.02C16.19 5.62 15.98 5.23 15.75 4.86C15.51 4.49 15.24 4.14 14.95 3.82C14.65 3.49 14.33 3.19 13.98 2.91C13.64 2.64 13.27 2.4 12.88 2.19C12.5 1.97 12.1 1.8 11.68 1.65C11.27 1.51 10.84 1.4 10.41 1.33C9.97 1.26 9.53 1.22 9.09 1.22C8.65 1.22 8.21 1.26 7.78 1.34C7.34 1.41 6.92 1.52 6.5 1.66C6.09 1.81 5.69 1.99 5.31 2.2C4.92 2.41 4.55 2.66 4.21 2.93C3.86 3.21 3.54 3.51 3.24 3.84C2.95 4.16 2.68 4.51 2.45 4.88C2.21 5.25 2.01 5.64 1.84 6.05C1.67 6.45 1.53 6.87 1.43 7.3C1.33 7.73 1.27 8.17 1.24 8.61C1.21 9.05 1.22 9.49 1.26 9.92C1.31 10.36 1.39 10.79 1.51 11.21Z" /></g></g></svg>