<svg xmlns="http://www.w3.org/2000/svg" xmlns:xlink="http://www.w3.org/1999/xlink" width="22" height="22" viewBox="0 0 22 22" fill="none"><defs><rect id="path_0" x="0" y="0" width="22" height="22" /></defs><g opacity="1" transform="translate(0 0)  rotate(0 11 11)"><mask id="bg-mask-0" fill="white"><use xlink:href="#path_0"></use></mask><g mask="url(#bg-mask-0)" ><path id="并集" fill-rule="evenodd" style="fill:#000000" transform="translate(3.90630463306481 1.3212222222222714)  rotate(0 7.093695365058051 9.545404307047527)" opacity="1" d="M0.06 10C0.06 10.01 0.07 10.02 0.07 10.03C0.08 10.04 0.08 10.05 0.09 10.05C0.09 10.06 0.1 10.07 0.1 10.08L0.12 10.1L0.14 10.13C0.15 10.13 0.15 10.14 0.16 10.15C0.17 10.16 0.17 10.17 0.18 10.17L5.97 15.96C6.05 16.04 6.13 16.11 6.22 16.17C6.31 16.22 6.4 16.27 6.5 16.31C6.59 16.35 6.69 16.38 6.79 16.4C6.89 16.42 6.99 16.43 7.09 16.43C7.2 16.43 7.3 16.42 7.4 16.4C7.5 16.38 7.6 16.35 7.69 16.31C7.79 16.27 7.88 16.22 7.97 16.17C8.06 16.11 8.14 16.04 8.22 15.96L14.01 10.17L14.03 10.15C14.04 10.14 14.04 10.13 14.05 10.13L14.07 10.1C14.07 10.1 14.08 10.09 14.08 10.08C14.09 10.07 14.09 10.06 14.1 10.05C14.1 10.05 14.11 10.04 14.11 10.03C14.12 10.02 14.12 10.01 14.13 10C14.13 9.99 14.14 9.98 14.14 9.97C14.14 9.96 14.15 9.96 14.15 9.95C14.15 9.94 14.16 9.93 14.16 9.92L14.17 9.89C14.17 9.88 14.17 9.87 14.18 9.86L14.18 9.8C14.18 9.79 14.19 9.78 14.19 9.77L14.19 9.71C14.19 9.7 14.18 9.69 14.18 9.68L14.18 9.62C14.17 9.61 14.17 9.6 14.17 9.59L14.16 9.56C14.16 9.55 14.15 9.54 14.15 9.53C14.15 9.52 14.14 9.52 14.14 9.51C14.14 9.5 14.13 9.49 14.13 9.48C14.12 9.47 14.12 9.46 14.11 9.45C14.11 9.44 14.1 9.43 14.1 9.43C14.09 9.42 14.09 9.41 14.08 9.4C14.08 9.39 14.07 9.38 14.07 9.38L14.05 9.35L13.99 9.29C13.98 9.28 13.97 9.27 13.96 9.27L13.94 9.25C13.93 9.24 13.92 9.24 13.91 9.23C13.91 9.23 13.9 9.22 13.89 9.22C13.88 9.21 13.87 9.21 13.86 9.2C13.85 9.2 13.85 9.19 13.84 9.19C13.83 9.18 13.82 9.18 13.81 9.18C13.8 9.17 13.79 9.17 13.78 9.16C13.77 9.16 13.76 9.16 13.75 9.15L13.72 9.15C13.71 9.14 13.7 9.14 13.69 9.14C13.68 9.14 13.67 9.14 13.67 9.13L13.49 9.13C13.48 9.14 13.47 9.14 13.46 9.14C13.45 9.14 13.44 9.14 13.43 9.15L13.4 9.15C13.39 9.16 13.38 9.16 13.37 9.16C13.36 9.17 13.35 9.17 13.34 9.18C13.33 9.18 13.32 9.18 13.31 9.19C13.3 9.19 13.3 9.2 13.29 9.2C13.28 9.21 13.27 9.21 13.26 9.22C13.25 9.22 13.24 9.23 13.24 9.23C13.23 9.24 13.22 9.24 13.21 9.25L13.19 9.27C13.18 9.27 13.17 9.28 13.17 9.29C13.16 9.29 13.15 9.3 13.14 9.31L7.7 14.75L7.7 0.52C7.7 0.51 7.69 0.5 7.69 0.49L7.69 0.46C7.68 0.45 7.68 0.44 7.68 0.43C7.68 0.42 7.67 0.41 7.67 0.41C7.67 0.4 7.66 0.39 7.66 0.38C7.65 0.37 7.65 0.36 7.65 0.35C7.64 0.34 7.64 0.33 7.63 0.32L7.62 0.3C7.61 0.29 7.61 0.28 7.6 0.27C7.6 0.26 7.59 0.26 7.58 0.25C7.58 0.24 7.57 0.23 7.57 0.22C7.56 0.22 7.55 0.21 7.55 0.2C7.54 0.19 7.53 0.19 7.53 0.18C7.52 0.17 7.51 0.17 7.5 0.16C7.5 0.15 7.49 0.15 7.48 0.14L7.46 0.12C7.45 0.11 7.44 0.11 7.43 0.1C7.42 0.1 7.42 0.09 7.41 0.09L7.38 0.07C7.37 0.07 7.36 0.06 7.36 0.06C7.35 0.06 7.34 0.05 7.33 0.05C7.32 0.04 7.31 0.04 7.3 0.04C7.29 0.03 7.28 0.03 7.27 0.03C7.26 0.02 7.25 0.02 7.24 0.02C7.23 0.02 7.22 0.01 7.21 0.01L7.18 0.01L7.15 0L7.03 0L7 0.01L6.97 0.01C6.96 0.01 6.95 0.02 6.95 0.02C6.94 0.02 6.93 0.02 6.92 0.03C6.91 0.03 6.9 0.03 6.89 0.04C6.88 0.04 6.87 0.04 6.86 0.05C6.85 0.05 6.84 0.06 6.83 0.06C6.82 0.06 6.81 0.07 6.81 0.07L6.78 0.09C6.77 0.09 6.76 0.1 6.75 0.1C6.75 0.11 6.74 0.11 6.73 0.12C6.72 0.13 6.71 0.13 6.71 0.14C6.7 0.15 6.69 0.15 6.68 0.16C6.68 0.17 6.67 0.17 6.66 0.18L6.64 0.2C6.63 0.21 6.63 0.22 6.62 0.22C6.61 0.23 6.61 0.24 6.6 0.25C6.6 0.26 6.59 0.26 6.59 0.27C6.58 0.28 6.57 0.29 6.57 0.3L6.55 0.32C6.55 0.33 6.55 0.34 6.54 0.35C6.54 0.36 6.53 0.37 6.53 0.38C6.53 0.39 6.52 0.4 6.52 0.41C6.51 0.41 6.51 0.42 6.51 0.43C6.51 0.44 6.5 0.45 6.5 0.46C6.5 0.47 6.5 0.48 6.49 0.49L6.49 0.52L6.48 0.55L6.48 14.75L1.04 9.31C1.04 9.3 1.03 9.29 1.02 9.29C1.01 9.28 1.01 9.27 1 9.27L0.98 9.25C0.97 9.24 0.96 9.24 0.95 9.23C0.94 9.23 0.93 9.22 0.93 9.22C0.92 9.21 0.91 9.21 0.9 9.2C0.89 9.2 0.88 9.19 0.87 9.19C0.86 9.18 0.85 9.18 0.85 9.18C0.84 9.17 0.83 9.17 0.82 9.16C0.81 9.16 0.8 9.16 0.79 9.15L0.76 9.15C0.75 9.14 0.74 9.14 0.73 9.14C0.72 9.14 0.71 9.14 0.7 9.13L0.52 9.13C0.51 9.14 0.5 9.14 0.49 9.14C0.48 9.14 0.47 9.14 0.46 9.15L0.43 9.15C0.42 9.16 0.42 9.16 0.41 9.16C0.4 9.17 0.39 9.17 0.38 9.18C0.37 9.18 0.36 9.18 0.35 9.19C0.34 9.19 0.33 9.2 0.32 9.2L0.3 9.22C0.29 9.22 0.28 9.23 0.27 9.23L0.25 9.25L0.22 9.27L0.2 9.29C0.19 9.29 0.19 9.3 0.18 9.31C0.17 9.31 0.17 9.32 0.16 9.33L0.14 9.35L0.12 9.38L0.1 9.4C0.1 9.41 0.09 9.42 0.09 9.43C0.08 9.43 0.08 9.44 0.07 9.45C0.07 9.46 0.06 9.47 0.06 9.48C0.06 9.49 0.05 9.5 0.05 9.51C0.04 9.52 0.04 9.52 0.04 9.53C0.03 9.54 0.03 9.55 0.03 9.56L0.02 9.59C0.02 9.6 0.01 9.61 0.01 9.62L0.01 9.65C0.01 9.66 0 9.67 0 9.68L0 9.8C0 9.81 0.01 9.82 0.01 9.83L0.01 9.86C0.01 9.87 0.02 9.88 0.02 9.89L0.03 9.92C0.03 9.93 0.03 9.94 0.04 9.95C0.04 9.96 0.04 9.96 0.05 9.97C0.05 9.98 0.06 9.99 0.06 10ZM11.85 14.07C11.86 14.07 11.87 14.06 11.88 14.06C11.89 14.05 11.9 14.05 11.91 14.05C11.92 14.04 11.93 14.04 11.94 14.04L11.97 14.03C11.98 14.03 11.99 14.03 12 14.02L12.03 14.02C12.04 14.02 12.04 14.02 12.05 14.01L12.18 14.01C12.18 14.02 12.2 14.02 12.2 14.02L12.23 14.02C12.24 14.03 12.25 14.03 12.26 14.03L12.29 14.04C12.3 14.04 12.31 14.04 12.32 14.05C12.33 14.05 12.34 14.05 12.35 14.06C12.36 14.06 12.37 14.07 12.38 14.07C12.39 14.07 12.39 14.08 12.4 14.08L12.43 14.1C12.44 14.1 12.45 14.11 12.45 14.11C12.46 14.12 12.47 14.13 12.48 14.13L12.5 14.15C12.51 14.16 12.52 14.16 12.53 14.17L12.55 14.19L12.57 14.21C12.57 14.22 12.58 14.23 12.59 14.23L12.61 14.26C12.61 14.27 12.62 14.28 12.62 14.28C12.63 14.29 12.63 14.3 12.64 14.31L12.65 14.33C12.66 14.34 12.66 14.35 12.67 14.36C12.67 14.37 12.68 14.38 12.68 14.39C12.68 14.4 12.69 14.41 12.69 14.42C12.69 14.43 12.7 14.44 12.7 14.45L12.71 14.47L12.71 14.5C12.72 14.51 12.72 14.52 12.72 14.53L12.72 14.56C12.72 14.57 12.73 14.58 12.73 14.59L12.73 14.65C12.73 14.66 12.72 14.67 12.72 14.68L12.72 14.71C12.72 14.72 12.72 14.73 12.71 14.74L12.71 14.77L12.7 14.8C12.7 14.81 12.69 14.82 12.69 14.83C12.69 14.84 12.68 14.85 12.68 14.86C12.68 14.87 12.67 14.88 12.67 14.88C12.66 14.89 12.66 14.9 12.65 14.91C12.65 14.92 12.64 14.93 12.64 14.94L12.62 14.96C12.62 14.97 12.61 14.98 12.61 14.99L12.59 15.01L12.57 15.03L12.55 15.05L9.51 18.09C9.35 18.25 9.17 18.4 8.98 18.53C8.79 18.65 8.59 18.76 8.38 18.84C8.18 18.92 7.96 18.99 7.75 19.03C7.53 19.07 7.31 19.09 7.09 19.09C6.87 19.09 6.66 19.07 6.44 19.03C6.22 18.99 6.01 18.92 5.81 18.84C5.6 18.76 5.4 18.65 5.21 18.53C5.02 18.4 4.84 18.25 4.67 18.09L1.64 15.05C1.63 15.05 1.63 15.04 1.62 15.03C1.61 15.03 1.61 15.02 1.6 15.01L1.58 14.99C1.58 14.98 1.57 14.97 1.56 14.96C1.56 14.95 1.55 14.95 1.55 14.94C1.54 14.93 1.54 14.92 1.53 14.91C1.53 14.9 1.52 14.89 1.52 14.88C1.52 14.88 1.51 14.87 1.51 14.86C1.5 14.85 1.5 14.84 1.5 14.83C1.49 14.82 1.49 14.81 1.49 14.8L1.48 14.77C1.48 14.76 1.48 14.75 1.47 14.74L1.47 14.71C1.47 14.7 1.46 14.69 1.46 14.68L1.46 14.56C1.46 14.55 1.47 14.54 1.47 14.53L1.47 14.5C1.48 14.49 1.48 14.48 1.48 14.47L1.49 14.45C1.49 14.44 1.49 14.43 1.5 14.42C1.5 14.41 1.5 14.4 1.51 14.39C1.51 14.38 1.52 14.37 1.52 14.36C1.52 14.35 1.53 14.34 1.53 14.33L1.55 14.31C1.55 14.3 1.56 14.29 1.56 14.28C1.57 14.28 1.58 14.27 1.58 14.26L1.6 14.23C1.61 14.23 1.61 14.22 1.62 14.21L1.64 14.19L1.66 14.17C1.67 14.16 1.68 14.16 1.68 14.15L1.71 14.13C1.72 14.13 1.73 14.12 1.73 14.11C1.74 14.11 1.75 14.1 1.76 14.1L1.78 14.08C1.79 14.08 1.8 14.07 1.81 14.07C1.82 14.07 1.83 14.06 1.84 14.06C1.85 14.05 1.86 14.05 1.87 14.05C1.88 14.04 1.88 14.04 1.9 14.04L1.92 14.03C1.93 14.03 1.94 14.03 1.95 14.02L1.98 14.02C1.99 14.02 2 14.02 2.01 14.01L2.13 14.01C2.14 14.02 2.15 14.02 2.16 14.02L2.19 14.02C2.2 14.03 2.21 14.03 2.22 14.03L2.25 14.04C2.26 14.04 2.27 14.04 2.28 14.05C2.29 14.05 2.3 14.05 2.31 14.06C2.32 14.06 2.32 14.07 2.33 14.07C2.34 14.07 2.35 14.08 2.36 14.08C2.37 14.09 2.38 14.09 2.39 14.1C2.39 14.1 2.4 14.11 2.41 14.11C2.42 14.12 2.43 14.13 2.44 14.13L2.46 14.15C2.47 14.16 2.48 14.16 2.48 14.17C2.49 14.18 2.5 14.18 2.5 14.19L5.54 17.22C5.64 17.33 5.76 17.42 5.88 17.51C6 17.59 6.13 17.65 6.26 17.71C6.4 17.76 6.53 17.8 6.67 17.83C6.81 17.85 6.95 17.87 7.09 17.87C7.24 17.87 7.38 17.85 7.51 17.83C7.65 17.8 7.79 17.76 7.92 17.71C8.06 17.65 8.18 17.59 8.3 17.51C8.43 17.42 8.54 17.33 8.65 17.22L11.68 14.19C11.69 14.18 11.7 14.18 11.71 14.17C11.71 14.16 11.72 14.16 11.73 14.15L11.75 14.13C11.76 14.13 11.77 14.12 11.78 14.11C11.78 14.11 11.79 14.1 11.8 14.1C11.81 14.09 11.82 14.09 11.83 14.08C11.84 14.08 11.84 14.07 11.85 14.07Z" /></g></g></svg>