<svg xmlns="http://www.w3.org/2000/svg" xmlns:xlink="http://www.w3.org/1999/xlink" width="22" height="22" viewBox="0 0 22 22" fill="none"><defs><rect id="path_0" x="0" y="0" width="22" height="22" /></defs><g opacity="1" transform="translate(0 0)  rotate(0 11 11)"><mask id="bg-mask-0" fill="white"><use xlink:href="#path_0"></use></mask><g mask="url(#bg-mask-0)" ><path id="并集" fill-rule="evenodd" style="fill:#000000" transform="translate(3.906519337016487 1.6287292817682761)  rotate(0 7.09369536505805 9.545968458387586)" opacity="1" d="M12.71 4.62L12.71 4.59C12.72 4.58 12.72 4.57 12.72 4.56L12.72 4.53C12.72 4.52 12.73 4.51 12.73 4.5L12.73 4.44C12.73 4.43 12.72 4.42 12.72 4.41L12.72 4.38C12.72 4.37 12.72 4.36 12.71 4.35L12.71 4.32L12.7 4.29C12.7 4.28 12.69 4.27 12.69 4.26C12.69 4.25 12.68 4.24 12.68 4.23C12.68 4.23 12.67 4.22 12.67 4.21C12.66 4.2 12.66 4.19 12.65 4.18C12.65 4.17 12.64 4.16 12.64 4.15C12.63 4.15 12.63 4.14 12.62 4.13C12.62 4.12 12.61 4.11 12.61 4.1L12.59 4.08C12.58 4.07 12.57 4.07 12.57 4.06L12.55 4.04L9.51 1C9.35 0.84 9.17 0.69 8.98 0.56C8.79 0.44 8.59 0.34 8.38 0.25C8.18 0.17 7.97 0.11 7.75 0.06C7.53 0.02 7.31 0 7.09 0C6.87 0 6.66 0.02 6.44 0.06C6.22 0.11 6.01 0.17 5.81 0.25C5.6 0.34 5.4 0.44 5.21 0.56C5.02 0.69 4.84 0.84 4.67 1L1.64 4.04C1.63 4.04 1.63 4.05 1.62 4.06L1.58 4.1C1.57 4.11 1.57 4.12 1.56 4.13C1.56 4.14 1.55 4.15 1.55 4.15C1.54 4.16 1.54 4.17 1.53 4.18C1.53 4.19 1.52 4.2 1.52 4.21C1.52 4.22 1.51 4.23 1.51 4.23C1.5 4.24 1.5 4.25 1.5 4.26C1.49 4.27 1.49 4.28 1.49 4.29L1.48 4.32C1.48 4.33 1.48 4.34 1.47 4.35L1.47 4.38C1.47 4.39 1.47 4.4 1.46 4.41L1.46 4.53C1.47 4.54 1.47 4.55 1.47 4.56L1.47 4.59C1.48 4.6 1.48 4.61 1.48 4.62L1.49 4.65C1.49 4.65 1.49 4.67 1.5 4.67C1.5 4.68 1.5 4.69 1.51 4.7C1.51 4.71 1.52 4.72 1.52 4.73C1.52 4.74 1.53 4.75 1.53 4.76L1.55 4.78C1.55 4.79 1.56 4.8 1.56 4.81L1.58 4.83L1.6 4.86C1.61 4.86 1.61 4.87 1.62 4.88L1.64 4.9C1.67 4.93 1.7 4.95 1.73 4.98C1.77 5 1.8 5.02 1.84 5.03C1.87 5.05 1.91 5.06 1.95 5.07C1.99 5.08 2.03 5.08 2.07 5.08L2.13 5.08C2.15 5.07 2.17 5.07 2.19 5.07C2.21 5.06 2.23 5.06 2.25 5.05C2.27 5.05 2.29 5.04 2.31 5.03C2.33 5.02 2.34 5.02 2.36 5.01C2.38 5 2.4 4.99 2.41 4.98C2.43 4.97 2.45 4.95 2.46 4.94C2.48 4.93 2.49 4.91 2.5 4.9L5.54 1.87C5.64 1.76 5.76 1.67 5.88 1.59C6 1.5 6.13 1.44 6.27 1.38C6.4 1.33 6.53 1.29 6.67 1.26C6.81 1.24 6.95 1.22 7.09 1.22C7.24 1.22 7.38 1.24 7.51 1.26C7.65 1.29 7.79 1.33 7.92 1.38C8.06 1.44 8.18 1.5 8.3 1.59C8.43 1.67 8.54 1.76 8.65 1.87L11.68 4.9C11.69 4.91 11.7 4.91 11.71 4.92C11.71 4.93 11.72 4.93 11.73 4.94L11.75 4.96C11.76 4.96 11.77 4.97 11.78 4.98C11.78 4.98 11.79 4.99 11.8 4.99C11.81 5 11.82 5 11.83 5.01C11.84 5.01 11.84 5.02 11.85 5.02C11.86 5.02 11.87 5.03 11.88 5.03C11.89 5.04 11.9 5.04 11.91 5.04C11.92 5.05 11.93 5.05 11.94 5.05L11.97 5.06C11.98 5.06 11.99 5.07 12 5.07L12.03 5.07L12.05 5.08L12.18 5.08C12.19 5.08 12.2 5.07 12.21 5.07L12.23 5.07C12.24 5.07 12.25 5.06 12.26 5.06L12.29 5.05C12.3 5.05 12.31 5.05 12.32 5.04C12.33 5.04 12.34 5.04 12.35 5.03C12.36 5.03 12.37 5.02 12.38 5.02C12.39 5.02 12.39 5.01 12.4 5.01C12.41 5 12.42 5 12.43 4.99C12.44 4.99 12.45 4.98 12.45 4.98C12.46 4.97 12.47 4.96 12.48 4.96L12.5 4.94C12.51 4.93 12.52 4.93 12.52 4.92C12.53 4.91 12.54 4.91 12.55 4.9C12.55 4.89 12.56 4.89 12.57 4.88C12.57 4.87 12.58 4.86 12.59 4.86L12.61 4.83C12.61 4.82 12.62 4.82 12.62 4.81C12.63 4.8 12.63 4.79 12.64 4.78C12.64 4.77 12.65 4.77 12.65 4.76C12.66 4.75 12.66 4.74 12.67 4.73C12.67 4.72 12.68 4.71 12.68 4.7C12.68 4.69 12.69 4.68 12.69 4.67C12.69 4.66 12.7 4.66 12.7 4.65L12.71 4.62ZM7.4 2.69C7.5 2.71 7.6 2.74 7.69 2.78C7.79 2.82 7.88 2.87 7.97 2.93C8.06 2.98 8.14 3.05 8.22 3.13L14.01 8.92C14.01 8.93 14.02 8.93 14.03 8.94C14.04 8.95 14.04 8.96 14.05 8.96L14.07 8.99C14.07 8.99 14.08 9 14.08 9.01C14.09 9.02 14.09 9.03 14.1 9.04C14.1 9.04 14.11 9.05 14.11 9.06C14.12 9.07 14.12 9.08 14.13 9.09C14.13 9.1 14.14 9.11 14.14 9.12C14.14 9.13 14.15 9.14 14.15 9.15C14.15 9.15 14.16 9.16 14.16 9.17L14.17 9.2C14.17 9.21 14.17 9.22 14.18 9.23L14.18 9.29C14.18 9.3 14.19 9.31 14.19 9.32L14.19 9.38C14.19 9.39 14.18 9.4 14.18 9.41L14.18 9.47C14.17 9.48 14.17 9.49 14.17 9.5L14.16 9.53C14.16 9.54 14.15 9.55 14.15 9.56C14.15 9.57 14.14 9.58 14.14 9.59C14.14 9.59 14.13 9.6 14.13 9.61C14.12 9.62 14.12 9.63 14.11 9.64C14.11 9.65 14.1 9.66 14.1 9.67C14.09 9.67 14.09 9.68 14.08 9.69C14.08 9.7 14.07 9.71 14.07 9.72L13.99 9.8C13.98 9.81 13.97 9.82 13.96 9.82L13.94 9.84C13.93 9.85 13.92 9.85 13.91 9.86C13.91 9.87 13.9 9.87 13.89 9.87C13.88 9.88 13.87 9.88 13.86 9.89C13.85 9.89 13.85 9.9 13.84 9.9C13.83 9.91 13.82 9.91 13.81 9.92C13.8 9.92 13.79 9.92 13.78 9.93C13.77 9.93 13.76 9.93 13.75 9.94L13.72 9.94C13.71 9.95 13.7 9.95 13.69 9.95C13.68 9.95 13.67 9.95 13.67 9.96L13.49 9.96C13.48 9.95 13.47 9.95 13.46 9.95C13.45 9.95 13.44 9.95 13.43 9.94L13.4 9.94C13.39 9.93 13.38 9.93 13.37 9.93C13.36 9.92 13.35 9.92 13.34 9.92C13.33 9.91 13.32 9.91 13.31 9.9C13.3 9.9 13.3 9.89 13.29 9.89C13.28 9.88 13.27 9.88 13.26 9.87C13.25 9.87 13.24 9.87 13.24 9.86C13.23 9.85 13.22 9.85 13.21 9.84L13.19 9.82C13.18 9.82 13.17 9.81 13.17 9.8C13.16 9.8 13.15 9.79 13.14 9.78L7.7 4.34L7.7 18.54C7.7 18.56 7.7 18.58 7.69 18.6C7.69 18.62 7.68 18.64 7.68 18.66C7.67 18.68 7.67 18.7 7.66 18.71L7.63 18.77C7.62 18.79 7.61 18.8 7.6 18.82C7.59 18.84 7.58 18.85 7.57 18.87L7.53 18.91C7.51 18.93 7.5 18.94 7.48 18.95C7.47 18.96 7.45 18.98 7.43 18.99C7.42 19 7.4 19.01 7.38 19.02C7.36 19.03 7.35 19.04 7.33 19.04L7.27 19.07C7.25 19.07 7.23 19.08 7.21 19.08C7.19 19.08 7.17 19.09 7.15 19.09L7.03 19.09L7 19.08L6.97 19.08C6.96 19.08 6.95 19.07 6.95 19.07L6.92 19.07C6.91 19.06 6.9 19.06 6.89 19.06C6.88 19.05 6.87 19.05 6.86 19.04C6.85 19.04 6.84 19.04 6.83 19.03C6.82 19.03 6.82 19.02 6.81 19.02C6.8 19.01 6.79 19.01 6.78 19C6.77 19 6.76 18.99 6.75 18.99C6.75 18.98 6.74 18.98 6.73 18.97C6.72 18.96 6.71 18.96 6.71 18.95C6.7 18.95 6.69 18.94 6.68 18.93L6.64 18.89L6.62 18.87C6.61 18.86 6.61 18.85 6.6 18.84C6.6 18.84 6.59 18.83 6.59 18.82C6.58 18.81 6.57 18.8 6.57 18.79C6.56 18.79 6.56 18.78 6.55 18.77C6.55 18.76 6.55 18.75 6.54 18.74C6.54 18.73 6.53 18.72 6.53 18.71C6.53 18.7 6.52 18.7 6.52 18.69C6.51 18.68 6.51 18.67 6.51 18.66C6.51 18.65 6.5 18.64 6.5 18.63C6.5 18.62 6.5 18.61 6.49 18.6L6.49 18.54C6.49 18.53 6.48 18.52 6.48 18.51L6.48 4.34L1.04 9.78C1.04 9.79 1.03 9.8 1.02 9.8C1.01 9.81 1.01 9.82 1 9.82L0.98 9.84C0.97 9.85 0.96 9.85 0.95 9.86C0.94 9.87 0.93 9.87 0.93 9.87C0.92 9.88 0.91 9.88 0.9 9.89C0.89 9.89 0.88 9.9 0.87 9.9C0.86 9.91 0.85 9.91 0.85 9.92C0.84 9.92 0.83 9.92 0.82 9.93C0.81 9.93 0.8 9.93 0.79 9.94L0.76 9.94C0.75 9.95 0.74 9.95 0.73 9.95C0.72 9.95 0.71 9.95 0.7 9.96L0.52 9.96C0.51 9.95 0.5 9.95 0.49 9.95C0.48 9.95 0.47 9.95 0.46 9.94L0.43 9.94C0.42 9.93 0.42 9.93 0.41 9.93C0.4 9.92 0.39 9.92 0.38 9.92C0.37 9.91 0.36 9.91 0.35 9.9C0.34 9.9 0.33 9.89 0.32 9.89L0.3 9.87C0.29 9.87 0.28 9.87 0.27 9.86L0.25 9.84L0.22 9.82L0.2 9.8C0.19 9.8 0.19 9.79 0.18 9.78C0.17 9.78 0.17 9.77 0.16 9.76L0.14 9.74L0.12 9.72C0.12 9.71 0.11 9.7 0.1 9.69C0.1 9.68 0.09 9.67 0.09 9.67C0.08 9.66 0.08 9.65 0.07 9.64C0.07 9.63 0.06 9.62 0.06 9.61C0.06 9.6 0.05 9.59 0.05 9.59C0.04 9.58 0.04 9.57 0.04 9.56C0.03 9.55 0.03 9.54 0.03 9.53L0.02 9.5C0.02 9.49 0.01 9.48 0.01 9.47L0.01 9.44C0.01 9.43 0 9.42 0 9.41L0 9.29C0 9.28 0.01 9.27 0.01 9.26L0.01 9.23C0.01 9.22 0.02 9.21 0.02 9.2L0.03 9.17C0.03 9.16 0.03 9.15 0.04 9.15C0.04 9.14 0.04 9.13 0.05 9.12C0.05 9.11 0.06 9.1 0.06 9.09C0.06 9.08 0.07 9.07 0.07 9.06C0.08 9.05 0.08 9.04 0.09 9.04C0.09 9.03 0.1 9.02 0.1 9.01L0.12 8.99L0.14 8.96C0.15 8.96 0.15 8.95 0.16 8.94L0.18 8.92L5.97 3.13C6.05 3.05 6.13 2.98 6.22 2.93C6.31 2.87 6.4 2.82 6.5 2.78C6.59 2.74 6.69 2.71 6.79 2.69C6.89 2.67 6.99 2.66 7.09 2.66C7.2 2.66 7.3 2.67 7.4 2.69Z" /></g></g></svg>