<svg xmlns="http://www.w3.org/2000/svg" xmlns:xlink="http://www.w3.org/1999/xlink" width="22" height="22" viewBox="0 0 22 22" fill="none"><defs><rect id="path_0" x="0" y="0" width="22" height="22" /></defs><g opacity="1" transform="translate(0 0)  rotate(0 11 11)"><mask id="bg-mask-0" fill="white"><use xlink:href="#path_0"></use></mask><g mask="url(#bg-mask-0)" ><path id="并集" fill-rule="evenodd" style="fill:#000000" transform="translate(2.0777777777777775 2.0784744444444634)  rotate(0 8.922222222222222 8.910262213812933)" opacity="1" d="M9.17 10.69C9.15 10.7 9.13 10.71 9.1 10.72C9.08 10.73 9.06 10.73 9.04 10.74C9.01 10.75 8.99 10.75 8.97 10.75C8.94 10.75 8.92 10.76 8.9 10.76L8.87 10.76C8.86 10.75 8.85 10.75 8.84 10.75L8.81 10.75C8.8 10.75 8.79 10.75 8.78 10.74L8.75 10.74L8.72 10.73C8.71 10.73 8.7 10.72 8.69 10.72C8.68 10.72 8.67 10.71 8.66 10.71C8.65 10.71 8.65 10.7 8.64 10.7C8.63 10.69 8.62 10.69 8.61 10.68C8.6 10.68 8.59 10.67 8.58 10.67C8.58 10.66 8.57 10.66 8.56 10.65C8.55 10.65 8.54 10.64 8.53 10.64C8.53 10.63 8.52 10.62 8.51 10.62L8.49 10.6L8.47 10.58L8.45 10.56L8.42 10.53C8.42 10.52 8.41 10.52 8.41 10.51C8.4 10.5 8.4 10.49 8.39 10.48C8.38 10.48 8.38 10.47 8.37 10.46L8.36 10.43C8.35 10.42 8.35 10.42 8.35 10.41C8.34 10.4 8.34 10.39 8.33 10.38C8.33 10.37 8.33 10.36 8.32 10.35C8.32 10.34 8.32 10.33 8.31 10.32L8.31 10.29C8.3 10.28 8.3 10.27 8.3 10.26C8.3 10.25 8.3 10.24 8.29 10.23L8.29 0.61C8.29 0.58 8.29 0.55 8.3 0.51C8.3 0.48 8.31 0.45 8.32 0.42C8.33 0.38 8.34 0.35 8.36 0.32C8.37 0.29 8.39 0.27 8.41 0.24C8.43 0.22 8.44 0.2 8.46 0.19C8.47 0.17 8.49 0.15 8.51 0.14C8.53 0.12 8.55 0.11 8.57 0.1C8.59 0.09 8.61 0.07 8.63 0.06C8.65 0.05 8.67 0.04 8.69 0.04C8.71 0.03 8.74 0.02 8.76 0.02C8.78 0.01 8.8 0.01 8.83 0L8.96 0C8.97 0 8.98 0 8.99 0.01L9.02 0.01C9.03 0.01 9.04 0.02 9.05 0.02C9.06 0.02 9.07 0.02 9.07 0.03C9.08 0.03 9.09 0.03 9.1 0.04C9.11 0.04 9.12 0.04 9.13 0.05C9.14 0.05 9.15 0.06 9.16 0.06C9.17 0.06 9.18 0.07 9.19 0.07L9.21 0.09C9.22 0.09 9.23 0.1 9.24 0.1L9.26 0.12C9.27 0.13 9.28 0.13 9.29 0.14C9.29 0.15 9.3 0.15 9.31 0.16L9.33 0.18L9.35 0.2C9.36 0.21 9.36 0.22 9.37 0.22C9.38 0.23 9.38 0.24 9.39 0.25L9.41 0.27C9.41 0.28 9.42 0.29 9.42 0.3L9.44 0.32C9.44 0.33 9.45 0.34 9.45 0.35C9.46 0.36 9.46 0.37 9.46 0.38C9.47 0.39 9.47 0.4 9.47 0.41C9.48 0.41 9.48 0.42 9.48 0.43L9.49 0.46C9.49 0.47 9.5 0.48 9.5 0.49L9.5 0.52L9.51 0.55L9.51 10.14C9.51 10.18 9.51 10.21 9.5 10.24C9.5 10.28 9.49 10.31 9.48 10.34C9.47 10.37 9.45 10.4 9.44 10.43L9.38 10.52C9.37 10.54 9.35 10.55 9.34 10.57C9.32 10.59 9.3 10.6 9.29 10.62C9.27 10.63 9.25 10.65 9.23 10.66L9.17 10.69ZM0.18 10.71C0.24 11 0.31 11.29 0.4 11.57C0.49 11.84 0.59 12.12 0.7 12.38C0.81 12.65 0.94 12.91 1.08 13.16C1.21 13.41 1.36 13.66 1.52 13.9C1.68 14.13 1.86 14.36 2.04 14.58Q2.31 14.91 2.61 15.21C2.82 15.42 3.03 15.61 3.25 15.79C3.47 15.97 3.7 16.14 3.93 16.3C4.17 16.46 4.42 16.61 4.67 16.75C4.92 16.88 5.18 17.01 5.45 17.12C5.72 17.23 5.99 17.33 6.27 17.42C6.55 17.51 6.84 17.58 7.12 17.64C7.42 17.7 7.71 17.74 8.01 17.77C8.31 17.8 8.62 17.82 8.92 17.82C9.23 17.82 9.53 17.8 9.83 17.77C10.13 17.74 10.43 17.7 10.72 17.64C11.01 17.58 11.29 17.51 11.57 17.42C11.85 17.33 12.13 17.23 12.39 17.12C12.66 17.01 12.92 16.88 13.18 16.75C13.43 16.61 13.67 16.46 13.91 16.3C14.15 16.14 14.38 15.97 14.6 15.79C14.82 15.61 15.03 15.42 15.23 15.21C15.43 15.01 15.62 14.8 15.81 14.58C15.99 14.36 16.16 14.13 16.32 13.9C16.48 13.66 16.63 13.41 16.77 13.16C16.9 12.91 17.03 12.65 17.14 12.38C17.26 12.12 17.36 11.84 17.44 11.57C17.53 11.29 17.6 11 17.66 10.71C17.72 10.42 17.77 10.13 17.8 9.83C17.83 9.53 17.84 9.22 17.84 8.92C17.84 8.61 17.83 8.31 17.8 8.01C17.77 7.71 17.72 7.42 17.66 7.12C17.6 6.84 17.53 6.55 17.44 6.27C17.36 5.99 17.26 5.72 17.14 5.45C17.03 5.19 16.9 4.93 16.77 4.67C16.63 4.42 16.48 4.18 16.32 3.94C16.16 3.7 15.99 3.47 15.81 3.25C15.62 3.03 15.43 2.82 15.23 2.62C15.2 2.59 15.17 2.57 15.14 2.55C15.11 2.52 15.07 2.51 15.03 2.49C15 2.47 14.96 2.46 14.92 2.46C14.88 2.45 14.84 2.44 14.8 2.44C14.78 2.44 14.76 2.44 14.74 2.45C14.72 2.45 14.7 2.45 14.68 2.46C14.66 2.46 14.64 2.46 14.62 2.47C14.6 2.48 14.58 2.48 14.56 2.49C14.55 2.5 14.53 2.51 14.51 2.52C14.49 2.53 14.47 2.54 14.46 2.55C14.44 2.56 14.43 2.57 14.41 2.58C14.4 2.6 14.38 2.61 14.37 2.62C14.36 2.63 14.35 2.64 14.35 2.65C14.34 2.65 14.33 2.66 14.33 2.67C14.32 2.68 14.31 2.68 14.31 2.69C14.3 2.7 14.3 2.71 14.29 2.72C14.28 2.72 14.28 2.73 14.27 2.74C14.27 2.75 14.26 2.76 14.26 2.77C14.25 2.78 14.25 2.78 14.25 2.79C14.24 2.8 14.24 2.81 14.23 2.82C14.23 2.83 14.23 2.84 14.22 2.85C14.22 2.86 14.22 2.87 14.21 2.88L14.21 2.91C14.2 2.92 14.2 2.93 14.2 2.94C14.2 2.95 14.2 2.96 14.19 2.97L14.19 3.15C14.2 3.16 14.2 3.16 14.2 3.17C14.2 3.18 14.2 3.19 14.21 3.2L14.21 3.23C14.22 3.24 14.22 3.25 14.22 3.26C14.23 3.27 14.23 3.28 14.23 3.29C14.24 3.3 14.24 3.31 14.25 3.32C14.25 3.33 14.25 3.33 14.26 3.34C14.26 3.35 14.27 3.36 14.27 3.37L14.29 3.39C14.3 3.4 14.3 3.41 14.31 3.42C14.31 3.43 14.32 3.43 14.33 3.44C14.33 3.45 14.34 3.46 14.35 3.47L14.37 3.49C14.54 3.66 14.71 3.84 14.86 4.03C15.02 4.22 15.17 4.42 15.31 4.63C15.45 4.83 15.57 5.04 15.69 5.26C15.81 5.48 15.92 5.7 16.02 5.93C16.11 6.16 16.2 6.4 16.28 6.63C16.35 6.88 16.41 7.12 16.47 7.37C16.52 7.62 16.56 7.88 16.58 8.13C16.61 8.39 16.62 8.65 16.62 8.92C16.62 9.18 16.61 9.44 16.58 9.7C16.56 9.96 16.52 10.21 16.47 10.47C16.41 10.71 16.35 10.96 16.28 11.2C16.2 11.44 16.11 11.68 16.02 11.91C15.92 12.14 15.81 12.36 15.69 12.58C15.58 12.79 15.45 13.01 15.31 13.21C15.17 13.42 15.02 13.61 14.86 13.8C14.71 13.99 14.54 14.17 14.37 14.35C14.19 14.52 14.01 14.69 13.82 14.84C13.63 15 13.43 15.15 13.23 15.29C13.02 15.42 12.81 15.55 12.59 15.67C12.37 15.79 12.15 15.9 11.92 15.99C11.69 16.09 11.45 16.18 11.21 16.25C10.97 16.33 10.72 16.39 10.48 16.44C10.22 16.49 9.97 16.53 9.71 16.56C9.45 16.58 9.19 16.6 8.92 16.6C8.66 16.6 8.4 16.58 8.13 16.56C7.88 16.53 7.62 16.49 7.37 16.44C7.12 16.39 6.87 16.33 6.63 16.25C6.39 16.18 6.16 16.09 5.92 15.99C5.7 15.9 5.47 15.79 5.25 15.67C5.03 15.55 4.82 15.42 4.62 15.29C4.41 15.15 4.21 15 4.02 14.84C3.83 14.69 3.65 14.52 3.48 14.35C3.3 14.17 3.14 13.99 2.98 13.8C2.82 13.61 2.67 13.42 2.54 13.21C2.4 13.01 2.27 12.79 2.15 12.58C2.03 12.36 1.92 12.14 1.83 11.91C1.73 11.68 1.64 11.44 1.57 11.2C1.49 10.96 1.43 10.71 1.38 10.47C1.33 10.21 1.29 9.96 1.26 9.7C1.24 9.44 1.22 9.18 1.22 8.92C1.22 8.65 1.24 8.39 1.26 8.13C1.29 7.88 1.33 7.62 1.38 7.37C1.43 7.12 1.49 6.88 1.57 6.63C1.64 6.4 1.73 6.16 1.83 5.93C1.92 5.7 2.03 5.48 2.15 5.26C2.27 5.04 2.4 4.83 2.54 4.63C2.68 4.42 2.82 4.22 2.98 4.03C3.14 3.84 3.3 3.66 3.48 3.49C3.49 3.47 3.51 3.46 3.52 3.44C3.53 3.43 3.54 3.41 3.55 3.39C3.57 3.38 3.58 3.36 3.58 3.34C3.59 3.33 3.6 3.31 3.61 3.29C3.62 3.27 3.63 3.25 3.63 3.23C3.64 3.21 3.64 3.19 3.64 3.17C3.65 3.16 3.65 3.14 3.65 3.12C3.66 3.1 3.66 3.08 3.66 3.06C3.66 3.04 3.66 3.02 3.65 3L3.65 2.94L3.63 2.88C3.63 2.86 3.62 2.84 3.61 2.82C3.6 2.8 3.59 2.78 3.58 2.77C3.58 2.75 3.57 2.73 3.55 2.72C3.54 2.7 3.53 2.68 3.52 2.67C3.51 2.65 3.49 2.64 3.48 2.62C3.46 2.61 3.45 2.6 3.43 2.58C3.42 2.57 3.4 2.56 3.39 2.55L3.33 2.52C3.32 2.51 3.3 2.5 3.28 2.49C3.26 2.48 3.24 2.48 3.22 2.47C3.2 2.46 3.19 2.46 3.17 2.46C3.14 2.45 3.13 2.45 3.11 2.45C3.09 2.44 3.07 2.44 3.05 2.44C3.01 2.44 2.97 2.45 2.93 2.46C2.89 2.46 2.85 2.47 2.81 2.49C2.77 2.5 2.74 2.52 2.71 2.55C2.67 2.57 2.64 2.59 2.61 2.62Q2.31 2.92 2.04 3.25C1.86 3.47 1.68 3.7 1.52 3.94C1.36 4.18 1.21 4.42 1.08 4.67C0.94 4.93 0.81 5.19 0.7 5.45C0.59 5.72 0.49 5.99 0.4 6.27C0.31 6.55 0.24 6.84 0.18 7.12C0.12 7.42 0.08 7.71 0.05 8.01C0.02 8.31 0 8.61 0 8.92C0 9.22 0.02 9.53 0.05 9.83C0.08 10.13 0.12 10.42 0.18 10.71Z" /></g></g></svg>