<svg xmlns="http://www.w3.org/2000/svg" xmlns:xlink="http://www.w3.org/1999/xlink" width="22" height="22" viewBox="0 0 22 22" fill="none"><defs><rect id="path_0" x="0" y="0" width="22" height="22" /></defs><g opacity="1" transform="translate(0 0)  rotate(0 11 11)"><mask id="bg-mask-0" fill="white"><use xlink:href="#path_0"></use></mask><g mask="url(#bg-mask-0)" ><path id="并集" fill-rule="evenodd" style="fill:#000000" transform="translate(0.48026010826703436 0.8622182529709899)  rotate(45 10.24955563015408 10.24955563015408)" opacity="1" d="M20.47,10.07C20.47,10.05 20.46,10.03 20.45,10.02C20.45,10 20.44,9.98 20.43,9.96C20.42,9.94 20.41,9.93 20.4,9.91C20.39,9.89 20.37,9.88 20.36,9.86C20.35,9.85 20.33,9.83 20.32,9.82C20.31,9.8 20.29,9.79 20.28,9.78C20.26,9.76 20.24,9.75 20.23,9.74C20.21,9.73 20.19,9.72 20.18,9.71C20.16,9.7 20.14,9.69 20.12,9.68C20.1,9.68 20.08,9.67 20.07,9.67C20.05,9.66 20.03,9.65 20.01,9.65C19.99,9.65 19.97,9.64 19.95,9.64C19.93,9.64 19.91,9.64 19.89,9.64L10.86,9.64L10.86,0.58C10.86,0.57 10.86,0.56 10.86,0.55L10.85,0.52C10.85,0.51 10.85,0.5 10.85,0.49C10.85,0.48 10.84,0.47 10.84,0.46L10.84,0.43C10.83,0.42 10.83,0.41 10.83,0.41C10.82,0.4 10.82,0.39 10.81,0.38C10.81,0.37 10.81,0.36 10.8,0.35C10.8,0.34 10.79,0.33 10.79,0.32L10.77,0.3C10.77,0.29 10.76,0.28 10.76,0.27C10.75,0.26 10.75,0.26 10.74,0.25C10.73,0.24 10.73,0.23 10.72,0.22C10.72,0.22 10.71,0.21 10.7,0.2C10.7,0.19 10.69,0.19 10.68,0.18C10.67,0.17 10.67,0.17 10.66,0.16C10.65,0.15 10.65,0.15 10.64,0.14C10.63,0.13 10.62,0.13 10.61,0.12C10.61,0.11 10.6,0.11 10.59,0.1C10.58,0.1 10.57,0.09 10.56,0.09L10.54,0.07C10.53,0.07 10.52,0.06 10.51,0.06C10.5,0.06 10.49,0.05 10.48,0.05C10.47,0.04 10.46,0.04 10.46,0.04C10.45,0.03 10.44,0.03 10.43,0.03C10.42,0.02 10.41,0.02 10.4,0.02C10.39,0.02 10.38,0.01 10.37,0.01C10.36,0.01 10.35,0.01 10.34,0.01C10.33,0 10.32,0 10.31,0C10.3,0 10.29,0 10.28,0C10.27,0 10.26,0 10.25,0C10.23,0 10.21,0 10.19,0C10.17,0 10.15,0.01 10.13,0.01C10.11,0.02 10.09,0.02 10.07,0.03C10.05,0.03 10.03,0.04 10.02,0.05C10,0.05 9.98,0.06 9.96,0.07C9.94,0.08 9.93,0.09 9.91,0.1C9.89,0.11 9.88,0.13 9.86,0.14C9.85,0.15 9.83,0.17 9.82,0.18C9.8,0.19 9.79,0.21 9.78,0.22C9.76,0.24 9.75,0.26 9.74,0.27C9.73,0.29 9.72,0.31 9.71,0.32C9.7,0.34 9.69,0.36 9.68,0.38C9.68,0.4 9.67,0.41 9.67,0.43C9.66,0.45 9.65,0.47 9.65,0.49C9.65,0.51 9.64,0.53 9.64,0.55C9.64,0.57 9.64,0.59 9.64,0.61L9.64,9.64L0.61,9.64C0.6,9.64 0.59,9.64 0.58,9.64C0.57,9.64 0.56,9.64 0.55,9.64L0.52,9.64C0.51,9.65 0.5,9.65 0.49,9.65C0.48,9.65 0.47,9.65 0.46,9.66C0.45,9.66 0.44,9.66 0.43,9.67C0.42,9.67 0.41,9.67 0.41,9.67C0.4,9.68 0.39,9.68 0.38,9.68C0.37,9.69 0.36,9.69 0.35,9.7C0.34,9.7 0.33,9.71 0.32,9.71L0.3,9.73C0.29,9.73 0.28,9.74 0.27,9.74C0.26,9.75 0.26,9.75 0.25,9.76C0.24,9.76 0.23,9.77 0.22,9.78C0.22,9.78 0.21,9.79 0.2,9.8C0.19,9.8 0.19,9.81 0.18,9.82C0.17,9.82 0.17,9.83 0.16,9.84C0.15,9.85 0.15,9.85 0.14,9.86C0.13,9.87 0.13,9.88 0.12,9.89C0.11,9.89 0.11,9.9 0.1,9.91C0.1,9.92 0.09,9.93 0.09,9.94L0.07,9.96C0.07,9.97 0.06,9.98 0.06,9.99C0.06,10 0.05,10.01 0.05,10.02C0.04,10.02 0.04,10.03 0.04,10.04C0.03,10.05 0.03,10.06 0.03,10.07C0.02,10.08 0.02,10.09 0.02,10.1C0.02,10.11 0.01,10.12 0.01,10.13C0.01,10.14 0.01,10.15 0.01,10.16L0,10.19C0,10.2 0,10.21 0,10.22C0,10.23 0,10.24 0,10.25C0,10.26 0,10.27 0,10.28C0,10.29 0,10.3 0,10.31C0,10.32 0,10.33 0.01,10.34C0.01,10.35 0.01,10.36 0.01,10.37C0.01,10.38 0.02,10.39 0.02,10.4C0.02,10.41 0.02,10.42 0.03,10.43C0.03,10.44 0.03,10.45 0.04,10.46C0.04,10.46 0.04,10.47 0.05,10.48C0.05,10.49 0.06,10.5 0.06,10.51C0.06,10.52 0.07,10.53 0.07,10.54L0.09,10.56C0.09,10.57 0.1,10.58 0.1,10.59C0.11,10.6 0.11,10.61 0.12,10.61C0.13,10.62 0.13,10.63 0.14,10.64C0.15,10.65 0.15,10.65 0.16,10.66C0.17,10.67 0.17,10.67 0.18,10.68C0.19,10.69 0.19,10.7 0.2,10.7C0.21,10.71 0.22,10.72 0.22,10.72C0.23,10.73 0.24,10.73 0.25,10.74C0.26,10.75 0.26,10.75 0.27,10.76C0.28,10.76 0.29,10.77 0.3,10.77L0.32,10.79C0.33,10.79 0.34,10.8 0.35,10.8C0.36,10.81 0.37,10.81 0.38,10.81C0.39,10.82 0.4,10.82 0.41,10.83C0.41,10.83 0.42,10.83 0.43,10.84L0.46,10.84C0.47,10.84 0.48,10.85 0.49,10.85C0.5,10.85 0.51,10.85 0.52,10.85L0.55,10.86C0.56,10.86 0.57,10.86 0.58,10.86L9.64,10.86L9.64,19.89C9.64,19.9 9.64,19.91 9.64,19.92C9.64,19.93 9.64,19.94 9.64,19.95C9.64,19.96 9.64,19.97 9.64,19.98C9.65,19.99 9.65,20 9.65,20.01C9.65,20.02 9.65,20.03 9.66,20.04C9.66,20.05 9.66,20.06 9.67,20.07C9.67,20.08 9.67,20.08 9.67,20.09C9.68,20.1 9.68,20.11 9.68,20.12C9.69,20.13 9.69,20.14 9.7,20.15C9.7,20.16 9.71,20.17 9.71,20.18L9.73,20.2C9.73,20.21 9.74,20.22 9.74,20.23C9.75,20.24 9.75,20.24 9.76,20.25C9.76,20.26 9.77,20.27 9.78,20.28C9.78,20.28 9.79,20.29 9.8,20.3C9.8,20.31 9.81,20.31 9.82,20.32C9.82,20.33 9.83,20.33 9.84,20.34C9.85,20.35 9.85,20.35 9.86,20.36C9.87,20.37 9.88,20.37 9.89,20.38C9.89,20.39 9.9,20.39 9.91,20.4C9.92,20.4 9.93,20.41 9.94,20.41L9.96,20.43C9.97,20.43 9.98,20.44 9.99,20.44C10,20.45 10.01,20.45 10.02,20.45C10.02,20.46 10.03,20.46 10.04,20.46C10.05,20.47 10.06,20.47 10.07,20.47L10.1,20.48C10.11,20.48 10.12,20.49 10.13,20.49C10.14,20.49 10.15,20.49 10.16,20.49L10.19,20.5C10.2,20.5 10.21,20.5 10.22,20.5L10.25,20.5C10.27,20.5 10.29,20.5 10.31,20.5C10.33,20.49 10.34,20.49 10.36,20.49C10.38,20.48 10.4,20.48 10.42,20.47C10.44,20.47 10.46,20.46 10.47,20.46C10.49,20.45 10.51,20.44 10.53,20.43C10.54,20.42 10.56,20.41 10.58,20.41C10.59,20.39 10.61,20.38 10.62,20.37C10.64,20.36 10.65,20.35 10.67,20.33C10.68,20.32 10.69,20.31 10.71,20.29C10.72,20.28 10.73,20.26 10.74,20.25C10.75,20.23 10.77,20.22 10.78,20.2C10.78,20.18 10.79,20.17 10.8,20.15C10.81,20.13 10.82,20.12 10.82,20.1C10.83,20.08 10.84,20.06 10.84,20.04C10.85,20.02 10.85,20 10.85,19.99C10.86,19.97 10.86,19.95 10.86,19.93C10.86,19.92 10.86,19.91 10.86,19.9L10.86,10.86L19.89,10.86C19.9,10.86 19.91,10.86 19.93,10.86C19.95,10.86 19.97,10.86 19.99,10.85C20.01,10.85 20.02,10.85 20.04,10.84C20.06,10.84 20.08,10.83 20.1,10.82C20.12,10.82 20.13,10.81 20.15,10.8C20.17,10.79 20.18,10.78 20.2,10.78C20.22,10.77 20.23,10.75 20.25,10.74C20.26,10.73 20.28,10.72 20.29,10.71C20.31,10.69 20.32,10.68 20.33,10.67C20.35,10.65 20.36,10.64 20.37,10.62C20.38,10.61 20.39,10.59 20.41,10.58C20.41,10.56 20.42,10.54 20.43,10.53C20.44,10.51 20.45,10.49 20.46,10.47C20.46,10.46 20.47,10.44 20.47,10.42C20.48,10.4 20.48,10.38 20.49,10.36C20.49,10.34 20.49,10.33 20.5,10.31C20.5,10.29 20.5,10.27 20.5,10.25C20.5,10.23 20.5,10.21 20.5,10.19C20.49,10.17 20.49,10.15 20.49,10.13C20.48,10.11 20.48,10.09 20.47,10.07Z " /></g></g></svg>