<svg xmlns="http://www.w3.org/2000/svg" xmlns:xlink="http://www.w3.org/1999/xlink" width="22" height="22" viewBox="0 0 22 22" fill="none"><defs><rect id="path_0" x="0" y="0" width="22" height="22" /></defs><g opacity="1" transform="translate(0 0)  rotate(0 11 11)"><mask id="bg-mask-0" fill="white"><use xlink:href="#path_0"></use></mask><g mask="url(#bg-mask-0)" ><path id="并集" fill-rule="evenodd" style="fill:#000000" transform="translate(3.116666666666667 2.1365063561301767)  rotate(0 7.883333333333333 8.892857933046)" opacity="1" d="M13.46 5.55C13.46 5.54 13.47 5.54 13.47 5.53C13.47 5.52 13.48 5.51 13.48 5.5L13.49 5.47C13.49 5.46 13.49 5.45 13.5 5.44L13.5 5.38C13.51 5.37 13.51 5.36 13.51 5.35L13.51 5.29C13.51 5.28 13.51 5.27 13.5 5.26L13.5 5.2C13.49 5.19 13.49 5.18 13.49 5.17L13.48 5.14C13.48 5.13 13.47 5.12 13.47 5.11C13.47 5.11 13.46 5.1 13.46 5.09C13.46 5.08 13.45 5.07 13.45 5.06C13.44 5.05 13.44 5.04 13.43 5.03C13.43 5.02 13.42 5.01 13.42 5.01C13.42 5 13.41 4.99 13.4 4.98C13.4 4.97 13.39 4.96 13.39 4.96L13.37 4.93C13.36 4.93 13.36 4.92 13.35 4.91C13.34 4.9 13.33 4.9 13.33 4.89L8.83 0.39C8.77 0.33 8.7 0.27 8.62 0.22C8.55 0.17 8.47 0.13 8.39 0.1C8.31 0.07 8.23 0.04 8.14 0.03C8.05 0.01 7.97 0 7.88 0C7.8 0 7.71 0.01 7.63 0.03C7.54 0.04 7.46 0.07 7.38 0.1C7.29 0.13 7.22 0.17 7.14 0.22C7.07 0.27 7 0.33 6.93 0.39L2.44 4.89C2.43 4.9 2.42 4.9 2.42 4.91L2.4 4.93L2.38 4.96C2.37 4.96 2.37 4.97 2.36 4.98C2.36 4.99 2.35 5 2.35 5.01C2.34 5.01 2.34 5.02 2.33 5.03C2.33 5.04 2.32 5.05 2.32 5.06C2.31 5.07 2.31 5.08 2.31 5.09C2.3 5.1 2.3 5.11 2.3 5.11C2.29 5.12 2.29 5.13 2.29 5.14L2.28 5.17C2.28 5.18 2.27 5.19 2.27 5.2L2.27 5.23C2.26 5.24 2.26 5.25 2.26 5.26L2.26 5.38C2.26 5.39 2.26 5.4 2.27 5.41L2.27 5.44C2.27 5.45 2.28 5.46 2.28 5.47L2.29 5.5C2.29 5.51 2.29 5.52 2.3 5.53C2.3 5.54 2.3 5.54 2.31 5.55C2.31 5.56 2.31 5.57 2.32 5.58C2.32 5.59 2.33 5.6 2.33 5.61C2.34 5.62 2.34 5.63 2.35 5.63C2.35 5.64 2.36 5.65 2.36 5.66C2.37 5.67 2.37 5.68 2.38 5.68L2.4 5.71C2.4 5.72 2.41 5.72 2.42 5.73C2.42 5.74 2.43 5.75 2.44 5.75C2.45 5.76 2.45 5.77 2.46 5.77L2.48 5.79L2.51 5.81C2.51 5.82 2.52 5.82 2.53 5.83C2.54 5.83 2.55 5.84 2.56 5.84C2.56 5.85 2.57 5.85 2.58 5.86C2.59 5.86 2.6 5.87 2.61 5.87C2.62 5.88 2.63 5.88 2.64 5.88C2.65 5.89 2.66 5.89 2.67 5.9C2.67 5.9 2.68 5.9 2.69 5.91L2.72 5.91C2.73 5.92 2.74 5.92 2.75 5.92C2.76 5.92 2.77 5.92 2.78 5.93L2.96 5.93C2.97 5.92 2.98 5.92 2.99 5.92C3 5.92 3.01 5.92 3.02 5.91L3.05 5.91C3.06 5.9 3.07 5.9 3.08 5.9C3.09 5.89 3.1 5.89 3.1 5.88C3.11 5.88 3.12 5.88 3.13 5.87C3.14 5.87 3.15 5.86 3.16 5.86C3.17 5.85 3.18 5.85 3.19 5.84C3.19 5.84 3.2 5.83 3.21 5.83C3.22 5.82 3.23 5.82 3.24 5.81L3.26 5.79C3.27 5.79 3.27 5.78 3.28 5.77C3.29 5.77 3.3 5.76 3.3 5.75L7.27 1.78L7.27 14.67L7.28 14.7L7.28 14.73C7.29 14.74 7.29 14.75 7.29 14.76C7.29 14.77 7.3 14.78 7.3 14.79C7.3 14.8 7.3 14.81 7.31 14.81C7.31 14.82 7.32 14.83 7.32 14.84C7.32 14.85 7.33 14.86 7.33 14.87C7.34 14.88 7.34 14.89 7.34 14.9L7.36 14.92C7.36 14.93 7.37 14.94 7.37 14.95C7.38 14.96 7.39 14.96 7.39 14.97C7.4 14.98 7.4 14.99 7.41 15L7.43 15.02L7.45 15.04L7.47 15.06C7.48 15.07 7.49 15.07 7.5 15.08C7.5 15.09 7.51 15.09 7.52 15.1L7.54 15.12C7.55 15.12 7.56 15.13 7.57 15.13L7.59 15.15C7.6 15.15 7.61 15.16 7.62 15.16C7.63 15.17 7.64 15.17 7.65 15.17C7.66 15.18 7.67 15.18 7.68 15.18C7.69 15.19 7.7 15.19 7.71 15.19C7.72 15.2 7.73 15.2 7.74 15.2C7.74 15.2 7.75 15.21 7.76 15.21L7.79 15.21L7.82 15.22L7.94 15.22L7.97 15.21L8 15.21C8.01 15.21 8.02 15.2 8.03 15.2C8.04 15.2 8.05 15.2 8.06 15.19C8.07 15.19 8.08 15.19 8.09 15.18C8.1 15.18 8.11 15.18 8.12 15.17C8.13 15.17 8.14 15.17 8.14 15.16C8.15 15.16 8.16 15.15 8.17 15.15L8.2 15.13C8.21 15.13 8.21 15.12 8.22 15.12C8.23 15.11 8.24 15.11 8.25 15.1C8.25 15.09 8.26 15.09 8.27 15.08C8.28 15.07 8.29 15.07 8.29 15.06C8.3 15.06 8.31 15.05 8.32 15.04C8.32 15.03 8.33 15.03 8.34 15.02C8.34 15.01 8.35 15.01 8.36 15C8.36 14.99 8.37 14.98 8.37 14.97C8.38 14.96 8.39 14.96 8.39 14.95C8.4 14.94 8.4 14.93 8.41 14.92L8.42 14.9C8.43 14.89 8.43 14.88 8.44 14.87C8.44 14.86 8.44 14.85 8.45 14.84C8.45 14.83 8.46 14.82 8.46 14.81C8.46 14.81 8.47 14.8 8.47 14.79C8.47 14.78 8.47 14.77 8.48 14.76L8.48 14.73C8.48 14.72 8.49 14.71 8.49 14.7L8.49 1.78L12.46 5.75C12.47 5.76 12.48 5.77 12.49 5.77C12.49 5.78 12.5 5.79 12.51 5.79L12.53 5.81C12.54 5.82 12.55 5.82 12.56 5.83C12.56 5.83 12.57 5.84 12.58 5.84C12.59 5.85 12.6 5.85 12.61 5.86C12.62 5.86 12.63 5.87 12.63 5.87C12.64 5.88 12.65 5.88 12.66 5.88C12.67 5.89 12.68 5.89 12.69 5.9C12.7 5.9 12.71 5.9 12.72 5.91L12.75 5.91C12.76 5.92 12.77 5.92 12.78 5.92C12.79 5.92 12.8 5.92 12.81 5.93L12.99 5.93C13 5.92 13 5.92 13.02 5.92C13.02 5.92 13.04 5.92 13.04 5.91L13.07 5.91C13.08 5.9 13.09 5.9 13.1 5.9C13.11 5.89 13.12 5.89 13.13 5.88C13.14 5.88 13.15 5.88 13.16 5.87C13.17 5.87 13.18 5.86 13.18 5.86C13.19 5.85 13.2 5.85 13.21 5.84C13.22 5.84 13.23 5.83 13.23 5.83C13.24 5.82 13.25 5.82 13.26 5.81L13.28 5.79C13.29 5.79 13.3 5.78 13.31 5.77L13.33 5.75L13.35 5.73L13.37 5.71L13.39 5.68C13.39 5.68 13.4 5.67 13.4 5.66C13.41 5.65 13.42 5.64 13.42 5.63C13.42 5.63 13.43 5.62 13.43 5.61C13.44 5.6 13.44 5.59 13.45 5.58C13.45 5.57 13.46 5.56 13.46 5.55ZM15.77 15.71C15.77 15.85 15.75 15.99 15.73 16.13C15.7 16.26 15.66 16.39 15.6 16.52C15.55 16.64 15.49 16.76 15.41 16.87C15.34 16.98 15.25 17.08 15.16 17.18C15.06 17.27 14.96 17.36 14.85 17.43C14.74 17.51 14.62 17.57 14.5 17.62C14.37 17.68 14.24 17.72 14.11 17.74C13.97 17.77 13.83 17.79 13.69 17.79L2.08 17.79C1.94 17.79 1.8 17.77 1.66 17.74C1.53 17.72 1.39 17.68 1.27 17.62C1.15 17.57 1.03 17.51 0.92 17.43C0.81 17.36 0.7 17.27 0.61 17.18C0.51 17.08 0.43 16.98 0.36 16.87C0.28 16.76 0.22 16.64 0.16 16.52C0.11 16.39 0.07 16.26 0.04 16.13C0.01 15.99 0 15.85 0 15.71L0 10.45C0 10.31 0.01 10.17 0.04 10.03C0.07 9.9 0.11 9.77 0.16 9.64C0.22 9.52 0.28 9.4 0.36 9.29C0.43 9.18 0.51 9.08 0.61 8.98C0.7 8.89 0.81 8.8 0.92 8.73C1.03 8.65 1.15 8.59 1.27 8.54C1.39 8.48 1.53 8.44 1.66 8.42C1.8 8.39 1.94 8.37 2.08 8.37L4.8 8.37C4.81 8.37 4.82 8.37 4.83 8.38L4.89 8.38C4.9 8.38 4.91 8.38 4.92 8.39L4.95 8.39C4.96 8.4 4.97 8.4 4.98 8.4C4.99 8.4 5 8.41 5 8.41C5.01 8.41 5.02 8.42 5.03 8.42C5.04 8.42 5.05 8.43 5.06 8.43C5.07 8.44 5.08 8.44 5.09 8.45L5.11 8.46C5.12 8.47 5.13 8.47 5.14 8.48C5.15 8.48 5.15 8.49 5.16 8.49C5.17 8.5 5.18 8.51 5.19 8.51C5.19 8.52 5.2 8.53 5.21 8.53C5.22 8.54 5.22 8.55 5.23 8.55C5.24 8.56 5.24 8.57 5.25 8.58C5.26 8.58 5.26 8.59 5.27 8.6L5.29 8.62C5.29 8.63 5.3 8.64 5.31 8.65C5.31 8.65 5.32 8.66 5.32 8.67L5.34 8.7C5.34 8.71 5.35 8.72 5.35 8.72C5.35 8.73 5.36 8.74 5.36 8.75C5.37 8.76 5.37 8.77 5.37 8.78C5.38 8.79 5.38 8.8 5.38 8.81C5.39 8.82 5.39 8.83 5.39 8.84C5.39 8.85 5.4 8.86 5.4 8.87L5.4 8.9L5.41 8.93L5.41 9.05L5.4 9.07L5.4 9.11C5.4 9.12 5.39 9.13 5.39 9.13C5.39 9.14 5.39 9.15 5.38 9.16C5.38 9.17 5.38 9.18 5.37 9.19C5.37 9.2 5.37 9.21 5.36 9.22C5.36 9.23 5.35 9.24 5.35 9.25C5.35 9.26 5.34 9.26 5.34 9.27L5.32 9.3C5.32 9.31 5.31 9.32 5.31 9.33C5.3 9.33 5.29 9.34 5.29 9.35C5.28 9.36 5.28 9.37 5.27 9.37C5.26 9.38 5.26 9.39 5.25 9.4C5.24 9.4 5.24 9.41 5.23 9.42C5.22 9.42 5.22 9.43 5.21 9.44C5.2 9.45 5.19 9.45 5.19 9.46C5.18 9.46 5.17 9.47 5.16 9.48C5.15 9.48 5.15 9.49 5.14 9.49C5.13 9.5 5.12 9.51 5.11 9.51L5.09 9.52C5.08 9.53 5.07 9.53 5.06 9.54C5.05 9.54 5.04 9.55 5.03 9.55C5.02 9.55 5.01 9.56 5 9.56C5 9.57 4.99 9.57 4.98 9.57C4.97 9.57 4.96 9.58 4.95 9.58L4.92 9.58C4.91 9.59 4.9 9.59 4.89 9.59L4.86 9.59C4.85 9.59 4.84 9.6 4.83 9.6L2.08 9.6C2.02 9.6 1.96 9.6 1.9 9.61C1.85 9.62 1.8 9.64 1.75 9.66C1.69 9.68 1.65 9.71 1.6 9.74C1.55 9.77 1.51 9.81 1.47 9.85C1.43 9.89 1.4 9.93 1.37 9.97C1.34 10.02 1.31 10.07 1.29 10.12C1.27 10.17 1.25 10.22 1.24 10.28C1.23 10.34 1.22 10.39 1.22 10.45L1.22 15.71C1.22 15.77 1.23 15.82 1.24 15.88C1.25 15.94 1.27 15.99 1.29 16.04C1.31 16.09 1.34 16.14 1.37 16.19C1.4 16.23 1.43 16.27 1.47 16.31C1.51 16.35 1.55 16.39 1.6 16.42C1.65 16.45 1.69 16.48 1.75 16.5C1.8 16.52 1.85 16.54 1.9 16.55C1.96 16.56 2.02 16.56 2.08 16.56L13.69 16.56C13.75 16.56 13.81 16.56 13.86 16.55C13.92 16.54 13.97 16.52 14.02 16.5C14.07 16.48 14.12 16.45 14.17 16.42C14.21 16.39 14.25 16.35 14.29 16.31C14.33 16.27 14.37 16.23 14.4 16.19C14.43 16.14 14.46 16.09 14.48 16.04C14.5 15.99 14.52 15.94 14.53 15.88C14.54 15.82 14.54 15.77 14.54 15.71L14.54 10.45C14.54 10.39 14.54 10.34 14.53 10.28C14.52 10.22 14.5 10.17 14.48 10.12C14.46 10.07 14.43 10.02 14.4 9.97C14.37 9.93 14.33 9.89 14.29 9.85C14.25 9.81 14.21 9.77 14.17 9.74C14.12 9.71 14.07 9.68 14.02 9.66C13.97 9.64 13.92 9.62 13.86 9.61C13.81 9.6 13.75 9.6 13.69 9.6L10.94 9.6C10.93 9.6 10.92 9.59 10.91 9.59L10.88 9.59C10.87 9.59 10.86 9.59 10.85 9.58L10.82 9.58C10.81 9.58 10.8 9.57 10.79 9.57C10.78 9.57 10.77 9.57 10.76 9.56C10.75 9.56 10.74 9.55 10.73 9.55C10.72 9.55 10.72 9.54 10.71 9.54C10.7 9.53 10.69 9.53 10.68 9.52L10.65 9.51L10.63 9.49C10.62 9.49 10.61 9.48 10.6 9.48C10.6 9.47 10.59 9.46 10.58 9.46C10.57 9.45 10.56 9.45 10.56 9.44L10.54 9.42L10.52 9.4C10.51 9.39 10.5 9.38 10.5 9.37C10.49 9.37 10.48 9.36 10.48 9.35C10.47 9.34 10.47 9.33 10.46 9.33C10.45 9.32 10.45 9.31 10.44 9.3L10.43 9.27C10.42 9.26 10.42 9.26 10.42 9.25C10.41 9.24 10.41 9.23 10.4 9.22C10.4 9.21 10.4 9.2 10.39 9.19C10.39 9.18 10.39 9.17 10.38 9.16L10.38 9.13C10.37 9.13 10.37 9.12 10.37 9.11C10.37 9.1 10.37 9.08 10.36 9.07L10.36 8.9C10.37 8.89 10.37 8.88 10.37 8.87C10.37 8.86 10.37 8.85 10.38 8.84L10.38 8.81C10.39 8.8 10.39 8.79 10.39 8.78C10.4 8.77 10.4 8.76 10.4 8.75C10.41 8.74 10.41 8.73 10.42 8.72C10.42 8.72 10.42 8.71 10.43 8.7L10.44 8.67C10.45 8.66 10.45 8.65 10.46 8.65C10.47 8.64 10.47 8.63 10.48 8.62C10.48 8.61 10.49 8.61 10.5 8.6C10.5 8.59 10.51 8.58 10.52 8.58C10.52 8.57 10.53 8.56 10.54 8.55L10.58 8.51C10.59 8.51 10.6 8.5 10.6 8.49C10.61 8.49 10.62 8.48 10.63 8.48C10.64 8.47 10.65 8.47 10.65 8.46L10.68 8.45C10.69 8.44 10.7 8.44 10.71 8.43C10.72 8.43 10.72 8.42 10.73 8.42C10.74 8.42 10.75 8.41 10.76 8.41C10.77 8.41 10.78 8.4 10.79 8.4C10.8 8.4 10.81 8.4 10.82 8.39L10.85 8.39C10.86 8.38 10.87 8.38 10.88 8.38L10.94 8.38C10.95 8.37 10.96 8.37 10.97 8.37L13.69 8.37C13.83 8.37 13.97 8.39 14.11 8.42Q14.305 8.45 14.5 8.54C14.62 8.59 14.74 8.65 14.85 8.73C14.96 8.8 15.06 8.89 15.16 8.98C15.25 9.08 15.34 9.18 15.41 9.29C15.49 9.4 15.55 9.52 15.6 9.64C15.66 9.77 15.7 9.9 15.73 10.03C15.75 10.17 15.77 10.31 15.77 10.45L15.77 15.71Z" /></g></g></svg>