<svg xmlns="http://www.w3.org/2000/svg" xmlns:xlink="http://www.w3.org/1999/xlink" width="22" height="22" viewBox="0 0 22 22" fill="none"><defs><rect id="path_0" x="0" y="0" width="22" height="22" /></defs><g opacity="1" transform="translate(0 0)  rotate(0 11 11)"><mask id="bg-mask-0" fill="white"><use xlink:href="#path_0"></use></mask><g mask="url(#bg-mask-0)" ><path id="并集" fill-rule="evenodd" style="fill:#000000" transform="translate(1.7111111111111104 1.344444444444445)  rotate(0 9.288888888888888 9.472222222222221)" opacity="1" d="M18.58 3.36L18.58 3.48L18.57 3.51L18.57 3.54C18.56 3.55 18.56 3.56 18.56 3.57L18.55 3.6C18.55 3.61 18.55 3.62 18.54 3.63C18.54 3.64 18.54 3.65 18.53 3.66C18.53 3.67 18.52 3.67 18.52 3.68C18.51 3.69 18.51 3.7 18.51 3.71L18.49 3.74C18.49 3.74 18.48 3.75 18.48 3.76C18.47 3.77 18.46 3.78 18.46 3.79C18.45 3.79 18.45 3.8 18.44 3.81C18.43 3.82 18.43 3.83 18.42 3.83C18.41 3.84 18.41 3.85 18.4 3.85L18.38 3.87L18.35 3.9C18.35 3.9 18.34 3.91 18.33 3.91C18.32 3.92 18.31 3.92 18.31 3.93C18.3 3.94 18.29 3.94 18.28 3.95L18.26 3.96C18.25 3.97 18.24 3.97 18.23 3.97C18.22 3.98 18.21 3.98 18.2 3.99C18.19 3.99 18.18 3.99 18.17 4C18.16 4 18.15 4 18.14 4.01L18.12 4.01C18.11 4.02 18.1 4.02 18.09 4.02C18.08 4.02 18.07 4.02 18.06 4.03L16.13 4.03L16.13 16.99C16.13 18.07 15.26 18.94 14.18 18.94L4.77 18.94C3.69 18.94 2.81 18.07 2.81 16.99L2.81 4.03L0.52 4.03C0.51 4.02 0.5 4.02 0.49 4.02C0.48 4.02 0.47 4.02 0.46 4.01L0.43 4.01C0.42 4 0.41 4 0.41 4C0.4 3.99 0.39 3.99 0.38 3.99C0.37 3.98 0.36 3.98 0.35 3.97C0.34 3.97 0.33 3.97 0.32 3.96L0.3 3.95C0.29 3.94 0.28 3.94 0.27 3.93L0.25 3.91C0.24 3.91 0.23 3.9 0.22 3.9C0.22 3.89 0.21 3.88 0.2 3.87C0.19 3.87 0.19 3.86 0.18 3.85C0.17 3.85 0.16 3.84 0.16 3.83C0.15 3.83 0.15 3.82 0.14 3.81C0.13 3.8 0.13 3.79 0.12 3.79C0.11 3.78 0.11 3.77 0.1 3.76C0.1 3.75 0.09 3.74 0.09 3.74L0.07 3.71C0.07 3.7 0.06 3.69 0.06 3.68C0.06 3.67 0.05 3.67 0.05 3.66C0.04 3.65 0.04 3.64 0.04 3.63C0.03 3.62 0.03 3.61 0.03 3.6C0.02 3.59 0.02 3.58 0.02 3.57C0.02 3.56 0.01 3.55 0.01 3.54L0.01 3.51L0 3.48L0 3.36L0.01 3.33L0.01 3.3C0.01 3.29 0.02 3.28 0.02 3.27C0.02 3.26 0.02 3.25 0.03 3.24C0.03 3.24 0.03 3.23 0.04 3.22C0.04 3.21 0.04 3.2 0.05 3.19C0.05 3.18 0.06 3.17 0.06 3.16C0.06 3.15 0.07 3.14 0.07 3.13L0.09 3.11C0.09 3.1 0.1 3.09 0.1 3.08L0.12 3.06C0.13 3.05 0.13 3.04 0.14 3.03C0.15 3.03 0.15 3.02 0.16 3.01C0.16 3 0.17 3 0.18 2.99L0.2 2.97C0.21 2.96 0.22 2.96 0.22 2.95C0.23 2.94 0.24 2.94 0.25 2.93C0.26 2.93 0.26 2.92 0.27 2.91C0.28 2.91 0.29 2.9 0.3 2.9L0.32 2.88C0.33 2.88 0.34 2.87 0.35 2.87C0.36 2.87 0.37 2.86 0.38 2.86C0.39 2.85 0.4 2.85 0.41 2.85C0.41 2.84 0.42 2.84 0.43 2.84C0.44 2.83 0.45 2.83 0.46 2.83C0.47 2.83 0.48 2.82 0.49 2.82L0.52 2.82L0.55 2.81L6.02 2.81C6.26 1.22 7.63 0 9.29 0C10.95 0 12.32 1.22 12.55 2.81L18.03 2.81L18.06 2.82L18.09 2.82C18.1 2.82 18.11 2.83 18.12 2.83C18.12 2.83 18.13 2.83 18.14 2.84C18.15 2.84 18.16 2.84 18.17 2.85C18.18 2.85 18.19 2.85 18.2 2.86C18.21 2.86 18.22 2.87 18.23 2.87C18.24 2.87 18.25 2.88 18.26 2.88L18.28 2.9C18.29 2.9 18.3 2.91 18.31 2.91C18.31 2.92 18.32 2.93 18.33 2.93C18.34 2.94 18.35 2.94 18.35 2.95C18.36 2.96 18.37 2.96 18.38 2.97C18.38 2.98 18.39 2.98 18.4 2.99L18.42 3.01C18.43 3.02 18.43 3.03 18.44 3.03C18.45 3.04 18.45 3.05 18.46 3.06C18.46 3.07 18.47 3.07 18.48 3.08C18.48 3.09 18.49 3.1 18.49 3.11L18.51 3.13C18.51 3.14 18.51 3.15 18.52 3.16C18.52 3.17 18.53 3.18 18.53 3.19C18.54 3.2 18.54 3.21 18.54 3.22C18.55 3.23 18.55 3.24 18.55 3.24L18.56 3.27C18.56 3.28 18.56 3.29 18.57 3.3L18.57 3.33L18.58 3.36ZM10.1 1.38C10.22 1.44 10.34 1.5 10.45 1.58C10.56 1.65 10.66 1.74 10.76 1.83C10.85 1.93 10.94 2.03 11.01 2.14C11.09 2.25 11.15 2.37 11.2 2.49C11.25 2.6 11.28 2.7 11.31 2.81L7.27 2.81C7.3 2.7 7.33 2.6 7.37 2.49C7.43 2.37 7.49 2.25 7.57 2.14C7.64 2.03 7.72 1.93 7.82 1.83C7.92 1.74 8.02 1.65 8.13 1.58C8.24 1.5 8.36 1.44 8.48 1.38C8.61 1.33 8.74 1.29 8.87 1.26C9.01 1.24 9.15 1.22 9.29 1.22C9.43 1.22 9.57 1.24 9.71 1.26C9.84 1.29 9.97 1.33 10.1 1.38ZM4.03 16.99C4.03 17.04 4.04 17.09 4.05 17.14C4.06 17.18 4.07 17.23 4.09 17.27C4.11 17.32 4.13 17.36 4.16 17.4C4.18 17.44 4.21 17.47 4.25 17.51C4.28 17.54 4.32 17.57 4.36 17.6C4.4 17.62 4.44 17.65 4.48 17.66C4.52 17.68 4.57 17.7 4.62 17.71C4.67 17.72 4.72 17.72 4.77 17.72L14.18 17.72C14.23 17.72 14.28 17.72 14.33 17.71C14.37 17.7 14.42 17.68 14.46 17.66C14.51 17.65 14.55 17.62 14.59 17.6C14.63 17.57 14.66 17.54 14.7 17.51C14.73 17.47 14.76 17.44 14.79 17.4C14.81 17.36 14.84 17.32 14.85 17.27C14.87 17.23 14.89 17.18 14.9 17.14C14.91 17.09 14.91 17.04 14.91 16.99L14.91 4.03L4.03 4.03L4.03 16.99Z" /></g></g></svg>