<svg xmlns="http://www.w3.org/2000/svg" xmlns:xlink="http://www.w3.org/1999/xlink" width="22" height="22" viewBox="0 0 22 22" fill="none"><defs><rect id="path_0" x="0" y="0" width="22" height="22" /></defs><g opacity="1" transform="translate(0 0)  rotate(0 11 11)"><mask id="bg-mask-0" fill="white"><use xlink:href="#path_0"></use></mask><g mask="url(#bg-mask-0)" ><path id="并集" fill-rule="evenodd" style="fill:#000000" transform="translate(0.5047766769835382 1.7355555555555606)  rotate(0 10.495169406467012 9.264539930555554)" opacity="1" d="M14.75 5.04C14.73 5.04 14.71 5.05 14.69 5.06C14.68 5.06 14.66 5.07 14.64 5.08C14.62 5.09 14.6 5.1 14.59 5.11C14.57 5.12 14.55 5.13 14.54 5.14C14.52 5.16 14.51 5.17 14.49 5.18C14.48 5.2 14.46 5.21 14.45 5.23C14.44 5.24 14.43 5.26 14.41 5.27C14.4 5.29 14.39 5.31 14.38 5.32C14.38 5.33 14.37 5.34 14.37 5.35C14.36 5.36 14.36 5.37 14.35 5.38C14.35 5.38 14.35 5.39 14.34 5.4C14.34 5.41 14.33 5.42 14.33 5.43C14.33 5.44 14.33 5.45 14.32 5.46L14.32 5.49C14.31 5.5 14.31 5.51 14.31 5.52L14.31 5.55C14.3 5.56 14.3 5.57 14.3 5.58L14.3 5.7C14.31 5.71 14.31 5.72 14.31 5.73L14.31 5.76L14.32 5.79C14.32 5.8 14.33 5.81 14.33 5.82C14.33 5.83 14.34 5.83 14.34 5.84C14.34 5.85 14.35 5.86 14.35 5.87C14.36 5.88 14.36 5.89 14.36 5.9C14.37 5.91 14.37 5.92 14.38 5.92C14.38 5.93 14.39 5.94 14.39 5.95C14.4 5.96 14.4 5.97 14.41 5.98C14.42 5.98 14.42 5.99 14.43 6C14.43 6.01 14.44 6.02 14.45 6.02C14.45 6.03 14.46 6.04 14.47 6.05L14.49 6.07L14.51 6.09C14.52 6.09 14.52 6.1 14.53 6.11L14.56 6.13C14.56 6.13 14.57 6.14 14.58 6.14C14.59 6.15 14.6 6.15 14.61 6.16L18.09 8.15C18.1 8.16 18.1 8.17 18.11 8.17C18.12 8.17 18.13 8.18 18.14 8.18C18.15 8.19 18.16 8.19 18.17 8.19C18.18 8.2 18.19 8.2 18.2 8.2C18.21 8.21 18.22 8.21 18.22 8.21C18.23 8.22 18.24 8.22 18.25 8.22C18.26 8.22 18.27 8.22 18.28 8.23L18.34 8.23C18.35 8.23 18.36 8.23 18.37 8.24L18.4 8.24C18.41 8.24 18.42 8.24 18.43 8.23L18.49 8.23C18.5 8.23 18.51 8.22 18.52 8.22L18.55 8.22C18.56 8.21 18.57 8.21 18.58 8.21C18.59 8.2 18.6 8.2 18.61 8.2C18.62 8.19 18.63 8.19 18.64 8.19C18.64 8.18 18.65 8.18 18.66 8.17C18.67 8.17 18.68 8.16 18.69 8.16C18.7 8.15 18.71 8.15 18.71 8.14C18.72 8.14 18.73 8.13 18.74 8.13C18.75 8.12 18.76 8.12 18.76 8.11C18.77 8.1 18.78 8.1 18.79 8.09L18.81 8.07L18.83 8.05L18.85 8.03C18.86 8.02 18.86 8.01 18.87 8L18.89 7.98C18.89 7.97 18.9 7.96 18.9 7.96C18.91 7.95 18.92 7.94 18.92 7.93L20.91 4.49C20.91 4.48 20.92 4.47 20.92 4.46C20.93 4.45 20.93 4.44 20.94 4.43L20.95 4.41C20.95 4.4 20.95 4.39 20.96 4.38C20.96 4.37 20.96 4.36 20.97 4.35L20.97 4.32C20.98 4.31 20.98 4.3 20.98 4.29L20.98 4.26C20.99 4.25 20.99 4.24 20.99 4.23L20.99 4.11C20.99 4.1 20.98 4.09 20.98 4.08L20.98 4.05C20.97 4.04 20.97 4.03 20.97 4.02C20.97 4.01 20.96 4 20.96 4C20.96 3.99 20.95 3.98 20.95 3.97C20.95 3.96 20.94 3.95 20.94 3.94C20.94 3.93 20.93 3.92 20.93 3.91C20.92 3.9 20.92 3.89 20.91 3.88L20.9 3.86C20.89 3.85 20.89 3.84 20.88 3.83L20.86 3.81C20.86 3.8 20.85 3.79 20.84 3.79C20.84 3.78 20.83 3.77 20.82 3.76L20.8 3.74L20.78 3.72L20.74 3.68C20.73 3.68 20.72 3.67 20.71 3.67C20.7 3.66 20.69 3.66 20.68 3.65C20.68 3.65 20.67 3.64 20.66 3.64C20.65 3.63 20.64 3.63 20.63 3.62L20.6 3.61C20.59 3.61 20.58 3.61 20.57 3.6C20.57 3.6 20.56 3.6 20.55 3.59L20.52 3.59C20.51 3.58 20.5 3.58 20.49 3.58L20.46 3.58C20.45 3.57 20.44 3.57 20.43 3.57L20.31 3.57C20.3 3.58 20.29 3.58 20.28 3.58L20.25 3.58C20.24 3.59 20.23 3.59 20.22 3.59C20.21 3.59 20.2 3.6 20.19 3.6C20.18 3.6 20.17 3.61 20.16 3.61C20.15 3.61 20.14 3.62 20.14 3.62C20.13 3.63 20.12 3.63 20.11 3.63C20.1 3.64 20.09 3.64 20.08 3.65L20.06 3.66C20.05 3.67 20.04 3.67 20.03 3.68C20.02 3.69 20.01 3.69 20.01 3.7C20 3.7 19.99 3.71 19.98 3.72L19.96 3.74C19.95 3.74 19.95 3.75 19.94 3.76C19.93 3.76 19.93 3.77 19.92 3.78L19.9 3.8L19.88 3.83C19.88 3.83 19.87 3.84 19.87 3.85C19.86 3.86 19.85 3.87 19.85 3.88L18.63 5.98C18.62 5.93 18.6 5.87 18.58 5.81C18.53 5.64 18.47 5.47 18.41 5.3C18.34 5.1 18.26 4.91 18.17 4.72C18.07 4.51 17.97 4.3 17.86 4.1C17.74 3.88 17.61 3.66 17.47 3.46C17.32 3.23 17.15 3.02 16.98 2.81C16.8 2.59 16.6 2.38 16.4 2.19C16.18 1.98 15.94 1.78 15.7 1.6C15.44 1.41 15.17 1.23 14.89 1.07C14.59 0.91 14.27 0.76 13.95 0.63C13.61 0.5 13.25 0.38 12.88 0.29C12.1 0.1 11.26 0 10.36 0C9.45 0 8.61 0.1 7.81 0.29C7.44 0.38 7.08 0.5 6.74 0.63C6.41 0.76 6.09 0.9 5.78 1.07C5.49 1.23 5.21 1.4 4.95 1.59C4.7 1.77 4.46 1.97 4.23 2.18C4.01 2.37 3.81 2.58 3.62 2.8C3.44 3 3.27 3.22 3.1 3.44C2.96 3.65 2.82 3.86 2.68 4.08C2.56 4.28 2.45 4.49 2.34 4.7C2.25 4.89 2.16 5.08 2.08 5.27C2.01 5.44 1.94 5.61 1.88 5.79C1.83 5.94 1.78 6.08 1.74 6.23C1.71 6.34 1.67 6.46 1.65 6.57C1.63 6.65 1.61 6.72 1.6 6.79C1.59 6.83 1.58 6.86 1.58 6.89C1.58 6.91 1.57 6.93 1.57 6.95L1.57 7.01C1.57 7.03 1.57 7.05 1.58 7.07C1.58 7.09 1.58 7.11 1.59 7.13C1.59 7.15 1.6 7.16 1.6 7.18L1.63 7.24C1.63 7.26 1.64 7.28 1.65 7.29C1.66 7.31 1.67 7.33 1.69 7.34C1.7 7.36 1.71 7.37 1.72 7.39L1.76 7.43C1.78 7.45 1.79 7.46 1.81 7.47C1.83 7.48 1.84 7.5 1.86 7.51C1.88 7.52 1.89 7.53 1.91 7.53L1.97 7.56C1.99 7.57 2 7.57 2.02 7.58C2.04 7.58 2.06 7.59 2.08 7.59L2.11 7.59C2.12 7.6 2.13 7.6 2.14 7.6L2.23 7.6C2.24 7.6 2.25 7.59 2.26 7.59L2.29 7.59C2.3 7.59 2.31 7.59 2.32 7.58L2.35 7.58C2.36 7.57 2.37 7.57 2.38 7.57C2.39 7.56 2.4 7.56 2.41 7.56L2.43 7.54C2.44 7.54 2.45 7.54 2.46 7.53C2.47 7.53 2.48 7.52 2.49 7.52L2.51 7.5C2.52 7.5 2.53 7.49 2.54 7.48C2.55 7.48 2.55 7.47 2.56 7.47L2.58 7.45C2.59 7.44 2.6 7.43 2.61 7.43C2.61 7.42 2.62 7.41 2.63 7.41C2.63 7.4 2.64 7.39 2.65 7.38L2.67 7.36C2.67 7.35 2.68 7.34 2.68 7.34C2.69 7.33 2.7 7.32 2.7 7.31C2.71 7.3 2.71 7.29 2.72 7.29C2.72 7.28 2.72 7.27 2.73 7.26C2.73 7.25 2.74 7.24 2.74 7.23C2.75 7.22 2.75 7.21 2.75 7.2C2.76 7.2 2.76 7.19 2.76 7.18C2.77 7.17 2.77 7.16 2.77 7.15C2.77 7.14 2.78 7.13 2.78 7.12L2.78 7.09C2.79 7.09 2.79 7.08 2.79 7.08L2.79 7.04C2.81 6.98 2.82 6.92 2.83 6.86C2.86 6.77 2.88 6.67 2.91 6.57C2.95 6.45 2.99 6.32 3.03 6.19L3.21 5.74C3.28 5.57 3.36 5.41 3.44 5.24C3.53 5.06 3.63 4.88 3.73 4.71C3.85 4.52 3.97 4.33 4.09 4.16Q4.525 3.56 5.05 3.08C5.45 2.71 5.89 2.4 6.37 2.14Q7.165 1.705 8.11 1.48C8.8 1.31 9.55 1.22 10.36 1.22C11.16 1.22 11.9 1.31 12.59 1.48C13.21 1.63 13.77 1.85 14.29 2.14Q14.98 2.53 15.55 3.07C15.89 3.39 16.19 3.75 16.46 4.14C16.57 4.32 16.69 4.5 16.79 4.69C16.89 4.86 16.97 5.04 17.06 5.22C17.13 5.39 17.2 5.55 17.26 5.72C17.32 5.87 17.37 6.02 17.41 6.17C17.44 6.25 17.46 6.32 17.48 6.4L15.22 5.1L15.16 5.07C15.14 5.06 15.12 5.05 15.11 5.05C15.09 5.04 15.07 5.04 15.05 5.03C15.03 5.03 15.01 5.02 14.99 5.02L14.81 5.02C14.79 5.03 14.77 5.03 14.75 5.04ZM8.14 18.24C7.77 18.15 7.41 18.03 7.07 17.9C6.75 17.77 6.44 17.62 6.14 17.46C5.85 17.3 5.58 17.12 5.32 16.93C5.08 16.75 4.85 16.55 4.63 16.34C4.42 16.15 4.22 15.94 4.04 15.72C3.87 15.51 3.71 15.3 3.56 15.07C3.42 14.87 3.28 14.65 3.16 14.43C3.05 14.23 2.95 14.02 2.85 13.81C2.77 13.62 2.69 13.43 2.61 13.23C2.56 13.09 2.51 12.94 2.46 12.79L1.13 14.92C1.12 14.93 1.12 14.94 1.11 14.95C1.11 14.96 1.1 14.96 1.1 14.97L1.08 14.99C1.07 15 1.06 15.01 1.06 15.02C1.05 15.03 1.04 15.03 1.04 15.04C1.03 15.04 1.02 15.05 1.01 15.06C1.01 15.07 1 15.07 0.99 15.08C0.98 15.08 0.97 15.09 0.97 15.1C0.96 15.1 0.95 15.11 0.94 15.11C0.93 15.12 0.92 15.12 0.91 15.13L0.89 15.14C0.88 15.15 0.87 15.15 0.86 15.16C0.85 15.16 0.84 15.16 0.83 15.17C0.83 15.17 0.82 15.17 0.81 15.18C0.8 15.18 0.79 15.18 0.78 15.19L0.75 15.19C0.74 15.2 0.73 15.2 0.72 15.2L0.69 15.2C0.68 15.21 0.67 15.21 0.66 15.21L0.54 15.21C0.53 15.2 0.52 15.2 0.51 15.2C0.5 15.2 0.49 15.2 0.48 15.19L0.45 15.19C0.44 15.19 0.43 15.18 0.42 15.18C0.41 15.18 0.4 15.17 0.39 15.17C0.39 15.17 0.38 15.16 0.37 15.16L0.34 15.15C0.33 15.14 0.32 15.14 0.31 15.13C0.3 15.13 0.3 15.12 0.29 15.12C0.28 15.11 0.27 15.11 0.26 15.1L0.24 15.08L0.21 15.06L0.19 15.04C0.18 15.04 0.18 15.03 0.17 15.02L0.15 15C0.14 14.99 0.14 14.98 0.13 14.98C0.13 14.97 0.12 14.96 0.11 14.95C0.11 14.94 0.1 14.94 0.1 14.93C0.09 14.92 0.09 14.91 0.08 14.9L0.07 14.88C0.06 14.87 0.06 14.86 0.05 14.85C0.05 14.84 0.05 14.83 0.04 14.82C0.04 14.81 0.03 14.8 0.03 14.79C0.03 14.78 0.03 14.77 0.02 14.76C0.02 14.75 0.02 14.74 0.01 14.73L0.01 14.71C0.01 14.7 0.01 14.69 0 14.68L0 14.53C0.01 14.52 0.01 14.51 0.01 14.5L0.01 14.47C0.02 14.46 0.02 14.45 0.02 14.44C0.02 14.43 0.03 14.42 0.03 14.41C0.03 14.4 0.04 14.39 0.04 14.38C0.04 14.37 0.05 14.36 0.05 14.35L0.06 14.33C0.07 14.32 0.07 14.31 0.08 14.3C0.08 14.29 0.09 14.28 0.09 14.27L2.2 10.9C2.21 10.9 2.21 10.89 2.22 10.88C2.23 10.87 2.23 10.86 2.24 10.85L2.26 10.83C2.26 10.82 2.27 10.82 2.28 10.81C2.28 10.8 2.29 10.8 2.3 10.79L2.32 10.77L2.34 10.75C2.35 10.74 2.36 10.74 2.37 10.73L2.39 10.71C2.4 10.71 2.41 10.7 2.42 10.7C2.43 10.69 2.44 10.69 2.44 10.68C2.45 10.68 2.46 10.67 2.47 10.67C2.48 10.67 2.49 10.66 2.5 10.66C2.51 10.66 2.52 10.65 2.53 10.65C2.54 10.65 2.55 10.64 2.55 10.64C2.57 10.64 2.57 10.64 2.58 10.63L2.61 10.63C2.62 10.62 2.63 10.62 2.64 10.62L2.79 10.62C2.8 10.62 2.81 10.62 2.82 10.63L2.85 10.63C2.86 10.63 2.87 10.64 2.88 10.64C2.89 10.64 2.9 10.64 2.91 10.65C2.92 10.65 2.93 10.65 2.94 10.66C2.95 10.66 2.96 10.66 2.97 10.67C2.98 10.67 2.98 10.68 2.99 10.68C3 10.69 3.01 10.69 3.02 10.69C3.03 10.7 3.04 10.7 3.05 10.71L6.45 12.83C6.46 12.84 6.47 12.84 6.48 12.85L6.5 12.87L6.52 12.88C6.53 12.89 6.54 12.9 6.55 12.9L6.59 12.95C6.59 12.96 6.6 12.96 6.61 12.97C6.61 12.98 6.62 12.99 6.62 13C6.63 13 6.64 13.01 6.64 13.02C6.65 13.03 6.65 13.04 6.66 13.04C6.66 13.05 6.67 13.06 6.67 13.07C6.68 13.08 6.68 13.09 6.68 13.1C6.69 13.11 6.69 13.12 6.7 13.13C6.7 13.14 6.7 13.15 6.71 13.15C6.71 13.16 6.71 13.17 6.72 13.18L6.72 13.21L6.73 13.24L6.73 13.27C6.73 13.28 6.74 13.29 6.74 13.3L6.74 13.39C6.74 13.4 6.74 13.41 6.73 13.42L6.73 13.45C6.73 13.46 6.73 13.47 6.72 13.48L6.72 13.51C6.72 13.52 6.71 13.53 6.71 13.54C6.71 13.55 6.7 13.56 6.7 13.57C6.7 13.58 6.69 13.58 6.69 13.59C6.68 13.6 6.68 13.61 6.67 13.62C6.67 13.63 6.67 13.64 6.66 13.65C6.66 13.66 6.65 13.67 6.65 13.67C6.64 13.69 6.62 13.71 6.61 13.72C6.6 13.74 6.59 13.75 6.57 13.77C6.56 13.78 6.55 13.8 6.53 13.81C6.51 13.82 6.5 13.84 6.48 13.85C6.47 13.86 6.45 13.87 6.43 13.88C6.42 13.89 6.4 13.9 6.38 13.91C6.36 13.91 6.34 13.92 6.32 13.93C6.3 13.94 6.29 13.94 6.27 13.95C6.25 13.95 6.23 13.95 6.21 13.96L6.09 13.96C6.07 13.96 6.05 13.96 6.03 13.95C6.01 13.95 5.99 13.95 5.97 13.94C5.95 13.94 5.93 13.93 5.91 13.92C5.89 13.91 5.88 13.91 5.86 13.9L5.8 13.87L3.66 12.54C3.69 12.63 3.73 12.72 3.76 12.81C3.82 12.98 3.89 13.14 3.96 13.31C4.05 13.49 4.14 13.67 4.23 13.84C4.34 14.03 4.45 14.21 4.57 14.39C4.83 14.78 5.14 15.14 5.47 15.46Q6.04 16 6.73 16.39C7.25 16.68 7.82 16.9 8.43 17.05C9.12 17.22 9.86 17.31 10.67 17.31C11.47 17.31 12.22 17.22 12.92 17.05C13.54 16.9 14.12 16.68 14.66 16.39C15.13 16.13 15.57 15.81 15.97 15.45C16.32 15.13 16.64 14.77 16.93 14.37C17.06 14.2 17.18 14.01 17.29 13.82C17.4 13.65 17.49 13.47 17.58 13.29C17.67 13.12 17.74 12.95 17.81 12.78C17.88 12.64 17.93 12.49 17.99 12.33C18.03 12.21 18.07 12.08 18.11 11.96C18.14 11.86 18.16 11.76 18.19 11.67C18.2 11.61 18.22 11.55 18.23 11.49C18.23 11.48 18.23 11.46 18.24 11.45L18.24 11.41C18.24 11.4 18.25 11.39 18.25 11.38C18.25 11.37 18.26 11.36 18.26 11.35C18.26 11.34 18.27 11.33 18.27 11.33C18.27 11.32 18.28 11.31 18.28 11.3C18.28 11.29 18.29 11.28 18.29 11.27C18.3 11.26 18.3 11.25 18.31 11.24C18.31 11.23 18.32 11.23 18.32 11.22C18.33 11.21 18.33 11.2 18.34 11.19C18.34 11.18 18.35 11.18 18.36 11.17C18.36 11.16 18.37 11.15 18.37 11.15L18.4 11.12L18.42 11.1L18.44 11.08L18.46 11.06C18.47 11.06 18.48 11.05 18.48 11.04C18.49 11.04 18.5 11.03 18.51 11.03C18.52 11.02 18.53 11.02 18.54 11.01L18.56 11C18.57 10.99 18.58 10.99 18.59 10.98C18.6 10.98 18.61 10.98 18.62 10.97C18.63 10.97 18.63 10.97 18.64 10.96C18.65 10.96 18.66 10.96 18.67 10.95L18.7 10.95C18.71 10.94 18.72 10.94 18.73 10.94L18.76 10.94C18.77 10.93 18.78 10.93 18.79 10.93L18.91 10.93C18.92 10.94 18.93 10.94 18.94 10.94C18.96 10.94 18.98 10.95 19 10.95C19.02 10.96 19.04 10.96 19.06 10.97C19.07 10.98 19.09 10.98 19.11 10.99C19.13 11 19.15 11.01 19.16 11.02C19.18 11.03 19.2 11.04 19.21 11.06C19.23 11.07 19.24 11.08 19.26 11.1C19.27 11.11 19.29 11.12 19.3 11.14C19.31 11.15 19.33 11.17 19.34 11.19C19.35 11.2 19.36 11.22 19.37 11.24C19.38 11.25 19.39 11.27 19.4 11.29L19.42 11.34C19.43 11.36 19.43 11.38 19.44 11.4C19.44 11.42 19.44 11.44 19.45 11.46L19.45 11.58C19.45 11.6 19.45 11.62 19.44 11.64C19.44 11.67 19.43 11.7 19.43 11.73C19.41 11.8 19.39 11.88 19.37 11.96C19.35 12.07 19.32 12.19 19.28 12.3C19.24 12.45 19.19 12.59 19.14 12.74C19.08 12.91 19.01 13.09 18.94 13.26C18.86 13.45 18.77 13.64 18.68 13.83C18.57 14.04 18.46 14.25 18.34 14.45C18.21 14.67 18.07 14.88 17.92 15.09C17.76 15.31 17.59 15.52 17.41 15.73C17.21 15.95 17.01 16.16 16.79 16.35C16.56 16.56 16.32 16.76 16.07 16.94C15.81 17.13 15.53 17.3 15.24 17.46C14.93 17.62 14.62 17.77 14.29 17.9C13.94 18.03 13.58 18.15 13.21 18.24C12.42 18.43 11.57 18.53 10.67 18.53C9.77 18.53 8.92 18.43 8.14 18.24Z" /></g></g></svg>