<svg xmlns="http://www.w3.org/2000/svg" xmlns:xlink="http://www.w3.org/1999/xlink" width="22" height="22" viewBox="0 0 22 22" fill="none"><defs><rect id="path_0" x="0" y="0" width="22" height="22" /></defs><g opacity="1" transform="translate(0 0)  rotate(0 11 11)"><mask id="bg-mask-0" fill="white"><use xlink:href="#path_0"></use></mask><g mask="url(#bg-mask-0)" ><path id="并集" fill-rule="evenodd" style="fill:#000000" transform="translate(1.344444444444445 1.924233009901815)  rotate(0 8.666500345865884 9.365665690104144)" opacity="1" d="M5.64,16.49C5.4,16.36 5.17,16.22 4.94,16.07C4.72,15.92 4.5,15.76 4.29,15.58C4.08,15.41 3.88,15.23 3.69,15.04C3.5,14.85 3.32,14.65 3.15,14.44C2.97,14.23 2.81,14.01 2.66,13.79C2.51,13.56 2.37,13.33 2.24,13.09C2.11,12.85 1.99,12.61 1.88,12.36C1.78,12.1 1.68,11.85 1.6,11.58C1.52,11.32 1.45,11.05 1.39,10.78C1.34,10.5 1.29,10.22 1.27,9.94C1.24,9.65 1.22,9.37 1.22,9.08C1.22,8.79 1.24,8.5 1.27,8.21C1.29,7.93 1.34,7.65 1.39,7.37C1.45,7.1 1.52,6.83 1.6,6.57C1.68,6.3 1.78,6.05 1.88,5.79C1.99,5.54 2.11,5.3 2.24,5.06C2.37,4.82 2.51,4.59 2.66,4.36C2.81,4.14 2.97,3.92 3.15,3.71C3.32,3.5 3.5,3.3 3.69,3.11C3.88,2.92 4.08,2.74 4.29,2.57C4.5,2.4 4.72,2.23 4.94,2.08C5.17,1.93 5.4,1.79 5.64,1.66C5.88,1.53 6.12,1.41 6.37,1.3C6.46,1.27 6.55,1.23 6.65,1.19C6.89,1.12 7.07,0.89 7.07,0.61C7.07,0.27 6.8,0 6.46,0C6.38,0 6.29,0.02 6.22,0.05C2.58,1.43 0,4.95 0,9.08C0,14.41 4.32,18.73 9.66,18.73C12.7,18.73 15.42,17.32 17.19,15.12C17.2,15.11 17.2,15.1 17.21,15.09C17.22,15.08 17.22,15.08 17.23,15.07L17.22,15.07C17.29,14.97 17.33,14.85 17.33,14.72C17.33,14.38 17.06,14.11 16.72,14.11C16.51,14.11 16.33,14.21 16.22,14.37C16.2,14.4 16.18,14.42 16.16,14.44C15.99,14.65 15.81,14.85 15.62,15.04C15.43,15.23 15.23,15.41 15.02,15.58C14.81,15.76 14.59,15.92 14.37,16.07C14.14,16.22 13.91,16.36 13.67,16.49C13.43,16.62 13.19,16.74 12.94,16.85C12.68,16.95 12.43,17.05 12.16,17.13C11.9,17.21 11.63,17.28 11.36,17.34C11.08,17.39 10.8,17.44 10.52,17.47C10.23,17.49 9.95,17.51 9.66,17.51C9.37,17.51 9.08,17.49 8.79,17.47C8.51,17.44 8.23,17.39 7.95,17.34C7.68,17.28 7.41,17.21 7.15,17.13C6.88,17.05 6.63,16.95 6.37,16.85C6.12,16.74 5.88,16.62 5.64,16.49Z " /></g></g></svg>