<svg xmlns="http://www.w3.org/2000/svg" xmlns:xlink="http://www.w3.org/1999/xlink" width="22" height="22" viewBox="0 0 22 22" fill="none"><defs><rect id="path_0" x="0" y="0" width="22" height="22" /></defs><g opacity="1" transform="translate(0 0)  rotate(0 11 11)"><mask id="bg-mask-0" fill="white"><use xlink:href="#path_0"></use></mask><g mask="url(#bg-mask-0)" ><path id="并集" fill-rule="evenodd" style="fill:#000000" transform="translate(1.4666666666666668 2.68888888888889)  rotate(0 9.594444444444445 9.044444444444444)" opacity="1" d="M10.93 8.94L10.93 8.43L10.88 8.43C10.07 8.43 9.41 7.78 9.41 6.97L9.41 1.47C9.41 0.66 10.07 0 10.88 0L17.72 0C18.53 0 19.19 0.66 19.19 1.47L19.19 6.97C19.19 7.78 18.53 8.43 17.72 8.43L14.68 8.43L12.93 9.87C12.57 10.17 12.06 10.23 11.64 10.03C11.21 9.84 10.94 9.41 10.93 8.94ZM12.15 8.93L14.24 7.21L17.72 7.21C17.76 7.21 17.79 7.21 17.82 7.19C17.85 7.18 17.87 7.16 17.9 7.14C17.92 7.12 17.94 7.09 17.95 7.06C17.96 7.03 17.97 7 17.97 6.97L17.97 1.47C17.97 1.43 17.96 1.4 17.95 1.37C17.94 1.34 17.92 1.32 17.9 1.29C17.87 1.27 17.85 1.25 17.82 1.24C17.79 1.23 17.76 1.22 17.72 1.22L10.88 1.22C10.84 1.22 10.81 1.23 10.78 1.24C10.75 1.25 10.73 1.27 10.7 1.29C10.68 1.32 10.66 1.34 10.65 1.37C10.64 1.4 10.63 1.43 10.63 1.47L10.63 6.97C10.63 7 10.64 7.03 10.65 7.06C10.66 7.09 10.68 7.12 10.7 7.14C10.73 7.16 10.75 7.18 10.78 7.19C10.81 7.21 10.84 7.21 10.88 7.21L12.14 7.21L12.15 8.93ZM5.81 10.39C4.08 10.39 2.69 8.99 2.69 7.27C2.69 5.55 4.08 4.16 5.81 4.16C7.53 4.16 8.92 5.55 8.92 7.27C8.92 8.99 7.53 10.39 5.81 10.39ZM4.75 5.7C4.65 5.77 4.55 5.85 4.47 5.93C4.38 6.02 4.3 6.11 4.23 6.21C4.17 6.32 4.11 6.42 4.06 6.54C4.01 6.65 3.97 6.77 3.95 6.89C3.92 7.01 3.91 7.14 3.91 7.27C3.91 7.4 3.92 7.53 3.95 7.65C3.97 7.78 4.01 7.89 4.06 8.01C4.11 8.12 4.17 8.23 4.23 8.33C4.3 8.43 4.38 8.52 4.47 8.61C4.55 8.7 4.65 8.78 4.75 8.84C4.85 8.91 4.96 8.97 5.07 9.02C5.18 9.07 5.3 9.1 5.42 9.13C5.55 9.15 5.68 9.17 5.81 9.17C5.94 9.17 6.06 9.15 6.19 9.13C6.31 9.1 6.43 9.07 6.54 9.02C6.66 8.97 6.76 8.91 6.86 8.84C6.96 8.78 7.06 8.7 7.15 8.61C7.23 8.52 7.31 8.43 7.38 8.33C7.45 8.23 7.5 8.12 7.55 8.01C7.6 7.89 7.64 7.78 7.66 7.65C7.69 7.53 7.7 7.4 7.7 7.27C7.7 7.14 7.69 7.01 7.66 6.89C7.64 6.77 7.6 6.65 7.55 6.54C7.5 6.42 7.45 6.32 7.38 6.21C7.31 6.11 7.23 6.02 7.15 5.93C7.06 5.85 6.96 5.77 6.86 5.7C6.76 5.63 6.66 5.57 6.54 5.53C6.43 5.48 6.31 5.44 6.19 5.42C6.06 5.39 5.94 5.38 5.81 5.38C5.68 5.38 5.55 5.39 5.42 5.42C5.3 5.44 5.18 5.48 5.07 5.53C4.96 5.57 4.85 5.63 4.75 5.7ZM11.36 17.84C11.2 18 10.98 18.09 10.76 18.09L0.86 18.09C0.63 18.09 0.41 18 0.25 17.84C0.09 17.68 0 17.46 0 17.23L0 16.38C0.17 13.45 2.7 11.12 5.81 11.12C8.91 11.12 11.44 13.45 11.61 16.38L11.61 17.23C11.61 17.46 11.52 17.68 11.36 17.84ZM1.22 16.47L1.22 16.68C1.22 16.78 1.31 16.87 1.41 16.87L10.2 16.87C10.3 16.87 10.39 16.78 10.39 16.68L10.39 16.45C10.37 16.17 10.33 15.89 10.26 15.62C10.19 15.36 10.09 15.11 9.97 14.86C9.85 14.62 9.71 14.38 9.54 14.16C9.38 13.95 9.19 13.74 8.99 13.56C8.78 13.37 8.56 13.2 8.32 13.05C8.08 12.9 7.82 12.77 7.55 12.67C7.28 12.56 7 12.48 6.71 12.43C6.41 12.37 6.11 12.34 5.81 12.34C5.5 12.34 5.2 12.37 4.9 12.43C4.61 12.48 4.33 12.56 4.06 12.67C3.79 12.77 3.54 12.9 3.29 13.05Q2.93 13.275 2.63 13.56C2.42 13.74 2.23 13.95 2.07 14.16C1.9 14.38 1.76 14.62 1.64 14.86C1.52 15.11 1.43 15.36 1.36 15.62C1.28 15.89 1.24 16.17 1.23 16.45C1.23 16.45 1.22 16.46 1.22 16.47Z" /></g></g></svg>