<svg xmlns="http://www.w3.org/2000/svg" xmlns:xlink="http://www.w3.org/1999/xlink" width="22" height="22" viewBox="0 0 22 22" fill="none"><defs><rect id="path_0" x="0" y="0" width="22" height="22" /></defs><g opacity="1" transform="translate(0 0)  rotate(0 11 11)"><mask id="bg-mask-0" fill="white"><use xlink:href="#path_0"></use></mask><g mask="url(#bg-mask-0)" ><path id="并集" fill-rule="evenodd" style="fill:#000000" transform="translate(2.3855966188731017 3.172456093957596)  rotate(0 8.756610700819227 7.344155714246962)" opacity="1" d="M2.25 7.34L0.08 1.66C-0.09 1.2 0.02 0.69 0.37 0.35C0.71 0.01 1.23 -0.09 1.68 0.09L16.74 6.21C16.77 6.22 16.81 6.24 16.85 6.26C17.14 6.4 17.36 6.67 17.46 6.99C17.49 7.11 17.51 7.22 17.51 7.34C17.51 7.46 17.49 7.58 17.46 7.69C17.36 8.02 17.14 8.28 16.85 8.43C16.81 8.45 16.77 8.47 16.74 8.48L1.68 14.6C1.23 14.78 0.71 14.68 0.37 14.34C0.02 14 -0.09 13.49 0.08 13.03L2.25 7.34ZM11.23 7.79C11.22 7.8 11.21 7.8 11.21 7.81L11.19 7.83C11.18 7.84 11.17 7.85 11.16 7.85C11.16 7.86 11.15 7.87 11.14 7.87C11.13 7.88 11.12 7.88 11.12 7.89C11.11 7.9 11.1 7.9 11.09 7.91C11.08 7.91 11.08 7.92 11.07 7.92L11.04 7.94C11.03 7.94 11.02 7.95 11.01 7.95C11.01 7.96 11 7.96 10.99 7.96C10.98 7.97 10.97 7.97 10.96 7.98L10.93 7.98C10.92 7.99 10.91 7.99 10.9 7.99C10.89 7.99 10.88 8 10.87 8L10.84 8L10.81 8.01L3.3 8.01L1.22 13.47L16.28 7.35L16.29 7.34L16.28 7.34L1.22 1.22L3.34 6.79L10.84 6.79C10.85 6.8 10.86 6.8 10.87 6.8C10.88 6.8 10.89 6.8 10.9 6.81C10.91 6.81 10.92 6.81 10.93 6.82L10.96 6.82C10.97 6.83 10.98 6.83 10.99 6.84C11 6.84 11.01 6.84 11.01 6.85C11.02 6.85 11.03 6.86 11.04 6.86L11.07 6.88C11.08 6.88 11.08 6.89 11.09 6.89C11.1 6.9 11.11 6.9 11.12 6.91L11.14 6.93C11.15 6.93 11.16 6.94 11.16 6.95C11.17 6.95 11.18 6.96 11.19 6.97L11.21 6.99C11.21 7 11.22 7 11.23 7.01C11.23 7.02 11.24 7.03 11.24 7.04C11.25 7.04 11.26 7.05 11.26 7.06C11.27 7.07 11.27 7.08 11.28 7.09L11.29 7.11C11.3 7.12 11.3 7.13 11.31 7.14C11.31 7.15 11.31 7.16 11.32 7.17C11.32 7.17 11.33 7.18 11.33 7.19C11.33 7.2 11.34 7.21 11.34 7.22C11.34 7.23 11.34 7.24 11.35 7.25L11.35 7.28C11.35 7.29 11.36 7.3 11.36 7.31L11.36 7.49C11.36 7.5 11.35 7.51 11.35 7.52L11.35 7.55C11.34 7.56 11.34 7.57 11.34 7.58C11.34 7.59 11.33 7.6 11.33 7.61C11.33 7.61 11.32 7.62 11.32 7.63C11.31 7.64 11.31 7.65 11.31 7.66C11.3 7.67 11.3 7.68 11.29 7.69L11.28 7.71C11.27 7.72 11.27 7.73 11.26 7.74C11.26 7.75 11.25 7.76 11.24 7.76C11.24 7.77 11.23 7.78 11.23 7.79Z" /></g></g></svg>