<svg xmlns="http://www.w3.org/2000/svg" xmlns:xlink="http://www.w3.org/1999/xlink" width="22" height="22" viewBox="0 0 22 22" fill="none"><defs><rect id="path_0" x="0" y="0" width="22" height="21.999999999999968" /></defs><g opacity="1" transform="translate(0 0)  rotate(0 11 10.999999999999984)"><mask id="bg-mask-0" fill="white"><use xlink:href="#path_0"></use></mask><g mask="url(#bg-mask-0)" ><path id="并集" fill-rule="evenodd" style="fill:#000000" transform="translate(1.3444442141045132 1.5017190904766191)  rotate(0 10.022222222222226 9.598055945502372)" opacity="1" d="M19.9 12.58C19.89 12.6 19.87 12.61 19.86 12.63C19.84 12.64 19.83 12.65 19.81 12.67C19.8 12.68 19.78 12.69 19.76 12.7C19.75 12.71 19.73 12.72 19.71 12.73C19.69 12.74 19.68 12.75 19.66 12.76C19.64 12.76 19.62 12.77 19.6 12.78C19.58 12.78 19.56 12.78 19.54 12.79C19.52 12.79 19.5 12.79 19.48 12.8L19.42 12.8C19.4 12.8 19.38 12.8 19.36 12.79C19.34 12.79 19.32 12.79 19.3 12.78C19.28 12.78 19.26 12.78 19.25 12.77C19.23 12.76 19.21 12.76 19.19 12.75L0.37 4.56L0.31 4.53C0.3 4.52 0.28 4.51 0.26 4.5C0.25 4.49 0.23 4.48 0.22 4.46C0.2 4.45 0.19 4.44 0.17 4.42L0.13 4.38C0.12 4.36 0.11 4.35 0.1 4.33C0.09 4.31 0.08 4.29 0.07 4.28L0.04 4.22C0.04 4.2 0.03 4.18 0.02 4.17C0.02 4.15 0.01 4.13 0.01 4.11C0.01 4.09 0 4.07 0 4.05L0 3.93C0.01 3.91 0.01 3.89 0.01 3.87C0.02 3.85 0.02 3.83 0.03 3.81C0.04 3.79 0.04 3.77 0.05 3.76L0.08 3.7C0.09 3.68 0.1 3.67 0.11 3.65C0.12 3.63 0.13 3.62 0.15 3.6C0.16 3.59 0.17 3.57 0.19 3.56C0.2 3.54 0.22 3.53 0.23 3.52C0.25 3.51 0.26 3.49 0.28 3.48C0.3 3.47 0.32 3.46 0.33 3.45C0.35 3.44 0.37 3.44 0.39 3.43C0.41 3.42 0.43 3.42 0.44 3.41C0.46 3.41 0.48 3.4 0.5 3.4C0.52 3.39 0.54 3.39 0.56 3.39L0.68 3.39C0.7 3.39 0.72 3.4 0.74 3.4C0.76 3.41 0.78 3.41 0.8 3.42C0.82 3.42 0.84 3.43 0.85 3.44L5.17 5.32L7.02 3.58L6.8 1.2C6.79 1.11 6.8 1.01 6.81 0.92C6.83 0.82 6.85 0.73 6.89 0.65C6.93 0.56 6.98 0.48 7.04 0.41C7.1 0.33 7.17 0.27 7.25 0.21C7.33 0.15 7.41 0.11 7.5 0.07C7.59 0.04 7.68 0.02 7.77 0.01C7.87 0 7.96 0 8.05 0.01C8.15 0.02 8.24 0.05 8.33 0.09L18.28 4.33C18.37 4.37 18.45 4.41 18.53 4.47C18.6 4.53 18.67 4.6 18.72 4.67C18.78 4.75 18.83 4.83 18.86 4.92C18.9 5 18.93 5.1 18.94 5.19C18.95 5.29 18.95 5.38 18.94 5.48C18.93 5.57 18.91 5.66 18.87 5.75C18.84 5.84 18.79 5.92 18.73 5.99C18.68 6.07 18.61 6.14 18.54 6.2L16.67 7.69L16.67 10.32L19.68 11.63C19.71 11.64 19.74 11.66 19.78 11.68C19.79 11.69 19.8 11.7 19.82 11.71C19.83 11.72 19.85 11.73 19.86 11.75C19.87 11.76 19.88 11.77 19.89 11.79C19.91 11.8 19.92 11.81 19.93 11.83L19.96 11.87C19.97 11.89 19.97 11.9 19.98 11.92C19.99 11.93 20 11.95 20 11.97C20.01 11.98 20.02 12 20.02 12.02C20.02 12.03 20.03 12.05 20.03 12.07C20.04 12.08 20.04 12.1 20.04 12.12L20.04 12.28C20.03 12.3 20.03 12.31 20.03 12.33C20.02 12.35 20.02 12.36 20.01 12.38C20.01 12.4 20 12.41 19.99 12.43C19.99 12.45 19.98 12.47 19.97 12.48L19.94 12.54C19.92 12.55 19.91 12.57 19.9 12.58ZM17.61 5.37L15.86 6.77C15.8 6.82 15.74 6.88 15.68 6.95C15.63 7.01 15.59 7.08 15.55 7.16C15.52 7.23 15.49 7.31 15.47 7.39C15.46 7.47 15.45 7.55 15.45 7.63L15.45 9.79L6.39 5.85L7.9 4.43C7.96 4.37 8.01 4.3 8.06 4.24C8.11 4.17 8.14 4.09 8.17 4.02C8.2 3.94 8.22 3.86 8.23 3.78C8.25 3.69 8.25 3.61 8.24 3.53L8.04 1.29L17.61 5.37ZM1.56 10.43C1.57 10.4 1.59 10.38 1.61 10.35L4.5 7.63L3.28 7.1L0.78 9.47C0.68 9.56 0.6 9.66 0.52 9.77C0.45 9.88 0.4 10 0.36 10.12C0.32 10.25 0.29 10.38 0.28 10.51C0.27 10.64 0.28 10.77 0.3 10.9C0.33 11.03 0.37 11.16 0.42 11.28C0.47 11.4 0.54 11.51 0.62 11.61C0.71 11.71 0.8 11.8 0.9 11.88C1.01 11.97 1.12 12.03 1.25 12.08L7.23 14.63L5.65 18.35C5.65 18.35 5.65 18.36 5.64 18.37C5.64 18.38 5.64 18.39 5.63 18.4L5.63 18.43C5.62 18.44 5.62 18.45 5.62 18.46C5.62 18.47 5.61 18.48 5.61 18.49L5.61 18.67C5.61 18.68 5.61 18.69 5.62 18.7L5.62 18.73C5.62 18.74 5.63 18.75 5.63 18.76C5.63 18.77 5.64 18.78 5.64 18.79C5.64 18.79 5.65 18.8 5.65 18.81C5.65 18.82 5.66 18.83 5.66 18.84C5.67 18.85 5.67 18.86 5.67 18.87C5.68 18.88 5.68 18.89 5.69 18.89C5.7 18.9 5.7 18.91 5.7 18.92L5.72 18.94L5.74 18.97L5.76 18.99C5.77 19 5.77 19.01 5.78 19.01C5.79 19.02 5.79 19.03 5.8 19.03L5.82 19.05C5.83 19.06 5.84 19.07 5.85 19.07L5.87 19.09C5.88 19.1 5.89 19.1 5.9 19.11L5.92 19.12C5.93 19.13 5.94 19.13 5.95 19.13C5.96 19.14 5.97 19.14 5.98 19.15C5.99 19.15 6 19.15 6.01 19.16C6.01 19.16 6.02 19.16 6.03 19.17L6.06 19.18L6.09 19.18C6.1 19.19 6.11 19.19 6.12 19.19L6.15 19.19C6.16 19.19 6.17 19.2 6.18 19.2L6.24 19.2C6.25 19.19 6.26 19.19 6.27 19.19L6.33 19.19C6.34 19.18 6.35 19.18 6.36 19.18C6.37 19.18 6.38 19.17 6.39 19.17C6.4 19.17 6.41 19.17 6.42 19.16C6.43 19.16 6.44 19.16 6.45 19.15C6.45 19.15 6.46 19.14 6.47 19.14C6.48 19.14 6.49 19.13 6.5 19.13C6.51 19.12 6.52 19.12 6.53 19.11C6.53 19.11 6.54 19.1 6.55 19.1C6.56 19.09 6.57 19.09 6.58 19.08L6.6 19.06L6.62 19.04C6.63 19.03 6.64 19.03 6.64 19.02C6.65 19.01 6.66 19.01 6.67 19C6.67 18.99 6.68 18.99 6.68 18.98C6.69 18.97 6.7 18.96 6.7 18.95C6.71 18.95 6.72 18.94 6.72 18.93C6.73 18.92 6.73 18.91 6.74 18.9L6.75 18.88C6.76 18.87 6.76 18.86 6.77 18.85C6.77 18.84 6.78 18.83 6.78 18.82L8.36 15.11L14.47 17.72C14.59 17.77 14.72 17.81 14.85 17.83C14.98 17.85 15.11 17.85 15.24 17.84C15.37 17.83 15.5 17.8 15.62 17.76C15.74 17.71 15.86 17.65 15.97 17.58C16.08 17.51 16.18 17.42 16.27 17.32C16.36 17.23 16.43 17.12 16.5 17.01C16.56 16.89 16.6 16.77 16.64 16.64C16.67 16.52 16.69 16.39 16.69 16.25L16.68 12.93L15.46 12.4L15.46 16.26C15.46 16.29 15.46 16.32 15.45 16.35C15.45 16.37 15.43 16.4 15.42 16.43C15.41 16.46 15.39 16.48 15.37 16.5C15.35 16.52 15.32 16.55 15.3 16.56C15.27 16.58 15.25 16.59 15.22 16.6C15.19 16.61 15.16 16.62 15.13 16.62L15.04 16.62C15.01 16.61 14.98 16.61 14.95 16.59L1.72 10.96C1.7 10.95 1.67 10.93 1.64 10.91L1.58 10.85C1.56 10.83 1.54 10.8 1.53 10.77C1.52 10.74 1.51 10.72 1.51 10.69C1.5 10.66 1.5 10.63 1.5 10.6C1.5 10.56 1.51 10.54 1.52 10.51C1.53 10.48 1.54 10.45 1.56 10.43Z" /></g></g></svg>