<svg xmlns="http://www.w3.org/2000/svg" xmlns:xlink="http://www.w3.org/1999/xlink" width="22" height="22" viewBox="0 0 22 22" fill="none"><defs><rect id="path_0" x="0" y="0" width="22" height="22" /></defs><g opacity="1" transform="translate(0 0)  rotate(0 11 11)"><mask id="bg-mask-0" fill="white"><use xlink:href="#path_0"></use></mask><g mask="url(#bg-mask-0)" ><path id="并集" fill-rule="evenodd" style="fill:#000000" transform="translate(1.8368839391164329 2.638037151825621)  rotate(45 9.175863732231987 8.36128421359592)" opacity="1" d="M10.22,0.02L10.19,0.03C10.18,0.03 10.17,0.03 10.16,0.04C10.15,0.04 10.14,0.04 10.13,0.05C10.12,0.05 10.12,0.05 10.11,0.06C10.1,0.06 10.09,0.07 10.08,0.07C10.07,0.08 10.06,0.08 10.05,0.09C10.04,0.09 10.04,0.1 10.03,0.1C10.02,0.11 10.01,0.11 10,0.12C10,0.13 9.99,0.13 9.98,0.14C9.97,0.15 9.96,0.15 9.96,0.16C9.95,0.17 9.94,0.17 9.93,0.18C9.92,0.19 9.91,0.21 9.89,0.22C9.88,0.24 9.87,0.25 9.86,0.27C9.85,0.29 9.84,0.31 9.83,0.32C9.82,0.34 9.81,0.36 9.8,0.38C9.79,0.4 9.79,0.41 9.78,0.43C9.78,0.45 9.77,0.47 9.77,0.49C9.76,0.51 9.76,0.53 9.76,0.55C9.76,0.57 9.76,0.59 9.76,0.61C9.76,0.63 9.76,0.65 9.76,0.67C9.76,0.69 9.76,0.71 9.77,0.73C9.77,0.75 9.78,0.77 9.78,0.79C9.79,0.81 9.79,0.83 9.8,0.85C9.81,0.86 9.82,0.88 9.83,0.9C9.84,0.92 9.85,0.93 9.86,0.95C9.87,0.97 9.88,0.98 9.89,1C9.91,1.01 9.92,1.03 9.93,1.04L16.58,7.69L0.61,7.69C0.6,7.69 0.59,7.69 0.58,7.69C0.57,7.69 0.56,7.69 0.55,7.69L0.52,7.7C0.51,7.7 0.5,7.7 0.49,7.7C0.48,7.7 0.47,7.71 0.46,7.71C0.45,7.71 0.44,7.71 0.43,7.72C0.42,7.72 0.41,7.72 0.41,7.73C0.4,7.73 0.39,7.73 0.38,7.74C0.37,7.74 0.36,7.74 0.35,7.75C0.34,7.75 0.33,7.76 0.32,7.76L0.3,7.78C0.29,7.78 0.28,7.79 0.27,7.79C0.26,7.8 0.26,7.8 0.25,7.81C0.24,7.82 0.23,7.82 0.22,7.83C0.22,7.84 0.21,7.84 0.2,7.85C0.19,7.85 0.19,7.86 0.18,7.87C0.17,7.88 0.16,7.88 0.16,7.89C0.15,7.9 0.15,7.9 0.14,7.91C0.13,7.92 0.13,7.93 0.12,7.94C0.11,7.95 0.11,7.95 0.1,7.96C0.1,7.97 0.09,7.98 0.09,7.99L0.07,8.01C0.07,8.02 0.06,8.03 0.06,8.04C0.05,8.05 0.05,8.06 0.05,8.07C0.04,8.08 0.04,8.09 0.04,8.1C0.03,8.1 0.03,8.11 0.03,8.12C0.02,8.13 0.02,8.14 0.02,8.15C0.02,8.16 0.01,8.17 0.01,8.18C0.01,8.19 0.01,8.2 0.01,8.21L0,8.24C0,8.25 0,8.26 0,8.27C0,8.28 0,8.29 0,8.3C0,8.31 0,8.32 0,8.33C0,8.34 0,8.35 0,8.36L0.01,8.39C0.01,8.4 0.01,8.41 0.01,8.42C0.01,8.43 0.02,8.44 0.02,8.45C0.02,8.46 0.02,8.47 0.03,8.48C0.03,8.49 0.03,8.5 0.04,8.51C0.04,8.52 0.04,8.53 0.05,8.53C0.05,8.54 0.05,8.55 0.06,8.56C0.06,8.57 0.07,8.58 0.07,8.59L0.09,8.61C0.09,8.62 0.1,8.63 0.1,8.64C0.11,8.65 0.11,8.66 0.12,8.67C0.13,8.67 0.13,8.68 0.14,8.69C0.15,8.7 0.15,8.7 0.16,8.71C0.16,8.72 0.17,8.73 0.18,8.73C0.19,8.74 0.19,8.75 0.2,8.75C0.21,8.76 0.22,8.77 0.22,8.77C0.23,8.78 0.24,8.79 0.25,8.79C0.26,8.8 0.26,8.8 0.27,8.81C0.28,8.81 0.29,8.82 0.3,8.83L0.32,8.84C0.33,8.84 0.34,8.85 0.35,8.85C0.36,8.86 0.37,8.86 0.38,8.87C0.39,8.87 0.4,8.87 0.41,8.88C0.41,8.88 0.42,8.88 0.43,8.89C0.44,8.89 0.45,8.89 0.46,8.89C0.47,8.9 0.48,8.9 0.49,8.9C0.5,8.9 0.51,8.9 0.52,8.91L0.55,8.91C0.56,8.91 0.57,8.91 0.58,8.91C0.59,8.91 0.6,8.91 0.61,8.91L16.76,8.91L9.99,15.68C9.99,15.69 9.98,15.69 9.97,15.7C9.97,15.71 9.96,15.72 9.95,15.72L9.93,15.75C9.93,15.76 9.92,15.76 9.92,15.77C9.91,15.78 9.91,15.79 9.9,15.8C9.9,15.81 9.89,15.81 9.89,15.82C9.88,15.83 9.88,15.84 9.87,15.85C9.87,15.86 9.86,15.87 9.86,15.88C9.86,15.89 9.85,15.9 9.85,15.91C9.85,15.92 9.84,15.92 9.84,15.93L9.83,15.96C9.83,15.97 9.83,15.98 9.83,15.99C9.82,16 9.82,16.01 9.82,16.02C9.82,16.03 9.82,16.04 9.82,16.05C9.82,16.06 9.82,16.07 9.82,16.08C9.81,16.09 9.81,16.1 9.81,16.11C9.81,16.12 9.81,16.13 9.82,16.14C9.82,16.15 9.82,16.16 9.82,16.17C9.82,16.18 9.82,16.19 9.82,16.2C9.82,16.21 9.82,16.22 9.83,16.23C9.83,16.24 9.83,16.25 9.83,16.26L9.84,16.29C9.84,16.3 9.85,16.31 9.85,16.32C9.85,16.33 9.86,16.34 9.86,16.35C9.86,16.35 9.87,16.36 9.87,16.37C9.88,16.38 9.88,16.39 9.89,16.4C9.89,16.41 9.9,16.42 9.9,16.43C9.91,16.43 9.91,16.44 9.92,16.45C9.92,16.46 9.93,16.47 9.93,16.48L9.95,16.5C9.96,16.51 9.97,16.51 9.97,16.52C9.98,16.53 9.99,16.54 9.99,16.54C10,16.55 10.01,16.56 10.02,16.57C10.04,16.58 10.05,16.6 10.07,16.61C10.08,16.62 10.1,16.63 10.12,16.64C10.13,16.65 10.15,16.66 10.17,16.67C10.19,16.67 10.2,16.68 10.22,16.69C10.24,16.69 10.26,16.7 10.28,16.7C10.29,16.71 10.31,16.71 10.33,16.72C10.35,16.72 10.37,16.72 10.39,16.72C10.41,16.72 10.43,16.72 10.45,16.72C10.47,16.72 10.48,16.72 10.5,16.72L10.56,16.71C10.58,16.7 10.6,16.7 10.62,16.69C10.63,16.69 10.65,16.68 10.67,16.67C10.69,16.66 10.7,16.66 10.72,16.65C10.74,16.64 10.75,16.63 10.77,16.62C10.79,16.61 10.8,16.59 10.82,16.58C10.83,16.57 10.84,16.56 10.86,16.54L17.89,9.51C17.96,9.44 18.03,9.36 18.09,9.27C18.15,9.18 18.2,9.09 18.24,8.99C18.27,8.89 18.3,8.8 18.32,8.69C18.34,8.59 18.35,8.49 18.35,8.39C18.35,8.29 18.34,8.19 18.32,8.09C18.3,7.99 18.27,7.89 18.24,7.79C18.2,7.7 18.15,7.6 18.09,7.52C18.03,7.43 17.96,7.34 17.89,7.27L10.8,0.18L10.78,0.16C10.77,0.15 10.76,0.15 10.76,0.14L10.73,0.12C10.72,0.11 10.71,0.11 10.71,0.1C10.7,0.1 10.69,0.09 10.68,0.09L10.66,0.07C10.65,0.07 10.64,0.06 10.63,0.06C10.62,0.06 10.61,0.05 10.6,0.05C10.59,0.04 10.58,0.04 10.57,0.04C10.56,0.03 10.55,0.03 10.54,0.03C10.54,0.02 10.53,0.02 10.52,0.02C10.51,0.02 10.5,0.01 10.49,0.01C10.48,0.01 10.47,0.01 10.46,0.01C10.45,0.01 10.44,0 10.43,0C10.42,0 10.41,0 10.4,0C10.39,0 10.38,0 10.37,0C10.36,0 10.35,0 10.34,0C10.33,0 10.32,0 10.31,0C10.3,0 10.29,0.01 10.28,0.01C10.27,0.01 10.26,0.01 10.25,0.01C10.24,0.01 10.23,0.02 10.22,0.02Z " /></g></g></svg>