<svg xmlns="http://www.w3.org/2000/svg" xmlns:xlink="http://www.w3.org/1999/xlink" width="22" height="22" viewBox="0 0 22 22" fill="none"><defs><rect id="path_0" x="0" y="0" width="22" height="22" /></defs><g opacity="1" transform="translate(0 0)  rotate(0 11 11)"><mask id="bg-mask-0" fill="white"><use xlink:href="#path_0"></use></mask><g mask="url(#bg-mask-0)" ><path id="并集" fill-rule="evenodd" style="fill:#000000" transform="translate(2.7818492698219517 1.6308832868020349)  rotate(0 8.216580390930186 9.452336311340344)" opacity="1" d="M8.82698 1.67294L15.3937 8.23967L15.4149 8.26089L15.4361 8.2821L15.4574 8.30331C15.4715 8.30331 15.4786 8.31038 15.4856 8.31746C15.4927 8.32453 15.4998 8.3316 15.5139 8.3316L15.5351 8.35281C15.5493 8.35281 15.5563 8.35988 15.5563 8.35988C15.5705 8.35988 15.5776 8.36695 15.5846 8.37402C15.5988 8.37402 15.6058 8.3811 15.62 8.3811C15.6271 8.38817 15.6412 8.38817 15.6483 8.39524C15.6553 8.40231 15.6624 8.39524 15.6695 8.40231C15.6836 8.40231 15.6978 8.40231 15.7048 8.40938L15.7331 8.40938C15.7402 8.41645 15.7543 8.41645 15.7685 8.41645L15.7968 8.41645C15.8011 8.42082 15.8055 8.41979 15.8115 8.41836C15.8153 8.41748 15.8196 8.41645 15.825 8.41645C15.8294 8.42082 15.8338 8.41979 15.8398 8.41836C15.8436 8.41748 15.8479 8.41645 15.8533 8.41645L15.8816 8.41645C15.887 8.41645 15.8914 8.41542 15.8951 8.41454C15.9012 8.41311 15.9055 8.41208 15.9099 8.41645C15.924 8.41645 15.9311 8.40938 15.9453 8.40938C15.9523 8.40231 15.9665 8.40231 15.9665 8.40231C15.9806 8.40231 15.9877 8.39524 16.0018 8.39524C16.0089 8.38817 16.023 8.38817 16.0301 8.3811C16.0443 8.3811 16.0513 8.37402 16.0584 8.36695C16.0655 8.37402 16.0725 8.36695 16.0796 8.35988C16.0938 8.35988 16.1008 8.35281 16.1079 8.34574C16.122 8.34574 16.1291 8.33867 16.1362 8.3316C16.1432 8.32453 16.1574 8.32453 16.1645 8.31746L16.1857 8.29624C16.1927 8.28917 16.2069 8.28917 16.214 8.2821L16.2352 8.26089L16.2564 8.23967L16.2988 8.19725C16.3059 8.19018 16.3059 8.17603 16.313 8.16896L16.3342 8.14775C16.3412 8.14068 16.3412 8.12654 16.3483 8.11947C16.3554 8.1124 16.3624 8.10532 16.3624 8.09118C16.3695 8.08411 16.3766 8.07704 16.3695 8.06997C16.3766 8.0629 16.3837 8.05583 16.3837 8.04168C16.3907 8.03461 16.3978 8.02754 16.3978 8.0134C16.4049 8.00633 16.4049 7.99219 16.4119 7.98512L16.4119 7.95683C16.419 7.94976 16.419 7.93562 16.4261 7.92855L16.4261 7.90026C16.4261 7.88612 16.4332 7.87905 16.4332 7.86491C16.4288 7.86054 16.4298 7.85617 16.4312 7.85013C16.4321 7.8464 16.4332 7.84203 16.4332 7.83662L16.4332 7.78006C16.4332 7.77465 16.4321 7.77028 16.4312 7.76655C16.4298 7.76051 16.4288 7.75614 16.4332 7.75177C16.4332 7.73763 16.4261 7.73056 16.4261 7.71642L16.4261 7.68813C16.419 7.68106 16.419 7.66692 16.4119 7.65985L16.4119 7.63156C16.4049 7.62449 16.4049 7.61035 16.3978 7.60328C16.3978 7.58914 16.3907 7.58207 16.3837 7.57499C16.3837 7.56085 16.3766 7.55378 16.3695 7.54671C16.3766 7.53964 16.3695 7.53257 16.3624 7.5255C16.3624 7.51135 16.3554 7.50428 16.3483 7.49721C16.3412 7.49014 16.3412 7.476 16.3342 7.46893L16.313 7.44771C16.3059 7.44064 16.3059 7.4265 16.2988 7.41943L16.2564 7.377L9.34088 0.4615C9.2631 0.383718 9.18532 0.320078 9.09339 0.256439C9.00854 0.19987 8.91662 0.150373 8.81055 0.115017C8.71863 0.0796618 8.6267 0.0443072 8.52064 0.0230937C8.42164 0.00895119 8.32265 -0.00519037 8.21658 0.00188065C8.11759 0.00188065 8.01152 0.00895119 7.91252 0.0230937C7.81353 0.0513778 7.71453 0.0796618 7.62261 0.115017C7.52362 0.157444 7.43169 0.206941 7.33977 0.256439C7.25491 0.313007 7.17006 0.383718 7.09228 0.4615L0.155563 7.39822C0.148493 7.40529 0.14142 7.41236 0.14142 7.4265C0.13435 7.43357 0.127279 7.44064 0.120207 7.44771L0.0989933 7.46893C0.0989933 7.48307 0.0919247 7.49014 0.0848522 7.49721C0.0848522 7.49721 0.0848522 7.51135 0.0777817 7.51843C0.0707111 7.5255 0.0636387 7.53257 0.0636387 7.54671C0.0565681 7.55378 0.0494976 7.56085 0.0494976 7.57499C0.0424252 7.58206 0.0424252 7.59621 0.0353546 7.60328C0.0353546 7.61742 0.0282841 7.62449 0.0282841 7.62449C0.0282841 7.63863 0.0212135 7.64571 0.0212116 7.65985C0.014143 7.66692 0.0141411 7.68106 0.014143 7.6952C0.014143 7.6952 0.014143 7.70934 0.00707054 7.71642C0.00707054 7.72182 0.00603894 7.72619 0.00515786 7.72992C0.00373227 7.73596 0.00270074 7.74033 0.00707054 7.7447C0.00707054 7.75177 0.00530273 7.75707 0.003535 7.76238C0.00176698 7.76768 0 7.77298 0 7.78006C0.00436931 7.78442 0.00333778 7.78879 0.00191233 7.79483C0.00103108 7.79857 0 7.80294 0 7.80834C0 7.81374 0.00103108 7.81811 0.00191233 7.82185C0.00333778 7.82788 0.00436931 7.83225 0 7.83662C0 7.84369 0.00176698 7.849 0.003535 7.8543C0.00530273 7.85961 0.00707054 7.86491 0.00707054 7.87198C0.00270074 7.87635 0.00373227 7.88072 0.00515786 7.88676C0.00603894 7.89049 0.00707054 7.89486 0.00707054 7.90026C0.014143 7.90733 0.014143 7.92148 0.014143 7.92148C0.0141411 7.93562 0.014143 7.94976 0.0212116 7.95683C0.0212135 7.97097 0.0282841 7.97804 0.0282841 7.99219C0.0282841 7.99219 0.0353546 7.99926 0.0353546 8.0134C0.0424252 8.02047 0.0424252 8.03461 0.0494976 8.04169C0.0494976 8.05583 0.0565681 8.0629 0.0636387 8.06997C0.0636387 8.08411 0.0707111 8.09118 0.0777817 8.09825C0.0848522 8.10532 0.0848522 8.11947 0.0848522 8.11947C0.0919247 8.12654 0.0989933 8.13361 0.0989933 8.14775L0.120207 8.16896C0.127279 8.17603 0.13435 8.18311 0.14142 8.19018C0.14142 8.20432 0.148493 8.21139 0.155563 8.21846L0.176777 8.23967L0.197989 8.26089C0.205061 8.26796 0.212133 8.27503 0.226273 8.27503L0.247486 8.29624L0.2687 8.31746C0.282843 8.31746 0.289913 8.32453 0.296984 8.3316C0.304056 8.33867 0.318197 8.33867 0.32527 8.34574C0.33234 8.35281 0.339411 8.35988 0.353552 8.35988C0.360624 8.36695 0.367695 8.37402 0.381836 8.37403C0.388908 8.3811 0.403051 8.3811 0.403051 8.3811C0.417192 8.38109 0.424265 8.38817 0.431335 8.39524C0.445478 8.39524 0.452549 8.40231 0.46669 8.40231C0.47106 8.40668 0.475431 8.40565 0.481471 8.40422C0.485203 8.40334 0.489573 8.40231 0.494974 8.40231C0.502045 8.40938 0.516188 8.40938 0.52326 8.41645L0.551542 8.41645C0.556945 8.41645 0.561316 8.41748 0.565048 8.41836C0.571087 8.41979 0.575458 8.42082 0.579828 8.41645C0.586897 8.41645 0.5922 8.41822 0.597502 8.41999C0.602806 8.42175 0.60811 8.42352 0.615183 8.42352C0.622253 8.41645 0.636396 8.41645 0.643467 8.42352C0.650537 8.41645 0.66468 8.41645 0.678823 8.41645C0.678823 8.41645 0.692965 8.41645 0.700035 8.40938L0.72832 8.40938C0.73539 8.40938 0.740693 8.40761 0.745996 8.40584C0.7513 8.40408 0.756603 8.40231 0.763674 8.40231C0.770746 8.39524 0.784889 8.39524 0.79196 8.38817C0.79633 8.39254 0.8007 8.39151 0.80674 8.39008C0.810472 8.3892 0.814842 8.38817 0.820243 8.38817C0.827314 8.38109 0.834386 8.37402 0.848528 8.37402C0.855598 8.36695 0.869741 8.36695 0.876812 8.35988C0.883883 8.35281 0.898026 8.35281 0.905096 8.34574C0.912169 8.33867 0.919239 8.3316 0.92631 8.33867L0.947523 8.31746C0.954594 8.31038 0.968736 8.31038 0.975807 8.30331L7.60698 1.67214L7.60698 18.3547C7.60698 18.3647 7.61698 18.3747 7.61698 18.3847L7.61698 18.4147C7.61698 18.4247 7.62698 18.4347 7.62698 18.4447C7.62698 18.4547 7.62698 18.4647 7.63698 18.4747C7.63698 18.4747 7.63698 18.4847 7.64698 18.4947C7.64698 18.5047 7.64698 18.5147 7.65698 18.5247C7.65698 18.5347 7.65698 18.5447 7.66698 18.5547C7.66698 18.5647 7.67698 18.5747 7.67698 18.5847C7.68698 18.5847 7.68698 18.5947 7.69698 18.6047C7.69698 18.6147 7.70698 18.6247 7.70698 18.6347L7.72698 18.6547C7.73698 18.6647 7.73698 18.6747 7.74698 18.6847C7.75698 18.6847 7.75698 18.6947 7.76698 18.7047L7.80698 18.7447C7.81698 18.7547 7.82698 18.7547 7.82698 18.7647C7.83698 18.7747 7.84698 18.7747 7.85698 18.7847C7.86698 18.7847 7.86698 18.7947 7.87698 18.8047C7.88698 18.8047 7.89698 18.8147 7.90698 18.8147L7.92698 18.8347C7.93698 18.8347 7.94698 18.8447 7.95698 18.8447C7.96698 18.8447 7.97698 18.8547 7.98698 18.8547C7.99698 18.8647 8.00698 18.8647 8.01698 18.8647C8.01698 18.8747 8.02698 18.8747 8.03698 18.8747C8.04698 18.8847 8.05698 18.8847 8.06698 18.8847C8.07698 18.8847 8.08698 18.8947 8.09698 18.8947L8.12698 18.8947C8.13698 18.8947 8.14698 18.9047 8.15698 18.9047L8.27698 18.9047C8.28698 18.9047 8.29698 18.8947 8.30698 18.8947L8.33698 18.8947C8.34698 18.8947 8.35698 18.8847 8.36698 18.8847C8.37698 18.8847 8.38698 18.8847 8.39698 18.8747C8.40698 18.8747 8.41698 18.8747 8.42698 18.8647C8.43698 18.8647 8.44698 18.8647 8.44698 18.8547C8.45698 18.8547 8.46698 18.8447 8.47698 18.8447C8.48698 18.8447 8.49698 18.8347 8.50698 18.8347C8.51698 18.8247 8.52698 18.8247 8.53698 18.8147C8.53698 18.8147 8.54698 18.8047 8.55698 18.8047C8.56698 18.7947 8.57698 18.7847 8.58698 18.7847C8.58698 18.7747 8.59698 18.7747 8.60698 18.7647L8.62698 18.7447C8.63698 18.7347 8.64698 18.7347 8.64698 18.7247C8.65698 18.7147 8.66698 18.7147 8.66698 18.7047L8.68698 18.6847C8.69698 18.6747 8.70698 18.6647 8.70698 18.6547L8.72698 18.6347C8.72698 18.6247 8.73698 18.6147 8.74698 18.6047C8.74698 18.5947 8.75698 18.5847 8.75698 18.5847C8.75698 18.5747 8.76698 18.5647 8.76698 18.5547C8.77698 18.5447 8.77698 18.5347 8.78698 18.5247C8.78698 18.5147 8.78698 18.5047 8.79698 18.4947C8.79698 18.4847 8.79698 18.4747 8.80698 18.4747L8.80698 18.4447C8.81698 18.4347 8.81698 18.4247 8.81698 18.4147C8.81698 18.4047 8.81698 18.3947 8.82698 18.3847L8.82698 1.67294Z " /></g></g></svg>