<svg xmlns="http://www.w3.org/2000/svg" xmlns:xlink="http://www.w3.org/1999/xlink" width="22" height="22" viewBox="0 0 22 22" fill="none"><defs><rect id="path_0" x="0" y="0" width="22" height="22" /></defs><g opacity="1" transform="translate(0 0)  rotate(0 11 11)"><mask id="bg-mask-0" fill="white"><use xlink:href="#path_0"></use></mask><g mask="url(#bg-mask-0)" ><path id="并集" fill-rule="evenodd" style="fill:#000000" transform="translate(2.7827905251795215 1.3212222222222145)  rotate(0 8.217209286159939 9.587007904052735)" opacity="1" d="M16.43,11.45C16.43,11.44 16.43,11.43 16.43,11.42C16.43,11.41 16.43,11.4 16.43,11.39C16.43,11.38 16.43,11.37 16.43,11.36C16.43,11.35 16.43,11.34 16.43,11.33C16.43,11.32 16.43,11.31 16.43,11.3C16.43,11.29 16.43,11.28 16.43,11.27C16.42,11.26 16.42,11.25 16.42,11.24C16.42,11.23 16.42,11.22 16.42,11.21L16.41,11.19C16.4,11.18 16.4,11.17 16.4,11.16C16.39,11.15 16.39,11.14 16.39,11.13C16.38,11.12 16.38,11.11 16.37,11.1C16.37,11.09 16.37,11.08 16.36,11.08C16.36,11.07 16.35,11.06 16.35,11.05C16.34,11.04 16.34,11.03 16.33,11.02C16.33,11.02 16.32,11.01 16.31,11L16.3,10.97C16.29,10.97 16.28,10.96 16.28,10.95C16.27,10.94 16.26,10.94 16.25,10.93C16.25,10.92 16.24,10.92 16.23,10.91C16.23,10.9 16.22,10.9 16.21,10.89L16.19,10.87C16.18,10.87 16.17,10.86 16.16,10.85C16.15,10.85 16.14,10.84 16.14,10.84C16.13,10.83 16.12,10.83 16.11,10.82C16.1,10.82 16.09,10.81 16.08,10.81C16.07,10.81 16.07,10.8 16.06,10.8C16.05,10.79 16.04,10.79 16.03,10.79C16.02,10.78 16.01,10.78 16,10.78L15.97,10.77C15.96,10.77 15.95,10.77 15.94,10.76C15.93,10.76 15.92,10.76 15.91,10.76C15.9,10.76 15.89,10.76 15.88,10.75L15.88,10.75C15.87,10.75 15.86,10.75 15.85,10.75C15.84,10.75 15.83,10.75 15.82,10.75C15.81,10.75 15.8,10.75 15.79,10.75C15.78,10.75 15.77,10.75 15.76,10.75C15.75,10.76 15.74,10.76 15.73,10.76C15.72,10.76 15.71,10.76 15.7,10.76C15.69,10.77 15.68,10.77 15.67,10.77L15.65,10.78C15.64,10.78 15.63,10.78 15.62,10.79C15.61,10.79 15.6,10.79 15.59,10.8C15.58,10.8 15.57,10.81 15.56,10.81C15.55,10.81 15.54,10.82 15.53,10.82C15.53,10.83 15.52,10.83 15.51,10.84C15.5,10.84 15.49,10.85 15.48,10.85C15.48,10.86 15.47,10.87 15.46,10.87L15.43,10.89C15.43,10.9 15.42,10.9 15.41,10.91C15.4,10.92 15.4,10.92 15.39,10.93L8.83,17.49C8.83,17.49 8.83,17.48 8.83,17.47L8.83,0.61C8.83,0.6 8.83,0.59 8.83,0.58C8.83,0.57 8.83,0.56 8.83,0.55L8.82,0.52C8.82,0.51 8.82,0.5 8.82,0.49C8.81,0.48 8.81,0.47 8.81,0.46C8.81,0.45 8.81,0.44 8.8,0.43C8.8,0.42 8.8,0.41 8.79,0.41C8.79,0.4 8.79,0.39 8.78,0.38C8.78,0.37 8.77,0.36 8.77,0.35C8.76,0.34 8.76,0.33 8.76,0.32L8.74,0.3C8.74,0.29 8.73,0.28 8.73,0.27C8.72,0.26 8.71,0.26 8.71,0.25C8.7,0.24 8.7,0.23 8.69,0.22C8.68,0.22 8.68,0.21 8.67,0.2C8.66,0.19 8.66,0.19 8.65,0.18C8.64,0.17 8.64,0.17 8.63,0.16C8.62,0.15 8.61,0.15 8.6,0.14C8.6,0.13 8.59,0.13 8.58,0.12C8.57,0.11 8.57,0.11 8.56,0.1C8.55,0.1 8.54,0.09 8.53,0.09L8.51,0.07C8.5,0.07 8.49,0.06 8.48,0.06C8.47,0.06 8.46,0.05 8.45,0.05C8.44,0.04 8.43,0.04 8.42,0.04C8.41,0.03 8.4,0.03 8.39,0.03C8.38,0.02 8.37,0.02 8.37,0.02C8.36,0.02 8.35,0.01 8.34,0.01C8.33,0.01 8.32,0.01 8.31,0.01L8.28,0C8.27,0 8.26,0 8.25,0C8.24,0 8.23,0 8.22,0C8.21,0 8.2,0 8.19,0C8.18,0 8.17,0 8.16,0L8.13,0.01C8.12,0.01 8.11,0.01 8.1,0.01C8.09,0.01 8.08,0.02 8.07,0.02C8.06,0.02 8.05,0.02 8.04,0.03C8.03,0.03 8.02,0.03 8.01,0.04C8,0.04 7.99,0.04 7.98,0.05C7.97,0.05 7.97,0.06 7.96,0.06C7.95,0.06 7.94,0.07 7.93,0.07L7.9,0.09C7.89,0.09 7.89,0.1 7.88,0.1C7.87,0.11 7.86,0.11 7.85,0.12C7.85,0.13 7.84,0.13 7.83,0.14C7.82,0.15 7.81,0.15 7.81,0.16C7.8,0.17 7.79,0.17 7.78,0.18C7.78,0.19 7.77,0.19 7.76,0.2C7.76,0.21 7.75,0.22 7.74,0.22C7.74,0.23 7.73,0.24 7.73,0.25C7.72,0.26 7.71,0.26 7.71,0.27C7.7,0.28 7.7,0.29 7.69,0.3L7.68,0.32C7.67,0.33 7.67,0.34 7.66,0.35C7.66,0.36 7.66,0.37 7.65,0.38C7.65,0.39 7.65,0.4 7.64,0.41C7.64,0.41 7.64,0.42 7.63,0.43C7.63,0.44 7.63,0.45 7.62,0.46C7.62,0.47 7.62,0.48 7.62,0.49C7.62,0.5 7.61,0.51 7.61,0.52L7.61,0.55C7.61,0.56 7.61,0.57 7.61,0.58C7.61,0.59 7.61,0.6 7.61,0.61L7.61,17.44C7.61,17.45 7.61,17.46 7.61,17.47C7.61,17.48 7.61,17.49 7.61,17.5L1.04,10.93C1.04,10.92 1.03,10.92 1.02,10.91C1.01,10.9 1.01,10.9 1,10.89L0.98,10.87C0.97,10.87 0.96,10.86 0.95,10.85C0.94,10.85 0.93,10.84 0.93,10.84C0.92,10.83 0.91,10.83 0.9,10.82C0.89,10.82 0.88,10.81 0.87,10.81C0.86,10.81 0.85,10.8 0.85,10.8C0.84,10.79 0.83,10.79 0.82,10.79C0.81,10.78 0.8,10.78 0.79,10.78L0.76,10.77C0.75,10.77 0.74,10.77 0.73,10.76C0.72,10.76 0.71,10.76 0.7,10.76C0.69,10.76 0.68,10.76 0.67,10.75C0.66,10.75 0.65,10.75 0.64,10.75C0.63,10.75 0.62,10.75 0.61,10.75C0.6,10.75 0.59,10.75 0.58,10.75C0.57,10.75 0.57,10.75 0.56,10.75C0.55,10.75 0.55,10.75 0.55,10.75C0.54,10.76 0.53,10.76 0.52,10.76C0.51,10.76 0.5,10.76 0.49,10.76C0.48,10.77 0.47,10.77 0.46,10.77L0.43,10.78C0.42,10.78 0.42,10.78 0.41,10.79C0.4,10.79 0.39,10.79 0.38,10.8C0.37,10.8 0.36,10.81 0.35,10.81C0.34,10.81 0.33,10.82 0.32,10.82C0.31,10.83 0.31,10.83 0.3,10.84C0.29,10.84 0.28,10.85 0.27,10.85C0.26,10.86 0.26,10.87 0.25,10.87L0.22,10.89C0.22,10.9 0.21,10.9 0.2,10.91C0.19,10.92 0.19,10.92 0.18,10.93C0.17,10.94 0.17,10.94 0.16,10.95C0.15,10.96 0.15,10.97 0.14,10.97L0.12,11C0.12,11.01 0.11,11.02 0.1,11.02C0.1,11.03 0.09,11.04 0.09,11.05C0.08,11.06 0.08,11.07 0.07,11.08C0.07,11.08 0.06,11.09 0.06,11.1C0.06,11.11 0.05,11.12 0.05,11.13C0.04,11.14 0.04,11.15 0.04,11.16C0.03,11.17 0.03,11.18 0.03,11.19L0.02,11.21C0.02,11.22 0.01,11.23 0.01,11.24C0.01,11.25 0.01,11.26 0.01,11.27C0.01,11.28 0,11.29 0,11.3C0,11.3 0,11.31 0,11.31C0,11.32 0,11.32 0,11.33C0,11.34 0,11.35 0,11.36C0,11.37 0,11.38 0,11.39C0,11.4 0,11.41 0,11.42C0,11.43 0.01,11.44 0.01,11.45C0.01,11.46 0.01,11.47 0.01,11.48C0.01,11.49 0.02,11.5 0.02,11.51L0.03,11.54C0.03,11.55 0.03,11.56 0.04,11.57C0.04,11.58 0.04,11.59 0.05,11.6C0.05,11.61 0.06,11.62 0.06,11.62C0.06,11.63 0.07,11.64 0.07,11.65C0.08,11.66 0.08,11.67 0.09,11.68C0.09,11.69 0.1,11.69 0.1,11.7C0.11,11.71 0.12,11.72 0.12,11.73L0.14,11.75C0.15,11.76 0.15,11.77 0.16,11.77C0.17,11.78 0.17,11.79 0.18,11.8L7.09,18.71C7.17,18.79 7.25,18.85 7.34,18.91C7.43,18.97 7.52,19.02 7.62,19.06C7.72,19.1 7.81,19.13 7.91,19.15C8.01,19.16 8.12,19.17 8.22,19.17C8.32,19.17 8.42,19.16 8.52,19.15C8.62,19.13 8.72,19.1 8.82,19.06C8.91,19.02 9,18.97 9.09,18.91C9.18,18.85 9.26,18.79 9.34,18.71L16.25,11.8C16.26,11.79 16.27,11.78 16.28,11.77C16.28,11.77 16.29,11.76 16.3,11.75L16.31,11.73C16.32,11.72 16.33,11.71 16.33,11.7C16.34,11.69 16.34,11.69 16.35,11.68C16.35,11.67 16.36,11.66 16.36,11.65C16.37,11.64 16.37,11.63 16.37,11.62C16.38,11.62 16.38,11.61 16.39,11.6C16.39,11.59 16.39,11.58 16.4,11.57C16.4,11.56 16.4,11.55 16.41,11.54L16.42,11.51C16.42,11.5 16.42,11.49 16.42,11.48C16.42,11.47 16.42,11.46 16.43,11.45Z " /></g></g></svg>