<svg xmlns="http://www.w3.org/2000/svg" xmlns:xlink="http://www.w3.org/1999/xlink" width="22" height="22.000000000000455" viewBox="0 0 22 22.000000000000455" fill="none"><defs><rect id="path_0" x="0" y="0" width="22" height="22.000000000000398" /></defs><g opacity="1" transform="translate(0 -1.1368683772161603e-13)  rotate(0 11 11.000000000000199)"><mask id="bg-mask-0" fill="white"><use xlink:href="#path_0"></use></mask><g mask="url(#bg-mask-0)" ><path id="并集" fill-rule="evenodd" style="fill:#000000" transform="translate(1.344444444444445 1.344444444444468)  rotate(0 9.655555555555555 9.65555555555573)" opacity="1" d="M9.66 0C4.32 0 0 4.32 0 9.66C0 14.99 4.32 19.31 9.66 19.31C14.99 19.31 19.31 14.99 19.31 9.66C19.31 4.32 14.99 0 9.66 0ZM2.24 5.64C2.37 5.4 2.51 5.17 2.66 4.94C2.81 4.72 2.97 4.5 3.15 4.29Q3.405 3.975 3.69 3.69Q3.975 3.405 4.29 3.15C4.5 2.97 4.72 2.81 4.94 2.66C5.17 2.51 5.4 2.37 5.64 2.24C5.88 2.11 6.12 1.99 6.37 1.88C6.63 1.78 6.88 1.68 7.15 1.6C7.41 1.52 7.68 1.45 7.95 1.39C8.23 1.34 8.51 1.29 8.79 1.27C9.08 1.24 9.37 1.22 9.66 1.22C9.95 1.22 10.23 1.24 10.52 1.27C10.8 1.29 11.08 1.34 11.36 1.39C11.63 1.45 11.9 1.52 12.16 1.6C12.43 1.68 12.68 1.78 12.94 1.88C13.19 1.99 13.43 2.11 13.67 2.24C13.91 2.37 14.14 2.51 14.37 2.66C14.59 2.81 14.81 2.97 15.02 3.15C15.23 3.32 15.43 3.5 15.62 3.69C15.81 3.88 15.99 4.08 16.16 4.29C16.34 4.5 16.5 4.72 16.65 4.94C16.8 5.17 16.94 5.4 17.07 5.64C17.2 5.88 17.32 6.12 17.43 6.37C17.53 6.63 17.63 6.88 17.71 7.15C17.79 7.41 17.86 7.68 17.92 7.95C17.97 8.23 18.02 8.51 18.04 8.79C18.07 9.08 18.09 9.37 18.09 9.66C18.09 9.95 18.07 10.23 18.04 10.52C18.02 10.8 17.97 11.08 17.92 11.36C17.86 11.63 17.79 11.9 17.71 12.16C17.63 12.43 17.53 12.68 17.43 12.94C17.32 13.19 17.2 13.43 17.07 13.67C16.94 13.91 16.8 14.14 16.65 14.37C16.5 14.59 16.34 14.81 16.16 15.02C15.99 15.23 15.81 15.43 15.62 15.62C15.43 15.81 15.23 15.99 15.02 16.16C14.81 16.34 14.59 16.5 14.37 16.65C14.14 16.8 13.91 16.94 13.67 17.07C13.43 17.2 13.19 17.32 12.94 17.43C12.68 17.53 12.43 17.63 12.16 17.71C11.9 17.79 11.63 17.86 11.36 17.92C11.08 17.97 10.8 18.02 10.52 18.04C10.23 18.07 9.95 18.09 9.66 18.09C9.37 18.09 9.08 18.07 8.79 18.04C8.51 18.02 8.23 17.97 7.95 17.92C7.68 17.86 7.41 17.79 7.15 17.71C6.88 17.63 6.63 17.53 6.37 17.43C6.12 17.32 5.88 17.2 5.64 17.07C5.4 16.94 5.17 16.8 4.94 16.65C4.72 16.5 4.5 16.34 4.29 16.16C4.08 15.99 3.88 15.81 3.69 15.62C3.5 15.43 3.32 15.23 3.15 15.02C2.97 14.81 2.81 14.59 2.66 14.37C2.51 14.14 2.37 13.91 2.24 13.67C2.11 13.43 1.99 13.19 1.88 12.94C1.78 12.68 1.68 12.43 1.6 12.16C1.52 11.9 1.45 11.63 1.39 11.36C1.34 11.08 1.29 10.8 1.27 10.52C1.24 10.23 1.22 9.95 1.22 9.66C1.22 9.37 1.24 9.08 1.27 8.79C1.29 8.51 1.34 8.23 1.39 7.95C1.45 7.68 1.52 7.41 1.6 7.15C1.68 6.88 1.78 6.63 1.88 6.37C1.99 6.12 2.11 5.88 2.24 5.64ZM10.29 12.57C10.29 12.56 10.3 12.55 10.3 12.54C10.3 12.53 10.3 12.52 10.31 12.51L10.31 12.48C10.32 12.46 10.32 12.45 10.32 12.44L10.32 12.41C10.33 12.4 10.33 12.39 10.33 12.38L10.33 4C10.33 3.99 10.33 3.98 10.32 3.97L10.32 3.93C10.32 3.92 10.32 3.91 10.31 3.9L10.31 3.87C10.3 3.86 10.3 3.85 10.3 3.84C10.3 3.83 10.29 3.82 10.29 3.81C10.29 3.8 10.28 3.79 10.28 3.78C10.27 3.77 10.27 3.76 10.26 3.75L10.25 3.72C10.24 3.71 10.24 3.7 10.23 3.69C10.23 3.68 10.22 3.67 10.21 3.66C10.21 3.65 10.2 3.64 10.2 3.63C10.19 3.62 10.18 3.62 10.18 3.61L10.15 3.58C10.15 3.57 10.14 3.57 10.13 3.56C10.12 3.55 10.12 3.54 10.11 3.53C10.1 3.53 10.09 3.52 10.08 3.51C10.07 3.51 10.06 3.5 10.06 3.49C10.05 3.49 10.04 3.48 10.03 3.47C10.02 3.47 10.01 3.46 10 3.46C9.99 3.45 9.98 3.45 9.97 3.44L9.94 3.43C9.93 3.42 9.92 3.42 9.91 3.41C9.9 3.41 9.89 3.4 9.88 3.4C9.87 3.4 9.86 3.39 9.85 3.39C9.84 3.39 9.83 3.38 9.82 3.38C9.81 3.38 9.8 3.38 9.79 3.37L9.75 3.37L9.72 3.36L9.59 3.36L9.56 3.37L9.52 3.37C9.51 3.38 9.5 3.38 9.49 3.38C9.48 3.38 9.47 3.39 9.46 3.39C9.45 3.39 9.44 3.4 9.43 3.4C9.42 3.4 9.41 3.41 9.4 3.41C9.39 3.42 9.38 3.42 9.37 3.43L9.34 3.44C9.33 3.45 9.32 3.45 9.31 3.46C9.3 3.46 9.29 3.47 9.28 3.47C9.27 3.48 9.26 3.49 9.25 3.49C9.25 3.5 9.24 3.51 9.23 3.51C9.22 3.52 9.21 3.53 9.2 3.53C9.2 3.54 9.19 3.55 9.18 3.56L9.16 3.58C9.15 3.59 9.14 3.6 9.14 3.61C9.13 3.62 9.12 3.62 9.12 3.63C9.11 3.64 9.1 3.65 9.1 3.66C9.09 3.67 9.08 3.68 9.08 3.69C9.07 3.7 9.07 3.71 9.06 3.72L9.05 3.75C9.04 3.76 9.04 3.77 9.03 3.78C9.03 3.79 9.03 3.8 9.02 3.81C9.02 3.82 9.02 3.83 9.01 3.84C9.01 3.85 9.01 3.86 9 3.87L9 3.9C8.99 3.91 8.99 3.92 8.99 3.93L8.99 3.97C8.99 3.98 8.98 3.99 8.98 4L8.98 12.38C8.98 12.39 8.99 12.4 8.99 12.41L8.99 12.44C8.99 12.45 8.99 12.46 9 12.48L9 12.51C9.01 12.52 9.01 12.53 9.01 12.54C9.02 12.55 9.02 12.56 9.02 12.57C9.03 12.58 9.03 12.59 9.03 12.6C9.04 12.61 9.04 12.62 9.05 12.63L9.06 12.66C9.07 12.67 9.07 12.68 9.08 12.69C9.08 12.7 9.09 12.71 9.1 12.72C9.1 12.73 9.11 12.74 9.12 12.75L9.14 12.77C9.14 12.78 9.15 12.79 9.16 12.8C9.17 12.8 9.17 12.81 9.18 12.82C9.19 12.83 9.2 12.83 9.2 12.84C9.21 12.85 9.22 12.86 9.23 12.86L9.25 12.88C9.26 12.89 9.27 12.9 9.28 12.9C9.29 12.91 9.3 12.92 9.31 12.92C9.32 12.93 9.33 12.93 9.34 12.94L9.37 12.95C9.38 12.96 9.39 12.96 9.4 12.97C9.41 12.97 9.42 12.97 9.43 12.98C9.44 12.98 9.45 12.98 9.46 12.99C9.47 12.99 9.48 12.99 9.49 13L9.52 13C9.54 13.01 9.55 13.01 9.56 13.01L9.59 13.01C9.6 13.01 9.61 13.02 9.62 13.02L9.69 13.02C9.7 13.02 9.71 13.01 9.72 13.01L9.75 13.01C9.77 13.01 9.78 13.01 9.79 13L9.82 13C9.83 12.99 9.84 12.99 9.85 12.99C9.86 12.98 9.87 12.98 9.88 12.98C9.89 12.97 9.9 12.97 9.91 12.97C9.92 12.96 9.93 12.96 9.94 12.95L9.97 12.94C9.98 12.93 9.99 12.93 10 12.92C10.01 12.92 10.02 12.91 10.03 12.9C10.04 12.9 10.05 12.89 10.06 12.88L10.08 12.86C10.09 12.86 10.1 12.85 10.11 12.84L10.15 12.8L10.18 12.77C10.18 12.76 10.19 12.75 10.2 12.75C10.2 12.74 10.21 12.73 10.21 12.72C10.22 12.71 10.23 12.7 10.23 12.69C10.24 12.68 10.24 12.67 10.25 12.66L10.26 12.63C10.27 12.62 10.27 12.61 10.28 12.6C10.28 12.59 10.29 12.58 10.29 12.57ZM9.66 13.93C10.2 13.93 10.63 14.37 10.63 14.91C10.63 15.45 10.2 15.89 9.66 15.89C9.12 15.89 8.68 15.45 8.68 14.91C8.68 14.37 9.12 13.93 9.66 13.93Z" /></g></g></svg>