<svg xmlns="http://www.w3.org/2000/svg" xmlns:xlink="http://www.w3.org/1999/xlink" width="22" height="22" viewBox="0 0 22 22" fill="none"><defs><rect id="path_0" x="0" y="0" width="22" height="22" /></defs><g opacity="1" transform="translate(0 0)  rotate(0 11 11)"><mask id="bg-mask-0" fill="white"><use xlink:href="#path_0"></use></mask><g mask="url(#bg-mask-0)" ><path id="并集" fill-rule="evenodd" style="fill:#000000" transform="translate(2.444444444444443 1.344444444444445)  rotate(0 8.555555555555554 9.411111111111111)" opacity="1" d="M0 16.38C0 17.73 1.09 18.82 2.44 18.82L14.67 18.82C16.02 18.82 17.11 17.73 17.11 16.38L17.11 5.87C17.11 4.92 16.34 4.16 15.4 4.16L12.77 4.16L12.77 3.91C12.77 3.87 12.77 3.83 12.76 3.78C12.76 3.72 12.75 3.65 12.74 3.59C12.73 3.5 12.72 3.42 12.7 3.34C12.67 3.13 12.61 2.92 12.55 2.72C12.47 2.46 12.36 2.22 12.24 2C12.09 1.73 11.92 1.48 11.72 1.26C11.49 1.01 11.23 0.79 10.93 0.61C10.61 0.42 10.25 0.27 9.86 0.16C9.44 0.06 8.99 0 8.49 0C8 0 7.55 0.06 7.13 0.16C6.74 0.27 6.38 0.42 6.06 0.61C5.76 0.79 5.5 1.01 5.27 1.26C5.07 1.48 4.9 1.73 4.75 2C4.63 2.22 4.52 2.46 4.44 2.72C4.37 2.92 4.32 3.13 4.28 3.34C4.27 3.42 4.26 3.5 4.25 3.59C4.24 3.65 4.23 3.72 4.23 3.78C4.22 3.83 4.22 3.87 4.22 3.91L4.22 4.16L1.71 4.16C0.77 4.16 0 4.92 0 5.87L0 16.38ZM5.82 2.58C5.92 2.4 6.04 2.23 6.17 2.09C6.33 1.92 6.5 1.78 6.69 1.66C6.91 1.52 7.16 1.42 7.44 1.35C7.76 1.26 8.11 1.22 8.49 1.22C8.88 1.22 9.23 1.26 9.55 1.35C9.83 1.42 10.07 1.52 10.3 1.66C10.49 1.78 10.66 1.92 10.81 2.09C10.95 2.23 11.07 2.4 11.17 2.58C11.25 2.74 11.33 2.92 11.39 3.1C11.44 3.25 11.47 3.4 11.5 3.56L11.53 3.74C11.54 3.79 11.54 3.83 11.55 3.88L11.55 4.16L5.44 4.16L5.44 3.88C5.45 3.83 5.45 3.79 5.46 3.74L5.49 3.56C5.51 3.4 5.55 3.25 5.6 3.1C5.66 2.92 5.74 2.74 5.82 2.58ZM15.79 16.85C15.76 16.93 15.73 17 15.68 17.06C15.64 17.13 15.59 17.19 15.53 17.24C15.48 17.3 15.41 17.35 15.35 17.39C15.28 17.44 15.22 17.47 15.14 17.5C15.07 17.54 14.99 17.56 14.91 17.58C14.83 17.59 14.75 17.6 14.67 17.6L2.44 17.6C2.36 17.6 2.28 17.59 2.2 17.58C2.12 17.56 2.04 17.54 1.97 17.5C1.9 17.47 1.83 17.44 1.76 17.39C1.7 17.35 1.64 17.3 1.58 17.24C1.52 17.19 1.47 17.13 1.43 17.06C1.39 17 1.35 16.93 1.32 16.85C1.29 16.78 1.26 16.7 1.25 16.63C1.23 16.55 1.22 16.46 1.22 16.38L1.22 5.87C1.22 5.8 1.23 5.74 1.26 5.68C1.27 5.65 1.29 5.62 1.31 5.59C1.32 5.57 1.34 5.54 1.37 5.52C1.39 5.5 1.41 5.48 1.44 5.46C1.47 5.44 1.49 5.43 1.52 5.42C1.58 5.39 1.64 5.38 1.71 5.38L4.22 5.38L4.22 6.93C4.23 6.94 4.23 6.95 4.23 6.96L4.23 6.99C4.24 7 4.24 7.01 4.24 7.02C4.25 7.03 4.25 7.04 4.25 7.05C4.26 7.06 4.26 7.07 4.26 7.08C4.27 7.09 4.27 7.1 4.28 7.11C4.28 7.11 4.28 7.12 4.29 7.13L4.3 7.16C4.31 7.17 4.31 7.18 4.32 7.18C4.33 7.19 4.33 7.2 4.34 7.21C4.34 7.22 4.35 7.22 4.35 7.23L4.44 7.32C4.45 7.32 4.46 7.33 4.46 7.34C4.47 7.34 4.48 7.35 4.49 7.35C4.5 7.36 4.51 7.36 4.51 7.37L4.54 7.38C4.55 7.39 4.56 7.39 4.57 7.4C4.58 7.4 4.58 7.41 4.59 7.41C4.6 7.41 4.61 7.42 4.62 7.42C4.63 7.42 4.64 7.43 4.65 7.43C4.66 7.43 4.67 7.43 4.68 7.44L4.71 7.44C4.72 7.45 4.73 7.45 4.74 7.45L4.8 7.45C4.81 7.46 4.82 7.46 4.83 7.46C4.84 7.46 4.85 7.46 4.86 7.45L4.92 7.45C4.93 7.45 4.94 7.45 4.95 7.44L4.98 7.44C4.99 7.43 5 7.43 5.01 7.43C5.01 7.43 5.02 7.42 5.03 7.42C5.04 7.42 5.05 7.41 5.06 7.41C5.07 7.41 5.08 7.4 5.09 7.4C5.1 7.39 5.11 7.39 5.12 7.38L5.14 7.37C5.15 7.36 5.16 7.36 5.17 7.35C5.18 7.35 5.18 7.34 5.19 7.34C5.2 7.33 5.21 7.32 5.22 7.32C5.22 7.31 5.23 7.3 5.24 7.3C5.25 7.29 5.25 7.28 5.26 7.28C5.27 7.27 5.27 7.26 5.28 7.26C5.29 7.25 5.29 7.24 5.3 7.23L5.32 7.21C5.32 7.2 5.33 7.19 5.34 7.18C5.34 7.18 5.35 7.17 5.35 7.16L5.37 7.13C5.37 7.12 5.38 7.11 5.38 7.11C5.38 7.1 5.39 7.09 5.39 7.08C5.4 7.07 5.4 7.06 5.4 7.05C5.41 7.04 5.41 7.03 5.41 7.02C5.42 7.01 5.42 7 5.42 6.99C5.42 6.98 5.43 6.97 5.43 6.96L5.43 6.93L5.44 6.9L5.44 5.38L11.55 5.38L11.55 6.9L11.56 6.93L11.56 6.96C11.56 6.97 11.57 6.98 11.57 6.99C11.57 7 11.57 7.01 11.58 7.02C11.58 7.03 11.58 7.04 11.59 7.05C11.59 7.06 11.59 7.07 11.6 7.08C11.6 7.09 11.6 7.1 11.61 7.11C11.61 7.11 11.62 7.12 11.62 7.13L11.64 7.16C11.64 7.17 11.65 7.18 11.65 7.18C11.66 7.19 11.66 7.2 11.67 7.21L11.69 7.23C11.7 7.24 11.7 7.25 11.71 7.26L11.73 7.28C11.74 7.28 11.74 7.29 11.75 7.3C11.76 7.3 11.77 7.31 11.77 7.32C11.78 7.32 11.79 7.33 11.8 7.34C11.81 7.34 11.81 7.35 11.82 7.35C11.83 7.36 11.84 7.36 11.85 7.37L11.87 7.38C11.88 7.39 11.89 7.39 11.9 7.4C11.91 7.4 11.92 7.41 11.93 7.41C11.94 7.41 11.95 7.42 11.96 7.42C11.96 7.42 11.97 7.43 11.98 7.43C11.99 7.43 12 7.43 12.01 7.44L12.04 7.44C12.05 7.45 12.06 7.45 12.07 7.45L12.13 7.45C12.14 7.46 12.15 7.46 12.16 7.46C12.17 7.46 12.18 7.46 12.19 7.45L12.25 7.45C12.26 7.45 12.27 7.45 12.28 7.44L12.31 7.44C12.32 7.43 12.33 7.43 12.34 7.43C12.35 7.43 12.36 7.42 12.37 7.42C12.38 7.42 12.39 7.41 12.39 7.41C12.4 7.41 12.41 7.4 12.42 7.4C12.43 7.39 12.44 7.39 12.45 7.38L12.48 7.37C12.48 7.36 12.49 7.36 12.5 7.35C12.51 7.35 12.52 7.34 12.53 7.34C12.53 7.33 12.54 7.32 12.55 7.32C12.56 7.31 12.56 7.3 12.57 7.3L12.59 7.28L12.61 7.26C12.62 7.25 12.63 7.24 12.63 7.23C12.64 7.22 12.65 7.22 12.65 7.21C12.66 7.2 12.66 7.19 12.67 7.18L12.69 7.16L12.7 7.13C12.7 7.12 12.71 7.11 12.71 7.11C12.72 7.1 12.72 7.09 12.73 7.08C12.73 7.07 12.73 7.06 12.74 7.05C12.74 7.04 12.74 7.03 12.75 7.02L12.75 6.99C12.76 6.98 12.76 6.97 12.76 6.96C12.76 6.95 12.76 6.94 12.77 6.93L12.77 5.38L15.4 5.38C15.47 5.38 15.53 5.39 15.59 5.42C15.62 5.43 15.65 5.44 15.67 5.46C15.7 5.48 15.72 5.5 15.75 5.52C15.77 5.54 15.79 5.57 15.81 5.59C15.82 5.62 15.84 5.65 15.85 5.68C15.88 5.74 15.89 5.8 15.89 5.87L15.89 16.38C15.89 16.46 15.88 16.55 15.86 16.63C15.85 16.7 15.82 16.78 15.79 16.85Z" /></g></g></svg>