<svg xmlns="http://www.w3.org/2000/svg" xmlns:xlink="http://www.w3.org/1999/xlink" width="22" height="22" viewBox="0 0 22 22" fill="none"><defs><rect id="path_0" x="0" y="0" width="22" height="22" /></defs><g opacity="1" transform="translate(0 0)  rotate(0 11 11)"><mask id="bg-mask-0" fill="white"><use xlink:href="#path_0"></use></mask><g mask="url(#bg-mask-0)" ><path id="路径 2 (轮廓)" fill-rule="evenodd" style="fill:#000000" transform="translate(1.4974777037967577 2.9944444444444436)  rotate(0 9.502522296203251 8.224486111111112)" opacity="1" d="M13.92 0C14.8 0 15.65 0.19 16.4 0.54C16.79 0.72 17.14 0.95 17.45 1.21C17.77 1.48 18.05 1.78 18.28 2.12C18.49 2.44 18.66 2.78 18.78 3.15C18.91 3.53 18.98 3.95 19 4.37C19.04 5.3 18.84 6.3 18.39 7.37C17.81 8.75 16.82 10.2 15.44 11.66C14.7 12.45 13.84 13.25 12.87 14.05C12.17 14.63 10.8 15.68 10.04 16.27C9.72 16.51 9.28 16.51 8.96 16.27C8.2 15.68 6.83 14.63 6.13 14.05C5.17 13.25 4.3 12.45 3.56 11.66C2.19 10.2 1.2 8.75 0.61 7.37C0.17 6.3 -0.04 5.3 0.01 4.37C0.03 3.95 0.1 3.53 0.23 3.15C0.35 2.78 0.52 2.44 0.73 2.12C0.96 1.78 1.23 1.48 1.55 1.21C1.87 0.95 2.22 0.72 2.6 0.54C3.35 0.19 4.21 0 5.08 0C5.49 0 5.89 0.04 6.29 0.12C6.69 0.2 7.08 0.33 7.45 0.49C7.84 0.65 8.2 0.86 8.52 1.1C8.56 1.13 8.59 1.16 8.63 1.18C8.93 1.42 9.21 1.68 9.45 1.98L9.5 2.04L9.56 1.98C9.8 1.68 10.07 1.42 10.38 1.18C10.41 1.16 10.45 1.13 10.48 1.1C10.81 0.86 11.17 0.65 11.55 0.49C11.92 0.33 12.31 0.2 12.72 0.12C13.11 0.04 13.52 0 13.92 0ZM6.04 1.32C5.89 1.29 5.73 1.26 5.57 1.25C5.41 1.23 5.25 1.22 5.08 1.22C4.91 1.22 4.74 1.23 4.56 1.25C4.39 1.27 4.22 1.3 4.06 1.33C3.89 1.37 3.73 1.41 3.57 1.47C3.42 1.52 3.27 1.58 3.12 1.65C2.98 1.72 2.84 1.79 2.71 1.88C2.58 1.96 2.45 2.05 2.34 2.15C2.22 2.24 2.11 2.35 2.01 2.46C1.91 2.57 1.82 2.68 1.74 2.8C1.67 2.91 1.6 3.03 1.54 3.15C1.48 3.28 1.43 3.4 1.39 3.53C1.34 3.67 1.31 3.81 1.28 3.96C1.25 4.11 1.23 4.27 1.23 4.43Q1.2 4.97 1.32 5.57C1.41 6 1.55 6.44 1.74 6.9C1.87 7.2 2.02 7.51 2.19 7.82C2.37 8.14 2.57 8.47 2.8 8.79C3.03 9.12 3.28 9.46 3.55 9.79C3.83 10.13 4.13 10.48 4.45 10.82C4.81 11.2 5.19 11.57 5.6 11.95C6.01 12.34 6.45 12.72 6.91 13.1C7.21 13.35 7.67 13.72 8.28 14.19C8.66 14.49 9.06 14.8 9.5 15.14C9.94 14.8 10.35 14.49 10.73 14.19C11.34 13.72 11.79 13.35 12.1 13.1C12.56 12.72 13 12.34 13.41 11.95C13.82 11.57 14.2 11.19 14.55 10.82C14.88 10.48 15.18 10.13 15.45 9.79C15.73 9.46 15.98 9.12 16.21 8.79C16.43 8.47 16.63 8.14 16.81 7.82C16.99 7.51 17.14 7.2 17.27 6.9C17.46 6.44 17.6 6 17.68 5.58C17.76 5.17 17.8 4.79 17.78 4.43C17.77 4.27 17.75 4.11 17.73 3.96C17.7 3.81 17.66 3.67 17.62 3.53C17.58 3.4 17.52 3.28 17.46 3.15C17.4 3.03 17.34 2.91 17.26 2.8C17.18 2.68 17.09 2.57 16.99 2.46C16.89 2.35 16.78 2.24 16.67 2.15C16.55 2.05 16.43 1.96 16.3 1.88C16.17 1.79 16.03 1.72 15.88 1.65C15.74 1.58 15.59 1.52 15.43 1.47C15.27 1.41 15.11 1.37 14.95 1.33C14.78 1.3 14.61 1.27 14.44 1.25C14.27 1.23 14.1 1.22 13.92 1.22C13.76 1.22 13.6 1.23 13.44 1.25C13.28 1.26 13.12 1.29 12.96 1.32C12.8 1.35 12.64 1.39 12.49 1.44C12.33 1.49 12.18 1.54 12.04 1.61C11.89 1.67 11.75 1.74 11.61 1.82C11.47 1.9 11.33 1.99 11.21 2.09C11.08 2.18 10.95 2.29 10.83 2.4C10.71 2.51 10.6 2.63 10.5 2.76L9.5 3.94L8.52 2.77L8.51 2.76C8.4 2.63 8.29 2.51 8.17 2.4C8.05 2.29 7.93 2.18 7.8 2.08C7.67 1.99 7.54 1.9 7.4 1.82C7.26 1.74 7.11 1.67 6.97 1.61C6.82 1.54 6.67 1.49 6.52 1.44C6.36 1.39 6.2 1.35 6.04 1.32Z" /></g></g></svg>