<svg xmlns="http://www.w3.org/2000/svg" xmlns:xlink="http://www.w3.org/1999/xlink" width="22" height="22" viewBox="0 0 22 22" fill="none"><defs><rect id="path_0" x="0" y="0" width="22" height="22" /><filter id="filter_2" x="1.1272620038867238" y="6.0772586122144645" width="19.861110965174127" height="9.906593740745258" filterUnits="userSpaceOnUse" color-interpolation-filters="sRGB"></filter></defs><g opacity="1" transform="translate(0 0)  rotate(0 11 11)"><mask id="bg-mask-0" fill="white"><use xlink:href="#path_0"></use></mask><g mask="url(#bg-mask-0)" ><path id="路径 1 (轮廓)" fill-rule="evenodd" style="fill:#000000" transform="translate(1.1272620038867238 6.0772586122144645)  rotate(-90 9.930555482587064 4.953296870372629)" opacity="1" d="M19.48,9.86C19.5,9.85 19.52,9.84 19.54,9.84C19.55,9.83 19.57,9.82 19.59,9.8C19.6,9.79 19.62,9.78 19.64,9.77C19.65,9.76 19.67,9.74 19.68,9.73C19.69,9.72 19.69,9.71 19.7,9.71C19.71,9.7 19.71,9.69 19.72,9.68C19.73,9.68 19.73,9.67 19.74,9.66C19.75,9.65 19.75,9.64 19.76,9.64C19.76,9.63 19.77,9.62 19.77,9.61C19.78,9.6 19.78,9.59 19.79,9.59C19.79,9.58 19.8,9.57 19.8,9.56C19.81,9.55 19.81,9.54 19.81,9.53C19.82,9.52 19.82,9.51 19.82,9.5C19.83,9.49 19.83,9.48 19.83,9.47C19.84,9.47 19.84,9.46 19.84,9.45C19.84,9.44 19.85,9.43 19.85,9.42C19.85,9.41 19.85,9.4 19.85,9.39C19.86,9.38 19.86,9.37 19.86,9.36C19.86,9.35 19.86,9.34 19.86,9.33C19.86,9.32 19.86,9.31 19.86,9.3C19.86,9.29 19.86,9.28 19.86,9.27C19.86,9.26 19.86,9.25 19.86,9.24C19.86,9.23 19.86,9.22 19.85,9.21C19.85,9.2 19.85,9.19 19.85,9.18C19.85,9.17 19.85,9.16 19.84,9.15C19.84,9.14 19.84,9.13 19.84,9.12C19.83,9.11 19.83,9.1 19.83,9.09C19.82,9.08 19.82,9.07 19.82,9.06C19.81,9.05 19.81,9.05 19.8,9.04C19.8,9.03 19.79,9.02 19.79,9.01C19.79,9 19.78,8.99 19.78,8.98C19.77,8.97 19.76,8.97 19.76,8.96C19.75,8.95 19.75,8.94 19.74,8.93C19.74,8.93 19.73,8.92 19.72,8.91C19.72,8.9 19.71,8.89 19.7,8.89C19.7,8.88 19.69,8.87 19.68,8.86L19.25,9.3L19.68,8.86L11.49,0.61C11.39,0.51 11.28,0.42 11.16,0.35C11.05,0.27 10.93,0.21 10.8,0.16C10.68,0.1 10.55,0.07 10.42,0.04C10.29,0.01 10.16,0 10.02,0C9.89,0 9.76,0.01 9.63,0.04C9.5,0.06 9.37,0.1 9.24,0.15C9.12,0.2 8.99,0.26 8.88,0.34C8.76,0.41 8.65,0.5 8.55,0.6L0.18,8.86L0.76,9.44L0.18,8.86C0.17,8.87 0.17,8.87 0.16,8.88C0.15,8.89 0.15,8.9 0.14,8.9C0.13,8.91 0.13,8.92 0.12,8.93C0.12,8.94 0.11,8.94 0.11,8.95C0.1,8.96 0.09,8.97 0.09,8.98C0.08,8.99 0.08,9 0.07,9C0.07,9.01 0.06,9.02 0.06,9.03C0.06,9.04 0.05,9.05 0.05,9.06C0.04,9.07 0.04,9.08 0.04,9.09C0.03,9.1 0.03,9.1 0.03,9.11C0.02,9.12 0.02,9.13 0.02,9.14C0.02,9.15 0.01,9.16 0.01,9.17C0.01,9.18 0.01,9.19 0.01,9.2C0.01,9.21 0,9.22 0,9.23C0,9.24 0,9.25 0,9.26C0,9.27 0,9.28 0,9.29C0,9.3 0,9.31 0,9.32C0,9.33 0,9.34 0,9.35C0,9.36 0,9.37 0.01,9.38C0.01,9.39 0.01,9.4 0.01,9.41C0.01,9.42 0.01,9.43 0.02,9.44C0.02,9.45 0.02,9.46 0.03,9.47C0.03,9.48 0.03,9.49 0.03,9.5C0.04,9.51 0.04,9.52 0.05,9.53C0.05,9.53 0.05,9.54 0.06,9.55C0.06,9.56 0.07,9.57 0.07,9.58C0.07,9.59 0.08,9.6 0.08,9.61C0.09,9.61 0.1,9.62 0.1,9.63C0.11,9.64 0.11,9.65 0.12,9.66C0.12,9.66 0.13,9.67 0.14,9.68C0.14,9.69 0.15,9.7 0.16,9.7C0.16,9.71 0.17,9.72 0.18,9.72C0.19,9.74 0.2,9.75 0.22,9.77C0.24,9.78 0.25,9.79 0.27,9.8C0.28,9.81 0.3,9.82 0.32,9.83C0.34,9.84 0.36,9.85 0.37,9.86C0.39,9.87 0.41,9.87 0.43,9.88C0.45,9.89 0.47,9.89 0.49,9.89C0.51,9.9 0.53,9.9 0.55,9.9C0.57,9.91 0.59,9.91 0.61,9.91C0.63,9.91 0.65,9.91 0.67,9.9C0.69,9.9 0.71,9.9 0.73,9.9C0.75,9.89 0.77,9.89 0.78,9.88C0.8,9.88 0.82,9.87 0.84,9.86C0.86,9.85 0.88,9.85 0.9,9.84C0.91,9.83 0.93,9.82 0.95,9.81C0.96,9.79 0.98,9.78 1,9.77C1.01,9.76 1.03,9.74 1.04,9.73L9.41,1.47C9.45,1.43 9.5,1.39 9.55,1.36C9.59,1.33 9.64,1.3 9.69,1.28C9.75,1.26 9.8,1.25 9.85,1.24C9.91,1.23 9.96,1.22 10.02,1.22C10.07,1.22 10.13,1.23 10.18,1.24C10.23,1.25 10.29,1.27 10.34,1.29C10.39,1.31 10.44,1.33 10.48,1.36C10.53,1.4 10.58,1.43 10.62,1.47L18.82,9.73C18.83,9.74 18.85,9.75 18.86,9.77C18.88,9.78 18.89,9.79 18.91,9.8C18.93,9.81 18.94,9.82 18.96,9.83C18.98,9.84 19,9.85 19.01,9.86C19.03,9.87 19.05,9.87 19.07,9.88C19.09,9.89 19.11,9.89 19.13,9.89C19.15,9.9 19.17,9.9 19.19,9.9C19.21,9.91 19.23,9.91 19.25,9.91C19.27,9.91 19.29,9.91 19.31,9.9C19.33,9.9 19.35,9.9 19.37,9.9C19.39,9.89 19.41,9.89 19.43,9.88C19.44,9.88 19.46,9.87 19.48,9.86Z " /></g></g></svg>