<svg xmlns="http://www.w3.org/2000/svg" xmlns:xlink="http://www.w3.org/1999/xlink" width="22" height="22" viewBox="0 0 22 22" fill="none"><defs><rect id="path_0" x="0" y="0" width="22" height="22" /><filter id="filter_2" x="2.159999280174411" y="6.541183653580724" width="17.691685624763593" height="8.825986179186422" filterUnits="userSpaceOnUse" color-interpolation-filters="sRGB"></filter></defs><g opacity="1" transform="translate(0 0)  rotate(90 11 11)"><mask id="bg-mask-0" fill="white"><use xlink:href="#path_0"></use></mask><g mask="url(#bg-mask-0)" ><path id="路径 1 (轮廓)" fill-rule="evenodd" style="fill:#000000" transform="translate(2.159999280174411 6.541183653580724)  rotate(-270 8.845842812381797 4.412993089593211)" opacity="1" d="M8.3,7.46C8.25,7.43 8.21,7.39 8.17,7.35L1.04,0.18C1.02,0.15 0.99,0.13 0.96,0.11C0.94,0.1 0.93,0.09 0.91,0.08C0.9,0.07 0.88,0.06 0.87,0.06C0.85,0.05 0.83,0.04 0.82,0.04C0.8,0.03 0.78,0.02 0.77,0.02C0.75,0.02 0.73,0.01 0.72,0.01C0.7,0.01 0.68,0 0.66,0C0.65,0 0.63,0 0.61,0C0.59,0 0.57,0 0.56,0C0.54,0 0.52,0.01 0.5,0.01C0.49,0.01 0.47,0.02 0.45,0.02C0.44,0.03 0.42,0.03 0.4,0.04C0.39,0.04 0.37,0.05 0.35,0.06C0.34,0.06 0.32,0.07 0.31,0.08C0.29,0.09 0.28,0.1 0.26,0.11C0.25,0.12 0.23,0.13 0.22,0.14C0.21,0.15 0.19,0.17 0.18,0.18C0.15,0.2 0.13,0.23 0.11,0.26C0.1,0.28 0.09,0.29 0.08,0.31C0.07,0.32 0.06,0.34 0.06,0.36C0.05,0.37 0.04,0.39 0.04,0.4C0.03,0.42 0.02,0.44 0.02,0.45C0.02,0.47 0.01,0.49 0.01,0.51C0.01,0.52 0,0.54 0,0.56C0,0.58 0,0.59 0,0.61C0,0.63 0,0.65 0,0.66C0,0.68 0.01,0.7 0.01,0.72C0.01,0.73 0.02,0.75 0.02,0.77C0.03,0.79 0.03,0.8 0.04,0.82C0.04,0.84 0.05,0.85 0.06,0.87C0.06,0.88 0.07,0.9 0.08,0.92C0.09,0.93 0.1,0.95 0.11,0.96C0.12,0.97 0.13,0.99 0.14,1C0.15,1.02 0.17,1.03 0.18,1.04L7.3,8.21C7.4,8.31 7.51,8.4 7.62,8.48C7.74,8.55 7.86,8.62 7.99,8.67C8.11,8.72 8.24,8.76 8.37,8.79C8.5,8.81 8.63,8.83 8.76,8.83C8.9,8.83 9.03,8.81 9.16,8.79C9.29,8.77 9.42,8.73 9.55,8.68C9.67,8.63 9.79,8.56 9.91,8.49C10.03,8.41 10.13,8.33 10.24,8.23L17.51,1.05C17.51,1.04 17.51,1.04 17.52,1.04C17.54,1.01 17.57,0.98 17.59,0.95C17.61,0.92 17.63,0.88 17.64,0.85C17.66,0.81 17.67,0.77 17.68,0.73C17.69,0.69 17.69,0.65 17.69,0.62C17.69,0.6 17.69,0.58 17.69,0.56C17.69,0.54 17.68,0.52 17.68,0.5C17.68,0.48 17.67,0.46 17.67,0.44C17.66,0.42 17.65,0.4 17.65,0.38C17.64,0.36 17.63,0.34 17.62,0.33C17.61,0.31 17.6,0.29 17.59,0.27C17.58,0.26 17.57,0.24 17.56,0.23C17.54,0.21 17.53,0.2 17.52,0.18L17.52,0.18C17.5,0.17 17.49,0.16 17.48,0.14C17.45,0.12 17.42,0.1 17.39,0.08C17.36,0.07 17.33,0.05 17.29,0.04C17.26,0.03 17.23,0.02 17.19,0.01C17.16,0 17.12,0 17.08,0C17.07,0 17.06,0 17.05,0C17.02,0 16.98,0.01 16.94,0.02C16.91,0.02 16.87,0.04 16.84,0.05C16.8,0.07 16.77,0.08 16.74,0.11C16.71,0.13 16.68,0.15 16.65,0.18L9.38,7.36C9.33,7.4 9.29,7.43 9.24,7.47C9.19,7.5 9.14,7.52 9.09,7.54C9.04,7.56 8.99,7.58 8.93,7.59C8.88,7.6 8.83,7.6 8.77,7.6C8.72,7.6 8.66,7.6 8.61,7.59C8.55,7.58 8.5,7.56 8.45,7.54C8.4,7.52 8.35,7.49 8.3,7.46Z " /></g></g></svg>