<svg xmlns="http://www.w3.org/2000/svg" xmlns:xlink="http://www.w3.org/1999/xlink" width="22" height="22" viewBox="0 0 22 22" fill="none"><defs><rect id="path_0" x="0" y="0" width="22" height="22" /></defs><g opacity="1" transform="translate(0 0)  rotate(0 11 11)"><mask id="bg-mask-0" fill="white"><use xlink:href="#path_0"></use></mask><g mask="url(#bg-mask-0)" ><path id="并集" fill-rule="evenodd" style="fill:#000000" transform="translate(1.6214693515781367 1.5017190904766213)  rotate(0 9.33673358493381 9.598057810465495)" opacity="1" d="M18.45 4.67C18.39 4.6 18.32 4.53 18.25 4.47C18.17 4.41 18.09 4.37 18 4.33L8.05 0.09C7.96 0.05 7.87 0.02 7.77 0.01C7.68 0 7.59 0 7.49 0.01C7.4 0.02 7.31 0.04 7.22 0.07C7.13 0.11 7.05 0.15 6.97 0.21C6.89 0.27 6.82 0.33 6.76 0.41C6.7 0.48 6.65 0.56 6.62 0.65C6.58 0.73 6.55 0.82 6.53 0.92C6.52 1.01 6.51 1.11 6.52 1.2L6.74 3.58L0.5 9.47C0.4 9.56 0.32 9.66 0.25 9.77C0.18 9.88 0.12 10 0.08 10.12C0.04 10.25 0.01 10.38 0 10.51C-0.01 10.64 0 10.77 0.03 10.9C0.05 11.03 0.09 11.16 0.14 11.28C0.2 11.4 0.27 11.51 0.35 11.61C0.43 11.71 0.52 11.8 0.63 11.88C0.73 11.97 0.85 12.03 0.97 12.08L6.96 14.63L5.38 18.35C5.37 18.35 5.37 18.36 5.37 18.37C5.36 18.38 5.36 18.39 5.36 18.4L5.35 18.43C5.35 18.44 5.34 18.45 5.34 18.46L5.34 18.49C5.33 18.5 5.33 18.51 5.33 18.52L5.33 18.67C5.34 18.68 5.34 18.69 5.34 18.7L5.34 18.73C5.35 18.74 5.35 18.75 5.35 18.76C5.36 18.77 5.36 18.78 5.36 18.79C5.37 18.79 5.37 18.8 5.37 18.81C5.38 18.82 5.38 18.83 5.38 18.84C5.39 18.85 5.39 18.86 5.4 18.87C5.4 18.88 5.41 18.89 5.41 18.89C5.42 18.9 5.42 18.91 5.43 18.92C5.43 18.93 5.44 18.94 5.45 18.94L5.46 18.97C5.47 18.98 5.48 18.98 5.48 18.99L5.5 19.01C5.51 19.02 5.52 19.03 5.53 19.03C5.53 19.04 5.54 19.05 5.55 19.05C5.56 19.06 5.56 19.07 5.57 19.07C5.58 19.08 5.59 19.08 5.59 19.09C5.6 19.1 5.61 19.1 5.62 19.11L5.65 19.12C5.66 19.13 5.66 19.13 5.67 19.13C5.68 19.14 5.69 19.14 5.7 19.15C5.71 19.15 5.72 19.15 5.73 19.16C5.74 19.16 5.75 19.16 5.76 19.17L5.78 19.18L5.82 19.18C5.82 19.19 5.83 19.19 5.84 19.19L5.87 19.19C5.88 19.19 5.89 19.2 5.9 19.2L5.96 19.2C5.97 19.19 5.98 19.19 5.99 19.19L6.05 19.19C6.06 19.18 6.07 19.18 6.08 19.18C6.09 19.18 6.1 19.17 6.11 19.17C6.12 19.17 6.13 19.17 6.14 19.16C6.15 19.16 6.16 19.16 6.17 19.15C6.18 19.15 6.19 19.14 6.19 19.14C6.2 19.14 6.21 19.13 6.22 19.13C6.23 19.12 6.24 19.12 6.25 19.11C6.26 19.11 6.27 19.1 6.27 19.1C6.28 19.09 6.29 19.09 6.3 19.08L6.32 19.06C6.33 19.05 6.34 19.05 6.35 19.04C6.35 19.03 6.36 19.03 6.37 19.02C6.37 19.01 6.38 19.01 6.39 19L6.41 18.98C6.41 18.97 6.42 18.96 6.43 18.95C6.43 18.95 6.44 18.94 6.44 18.93C6.45 18.92 6.46 18.91 6.46 18.9L6.48 18.88C6.48 18.87 6.49 18.86 6.49 18.85C6.49 18.84 6.5 18.83 6.5 18.82L8.08 15.11L14.2 17.72C14.32 17.77 14.44 17.81 14.58 17.83C14.7 17.85 14.83 17.85 14.96 17.84C15.09 17.83 15.22 17.8 15.34 17.76C15.47 17.71 15.59 17.65 15.7 17.58C15.81 17.51 15.91 17.42 16 17.32C16.08 17.23 16.16 17.12 16.22 17.01C16.28 16.89 16.33 16.77 16.36 16.64C16.39 16.52 16.41 16.39 16.41 16.25L16.39 7.69L18.26 6.2C18.33 6.14 18.4 6.07 18.46 5.99C18.51 5.92 18.56 5.84 18.59 5.75C18.63 5.66 18.65 5.57 18.66 5.48C18.68 5.38 18.68 5.29 18.66 5.19C18.65 5.1 18.62 5 18.59 4.92C18.55 4.83 18.5 4.75 18.45 4.67ZM14.68 16.59L1.45 10.96C1.42 10.95 1.39 10.93 1.37 10.91C1.34 10.89 1.32 10.87 1.3 10.85C1.28 10.83 1.27 10.8 1.26 10.77C1.24 10.74 1.23 10.72 1.23 10.69C1.22 10.66 1.22 10.63 1.22 10.6C1.23 10.56 1.23 10.54 1.24 10.51C1.25 10.48 1.26 10.45 1.28 10.43C1.3 10.4 1.32 10.38 1.34 10.35L7.62 4.43C7.68 4.37 7.74 4.3 7.78 4.24C7.83 4.17 7.87 4.09 7.9 4.02C7.93 3.94 7.95 3.86 7.96 3.78C7.97 3.69 7.97 3.61 7.96 3.53L7.76 1.29L17.34 5.37L15.58 6.77C15.52 6.82 15.46 6.88 15.41 6.95C15.36 7.01 15.31 7.08 15.28 7.16C15.24 7.23 15.22 7.31 15.2 7.39C15.18 7.47 15.17 7.55 15.17 7.63L15.19 16.26C15.19 16.29 15.18 16.32 15.18 16.35C15.17 16.37 15.16 16.4 15.14 16.43C15.13 16.46 15.11 16.48 15.09 16.5C15.07 16.52 15.05 16.55 15.02 16.56C15 16.58 14.97 16.59 14.94 16.6C14.91 16.61 14.88 16.62 14.85 16.62L14.76 16.62C14.73 16.61 14.7 16.61 14.68 16.59Z" /></g></g></svg>