<svg xmlns="http://www.w3.org/2000/svg" xmlns:xlink="http://www.w3.org/1999/xlink" width="22" height="22" viewBox="0 0 22 22" fill="none"><defs><rect id="path_0" x="0" y="0" width="22" height="22" /></defs><g opacity="1" transform="translate(0 0)  rotate(0 11 11)"><mask id="bg-mask-0" fill="white"><use xlink:href="#path_0"></use></mask><g mask="url(#bg-mask-0)" ><path id="并集" fill-rule="evenodd" style="fill:#000000" transform="translate(2.81111111111111 2.444444444444443)  rotate(0 8.188888888888888 8.555555555555555)" opacity="1" d="M0 1.47C0 0.66 0.66 0 1.47 0L14.91 0C15.72 0 16.38 0.66 16.38 1.47L16.38 15.64C16.38 16.45 15.72 17.11 14.91 17.11L1.47 17.11C0.66 17.11 0 16.45 0 15.64L0 1.47ZM1.29 15.82C1.32 15.84 1.34 15.86 1.37 15.87C1.4 15.88 1.43 15.89 1.47 15.89L14.91 15.89C14.95 15.89 14.98 15.88 15.01 15.87C15.04 15.86 15.06 15.84 15.08 15.82C15.11 15.79 15.12 15.77 15.14 15.74C15.15 15.71 15.16 15.68 15.16 15.64L15.16 14.77C14.78 14.74 14.42 14.66 14.07 14.53C13.68 14.38 13.31 14.18 12.95 13.9C12.81 13.79 12.66 13.66 12.52 13.52C12.39 13.4 12.27 13.27 12.15 13.13C12.05 13.02 11.95 12.9 11.84 12.76C11.8 12.71 11.76 12.65 11.71 12.59C11.68 12.56 11.64 12.5 11.59 12.44C11.55 12.38 11.52 12.34 11.5 12.32C11.47 12.27 11.44 12.24 11.42 12.21C11.37 12.15 11.33 12.1 11.3 12.07C11.26 12.03 11.22 11.98 11.16 11.91C11.14 11.88 11.09 11.83 11.03 11.75C10.98 11.69 10.94 11.65 10.92 11.62C10.88 11.57 10.84 11.52 10.8 11.48C10.71 11.37 10.62 11.28 10.53 11.19C10.43 11.09 10.33 10.99 10.22 10.9C10.1 10.81 9.98 10.72 9.86 10.64C9.72 10.55 9.57 10.47 9.42 10.4C9.26 10.32 9.09 10.26 8.91 10.2C8.5 10.08 8.06 10.02 7.57 10.02C6.54 10.02 5.67 10.27 4.96 10.78C4.83 10.87 4.69 10.98 4.57 11.1C4.46 11.2 4.35 11.31 4.25 11.42C4.17 11.52 4.08 11.62 4 11.73C3.96 11.77 3.93 11.82 3.89 11.87C3.87 11.9 3.84 11.95 3.8 12C3.79 12.01 3.79 12.02 3.78 12.03L3.76 12.05C3.75 12.06 3.75 12.07 3.74 12.07C3.73 12.08 3.73 12.09 3.72 12.09C3.71 12.1 3.71 12.11 3.7 12.11C3.69 12.12 3.68 12.13 3.67 12.13C3.67 12.14 3.66 12.15 3.65 12.15C3.64 12.16 3.63 12.16 3.63 12.17C3.62 12.17 3.61 12.18 3.6 12.18C3.59 12.19 3.58 12.19 3.57 12.2C3.56 12.2 3.56 12.21 3.55 12.21C3.54 12.21 3.53 12.22 3.52 12.22C3.51 12.22 3.5 12.23 3.49 12.23C3.48 12.23 3.47 12.24 3.46 12.24L3.43 12.25L3.4 12.25L3.37 12.26L3.22 12.26C3.21 12.26 3.2 12.25 3.19 12.25L3.16 12.25C3.15 12.24 3.14 12.24 3.13 12.24C3.13 12.24 3.12 12.23 3.11 12.23C3.1 12.23 3.09 12.22 3.08 12.22C3.07 12.22 3.06 12.21 3.05 12.21C3.04 12.2 3.03 12.2 3.02 12.2L3 12.18L2.97 12.17C2.96 12.16 2.95 12.16 2.95 12.15C2.93 12.13 2.91 12.12 2.89 12.1C2.87 12.09 2.86 12.07 2.84 12.05C2.82 12.03 2.81 12.01 2.79 11.99L2.76 11.93C2.75 11.91 2.74 11.89 2.73 11.86C2.72 11.84 2.71 11.82 2.71 11.79C2.7 11.77 2.7 11.75 2.69 11.72L2.69 11.65C2.69 11.62 2.69 11.59 2.7 11.56C2.7 11.53 2.71 11.5 2.72 11.46C2.73 11.43 2.74 11.41 2.75 11.38C2.77 11.35 2.78 11.32 2.8 11.3C2.84 11.24 2.88 11.19 2.9 11.16C2.94 11.1 2.98 11.04 3.02 10.99C3.13 10.86 3.23 10.73 3.33 10.61C3.46 10.46 3.6 10.33 3.74 10.2C3.9 10.05 4.08 9.91 4.26 9.78C4.46 9.64 4.67 9.51 4.89 9.4C5.13 9.27 5.39 9.17 5.65 9.08C5.94 8.99 6.24 8.92 6.55 8.88C6.88 8.83 7.22 8.8 7.57 8.8C8.7 8.8 9.68 9.07 10.52 9.61C10.69 9.72 10.85 9.84 11 9.96C11.14 10.08 11.27 10.2 11.4 10.33C11.51 10.44 11.61 10.55 11.72 10.68C11.76 10.72 11.81 10.78 11.86 10.83C11.88 10.87 11.92 10.91 11.97 10.98C12.03 11.04 12.07 11.09 12.1 11.12C12.14 11.17 12.17 11.2 12.19 11.23C12.22 11.27 12.26 11.3 12.29 11.34C12.32 11.38 12.35 11.41 12.38 11.46C12.41 11.49 12.44 11.53 12.48 11.58C12.5 11.6 12.53 11.65 12.57 11.7C12.62 11.77 12.66 11.82 12.68 11.85C12.73 11.91 12.77 11.96 12.8 12.01C12.9 12.13 12.98 12.23 13.07 12.33C13.17 12.44 13.27 12.55 13.36 12.64C13.48 12.75 13.59 12.85 13.7 12.94C13.82 13.03 13.95 13.12 14.08 13.19C14.21 13.27 14.35 13.33 14.5 13.39C14.65 13.44 14.81 13.49 14.97 13.52C15.03 13.53 15.09 13.54 15.16 13.55L15.16 1.47C15.16 1.43 15.15 1.4 15.14 1.37C15.12 1.34 15.11 1.32 15.08 1.29C15.06 1.27 15.04 1.25 15.01 1.24C14.98 1.23 14.95 1.22 14.91 1.22L1.47 1.22C1.43 1.22 1.4 1.23 1.37 1.24C1.34 1.25 1.32 1.27 1.29 1.29C1.27 1.32 1.25 1.34 1.24 1.37C1.23 1.4 1.22 1.43 1.22 1.47L1.22 15.64C1.22 15.68 1.23 15.71 1.24 15.74C1.25 15.77 1.27 15.79 1.29 15.82ZM11.12 3.18C9.77 3.18 8.68 4.27 8.68 5.62C8.68 6.97 9.77 8.07 11.12 8.07C12.47 8.07 13.57 6.97 13.57 5.62C13.57 4.27 12.47 3.18 11.12 3.18ZM11.37 6.82C11.29 6.84 11.21 6.84 11.12 6.84C11.04 6.84 10.95 6.84 10.87 6.82C10.8 6.8 10.72 6.78 10.65 6.75C10.57 6.72 10.51 6.68 10.44 6.64C10.37 6.59 10.31 6.54 10.26 6.49Q10.17 6.4 10.11 6.31C10.06 6.24 10.03 6.17 10 6.1C9.96 6.02 9.94 5.95 9.92 5.87C9.91 5.79 9.9 5.71 9.9 5.62C9.9 5.54 9.91 5.45 9.92 5.37C9.94 5.3 9.96 5.22 10 5.15C10.03 5.07 10.06 5.01 10.11 4.94Q10.17 4.835 10.26 4.76C10.31 4.7 10.37 4.65 10.44 4.61C10.51 4.56 10.57 4.53 10.65 4.5C10.72 4.46 10.8 4.44 10.87 4.42C10.95 4.41 11.04 4.4 11.12 4.4C11.21 4.4 11.29 4.41 11.37 4.42C11.45 4.44 11.52 4.46 11.6 4.5C11.67 4.53 11.74 4.56 11.81 4.61C11.87 4.65 11.93 4.7 11.99 4.76Q12.065 4.835 12.14 4.94C12.18 5.01 12.22 5.07 12.25 5.15C12.28 5.22 12.3 5.3 12.32 5.37C12.34 5.45 12.34 5.54 12.34 5.62C12.34 5.71 12.34 5.79 12.32 5.87C12.3 5.95 12.28 6.02 12.25 6.1C12.22 6.17 12.18 6.24 12.14 6.31L11.99 6.49L11.81 6.64C11.74 6.68 11.67 6.72 11.6 6.75C11.52 6.78 11.45 6.8 11.37 6.82Z" /></g></g></svg>