<svg xmlns="http://www.w3.org/2000/svg" xmlns:xlink="http://www.w3.org/1999/xlink" width="22" height="22" viewBox="0 0 22 22" fill="none"><defs><rect id="path_0" x="0" y="0" width="22" height="22" /></defs><g opacity="1" transform="translate(0 0)  rotate(0 11 11)"><mask id="bg-mask-0" fill="white"><use xlink:href="#path_0"></use></mask><g mask="url(#bg-mask-0)" ><path id="并集" fill-rule="evenodd" style="fill:#000000" transform="translate(2.803472222222222 1.344444444444445)  rotate(0 8.436999850802952 9.655555555555555)" opacity="1" d="M2.41 1.47C2.41 0.66 3.07 0 3.88 0L15.41 0C16.22 0 16.87 0.66 16.87 1.47L16.87 15.16C16.87 15.97 16.22 16.62 15.41 16.62L3.88 16.62C3.07 16.62 2.41 15.97 2.41 15.16L2.41 1.47ZM15.65 15.16L15.65 1.47C15.65 1.43 15.65 1.4 15.63 1.37C15.62 1.34 15.6 1.32 15.58 1.29C15.56 1.27 15.53 1.25 15.5 1.24C15.47 1.23 15.44 1.22 15.41 1.22L3.88 1.22C3.85 1.22 3.81 1.23 3.79 1.24C3.76 1.25 3.73 1.27 3.71 1.29C3.68 1.32 3.67 1.34 3.65 1.37C3.64 1.4 3.64 1.43 3.64 1.47L3.64 15.16C3.64 15.19 3.64 15.22 3.65 15.25C3.67 15.28 3.68 15.31 3.71 15.33C3.73 15.35 3.76 15.37 3.79 15.38C3.81 15.39 3.85 15.4 3.88 15.4L15.41 15.4C15.44 15.4 15.47 15.39 15.5 15.38C15.53 15.37 15.56 15.35 15.58 15.33C15.6 15.31 15.62 15.28 15.63 15.25C15.65 15.22 15.65 15.19 15.65 15.16ZM1.22 4.91L1.22 16.87Q1.22 16.99 1.25 17.11C1.26 17.19 1.29 17.27 1.32 17.34C1.35 17.42 1.39 17.48 1.43 17.55C1.47 17.61 1.52 17.68 1.58 17.73C1.64 17.79 1.7 17.84 1.76 17.88C1.83 17.93 1.9 17.96 1.97 17.99C2.04 18.02 2.12 18.05 2.2 18.06C2.28 18.08 2.36 18.09 2.44 18.09L11.93 18.09C11.64 18.81 10.94 19.31 10.11 19.31L2.44 19.31C1.09 19.31 0 18.22 0 16.87L0 6.72C0 5.9 0.51 5.2 1.22 4.91Z" /></g></g></svg>