<svg xmlns="http://www.w3.org/2000/svg" xmlns:xlink="http://www.w3.org/1999/xlink" width="22" height="22" viewBox="0 0 22 22" fill="none"><defs><rect id="path_0" x="0" y="0" width="22" height="22" /></defs><g opacity="1" transform="translate(0 0)  rotate(0 11 11)"><mask id="bg-mask-0" fill="white"><use xlink:href="#path_0"></use></mask><g mask="url(#bg-mask-0)" ><path id="并集" fill-rule="evenodd" style="fill:#000000" transform="translate(2.0666032489050696 2.0777777777777775)  rotate(0 9.116642761230468 8.86111111111111)" opacity="1" d="M5.14 3.97C5.14 1.78 6.92 0 9.12 0C11.31 0 13.09 1.78 13.09 3.97C13.09 5.98 11.6 7.64 9.67 7.91L9.67 9.84L15.04 9.84C15.66 9.84 16.22 10.23 16.42 10.82L18.15 15.77C18.31 16.22 18.24 16.72 17.96 17.11C17.69 17.49 17.24 17.72 16.77 17.72L1.47 17.72C0.99 17.72 0.55 17.49 0.27 17.11C0 16.72 -0.07 16.22 0.08 15.77L1.81 10.82C2.02 10.23 2.57 9.84 3.2 9.84L8.44 9.84L8.44 7.89C6.57 7.57 5.14 5.94 5.14 3.97ZM8.05 1.44C7.88 1.51 7.73 1.59 7.58 1.69C7.43 1.79 7.3 1.9 7.17 2.03C7.05 2.15 6.94 2.29 6.84 2.44C6.74 2.58 6.65 2.74 6.58 2.9C6.51 3.07 6.46 3.24 6.42 3.42C6.39 3.6 6.37 3.78 6.37 3.97C6.37 4.16 6.39 4.35 6.42 4.53C6.46 4.7 6.51 4.88 6.58 5.04C6.65 5.21 6.74 5.36 6.84 5.51C6.94 5.66 7.05 5.79 7.17 5.92C7.3 6.04 7.43 6.15 7.58 6.25C7.73 6.35 7.88 6.44 8.05 6.51C8.21 6.58 8.38 6.63 8.56 6.67C8.74 6.7 8.93 6.72 9.12 6.72C9.3 6.72 9.49 6.7 9.67 6.67C9.85 6.63 10.02 6.58 10.19 6.51C10.35 6.44 10.51 6.35 10.65 6.25C10.8 6.15 10.94 6.04 11.06 5.92C11.19 5.79 11.3 5.66 11.4 5.51C11.5 5.36 11.58 5.21 11.65 5.04C11.72 4.88 11.78 4.7 11.81 4.53C11.85 4.35 11.87 4.16 11.87 3.97C11.87 3.78 11.85 3.6 11.81 3.42C11.78 3.24 11.72 3.07 11.65 2.9C11.58 2.74 11.5 2.58 11.4 2.44C11.3 2.29 11.19 2.15 11.06 2.03C10.94 1.9 10.8 1.79 10.65 1.69C10.51 1.59 10.35 1.51 10.19 1.44C10.02 1.37 9.85 1.31 9.67 1.28C9.49 1.24 9.3 1.22 9.12 1.22C8.93 1.22 8.74 1.24 8.56 1.28C8.38 1.31 8.21 1.37 8.05 1.44ZM8.97 14.54L9.14 14.54C9.15 14.54 9.17 14.53 9.18 14.53L9.2 14.53C9.21 14.52 9.22 14.52 9.23 14.52C9.24 14.52 9.25 14.51 9.26 14.51C9.27 14.51 9.28 14.5 9.29 14.5C9.3 14.49 9.31 14.49 9.32 14.49L9.34 14.47L9.37 14.46C9.38 14.45 9.39 14.45 9.4 14.44L9.42 14.42C9.43 14.42 9.44 14.41 9.44 14.41C9.45 14.4 9.46 14.39 9.47 14.39C9.47 14.38 9.48 14.37 9.49 14.37C9.49 14.36 9.5 14.35 9.51 14.34C9.52 14.34 9.52 14.33 9.53 14.32C9.53 14.31 9.54 14.3 9.55 14.3C9.55 14.29 9.56 14.28 9.56 14.27C9.57 14.26 9.58 14.26 9.58 14.25L9.59 14.22C9.6 14.21 9.6 14.2 9.61 14.19C9.61 14.19 9.62 14.18 9.62 14.17C9.62 14.16 9.63 14.15 9.63 14.14C9.63 14.13 9.64 14.12 9.64 14.11C9.64 14.1 9.65 14.09 9.65 14.08L9.65 14.05C9.66 14.04 9.66 14.03 9.66 14.02L9.66 13.99C9.66 13.98 9.67 13.97 9.67 13.96L9.67 11.06L15.04 11.06C15.06 11.06 15.09 11.06 15.11 11.07C15.13 11.08 15.16 11.09 15.18 11.11C15.2 11.12 15.22 11.14 15.23 11.16C15.25 11.18 15.26 11.2 15.27 11.22L17 16.17C17 16.19 17.01 16.21 17.01 16.23L17.01 16.29C17.01 16.31 17 16.33 16.99 16.35C16.99 16.36 16.98 16.38 16.97 16.4C16.95 16.41 16.94 16.43 16.93 16.44C16.91 16.45 16.9 16.46 16.88 16.47C16.86 16.48 16.84 16.49 16.83 16.49C16.81 16.5 16.79 16.5 16.77 16.5L1.47 16.5C1.45 16.5 1.43 16.5 1.41 16.49C1.39 16.49 1.37 16.48 1.35 16.47C1.34 16.46 1.32 16.45 1.31 16.44C1.29 16.43 1.28 16.41 1.27 16.4C1.26 16.38 1.25 16.36 1.24 16.35C1.23 16.33 1.23 16.31 1.22 16.29L1.22 16.23C1.23 16.21 1.23 16.19 1.24 16.17L2.97 11.22C2.97 11.2 2.99 11.18 3 11.16C3.02 11.14 3.03 11.12 3.06 11.11C3.08 11.09 3.1 11.08 3.12 11.07C3.15 11.06 3.17 11.06 3.2 11.06L8.44 11.06L8.44 13.93C8.44 13.94 8.44 13.95 8.45 13.96L8.45 14.02C8.45 14.03 8.45 14.04 8.46 14.05L8.46 14.08C8.47 14.09 8.47 14.1 8.47 14.11C8.47 14.12 8.48 14.13 8.48 14.14C8.48 14.15 8.49 14.16 8.49 14.17C8.49 14.18 8.5 14.19 8.5 14.19C8.51 14.2 8.51 14.21 8.52 14.22L8.53 14.25L8.55 14.27C8.55 14.28 8.56 14.29 8.56 14.3C8.57 14.3 8.58 14.31 8.58 14.32L8.6 14.34C8.61 14.35 8.62 14.36 8.62 14.37C8.63 14.37 8.64 14.38 8.64 14.39C8.65 14.39 8.66 14.4 8.67 14.41C8.68 14.41 8.68 14.42 8.69 14.42C8.7 14.43 8.71 14.44 8.72 14.44C8.72 14.45 8.73 14.45 8.74 14.46L8.77 14.47C8.78 14.48 8.79 14.48 8.79 14.49C8.8 14.49 8.81 14.49 8.82 14.5C8.83 14.5 8.84 14.51 8.85 14.51C8.86 14.51 8.87 14.52 8.88 14.52C8.89 14.52 8.9 14.52 8.91 14.53L8.94 14.53C8.95 14.53 8.96 14.54 8.97 14.54Z" /></g></g></svg>