<svg xmlns="http://www.w3.org/2000/svg" xmlns:xlink="http://www.w3.org/1999/xlink" width="22" height="22" viewBox="0 0 22 22" fill="none"><defs><rect id="path_0" x="0" y="0" width="22" height="22" /><filter id="filter_2" x="2.6888885955345643" y="3.177777939929964" width="17.294403997058026" height="15.31187979261172" filterUnits="userSpaceOnUse" color-interpolation-filters="sRGB"></filter></defs><g opacity="1" transform="translate(0 0)  rotate(0 11 11)"><mask id="bg-mask-0" fill="white"><use xlink:href="#path_0"></use></mask><g mask="url(#bg-mask-0)" ><path id="路径 1 (轮廓)" fill-rule="evenodd" style="fill:#000000" transform="translate(2.6888885955345643 3.177777939929964)  rotate(0 8.647201998529013 7.65593989630586)" opacity="1" d="M17.11,0.17C17.09,0.16 17.08,0.15 17.06,0.13C17.05,0.12 17.03,0.11 17.01,0.1C17.01,0.09 17,0.09 16.99,0.08C16.98,0.08 16.97,0.07 16.96,0.07C16.95,0.06 16.95,0.06 16.94,0.05C16.93,0.05 16.92,0.05 16.91,0.04C16.9,0.04 16.89,0.04 16.88,0.03C16.87,0.03 16.86,0.03 16.85,0.02C16.84,0.02 16.83,0.02 16.82,0.02C16.81,0.01 16.8,0.01 16.79,0.01C16.78,0.01 16.77,0.01 16.76,0.01C16.75,0 16.74,0 16.73,0C16.72,0 16.71,0 16.7,0C16.69,0 16.68,0 16.67,0C16.66,0 16.65,0 16.64,0C16.63,0 16.62,0 16.61,0C16.6,0.01 16.59,0.01 16.58,0.01C16.57,0.01 16.56,0.01 16.55,0.01C16.55,0.02 16.54,0.02 16.53,0.02C16.52,0.02 16.51,0.03 16.5,0.03C16.49,0.03 16.48,0.04 16.47,0.04C16.46,0.04 16.45,0.05 16.44,0.05C16.43,0.05 16.42,0.06 16.41,0.06C16.4,0.07 16.4,0.07 16.39,0.08C16.38,0.08 16.37,0.09 16.36,0.09C16.35,0.1 16.34,0.1 16.34,0.11C16.33,0.11 16.32,0.12 16.31,0.13C16.3,0.13 16.3,0.14 16.29,0.14C16.28,0.15 16.27,0.16 16.27,0.16C16.26,0.17 16.25,0.18 16.24,0.19C16.24,0.19 16.23,0.2 16.22,0.21C16.22,0.22 16.21,0.22 16.2,0.23C16.2,0.24 16.19,0.25 16.19,0.25C16.18,0.26 16.18,0.27 16.17,0.28L7.43,13.81C7.4,13.85 7.37,13.89 7.34,13.92C7.31,13.95 7.27,13.98 7.23,14C7.19,14.03 7.15,14.04 7.1,14.06C7.06,14.07 7.01,14.08 6.97,14.09C6.92,14.09 6.87,14.09 6.83,14.08C6.78,14.08 6.74,14.07 6.7,14.05C6.65,14.03 6.61,14.01 6.57,13.99C6.53,13.96 6.5,13.93 6.47,13.89L1.06,8.08L1.06,8.08C1.06,8.08 1.06,8.08 1.06,8.08L1.06,8.08C1.03,8.05 1,8.02 0.97,8C0.93,7.97 0.9,7.95 0.86,7.94C0.83,7.92 0.79,7.91 0.75,7.9C0.71,7.89 0.67,7.89 0.63,7.88C0.61,7.88 0.59,7.88 0.57,7.88C0.55,7.89 0.53,7.89 0.51,7.89C0.49,7.89 0.47,7.9 0.46,7.9C0.44,7.91 0.42,7.91 0.4,7.92C0.38,7.93 0.36,7.94 0.34,7.95C0.32,7.95 0.31,7.96 0.29,7.97C0.27,7.98 0.26,8 0.24,8.01C0.22,8.02 0.21,8.03 0.19,8.05C0.18,8.06 0.17,8.07 0.15,8.09C0.13,8.12 0.11,8.14 0.09,8.17C0.07,8.2 0.06,8.23 0.04,8.27C0.03,8.3 0.02,8.33 0.01,8.37C0.01,8.4 0,8.44 0,8.47C0,8.49 0,8.51 0,8.53C0,8.57 0.01,8.6 0.02,8.64C0.02,8.67 0.04,8.7 0.05,8.74C0.06,8.77 0.08,8.8 0.1,8.83C0.12,8.86 0.14,8.88 0.16,8.91L5.57,14.73C5.67,14.83 5.77,14.92 5.89,15C6.01,15.08 6.13,15.14 6.26,15.19C6.39,15.24 6.52,15.27 6.66,15.29C6.8,15.31 6.94,15.32 7.08,15.3C7.22,15.29 7.35,15.26 7.48,15.22C7.62,15.18 7.74,15.12 7.86,15.05C7.98,14.98 8.09,14.89 8.19,14.8C8.29,14.7 8.38,14.59 8.45,14.47L17.2,0.94C17.21,0.93 17.22,0.91 17.23,0.89C17.24,0.87 17.24,0.85 17.25,0.84C17.26,0.82 17.27,0.8 17.27,0.78C17.28,0.76 17.28,0.74 17.28,0.72C17.29,0.7 17.29,0.68 17.29,0.66C17.29,0.64 17.29,0.62 17.29,0.6C17.29,0.58 17.29,0.56 17.29,0.54C17.29,0.52 17.28,0.5 17.28,0.48C17.28,0.46 17.27,0.44 17.27,0.42C17.26,0.41 17.25,0.39 17.24,0.37C17.24,0.35 17.23,0.33 17.22,0.31C17.21,0.3 17.2,0.28 17.19,0.26C17.17,0.25 17.16,0.23 17.15,0.22C17.14,0.2 17.12,0.19 17.11,0.17Z " /></g></g></svg>