<svg xmlns="http://www.w3.org/2000/svg" xmlns:xlink="http://www.w3.org/1999/xlink" width="22" height="22" viewBox="0 0 22 22" fill="none"><defs><rect id="path_0" x="0" y="0" width="22" height="22" /></defs><g opacity="1" transform="translate(0 0)  rotate(0 11 11)"><mask id="bg-mask-0" fill="white"><use xlink:href="#path_0"></use></mask><g mask="url(#bg-mask-0)" ><path id="并集 (轮廓)" fill-rule="evenodd" style="fill:#000000" transform="translate(1.4666667007726346 2.7499999983079135)  rotate(0 9.655555555555555 8.548468986754033)" opacity="1" d="M19.31 1.47L19.31 13.26C19.31 14.07 18.65 14.73 17.84 14.73L6.66 14.73L4.12 16.82C3.76 17.12 3.25 17.18 2.83 16.98C2.4 16.78 2.13 16.36 2.12 15.89L2.11 14.73L1.47 14.73C0.66 14.73 0 14.07 0 13.26L0 1.47C0 0.66 0.66 0 1.47 0L17.84 0C18.65 0 19.31 0.66 19.31 1.47ZM1.29 1.29C1.27 1.32 1.25 1.34 1.24 1.37C1.23 1.4 1.22 1.43 1.22 1.47L1.22 13.26C1.22 13.29 1.23 13.33 1.24 13.36C1.25 13.39 1.27 13.41 1.29 13.43C1.32 13.46 1.34 13.47 1.37 13.49C1.4 13.5 1.43 13.51 1.47 13.51L3.32 13.51L3.34 15.87L6.23 13.51L17.84 13.51C17.88 13.51 17.91 13.5 17.94 13.49C17.97 13.47 17.99 13.46 18.02 13.43C18.04 13.41 18.06 13.39 18.07 13.36C18.08 13.33 18.09 13.29 18.09 13.26L18.09 1.47C18.09 1.43 18.08 1.4 18.07 1.37C18.06 1.34 18.04 1.32 18.02 1.29C17.99 1.27 17.97 1.25 17.94 1.24C17.91 1.23 17.88 1.22 17.84 1.22L1.47 1.22C1.43 1.22 1.4 1.23 1.37 1.24C1.34 1.25 1.32 1.27 1.29 1.29Z" /></g></g></svg>