<svg xmlns="http://www.w3.org/2000/svg" xmlns:xlink="http://www.w3.org/1999/xlink" width="22" height="22" viewBox="0 0 22 22" fill="none"><defs><rect id="path_0" x="0" y="0" width="22" height="22" /></defs><g opacity="1" transform="translate(0 0)  rotate(0 11 11)"><mask id="bg-mask-0" fill="white"><use xlink:href="#path_0"></use></mask><g mask="url(#bg-mask-0)" ><path id="并集" fill-rule="evenodd" style="fill:#000000" transform="translate(1.3444444444444485 1.3444444444444044)  rotate(0 9.655555555555555 9.655555555555559)" opacity="1" d="M0 9.66C0 4.32 4.32 0 9.66 0C14.99 0 19.31 4.32 19.31 9.66C19.31 14.99 14.99 19.31 9.66 19.31C4.32 19.31 0 14.99 0 9.66Z M4.29 3.15C4.5 2.98 4.72 2.81 4.94 2.66C5.17 2.51 5.4 2.37 5.64 2.24C5.88 2.11 6.12 1.99 6.37 1.88C6.63 1.78 6.88 1.68 7.15 1.6C7.41 1.52 7.68 1.45 7.95 1.39C8.23 1.34 8.51 1.29 8.79 1.27C9.08 1.24 9.37 1.22 9.66 1.22C9.95 1.22 10.23 1.24 10.52 1.27C10.8 1.29 11.08 1.34 11.36 1.39C11.63 1.45 11.9 1.52 12.16 1.6C12.43 1.68 12.68 1.78 12.94 1.88C13.19 1.99 13.43 2.11 13.67 2.24C13.91 2.37 14.14 2.51 14.37 2.66C14.59 2.81 14.81 2.98 15.02 3.15C15.23 3.32 15.43 3.5 15.62 3.69C15.81 3.88 15.99 4.08 16.16 4.29C16.34 4.5 16.5 4.72 16.65 4.94C16.8 5.17 16.94 5.4 17.07 5.64C17.2 5.88 17.32 6.12 17.43 6.37C17.53 6.63 17.63 6.88 17.71 7.15C17.79 7.41 17.86 7.68 17.92 7.95C17.97 8.23 18.02 8.51 18.05 8.79C18.07 9.08 18.09 9.37 18.09 9.66C18.09 9.95 18.07 10.23 18.05 10.52C18.02 10.8 17.97 11.08 17.92 11.36C17.86 11.63 17.79 11.9 17.71 12.16C17.63 12.43 17.53 12.68 17.43 12.94C17.32 13.19 17.2 13.43 17.07 13.67C16.94 13.91 16.8 14.14 16.65 14.37C16.5 14.59 16.34 14.81 16.16 15.02C16.1365 15.0491 16.1128 15.0779 16.0888 15.1066L4.20338 3.22116Q4.2464 3.18529 4.29 3.15Z M3.33368 4.07145Q3.23997 4.17886 3.15 4.29C2.98 4.5 2.81 4.72 2.66 4.94C2.51 5.17 2.37 5.4 2.24 5.64C2.11 5.88 1.99 6.12 1.88 6.37C1.78 6.63 1.68 6.88 1.6 7.15C1.52 7.41 1.45 7.68 1.39 7.95C1.34 8.23 1.29 8.51 1.27 8.79C1.24 9.08 1.22 9.37 1.22 9.66C1.22 9.95 1.24 10.23 1.27 10.52C1.29 10.8 1.34 11.08 1.39 11.36C1.45 11.63 1.52 11.9 1.6 12.16C1.68 12.43 1.78 12.68 1.88 12.94C1.99 13.19 2.11 13.43 2.24 13.67C2.37 13.91 2.51 14.14 2.66 14.37C2.81 14.59 2.98 14.81 3.15 15.02C3.32 15.23 3.5 15.43 3.69 15.62C3.88 15.81 4.08 15.99 4.29 16.16C4.5 16.34 4.72 16.5 4.94 16.65C5.17 16.8 5.4 16.94 5.64 17.07C5.88 17.2 6.12 17.32 6.37 17.43C6.63 17.53 6.88 17.63 7.15 17.71C7.41 17.79 7.68 17.86 7.95 17.92C8.23 17.97 8.51 18.02 8.79 18.05C9.08 18.07 9.37 18.09 9.66 18.09C9.95 18.09 10.23 18.07 10.52 18.05C10.8 18.02 11.08 17.97 11.36 17.92C11.63 17.86 11.9 17.79 12.16 17.71C12.43 17.63 12.68 17.53 12.94 17.43C13.19 17.32 13.43 17.2 13.67 17.07C13.91 16.94 14.14 16.8 14.37 16.65C14.59 16.5 14.81 16.34 15.02 16.16C15.0941 16.1 15.1669 16.0388 15.2385 15.9763L3.33368 4.07145Z " /></g></g></svg>