<svg xmlns="http://www.w3.org/2000/svg" xmlns:xlink="http://www.w3.org/1999/xlink" width="22" height="22" viewBox="0 0 22 22" fill="none"><defs><rect id="path_0" x="0" y="0" width="22" height="22" /><filter id="filter_2" x="1.5005133195763989" y="6.077261471909495" width="19.861116165677252" height="9.906593740745258" filterUnits="userSpaceOnUse" color-interpolation-filters="sRGB"></filter></defs><g opacity="1" transform="translate(0 0)  rotate(0 11 11)"><mask id="bg-mask-0" fill="white"><use xlink:href="#path_0"></use></mask><g mask="url(#bg-mask-0)" ><path id="路径 1 (轮廓)" fill-rule="evenodd" style="fill:#000000" transform="translate(1.5005133195763989 6.077261471909495)  rotate(90 9.930558082838626 4.953296870372629)" opacity="1" d="M0.09,8.98C0.08,8.99 0.08,9 0.07,9.01C0.07,9.02 0.06,9.03 0.06,9.04C0.05,9.05 0.05,9.05 0.05,9.06C0.04,9.07 0.04,9.08 0.04,9.09C0.03,9.1 0.03,9.11 0.03,9.12C0.02,9.13 0.02,9.14 0.02,9.15C0.02,9.16 0.01,9.17 0.01,9.18C0.01,9.19 0.01,9.2 0.01,9.21C0,9.22 0,9.23 0,9.24C0,9.25 0,9.26 0,9.27C0,9.28 0,9.29 0,9.3C0,9.31 0,9.32 0,9.33C0,9.34 0,9.35 0,9.36C0,9.37 0.01,9.38 0.01,9.39C0.01,9.4 0.01,9.41 0.01,9.42C0.01,9.43 0.02,9.44 0.02,9.45C0.02,9.46 0.02,9.47 0.03,9.47C0.03,9.48 0.03,9.49 0.04,9.5C0.04,9.51 0.04,9.52 0.05,9.53C0.05,9.54 0.06,9.55 0.06,9.56C0.06,9.57 0.07,9.58 0.07,9.59C0.08,9.59 0.08,9.6 0.09,9.61C0.09,9.62 0.1,9.63 0.1,9.64C0.11,9.64 0.12,9.65 0.12,9.66C0.13,9.67 0.13,9.68 0.14,9.68C0.15,9.69 0.15,9.7 0.16,9.71C0.17,9.71 0.17,9.72 0.18,9.73C0.19,9.74 0.21,9.76 0.22,9.77C0.24,9.78 0.26,9.79 0.27,9.8C0.29,9.82 0.31,9.83 0.32,9.84C0.34,9.84 0.36,9.85 0.38,9.86C0.4,9.87 0.42,9.88 0.44,9.88C0.45,9.89 0.47,9.89 0.49,9.9C0.51,9.9 0.53,9.9 0.55,9.9C0.57,9.91 0.59,9.91 0.61,9.91C0.63,9.91 0.65,9.91 0.67,9.9C0.69,9.9 0.71,9.9 0.73,9.89C0.75,9.89 0.77,9.89 0.79,9.88C0.81,9.87 0.83,9.87 0.85,9.86C0.87,9.85 0.88,9.84 0.9,9.83C0.92,9.82 0.94,9.81 0.95,9.8C0.97,9.79 0.98,9.78 1,9.77C1.02,9.75 1.03,9.74 1.04,9.73L9.24,1.47C9.28,1.43 9.33,1.4 9.38,1.36C9.42,1.33 9.47,1.31 9.52,1.29C9.57,1.27 9.63,1.25 9.68,1.24C9.74,1.23 9.79,1.22 9.84,1.22C9.9,1.22 9.95,1.23 10.01,1.24C10.06,1.25 10.12,1.26 10.17,1.28C10.22,1.3 10.27,1.33 10.31,1.36C10.36,1.39 10.41,1.43 10.45,1.47L18.82,9.73C18.83,9.74 18.85,9.76 18.87,9.77C18.88,9.78 18.9,9.79 18.91,9.81C18.93,9.82 18.95,9.83 18.97,9.84C18.98,9.85 19,9.85 19.02,9.86C19.04,9.87 19.06,9.88 19.08,9.88C19.1,9.89 19.12,9.89 19.13,9.9C19.15,9.9 19.17,9.9 19.19,9.9C19.21,9.91 19.23,9.91 19.25,9.91C19.27,9.91 19.29,9.91 19.31,9.9C19.33,9.9 19.35,9.9 19.37,9.89C19.39,9.89 19.41,9.89 19.43,9.88C19.45,9.87 19.47,9.87 19.49,9.86C19.51,9.85 19.52,9.84 19.54,9.83C19.56,9.82 19.58,9.81 19.59,9.8C19.61,9.79 19.63,9.78 19.64,9.77C19.66,9.75 19.67,9.74 19.68,9.72C19.7,9.71 19.71,9.7 19.72,9.68C19.74,9.66 19.75,9.65 19.76,9.63C19.77,9.61 19.78,9.6 19.79,9.58C19.8,9.56 19.81,9.54 19.82,9.53C19.82,9.51 19.83,9.49 19.84,9.47C19.84,9.45 19.85,9.43 19.85,9.41C19.85,9.39 19.86,9.37 19.86,9.35C19.86,9.33 19.86,9.31 19.86,9.29C19.86,9.27 19.86,9.25 19.86,9.23C19.86,9.21 19.85,9.19 19.85,9.17C19.84,9.15 19.84,9.13 19.83,9.11C19.83,9.1 19.82,9.08 19.81,9.06C19.81,9.04 19.8,9.02 19.79,9C19.78,8.99 19.77,8.97 19.76,8.95C19.74,8.94 19.73,8.92 19.72,8.9C19.71,8.89 19.69,8.87 19.68,8.86L11.31,0.6C11.21,0.5 11.1,0.41 10.98,0.34C10.87,0.26 10.75,0.2 10.62,0.15C10.49,0.1 10.37,0.06 10.23,0.04C10.1,0.01 9.97,0 9.84,0C9.71,0 9.57,0.01 9.44,0.04C9.31,0.07 9.18,0.1 9.06,0.16C8.93,0.21 8.81,0.27 8.7,0.35C8.58,0.42 8.47,0.51 8.38,0.61L0.18,8.86L0.61,9.3L0.18,8.86C0.17,8.87 0.16,8.88 0.16,8.89C0.15,8.89 0.14,8.9 0.14,8.91C0.13,8.92 0.12,8.93 0.12,8.93C0.11,8.94 0.11,8.95 0.1,8.96C0.1,8.97 0.09,8.97 0.09,8.98Z " /></g></g></svg>