<svg xmlns="http://www.w3.org/2000/svg" xmlns:xlink="http://www.w3.org/1999/xlink" width="22" height="22" viewBox="0 0 22 22" fill="none"><defs><rect id="path_0" x="0" y="0" width="22" height="22" /></defs><g opacity="1" transform="translate(0 0)  rotate(0 11 11)"><mask id="bg-mask-0" fill="white"><use xlink:href="#path_0"></use></mask><g mask="url(#bg-mask-0)" ><path id="并集" fill-rule="evenodd" style="fill:#000000" transform="translate(1.8368839391164329 2.638037151825621)  rotate(45 9.175863732231987 8.36128421359592)" opacity="1" d="M8.43,0.95C8.44,0.94 8.45,0.93 8.45,0.93C8.45,0.92 8.46,0.91 8.46,0.9C8.47,0.89 8.47,0.88 8.48,0.87C8.48,0.86 8.49,0.85 8.49,0.85C8.49,0.84 8.5,0.83 8.5,0.82C8.5,0.81 8.51,0.8 8.51,0.79L8.52,0.76C8.52,0.75 8.52,0.74 8.53,0.73C8.53,0.72 8.53,0.71 8.53,0.7C8.53,0.69 8.53,0.68 8.53,0.67C8.54,0.66 8.54,0.65 8.54,0.64C8.54,0.63 8.54,0.62 8.54,0.61C8.54,0.6 8.54,0.59 8.54,0.58C8.54,0.57 8.54,0.56 8.53,0.55C8.53,0.54 8.53,0.53 8.53,0.52C8.53,0.51 8.53,0.5 8.53,0.49C8.52,0.48 8.52,0.47 8.52,0.46L8.51,0.43C8.51,0.42 8.5,0.42 8.5,0.41C8.5,0.4 8.49,0.39 8.49,0.38C8.49,0.37 8.48,0.36 8.48,0.35C8.47,0.34 8.47,0.33 8.46,0.32C8.46,0.31 8.45,0.31 8.45,0.3C8.45,0.29 8.44,0.28 8.43,0.27C8.43,0.26 8.42,0.26 8.42,0.25L8.4,0.22C8.39,0.22 8.39,0.21 8.38,0.2C8.37,0.19 8.36,0.19 8.36,0.18C8.35,0.17 8.34,0.16 8.33,0.15C8.31,0.14 8.3,0.13 8.28,0.12C8.27,0.1 8.25,0.09 8.24,0.08C8.22,0.07 8.2,0.07 8.18,0.06C8.17,0.05 8.15,0.04 8.13,0.04C8.11,0.03 8.1,0.02 8.08,0.02C8.06,0.01 8.04,0.01 8.02,0.01C8,0 7.98,0 7.96,0C7.94,0 7.92,0 7.91,0C7.89,0 7.87,0 7.85,0L7.79,0.02C7.77,0.02 7.75,0.02 7.74,0.03C7.72,0.04 7.7,0.04 7.68,0.05C7.66,0.06 7.65,0.07 7.63,0.08C7.61,0.09 7.6,0.1 7.58,0.11C7.57,0.12 7.55,0.13 7.54,0.14C7.52,0.15 7.51,0.17 7.49,0.18L0.46,7.21C0.39,7.28 0.32,7.37 0.26,7.46C0.2,7.55 0.16,7.64 0.12,7.73C0.08,7.83 0.05,7.93 0.03,8.03C0.01,8.13 0,8.23 0,8.33C0,8.43 0.01,8.53 0.03,8.63C0.05,8.74 0.08,8.83 0.12,8.93C0.16,9.03 0.2,9.12 0.26,9.21C0.32,9.3 0.39,9.38 0.46,9.46L7.55,16.54L7.57,16.56C7.58,16.57 7.59,16.58 7.6,16.58L7.62,16.6C7.63,16.61 7.64,16.61 7.65,16.62C7.65,16.62 7.66,16.63 7.67,16.63L7.7,16.65C7.71,16.65 7.71,16.66 7.72,16.66C7.73,16.67 7.74,16.67 7.75,16.68C7.76,16.68 7.77,16.68 7.78,16.69C7.79,16.69 7.8,16.69 7.81,16.7C7.82,16.7 7.83,16.7 7.84,16.7C7.85,16.71 7.86,16.71 7.87,16.71C7.87,16.71 7.88,16.71 7.89,16.72C7.9,16.72 7.91,16.72 7.92,16.72C7.93,16.72 7.94,16.72 7.95,16.72C7.96,16.72 7.97,16.72 7.98,16.72C7.99,16.72 8,16.72 8.01,16.72C8.02,16.72 8.03,16.72 8.04,16.72C8.05,16.72 8.06,16.72 8.07,16.72C8.08,16.71 8.09,16.71 8.1,16.71C8.11,16.71 8.12,16.71 8.13,16.7L8.16,16.7C8.17,16.69 8.18,16.69 8.19,16.69C8.2,16.68 8.21,16.68 8.22,16.68C8.23,16.67 8.24,16.67 8.25,16.66C8.26,16.66 8.26,16.65 8.27,16.65C8.28,16.65 8.29,16.64 8.3,16.64C8.31,16.63 8.32,16.62 8.32,16.62C8.33,16.61 8.34,16.61 8.35,16.6C8.36,16.6 8.36,16.59 8.37,16.58C8.38,16.58 8.39,16.57 8.39,16.56C8.4,16.56 8.41,16.55 8.42,16.54C8.43,16.53 8.44,16.51 8.46,16.5C8.47,16.48 8.48,16.47 8.49,16.45C8.5,16.43 8.51,16.42 8.52,16.4C8.53,16.38 8.54,16.36 8.55,16.34C8.56,16.33 8.56,16.31 8.57,16.29C8.58,16.27 8.58,16.25 8.58,16.23C8.59,16.21 8.59,16.19 8.59,16.17C8.59,16.15 8.6,16.13 8.6,16.11C8.6,16.09 8.59,16.07 8.59,16.05C8.59,16.03 8.59,16.01 8.58,15.99C8.58,15.97 8.58,15.95 8.57,15.93C8.56,15.91 8.56,15.89 8.55,15.88C8.54,15.86 8.53,15.84 8.52,15.82C8.51,15.8 8.5,15.79 8.49,15.77C8.48,15.75 8.47,15.74 8.46,15.72C8.44,15.71 8.43,15.69 8.42,15.68L1.77,9.03L17.74,9.03C17.75,9.03 17.76,9.03 17.77,9.03C17.78,9.03 17.79,9.03 17.8,9.03L17.83,9.03C17.84,9.02 17.85,9.02 17.86,9.02C17.87,9.02 17.88,9.02 17.89,9.01C17.9,9.01 17.91,9.01 17.92,9.01C17.93,9 17.94,9 17.95,9C17.96,8.99 17.97,8.99 17.97,8.99C17.98,8.98 17.99,8.98 18,8.97C18.01,8.97 18.02,8.97 18.03,8.96L18.05,8.95C18.06,8.94 18.07,8.94 18.08,8.93C18.09,8.92 18.1,8.92 18.1,8.91C18.11,8.91 18.12,8.9 18.13,8.89C18.14,8.89 18.14,8.88 18.15,8.87C18.16,8.87 18.17,8.86 18.17,8.85C18.18,8.85 18.19,8.84 18.19,8.83C18.2,8.83 18.21,8.82 18.21,8.81C18.22,8.8 18.23,8.79 18.23,8.79C18.24,8.78 18.24,8.77 18.25,8.76C18.25,8.75 18.26,8.74 18.26,8.74L18.28,8.71C18.28,8.7 18.29,8.69 18.29,8.68C18.3,8.67 18.3,8.66 18.31,8.66C18.31,8.65 18.31,8.64 18.32,8.63C18.32,8.62 18.32,8.61 18.32,8.6C18.33,8.59 18.33,8.58 18.33,8.57C18.34,8.56 18.34,8.55 18.34,8.54C18.34,8.53 18.34,8.52 18.35,8.51L18.35,8.48C18.35,8.47 18.35,8.46 18.35,8.45C18.35,8.44 18.35,8.43 18.35,8.42C18.35,8.41 18.35,8.4 18.35,8.39C18.35,8.38 18.35,8.37 18.35,8.36L18.35,8.33C18.34,8.32 18.34,8.31 18.34,8.3C18.34,8.29 18.34,8.28 18.33,8.27C18.33,8.26 18.33,8.25 18.32,8.24C18.32,8.23 18.32,8.22 18.32,8.22C18.31,8.21 18.31,8.2 18.31,8.19C18.3,8.18 18.3,8.17 18.29,8.16C18.29,8.15 18.28,8.14 18.28,8.13L18.26,8.11C18.26,8.1 18.25,8.09 18.25,8.08C18.24,8.07 18.24,8.07 18.23,8.06C18.23,8.05 18.22,8.04 18.21,8.03C18.21,8.03 18.2,8.02 18.19,8.01C18.19,8 18.18,8 18.17,7.99C18.17,7.98 18.16,7.98 18.15,7.97C18.14,7.96 18.14,7.96 18.13,7.95C18.12,7.94 18.11,7.94 18.1,7.93C18.1,7.93 18.09,7.92 18.08,7.91C18.07,7.91 18.06,7.9 18.05,7.9L18.03,7.88C18.02,7.88 18.01,7.87 18,7.87C17.99,7.87 17.98,7.86 17.97,7.86C17.97,7.85 17.96,7.85 17.95,7.85C17.94,7.84 17.93,7.84 17.92,7.84C17.91,7.83 17.9,7.83 17.89,7.83C17.88,7.83 17.87,7.82 17.86,7.82C17.85,7.82 17.84,7.82 17.83,7.82L17.8,7.81C17.79,7.81 17.78,7.81 17.77,7.81C17.76,7.81 17.75,7.81 17.74,7.81L1.59,7.81L8.36,1.04C8.36,1.04 8.37,1.03 8.38,1.02C8.39,1.01 8.39,1.01 8.4,1L8.42,0.98C8.42,0.97 8.43,0.96 8.43,0.95Z " /></g></g></svg>