<svg xmlns="http://www.w3.org/2000/svg" xmlns:xlink="http://www.w3.org/1999/xlink" width="22" height="22" viewBox="0 0 22 22" fill="none"><defs><rect id="path_0" x="0" y="0" width="22" height="22" /></defs><g opacity="1" transform="translate(0 0)  rotate(0 11 11)"><mask id="bg-mask-0" fill="white"><use xlink:href="#path_0"></use></mask><g mask="url(#bg-mask-0)" ><path id="并集" fill-rule="evenodd" style="fill:#000000" transform="translate(1.8368839391164329 2.638037151825621)  rotate(-45 9.175863732231987 8.36128421359592)" opacity="1" d="M7.72,0.06C7.71,0.06 7.71,0.07 7.7,0.07L7.67,0.09C7.66,0.09 7.65,0.1 7.65,0.1C7.64,0.11 7.63,0.11 7.62,0.12L7.6,0.14C7.59,0.15 7.58,0.15 7.57,0.16L7.55,0.18L0.46,7.27C0.39,7.34 0.32,7.43 0.26,7.52C0.2,7.6 0.16,7.7 0.12,7.79C0.08,7.89 0.05,7.99 0.03,8.09C0.01,8.19 0,8.29 0,8.39C0,8.49 0.01,8.59 0.03,8.69C0.05,8.8 0.08,8.89 0.12,8.99C0.16,9.09 0.2,9.18 0.26,9.27C0.32,9.36 0.39,9.44 0.46,9.51L7.49,16.54C7.51,16.56 7.52,16.57 7.54,16.58C7.55,16.59 7.57,16.61 7.58,16.62C7.6,16.63 7.61,16.64 7.63,16.65C7.65,16.66 7.66,16.66 7.68,16.67C7.7,16.68 7.72,16.69 7.74,16.69C7.75,16.7 7.77,16.7 7.79,16.71L7.85,16.72C7.87,16.72 7.89,16.72 7.91,16.72C7.92,16.72 7.94,16.72 7.96,16.72C7.98,16.72 8,16.72 8.02,16.72C8.04,16.71 8.06,16.71 8.08,16.7C8.1,16.7 8.11,16.69 8.13,16.69C8.15,16.68 8.17,16.67 8.18,16.67C8.2,16.66 8.22,16.65 8.24,16.64C8.25,16.63 8.27,16.62 8.28,16.61C8.3,16.6 8.31,16.58 8.33,16.57C8.34,16.56 8.35,16.55 8.36,16.54C8.36,16.54 8.37,16.53 8.38,16.52C8.39,16.51 8.39,16.51 8.4,16.5L8.42,16.48C8.42,16.47 8.43,16.46 8.43,16.45C8.44,16.44 8.45,16.43 8.45,16.43C8.45,16.42 8.46,16.41 8.46,16.4C8.47,16.39 8.47,16.38 8.48,16.37C8.48,16.36 8.49,16.35 8.49,16.35C8.49,16.34 8.5,16.33 8.5,16.32C8.5,16.31 8.51,16.3 8.51,16.29L8.52,16.26C8.52,16.25 8.52,16.24 8.53,16.23C8.53,16.22 8.53,16.21 8.53,16.2C8.53,16.19 8.53,16.18 8.53,16.17C8.54,16.16 8.54,16.15 8.54,16.14C8.54,16.13 8.54,16.12 8.54,16.11C8.54,16.1 8.54,16.09 8.54,16.08C8.54,16.07 8.54,16.06 8.53,16.05C8.53,16.04 8.53,16.03 8.53,16.02C8.53,16.01 8.53,16 8.53,15.99C8.52,15.98 8.52,15.97 8.52,15.96L8.51,15.93C8.51,15.92 8.5,15.92 8.5,15.91C8.5,15.9 8.49,15.89 8.49,15.88C8.49,15.87 8.48,15.86 8.48,15.85C8.47,15.84 8.47,15.83 8.46,15.82C8.46,15.81 8.45,15.81 8.45,15.8C8.45,15.79 8.44,15.78 8.43,15.77C8.43,15.76 8.42,15.76 8.42,15.75L8.4,15.72C8.39,15.72 8.39,15.71 8.38,15.7C8.37,15.69 8.36,15.69 8.36,15.68L1.59,8.91L17.74,8.91C17.75,8.91 17.76,8.91 17.77,8.91C17.78,8.91 17.79,8.91 17.8,8.91L17.83,8.91C17.84,8.9 17.85,8.9 17.86,8.9C17.87,8.9 17.88,8.9 17.89,8.89C17.9,8.89 17.91,8.89 17.92,8.89C17.93,8.88 17.94,8.88 17.95,8.88C17.96,8.87 17.97,8.87 17.97,8.87C17.98,8.86 17.99,8.86 18,8.85C18.01,8.85 18.02,8.84 18.03,8.84L18.05,8.83C18.06,8.82 18.07,8.81 18.08,8.81C18.09,8.8 18.1,8.8 18.1,8.79C18.11,8.79 18.12,8.78 18.13,8.77C18.14,8.77 18.14,8.76 18.15,8.75C18.16,8.75 18.17,8.74 18.17,8.73C18.18,8.73 18.19,8.72 18.19,8.71C18.2,8.7 18.21,8.7 18.21,8.69C18.22,8.68 18.23,8.67 18.23,8.67C18.24,8.66 18.24,8.65 18.25,8.64C18.25,8.63 18.26,8.62 18.26,8.61L18.28,8.59C18.28,8.58 18.29,8.57 18.29,8.56C18.3,8.55 18.3,8.54 18.31,8.53C18.31,8.53 18.31,8.52 18.32,8.51C18.32,8.5 18.32,8.49 18.32,8.48C18.33,8.47 18.33,8.46 18.33,8.45C18.34,8.44 18.34,8.43 18.34,8.42C18.34,8.41 18.34,8.4 18.35,8.39L18.35,8.36C18.35,8.35 18.35,8.34 18.35,8.33C18.35,8.32 18.35,8.31 18.35,8.3C18.35,8.29 18.35,8.28 18.35,8.27C18.35,8.26 18.35,8.25 18.35,8.24L18.35,8.21C18.34,8.2 18.34,8.19 18.34,8.18C18.34,8.17 18.34,8.16 18.33,8.15C18.33,8.14 18.33,8.13 18.32,8.12C18.32,8.11 18.32,8.1 18.32,8.1C18.31,8.09 18.31,8.08 18.31,8.07C18.3,8.06 18.3,8.05 18.29,8.04C18.29,8.03 18.28,8.02 18.28,8.01L18.26,7.99C18.26,7.98 18.25,7.97 18.25,7.96C18.24,7.95 18.24,7.95 18.23,7.94C18.23,7.93 18.22,7.92 18.21,7.91C18.21,7.9 18.2,7.9 18.19,7.89C18.19,7.88 18.18,7.88 18.17,7.87C18.17,7.86 18.16,7.85 18.15,7.85C18.14,7.84 18.14,7.84 18.13,7.83C18.12,7.82 18.11,7.82 18.1,7.81C18.1,7.8 18.09,7.8 18.08,7.79C18.07,7.79 18.06,7.78 18.05,7.78L18.03,7.76C18.02,7.76 18.01,7.75 18,7.75C17.99,7.74 17.98,7.74 17.97,7.74C17.97,7.73 17.96,7.73 17.95,7.73C17.94,7.72 17.93,7.72 17.92,7.72C17.91,7.71 17.9,7.71 17.89,7.71C17.88,7.71 17.87,7.7 17.86,7.7C17.85,7.7 17.84,7.7 17.83,7.7L17.8,7.69C17.79,7.69 17.78,7.69 17.77,7.69C17.76,7.69 17.75,7.69 17.74,7.69L1.77,7.69L8.42,1.04C8.43,1.03 8.44,1.01 8.46,1C8.47,0.98 8.48,0.97 8.49,0.95C8.5,0.93 8.51,0.92 8.52,0.9C8.53,0.88 8.54,0.86 8.55,0.85C8.56,0.83 8.56,0.81 8.57,0.79C8.58,0.77 8.58,0.75 8.58,0.73C8.59,0.71 8.59,0.69 8.59,0.67C8.59,0.65 8.6,0.63 8.6,0.61C8.6,0.59 8.59,0.57 8.59,0.55C8.59,0.53 8.59,0.51 8.58,0.49C8.58,0.47 8.58,0.45 8.57,0.43C8.56,0.41 8.56,0.4 8.55,0.38C8.54,0.36 8.53,0.34 8.52,0.32C8.51,0.31 8.5,0.29 8.49,0.27C8.48,0.25 8.47,0.24 8.46,0.22C8.44,0.21 8.43,0.19 8.42,0.18C8.41,0.17 8.4,0.17 8.39,0.16C8.39,0.15 8.38,0.15 8.37,0.14C8.36,0.13 8.36,0.13 8.35,0.12C8.34,0.11 8.33,0.11 8.32,0.1C8.32,0.1 8.31,0.09 8.3,0.09C8.29,0.08 8.28,0.08 8.27,0.07C8.26,0.07 8.26,0.06 8.25,0.06C8.24,0.05 8.23,0.05 8.22,0.05C8.21,0.04 8.2,0.04 8.19,0.04C8.18,0.03 8.17,0.03 8.16,0.03L8.13,0.02C8.12,0.02 8.11,0.01 8.1,0.01C8.09,0.01 8.08,0.01 8.07,0.01C8.06,0.01 8.05,0 8.04,0C8.03,0 8.02,0 8.01,0C8,0 7.99,0 7.98,0C7.97,0 7.96,0 7.95,0C7.94,0 7.93,0 7.92,0C7.91,0 7.9,0.01 7.89,0.01C7.88,0.01 7.87,0.01 7.87,0.01C7.86,0.01 7.85,0.02 7.84,0.02C7.83,0.02 7.82,0.02 7.81,0.03C7.8,0.03 7.79,0.03 7.78,0.04C7.77,0.04 7.76,0.04 7.75,0.05C7.74,0.05 7.73,0.06 7.72,0.06Z " /></g></g></svg>