<svg xmlns="http://www.w3.org/2000/svg" xmlns:xlink="http://www.w3.org/1999/xlink" width="22" height="22" viewBox="0 0 22 22" fill="none"><defs><rect id="path_0" x="0" y="0" width="22" height="22" /></defs><g opacity="1" transform="translate(0 0)  rotate(0 11 11)"><mask id="bg-mask-0" fill="white"><use xlink:href="#path_0"></use></mask><g mask="url(#bg-mask-0)" ><path id="并集" fill-rule="evenodd" style="fill:#000000" transform="translate(1.4666666666666668 1.4666666666666668)  rotate(0 9.533333333333333 9.533333333333333)" opacity="1" d="M9.53 0C4.27 0 0 4.27 0 9.53C0 14.8 4.27 19.07 9.53 19.07C14.8 19.07 19.07 14.8 19.07 9.53C19.07 4.27 14.8 0 9.53 0ZM15.95 4.25C16.12 4.45 16.28 4.67 16.43 4.89C16.58 5.11 16.72 5.34 16.84 5.57C16.97 5.81 17.09 6.05 17.19 6.3C17.3 6.55 17.39 6.8 17.47 7.06C17.55 7.32 17.62 7.59 17.68 7.86C17.73 8.13 17.77 8.4 17.8 8.68C17.83 8.96 17.84 9.25 17.84 9.53C17.84 9.82 17.83 10.1 17.8 10.39C17.77 10.66 17.73 10.94 17.68 11.21C17.62 11.48 17.55 11.74 17.47 12.01C17.39 12.26 17.3 12.52 17.19 12.77C17.09 13.02 16.97 13.26 16.84 13.49C16.72 13.73 16.58 13.96 16.43 14.18C16.28 14.4 16.12 14.61 15.95 14.82C15.78 15.02 15.6 15.22 15.41 15.41C15.22 15.6 15.02 15.78 14.82 15.95C14.61 16.12 14.4 16.28 14.18 16.43C13.96 16.58 13.73 16.72 13.49 16.84C13.26 16.97 13.02 17.09 12.77 17.19C12.52 17.3 12.26 17.39 12.01 17.47C11.74 17.55 11.48 17.62 11.21 17.68C10.94 17.73 10.66 17.77 10.39 17.8C10.1 17.83 9.82 17.84 9.53 17.84C9.25 17.84 8.96 17.83 8.68 17.8C8.4 17.77 8.13 17.73 7.86 17.68C7.59 17.62 7.32 17.55 7.06 17.47C6.8 17.39 6.55 17.3 6.3 17.19C6.05 17.09 5.81 16.97 5.57 16.84C5.34 16.72 5.11 16.58 4.89 16.43C4.67 16.28 4.45 16.12 4.25 15.95C4.04 15.78 3.85 15.6 3.66 15.41C3.47 15.22 3.29 15.02 3.12 14.82C2.95 14.61 2.79 14.4 2.64 14.18C2.49 13.96 2.35 13.73 2.22 13.49C2.1 13.26 1.98 13.02 1.87 12.77C1.77 12.52 1.68 12.26 1.6 12.01C1.51 11.74 1.45 11.48 1.39 11.21C1.34 10.94 1.29 10.66 1.26 10.39C1.24 10.1 1.22 9.82 1.22 9.53C1.22 9.25 1.24 8.96 1.26 8.68C1.29 8.4 1.34 8.13 1.39 7.86C1.45 7.59 1.51 7.32 1.6 7.06C1.68 6.8 1.77 6.55 1.87 6.3C1.98 6.05 2.1 5.81 2.22 5.57C2.35 5.34 2.49 5.11 2.64 4.89C2.79 4.67 2.95 4.45 3.12 4.25C3.29 4.04 3.47 3.85 3.66 3.66C3.85 3.47 4.04 3.29 4.25 3.12C4.45 2.95 4.67 2.79 4.89 2.64C5.11 2.49 5.34 2.35 5.57 2.22C5.81 2.1 6.05 1.98 6.3 1.87C6.55 1.77 6.8 1.68 7.06 1.6C7.32 1.51 7.59 1.45 7.86 1.39C8.13 1.34 8.4 1.29 8.68 1.26C8.96 1.24 9.25 1.22 9.53 1.22C9.82 1.22 10.1 1.24 10.39 1.26C10.66 1.29 10.94 1.34 11.21 1.39C11.48 1.45 11.74 1.51 12.01 1.6C12.26 1.68 12.52 1.77 12.77 1.87C13.02 1.98 13.26 2.1 13.49 2.22C13.73 2.35 13.96 2.49 14.18 2.64C14.4 2.79 14.61 2.95 14.82 3.12C15.02 3.29 15.22 3.47 15.41 3.66C15.6 3.85 15.78 4.04 15.95 4.25ZM6.54 7.2C6.55 7.2 6.56 7.2 6.56 7.19C6.57 7.19 6.58 7.19 6.59 7.18L6.62 7.18C6.63 7.17 6.64 7.17 6.65 7.16C6.66 7.16 6.67 7.16 6.68 7.15C6.69 7.15 6.7 7.14 6.71 7.14L6.73 7.12C6.74 7.12 6.75 7.11 6.76 7.11L6.78 7.09C6.79 7.09 6.8 7.08 6.8 7.07C6.81 7.07 6.82 7.06 6.83 7.05L6.85 7.03C6.86 7.03 6.86 7.02 6.87 7.01L6.89 6.99C6.9 6.98 6.9 6.97 6.91 6.96L6.93 6.94C6.93 6.93 6.94 6.92 6.94 6.91L6.96 6.89C6.96 6.88 6.96 6.87 6.97 6.86C6.97 6.85 6.98 6.84 6.98 6.83C6.99 6.82 6.99 6.82 6.99 6.81C7 6.8 7 6.79 7 6.78C7 6.77 7.01 6.76 7.01 6.75C7.01 6.74 7.01 6.73 7.02 6.72L7.02 6.69L7.03 6.66L7.03 6.6C7.03 6.49 7.04 6.37 7.06 6.25C7.09 6.12 7.12 5.99 7.17 5.86C7.22 5.72 7.28 5.59 7.35 5.46C7.43 5.33 7.52 5.21 7.61 5.09C7.72 4.97 7.83 4.86 7.95 4.77C8.08 4.67 8.22 4.58 8.38 4.51C8.54 4.44 8.71 4.38 8.9 4.34Q9.2 4.28 9.53 4.28L9.6 4.28C9.67 4.29 9.75 4.3 9.84 4.31C9.96 4.34 10.07 4.36 10.18 4.4C10.32 4.45 10.46 4.5 10.58 4.57C10.72 4.65 10.85 4.74 10.97 4.84C11.1 4.96 11.22 5.09 11.32 5.24C11.43 5.41 11.52 5.6 11.59 5.82C11.66 6.06 11.71 6.32 11.73 6.62C11.73 7.33 11.35 7.91 10.62 8.36C10.48 8.45 10.33 8.53 10.17 8.6C10.04 8.66 9.91 8.72 9.77 8.76C9.67 8.8 9.58 8.83 9.49 8.85C9.47 8.86 9.44 8.87 9.42 8.87L9.4 8.87L9.4 8.88C9.39 8.88 9.37 8.88 9.35 8.89C9.34 8.89 9.32 8.9 9.3 8.91C9.29 8.91 9.27 8.92 9.26 8.93C9.24 8.94 9.23 8.94 9.21 8.95C9.2 8.96 9.18 8.97 9.17 8.98C9.15 8.99 9.14 9 9.13 9.02C9.12 9.03 9.1 9.04 9.09 9.05C9.08 9.06 9.07 9.08 9.06 9.09C9.05 9.1 9.04 9.12 9.03 9.13C9.02 9.15 9.01 9.16 9 9.18C8.99 9.19 8.98 9.21 8.98 9.22C8.97 9.24 8.96 9.25 8.96 9.27C8.95 9.29 8.95 9.3 8.94 9.32C8.94 9.34 8.93 9.35 8.93 9.37C8.93 9.39 8.93 9.4 8.92 9.42L8.92 12.04L8.93 12.07L8.93 12.1C8.94 12.11 8.94 12.12 8.94 12.13C8.94 12.14 8.95 12.15 8.95 12.16C8.95 12.16 8.95 12.17 8.96 12.18C8.96 12.19 8.96 12.2 8.97 12.21C8.97 12.22 8.98 12.23 8.98 12.24C8.99 12.25 8.99 12.26 8.99 12.27L9.01 12.29C9.01 12.3 9.02 12.31 9.02 12.32C9.03 12.33 9.04 12.33 9.04 12.34C9.05 12.35 9.05 12.36 9.06 12.37C9.07 12.37 9.07 12.38 9.08 12.39L9.1 12.41C9.11 12.42 9.12 12.42 9.12 12.43C9.13 12.44 9.14 12.44 9.15 12.45C9.15 12.46 9.16 12.46 9.17 12.47C9.18 12.47 9.18 12.48 9.19 12.49C9.2 12.49 9.21 12.5 9.22 12.5L9.24 12.52C9.25 12.52 9.26 12.53 9.27 12.53C9.28 12.53 9.29 12.54 9.3 12.54C9.31 12.55 9.32 12.55 9.33 12.55C9.34 12.56 9.35 12.56 9.36 12.56C9.37 12.57 9.38 12.57 9.39 12.57C9.39 12.57 9.4 12.58 9.41 12.58L9.44 12.58L9.47 12.59L9.59 12.59L9.62 12.58L9.65 12.58C9.66 12.58 9.67 12.57 9.68 12.57C9.69 12.57 9.7 12.57 9.71 12.56C9.72 12.56 9.73 12.56 9.74 12.55C9.75 12.55 9.76 12.55 9.77 12.54C9.78 12.54 9.79 12.53 9.79 12.53C9.8 12.53 9.81 12.52 9.82 12.52L9.85 12.5C9.86 12.5 9.86 12.49 9.87 12.49C9.88 12.48 9.89 12.47 9.9 12.47C9.9 12.46 9.91 12.46 9.92 12.45C9.93 12.44 9.94 12.44 9.94 12.43C9.95 12.42 9.96 12.42 9.97 12.41C9.97 12.4 9.98 12.4 9.99 12.39C9.99 12.38 10 12.37 10.01 12.37C10.01 12.36 10.02 12.35 10.02 12.34C10.03 12.33 10.04 12.33 10.04 12.32C10.05 12.31 10.05 12.3 10.06 12.29L10.07 12.27C10.08 12.26 10.08 12.25 10.09 12.24C10.09 12.23 10.09 12.22 10.1 12.21C10.1 12.2 10.11 12.19 10.11 12.18C10.11 12.17 10.12 12.16 10.12 12.16C10.12 12.15 10.12 12.14 10.13 12.13L10.13 12.1C10.13 12.09 10.14 12.08 10.14 12.07L10.14 9.93C10.15 9.93 10.17 9.92 10.18 9.92C10.35 9.86 10.51 9.79 10.68 9.72C10.88 9.62 11.08 9.52 11.26 9.4C11.48 9.27 11.68 9.12 11.86 8.96C12.07 8.77 12.25 8.57 12.41 8.35C12.58 8.11 12.71 7.84 12.8 7.56C12.85 7.41 12.89 7.26 12.92 7.1C12.94 6.94 12.96 6.77 12.96 6.6C12.96 6.59 12.96 6.57 12.95 6.56C12.93 6.16 12.86 5.79 12.75 5.45C12.65 5.12 12.51 4.83 12.34 4.57C12.18 4.33 11.99 4.11 11.78 3.92C11.59 3.76 11.39 3.62 11.16 3.5C10.97 3.39 10.77 3.31 10.56 3.24C10.4 3.19 10.23 3.14 10.06 3.11C9.93 3.09 9.81 3.07 9.69 3.06L9.53 3.06C9.22 3.06 8.92 3.09 8.64 3.15C8.37 3.21 8.11 3.29 7.86 3.41C7.63 3.51 7.41 3.65 7.21 3.8C7.02 3.95 6.84 4.11 6.69 4.29C6.54 4.47 6.41 4.65 6.29 4.85C6.19 5.04 6.09 5.23 6.02 5.44C5.95 5.63 5.9 5.83 5.86 6.03C5.82 6.22 5.81 6.41 5.81 6.6L5.81 6.69C5.81 6.7 5.82 6.71 5.82 6.72L5.82 6.75C5.83 6.76 5.83 6.77 5.83 6.78C5.83 6.79 5.84 6.8 5.84 6.81C5.84 6.82 5.85 6.82 5.85 6.83C5.86 6.84 5.86 6.85 5.86 6.86C5.87 6.87 5.87 6.88 5.88 6.89L5.89 6.91C5.9 6.92 5.9 6.93 5.91 6.94C5.91 6.95 5.92 6.96 5.93 6.96C5.93 6.97 5.94 6.98 5.94 6.99C5.95 7 5.96 7 5.96 7.01L5.98 7.03C5.99 7.04 6 7.05 6.01 7.05C6.01 7.06 6.02 7.07 6.03 7.07L6.05 7.09C6.06 7.1 6.07 7.1 6.08 7.11C6.09 7.11 6.09 7.12 6.1 7.12L6.13 7.14C6.14 7.14 6.15 7.15 6.16 7.15C6.16 7.16 6.17 7.16 6.18 7.16C6.19 7.17 6.2 7.17 6.21 7.18L6.24 7.18C6.25 7.19 6.26 7.19 6.27 7.19C6.28 7.2 6.29 7.2 6.3 7.2C6.31 7.2 6.32 7.2 6.33 7.21L6.51 7.21C6.52 7.2 6.53 7.2 6.54 7.2ZM9.53 15.77C8.99 15.77 8.56 15.33 8.56 14.79C8.56 14.25 8.99 13.81 9.53 13.81C10.07 13.81 10.51 14.25 10.51 14.79C10.51 15.33 10.07 15.77 9.53 15.77Z" /></g></g></svg>