<svg xmlns="http://www.w3.org/2000/svg" xmlns:xlink="http://www.w3.org/1999/xlink" width="22" height="22" viewBox="0 0 22 22" fill="none"><defs><rect id="path_0" x="0" y="0" width="22" height="22" /></defs><g opacity="1" transform="translate(0 0)  rotate(0 11 11)"><mask id="bg-mask-0" fill="white"><use xlink:href="#path_0"></use></mask><g mask="url(#bg-mask-0)" ><path id="并集" fill-rule="evenodd" style="fill:#000000" transform="translate(2.322222222222223 2.68888888888889)  rotate(0 8.92267074584961 8.43378185696072)" opacity="1" d="M16.22 16.87L10.51 16.87C9.75 16.87 9.13 16.29 9.05 15.56C9.04 15.45 9.04 15.35 9.04 15.24L9.04 14.18L1.47 14.18C0.66 14.18 0 13.52 0 12.71L0 1.47C0 0.66 0.66 0 1.47 0L15.28 0C16.09 0 16.74 0.66 16.74 1.47L16.74 9.95C17.38 10.11 17.84 10.66 17.84 11.21C17.84 11.243 17.8411 11.277 17.8422 11.3115L17.8422 11.3115C17.8444 11.3815 17.8467 11.453 17.84 11.52L17.84 15.4C17.84 16.16 17.27 16.78 16.53 16.86C16.43 16.87 16.33 16.87 16.22 16.87ZM1.24 12.81C1.25 12.84 1.27 12.86 1.29 12.88C1.32 12.91 1.34 12.93 1.37 12.94C1.4 12.95 1.43 12.96 1.47 12.96L9.04 12.96L9.04 11.51C9.04 11.42 9.04 11.32 9.05 11.22C9.12 10.53 9.68 9.98 10.35 9.91C10.46 9.9 10.56 9.9 10.67 9.9L10.91 9.9C11.03 9.9 11.14 9.81 11.16 9.68C11.3 9.08 11.83 8.63 12.44 8.56C12.4733 8.56 12.5067 8.55889 12.54 8.55778L12.54 8.55778C12.6067 8.55556 12.6733 8.55333 12.74 8.56L14.42 8.56C14.86 8.56 15.25 8.75 15.52 9.05L15.52 1.47C15.52 1.43 15.52 1.4 15.5 1.37C15.49 1.34 15.47 1.32 15.45 1.29C15.43 1.27 15.4 1.25 15.37 1.24C15.34 1.23 15.31 1.22 15.28 1.22L1.47 1.22C1.43 1.22 1.4 1.23 1.37 1.24C1.34 1.25 1.32 1.27 1.29 1.29C1.27 1.32 1.25 1.34 1.24 1.37C1.23 1.4 1.22 1.43 1.22 1.47L1.22 12.71C1.22 12.75 1.23 12.78 1.24 12.81ZM10.51 15.64L16.34 15.64C16.3605 15.6468 16.3763 15.6443 16.3907 15.6421C16.3973 15.641 16.4037 15.64 16.41 15.64C16.43 15.64 16.45 15.63 16.47 15.63C16.5 15.61 16.53 15.6 16.55 15.57C16.57 15.55 16.59 15.52 16.6 15.5C16.62 15.47 16.62 15.43 16.62 15.4L16.62 11.33C16.62 11.31 16.61 11.29 16.6 11.27C16.59 11.24 16.57 11.22 16.55 11.19C16.53 11.17 16.5 11.15 16.47 11.14C16.44 11.13 16.41 11.12 16.38 11.12L15.32 11.12C15 11.12 14.74 10.88 14.71 10.56L14.67 10.03C14.67 10.01 14.67 9.99 14.66 9.97C14.66 9.95 14.65 9.93 14.64 9.91C14.63 9.89 14.61 9.86 14.59 9.84C14.57 9.82 14.54 9.81 14.51 9.79C14.48 9.78 14.45 9.78 14.42 9.78L12.56 9.78C12.54 9.78 12.52 9.79 12.5 9.79C12.47 9.81 12.45 9.82 12.42 9.84C12.4 9.86 12.38 9.89 12.37 9.91C12.36 9.93 12.35 9.95 12.35 9.97C12.35 9.99 12.34 10.01 12.34 10.03L12.3 10.56C12.27 10.88 12.01 11.12 11.69 11.12L10.48 11.12C10.45 11.13 10.44 11.13 10.42 11.14C10.39 11.15 10.36 11.17 10.34 11.19C10.32 11.22 10.3 11.24 10.29 11.27C10.28 11.29 10.27 11.31 10.27 11.33L10.27 15.43C10.27 15.46 10.28 15.48 10.29 15.5C10.3 15.52 10.32 15.55 10.34 15.57C10.36 15.6 10.39 15.61 10.42 15.63C10.45 15.64 10.48 15.64 10.51 15.64ZM11.98 13.38C11.98 12.54 12.66 11.86 13.51 11.86C14.35 11.86 15.03 12.54 15.03 13.38C15.03 14.23 14.35 14.91 13.51 14.91C12.66 14.91 11.98 14.23 11.98 13.38Z" /></g></g></svg>