<svg xmlns="http://www.w3.org/2000/svg" xmlns:xlink="http://www.w3.org/1999/xlink" width="22" height="22" viewBox="0 0 22 22" fill="none"><defs><rect id="path_0" x="0" y="0" width="22" height="22" /></defs><g opacity="1" transform="translate(0 0)  rotate(0 11 11)"><mask id="bg-mask-0" fill="white"><use xlink:href="#path_0"></use></mask><g mask="url(#bg-mask-0)" ><path id="并集" fill-rule="evenodd" style="fill:#000000" transform="translate(2.81111111111111 2.81111111111111)  rotate(0 8.188888888888888 8.25)" opacity="1" d="M0 5.87L0 12.96C0 13.77 0.66 14.42 1.47 14.42L3.91 14.42L3.91 15.03C3.91 15.84 4.57 16.5 5.38 16.5L11.12 16.5C11.93 16.5 12.59 15.84 12.59 15.03L12.59 14.42L14.91 14.42C15.72 14.42 16.38 13.77 16.38 12.96L16.38 5.87C16.38 5.06 15.72 4.4 14.91 4.4L14.06 4.4L14.06 1.47C14.06 0.66 13.4 0 12.59 0L4.03 0C3.22 0 2.57 0.66 2.57 1.47L2.57 4.4L1.47 4.4C0.66 4.4 0 5.06 0 5.87ZM12.59 1.22C12.62 1.22 12.65 1.23 12.68 1.24C12.71 1.25 12.74 1.27 12.76 1.29C12.78 1.32 12.8 1.34 12.81 1.37C12.83 1.4 12.83 1.43 12.83 1.47L12.83 4.03L3.79 4.03L3.79 1.47C3.79 1.43 3.79 1.4 3.81 1.37C3.82 1.34 3.84 1.32 3.86 1.29C3.88 1.27 3.91 1.25 3.94 1.24C3.97 1.23 4 1.22 4.03 1.22L12.59 1.22ZM1.37 13.18C1.34 13.17 1.32 13.15 1.29 13.13C1.27 13.11 1.25 13.08 1.24 13.05C1.23 13.02 1.22 12.99 1.22 12.96L1.22 5.87C1.22 5.83 1.23 5.8 1.24 5.77C1.25 5.74 1.27 5.72 1.29 5.69C1.32 5.67 1.34 5.65 1.37 5.64C1.4 5.63 1.43 5.62 1.47 5.62L14.91 5.62C14.95 5.62 14.98 5.63 15.01 5.64C15.04 5.65 15.06 5.67 15.08 5.69C15.11 5.72 15.12 5.74 15.14 5.77C15.15 5.8 15.16 5.83 15.16 5.87L15.16 12.96C15.16 12.99 15.15 13.02 15.14 13.05C15.12 13.08 15.11 13.11 15.08 13.13C15.06 13.15 15.04 13.17 15.01 13.18C14.98 13.19 14.95 13.2 14.91 13.2L12.59 13.2L12.59 12.47C12.59 11.66 11.93 11 11.12 11L5.38 11C4.57 11 3.91 11.66 3.91 12.47L3.91 13.2L1.47 13.2C1.43 13.2 1.4 13.19 1.37 13.18ZM11.35 12.37C11.34 12.34 11.32 12.32 11.3 12.29C11.27 12.27 11.25 12.25 11.22 12.24C11.19 12.23 11.16 12.22 11.12 12.22L5.38 12.22C5.34 12.22 5.31 12.23 5.28 12.24C5.25 12.25 5.23 12.27 5.2 12.29C5.18 12.32 5.16 12.34 5.15 12.37C5.14 12.4 5.13 12.43 5.13 12.47L5.13 15.03C5.13 15.07 5.14 15.1 5.15 15.13C5.16 15.16 5.18 15.18 5.2 15.21C5.23 15.23 5.25 15.25 5.28 15.26C5.31 15.27 5.34 15.28 5.38 15.28L11.12 15.28C11.16 15.28 11.19 15.27 11.22 15.26C11.25 15.25 11.27 15.23 11.3 15.21C11.32 15.18 11.34 15.16 11.35 15.13C11.36 15.1 11.37 15.07 11.37 15.03L11.37 12.47C11.37 12.43 11.36 12.4 11.35 12.37Z" /></g></g></svg>