<svg xmlns="http://www.w3.org/2000/svg" xmlns:xlink="http://www.w3.org/1999/xlink" width="22" height="22" viewBox="0 0 22 22" fill="none"><defs><rect id="path_0" x="0" y="0" width="22" height="22" /></defs><g opacity="1" transform="translate(0 0)  rotate(0 11 11)"><mask id="bg-mask-0" fill="white"><use xlink:href="#path_0"></use></mask><g mask="url(#bg-mask-0)" ><path id="并集" fill-rule="evenodd" style="fill:#000000" transform="translate(1.833333333333334 2.81111111111111)  rotate(0 9.166666666666666 8.188888888888888)" opacity="1" d="M7.21 0.61L7.21 0.7C7.2 0.71 7.2 0.72 7.2 0.73C7.2 0.74 7.2 0.75 7.19 0.76C7.19 0.77 7.19 0.78 7.18 0.79L7.18 0.82C7.17 0.83 7.17 0.84 7.16 0.84C7.16 0.85 7.16 0.86 7.15 0.87C7.15 0.88 7.14 0.89 7.14 0.9L7.12 0.93C7.12 0.93 7.11 0.94 7.11 0.95C7.1 0.96 7.1 0.97 7.09 0.98L7.07 1C7.07 1.01 7.06 1.01 7.05 1.02C7.05 1.03 7.04 1.04 7.03 1.04C7.03 1.05 7.02 1.06 7.01 1.06C7 1.07 7 1.08 6.99 1.08C6.98 1.09 6.97 1.1 6.96 1.1C6.96 1.11 6.95 1.11 6.94 1.12C6.93 1.12 6.92 1.13 6.91 1.14L6.89 1.15C6.88 1.15 6.87 1.16 6.86 1.16C6.85 1.17 6.84 1.17 6.83 1.18C6.82 1.18 6.82 1.18 6.81 1.19C6.8 1.19 6.79 1.19 6.78 1.2L6.75 1.2C6.74 1.21 6.73 1.21 6.72 1.21C6.71 1.21 6.7 1.21 6.69 1.22L3.06 1.22C3 1.22 2.94 1.23 2.88 1.24C2.83 1.25 2.77 1.27 2.72 1.29C2.67 1.31 2.62 1.34 2.58 1.37C2.53 1.4 2.49 1.43 2.45 1.47C2.41 1.51 2.38 1.55 2.35 1.6C2.31 1.65 2.29 1.69 2.27 1.75C2.25 1.8 2.23 1.85 2.22 1.9C2.21 1.96 2.2 2.02 2.2 2.08L2.2 5.68L2.19 5.71L2.19 5.74C2.19 5.75 2.18 5.76 2.18 5.77C2.18 5.78 2.18 5.79 2.17 5.8C2.17 5.81 2.17 5.82 2.16 5.83C2.16 5.84 2.16 5.85 2.15 5.86C2.15 5.87 2.15 5.87 2.14 5.88C2.14 5.89 2.13 5.9 2.13 5.91L2.11 5.94C2.11 5.94 2.1 5.95 2.1 5.96C2.09 5.97 2.09 5.98 2.08 5.99C2.07 5.99 2.07 6 2.06 6.01C2.05 6.02 2.05 6.03 2.04 6.03C2.03 6.04 2.03 6.05 2.02 6.05C2.01 6.06 2.01 6.07 2 6.07C1.99 6.08 1.98 6.09 1.98 6.1C1.97 6.1 1.96 6.11 1.95 6.11L1.93 6.13C1.92 6.14 1.91 6.14 1.9 6.15L1.88 6.16C1.87 6.17 1.86 6.17 1.85 6.17C1.84 6.18 1.83 6.18 1.82 6.19C1.81 6.19 1.8 6.19 1.79 6.2C1.79 6.2 1.78 6.2 1.77 6.21L1.74 6.21C1.73 6.22 1.72 6.22 1.71 6.22C1.7 6.22 1.69 6.22 1.68 6.23L1.5 6.23C1.49 6.22 1.48 6.22 1.47 6.22C1.46 6.22 1.45 6.22 1.44 6.21L1.41 6.21C1.4 6.2 1.39 6.2 1.38 6.2C1.37 6.19 1.36 6.19 1.36 6.19C1.35 6.18 1.34 6.18 1.33 6.17C1.32 6.17 1.31 6.17 1.3 6.16L1.27 6.15C1.27 6.14 1.26 6.14 1.25 6.13C1.24 6.12 1.23 6.12 1.22 6.11C1.22 6.11 1.21 6.1 1.2 6.1C1.19 6.09 1.19 6.08 1.18 6.07C1.17 6.07 1.16 6.06 1.16 6.05C1.15 6.05 1.14 6.04 1.14 6.03C1.13 6.03 1.12 6.02 1.12 6.01L1.1 5.99C1.09 5.98 1.09 5.97 1.08 5.96C1.08 5.95 1.07 5.94 1.06 5.94L1.05 5.91C1.05 5.9 1.04 5.89 1.04 5.88L1.02 5.86C1.02 5.85 1.02 5.84 1.01 5.83C1.01 5.82 1.01 5.81 1 5.8L1 5.77C0.99 5.76 0.99 5.75 0.99 5.74C0.99 5.73 0.99 5.72 0.98 5.71L0.98 2.08C0.98 1.94 0.99 1.8 1.02 1.66C1.05 1.53 1.09 1.39 1.14 1.27C1.19 1.15 1.26 1.03 1.33 0.92C1.41 0.81 1.49 0.7 1.59 0.61C1.68 0.51 1.78 0.43 1.89 0.36C2 0.28 2.12 0.22 2.25 0.16Q2.43 0.085 2.64 0.04C2.77 0.01 2.91 0 3.06 0L6.66 0L6.69 0.01L6.72 0.01C6.73 0.01 6.74 0.02 6.75 0.02C6.76 0.02 6.77 0.02 6.78 0.03C6.79 0.03 6.8 0.03 6.81 0.04C6.82 0.04 6.82 0.04 6.83 0.05C6.84 0.05 6.85 0.05 6.86 0.06C6.87 0.06 6.88 0.07 6.89 0.07L6.91 0.09C6.92 0.09 6.93 0.1 6.94 0.1C6.95 0.11 6.96 0.11 6.96 0.12C6.97 0.13 6.98 0.13 6.99 0.14L7.01 0.16C7.02 0.16 7.03 0.17 7.03 0.18C7.04 0.19 7.05 0.19 7.05 0.2L7.07 0.22C7.08 0.23 7.09 0.24 7.09 0.25L7.11 0.27C7.11 0.28 7.12 0.29 7.12 0.3L7.14 0.32C7.14 0.33 7.15 0.34 7.15 0.35C7.16 0.36 7.16 0.37 7.16 0.38C7.17 0.39 7.17 0.4 7.18 0.41L7.18 0.43C7.19 0.44 7.19 0.45 7.19 0.46C7.2 0.47 7.2 0.48 7.2 0.49C7.2 0.5 7.2 0.51 7.21 0.52L7.21 0.61ZM17.3 5.88C17.29 5.89 17.29 5.9 17.28 5.91L17.27 5.94C17.26 5.94 17.26 5.95 17.25 5.96C17.25 5.97 17.24 5.98 17.24 5.99C17.23 5.99 17.22 6 17.22 6.01L17.2 6.03L17.16 6.07L17.13 6.1C17.12 6.1 17.12 6.11 17.11 6.11C17.1 6.12 17.09 6.12 17.08 6.13C17.08 6.14 17.07 6.14 17.06 6.15L17.03 6.16C17.02 6.17 17.01 6.17 17.01 6.17C17 6.18 16.99 6.18 16.98 6.19C16.97 6.19 16.96 6.19 16.95 6.2C16.94 6.2 16.93 6.2 16.92 6.21L16.89 6.21C16.88 6.22 16.87 6.22 16.86 6.22C16.85 6.22 16.84 6.22 16.83 6.23L16.66 6.23C16.65 6.22 16.64 6.22 16.63 6.22C16.61 6.22 16.61 6.22 16.6 6.21L16.57 6.21C16.56 6.2 16.55 6.2 16.54 6.2C16.53 6.19 16.52 6.19 16.51 6.19C16.5 6.18 16.49 6.18 16.48 6.17C16.47 6.17 16.47 6.17 16.46 6.16L16.43 6.15C16.42 6.14 16.41 6.14 16.4 6.13C16.4 6.12 16.39 6.12 16.38 6.11C16.37 6.11 16.36 6.1 16.36 6.1L16.33 6.07L16.31 6.05L16.29 6.03C16.28 6.03 16.28 6.02 16.27 6.01C16.27 6 16.26 5.99 16.25 5.99C16.25 5.98 16.24 5.97 16.24 5.96C16.23 5.95 16.23 5.94 16.22 5.94L16.21 5.91C16.2 5.9 16.2 5.89 16.19 5.88C16.19 5.87 16.18 5.87 16.18 5.86C16.18 5.85 16.17 5.84 16.17 5.83C16.17 5.82 16.16 5.81 16.16 5.8C16.16 5.79 16.15 5.78 16.15 5.77L16.15 5.74C16.14 5.73 16.14 5.72 16.14 5.71L16.14 5.68C16.14 5.67 16.13 5.66 16.13 5.65L16.13 2.08C16.13 2.02 16.13 1.96 16.12 1.9C16.11 1.85 16.09 1.8 16.07 1.75C16.05 1.69 16.02 1.65 15.99 1.6C15.96 1.55 15.92 1.51 15.88 1.47C15.84 1.43 15.8 1.4 15.76 1.37C15.71 1.34 15.66 1.31 15.61 1.29C15.56 1.27 15.51 1.25 15.45 1.24C15.39 1.23 15.34 1.22 15.28 1.22L11.64 1.22C11.63 1.21 11.62 1.21 11.61 1.21C11.6 1.21 11.59 1.21 11.59 1.2L11.56 1.2C11.55 1.19 11.54 1.19 11.53 1.19C11.52 1.18 11.51 1.18 11.5 1.18C11.49 1.17 11.48 1.17 11.47 1.16C11.46 1.16 11.45 1.15 11.44 1.15L11.42 1.14C11.41 1.13 11.4 1.12 11.39 1.12C11.39 1.11 11.38 1.11 11.37 1.1C11.36 1.1 11.35 1.09 11.35 1.08C11.34 1.08 11.33 1.07 11.32 1.06L11.3 1.04C11.29 1.04 11.29 1.03 11.28 1.02L11.26 1C11.25 0.99 11.25 0.98 11.24 0.98C11.24 0.97 11.23 0.96 11.22 0.95C11.22 0.94 11.21 0.93 11.21 0.93L11.19 0.9C11.19 0.89 11.19 0.88 11.18 0.87C11.18 0.86 11.17 0.85 11.17 0.84C11.17 0.84 11.16 0.83 11.16 0.82C11.15 0.81 11.15 0.8 11.15 0.79C11.15 0.78 11.14 0.77 11.14 0.76C11.14 0.75 11.14 0.74 11.13 0.73L11.13 0.7L11.12 0.67L11.12 0.55L11.13 0.52L11.13 0.49C11.14 0.48 11.14 0.47 11.14 0.46C11.14 0.45 11.15 0.44 11.15 0.43C11.15 0.42 11.15 0.41 11.16 0.41C11.16 0.4 11.17 0.39 11.17 0.38C11.17 0.37 11.18 0.36 11.18 0.35C11.19 0.34 11.19 0.33 11.19 0.32L11.21 0.3C11.21 0.29 11.22 0.28 11.22 0.27C11.23 0.26 11.24 0.26 11.24 0.25C11.25 0.24 11.25 0.23 11.26 0.22C11.27 0.22 11.27 0.21 11.28 0.2L11.3 0.18L11.32 0.16C11.33 0.15 11.34 0.15 11.35 0.14C11.35 0.13 11.36 0.13 11.37 0.12C11.38 0.11 11.39 0.11 11.39 0.1C11.4 0.1 11.41 0.09 11.42 0.09L11.44 0.07C11.45 0.07 11.46 0.06 11.47 0.06C11.48 0.05 11.49 0.05 11.5 0.05C11.51 0.04 11.52 0.04 11.53 0.04C11.54 0.03 11.55 0.03 11.56 0.03C11.57 0.02 11.58 0.02 11.59 0.02C11.59 0.02 11.6 0.01 11.61 0.01L11.64 0.01L11.67 0L15.28 0C15.42 0 15.56 0.01 15.7 0.04Q15.895 0.085 16.09 0.16C16.21 0.22 16.33 0.28 16.44 0.36C16.55 0.43 16.65 0.51 16.75 0.61C16.84 0.7 16.93 0.81 17 0.92C17.08 1.03 17.14 1.15 17.19 1.27C17.25 1.39 17.29 1.53 17.31 1.66C17.34 1.8 17.36 1.94 17.36 2.08L17.36 5.62C17.36 5.63 17.36 5.64 17.35 5.65L17.35 5.71C17.35 5.72 17.35 5.73 17.34 5.74L17.34 5.77L17.33 5.8C17.33 5.81 17.32 5.82 17.32 5.83C17.32 5.84 17.31 5.85 17.31 5.86C17.31 5.87 17.3 5.87 17.3 5.88ZM18.11 7.65C18.1 7.65 18.09 7.64 18.09 7.64C18.08 7.63 18.07 7.63 18.06 7.62C18.05 7.61 18.04 7.61 18.04 7.6L18.01 7.59C18 7.58 17.99 7.58 17.98 7.58L17.96 7.56C17.95 7.56 17.94 7.56 17.93 7.55C17.92 7.55 17.91 7.55 17.9 7.54C17.89 7.54 17.88 7.54 17.87 7.53L17.84 7.53C17.83 7.53 17.82 7.53 17.81 7.52L0.52 7.52C0.51 7.53 0.5 7.53 0.49 7.53L0.46 7.53C0.45 7.54 0.44 7.54 0.43 7.54C0.42 7.55 0.41 7.55 0.41 7.55C0.4 7.56 0.39 7.56 0.38 7.56C0.37 7.57 0.36 7.57 0.35 7.58C0.34 7.58 0.33 7.58 0.32 7.59L0.3 7.6C0.29 7.61 0.28 7.61 0.27 7.62L0.25 7.64C0.24 7.64 0.23 7.65 0.22 7.65C0.22 7.66 0.21 7.67 0.2 7.68C0.19 7.68 0.19 7.69 0.18 7.7C0.17 7.7 0.17 7.71 0.16 7.72C0.15 7.72 0.15 7.73 0.14 7.74C0.13 7.75 0.13 7.76 0.12 7.76C0.11 7.77 0.11 7.78 0.1 7.79C0.1 7.8 0.09 7.81 0.09 7.81L0.07 7.84C0.07 7.85 0.06 7.86 0.06 7.87C0.06 7.88 0.05 7.88 0.05 7.89C0.04 7.9 0.04 7.91 0.04 7.92C0.03 7.93 0.03 7.94 0.03 7.95C0.02 7.96 0.02 7.97 0.02 7.98C0.02 7.99 0.01 8 0.01 8.01L0.01 8.04L0 8.07L0 8.19L0.01 8.22L0.01 8.25C0.01 8.26 0.02 8.27 0.02 8.28C0.02 8.29 0.02 8.3 0.03 8.31C0.03 8.31 0.03 8.32 0.04 8.33C0.04 8.34 0.04 8.35 0.05 8.36C0.05 8.37 0.06 8.38 0.06 8.39C0.06 8.4 0.07 8.41 0.07 8.42L0.09 8.44C0.09 8.45 0.1 8.46 0.1 8.47L0.12 8.49C0.13 8.5 0.13 8.51 0.14 8.52C0.15 8.52 0.15 8.53 0.16 8.54L0.18 8.56L0.2 8.58C0.21 8.59 0.22 8.59 0.22 8.6C0.23 8.61 0.24 8.61 0.25 8.62C0.26 8.62 0.26 8.63 0.27 8.64C0.28 8.64 0.29 8.65 0.3 8.65L0.32 8.67C0.33 8.67 0.34 8.68 0.35 8.68C0.36 8.68 0.37 8.69 0.38 8.69C0.39 8.7 0.4 8.7 0.41 8.7C0.41 8.71 0.42 8.71 0.43 8.71C0.44 8.72 0.45 8.72 0.46 8.72C0.47 8.72 0.48 8.73 0.49 8.73L0.52 8.73L0.55 8.74L17.78 8.74L17.81 8.73L17.84 8.73C17.85 8.73 17.86 8.72 17.87 8.72C17.88 8.72 17.89 8.72 17.9 8.71C17.91 8.71 17.92 8.71 17.93 8.7C17.94 8.7 17.95 8.7 17.96 8.69C17.97 8.69 17.97 8.68 17.98 8.68C17.99 8.68 18 8.67 18.01 8.67L18.04 8.65C18.04 8.65 18.05 8.64 18.06 8.64C18.07 8.63 18.08 8.62 18.09 8.62C18.09 8.61 18.1 8.61 18.11 8.6C18.12 8.59 18.13 8.59 18.13 8.58C18.14 8.57 18.15 8.57 18.15 8.56C18.16 8.55 18.17 8.55 18.17 8.54C18.18 8.53 18.19 8.52 18.2 8.52C18.2 8.51 18.21 8.5 18.21 8.49L18.23 8.47C18.24 8.46 18.24 8.45 18.25 8.44L18.26 8.42C18.27 8.41 18.27 8.4 18.27 8.39C18.28 8.38 18.28 8.37 18.29 8.36C18.29 8.35 18.29 8.34 18.3 8.33C18.3 8.32 18.3 8.31 18.31 8.31L18.32 8.28L18.32 8.25C18.32 8.24 18.32 8.23 18.33 8.22L18.33 8.04C18.32 8.03 18.32 8.02 18.32 8.01L18.32 7.98L18.31 7.95C18.3 7.94 18.3 7.93 18.3 7.92C18.29 7.91 18.29 7.9 18.29 7.89L18.27 7.87C18.27 7.86 18.27 7.85 18.26 7.84L18.25 7.81C18.24 7.81 18.24 7.8 18.23 7.79C18.22 7.78 18.22 7.77 18.21 7.76C18.21 7.76 18.2 7.75 18.2 7.74C18.19 7.73 18.18 7.72 18.17 7.72C18.17 7.71 18.16 7.7 18.15 7.7C18.15 7.69 18.14 7.68 18.13 7.68C18.13 7.67 18.12 7.66 18.11 7.65ZM3.06 15.16C3 15.16 2.94 15.15 2.88 15.14C2.83 15.13 2.77 15.11 2.72 15.09C2.67 15.07 2.62 15.04 2.58 15.01C2.53 14.98 2.49 14.94 2.45 14.91C2.41 14.87 2.38 14.82 2.35 14.78C2.31 14.73 2.29 14.68 2.27 14.63C2.25 14.58 2.23 14.53 2.22 14.47C2.21 14.42 2.2 14.36 2.2 14.3L2.2 10.7L2.19 10.67L2.19 10.64C2.19 10.63 2.18 10.62 2.18 10.61C2.18 10.6 2.18 10.59 2.17 10.58C2.17 10.57 2.17 10.56 2.16 10.55C2.16 10.54 2.16 10.53 2.15 10.52C2.15 10.51 2.15 10.5 2.14 10.49C2.14 10.49 2.13 10.48 2.13 10.47L2.11 10.44C2.11 10.43 2.1 10.42 2.1 10.42C2.09 10.41 2.09 10.4 2.08 10.39L2.06 10.37C2.05 10.36 2.05 10.35 2.04 10.34C2.03 10.34 2.03 10.33 2.02 10.32C2.01 10.32 2.01 10.31 2 10.3C1.99 10.3 1.98 10.29 1.98 10.28C1.97 10.28 1.96 10.27 1.95 10.26C1.94 10.26 1.94 10.25 1.93 10.25C1.92 10.24 1.91 10.24 1.9 10.23L1.88 10.22C1.87 10.21 1.86 10.21 1.85 10.2C1.84 10.2 1.83 10.19 1.82 10.19C1.81 10.19 1.8 10.18 1.79 10.18C1.79 10.18 1.78 10.17 1.77 10.17C1.76 10.17 1.75 10.17 1.74 10.16L1.71 10.16C1.7 10.15 1.69 10.15 1.68 10.15L1.62 10.15C1.61 10.14 1.6 10.14 1.59 10.14C1.58 10.14 1.57 10.14 1.56 10.15L1.5 10.15C1.49 10.15 1.48 10.15 1.47 10.16L1.44 10.16C1.43 10.17 1.42 10.17 1.41 10.17C1.4 10.17 1.39 10.18 1.38 10.18C1.37 10.18 1.36 10.19 1.36 10.19C1.35 10.19 1.34 10.2 1.33 10.2C1.32 10.21 1.31 10.21 1.3 10.22L1.27 10.23C1.27 10.24 1.26 10.24 1.25 10.25C1.24 10.25 1.23 10.26 1.22 10.26C1.22 10.27 1.21 10.28 1.2 10.28C1.19 10.29 1.19 10.3 1.18 10.3L1.16 10.32L1.14 10.34C1.13 10.35 1.12 10.36 1.12 10.37C1.11 10.38 1.1 10.38 1.1 10.39C1.09 10.4 1.09 10.41 1.08 10.42L1.06 10.44L1.05 10.47C1.05 10.48 1.04 10.49 1.04 10.49C1.03 10.5 1.03 10.51 1.02 10.52C1.02 10.53 1.02 10.54 1.01 10.55C1.01 10.56 1.01 10.57 1 10.58L1 10.61C0.99 10.62 0.99 10.63 0.99 10.64C0.99 10.65 0.99 10.66 0.98 10.67L0.98 14.3C0.98 14.44 0.99 14.58 1.02 14.72C1.05 14.85 1.09 14.98 1.14 15.11C1.19 15.23 1.26 15.35 1.33 15.46C1.41 15.57 1.49 15.67 1.59 15.77C1.68 15.86 1.78 15.95 1.89 16.02C2 16.1 2.12 16.16 2.25 16.21C2.37 16.27 2.5 16.31 2.64 16.34C2.77 16.36 2.91 16.38 3.06 16.38L6.66 16.38L6.69 16.37L6.72 16.37C6.73 16.36 6.74 16.36 6.75 16.36L6.78 16.35C6.79 16.35 6.8 16.35 6.81 16.34C6.82 16.34 6.82 16.33 6.83 16.33C6.84 16.33 6.85 16.32 6.86 16.32C6.87 16.31 6.88 16.31 6.89 16.31L6.91 16.29C6.92 16.29 6.93 16.28 6.94 16.28L6.96 16.26C6.97 16.25 6.98 16.25 6.99 16.24L7.01 16.22C7.02 16.21 7.03 16.21 7.03 16.2L7.05 16.18C7.06 16.17 7.07 16.16 7.07 16.15C7.08 16.15 7.09 16.14 7.09 16.13C7.1 16.12 7.1 16.11 7.11 16.11C7.11 16.1 7.12 16.09 7.12 16.08L7.14 16.06C7.14 16.05 7.15 16.04 7.15 16.03C7.16 16.02 7.16 16.01 7.16 16C7.17 15.99 7.17 15.98 7.18 15.97L7.18 15.94C7.19 15.93 7.19 15.92 7.19 15.92C7.2 15.91 7.2 15.9 7.2 15.89C7.2 15.88 7.2 15.87 7.21 15.86L7.21 15.68C7.2 15.67 7.2 15.66 7.2 15.65C7.2 15.64 7.2 15.63 7.19 15.62C7.19 15.61 7.19 15.6 7.18 15.59L7.18 15.56C7.17 15.55 7.17 15.54 7.16 15.53C7.16 15.52 7.16 15.51 7.15 15.51C7.15 15.5 7.14 15.49 7.14 15.48L7.12 15.45C7.12 15.44 7.11 15.44 7.11 15.43C7.1 15.42 7.1 15.41 7.09 15.4L7.07 15.38C7.07 15.37 7.06 15.36 7.05 15.36C7.05 15.35 7.04 15.34 7.03 15.33L7.01 15.31C7 15.31 7 15.3 6.99 15.29C6.98 15.29 6.97 15.28 6.96 15.28C6.96 15.27 6.95 15.26 6.94 15.26C6.93 15.25 6.92 15.25 6.91 15.24L6.89 15.23C6.88 15.22 6.87 15.22 6.86 15.21C6.85 15.21 6.84 15.21 6.83 15.2C6.82 15.2 6.82 15.19 6.81 15.19C6.8 15.19 6.79 15.18 6.78 15.18C6.77 15.18 6.76 15.18 6.75 15.17L6.72 15.17C6.71 15.17 6.7 15.16 6.69 15.16L3.06 15.16ZM16.09 16.21C15.96 16.27 15.83 16.31 15.7 16.34C15.56 16.36 15.42 16.38 15.28 16.38L11.67 16.38L11.64 16.37L11.61 16.37C11.6 16.36 11.59 16.36 11.59 16.36L11.56 16.35C11.55 16.35 11.54 16.35 11.53 16.34C11.52 16.34 11.51 16.33 11.5 16.33C11.49 16.33 11.48 16.32 11.47 16.32C11.46 16.31 11.45 16.31 11.44 16.31L11.42 16.29C11.41 16.29 11.4 16.28 11.39 16.28C11.39 16.27 11.38 16.26 11.37 16.26C11.36 16.25 11.35 16.25 11.35 16.24C11.34 16.23 11.33 16.23 11.32 16.22C11.32 16.21 11.31 16.21 11.3 16.2C11.29 16.19 11.29 16.18 11.28 16.18C11.27 16.17 11.27 16.16 11.26 16.15C11.25 16.15 11.25 16.14 11.24 16.13C11.24 16.12 11.23 16.11 11.22 16.11C11.22 16.1 11.21 16.09 11.21 16.08L11.19 16.06C11.19 16.05 11.19 16.04 11.18 16.03C11.18 16.02 11.17 16.01 11.17 16C11.17 15.99 11.16 15.98 11.16 15.97C11.15 15.96 11.15 15.95 11.15 15.94C11.15 15.93 11.14 15.92 11.14 15.92C11.14 15.91 11.14 15.9 11.13 15.89L11.13 15.86L11.12 15.83L11.12 15.71L11.13 15.68L11.13 15.65C11.14 15.64 11.14 15.63 11.14 15.62C11.14 15.61 11.15 15.6 11.15 15.59C11.15 15.58 11.15 15.57 11.16 15.56C11.16 15.55 11.17 15.54 11.17 15.53C11.17 15.52 11.18 15.51 11.18 15.51C11.19 15.5 11.19 15.49 11.19 15.48L11.21 15.45C11.21 15.44 11.22 15.44 11.22 15.43C11.23 15.42 11.24 15.41 11.24 15.4C11.25 15.4 11.25 15.39 11.26 15.38C11.27 15.37 11.27 15.36 11.28 15.36C11.29 15.35 11.29 15.34 11.3 15.33C11.31 15.33 11.32 15.32 11.32 15.31C11.33 15.31 11.34 15.3 11.35 15.29C11.35 15.29 11.36 15.28 11.37 15.28L11.39 15.26C11.4 15.25 11.41 15.25 11.42 15.24L11.44 15.23C11.45 15.22 11.46 15.22 11.47 15.21C11.48 15.21 11.49 15.21 11.5 15.2C11.51 15.2 11.52 15.19 11.53 15.19C11.54 15.19 11.55 15.18 11.56 15.18C11.57 15.18 11.58 15.18 11.59 15.17L11.61 15.17C11.62 15.17 11.63 15.16 11.64 15.16L15.28 15.16C15.34 15.16 15.39 15.15 15.45 15.14C15.51 15.13 15.56 15.11 15.61 15.09C15.66 15.07 15.71 15.04 15.76 15.01C15.8 14.98 15.84 14.94 15.88 14.91C15.92 14.87 15.96 14.82 15.99 14.78C16.02 14.73 16.05 14.68 16.07 14.63C16.09 14.58 16.11 14.53 16.12 14.47C16.13 14.42 16.13 14.36 16.13 14.3L16.13 10.73C16.13 10.72 16.14 10.71 16.14 10.7L16.14 10.67C16.14 10.66 16.14 10.65 16.15 10.64L16.15 10.61C16.15 10.6 16.16 10.59 16.16 10.58C16.16 10.57 16.17 10.56 16.17 10.55C16.17 10.54 16.18 10.53 16.18 10.52C16.18 10.51 16.19 10.5 16.19 10.49C16.2 10.49 16.2 10.48 16.21 10.47L16.22 10.44C16.23 10.43 16.23 10.42 16.24 10.42C16.24 10.41 16.25 10.4 16.25 10.39C16.26 10.38 16.27 10.38 16.27 10.37C16.28 10.36 16.28 10.35 16.29 10.34C16.3 10.34 16.31 10.33 16.31 10.32C16.32 10.32 16.33 10.31 16.33 10.3C16.34 10.3 16.35 10.29 16.36 10.28L16.38 10.26C16.39 10.26 16.4 10.25 16.4 10.25C16.41 10.24 16.42 10.24 16.43 10.23L16.46 10.22L16.48 10.2C16.49 10.2 16.5 10.19 16.51 10.19C16.52 10.19 16.53 10.18 16.54 10.18C16.55 10.18 16.56 10.17 16.57 10.17C16.58 10.17 16.59 10.17 16.6 10.16L16.63 10.16C16.64 10.15 16.65 10.15 16.66 10.15L16.72 10.15C16.72 10.14 16.73 10.14 16.74 10.14C16.75 10.14 16.76 10.14 16.77 10.15L16.83 10.15C16.84 10.15 16.85 10.15 16.86 10.16L16.89 10.16C16.9 10.17 16.91 10.17 16.92 10.17C16.93 10.17 16.94 10.18 16.95 10.18C16.96 10.18 16.97 10.19 16.98 10.19C16.99 10.19 17 10.2 17.01 10.2C17.01 10.21 17.02 10.21 17.03 10.22L17.06 10.23C17.07 10.24 17.08 10.24 17.08 10.25C17.09 10.25 17.1 10.26 17.11 10.26C17.12 10.27 17.12 10.28 17.13 10.28C17.14 10.29 17.15 10.3 17.16 10.3C17.16 10.31 17.17 10.32 17.18 10.32C17.18 10.33 17.19 10.34 17.2 10.34C17.2 10.35 17.21 10.36 17.22 10.37C17.22 10.38 17.23 10.38 17.24 10.39C17.24 10.4 17.25 10.41 17.25 10.42C17.26 10.42 17.26 10.43 17.27 10.44L17.28 10.47C17.29 10.48 17.29 10.49 17.3 10.49C17.3 10.5 17.31 10.51 17.31 10.52C17.31 10.53 17.32 10.54 17.32 10.55C17.32 10.56 17.33 10.57 17.33 10.58L17.34 10.61L17.34 10.64C17.35 10.65 17.35 10.66 17.35 10.67L17.35 10.73C17.36 10.74 17.36 10.75 17.36 10.76L17.36 14.3C17.36 14.44 17.34 14.58 17.31 14.72C17.29 14.85 17.25 14.98 17.19 15.11C17.14 15.23 17.08 15.35 17 15.46C16.93 15.57 16.84 15.67 16.75 15.77C16.65 15.86 16.55 15.95 16.44 16.02C16.33 16.1 16.21 16.16 16.09 16.21Z" /></g></g></svg>