<svg xmlns="http://www.w3.org/2000/svg" xmlns:xlink="http://www.w3.org/1999/xlink" width="22" height="22" viewBox="0 0 22 22" fill="none"><defs><rect id="path_0" x="0" y="0" width="22" height="22" /></defs><g opacity="1" transform="translate(0 0)  rotate(0 11 11)"><mask id="bg-mask-0" fill="white"><use xlink:href="#path_0"></use></mask><g mask="url(#bg-mask-0)" ><path id="并集" fill-rule="evenodd" style="fill:#000000" transform="translate(3.292184248746075 3.4222222222222207)  rotate(0 7.982574547661675 7.587318462795682)" opacity="1" d="M1.47 4.84L1.6 4.84L1.6 1.47C1.6 0.66 2.25 0 3.06 0L14.5 0C15.31 0 15.97 0.66 15.97 1.47L15.97 9.97C15.97 10.78 15.31 11.44 14.5 11.44L12.23 11.44L12.23 13.71C12.23 14.52 11.57 15.17 10.76 15.17L1.47 15.17C0.66 15.17 0 14.52 0 13.71L0 6.3C0 5.49 0.66 4.84 1.47 4.84ZM14.72 10.07C14.74 10.04 14.74 10.01 14.74 9.97L14.74 1.47C14.74 1.43 14.74 1.4 14.72 1.37C14.71 1.34 14.69 1.32 14.67 1.29C14.65 1.27 14.62 1.25 14.59 1.24C14.56 1.23 14.53 1.22 14.5 1.22L3.06 1.22C3.03 1.22 3 1.23 2.97 1.24C2.94 1.25 2.91 1.27 2.89 1.29C2.87 1.32 2.85 1.34 2.84 1.37C2.83 1.4 2.82 1.43 2.82 1.47L2.82 4.84L10.76 4.84C11.57 4.84 12.23 5.49 12.23 6.3L12.23 10.22L14.5 10.22C14.53 10.22 14.56 10.21 14.59 10.2C14.62 10.18 14.65 10.17 14.67 10.14C14.69 10.12 14.71 10.1 14.72 10.07ZM10.94 13.88C10.96 13.86 10.98 13.83 10.99 13.8C11 13.77 11.01 13.74 11.01 13.71L11.01 6.3C11.01 6.27 11 6.24 10.99 6.21C10.98 6.18 10.96 6.15 10.94 6.13C10.91 6.11 10.89 6.09 10.86 6.08C10.83 6.07 10.8 6.06 10.76 6.06L1.47 6.06C1.43 6.06 1.4 6.07 1.37 6.08C1.34 6.09 1.32 6.11 1.29 6.13C1.27 6.15 1.25 6.18 1.24 6.21C1.23 6.24 1.22 6.27 1.22 6.3L1.22 13.71C1.22 13.74 1.23 13.77 1.24 13.8C1.25 13.83 1.27 13.86 1.29 13.88C1.32 13.9 1.34 13.92 1.37 13.93C1.4 13.95 1.43 13.95 1.47 13.95L10.76 13.95C10.8 13.95 10.83 13.95 10.86 13.93C10.89 13.92 10.91 13.9 10.94 13.88ZM2.21 10.01C2.21 9.67 2.48 9.39 2.82 9.39C3.16 9.39 3.43 9.67 3.43 10.01C3.43 10.34 3.16 10.62 2.82 10.62C2.48 10.62 2.21 10.34 2.21 10.01Z" /></g></g></svg>