<svg xmlns="http://www.w3.org/2000/svg" xmlns:xlink="http://www.w3.org/1999/xlink" width="22" height="22" viewBox="0 0 22 22" fill="none"><defs><rect id="path_0" x="0" y="0" width="22" height="22" /></defs><g opacity="1" transform="translate(0 0)  rotate(0 11 11)"><mask id="bg-mask-0" fill="white"><use xlink:href="#path_0"></use></mask><g mask="url(#bg-mask-0)" ><path id="并集" fill-rule="evenodd" style="fill:#000000" transform="translate(3.2933542504557387 3.4222222222222243)  rotate(0 7.985411456279971 7.587318462795681)" opacity="1" d="M1.47 4.84L1.6 4.84L1.6 1.47C1.6 0.66 2.25 0 3.06 0L14.5 0C15.31 0 15.97 0.66 15.97 1.47L15.97 9.97C15.97 10.78 15.31 11.44 14.5 11.44L6.67 11.44L6.67 13.71C6.67 14.52 6.01 15.17 5.2 15.17L1.47 15.17C0.66 15.17 0 14.52 0 13.71L0 6.3C0 5.49 0.66 4.84 1.47 4.84ZM2.82 4.84L5.2 4.84C6.01 4.84 6.67 5.49 6.67 6.3L6.67 10.22L14.5 10.22C14.54 10.22 14.57 10.21 14.6 10.2C14.63 10.18 14.65 10.17 14.68 10.14C14.7 10.12 14.72 10.1 14.73 10.07C14.74 10.04 14.75 10.01 14.75 9.97L14.75 1.47C14.75 1.43 14.74 1.4 14.73 1.37C14.72 1.34 14.7 1.32 14.68 1.29C14.65 1.27 14.63 1.25 14.6 1.24C14.57 1.23 14.54 1.22 14.5 1.22L3.06 1.22C3.03 1.22 3 1.23 2.97 1.24C2.94 1.25 2.91 1.27 2.89 1.29C2.87 1.32 2.85 1.34 2.84 1.37C2.83 1.4 2.82 1.43 2.82 1.47L2.82 4.84ZM5.38 6.13C5.4 6.15 5.42 6.18 5.43 6.21C5.44 6.24 5.45 6.27 5.45 6.3L5.45 13.71C5.45 13.74 5.44 13.77 5.43 13.8C5.42 13.83 5.4 13.86 5.38 13.88C5.35 13.9 5.33 13.92 5.3 13.93C5.27 13.95 5.24 13.95 5.2 13.95L1.47 13.95C1.43 13.95 1.4 13.95 1.37 13.93C1.34 13.92 1.32 13.9 1.29 13.88C1.27 13.86 1.25 13.83 1.24 13.8C1.23 13.77 1.22 13.74 1.22 13.71L1.22 6.3C1.22 6.27 1.23 6.24 1.24 6.21C1.25 6.18 1.27 6.15 1.29 6.13C1.32 6.11 1.34 6.09 1.37 6.08C1.4 6.07 1.43 6.06 1.47 6.06L5.2 6.06C5.24 6.06 5.27 6.07 5.3 6.08C5.33 6.09 5.35 6.11 5.38 6.13ZM3.3 13.32C3.64 13.32 3.91 13.05 3.91 12.71C3.91 12.37 3.64 12.1 3.3 12.1C2.96 12.1 2.69 12.37 2.69 12.71C2.69 13.05 2.96 13.32 3.3 13.32Z" /></g></g></svg>