<svg xmlns="http://www.w3.org/2000/svg" xmlns:xlink="http://www.w3.org/1999/xlink" width="22" height="22" viewBox="0 0 22 22" fill="none"><defs><rect id="path_0" x="0" y="0" width="22" height="22" /></defs><g opacity="1" transform="translate(0 0)  rotate(0 11 11)"><mask id="bg-mask-0" fill="white"><use xlink:href="#path_0"></use></mask><g mask="url(#bg-mask-0)" ><path id="并集" fill-rule="evenodd" style="fill:#000000" transform="translate(1.8751803707539239 2.3478888370905224)  rotate(0 9.145827739314887 8.652783333333334)" opacity="1" d="M18.29 9.95L18.29 1.47C18.29 0.66 17.64 0 16.82 0L4.78 0C3.97 0 3.31 0.66 3.31 1.47L3.31 5.75L2.1 5.75C1.29 5.75 0.63 6.4 0.63 7.21L0.63 12.52C0.63 12.91 0.78 13.28 1.06 13.56C1.09 13.59 1.12 13.62 1.15 13.64C1.08 13.72 1.02 13.8 0.97 13.89L0.19 15.23C-0.06 15.66 -0.06 16.19 0.18 16.61C0.43 17.04 0.88 17.31 1.38 17.31L13.62 17.31C14.11 17.31 14.57 17.04 14.81 16.61C15.06 16.19 15.06 15.66 14.81 15.23L14.02 13.89C13.97 13.8 13.91 13.72 13.84 13.64C13.87 13.62 13.91 13.59 13.94 13.56C14.21 13.28 14.37 12.91 14.37 12.52L14.37 11.42L16.82 11.42C17.64 11.42 18.29 10.76 18.29 9.95ZM14.37 7.21C14.37 6.4 13.71 5.75 12.9 5.75L4.53 5.75L4.53 1.47C4.53 1.43 4.54 1.4 4.55 1.37C4.56 1.34 4.58 1.32 4.61 1.29C4.63 1.27 4.65 1.25 4.68 1.24C4.71 1.23 4.74 1.22 4.78 1.22L16.82 1.22C16.86 1.22 16.89 1.23 16.92 1.24C16.95 1.25 16.98 1.27 17 1.29C17.02 1.32 17.04 1.34 17.05 1.37C17.06 1.4 17.07 1.43 17.07 1.47L17.07 9.95C17.07 9.99 17.06 10.02 17.05 10.05C17.04 10.08 17.02 10.1 17 10.13C16.98 10.15 16.95 10.17 16.92 10.18C16.89 10.19 16.86 10.2 16.82 10.2L14.37 10.2L14.37 7.21ZM12.99 6.99C13.02 7 13.05 7.02 13.07 7.04C13.09 7.06 13.11 7.09 13.12 7.12C13.14 7.15 13.14 7.18 13.14 7.21L13.14 12.52C13.14 12.55 13.14 12.58 13.12 12.61C13.11 12.65 13.1 12.67 13.07 12.69C13.05 12.72 13.02 12.73 12.99 12.75C12.96 12.76 12.93 12.77 12.9 12.77L2.1 12.77C2.06 12.77 2.03 12.76 2 12.75C1.97 12.73 1.95 12.72 1.92 12.7C1.9 12.67 1.88 12.65 1.87 12.61C1.86 12.58 1.85 12.55 1.85 12.52L1.85 7.21C1.85 7.18 1.86 7.15 1.87 7.12C1.88 7.09 1.9 7.06 1.92 7.04C1.95 7.02 1.97 7 2 6.99C2.03 6.97 2.06 6.97 2.1 6.97L12.9 6.97C12.93 6.97 12.96 6.97 12.99 6.99ZM2.03 14.51L1.24 15.85C1.23 15.87 1.22 15.9 1.22 15.93C1.22 15.94 1.22 15.95 1.23 15.97C1.23 15.98 1.24 15.99 1.24 16.01L1.27 16.04C1.28 16.05 1.29 16.06 1.3 16.06C1.32 16.08 1.35 16.08 1.38 16.08L13.62 16.08C13.64 16.08 13.67 16.08 13.69 16.06C13.71 16.06 13.72 16.05 13.73 16.04C13.74 16.03 13.74 16.02 13.75 16.01C13.76 15.99 13.76 15.98 13.77 15.97L13.77 15.93C13.77 15.9 13.76 15.87 13.75 15.85L12.97 14.51C12.96 14.49 12.94 14.47 12.93 14.46C12.91 14.44 12.9 14.43 12.88 14.42L12.82 14.39L2.17 14.39C2.15 14.4 2.13 14.41 2.12 14.42C2.1 14.43 2.08 14.44 2.07 14.46C2.05 14.47 2.04 14.49 2.03 14.51Z" /></g></g></svg>