<svg xmlns="http://www.w3.org/2000/svg" xmlns:xlink="http://www.w3.org/1999/xlink" width="22" height="22" viewBox="0 0 22 22" fill="none"><defs><rect id="path_0" x="0" y="0" width="22" height="22" /></defs><g opacity="1" transform="translate(0 0)  rotate(0 11 11)"><mask id="bg-mask-0" fill="white"><use xlink:href="#path_0"></use></mask><g mask="url(#bg-mask-0)" ><path id="并集" fill-rule="evenodd" style="fill:#000000" transform="translate(2.6307408565636052 2.5662151514993887)  rotate(0 8.369271337648387 8.433784663143719)" opacity="1" d="M8.1 7.47C8.1 7.48 8.1 7.49 8.11 7.5L8.11 7.56C8.11 7.57 8.11 7.58 8.1 7.59L8.1 7.65C8.09 7.66 8.09 7.67 8.09 7.68C8.09 7.69 8.09 7.7 8.08 7.71L8.07 7.74C8.07 7.75 8.07 7.76 8.06 7.77C8.06 7.78 8.05 7.79 8.05 7.8C8.05 7.8 8.04 7.81 8.04 7.82C8.03 7.83 8.03 7.84 8.02 7.85C8.02 7.86 8.01 7.87 8.01 7.87C8 7.88 8 7.89 7.99 7.9L7.97 7.92C7.97 7.93 7.96 7.94 7.95 7.94C7.95 7.95 7.94 7.96 7.93 7.97C7.92 7.98 7.9 7.99 7.89 8.01C7.87 8.02 7.86 8.03 7.84 8.04C7.82 8.05 7.81 8.07 7.79 8.08C7.77 8.08 7.75 8.09 7.74 8.1C7.72 8.11 7.7 8.12 7.68 8.12C7.66 8.13 7.64 8.13 7.62 8.14C7.6 8.14 7.58 8.14 7.56 8.15L7.44 8.15C7.42 8.15 7.4 8.14 7.38 8.14C7.36 8.14 7.34 8.13 7.32 8.13C7.31 8.12 7.29 8.11 7.27 8.11L7.21 8.08C7.2 8.07 7.18 8.06 7.16 8.05C7.14 8.04 7.13 8.03 7.11 8.02C7.1 8 7.08 7.99 7.07 7.98L1.22 2.25L1.22 6.41C1.21 6.42 1.21 6.43 1.21 6.44C1.21 6.45 1.21 6.46 1.2 6.47L1.2 6.5C1.19 6.51 1.19 6.52 1.19 6.53C1.18 6.54 1.18 6.55 1.18 6.56L1.16 6.58C1.16 6.59 1.16 6.6 1.15 6.61L1.14 6.64C1.13 6.65 1.12 6.65 1.12 6.66C1.11 6.67 1.11 6.68 1.1 6.69L1.08 6.71C1.08 6.72 1.07 6.73 1.06 6.73C1.06 6.74 1.05 6.75 1.04 6.76C1.04 6.76 1.03 6.77 1.02 6.77C1.01 6.78 1.01 6.79 1 6.8C0.99 6.8 0.98 6.81 0.98 6.81C0.97 6.82 0.96 6.82 0.95 6.83C0.94 6.84 0.93 6.84 0.93 6.85L0.9 6.86C0.89 6.87 0.88 6.87 0.87 6.87C0.86 6.88 0.85 6.88 0.84 6.89C0.84 6.89 0.83 6.89 0.82 6.9C0.81 6.9 0.8 6.9 0.79 6.91C0.78 6.91 0.77 6.91 0.76 6.92L0.73 6.92C0.72 6.92 0.71 6.93 0.7 6.93L0.52 6.93C0.51 6.93 0.5 6.92 0.49 6.92L0.46 6.92C0.45 6.91 0.44 6.91 0.43 6.91C0.42 6.9 0.41 6.9 0.41 6.9C0.4 6.89 0.39 6.89 0.38 6.89C0.37 6.88 0.36 6.88 0.35 6.87C0.34 6.87 0.33 6.87 0.32 6.86L0.3 6.85C0.29 6.84 0.28 6.84 0.27 6.83L0.25 6.81C0.24 6.81 0.23 6.8 0.22 6.8C0.22 6.79 0.21 6.78 0.2 6.77C0.19 6.77 0.19 6.76 0.18 6.76C0.17 6.75 0.17 6.74 0.16 6.73C0.15 6.73 0.15 6.72 0.14 6.71C0.13 6.7 0.13 6.69 0.12 6.69C0.11 6.68 0.11 6.67 0.1 6.66C0.1 6.65 0.09 6.65 0.09 6.64L0.07 6.61C0.07 6.6 0.06 6.59 0.06 6.58C0.05 6.57 0.05 6.57 0.05 6.56C0.04 6.55 0.04 6.54 0.04 6.53C0.03 6.52 0.03 6.51 0.03 6.5C0.02 6.49 0.02 6.48 0.02 6.47C0.02 6.46 0.01 6.45 0.01 6.44L0.01 6.41L0 6.38L0 2.09C0 1.95 0.01 1.81 0.04 1.67Q0.085 1.475 0.16 1.28C0.22 1.16 0.28 1.04 0.35 0.93C0.43 0.82 0.51 0.72 0.61 0.62C0.7 0.53 0.8 0.44 0.91 0.37C1.02 0.29 1.14 0.23 1.27 0.18C1.39 0.12 1.52 0.08 1.65 0.05C1.79 0.03 1.93 0.01 2.07 0.01L6.3 0L6.36 0L6.39 0.01L6.42 0.01L6.45 0.02L6.48 0.03C6.49 0.03 6.5 0.03 6.51 0.04C6.52 0.04 6.53 0.04 6.54 0.05C6.55 0.05 6.55 0.05 6.56 0.06C6.57 0.06 6.58 0.07 6.59 0.07L6.62 0.09C6.63 0.09 6.63 0.1 6.64 0.1C6.65 0.11 6.66 0.11 6.67 0.12L6.69 0.14C6.7 0.14 6.71 0.15 6.71 0.16C6.72 0.16 6.73 0.17 6.74 0.18L6.76 0.2C6.76 0.21 6.77 0.21 6.78 0.22C6.78 0.23 6.79 0.24 6.79 0.25C6.8 0.25 6.81 0.26 6.81 0.27C6.82 0.28 6.82 0.29 6.83 0.3L6.84 0.32C6.85 0.33 6.85 0.34 6.86 0.35C6.86 0.36 6.86 0.37 6.87 0.38C6.87 0.39 6.88 0.39 6.88 0.4C6.88 0.41 6.89 0.42 6.89 0.43C6.89 0.44 6.89 0.45 6.9 0.46L6.9 0.49C6.91 0.5 6.91 0.51 6.91 0.52L6.91 0.58C6.92 0.59 6.92 0.6 6.92 0.61C6.92 0.63 6.91 0.65 6.91 0.67C6.91 0.69 6.91 0.71 6.9 0.73C6.9 0.75 6.9 0.77 6.89 0.79C6.88 0.81 6.88 0.83 6.87 0.84L6.84 0.9C6.83 0.92 6.82 0.93 6.81 0.95C6.8 0.97 6.79 0.98 6.78 1L6.74 1.04C6.72 1.06 6.71 1.07 6.69 1.08C6.68 1.1 6.66 1.11 6.65 1.12L6.59 1.15C6.58 1.16 6.56 1.17 6.54 1.17L6.48 1.2C6.46 1.2 6.44 1.21 6.43 1.21C6.41 1.21 6.39 1.22 6.37 1.22L6.31 1.22L2.08 1.23C2.03 1.23 1.98 1.24 1.94 1.24L7.92 7.1L7.94 7.12C7.95 7.13 7.96 7.14 7.96 7.15L7.98 7.17C7.99 7.18 7.99 7.19 8 7.19C8.01 7.2 8.01 7.21 8.02 7.22L8.03 7.25C8.04 7.25 8.04 7.26 8.05 7.27C8.05 7.28 8.05 7.29 8.06 7.3C8.06 7.31 8.07 7.32 8.07 7.33C8.07 7.34 8.08 7.35 8.08 7.36C8.08 7.36 8.08 7.37 8.09 7.38L8.09 7.41C8.1 7.42 8.1 7.43 8.1 7.44L8.1 7.47ZM16.39 9.99C16.38 9.99 16.37 9.98 16.36 9.98C16.35 9.98 16.34 9.97 16.33 9.97C16.32 9.97 16.31 9.96 16.3 9.96C16.29 9.96 16.29 9.95 16.28 9.95L16.25 9.95C16.24 9.94 16.23 9.94 16.22 9.94L16.16 9.94C16.15 9.93 16.14 9.93 16.13 9.93C16.12 9.93 16.11 9.93 16.1 9.94L16.04 9.94C16.03 9.94 16.02 9.94 16.01 9.95L15.98 9.95C15.97 9.95 15.96 9.96 15.95 9.96C15.94 9.96 15.93 9.97 15.92 9.97C15.91 9.97 15.9 9.98 15.89 9.98C15.88 9.98 15.88 9.99 15.87 9.99C15.86 10 15.85 10 15.84 10.01L15.81 10.02L15.79 10.04C15.78 10.04 15.77 10.05 15.76 10.05C15.76 10.06 15.75 10.07 15.74 10.07L15.72 10.09C15.71 10.1 15.7 10.11 15.69 10.11C15.69 10.12 15.68 10.13 15.68 10.13L15.65 10.16C15.65 10.16 15.64 10.17 15.64 10.18C15.63 10.19 15.63 10.2 15.62 10.21C15.61 10.21 15.61 10.22 15.6 10.23L15.59 10.26C15.58 10.27 15.58 10.27 15.58 10.28C15.57 10.29 15.57 10.3 15.56 10.31C15.56 10.32 15.56 10.33 15.55 10.34C15.55 10.35 15.55 10.36 15.54 10.37C15.54 10.38 15.54 10.39 15.53 10.4L15.53 10.43C15.53 10.44 15.52 10.45 15.52 10.46L15.52 14.79L9.57 8.85C9.56 8.83 9.54 8.82 9.53 8.81C9.51 8.79 9.49 8.78 9.48 8.77C9.46 8.76 9.44 8.75 9.43 8.74L9.37 8.71C9.35 8.71 9.33 8.7 9.31 8.69C9.3 8.69 9.28 8.68 9.26 8.68C9.24 8.67 9.22 8.67 9.2 8.67L9.08 8.67C9.06 8.67 9.04 8.67 9.02 8.68C9 8.68 8.98 8.69 8.96 8.69C8.94 8.7 8.92 8.71 8.9 8.71C8.89 8.72 8.87 8.73 8.85 8.74C8.83 8.75 8.82 8.76 8.8 8.77C8.78 8.78 8.77 8.79 8.75 8.81C8.73 8.82 8.72 8.83 8.71 8.85C8.7 8.85 8.69 8.86 8.69 8.87C8.68 8.88 8.67 8.88 8.66 8.89L8.65 8.91C8.64 8.92 8.64 8.93 8.63 8.94C8.62 8.95 8.62 8.96 8.61 8.96C8.61 8.97 8.6 8.98 8.6 8.99C8.59 9 8.59 9.01 8.59 9.02C8.58 9.03 8.58 9.04 8.57 9.04C8.57 9.05 8.57 9.06 8.56 9.07C8.56 9.08 8.56 9.09 8.55 9.1L8.54 9.13L8.54 9.16C8.54 9.17 8.53 9.18 8.53 9.19L8.53 9.37C8.54 9.38 8.54 9.39 8.54 9.4L8.54 9.43L8.55 9.46C8.56 9.46 8.56 9.47 8.56 9.48C8.57 9.49 8.57 9.5 8.57 9.51C8.58 9.52 8.58 9.53 8.58 9.54C8.59 9.55 8.59 9.56 8.6 9.57C8.6 9.58 8.61 9.58 8.61 9.59C8.62 9.6 8.62 9.61 8.63 9.62C8.63 9.63 8.64 9.63 8.65 9.64L8.66 9.67C8.67 9.67 8.68 9.68 8.68 9.69C8.69 9.7 8.7 9.7 8.71 9.71L14.63 15.63L10.43 15.65L10.37 15.65C10.35 15.65 10.33 15.65 10.31 15.66C10.29 15.66 10.27 15.67 10.26 15.67C10.24 15.68 10.22 15.68 10.2 15.69L10.14 15.72C10.13 15.73 10.11 15.74 10.09 15.75C10.08 15.76 10.06 15.77 10.05 15.78C10.03 15.8 10.02 15.81 10 15.82C9.99 15.84 9.97 15.85 9.96 15.87C9.95 15.88 9.94 15.9 9.93 15.92C9.91 15.93 9.9 15.95 9.89 15.97C9.89 15.99 9.88 16.01 9.87 16.02C9.86 16.04 9.85 16.06 9.85 16.08C9.84 16.1 9.84 16.12 9.83 16.14L9.83 16.2C9.82 16.22 9.82 16.24 9.82 16.26L9.82 16.29C9.82 16.3 9.83 16.31 9.83 16.32L9.83 16.35C9.83 16.36 9.83 16.37 9.84 16.38L9.84 16.41C9.84 16.42 9.85 16.43 9.85 16.43C9.85 16.44 9.86 16.45 9.86 16.46C9.86 16.47 9.87 16.48 9.87 16.49C9.87 16.5 9.88 16.51 9.88 16.52C9.89 16.53 9.89 16.54 9.9 16.55L9.91 16.57C9.92 16.58 9.92 16.59 9.93 16.6C9.93 16.61 9.94 16.61 9.94 16.62C9.95 16.63 9.96 16.64 9.96 16.65C9.97 16.65 9.98 16.66 9.98 16.67L10 16.69C10.01 16.7 10.02 16.7 10.02 16.71C10.03 16.72 10.04 16.72 10.05 16.73L10.07 16.75C10.08 16.75 10.09 16.76 10.1 16.76C10.1 16.77 10.11 16.78 10.12 16.78L10.15 16.8C10.16 16.8 10.17 16.81 10.17 16.81C10.18 16.81 10.19 16.82 10.2 16.82C10.21 16.83 10.22 16.83 10.23 16.83C10.24 16.84 10.25 16.84 10.26 16.84L10.32 16.86L10.35 16.86L10.38 16.87L10.44 16.87L14.67 16.86C14.81 16.86 14.95 16.84 15.08 16.81C15.22 16.79 15.35 16.75 15.47 16.69C15.6 16.64 15.71 16.58 15.83 16.5C15.94 16.43 16.04 16.34 16.13 16.25C16.23 16.15 16.31 16.05 16.38 15.94C16.46 15.83 16.52 15.71 16.58 15.59C16.63 15.46 16.67 15.33 16.7 15.2C16.73 15.06 16.74 14.92 16.74 14.78L16.74 10.49L16.73 10.46L16.73 10.43C16.73 10.42 16.72 10.41 16.72 10.4C16.72 10.39 16.72 10.38 16.71 10.37C16.71 10.36 16.71 10.35 16.7 10.34C16.7 10.33 16.7 10.32 16.69 10.31C16.69 10.3 16.68 10.29 16.68 10.28C16.68 10.27 16.67 10.27 16.67 10.26L16.65 10.23C16.65 10.22 16.64 10.21 16.64 10.21C16.63 10.2 16.62 10.19 16.62 10.18C16.61 10.17 16.61 10.16 16.6 10.16C16.59 10.15 16.59 10.14 16.58 10.13C16.57 10.13 16.57 10.12 16.56 10.11C16.55 10.11 16.55 10.1 16.54 10.09C16.53 10.09 16.52 10.08 16.51 10.07L16.49 10.05C16.48 10.05 16.48 10.04 16.47 10.04C16.46 10.03 16.45 10.03 16.44 10.02L16.42 10.01C16.41 10 16.4 10 16.39 9.99Z" /></g></g></svg>