<svg xmlns="http://www.w3.org/2000/svg" xmlns:xlink="http://www.w3.org/1999/xlink" width="22" height="22" viewBox="0 0 22 22" fill="none"><defs><rect id="path_0" x="0" y="0" width="22" height="22" /></defs><g opacity="1" transform="translate(0 0)  rotate(0 11 11)"><mask id="bg-mask-0" fill="white"><use xlink:href="#path_0"></use></mask><g mask="url(#bg-mask-0)" ><path id="并集" fill-rule="evenodd" style="fill:#000000" transform="translate(1.8015636640487998 2.2104626458986427)  rotate(0 9.209092712402343 8.87067370944553)" opacity="1" d="M9.28 5.55C9.27 5.55 9.26 5.56 9.25 5.56C9.24 5.57 9.23 5.57 9.22 5.57C9.21 5.58 9.21 5.58 9.19 5.58C9.19 5.59 9.18 5.59 9.17 5.59C9.16 5.6 9.15 5.6 9.14 5.6C9.13 5.6 9.12 5.61 9.11 5.61L9.08 5.61C9.07 5.61 9.06 5.62 9.05 5.62L8.93 5.62C8.92 5.61 8.91 5.61 8.9 5.61L8.87 5.61C8.86 5.61 8.85 5.6 8.84 5.6C8.83 5.6 8.82 5.6 8.81 5.59C8.8 5.59 8.79 5.59 8.78 5.58C8.77 5.58 8.77 5.58 8.76 5.57C8.75 5.57 8.74 5.56 8.73 5.56C8.72 5.56 8.71 5.55 8.7 5.55L8.68 5.53L8.65 5.52L8.63 5.5L8.6 5.48C8.6 5.47 8.59 5.47 8.58 5.46C8.57 5.45 8.56 5.45 8.56 5.44L8.54 5.42C8.53 5.41 8.52 5.4 8.52 5.39C8.51 5.39 8.51 5.38 8.5 5.37C8.49 5.36 8.49 5.35 8.48 5.35C8.48 5.34 8.47 5.33 8.47 5.32C8.46 5.31 8.46 5.3 8.45 5.3C8.45 5.29 8.44 5.28 8.44 5.27C8.43 5.26 8.43 5.25 8.43 5.24C8.42 5.23 8.42 5.22 8.42 5.21C8.41 5.2 8.41 5.19 8.41 5.18C8.4 5.18 8.4 5.16 8.4 5.16C8.4 5.15 8.39 5.14 8.39 5.13L8.39 5.1C8.39 5.09 8.38 5.08 8.38 5.07L8.38 4.95C8.38 4.94 8.39 4.93 8.39 4.92L8.39 4.89C8.39 4.88 8.4 4.87 8.4 4.86C8.4 4.85 8.4 4.84 8.41 4.83C8.41 4.82 8.41 4.81 8.42 4.8C8.42 4.79 8.42 4.78 8.43 4.77C8.43 4.76 8.44 4.76 8.44 4.75C8.44 4.74 8.45 4.73 8.45 4.72L8.47 4.69L8.48 4.67C8.49 4.66 8.49 4.65 8.5 4.64L8.52 4.62C8.53 4.61 8.53 4.6 8.54 4.6C8.55 4.59 8.55 4.58 8.56 4.58L12.98 0.18C12.98 0.17 12.99 0.16 13 0.16C13.01 0.15 13.01 0.14 13.02 0.14C13.03 0.13 13.04 0.13 13.05 0.12C13.05 0.11 13.06 0.11 13.07 0.1C13.08 0.1 13.09 0.09 13.1 0.09C13.1 0.08 13.11 0.08 13.12 0.07C13.13 0.07 13.14 0.06 13.15 0.06C13.16 0.05 13.17 0.05 13.18 0.05L13.2 0.03L13.23 0.03C13.24 0.02 13.25 0.02 13.26 0.02C13.27 0.02 13.28 0.01 13.29 0.01L13.32 0.01C13.33 0.01 13.34 0 13.35 0L13.47 0C13.48 0 13.49 0.01 13.5 0.01L13.53 0.01C13.54 0.01 13.55 0.02 13.56 0.02C13.57 0.02 13.58 0.02 13.59 0.03C13.6 0.03 13.61 0.03 13.62 0.04C13.63 0.04 13.63 0.04 13.64 0.05C13.65 0.05 13.66 0.05 13.67 0.06C13.68 0.06 13.69 0.07 13.7 0.07L13.72 0.09C13.73 0.09 13.74 0.1 13.75 0.1C13.76 0.11 13.77 0.11 13.77 0.12L13.8 0.14C13.8 0.15 13.81 0.15 13.82 0.16L13.84 0.18L18.24 4.58C18.25 4.58 18.25 4.59 18.26 4.6L18.28 4.62L18.3 4.64C18.3 4.65 18.31 4.66 18.31 4.67L18.33 4.69C18.34 4.7 18.34 4.71 18.34 4.72C18.35 4.73 18.36 4.74 18.36 4.75C18.36 4.76 18.37 4.77 18.37 4.77C18.38 4.78 18.38 4.79 18.38 4.8C18.38 4.81 18.39 4.82 18.39 4.83L18.4 4.86C18.4 4.87 18.4 4.88 18.41 4.89L18.41 4.95C18.42 4.96 18.42 4.97 18.42 4.98L18.42 5.04C18.42 5.05 18.42 5.06 18.41 5.07L18.41 5.13C18.4 5.14 18.4 5.15 18.4 5.16L18.39 5.19C18.39 5.2 18.38 5.2 18.38 5.21C18.38 5.22 18.38 5.23 18.37 5.24C18.37 5.25 18.36 5.26 18.36 5.27C18.36 5.28 18.35 5.29 18.34 5.3C18.34 5.31 18.34 5.31 18.33 5.32C18.33 5.33 18.32 5.34 18.31 5.35C18.31 5.36 18.3 5.36 18.3 5.37L18.28 5.4C18.27 5.4 18.27 5.41 18.26 5.42L18.24 5.44C18.23 5.45 18.22 5.45 18.22 5.46C18.21 5.47 18.2 5.47 18.19 5.48L18.17 5.5C18.16 5.5 18.15 5.51 18.15 5.52C18.14 5.52 18.13 5.53 18.12 5.53C18.11 5.54 18.1 5.54 18.09 5.55C18.09 5.55 18.08 5.56 18.07 5.56C18.06 5.56 18.05 5.57 18.04 5.57C18.03 5.58 18.02 5.58 18.01 5.58C18 5.59 17.99 5.59 17.98 5.59L17.95 5.6C17.95 5.6 17.94 5.61 17.93 5.61L17.9 5.61C17.89 5.61 17.88 5.62 17.87 5.62L17.75 5.62C17.74 5.62 17.73 5.61 17.72 5.61L17.69 5.61C17.68 5.61 17.67 5.6 17.66 5.6L17.63 5.59C17.62 5.59 17.61 5.59 17.6 5.58C17.59 5.58 17.58 5.58 17.57 5.57C17.56 5.57 17.55 5.56 17.54 5.56C17.54 5.56 17.53 5.55 17.52 5.55C17.51 5.54 17.5 5.54 17.49 5.53C17.48 5.53 17.48 5.52 17.47 5.52C17.46 5.51 17.45 5.5 17.44 5.5L17.42 5.48C17.41 5.47 17.4 5.47 17.4 5.46C17.39 5.45 17.38 5.45 17.37 5.44L14.01 2.08L14.01 11.42C14.01 11.44 14 11.46 14 11.47C13.99 11.5 13.99 11.51 13.98 11.53C13.98 11.55 13.97 11.57 13.96 11.59C13.96 11.61 13.95 11.63 13.94 11.64L13.91 11.7L13.87 11.74C13.86 11.76 13.85 11.77 13.83 11.79L13.79 11.83C13.77 11.84 13.75 11.85 13.74 11.86C13.72 11.88 13.7 11.89 13.69 11.9C13.67 11.9 13.65 11.91 13.63 11.92C13.61 11.93 13.6 11.94 13.58 11.94C13.56 11.95 13.54 11.95 13.52 11.96L13.46 11.96C13.44 11.97 13.42 11.97 13.4 11.97L13.37 11.97C13.36 11.97 13.35 11.96 13.34 11.96L13.28 11.96C13.27 11.95 13.26 11.95 13.25 11.95C13.24 11.95 13.23 11.94 13.22 11.94C13.21 11.94 13.2 11.94 13.19 11.93C13.18 11.93 13.17 11.92 13.17 11.92C13.16 11.92 13.15 11.91 13.14 11.91C13.13 11.9 13.12 11.9 13.11 11.9L13.09 11.88C13.08 11.88 13.07 11.87 13.06 11.86C13.05 11.86 13.04 11.85 13.04 11.85C13.03 11.84 13.02 11.84 13.01 11.83L12.99 11.81L12.97 11.79L12.95 11.77C12.94 11.76 12.93 11.75 12.93 11.74C12.92 11.74 12.91 11.73 12.91 11.72C12.9 11.71 12.9 11.7 12.89 11.7C12.89 11.69 12.88 11.68 12.87 11.67L12.86 11.64C12.86 11.64 12.85 11.63 12.85 11.62C12.84 11.61 12.84 11.6 12.83 11.59C12.83 11.58 12.83 11.57 12.82 11.56L12.82 11.53C12.81 11.52 12.81 11.51 12.81 11.51C12.8 11.5 12.8 11.49 12.8 11.48C12.8 11.47 12.8 11.46 12.79 11.45L12.79 2.09L9.42 5.44C9.42 5.45 9.41 5.46 9.4 5.46L9.38 5.48C9.37 5.49 9.36 5.49 9.35 5.5C9.35 5.51 9.34 5.51 9.33 5.52C9.32 5.52 9.31 5.53 9.3 5.53C9.3 5.54 9.29 5.54 9.28 5.55ZM4.43 6.2C4.42 6.21 4.42 6.22 4.42 6.23C4.42 6.24 4.42 6.25 4.41 6.26L4.41 15.65L1.04 12.3L1 12.26C0.98 12.25 0.97 12.24 0.95 12.22C0.93 12.21 0.92 12.2 0.9 12.19C0.88 12.18 0.86 12.18 0.84 12.17C0.82 12.16 0.81 12.15 0.79 12.15C0.77 12.14 0.75 12.14 0.73 12.13C0.71 12.13 0.69 12.13 0.67 12.12L0.61 12.12C0.59 12.12 0.57 12.12 0.55 12.13L0.49 12.13C0.47 12.14 0.45 12.14 0.43 12.15C0.41 12.15 0.39 12.16 0.38 12.17C0.36 12.18 0.34 12.19 0.32 12.19C0.3 12.2 0.29 12.22 0.27 12.23C0.25 12.24 0.24 12.25 0.22 12.26L0.18 12.3L0.16 12.32C0.15 12.33 0.14 12.34 0.14 12.35C0.13 12.35 0.13 12.36 0.12 12.37C0.11 12.38 0.11 12.39 0.1 12.4C0.1 12.4 0.09 12.41 0.09 12.42C0.08 12.43 0.08 12.44 0.07 12.45C0.07 12.45 0.06 12.46 0.06 12.47C0.05 12.48 0.05 12.49 0.05 12.5C0.04 12.51 0.04 12.52 0.04 12.53C0.03 12.54 0.03 12.55 0.03 12.56C0.02 12.57 0.02 12.58 0.02 12.59C0.02 12.6 0.01 12.61 0.01 12.62L0.01 12.64C0.01 12.65 0 12.66 0 12.67L0 12.79C0 12.8 0.01 12.81 0.01 12.82L0.01 12.85C0.01 12.86 0.02 12.87 0.02 12.88C0.02 12.89 0.02 12.9 0.03 12.91C0.03 12.92 0.03 12.93 0.04 12.94C0.04 12.95 0.04 12.96 0.05 12.97C0.05 12.98 0.06 12.99 0.06 13C0.06 13 0.07 13.01 0.07 13.02L0.09 13.05L0.1 13.07C0.11 13.08 0.12 13.09 0.12 13.1L0.14 13.12C0.15 13.13 0.15 13.14 0.16 13.14C0.17 13.15 0.17 13.16 0.18 13.17L4.6 17.56C4.61 17.57 4.61 17.58 4.62 17.58L4.64 17.6C4.65 17.61 4.66 17.62 4.67 17.62L4.69 17.64C4.7 17.65 4.71 17.65 4.72 17.65C4.72 17.66 4.73 17.67 4.74 17.67C4.75 17.67 4.76 17.68 4.77 17.68C4.78 17.69 4.79 17.69 4.8 17.7C4.81 17.7 4.82 17.7 4.82 17.71C4.83 17.71 4.84 17.71 4.85 17.72L4.88 17.72C4.89 17.73 4.9 17.73 4.91 17.73L4.94 17.73C4.95 17.74 4.96 17.74 4.97 17.74L5.09 17.74C5.1 17.74 5.11 17.74 5.12 17.73L5.15 17.73C5.16 17.73 5.17 17.73 5.18 17.72C5.19 17.72 5.2 17.72 5.21 17.71C5.22 17.71 5.23 17.71 5.24 17.7C5.25 17.7 5.25 17.7 5.26 17.69C5.27 17.69 5.28 17.69 5.29 17.68C5.3 17.68 5.31 17.67 5.32 17.67L5.34 17.65C5.35 17.65 5.36 17.64 5.37 17.64C5.38 17.63 5.39 17.63 5.39 17.62L5.42 17.6L5.44 17.58C5.45 17.58 5.45 17.57 5.46 17.56L9.86 13.17C9.87 13.16 9.87 13.15 9.88 13.14C9.89 13.14 9.89 13.13 9.9 13.12L9.92 13.1C9.92 13.09 9.93 13.08 9.93 13.07C9.94 13.06 9.95 13.06 9.95 13.05C9.96 13.04 9.96 13.03 9.97 13.02C9.97 13.01 9.98 13 9.98 12.99C9.98 12.99 9.99 12.98 9.99 12.97C10 12.96 10 12.95 10 12.94C10 12.93 10.01 12.92 10.01 12.91L10.02 12.88C10.02 12.87 10.02 12.86 10.03 12.85L10.03 12.82C10.03 12.81 10.03 12.8 10.04 12.79L10.04 12.67C10.03 12.66 10.03 12.65 10.03 12.64L10.03 12.61C10.02 12.6 10.02 12.59 10.02 12.58L10.01 12.56C10.01 12.55 10 12.54 10 12.53C10 12.52 10 12.51 9.99 12.5C9.99 12.49 9.98 12.48 9.98 12.47C9.98 12.46 9.97 12.45 9.97 12.45C9.96 12.44 9.96 12.43 9.95 12.42C9.95 12.41 9.94 12.4 9.93 12.39C9.93 12.39 9.92 12.38 9.92 12.37L9.9 12.35C9.89 12.34 9.89 12.33 9.88 12.32L9.86 12.3C9.85 12.29 9.84 12.29 9.84 12.28C9.83 12.27 9.82 12.27 9.81 12.26L9.79 12.24C9.78 12.24 9.77 12.23 9.77 12.22C9.76 12.22 9.75 12.21 9.74 12.21C9.73 12.2 9.72 12.2 9.71 12.19C9.71 12.19 9.7 12.18 9.69 12.18C9.68 12.18 9.67 12.17 9.66 12.17C9.65 12.16 9.64 12.16 9.63 12.16C9.62 12.15 9.61 12.15 9.6 12.15L9.58 12.14C9.57 12.14 9.56 12.14 9.55 12.13L9.52 12.13C9.51 12.13 9.5 12.13 9.49 12.12L9.37 12.12C9.36 12.13 9.35 12.13 9.34 12.13L9.31 12.13C9.3 12.14 9.29 12.14 9.28 12.14L9.25 12.15C9.24 12.15 9.23 12.15 9.22 12.16C9.21 12.16 9.2 12.16 9.19 12.17C9.18 12.17 9.17 12.18 9.16 12.18C9.16 12.18 9.15 12.19 9.14 12.19C9.13 12.2 9.12 12.2 9.11 12.21C9.1 12.21 9.1 12.22 9.09 12.22C9.08 12.23 9.07 12.24 9.06 12.24L9.04 12.26C9.03 12.27 9.02 12.27 9.02 12.28C9.01 12.29 9 12.29 8.99 12.3L5.63 15.67L5.63 6.29C5.63 6.27 5.62 6.25 5.62 6.23C5.61 6.21 5.61 6.19 5.6 6.17C5.6 6.15 5.59 6.13 5.58 6.11C5.58 6.09 5.57 6.08 5.56 6.06C5.55 6.04 5.54 6.02 5.53 6.01C5.52 5.99 5.5 5.97 5.49 5.96C5.48 5.94 5.47 5.93 5.45 5.91C5.44 5.9 5.42 5.89 5.41 5.87C5.39 5.86 5.38 5.85 5.36 5.84C5.34 5.83 5.33 5.82 5.31 5.81L5.25 5.78C5.23 5.77 5.22 5.77 5.2 5.76C5.18 5.76 5.16 5.75 5.14 5.75C5.12 5.74 5.1 5.74 5.08 5.74C5.06 5.74 5.04 5.73 5.02 5.73C5.01 5.73 5 5.73 4.99 5.74L4.93 5.74C4.92 5.74 4.91 5.74 4.9 5.75L4.87 5.75C4.86 5.76 4.85 5.76 4.84 5.76C4.83 5.76 4.82 5.77 4.81 5.77C4.8 5.77 4.79 5.78 4.79 5.78C4.78 5.78 4.77 5.79 4.76 5.79C4.75 5.8 4.74 5.8 4.73 5.81L4.71 5.82C4.7 5.83 4.69 5.83 4.68 5.84C4.67 5.84 4.66 5.85 4.66 5.85C4.65 5.86 4.64 5.87 4.63 5.87C4.62 5.88 4.62 5.89 4.61 5.89L4.57 5.93C4.56 5.94 4.55 5.95 4.55 5.96C4.54 5.97 4.53 5.97 4.53 5.98C4.52 5.99 4.52 6 4.51 6.01C4.51 6.01 4.5 6.02 4.5 6.03L4.48 6.06C4.48 6.07 4.47 6.08 4.47 6.08C4.46 6.09 4.46 6.1 4.45 6.11C4.45 6.12 4.45 6.13 4.44 6.14L4.44 6.17C4.43 6.18 4.43 6.19 4.43 6.2Z" /></g></g></svg>