<svg xmlns="http://www.w3.org/2000/svg" xmlns:xlink="http://www.w3.org/1999/xlink" width="22" height="22" viewBox="0 0 22 22" fill="none"><defs><rect id="path_0" x="0" y="0" width="22" height="22" /></defs><g opacity="1" transform="translate(0 0)  rotate(0 11 11)"><mask id="bg-mask-0" fill="white"><use xlink:href="#path_0"></use></mask><g mask="url(#bg-mask-0)" ><path id="并集 (轮廓)" fill-rule="evenodd" style="fill:#000000" transform="translate(2.3221611111111145 2.3221611111111002)  rotate(0 8.677838888888889 8.677838888888889)" opacity="1" d="M7.67 8C7.79 7.91 7.91 7.79 8 7.67C8.17 7.43 8.28 7.13 8.28 6.81L8.28 4.14C8.28 3.66 8.19 3.2 8.04 2.76C7.83 2.18 7.5 1.65 7.06 1.21C6.29 0.44 5.23 0 4.14 0C1.85 0 0 1.85 0 4.14C0 5.23 0.44 6.29 1.21 7.06C1.65 7.5 2.18 7.83 2.76 8.04C3.2 8.19 3.66 8.28 4.14 8.28L6.81 8.28C7.13 8.28 7.43 8.17 7.67 8ZM9.69 8C9.93 8.17 10.23 8.28 10.55 8.28L13.22 8.28C13.69 8.28 14.16 8.19 14.6 8.04C15.17 7.83 15.7 7.5 16.14 7.06C16.92 6.29 17.36 5.23 17.36 4.14C17.36 3.04 16.92 1.99 16.14 1.21C15.37 0.44 14.31 0 13.22 0C11.42 0 9.89 1.15 9.32 2.76Q9.08 3.405 9.08 4.14L9.08 6.81C9.08 7.13 9.18 7.43 9.36 7.67C9.45 7.79 9.56 7.91 9.69 8ZM4.14 1.22Q4.425 1.22 4.71 1.28C4.9 1.32 5.08 1.37 5.25 1.44Q5.52 1.56 5.76 1.71C5.92 1.82 6.06 1.94 6.2 2.08C6.34 2.21 6.46 2.36 6.56 2.52C6.67 2.68 6.76 2.85 6.83 3.02C6.9 3.2 6.96 3.38 7 3.57C7.03 3.75 7.05 3.94 7.05 4.14L7.05 6.81C7.05 6.84 7.05 6.87 7.03 6.9C7.02 6.93 7 6.96 6.98 6.98C6.96 7 6.93 7.02 6.9 7.03C6.87 7.05 6.84 7.05 6.81 7.05L4.14 7.05C3.94 7.05 3.75 7.03 3.57 7C3.38 6.96 3.2 6.9 3.02 6.83C2.85 6.76 2.68 6.67 2.52 6.56C2.36 6.46 2.21 6.34 2.08 6.2C1.94 6.06 1.82 5.92 1.71 5.76Q1.56 5.52 1.44 5.25C1.37 5.08 1.32 4.9 1.28 4.71Q1.22 4.425 1.22 4.14C1.22 3.94 1.24 3.74 1.28 3.55C1.32 3.36 1.38 3.18 1.45 3C1.52 2.83 1.61 2.67 1.72 2.51C1.82 2.35 1.94 2.21 2.08 2.08C2.21 1.94 2.35 1.82 2.51 1.72C2.67 1.61 2.83 1.52 3 1.45C3.18 1.38 3.36 1.32 3.55 1.28C3.74 1.24 3.94 1.22 4.14 1.22ZM11.59 1.72C11.43 1.82 11.29 1.94 11.16 2.08C11.02 2.21 10.9 2.35 10.8 2.51C10.69 2.67 10.6 2.83 10.53 3C10.46 3.18 10.4 3.36 10.36 3.55C10.32 3.74 10.3 3.94 10.3 4.14L10.3 6.81C10.3 6.84 10.31 6.87 10.32 6.9C10.33 6.93 10.35 6.96 10.37 6.98C10.4 7 10.42 7.02 10.45 7.03C10.48 7.05 10.51 7.05 10.55 7.05L13.22 7.05C13.41 7.05 13.6 7.03 13.79 7C13.98 6.96 14.16 6.9 14.33 6.83C14.51 6.76 14.68 6.67 14.83 6.56C14.99 6.46 15.14 6.34 15.28 6.2C15.42 6.06 15.54 5.91 15.64 5.75C15.75 5.6 15.84 5.43 15.91 5.25C15.98 5.08 16.04 4.9 16.08 4.71C16.11 4.52 16.13 4.33 16.13 4.14C16.13 3.94 16.11 3.75 16.08 3.57C16.04 3.38 15.98 3.2 15.91 3.02C15.84 2.85 15.75 2.68 15.64 2.52C15.54 2.36 15.42 2.21 15.28 2.08C15.14 1.94 15 1.82 14.84 1.71Q14.6 1.56 14.33 1.44C14.16 1.37 13.98 1.32 13.79 1.28C13.6 1.24 13.41 1.22 13.22 1.22C13.02 1.22 12.82 1.24 12.63 1.28C12.44 1.32 12.26 1.38 12.08 1.45C11.91 1.52 11.75 1.61 11.59 1.72ZM8 9.69C7.91 9.56 7.79 9.45 7.67 9.36C7.43 9.18 7.13 9.08 6.81 9.08L4.14 9.08Q3.405 9.08 2.76 9.32C1.15 9.89 0 11.42 0 13.22C0 14.31 0.44 15.37 1.21 16.14C1.99 16.92 3.04 17.36 4.14 17.36C5.23 17.36 6.29 16.92 7.06 16.14C7.5 15.7 7.83 15.17 8.04 14.6C8.19 14.16 8.28 13.69 8.28 13.22L8.28 10.55C8.28 10.23 8.17 9.93 8 9.69ZM16.14 10.29C16.92 11.07 17.36 12.12 17.36 13.22C17.36 14.31 16.92 15.37 16.14 16.14C15.37 16.92 14.31 17.36 13.22 17.36C12.12 17.36 11.07 16.92 10.29 16.14C9.85 15.7 9.52 15.17 9.32 14.6C9.16 14.16 9.08 13.69 9.08 13.22L9.08 10.55C9.08 10.23 9.18 9.93 9.36 9.69C9.45 9.56 9.56 9.45 9.69 9.36C9.93 9.18 10.23 9.08 10.55 9.08L13.22 9.08C13.69 9.08 14.16 9.16 14.6 9.32C15.17 9.52 15.7 9.85 16.14 10.29ZM5.75 15.64C5.6 15.75 5.43 15.84 5.25 15.91C5.08 15.98 4.9 16.04 4.71 16.08C4.52 16.11 4.33 16.13 4.14 16.13C3.94 16.13 3.75 16.11 3.57 16.08C3.38 16.04 3.2 15.98 3.02 15.91C2.85 15.84 2.68 15.75 2.52 15.64C2.36 15.54 2.21 15.42 2.08 15.28C1.94 15.14 1.82 15 1.71 14.84Q1.56 14.6 1.44 14.33C1.37 14.16 1.32 13.98 1.28 13.79C1.24 13.6 1.22 13.41 1.22 13.22C1.22 13.02 1.24 12.82 1.28 12.63C1.32 12.44 1.38 12.26 1.45 12.08C1.52 11.91 1.61 11.75 1.72 11.59C1.82 11.43 1.94 11.29 2.08 11.16C2.21 11.02 2.35 10.9 2.51 10.8C2.67 10.69 2.83 10.6 3 10.53C3.18 10.46 3.36 10.4 3.55 10.36C3.74 10.32 3.94 10.3 4.14 10.3L6.81 10.3C6.84 10.3 6.87 10.31 6.9 10.32C6.93 10.33 6.96 10.35 6.98 10.37C7 10.4 7.02 10.42 7.03 10.45C7.05 10.48 7.05 10.51 7.05 10.55L7.05 13.22C7.05 13.41 7.03 13.6 7 13.79C6.96 13.98 6.9 14.16 6.83 14.33C6.76 14.51 6.67 14.68 6.56 14.83C6.46 14.99 6.34 15.14 6.2 15.28C6.06 15.42 5.91 15.54 5.75 15.64ZM10.45 10.32C10.48 10.31 10.51 10.3 10.55 10.3L13.22 10.3C13.41 10.3 13.6 10.32 13.79 10.36C13.98 10.4 14.16 10.45 14.33 10.52C14.51 10.6 14.68 10.69 14.84 10.79C15 10.9 15.14 11.02 15.28 11.16C15.42 11.29 15.54 11.44 15.64 11.6C15.75 11.76 15.84 11.93 15.91 12.1C15.98 12.28 16.04 12.46 16.08 12.65C16.11 12.83 16.13 13.02 16.13 13.22C16.13 13.41 16.11 13.6 16.08 13.79C16.04 13.98 15.98 14.16 15.91 14.33C15.84 14.51 15.75 14.68 15.64 14.83C15.54 14.99 15.42 15.14 15.28 15.28C15.14 15.42 14.99 15.54 14.83 15.64C14.68 15.75 14.51 15.84 14.33 15.91C14.16 15.98 13.98 16.04 13.79 16.08C13.6 16.11 13.41 16.13 13.22 16.13C13.02 16.13 12.83 16.11 12.65 16.08C12.46 16.04 12.28 15.98 12.1 15.91C11.93 15.84 11.76 15.75 11.6 15.64C11.44 15.54 11.29 15.42 11.16 15.28C11.02 15.14 10.9 15 10.79 14.84C10.69 14.68 10.6 14.51 10.52 14.33C10.45 14.16 10.4 13.98 10.36 13.79C10.32 13.6 10.3 13.41 10.3 13.22L10.3 10.55C10.3 10.51 10.31 10.48 10.32 10.45C10.33 10.42 10.35 10.4 10.37 10.37C10.4 10.35 10.42 10.33 10.45 10.32Z" /></g></g></svg>