<svg xmlns="http://www.w3.org/2000/svg" xmlns:xlink="http://www.w3.org/1999/xlink" width="22" height="22" viewBox="0 0 22 22" fill="none"><defs><rect id="path_0" x="0" y="0" width="22" height="22" /></defs><g opacity="1" transform="translate(0 0)  rotate(0 11 11)"><mask id="bg-mask-0" fill="white"><use xlink:href="#path_0"></use></mask><g mask="url(#bg-mask-0)" ><path id="并集" fill-rule="evenodd" style="fill:#000000" transform="translate(2.811111111111124 2.295103970450864)  rotate(0 8.188888888888888 8.752448103162978)" opacity="1" d="M12.68 1.86C11.49 0.67 9.87 0 8.19 0C4.68 0 1.84 2.84 1.84 6.34L1.84 10.62C1.38 10.68 0.95 10.89 0.62 11.22C0.22 11.62 0 12.15 0 12.71C0 13.87 0.94 14.82 2.11 14.82L14.27 14.82C15.43 14.82 16.38 13.87 16.38 12.71C16.38 12.15 16.16 11.62 15.76 11.22C15.43 10.89 15 10.68 14.53 10.62L14.53 6.34C14.53 4.66 13.87 3.05 12.68 1.86ZM14.33 11.83L14.38 11.83C14.43 11.84 14.48 11.85 14.52 11.86C14.57 11.88 14.62 11.9 14.66 11.92C14.7 11.94 14.74 11.96 14.78 11.99C14.82 12.02 14.86 12.05 14.9 12.09C14.94 12.13 14.98 12.17 15.01 12.22C15.04 12.27 15.07 12.32 15.09 12.37C15.11 12.43 15.13 12.48 15.14 12.54C15.15 12.6 15.16 12.65 15.16 12.71C15.16 12.77 15.15 12.83 15.14 12.89C15.13 12.95 15.11 13 15.09 13.05C15.07 13.11 15.04 13.16 15.01 13.2C14.97 13.25 14.94 13.29 14.9 13.33C14.86 13.37 14.81 13.41 14.77 13.44C14.72 13.48 14.67 13.5 14.62 13.53C14.56 13.55 14.51 13.56 14.45 13.58C14.39 13.59 14.33 13.59 14.27 13.59L2.11 13.59C2.04 13.59 1.98 13.59 1.93 13.58C1.87 13.56 1.81 13.55 1.76 13.53C1.71 13.5 1.66 13.48 1.61 13.44C1.57 13.41 1.52 13.37 1.48 13.33C1.44 13.29 1.4 13.25 1.37 13.2C1.34 13.16 1.31 13.11 1.29 13.05C1.27 13 1.25 12.95 1.24 12.89C1.23 12.83 1.22 12.77 1.22 12.71C1.22 12.65 1.23 12.6 1.24 12.54C1.25 12.48 1.27 12.43 1.29 12.37C1.31 12.32 1.34 12.27 1.37 12.22C1.4 12.17 1.44 12.13 1.48 12.09C1.52 12.05 1.55 12.02 1.59 11.99C1.63 11.96 1.68 11.94 1.72 11.92C1.76 11.9 1.81 11.88 1.85 11.86L2 11.83L2.05 11.83C2.07 11.82 2.09 11.82 2.1 11.82C2.12 11.81 2.14 11.81 2.16 11.8C2.18 11.8 2.19 11.79 2.21 11.79C2.23 11.78 2.25 11.78 2.26 11.77C2.28 11.76 2.3 11.76 2.31 11.75C2.33 11.74 2.35 11.73 2.37 11.73C2.38 11.72 2.4 11.71 2.42 11.7C2.43 11.69 2.45 11.68 2.46 11.68L2.51 11.65C2.53 11.64 2.54 11.63 2.56 11.61C2.57 11.61 2.58 11.59 2.6 11.58C2.61 11.57 2.63 11.56 2.64 11.55C2.66 11.54 2.67 11.52 2.68 11.51L2.76 11.43C2.77 11.42 2.78 11.4 2.8 11.39C2.81 11.37 2.82 11.36 2.83 11.34C2.84 11.33 2.85 11.31 2.86 11.3C2.87 11.28 2.88 11.27 2.89 11.25C2.9 11.24 2.91 11.22 2.92 11.2C2.93 11.19 2.94 11.17 2.94 11.16C2.95 11.14 2.96 11.12 2.97 11.11C2.97 11.09 2.98 11.07 2.99 11.05L3.01 11C3.01 10.98 3.02 10.97 3.02 10.95C3.03 10.93 3.03 10.91 3.03 10.89C3.04 10.88 3.04 10.86 3.05 10.84L3.05 10.79L3.06 10.73L3.07 10.68L3.07 6.34C3.07 6 3.1 5.65 3.17 5.31Q3.275 4.815 3.47 4.35C3.6 4.05 3.75 3.76 3.94 3.48C4.12 3.21 4.33 2.96 4.57 2.72C4.8 2.49 5.05 2.28 5.33 2.1Q5.735 1.815 6.2 1.62C6.5 1.49 6.82 1.39 7.15 1.33C7.49 1.26 7.84 1.22 8.19 1.22C8.53 1.22 8.86 1.26 9.19 1.32C9.52 1.39 9.84 1.48 10.15 1.61C10.46 1.74 10.75 1.9 11.03 2.08C11.31 2.27 11.57 2.48 11.81 2.72C12.05 2.96 12.26 3.22 12.45 3.5C12.64 3.78 12.79 4.07 12.92 4.38C13.05 4.69 13.15 5.01 13.21 5.34C13.28 5.67 13.31 6.01 13.31 6.34L13.31 10.68C13.31 10.7 13.31 10.71 13.32 10.73L13.32 10.79C13.33 10.81 13.33 10.82 13.33 10.84C13.34 10.86 13.34 10.88 13.34 10.89C13.35 10.91 13.35 10.93 13.36 10.95C13.36 10.97 13.37 10.98 13.37 11L13.39 11.05C13.4 11.07 13.4 11.09 13.41 11.11C13.42 11.12 13.43 11.14 13.43 11.16C13.44 11.17 13.45 11.19 13.46 11.2C13.47 11.22 13.48 11.24 13.49 11.25C13.5 11.27 13.51 11.28 13.52 11.3C13.53 11.31 13.54 11.33 13.55 11.34C13.56 11.36 13.57 11.37 13.58 11.39L13.62 11.43C13.63 11.44 13.64 11.46 13.66 11.47C13.67 11.48 13.68 11.5 13.69 11.51C13.71 11.52 13.72 11.54 13.74 11.55C13.75 11.56 13.76 11.57 13.78 11.58C13.79 11.59 13.81 11.61 13.82 11.61C13.84 11.63 13.85 11.64 13.87 11.65C13.88 11.66 13.9 11.67 13.91 11.68C13.93 11.68 13.95 11.69 13.96 11.7C13.98 11.71 14 11.72 14.01 11.73C14.03 11.73 14.05 11.74 14.06 11.75C14.08 11.76 14.1 11.76 14.11 11.77C14.13 11.78 14.15 11.78 14.17 11.79C14.18 11.79 14.2 11.8 14.22 11.8C14.24 11.81 14.26 11.81 14.27 11.82C14.29 11.82 14.31 11.82 14.33 11.83ZM8.19 17.5C7.24 17.5 6.48 16.68 6.48 15.67L9.9 15.67C9.9 16.68 9.13 17.5 8.19 17.5Z" /></g></g></svg>