<svg xmlns="http://www.w3.org/2000/svg" xmlns:xlink="http://www.w3.org/1999/xlink" width="22" height="22" viewBox="0 0 22 22" fill="none"><defs><rect id="path_0" x="0" y="0" width="22" height="22" /></defs><g opacity="1" transform="translate(0 0)  rotate(0 11 11)"><mask id="bg-mask-0" fill="white"><use xlink:href="#path_0"></use></mask><g mask="url(#bg-mask-0)" ><path id="并集" fill-rule="evenodd" style="fill:#000000" transform="translate(3.4833333333333343 2.75)  rotate(0 7.516666666666667 8.25)" opacity="1" d="M8.07 7.7L13.57 7.7C14.38 7.7 15.03 8.36 15.03 9.17L15.03 15.03C15.03 15.84 14.38 16.5 13.57 16.5L1.47 16.5C0.66 16.5 0 15.84 0 15.03L0 1.47C0 0.66 0.66 0 1.47 0L6.6 0C7.41 0 8.07 0.66 8.07 1.47L8.07 7.7ZM6.83 1.37C6.81 1.34 6.8 1.32 6.77 1.29C6.75 1.27 6.72 1.25 6.7 1.24C6.67 1.23 6.63 1.22 6.6 1.22L1.47 1.22C1.43 1.22 1.4 1.23 1.37 1.24C1.34 1.25 1.32 1.27 1.29 1.29C1.27 1.32 1.25 1.34 1.24 1.37C1.23 1.4 1.22 1.43 1.22 1.47L1.22 7.7L6.84 7.7L6.84 1.47C6.84 1.43 6.84 1.4 6.83 1.37ZM1.24 15.13C1.23 15.1 1.22 15.07 1.22 15.03L1.22 8.92L6.84 8.92L6.84 15.28L1.47 15.28C1.43 15.28 1.4 15.27 1.37 15.26C1.34 15.25 1.32 15.23 1.29 15.21C1.27 15.18 1.25 15.16 1.24 15.13ZM13.81 15.03L13.81 9.17C13.81 9.13 13.81 9.1 13.79 9.07C13.78 9.04 13.76 9.02 13.74 8.99C13.72 8.97 13.69 8.95 13.66 8.94C13.63 8.93 13.6 8.92 13.57 8.92L8.31 8.92L8.31 15.28L13.57 15.28C13.6 15.28 13.63 15.27 13.66 15.26C13.69 15.25 13.72 15.23 13.74 15.21C13.76 15.18 13.78 15.16 13.79 15.13C13.81 15.1 13.81 15.07 13.81 15.03Z" /></g></g></svg>