<svg xmlns="http://www.w3.org/2000/svg" xmlns:xlink="http://www.w3.org/1999/xlink" width="22" height="22" viewBox="0 0 22 22" fill="none"><defs><rect id="path_0" x="0" y="0" width="22" height="22" /></defs><g opacity="1" transform="translate(0 0)  rotate(0 11 11)"><mask id="bg-mask-0" fill="white"><use xlink:href="#path_0"></use></mask><g mask="url(#bg-mask-0)" ><path id="并集" fill-rule="evenodd" style="fill:#000000" transform="translate(2.478626071749467 1.8524149174000186)  rotate(-4.196970809839925 8.549756452772352 9.107388814290363)" opacity="1" d="M17.1 6.76C17.1 3.03 14.07 0 10.34 0C6.61 0 3.58 3.03 3.58 6.76C3.58 8.61 4.33 10.3 5.55 11.52L0.17 17.18C0.14 17.21 0.12 17.24 0.1 17.27C0.08 17.31 0.06 17.34 0.04 17.38C0.03 17.41 0.02 17.45 0.01 17.49C0 17.53 0 17.57 0 17.6L0 17.68C0.01 17.7 0.01 17.72 0.01 17.74C0.02 17.76 0.02 17.78 0.03 17.8L0.05 17.85L0.08 17.91C0.09 17.92 0.1 17.94 0.11 17.96L0.15 18C0.16 18.02 0.18 18.03 0.19 18.05C0.21 18.06 0.22 18.07 0.24 18.09C0.25 18.1 0.27 18.11 0.28 18.12L0.34 18.15C0.35 18.16 0.37 18.17 0.39 18.17C0.41 18.18 0.43 18.19 0.45 18.19C0.47 18.2 0.49 18.2 0.51 18.21L0.69 18.21C0.71 18.21 0.73 18.2 0.75 18.2C0.77 18.2 0.78 18.19 0.8 18.18C0.82 18.18 0.84 18.17 0.86 18.16C0.88 18.15 0.9 18.15 0.91 18.14C0.93 18.13 0.95 18.11 0.96 18.1C0.98 18.09 1 18.08 1.01 18.07C1.03 18.05 1.04 18.04 1.05 18.02L6.48 12.31C7.58 13.07 8.91 13.52 10.34 13.52C14.07 13.52 17.1 10.49 17.1 6.76ZM6.82 11.03C6.68 10.92 6.55 10.8 6.43 10.67C6.3 10.55 6.18 10.41 6.07 10.28C5.96 10.14 5.85 10 5.75 9.85C5.55 9.55 5.38 9.24 5.24 8.91C5.1 8.58 4.99 8.23 4.92 7.87C4.84 7.51 4.81 7.14 4.81 6.76C4.81 6.38 4.84 6.01 4.92 5.64C4.99 5.28 5.1 4.94 5.24 4.6C5.38 4.27 5.55 3.96 5.75 3.66C5.85 3.52 5.96 3.37 6.07 3.24C6.18 3.1 6.3 2.97 6.43 2.84C6.55 2.72 6.68 2.6 6.82 2.49C6.96 2.37 7.1 2.27 7.25 2.17C7.54 1.97 7.86 1.8 8.19 1.66C8.52 1.52 8.87 1.41 9.22 1.33C9.59 1.26 9.96 1.22 10.34 1.22C10.72 1.22 11.09 1.26 11.46 1.33C11.81 1.41 12.16 1.52 12.5 1.66C12.83 1.8 13.14 1.97 13.44 2.17C13.58 2.27 13.72 2.37 13.86 2.49C14 2.6 14.13 2.72 14.26 2.84C14.38 2.97 14.5 3.1 14.61 3.24C14.73 3.37 14.83 3.52 14.93 3.66C15.13 3.96 15.3 4.27 15.44 4.6C15.58 4.94 15.69 5.28 15.76 5.64C15.84 6.01 15.88 6.38 15.88 6.76Q15.88 7.33 15.76 7.87C15.69 8.23 15.58 8.58 15.44 8.91C15.3 9.24 15.13 9.55 14.93 9.85C14.83 10 14.73 10.14 14.61 10.28C14.5 10.41 14.38 10.55 14.26 10.67C14.13 10.8 14 10.92 13.86 11.03C13.72 11.14 13.58 11.25 13.44 11.35C13.14 11.55 12.83 11.72 12.5 11.86C12.16 12 11.81 12.11 11.46 12.18C11.09 12.26 10.72 12.29 10.34 12.29C9.96 12.29 9.59 12.26 9.22 12.18C8.87 12.11 8.52 12 8.19 11.86C8.02 11.79 7.86 11.71 7.7 11.63C7.55 11.54 7.4 11.45 7.25 11.35C7.1 11.25 6.96 11.14 6.82 11.03Z" /></g></g></svg>