<svg xmlns="http://www.w3.org/2000/svg" xmlns:xlink="http://www.w3.org/1999/xlink" width="22" height="22" viewBox="0 0 22 22" fill="none"><defs><rect id="path_0" x="0" y="0" width="22" height="22" /></defs><g opacity="1" transform="translate(0 0)  rotate(0 11 11)"><mask id="bg-mask-0" fill="white"><use xlink:href="#path_0"></use></mask><g mask="url(#bg-mask-0)" ><path id="并集" fill-rule="evenodd" style="fill:#000000" transform="translate(3.3403333333333443 1.5399999999996812)  rotate(0 7.670213814355776 9.74216367779766)" opacity="1" d="M1.6,4.31C1.73,4 1.88,3.72 2.06,3.45C2.25,3.17 2.45,2.92 2.69,2.69C2.92,2.45 3.17,2.24 3.45,2.06C3.72,1.88 4.01,1.73 4.31,1.6C4.61,1.48 4.92,1.38 5.24,1.32C5.57,1.25 5.89,1.22 6.22,1.22C6.55,1.22 6.88,1.25 7.2,1.32C7.52,1.38 7.83,1.48 8.14,1.6C8.44,1.73 8.72,1.88 9,2.06C9.27,2.24 9.52,2.45 9.76,2.69L13.36,6.29C13.33,6.29 13.29,6.3 13.26,6.3L8.71,6.3C8.68,6.3 8.66,6.3 8.64,6.3C8.6,6.3 8.57,6.31 8.54,6.32C8.5,6.33 8.47,6.34 8.44,6.36C8.41,6.37 8.38,6.39 8.35,6.41C8.33,6.43 8.3,6.45 8.28,6.48C8.26,6.49 8.25,6.51 8.24,6.52C8.22,6.54 8.21,6.55 8.2,6.57C8.19,6.59 8.18,6.6 8.17,6.62C8.16,6.64 8.15,6.66 8.14,6.67C8.14,6.69 8.13,6.71 8.12,6.73C8.12,6.75 8.11,6.77 8.11,6.79C8.1,6.81 8.1,6.83 8.1,6.85C8.1,6.87 8.1,6.89 8.1,6.91C8.1,6.93 8.1,6.95 8.1,6.97C8.1,6.99 8.1,7.01 8.11,7.03C8.11,7.05 8.12,7.07 8.12,7.09C8.13,7.1 8.14,7.12 8.14,7.14C8.15,7.16 8.16,7.18 8.17,7.2C8.18,7.21 8.19,7.23 8.2,7.25C8.21,7.26 8.22,7.28 8.24,7.3C8.25,7.31 8.26,7.33 8.28,7.34C8.29,7.35 8.31,7.37 8.32,7.38C8.34,7.39 8.35,7.4 8.37,7.42C8.39,7.43 8.4,7.44 8.42,7.45C8.44,7.46 8.46,7.46 8.47,7.47C8.49,7.48 8.51,7.49 8.53,7.49C8.55,7.5 8.57,7.5 8.59,7.51C8.61,7.51 8.63,7.51 8.65,7.52C8.67,7.52 8.69,7.52 8.71,7.52L13.26,7.52C13.4,7.52 13.53,7.51 13.67,7.48C13.8,7.45 13.93,7.41 14.06,7.36C14.18,7.31 14.3,7.24 14.41,7.17C14.53,7.09 14.63,7.01 14.73,6.91C14.83,6.81 14.91,6.71 14.99,6.59C15.07,6.48 15.13,6.36 15.18,6.24C15.23,6.11 15.27,5.98 15.3,5.85C15.33,5.71 15.34,5.58 15.34,5.44L15.34,0.81C15.34,0.8 15.34,0.79 15.34,0.78C15.34,0.77 15.34,0.76 15.34,0.75C15.34,0.74 15.33,0.73 15.33,0.72C15.33,0.71 15.33,0.7 15.33,0.69C15.33,0.68 15.32,0.67 15.32,0.66L15.31,0.63C15.31,0.62 15.31,0.61 15.3,0.6C15.3,0.59 15.3,0.58 15.29,0.57C15.29,0.57 15.29,0.56 15.28,0.55C15.28,0.54 15.27,0.53 15.27,0.52C15.26,0.51 15.26,0.5 15.25,0.49C15.25,0.49 15.24,0.48 15.24,0.47C15.23,0.46 15.22,0.45 15.22,0.44L15.2,0.42C15.19,0.41 15.19,0.41 15.18,0.4C15.17,0.39 15.17,0.38 15.16,0.38C15.15,0.37 15.15,0.36 15.14,0.36C15.13,0.35 15.12,0.34 15.12,0.34L15.09,0.32C15.08,0.31 15.08,0.31 15.07,0.3C15.06,0.29 15.05,0.29 15.04,0.28C15.03,0.28 15.03,0.27 15.02,0.27C15.01,0.26 15,0.26 14.99,0.26C14.98,0.25 14.97,0.25 14.96,0.24C14.95,0.24 14.94,0.24 14.93,0.23C14.92,0.23 14.92,0.23 14.91,0.22L14.88,0.22C14.87,0.21 14.86,0.21 14.85,0.21C14.84,0.21 14.83,0.21 14.82,0.2C14.81,0.2 14.8,0.2 14.79,0.2C14.78,0.2 14.77,0.2 14.76,0.2C14.75,0.2 14.74,0.2 14.73,0.2C14.72,0.2 14.71,0.2 14.7,0.2C14.69,0.2 14.68,0.2 14.67,0.2C14.66,0.2 14.65,0.2 14.64,0.2C14.63,0.21 14.62,0.21 14.61,0.21C14.6,0.21 14.59,0.21 14.58,0.22L14.55,0.22C14.54,0.23 14.53,0.23 14.52,0.23C14.51,0.24 14.5,0.24 14.49,0.24C14.49,0.25 14.48,0.25 14.47,0.26C14.46,0.26 14.45,0.26 14.44,0.27C14.43,0.27 14.42,0.28 14.41,0.28C14.41,0.29 14.4,0.29 14.39,0.3C14.38,0.31 14.37,0.31 14.36,0.32L14.34,0.34C14.33,0.34 14.33,0.35 14.32,0.36C14.31,0.36 14.3,0.37 14.3,0.38C14.29,0.38 14.28,0.39 14.28,0.4C14.27,0.41 14.26,0.41 14.26,0.42L14.24,0.44C14.23,0.45 14.23,0.46 14.22,0.47C14.21,0.48 14.21,0.49 14.2,0.49C14.2,0.5 14.19,0.51 14.19,0.52C14.18,0.53 14.18,0.54 14.18,0.55C14.17,0.56 14.17,0.57 14.16,0.57C14.16,0.58 14.16,0.59 14.15,0.6C14.15,0.61 14.15,0.62 14.14,0.63L14.14,0.66C14.13,0.67 14.13,0.68 14.13,0.69C14.13,0.7 14.13,0.71 14.12,0.72C14.12,0.73 14.12,0.74 14.12,0.75C14.12,0.76 14.12,0.77 14.12,0.78C14.12,0.79 14.12,0.8 14.12,0.81L14.12,5.32L10.62,1.82C10.48,1.68 10.32,1.54 10.16,1.41C10.01,1.28 9.84,1.16 9.67,1.05C9.5,0.93 9.33,0.83 9.15,0.73C8.97,0.64 8.79,0.55 8.6,0.47C8.42,0.4 8.23,0.33 8.03,0.27C7.84,0.21 7.64,0.16 7.44,0.12C7.24,0.08 7.04,0.05 6.84,0.03C6.63,0.01 6.43,0 6.22,0C6.02,0 5.81,0.01 5.61,0.03C5.41,0.05 5.2,0.08 5,0.12C4.81,0.16 4.61,0.21 4.41,0.27C4.22,0.33 4.03,0.39 3.84,0.47C3.65,0.55 3.47,0.64 3.29,0.73C3.11,0.83 2.94,0.93 2.77,1.04C2.6,1.16 2.44,1.28 2.28,1.41C2.12,1.54 1.97,1.68 1.82,1.82C1.68,1.97 1.54,2.12 1.41,2.28C1.28,2.43 1.16,2.6 1.05,2.77C0.93,2.94 0.83,3.11 0.73,3.29C0.64,3.47 0.55,3.65 0.47,3.84C0.4,4.03 0.33,4.22 0.27,4.41C0.21,4.6 0.16,4.8 0.12,5C0.08,5.2 0.05,5.4 0.03,5.6C0.01,5.81 0,6.01 0,6.22C0,6.42 0.01,6.63 0.03,6.84C0.05,7.04 0.08,7.24 0.12,7.44C0.16,7.64 0.21,7.84 0.27,8.03C0.33,8.22 0.4,8.41 0.47,8.6C0.55,8.79 0.64,8.97 0.73,9.15C0.83,9.33 0.93,9.5 1.05,9.67C1.16,9.84 1.28,10.01 1.41,10.16C1.54,10.32 1.68,10.47 1.82,10.62L10.51,19.3C10.52,19.31 10.52,19.32 10.53,19.33C10.54,19.33 10.55,19.34 10.55,19.35L10.58,19.36C10.59,19.37 10.59,19.38 10.6,19.38C10.61,19.39 10.62,19.39 10.63,19.4C10.64,19.4 10.64,19.41 10.65,19.41C10.66,19.42 10.67,19.42 10.68,19.42C10.69,19.43 10.7,19.43 10.71,19.44C10.72,19.44 10.73,19.44 10.74,19.45C10.75,19.45 10.75,19.45 10.76,19.46L10.79,19.47C10.8,19.47 10.81,19.47 10.82,19.47C10.83,19.47 10.84,19.47 10.85,19.48C10.86,19.48 10.87,19.48 10.88,19.48C10.89,19.48 10.9,19.48 10.91,19.48C10.92,19.48 10.93,19.48 10.94,19.48C10.95,19.48 10.96,19.48 10.97,19.48C10.98,19.48 10.99,19.48 11,19.48C11.01,19.48 11.02,19.48 11.03,19.48C11.04,19.47 11.05,19.47 11.06,19.47C11.07,19.47 11.08,19.47 11.09,19.47L11.12,19.46C11.13,19.45 11.14,19.45 11.15,19.45C11.16,19.44 11.17,19.44 11.18,19.44C11.18,19.43 11.19,19.43 11.2,19.42C11.21,19.42 11.22,19.42 11.23,19.41C11.24,19.41 11.25,19.4 11.26,19.4C11.26,19.39 11.27,19.39 11.28,19.38C11.29,19.38 11.3,19.37 11.31,19.36L11.33,19.35C11.34,19.34 11.34,19.33 11.35,19.33C11.36,19.32 11.37,19.31 11.37,19.3C11.4,19.28 11.42,19.25 11.45,19.22C11.45,19.2 11.46,19.19 11.47,19.17C11.48,19.16 11.49,19.14 11.5,19.13C11.5,19.11 11.51,19.09 11.52,19.08C11.52,19.06 11.53,19.04 11.53,19.03C11.54,19.01 11.54,18.99 11.54,18.98C11.55,18.96 11.55,18.94 11.55,18.92C11.55,18.91 11.55,18.89 11.55,18.87C11.55,18.85 11.55,18.83 11.55,18.82C11.55,18.8 11.55,18.78 11.54,18.76C11.54,18.75 11.54,18.73 11.53,18.71C11.53,18.7 11.52,18.68 11.52,18.66C11.51,18.65 11.5,18.63 11.49,18.61C11.49,18.6 11.48,18.58 11.47,18.57C11.46,18.55 11.45,18.54 11.44,18.52C11.43,18.51 11.42,18.49 11.41,18.48C11.4,18.47 11.39,18.45 11.37,18.44L2.69,9.75C2.45,9.52 2.25,9.27 2.06,8.99C1.88,8.72 1.73,8.43 1.6,8.13C1.48,7.83 1.38,7.52 1.32,7.2C1.25,6.88 1.22,6.55 1.22,6.22C1.22,5.89 1.25,5.56 1.32,5.24C1.38,4.92 1.48,4.61 1.6,4.31Z " /></g></g></svg>