<svg xmlns="http://www.w3.org/2000/svg" xmlns:xlink="http://www.w3.org/1999/xlink" width="22" height="22" viewBox="0 0 22 22" fill="none"><defs><rect id="path_0" x="0" y="0" width="22" height="22" /></defs><g opacity="1" transform="translate(0 0)  rotate(0 11 11)"><mask id="bg-mask-0" fill="white"><use xlink:href="#path_0"></use></mask><g mask="url(#bg-mask-0)" ><path id="三角形 1 (轮廓)" fill-rule="evenodd" style="fill:#000000" transform="translate(3.558500000000002 3.3000000000000007)  rotate(90 8.663722222222221 7.7)" opacity="1" d="M15.86 15.4L1.47 15.4C0.94 15.4 0.46 15.12 0.2 14.67C-0.07 14.21 -0.07 13.65 0.2 13.2L7.39 0.73C7.66 0.28 8.14 0 8.66 0C9.19 0 9.67 0.28 9.93 0.73L17.13 13.2C17.39 13.65 17.39 14.21 17.13 14.67C16.87 15.12 16.39 15.4 15.86 15.4ZM16.1 14C16.1 13.98 16.11 13.95 16.11 13.93C16.11 13.91 16.1 13.89 16.1 13.87L16.07 13.81L8.88 1.34C8.86 1.33 8.85 1.31 8.84 1.29C8.82 1.28 8.8 1.27 8.79 1.25C8.77 1.24 8.75 1.24 8.73 1.23C8.71 1.23 8.69 1.22 8.66 1.22C8.64 1.22 8.62 1.23 8.6 1.23C8.58 1.24 8.56 1.24 8.54 1.25C8.52 1.27 8.51 1.28 8.49 1.29C8.48 1.31 8.46 1.33 8.45 1.34L1.25 13.81C1.24 13.83 1.24 13.85 1.23 13.87C1.22 13.89 1.22 13.91 1.22 13.93C1.22 13.95 1.22 13.98 1.23 14C1.24 14.02 1.24 14.04 1.25 14.06C1.27 14.07 1.28 14.09 1.29 14.11C1.31 14.12 1.33 14.13 1.34 14.15C1.36 14.16 1.38 14.16 1.4 14.17C1.42 14.17 1.44 14.18 1.47 14.18L15.86 14.18C15.88 14.18 15.9 14.17 15.93 14.17C15.95 14.16 15.96 14.16 15.98 14.15C16 14.13 16.02 14.12 16.03 14.11C16.05 14.09 16.06 14.07 16.07 14.06L16.1 14Z" /></g></g></svg>