<svg xmlns="http://www.w3.org/2000/svg" xmlns:xlink="http://www.w3.org/1999/xlink" width="22" height="22" viewBox="0 0 22 22" fill="none"><defs><rect id="path_0" x="0" y="0" width="22" height="22" /></defs><g opacity="1" transform="translate(0 0)  rotate(0 11 11)"><mask id="bg-mask-0" fill="white"><use xlink:href="#path_0"></use></mask><g mask="url(#bg-mask-0)" ><path id="星形 1 (轮廓)" fill-rule="evenodd" style="fill:#000000" transform="translate(1.8296288311607025 1.676888888888893)  rotate(0 9.170371168839301 8.793658974813328)" opacity="1" d="M15.4 16.08C15.41 16.56 15.18 17.02 14.79 17.31C14.4 17.59 13.9 17.66 13.44 17.5L9.66 16.16C9.34 16.05 9 16.05 8.68 16.16L4.9 17.5C4.45 17.66 3.94 17.59 3.55 17.31C3.16 17.02 2.93 16.56 2.94 16.08L3.05 12.07C3.06 11.73 2.96 11.4 2.75 11.14L0.3 7.96C0.01 7.58 -0.08 7.07 0.07 6.61C0.22 6.15 0.59 5.79 1.05 5.66L4.9 4.52C5.22 4.43 5.5 4.22 5.69 3.95L7.96 0.64C8.23 0.24 8.69 0 9.17 0C9.65 0 10.11 0.24 10.38 0.64L12.65 3.95C12.84 4.22 13.12 4.43 13.44 4.52L17.29 5.66C17.75 5.79 18.12 6.15 18.27 6.61C18.42 7.07 18.33 7.58 18.04 7.96L15.59 11.14C15.39 11.4 15.28 11.73 15.29 12.07L15.4 16.08ZM6.7 4.64C6.61 4.77 6.52 4.88 6.41 4.99C6.3 5.1 6.19 5.2 6.06 5.29C5.94 5.38 5.81 5.46 5.67 5.53C5.54 5.6 5.39 5.65 5.25 5.7L1.4 6.83C1.38 6.84 1.36 6.84 1.34 6.85L1.3 6.89C1.28 6.9 1.27 6.92 1.26 6.93L1.23 6.99C1.23 7.01 1.22 7.03 1.22 7.05C1.22 7.07 1.22 7.09 1.23 7.11C1.23 7.13 1.23 7.14 1.24 7.16C1.25 7.18 1.26 7.2 1.27 7.21L3.72 10.39C3.81 10.51 3.9 10.64 3.97 10.78C4.04 10.92 4.1 11.06 4.14 11.2C4.19 11.35 4.23 11.5 4.25 11.65C4.27 11.8 4.28 11.95 4.27 12.11L4.16 16.11C4.16 16.13 4.17 16.15 4.17 16.17C4.17 16.19 4.18 16.21 4.19 16.23C4.2 16.25 4.21 16.26 4.22 16.28C4.23 16.29 4.25 16.31 4.27 16.32C4.28 16.33 4.3 16.34 4.32 16.35C4.34 16.35 4.35 16.36 4.37 16.36Q4.4 16.375 4.43 16.36C4.45 16.36 4.47 16.36 4.49 16.35L8.27 15.01C8.42 14.96 8.56 14.92 8.72 14.89C8.87 14.87 9.02 14.85 9.17 14.85C9.32 14.85 9.47 14.87 9.62 14.89C9.78 14.92 9.92 14.96 10.07 15.01L13.85 16.35C13.87 16.36 13.89 16.36 13.91 16.36C13.93 16.37 13.95 16.37 13.97 16.36C13.99 16.36 14 16.35 14.02 16.35L14.08 16.32L14.12 16.28C14.13 16.26 14.14 16.25 14.15 16.23C14.16 16.21 14.17 16.19 14.17 16.17C14.17 16.15 14.18 16.13 14.18 16.11L14.07 12.11C14.06 11.95 14.07 11.8 14.09 11.65C14.11 11.5 14.15 11.35 14.2 11.2C14.24 11.06 14.3 10.92 14.37 10.78C14.44 10.64 14.53 10.51 14.62 10.39L17.07 7.21C17.08 7.2 17.09 7.18 17.1 7.16C17.11 7.14 17.11 7.13 17.11 7.11C17.12 7.09 17.12 7.07 17.12 7.05C17.12 7.03 17.11 7.01 17.11 6.99L17.08 6.93C17.07 6.92 17.06 6.9 17.04 6.89L17 6.85C16.98 6.84 16.96 6.84 16.94 6.83L13.1 5.7C12.95 5.65 12.81 5.6 12.67 5.53C12.53 5.46 12.4 5.38 12.28 5.29C12.15 5.2 12.04 5.1 11.93 4.99C11.82 4.88 11.73 4.77 11.64 4.64L9.37 1.33C9.36 1.31 9.35 1.3 9.33 1.28C9.32 1.27 9.3 1.26 9.28 1.25C9.27 1.24 9.25 1.23 9.23 1.23C9.21 1.22 9.19 1.22 9.17 1.22C9.15 1.22 9.13 1.22 9.11 1.23C9.09 1.23 9.07 1.24 9.06 1.25C9.04 1.26 9.02 1.27 9.01 1.28C8.99 1.3 8.98 1.31 8.97 1.33L6.7 4.64Z" /></g></g></svg>