<svg xmlns="http://www.w3.org/2000/svg" xmlns:xlink="http://www.w3.org/1999/xlink" width="22" height="22" viewBox="0 0 22 22" fill="none"><defs><rect id="path_0" x="0" y="0" width="22" height="22" /></defs><g opacity="1" transform="translate(0 0)  rotate(0 11 11)"><mask id="bg-mask-0" fill="white"><use xlink:href="#path_0"></use></mask><g mask="url(#bg-mask-0)" ><path id="并集" fill-rule="evenodd" style="fill:#000000" transform="translate(2.4786260717494955 1.8524149174000186)  rotate(-4.196970809839925 8.549756452772352 9.107388814290363)" opacity="1" d="M0.45 18.19C0.43 18.19 0.41 18.18 0.39 18.17C0.37 18.17 0.35 18.16 0.34 18.15L0.28 18.12C0.27 18.11 0.25 18.1 0.24 18.09C0.22 18.07 0.21 18.06 0.19 18.05C0.18 18.03 0.16 18.02 0.15 18L0.11 17.96C0.1 17.94 0.09 17.92 0.08 17.91L0.05 17.85L0.03 17.8C0.02 17.78 0.02 17.76 0.01 17.74C0.01 17.72 0.01 17.7 0 17.68L0 17.6C0 17.57 0 17.53 0.01 17.49C0.02 17.45 0.03 17.41 0.04 17.38C0.06 17.34 0.08 17.31 0.1 17.27C0.12 17.24 0.14 17.21 0.17 17.18L5.55 11.52C4.33 10.3 3.58 8.61 3.58 6.76C3.58 3.03 6.61 0 10.34 0C14.07 0 17.1 3.03 17.1 6.76C17.1 10.49 14.07 13.52 10.34 13.52C8.91 13.52 7.58 13.07 6.48 12.31L1.05 18.02C1.04 18.04 1.03 18.05 1.01 18.07C1 18.08 0.98 18.09 0.96 18.1C0.95 18.11 0.93 18.13 0.91 18.14C0.9 18.15 0.88 18.15 0.86 18.16C0.84 18.17 0.82 18.18 0.8 18.18C0.78 18.19 0.77 18.2 0.75 18.2C0.73 18.2 0.71 18.21 0.69 18.21L0.51 18.21C0.49 18.2 0.47 18.2 0.45 18.19ZM14.26 10.67C14.38 10.55 14.5 10.41 14.61 10.28C14.73 10.14 14.83 10 14.93 9.85C15.13 9.55 15.3 9.24 15.44 8.91C15.58 8.58 15.69 8.23 15.76 7.87Q15.88 7.33 15.88 6.76C15.88 6.38 15.84 6.01 15.76 5.64C15.69 5.28 15.58 4.94 15.44 4.6C15.3 4.27 15.13 3.96 14.93 3.66C14.83 3.52 14.73 3.37 14.61 3.24C14.5 3.1 14.38 2.97 14.26 2.84C14.13 2.72 14 2.6 13.86 2.49C13.72 2.37 13.58 2.27 13.44 2.17C13.14 1.97 12.83 1.8 12.5 1.66C12.16 1.52 11.81 1.41 11.46 1.33C11.09 1.26 10.72 1.22 10.34 1.22C9.96 1.22 9.59 1.26 9.22 1.33C8.87 1.41 8.52 1.52 8.19 1.66C7.86 1.8 7.54 1.97 7.25 2.17C7.1 2.27 6.96 2.37 6.82 2.49C6.68 2.6 6.55 2.72 6.43 2.84C6.3 2.97 6.18 3.1 6.07 3.24C5.96 3.37 5.85 3.52 5.75 3.66C5.55 3.96 5.38 4.27 5.24 4.6C5.1 4.94 4.99 5.28 4.92 5.64C4.84 6.01 4.81 6.38 4.81 6.76C4.81 7.14 4.84 7.51 4.92 7.87C4.99 8.23 5.1 8.58 5.24 8.91C5.38 9.24 5.55 9.55 5.75 9.85C5.85 10 5.96 10.14 6.07 10.28C6.18 10.41 6.3 10.55 6.43 10.67C6.55 10.8 6.68 10.92 6.82 11.03C6.96 11.14 7.1 11.25 7.25 11.35C7.4 11.45 7.55 11.54 7.7 11.63C7.86 11.71 8.02 11.79 8.19 11.86C8.52 12 8.87 12.11 9.22 12.18C9.59 12.26 9.96 12.29 10.34 12.29C10.72 12.29 11.09 12.26 11.46 12.18C11.81 12.11 12.16 12 12.5 11.86C12.83 11.72 13.14 11.55 13.44 11.35C13.58 11.25 13.72 11.14 13.86 11.03C14 10.92 14.13 10.8 14.26 10.67ZM10.42 2.45C10.43 2.45 10.44 2.44 10.45 2.44L10.48 2.44C10.49 2.43 10.5 2.43 10.51 2.43L10.66 2.43C10.67 2.43 10.68 2.43 10.69 2.44L10.72 2.44C10.73 2.44 10.74 2.45 10.75 2.45C10.76 2.45 10.77 2.45 10.78 2.46C10.79 2.46 10.8 2.46 10.81 2.47C10.82 2.47 10.83 2.47 10.84 2.48C10.84 2.48 10.85 2.49 10.86 2.49C10.87 2.5 10.88 2.5 10.89 2.51C10.9 2.51 10.91 2.52 10.91 2.52L10.94 2.54C10.95 2.54 10.96 2.55 10.96 2.56C10.97 2.56 10.98 2.57 10.99 2.57C10.99 2.58 11 2.59 11.01 2.59C11.02 2.6 11.02 2.61 11.03 2.62C11.04 2.62 11.04 2.63 11.05 2.64L11.07 2.66C11.08 2.67 11.08 2.68 11.09 2.69C11.09 2.69 11.1 2.7 11.1 2.71C11.11 2.72 11.11 2.73 11.12 2.74C11.12 2.75 11.13 2.75 11.13 2.76L11.15 2.79C11.15 2.8 11.15 2.81 11.16 2.82C11.16 2.83 11.16 2.84 11.17 2.85C11.17 2.86 11.17 2.87 11.18 2.88L11.18 2.9L11.19 2.93L11.19 2.96C11.2 2.97 11.2 2.98 11.2 2.99L11.2 3.08L10.96 6.37L14.25 6.62L14.3 6.62C14.32 6.62 14.33 6.63 14.35 6.63C14.37 6.64 14.39 6.64 14.4 6.65C14.42 6.65 14.43 6.66 14.45 6.67C14.47 6.67 14.48 6.68 14.5 6.69C14.51 6.7 14.53 6.71 14.54 6.72C14.56 6.73 14.57 6.74 14.59 6.75L14.63 6.79L14.66 6.82C14.67 6.84 14.69 6.85 14.7 6.87C14.71 6.88 14.72 6.89 14.72 6.91C14.73 6.92 14.74 6.94 14.75 6.95C14.76 6.97 14.76 6.99 14.77 7C14.78 7.02 14.78 7.04 14.79 7.05C14.79 7.07 14.8 7.09 14.8 7.11C14.8 7.12 14.81 7.14 14.81 7.16L14.81 7.27C14.81 7.29 14.81 7.31 14.8 7.33C14.8 7.35 14.8 7.37 14.79 7.39C14.79 7.41 14.78 7.43 14.77 7.44C14.77 7.46 14.76 7.48 14.75 7.5C14.74 7.52 14.73 7.53 14.72 7.55C14.71 7.57 14.7 7.58 14.68 7.6C14.67 7.62 14.66 7.63 14.65 7.65C14.63 7.66 14.62 7.67 14.6 7.69C14.59 7.7 14.57 7.71 14.55 7.72C14.54 7.74 14.52 7.75 14.5 7.76C14.49 7.77 14.47 7.77 14.45 7.78C14.43 7.79 14.41 7.8 14.39 7.8C14.37 7.81 14.36 7.82 14.34 7.82C14.32 7.82 14.3 7.83 14.28 7.83C14.26 7.83 14.24 7.84 14.22 7.84C14.2 7.84 14.18 7.84 14.16 7.83L10.87 7.59L10.62 10.88L10.62 10.94C10.61 10.97 10.6 11.01 10.59 11.04C10.58 11.07 10.57 11.11 10.55 11.14L10.49 11.23C10.47 11.25 10.44 11.28 10.41 11.3L10.41 11.31C10.38 11.33 10.35 11.35 10.31 11.37C10.28 11.39 10.24 11.41 10.2 11.42C10.16 11.43 10.13 11.44 10.09 11.45L9.97 11.45C9.95 11.45 9.93 11.44 9.92 11.44C9.88 11.44 9.85 11.43 9.81 11.42C9.78 11.4 9.75 11.39 9.72 11.37C9.69 11.36 9.66 11.33 9.63 11.31C9.6 11.29 9.58 11.27 9.55 11.24L9.55 11.23C9.52 11.2 9.5 11.17 9.48 11.14C9.46 11.1 9.45 11.06 9.43 11.03C9.42 10.99 9.41 10.95 9.41 10.91Q9.395 10.85 9.41 10.79L9.65 7.5L6.36 7.26L6.33 7.26C6.32 7.26 6.31 7.26 6.3 7.25L6.27 7.25C6.26 7.25 6.25 7.24 6.24 7.24L6.21 7.23L6.18 7.22C6.17 7.22 6.16 7.22 6.15 7.21C6.14 7.21 6.14 7.2 6.13 7.2C6.12 7.19 6.11 7.19 6.1 7.18C6.09 7.18 6.08 7.17 6.07 7.17C6.07 7.16 6.06 7.16 6.05 7.15C6.04 7.15 6.03 7.14 6.03 7.13C6.02 7.13 6.01 7.12 6 7.12C5.99 7.11 5.99 7.1 5.98 7.1C5.97 7.09 5.97 7.08 5.96 7.07C5.95 7.07 5.95 7.06 5.94 7.05C5.93 7.05 5.93 7.04 5.92 7.03C5.91 7.02 5.91 7.01 5.9 7.01C5.9 7 5.89 6.99 5.88 6.98C5.88 6.97 5.88 6.96 5.87 6.96C5.87 6.95 5.86 6.94 5.86 6.93C5.85 6.92 5.85 6.91 5.84 6.9C5.84 6.89 5.83 6.88 5.83 6.88C5.83 6.87 5.82 6.86 5.82 6.85C5.82 6.84 5.82 6.83 5.81 6.82C5.81 6.81 5.81 6.8 5.8 6.79L5.8 6.76L5.79 6.73L5.79 6.58C5.8 6.57 5.8 6.56 5.8 6.55L5.8 6.52C5.81 6.51 5.81 6.5 5.81 6.49C5.81 6.48 5.82 6.47 5.82 6.46C5.82 6.45 5.83 6.44 5.83 6.43C5.83 6.42 5.84 6.41 5.84 6.41C5.85 6.4 5.85 6.39 5.85 6.38C5.86 6.37 5.86 6.36 5.87 6.35C5.87 6.34 5.88 6.33 5.88 6.33L5.9 6.3C5.91 6.29 5.91 6.28 5.92 6.28C5.93 6.27 5.93 6.26 5.94 6.25L6 6.19C6.01 6.18 6.02 6.18 6.02 6.17C6.03 6.16 6.04 6.16 6.05 6.15C6.06 6.15 6.07 6.14 6.07 6.14C6.08 6.13 6.09 6.13 6.1 6.12C6.11 6.12 6.12 6.11 6.13 6.11L6.15 6.09C6.16 6.09 6.17 6.09 6.18 6.08C6.19 6.08 6.2 6.07 6.21 6.07C6.22 6.07 6.23 6.07 6.24 6.06L6.27 6.06C6.28 6.05 6.29 6.05 6.3 6.05L6.32 6.05C6.33 6.04 6.35 6.04 6.36 6.04L6.45 6.04L9.74 6.28L9.98 2.99L9.98 2.93L9.99 2.9C9.99 2.9 10 2.88 10 2.87C10 2.86 10 2.86 10.01 2.85C10.01 2.84 10.01 2.83 10.02 2.82C10.02 2.81 10.02 2.8 10.03 2.79C10.03 2.78 10.04 2.77 10.04 2.76L10.06 2.74C10.06 2.73 10.07 2.72 10.07 2.71L10.09 2.69C10.09 2.68 10.1 2.67 10.11 2.66C10.11 2.65 10.12 2.65 10.12 2.64L10.14 2.62C10.15 2.61 10.16 2.6 10.17 2.6C10.17 2.59 10.18 2.58 10.19 2.57C10.2 2.57 10.2 2.56 10.21 2.56C10.22 2.55 10.23 2.54 10.24 2.54C10.24 2.53 10.25 2.53 10.26 2.52C10.27 2.52 10.28 2.51 10.29 2.51C10.29 2.5 10.3 2.5 10.31 2.49L10.34 2.48C10.35 2.48 10.36 2.47 10.37 2.47C10.38 2.46 10.39 2.46 10.4 2.46C10.4 2.45 10.41 2.45 10.42 2.45Z" /></g></g></svg>