<svg xmlns="http://www.w3.org/2000/svg" xmlns:xlink="http://www.w3.org/1999/xlink" width="22" height="22.000000000000455" viewBox="0 0 22 22.000000000000455" fill="none"><defs><rect id="path_0" x="0" y="0" width="22" height="22.000000000000394" /></defs><g opacity="1" transform="translate(0 0)  rotate(0 11 11.000000000000197)"><mask id="bg-mask-0" fill="white"><use xlink:href="#path_0"></use></mask><g mask="url(#bg-mask-0)" ><path id="并集" fill-rule="evenodd" style="fill:#000000" transform="translate(2.063111111111125 1.20755555555559)  rotate(0 9.181332736545139 9.181332736545304)" opacity="1" d="M15.03 1.34L14.77 0.51C14.67 0.21 14.39 0 14.07 0C13.75 0 13.47 0.21 13.37 0.51L13.11 1.34C12.81 2.29 12.07 3.03 11.12 3.33L10.29 3.59C9.99 3.69 9.78 3.97 9.78 4.29C9.78 4.61 9.99 4.9 10.29 4.99L11.12 5.25C12.07 5.55 12.81 6.3 13.11 7.24L13.37 8.07C13.47 8.38 13.75 8.58 14.07 8.58C14.39 8.58 14.67 8.38 14.77 8.07L15.03 7.24C15.33 6.3 16.07 5.55 17.02 5.25L17.85 4.99C18.15 4.9 18.36 4.61 18.36 4.29C18.36 3.97 18.15 3.69 17.85 3.59L17.02 3.33C16.07 3.03 15.33 2.29 15.03 1.34ZM13.85 2.65C13.93 2.51 14 2.37 14.07 2.23C14.14 2.37 14.21 2.51 14.29 2.65C14.38 2.79 14.48 2.93 14.58 3.06C14.69 3.2 14.8 3.32 14.92 3.44C15.04 3.56 15.17 3.68 15.3 3.78C15.43 3.89 15.57 3.98 15.72 4.07C15.85 4.15 15.99 4.23 16.13 4.29C15.99 4.36 15.85 4.43 15.72 4.51C15.57 4.6 15.43 4.7 15.3 4.8C15.17 4.91 15.04 5.02 14.92 5.14C14.8 5.26 14.69 5.39 14.58 5.52C14.48 5.65 14.38 5.79 14.29 5.94C14.21 6.07 14.14 6.21 14.07 6.35C14 6.21 13.93 6.07 13.85 5.94C13.76 5.79 13.66 5.65 13.56 5.52C13.45 5.39 13.34 5.26 13.22 5.14C13.1 5.02 12.98 4.91 12.84 4.8C12.71 4.7 12.57 4.6 12.42 4.51C12.29 4.43 12.15 4.36 12.01 4.29C12.15 4.23 12.29 4.15 12.42 4.07C12.57 3.98 12.71 3.89 12.84 3.78C12.98 3.68 13.1 3.56 13.22 3.44C13.34 3.32 13.45 3.2 13.56 3.06C13.66 2.93 13.76 2.79 13.85 2.65ZM3.89 8.94C4.84 8.64 5.58 7.9 5.88 6.95L6.95 3.57C7.05 3.26 7.33 3.06 7.65 3.06C7.97 3.06 8.26 3.26 8.35 3.57L9.42 6.95C9.72 7.9 10.47 8.64 11.41 8.94L14.8 10.01C15.1 10.11 15.31 10.39 15.31 10.71C15.31 11.03 15.1 11.31 14.8 11.41L11.41 12.48C10.47 12.78 9.72 13.52 9.42 14.47L8.35 17.85C8.26 18.15 7.97 18.36 7.65 18.36C7.33 18.36 7.05 18.15 6.95 17.85L5.88 14.47C5.58 13.52 4.84 12.78 3.89 12.48L0.51 11.41C0.21 11.31 0 11.03 0 10.71C0 10.39 0.21 10.11 0.51 10.01L3.89 8.94ZM4.26 10.1L2.35 10.71L4.26 11.31C4.43 11.37 4.59 11.43 4.75 11.5C4.9 11.57 5.05 11.65 5.2 11.74C5.34 11.83 5.48 11.93 5.62 12.03C5.75 12.14 5.88 12.25 6 12.37C6.11 12.49 6.23 12.61 6.33 12.75C6.44 12.88 6.53 13.02 6.62 13.16C6.71 13.31 6.79 13.46 6.86 13.62C6.93 13.77 7 13.94 7.05 14.1L7.65 16.01L8.26 14.1C8.31 13.94 8.37 13.77 8.44 13.62C8.52 13.46 8.6 13.31 8.68 13.16C8.77 13.02 8.87 12.88 8.97 12.75C9.08 12.61 9.19 12.49 9.31 12.37C9.43 12.25 9.56 12.14 9.69 12.03C9.82 11.93 9.96 11.83 10.11 11.74C10.25 11.65 10.41 11.57 10.56 11.5C10.72 11.43 10.88 11.37 11.05 11.31L12.95 10.71L11.05 10.1C10.88 10.05 10.72 9.99 10.56 9.92C10.41 9.85 10.25 9.77 10.11 9.68C9.96 9.59 9.82 9.49 9.69 9.39C9.56 9.28 9.43 9.17 9.31 9.05C9.19 8.93 9.08 8.8 8.97 8.67C8.87 8.54 8.77 8.4 8.68 8.25C8.6 8.11 8.52 7.96 8.44 7.8C8.37 7.64 8.31 7.48 8.26 7.32L7.65 5.41L7.05 7.32C7 7.48 6.93 7.64 6.86 7.8C6.79 7.96 6.71 8.11 6.62 8.25C6.53 8.4 6.44 8.54 6.33 8.67C6.23 8.8 6.11 8.93 6 9.05C5.88 9.17 5.75 9.28 5.62 9.39C5.48 9.49 5.34 9.59 5.2 9.68C5.05 9.77 4.9 9.85 4.75 9.92C4.59 9.99 4.43 10.05 4.26 10.1Z" /></g></g></svg>