<svg xmlns="http://www.w3.org/2000/svg" xmlns:xlink="http://www.w3.org/1999/xlink" width="22" height="22" viewBox="0 0 22 22" fill="none"><defs><rect id="path_0" x="0" y="0" width="22" height="22" /></defs><g opacity="1" transform="translate(0 0)  rotate(0 11 11)"><mask id="bg-mask-0" fill="white"><use xlink:href="#path_0"></use></mask><g mask="url(#bg-mask-0)" ><path id="并集" fill-rule="evenodd" style="fill:#000000" transform="translate(3.7888888888888914 1.3444444451067241)  rotate(0 7.210000038146973 9.654999732971191)" opacity="1" d="M14.4056 5.87111L14.42 5.87111L14.42 17.36C14.42 18.44 13.55 19.31 12.47 19.31L1.96 19.31C0.88 19.31 0 18.44 0 17.36L0 1.96C0 0.88 0.88 0 1.96 0L8.55556 0L8.55556 0.0151893C8.87545 0.0169335 9.18955 0.143638 9.42333 0.377423L14.0433 5.00742C14.2785 5.23584 14.4053 5.55002 14.4056 5.87111Z M13.2 7.08731L13.2 17.36C13.2 17.41 13.2 17.46 13.19 17.5C13.18 17.55 13.16 17.6 13.14 17.64C13.12 17.68 13.1 17.73 13.08 17.76C13.05 17.8 13.02 17.84 12.99 17.87C12.95 17.91 12.92 17.94 12.88 17.96C12.84 17.99 12.8 18.01 12.75 18.03C12.71 18.05 12.66 18.06 12.62 18.07C12.57 18.08 12.52 18.09 12.47 18.09L1.96 18.09C1.9 18.09 1.85 18.08 1.81 18.07C1.76 18.06 1.71 18.05 1.67 18.03C1.63 18.01 1.59 17.99 1.55 17.96C1.51 17.94 1.47 17.91 1.44 17.87C1.4 17.84 1.37 17.8 1.35 17.76C1.32 17.73 1.3 17.68 1.28 17.64C1.26 17.6 1.25 17.55 1.24 17.5C1.23 17.46 1.22 17.41 1.22 17.36L1.22 1.96C1.22 1.9 1.23 1.85 1.24 1.81C1.25 1.76 1.26 1.71 1.28 1.67C1.3 1.63 1.32 1.59 1.35 1.55C1.37 1.51 1.4 1.47 1.44 1.44C1.47 1.4 1.51 1.37 1.55 1.35C1.59 1.32 1.63 1.3 1.67 1.28C1.71 1.26 1.76 1.25 1.81 1.24C1.85 1.23 1.9 1.22 1.96 1.22L7.33346 1.22C7.33338 1.2258 7.33333 1.23161 7.33333 1.23742L7.33333 5.86742C7.33333 6.53742 7.88333 7.08742 8.55333 7.08742L13.1833 7.08742L13.2 7.08731Z M13.1833 5.86742L8.55333 5.86742L8.55333 1.23742L13.1833 5.86742Z " /></g></g></svg>