<svg xmlns="http://www.w3.org/2000/svg" xmlns:xlink="http://www.w3.org/1999/xlink" width="22" height="22" viewBox="0 0 22 22" fill="none"><defs><rect id="path_0" x="0" y="0" width="22" height="22" /></defs><g opacity="1" transform="translate(0 0)  rotate(0 11 11)"><mask id="bg-mask-0" fill="white"><use xlink:href="#path_0"></use></mask><g mask="url(#bg-mask-0)" ><path id="并集" fill-rule="evenodd" style="fill:#000000" transform="translate(1.2527777777777782 2.322222222222223)  rotate(0 9.518055555555556 8.633777703179254)" opacity="1" d="M1.47 17.27C0.66 17.27 0 16.61 0 15.8L0 1.47C0 0.66 0.66 0 1.47 0L6.33 0C6.88 0 7.39 0.32 7.64 0.81L8.59 2.72L17.57 2.72C18.38 2.72 19.04 3.38 19.04 4.19L19.04 15.8C19.04 16.61 18.38 17.27 17.57 17.27L1.47 17.27ZM6.39 1.23C6.37 1.23 6.35 1.22 6.33 1.22L1.47 1.22C1.43 1.22 1.4 1.23 1.37 1.24C1.34 1.25 1.32 1.27 1.29 1.29C1.27 1.32 1.25 1.34 1.24 1.37C1.23 1.4 1.22 1.43 1.22 1.47L1.22 2.72L7.23 2.72L6.55 1.36C6.54 1.34 6.52 1.32 6.51 1.3C6.49 1.29 6.47 1.27 6.45 1.26C6.44 1.25 6.41 1.24 6.39 1.23ZM17.8 4.09C17.81 4.12 17.81 4.16 17.81 4.19L17.81 15.8C17.81 15.84 17.81 15.87 17.8 15.9C17.78 15.93 17.76 15.95 17.74 15.97C17.72 16 17.69 16.01 17.66 16.03C17.64 16.04 17.6 16.05 17.57 16.05L1.47 16.05C1.43 16.05 1.4 16.04 1.37 16.03C1.34 16.01 1.32 16 1.29 15.97C1.27 15.95 1.25 15.93 1.24 15.9C1.23 15.87 1.22 15.84 1.22 15.8L1.22 3.95L17.57 3.95C17.6 3.95 17.64 3.95 17.66 3.96C17.69 3.98 17.72 3.99 17.74 4.02C17.76 4.04 17.78 4.07 17.8 4.09Z" /></g></g></svg>