<svg xmlns="http://www.w3.org/2000/svg" xmlns:xlink="http://www.w3.org/1999/xlink" width="22" height="22" viewBox="0 0 22 22" fill="none"><defs><rect id="path_0" x="0" y="0" width="22" height="22" /></defs><g opacity="1" transform="translate(0 0)  rotate(0 11 11)"><mask id="bg-mask-0" fill="white"><use xlink:href="#path_0"></use></mask><g mask="url(#bg-mask-0)" ><path id="并集" fill-rule="evenodd" style="fill:#000000" transform="translate(3.9111111111111114 1.0999999999999996)  rotate(0 7.121888944837782 9.777677069769965)" opacity="1" d="M7.66 0.41C7.67 0.41 7.67 0.42 7.67 0.43C7.68 0.44 7.68 0.45 7.68 0.46C7.68 0.47 7.69 0.48 7.69 0.49L7.69 0.52L7.7 0.55L7.7 2.32L7.69 2.35L7.69 2.38C7.69 2.39 7.68 2.4 7.68 2.41C7.68 2.42 7.68 2.43 7.67 2.44C7.67 2.45 7.67 2.46 7.66 2.47C7.66 2.48 7.66 2.49 7.65 2.49C7.65 2.5 7.65 2.51 7.64 2.52C7.64 2.53 7.63 2.54 7.63 2.55L7.61 2.58C7.61 2.58 7.6 2.59 7.6 2.6C7.59 2.61 7.59 2.62 7.58 2.63C7.57 2.63 7.57 2.64 7.56 2.65L7.54 2.67C7.54 2.68 7.53 2.69 7.52 2.69C7.51 2.7 7.51 2.71 7.5 2.71L7.48 2.73C7.47 2.74 7.46 2.75 7.45 2.75L7.43 2.77C7.42 2.77 7.41 2.78 7.4 2.79L7.38 2.8C7.37 2.81 7.36 2.81 7.35 2.81C7.34 2.82 7.33 2.82 7.32 2.83C7.31 2.83 7.3 2.83 7.29 2.84C7.29 2.84 7.28 2.84 7.27 2.85L7.24 2.85C7.23 2.86 7.22 2.86 7.21 2.86C7.2 2.86 7.19 2.86 7.18 2.87L7 2.87C6.99 2.86 6.98 2.86 6.97 2.86C6.96 2.86 6.95 2.86 6.94 2.85L6.91 2.85C6.9 2.84 6.89 2.84 6.88 2.84C6.87 2.83 6.86 2.83 6.86 2.83C6.85 2.82 6.84 2.82 6.83 2.81C6.82 2.81 6.81 2.81 6.8 2.8L6.77 2.79C6.77 2.78 6.76 2.77 6.75 2.77C6.74 2.76 6.73 2.76 6.72 2.75L6.7 2.73C6.69 2.73 6.69 2.72 6.68 2.71C6.67 2.71 6.66 2.7 6.66 2.69C6.65 2.69 6.64 2.68 6.64 2.67C6.63 2.66 6.62 2.66 6.62 2.65L6.6 2.63C6.59 2.62 6.59 2.61 6.58 2.6C6.58 2.59 6.57 2.58 6.56 2.58L6.55 2.55C6.54 2.54 6.54 2.53 6.54 2.52C6.53 2.51 6.53 2.5 6.52 2.49C6.52 2.49 6.52 2.48 6.51 2.47C6.51 2.46 6.51 2.45 6.5 2.44L6.5 2.41C6.49 2.4 6.49 2.39 6.49 2.38C6.49 2.37 6.49 2.36 6.48 2.35L6.48 0.52C6.49 0.51 6.49 0.5 6.49 0.49C6.49 0.48 6.49 0.47 6.5 0.46L6.5 0.43C6.51 0.42 6.51 0.41 6.51 0.41C6.52 0.4 6.52 0.39 6.52 0.38C6.53 0.37 6.53 0.36 6.54 0.35C6.54 0.34 6.54 0.33 6.55 0.32L6.56 0.3C6.57 0.29 6.58 0.28 6.58 0.27L6.6 0.25C6.6 0.24 6.61 0.23 6.62 0.22L6.64 0.2C6.64 0.19 6.65 0.19 6.66 0.18C6.66 0.17 6.67 0.16 6.68 0.16L6.7 0.14C6.71 0.13 6.72 0.13 6.72 0.12C6.73 0.11 6.74 0.11 6.75 0.1C6.76 0.1 6.77 0.09 6.77 0.09L6.8 0.07C6.81 0.07 6.82 0.06 6.83 0.06C6.84 0.06 6.85 0.05 6.86 0.05C6.86 0.04 6.87 0.04 6.88 0.04C6.89 0.03 6.9 0.03 6.91 0.03C6.92 0.02 6.93 0.02 6.94 0.02C6.95 0.02 6.96 0.01 6.97 0.01L7 0.01L7.03 0L7.15 0L7.18 0.01L7.21 0.01C7.22 0.01 7.23 0.02 7.24 0.02C7.25 0.02 7.26 0.02 7.27 0.03C7.28 0.03 7.29 0.03 7.29 0.04C7.3 0.04 7.31 0.04 7.32 0.05C7.33 0.05 7.34 0.06 7.35 0.06C7.36 0.06 7.37 0.07 7.38 0.07L7.4 0.09C7.41 0.09 7.42 0.1 7.43 0.1L7.45 0.12C7.46 0.13 7.47 0.13 7.48 0.14C7.48 0.15 7.49 0.15 7.5 0.16C7.51 0.16 7.51 0.17 7.52 0.18C7.53 0.19 7.54 0.19 7.54 0.2C7.55 0.21 7.55 0.22 7.56 0.22C7.57 0.23 7.57 0.24 7.58 0.25L7.6 0.27C7.6 0.28 7.61 0.29 7.61 0.3L7.63 0.32C7.63 0.33 7.64 0.34 7.64 0.35C7.65 0.36 7.65 0.37 7.65 0.38C7.66 0.39 7.66 0.4 7.66 0.41ZM2.59 1.61C2.58 1.6 2.57 1.6 2.56 1.6C2.55 1.6 2.54 1.6 2.53 1.59L2.36 1.59C2.35 1.6 2.33 1.6 2.32 1.6C2.31 1.6 2.31 1.6 2.3 1.61C2.29 1.61 2.28 1.61 2.27 1.62L2.24 1.62C2.23 1.63 2.22 1.63 2.21 1.64C2.2 1.64 2.19 1.64 2.18 1.65C2.17 1.65 2.17 1.66 2.16 1.66L2.13 1.68C2.12 1.68 2.11 1.69 2.1 1.69C2.1 1.7 2.09 1.7 2.08 1.71C2.07 1.71 2.06 1.72 2.06 1.73C2.05 1.73 2.04 1.74 2.03 1.75L1.97 1.81C1.97 1.82 1.96 1.83 1.95 1.84C1.95 1.84 1.94 1.85 1.94 1.86C1.93 1.87 1.93 1.88 1.92 1.89L1.91 1.91C1.9 1.92 1.9 1.93 1.89 1.94C1.89 1.95 1.88 1.96 1.88 1.97C1.88 1.98 1.87 1.98 1.87 1.99C1.87 2 1.86 2.01 1.86 2.02C1.86 2.03 1.85 2.04 1.85 2.05L1.85 2.08C1.84 2.09 1.84 2.1 1.84 2.11L1.84 2.14C1.84 2.15 1.83 2.16 1.83 2.17L1.83 2.23C1.83 2.24 1.84 2.25 1.84 2.26L1.84 2.29C1.84 2.3 1.84 2.31 1.85 2.32L1.85 2.35C1.85 2.36 1.86 2.37 1.86 2.38C1.86 2.39 1.87 2.4 1.87 2.41C1.87 2.42 1.88 2.42 1.88 2.43C1.88 2.44 1.89 2.45 1.89 2.46C1.9 2.47 1.9 2.48 1.91 2.49L1.92 2.51C1.93 2.52 1.93 2.53 1.94 2.54C1.94 2.55 1.95 2.56 1.95 2.56C1.96 2.57 1.97 2.58 1.97 2.59L1.99 2.61L2.01 2.63L3.18 3.8C3.2 3.82 3.21 3.83 3.23 3.84C3.24 3.85 3.26 3.87 3.28 3.88C3.29 3.89 3.31 3.9 3.33 3.91C3.34 3.92 3.36 3.93 3.38 3.93L3.44 3.96L3.5 3.97C3.52 3.97 3.53 3.98 3.55 3.98L3.67 3.98C3.69 3.98 3.71 3.97 3.73 3.97C3.75 3.96 3.77 3.96 3.79 3.96L3.85 3.93C3.87 3.93 3.88 3.92 3.9 3.91C3.92 3.9 3.94 3.89 3.95 3.88C3.97 3.87 3.99 3.85 4 3.84C4.02 3.83 4.03 3.82 4.05 3.8C4.06 3.79 4.07 3.77 4.09 3.76C4.1 3.74 4.11 3.73 4.12 3.71C4.13 3.69 4.14 3.68 4.15 3.66L4.18 3.6C4.19 3.58 4.19 3.57 4.2 3.55C4.2 3.53 4.21 3.51 4.21 3.49C4.22 3.47 4.22 3.45 4.22 3.43C4.22 3.41 4.23 3.39 4.23 3.37C4.23 3.35 4.22 3.33 4.22 3.31C4.22 3.29 4.22 3.27 4.21 3.25L4.2 3.19C4.19 3.17 4.19 3.15 4.18 3.14L4.15 3.08C4.14 3.06 4.13 3.05 4.12 3.03C4.11 3.01 4.1 3 4.09 2.98C4.07 2.97 4.06 2.95 4.05 2.94L2.88 1.77L2.86 1.75C2.85 1.74 2.84 1.73 2.83 1.73C2.82 1.72 2.82 1.71 2.81 1.71C2.8 1.7 2.79 1.7 2.78 1.69C2.78 1.69 2.77 1.68 2.76 1.68L2.73 1.66C2.72 1.66 2.71 1.65 2.71 1.65C2.7 1.64 2.69 1.64 2.68 1.64C2.67 1.63 2.66 1.63 2.65 1.62L2.62 1.62C2.61 1.61 2.6 1.61 2.59 1.61ZM10.4 3.27Q10.4 3.225 10.43 3.18C10.44 3.15 10.45 3.13 10.47 3.1C10.49 3.07 10.51 3.05 10.53 3.02L11.7 1.85C11.72 1.83 11.75 1.81 11.78 1.79C11.8 1.78 11.83 1.76 11.86 1.75L11.95 1.72C11.98 1.71 12.02 1.71 12.05 1.71C12.08 1.71 12.11 1.71 12.14 1.72C12.17 1.73 12.21 1.74 12.23 1.75C12.26 1.76 12.29 1.78 12.32 1.79C12.35 1.81 12.37 1.83 12.39 1.85C12.42 1.88 12.44 1.9 12.45 1.93C12.47 1.96 12.49 1.98 12.5 2.01L12.53 2.1C12.53 2.14 12.54 2.17 12.54 2.2C12.54 2.23 12.53 2.26 12.53 2.3L12.5 2.39C12.49 2.42 12.47 2.44 12.45 2.47C12.44 2.5 12.42 2.52 12.39 2.55L11.22 3.72C11.2 3.74 11.18 3.76 11.15 3.78C11.12 3.79 11.09 3.81 11.06 3.82C11.04 3.83 11 3.84 10.97 3.85C10.94 3.86 10.91 3.86 10.88 3.86C10.85 3.86 10.81 3.86 10.78 3.85L10.69 3.82C10.66 3.81 10.63 3.79 10.61 3.78C10.58 3.76 10.56 3.74 10.53 3.72C10.51 3.69 10.49 3.67 10.47 3.64C10.45 3.62 10.44 3.59 10.43 3.56Q10.4 3.515 10.4 3.47C10.39 3.43 10.39 3.4 10.39 3.37C10.39 3.34 10.39 3.31 10.4 3.27ZM3.76 7.46C3.76 5.56 5.31 4.01 7.21 4.01C9.12 4.01 10.66 5.56 10.66 7.46C10.66 9.37 9.12 10.91 7.21 10.91C5.31 10.91 3.76 9.37 3.76 7.46ZM6.76 9.64C6.91 9.67 7.06 9.69 7.21 9.69C7.36 9.69 7.51 9.67 7.66 9.64C7.8 9.61 7.94 9.57 8.08 9.51C8.21 9.46 8.34 9.39 8.45 9.31C8.57 9.23 8.68 9.14 8.79 9.04C8.89 8.94 8.98 8.83 9.06 8.71C9.14 8.59 9.21 8.46 9.26 8.33C9.32 8.19 9.36 8.06 9.39 7.91C9.42 7.76 9.44 7.62 9.44 7.46C9.44 7.31 9.42 7.16 9.39 7.01C9.36 6.87 9.32 6.73 9.26 6.6C9.21 6.46 9.14 6.34 9.06 6.22C8.98 6.1 8.89 5.99 8.79 5.89C8.68 5.79 8.57 5.7 8.45 5.62C8.34 5.54 8.21 5.47 8.08 5.41C7.94 5.35 7.8 5.31 7.66 5.28C7.51 5.25 7.36 5.24 7.21 5.24C7.06 5.24 6.91 5.25 6.76 5.28C6.62 5.31 6.48 5.35 6.34 5.41C6.21 5.47 6.09 5.54 5.97 5.62C5.85 5.7 5.74 5.79 5.64 5.89C5.54 5.99 5.44 6.1 5.36 6.22C5.28 6.34 5.22 6.46 5.16 6.6C5.1 6.73 5.06 6.87 5.03 7.01C5 7.16 4.99 7.31 4.99 7.46C4.99 7.62 5 7.76 5.03 7.91C5.06 8.06 5.1 8.19 5.16 8.33C5.22 8.46 5.28 8.59 5.36 8.71C5.44 8.83 5.54 8.94 5.64 9.04C5.74 9.14 5.85 9.23 5.97 9.31C6.09 9.39 6.21 9.46 6.34 9.51C6.48 9.57 6.62 9.61 6.76 9.64ZM2.42 5.46C2.4 5.45 2.39 5.44 2.37 5.44C2.36 5.43 2.35 5.42 2.33 5.41C2.32 5.41 2.3 5.4 2.29 5.4C2.27 5.39 2.26 5.39 2.24 5.39C2.22 5.38 2.21 5.38 2.19 5.38L0.44 5.38C0.43 5.38 0.41 5.38 0.39 5.39C0.38 5.39 0.36 5.39 0.35 5.4C0.33 5.4 0.32 5.41 0.3 5.41C0.29 5.42 0.27 5.43 0.26 5.44C0.24 5.44 0.23 5.45 0.22 5.46C0.2 5.47 0.19 5.48 0.18 5.49C0.17 5.5 0.15 5.51 0.14 5.52C0.13 5.53 0.12 5.54 0.11 5.56C0.1 5.57 0.09 5.58 0.08 5.6C0.07 5.61 0.06 5.62 0.06 5.64C0.05 5.65 0.04 5.66 0.04 5.68C0.03 5.69 0.03 5.71 0.02 5.72C0.02 5.74 0.01 5.76 0.01 5.77C0.01 5.79 0 5.8 0 5.82L0 5.87C0 5.9 0 5.93 0.01 5.96C0.02 5.99 0.02 6.02 0.04 6.05C0.05 6.08 0.06 6.11 0.08 6.14C0.1 6.16 0.12 6.19 0.14 6.21C0.17 6.24 0.19 6.26 0.22 6.27C0.24 6.29 0.27 6.31 0.3 6.32L0.39 6.35C0.43 6.35 0.46 6.36 0.49 6.36L2.14 6.36C2.16 6.36 2.18 6.35 2.19 6.35L2.24 6.35C2.26 6.34 2.27 6.34 2.29 6.33C2.3 6.33 2.32 6.33 2.33 6.32C2.35 6.31 2.36 6.31 2.37 6.3C2.39 6.29 2.4 6.28 2.42 6.27C2.43 6.26 2.44 6.26 2.45 6.24C2.47 6.23 2.48 6.22 2.49 6.21L2.52 6.18C2.53 6.16 2.54 6.15 2.55 6.14C2.56 6.12 2.57 6.11 2.58 6.1C2.58 6.08 2.59 6.07 2.6 6.05C2.6 6.04 2.61 6.02 2.61 6.01C2.62 5.99 2.62 5.98 2.62 5.96C2.63 5.95 2.63 5.93 2.63 5.91L2.63 5.82C2.63 5.8 2.63 5.79 2.62 5.77C2.62 5.76 2.62 5.74 2.61 5.72C2.61 5.71 2.6 5.69 2.6 5.68C2.59 5.66 2.58 5.65 2.58 5.64C2.57 5.62 2.56 5.61 2.55 5.6C2.54 5.58 2.53 5.57 2.52 5.56C2.51 5.54 2.5 5.53 2.49 5.52C2.48 5.51 2.47 5.5 2.45 5.49L2.42 5.46ZM14.1 6.21L14.07 6.24C14.05 6.26 14.04 6.26 14.03 6.27C14.01 6.28 14 6.29 13.99 6.3C13.97 6.31 13.96 6.31 13.94 6.32C13.93 6.33 13.91 6.33 13.9 6.33C13.88 6.34 13.87 6.34 13.85 6.35L13.8 6.35C13.79 6.35 13.77 6.36 13.75 6.36L12.1 6.36C12.07 6.36 12.04 6.35 12 6.35L11.91 6.32C11.88 6.31 11.86 6.29 11.83 6.27C11.8 6.26 11.78 6.24 11.75 6.21C11.73 6.19 11.71 6.16 11.69 6.14C11.68 6.11 11.66 6.08 11.65 6.05L11.62 5.96C11.61 5.93 11.61 5.9 11.61 5.87L11.61 5.82C11.61 5.8 11.62 5.79 11.62 5.77C11.62 5.76 11.63 5.74 11.63 5.72C11.64 5.71 11.64 5.69 11.65 5.68C11.65 5.66 11.66 5.65 11.67 5.64C11.68 5.62 11.68 5.61 11.69 5.6C11.7 5.58 11.71 5.57 11.72 5.56C11.73 5.54 11.74 5.53 11.75 5.52C11.77 5.51 11.78 5.5 11.79 5.49C11.8 5.48 11.82 5.47 11.83 5.46C11.84 5.45 11.86 5.44 11.87 5.44C11.88 5.43 11.9 5.42 11.91 5.41C11.93 5.41 11.94 5.4 11.96 5.4C11.97 5.39 11.99 5.39 12 5.39C12.02 5.38 12.04 5.38 12.05 5.38L13.8 5.38C13.82 5.38 13.83 5.38 13.85 5.39C13.87 5.39 13.88 5.39 13.9 5.4C13.91 5.4 13.93 5.41 13.94 5.41C13.96 5.42 13.97 5.43 13.99 5.44C14 5.44 14.01 5.45 14.03 5.46C14.04 5.47 14.05 5.48 14.07 5.49L14.1 5.52C14.11 5.53 14.12 5.54 14.13 5.56C14.14 5.57 14.15 5.58 14.16 5.6C14.17 5.61 14.18 5.62 14.19 5.64C14.19 5.65 14.2 5.66 14.21 5.68C14.21 5.69 14.22 5.71 14.22 5.72C14.23 5.74 14.23 5.76 14.23 5.77C14.24 5.79 14.24 5.8 14.24 5.82L14.24 5.91C14.24 5.93 14.24 5.95 14.23 5.96C14.23 5.98 14.23 5.99 14.22 6.01C14.22 6.02 14.21 6.04 14.21 6.05C14.2 6.07 14.19 6.08 14.19 6.1C14.18 6.11 14.17 6.12 14.16 6.14C14.15 6.15 14.14 6.16 14.13 6.18L14.1 6.21ZM0.49 18.6L0.49 17.65C0.6 14.25 3.57 11.53 7.21 11.53C10.85 11.53 13.82 14.25 13.93 17.65L13.93 18.6Q13.93 18.735 13.9 18.87C13.85 19.02 13.77 19.16 13.65 19.28C13.47 19.46 13.23 19.56 12.98 19.56L1.44 19.56C1.19 19.56 0.95 19.46 0.77 19.28C0.65 19.16 0.57 19.02 0.53 18.87C0.5 18.78 0.49 18.69 0.49 18.6ZM11.73 14.95C11.54 14.69 11.32 14.44 11.07 14.22C10.82 13.99 10.55 13.79 10.26 13.61C9.97 13.43 9.66 13.27 9.34 13.15C9.01 13.02 8.67 12.92 8.31 12.85C7.95 12.79 7.58 12.75 7.21 12.75C6.84 12.75 6.47 12.79 6.11 12.85C5.76 12.92 5.42 13.02 5.08 13.15C4.76 13.27 4.45 13.43 4.16 13.61C3.87 13.79 3.6 13.99 3.35 14.22C3.11 14.44 2.88 14.69 2.69 14.95C2.49 15.22 2.32 15.49 2.18 15.79C2.04 16.08 1.93 16.39 1.85 16.7C1.77 17.03 1.72 17.36 1.71 17.69L1.71 18.33L12.71 18.33L12.71 17.68C12.7 17.35 12.65 17.02 12.57 16.7C12.49 16.39 12.38 16.08 12.24 15.79C12.1 15.49 11.93 15.22 11.73 14.95Z" /></g></g></svg>