<svg xmlns="http://www.w3.org/2000/svg" xmlns:xlink="http://www.w3.org/1999/xlink" width="22" height="22" viewBox="0 0 22 22" fill="none"><defs><rect id="path_0" x="0" y="0" width="22" height="22" /></defs><g opacity="1" transform="translate(0 0)  rotate(0 11 11)"><mask id="bg-mask-0" fill="white"><use xlink:href="#path_0"></use></mask><g mask="url(#bg-mask-0)" ><path id="并集" fill-rule="evenodd" style="fill:#000000" transform="translate(1.4666666666666668 1.4666666666666668)  rotate(0 9.533333333333333 9.533333333333333)" opacity="1" d="M0 9.53C0 4.27 4.27 0 9.53 0C14.8 0 19.07 4.27 19.07 9.53C19.07 14.8 14.8 19.07 9.53 19.07C4.27 19.07 0 14.8 0 9.53ZM9.53 1.22C9.82 1.22 10.1 1.24 10.39 1.26C10.66 1.29 10.94 1.34 11.21 1.39C11.48 1.45 11.74 1.51 12.01 1.6C12.26 1.68 12.52 1.77 12.77 1.87C13.02 1.98 13.26 2.1 13.49 2.22C13.73 2.35 13.96 2.49 14.18 2.64C14.4 2.79 14.61 2.95 14.82 3.12C15.02 3.29 15.22 3.47 15.41 3.66C15.6 3.85 15.78 4.04 15.95 4.25C16.12 4.45 16.28 4.67 16.43 4.89C16.58 5.11 16.72 5.34 16.84 5.57C16.97 5.81 17.09 6.05 17.19 6.3C17.3 6.55 17.39 6.8 17.47 7.06C17.55 7.32 17.62 7.59 17.68 7.86C17.73 8.13 17.77 8.4 17.8 8.68C17.83 8.96 17.84 9.25 17.84 9.53C17.84 9.82 17.83 10.1 17.8 10.39C17.77 10.66 17.73 10.94 17.68 11.21C17.62 11.48 17.55 11.74 17.47 12.01C17.39 12.26 17.3 12.52 17.19 12.77C17.09 13.02 16.97 13.26 16.84 13.49C16.72 13.73 16.58 13.96 16.43 14.18C16.28 14.4 16.12 14.61 15.95 14.82C15.78 15.02 15.6 15.22 15.41 15.41C15.22 15.6 15.02 15.78 14.82 15.95C14.61 16.12 14.4 16.28 14.18 16.43C13.96 16.58 13.73 16.72 13.49 16.84C13.26 16.97 13.02 17.09 12.77 17.19C12.52 17.3 12.26 17.39 12.01 17.47C11.74 17.55 11.48 17.62 11.21 17.68C10.94 17.73 10.66 17.77 10.39 17.8C10.1 17.83 9.82 17.84 9.53 17.84C9.25 17.84 8.96 17.83 8.68 17.8C8.4 17.77 8.13 17.73 7.86 17.68C7.59 17.62 7.32 17.55 7.06 17.47C6.8 17.39 6.55 17.3 6.3 17.19C6.05 17.09 5.81 16.97 5.57 16.84C5.34 16.72 5.11 16.58 4.89 16.43C4.67 16.28 4.45 16.12 4.25 15.95C4.04 15.78 3.85 15.6 3.66 15.41C3.47 15.22 3.29 15.02 3.12 14.82C2.95 14.61 2.79 14.4 2.64 14.18C2.49 13.96 2.35 13.73 2.22 13.49C2.1 13.26 1.98 13.02 1.87 12.77C1.77 12.52 1.68 12.26 1.6 12.01C1.51 11.74 1.45 11.48 1.39 11.21C1.34 10.94 1.29 10.66 1.26 10.39C1.24 10.1 1.22 9.82 1.22 9.53C1.22 9.25 1.24 8.96 1.26 8.68C1.29 8.4 1.34 8.13 1.39 7.86C1.45 7.59 1.51 7.32 1.6 7.06C1.68 6.8 1.77 6.55 1.87 6.3C1.98 6.05 2.1 5.81 2.22 5.57C2.35 5.34 2.49 5.11 2.64 4.89C2.79 4.67 2.95 4.45 3.12 4.25C3.29 4.04 3.47 3.85 3.66 3.66C3.85 3.47 4.04 3.29 4.25 3.12C4.45 2.95 4.67 2.79 4.89 2.64C5.11 2.49 5.34 2.35 5.57 2.22C5.81 2.1 6.05 1.98 6.3 1.87C6.55 1.77 6.8 1.68 7.06 1.6C7.32 1.51 7.59 1.45 7.86 1.39C8.13 1.34 8.4 1.29 8.68 1.26C8.96 1.24 9.25 1.22 9.53 1.22ZM9.62 3.87C9.61 3.86 9.61 3.85 9.6 3.85L9.58 3.83L9.55 3.8C9.55 3.8 9.54 3.79 9.53 3.79C9.52 3.78 9.51 3.78 9.51 3.77C9.5 3.76 9.49 3.76 9.48 3.75L9.46 3.74C9.45 3.73 9.44 3.73 9.43 3.73C9.42 3.72 9.41 3.72 9.4 3.71C9.39 3.71 9.38 3.71 9.37 3.7C9.36 3.7 9.35 3.7 9.34 3.69C9.33 3.69 9.32 3.69 9.31 3.68L9.29 3.68C9.28 3.68 9.27 3.68 9.26 3.67L9.08 3.67C9.07 3.68 9.06 3.68 9.05 3.68L9.02 3.68C9.01 3.69 9 3.69 8.99 3.69C8.98 3.7 8.97 3.7 8.96 3.7C8.95 3.71 8.94 3.71 8.93 3.71C8.92 3.72 8.91 3.72 8.91 3.73C8.9 3.73 8.89 3.73 8.88 3.74L8.85 3.75L8.83 3.77C8.82 3.78 8.81 3.78 8.8 3.79C8.8 3.79 8.79 3.8 8.78 3.8C8.77 3.81 8.76 3.82 8.76 3.83C8.75 3.83 8.74 3.84 8.73 3.85L8.71 3.87L8.69 3.89C8.69 3.9 8.68 3.91 8.68 3.91C8.67 3.92 8.66 3.93 8.66 3.94C8.65 3.95 8.65 3.96 8.64 3.96L8.63 3.99C8.62 4 8.62 4.01 8.61 4.02C8.61 4.03 8.61 4.03 8.6 4.04C8.6 4.05 8.59 4.06 8.59 4.07C8.59 4.08 8.58 4.09 8.58 4.1C8.58 4.11 8.58 4.12 8.57 4.13L8.57 4.16C8.57 4.17 8.56 4.18 8.56 4.19L8.56 9.66C8.56 9.73 8.56 9.8 8.58 9.88C8.59 9.95 8.61 10.02 8.64 10.08C8.67 10.15 8.7 10.21 8.74 10.27C8.78 10.33 8.83 10.38 8.88 10.43C8.93 10.48 8.98 10.53 9.04 10.57C9.1 10.61 9.16 10.64 9.23 10.67C9.29 10.7 9.36 10.72 9.43 10.73C9.51 10.75 9.58 10.76 9.66 10.76L13.08 10.76C13.09 10.76 13.1 10.76 13.11 10.75L13.17 10.75C13.18 10.75 13.19 10.75 13.2 10.74L13.23 10.74C13.24 10.73 13.25 10.73 13.25 10.73C13.26 10.73 13.27 10.72 13.28 10.72C13.29 10.72 13.3 10.71 13.31 10.71C13.32 10.71 13.33 10.7 13.34 10.7C13.35 10.69 13.36 10.69 13.37 10.68L13.39 10.67C13.4 10.66 13.41 10.66 13.42 10.65C13.43 10.65 13.43 10.64 13.44 10.64C13.45 10.63 13.46 10.62 13.47 10.62C13.47 10.61 13.48 10.6 13.49 10.6C13.5 10.59 13.5 10.58 13.51 10.58C13.52 10.57 13.52 10.56 13.53 10.56C13.54 10.55 13.54 10.54 13.55 10.53L13.57 10.51C13.57 10.5 13.58 10.49 13.59 10.48C13.59 10.48 13.6 10.47 13.6 10.46L13.62 10.43C13.62 10.42 13.63 10.41 13.63 10.41C13.63 10.4 13.64 10.39 13.64 10.38C13.65 10.37 13.65 10.36 13.65 10.35C13.66 10.34 13.66 10.33 13.66 10.32C13.67 10.31 13.67 10.3 13.67 10.29C13.67 10.28 13.68 10.27 13.68 10.26L13.68 10.23L13.69 10.2L13.69 10.08L13.68 10.06L13.68 10.02C13.68 10.01 13.67 10.01 13.67 10C13.67 9.99 13.67 9.98 13.66 9.97C13.66 9.96 13.66 9.95 13.65 9.94C13.65 9.93 13.65 9.92 13.64 9.91C13.64 9.9 13.63 9.89 13.63 9.88C13.63 9.87 13.62 9.87 13.62 9.86L13.6 9.83C13.6 9.82 13.59 9.81 13.59 9.8C13.58 9.8 13.57 9.79 13.57 9.78C13.56 9.77 13.56 9.76 13.55 9.76C13.54 9.75 13.54 9.74 13.53 9.73C13.52 9.73 13.52 9.72 13.51 9.71C13.5 9.71 13.5 9.7 13.49 9.69C13.48 9.68 13.47 9.68 13.47 9.67C13.46 9.67 13.45 9.66 13.44 9.65C13.43 9.65 13.43 9.64 13.42 9.64C13.41 9.63 13.4 9.62 13.39 9.62L13.37 9.61C13.36 9.6 13.35 9.6 13.34 9.59C13.33 9.59 13.32 9.58 13.31 9.58C13.3 9.58 13.29 9.57 13.28 9.57C13.27 9.57 13.26 9.56 13.25 9.56C13.25 9.56 13.24 9.55 13.23 9.55L13.2 9.55C13.19 9.54 13.18 9.54 13.17 9.54L13.14 9.54C13.13 9.54 13.12 9.53 13.11 9.53L9.78 9.53L9.78 4.22L9.77 4.19L9.77 4.16C9.76 4.15 9.76 4.14 9.76 4.13C9.76 4.12 9.75 4.11 9.75 4.1C9.75 4.09 9.75 4.08 9.74 4.07C9.74 4.06 9.74 4.05 9.73 4.04C9.73 4.03 9.72 4.03 9.72 4.02C9.71 4.01 9.71 4 9.71 3.99L9.69 3.96C9.69 3.96 9.68 3.95 9.68 3.94C9.67 3.93 9.66 3.92 9.66 3.91C9.65 3.91 9.65 3.9 9.64 3.89C9.63 3.88 9.63 3.87 9.62 3.87Z" /></g></g></svg>