<svg xmlns="http://www.w3.org/2000/svg" xmlns:xlink="http://www.w3.org/1999/xlink" width="22" height="22" viewBox="0 0 22 22" fill="none"><defs><rect id="path_0" x="0" y="0" width="22" height="22" /></defs><g opacity="1" transform="translate(0 0)  rotate(0 11 11)"><mask id="bg-mask-0" fill="white"><use xlink:href="#path_0"></use></mask><g mask="url(#bg-mask-0)" ><path id="并集 (轮廓)" fill-rule="evenodd" style="fill:#000000" transform="translate(3.177777777777777 2.1999999999999993)  rotate(0 7.822222222222221 8.799999999999999)" opacity="1" d="M1.47 0L5.01 0C5.82 0 6.48 0.66 6.48 1.47L6.48 16.13C6.48 16.94 5.82 17.6 5.01 17.6L1.47 17.6C0.66 17.6 0 16.94 0 16.13L0 1.47C0 0.66 0.66 0 1.47 0ZM14.18 0C14.99 0 15.64 0.66 15.64 1.47L15.64 16.13C15.64 16.94 14.99 17.6 14.18 17.6L10.63 17.6C9.82 17.6 9.17 16.94 9.17 16.13L9.17 1.47C9.17 0.66 9.82 0 10.63 0L14.18 0ZM5.26 16.13L5.26 1.47C5.26 1.43 5.25 1.4 5.24 1.37C5.22 1.34 5.21 1.32 5.18 1.29C5.16 1.27 5.14 1.25 5.11 1.24C5.08 1.23 5.04 1.22 5.01 1.22L1.47 1.22C1.43 1.22 1.4 1.23 1.37 1.24C1.34 1.25 1.32 1.27 1.29 1.29C1.27 1.32 1.25 1.34 1.24 1.37C1.23 1.4 1.22 1.43 1.22 1.47L1.22 16.13C1.22 16.17 1.23 16.2 1.24 16.23C1.25 16.26 1.27 16.28 1.29 16.31C1.32 16.33 1.34 16.35 1.37 16.36C1.4 16.37 1.43 16.38 1.47 16.38L5.01 16.38C5.04 16.38 5.08 16.37 5.11 16.36C5.14 16.35 5.16 16.33 5.18 16.31C5.21 16.28 5.22 16.26 5.24 16.23C5.25 16.2 5.26 16.17 5.26 16.13ZM10.41 1.37C10.4 1.4 10.39 1.43 10.39 1.47L10.39 16.13C10.39 16.17 10.4 16.2 10.41 16.23C10.42 16.26 10.44 16.28 10.46 16.31C10.48 16.33 10.51 16.35 10.54 16.36C10.57 16.37 10.6 16.38 10.63 16.38L14.18 16.38C14.21 16.38 14.24 16.37 14.27 16.36C14.3 16.35 14.33 16.33 14.35 16.31C14.37 16.28 14.39 16.26 14.4 16.23C14.42 16.2 14.42 16.17 14.42 16.13L14.42 1.47C14.42 1.43 14.42 1.4 14.4 1.37C14.39 1.34 14.37 1.32 14.35 1.29C14.33 1.27 14.3 1.25 14.27 1.24C14.24 1.23 14.21 1.22 14.18 1.22L10.63 1.22C10.6 1.22 10.57 1.23 10.54 1.24C10.51 1.25 10.48 1.27 10.46 1.29C10.44 1.32 10.42 1.34 10.41 1.37Z" /></g></g></svg>