<svg xmlns="http://www.w3.org/2000/svg" xmlns:xlink="http://www.w3.org/1999/xlink" width="22" height="22.000000000000227" viewBox="0 0 22 22.000000000000227" fill="none"><defs><rect id="path_0" x="0" y="0" width="22" height="22.000000000000192" /></defs><g opacity="1" transform="translate(0 0)  rotate(0 11 11.000000000000096)"><mask id="bg-mask-0" fill="white"><use xlink:href="#path_0"></use></mask><g mask="url(#bg-mask-0)" ><path id="并集" fill-rule="evenodd" style="fill:#000000" transform="translate(4.155555555555559 9.77777777777788)  rotate(0 6.844444444444452 1.2222222222222343)" opacity="1" d="M0 1.22C0 1.9 0.55 2.44 1.22 2.44C1.9 2.44 2.44 1.9 2.44 1.22C2.44 0.55 1.9 0 1.22 0C0.55 0 0 0.55 0 1.22ZM8.07 1.22C8.07 1.9 7.52 2.44 6.84 2.44C6.17 2.44 5.62 1.9 5.62 1.22C5.62 0.55 6.17 0 6.84 0C7.52 0 8.07 0.55 8.07 1.22ZM13.69 1.22C13.69 0.55 13.14 0 12.47 0C11.79 0 11.24 0.55 11.24 1.22C11.24 1.9 11.79 2.44 12.47 2.44C13.14 2.44 13.69 1.9 13.69 1.22Z" /></g></g></svg>