<svg xmlns="http://www.w3.org/2000/svg" xmlns:xlink="http://www.w3.org/1999/xlink" width="22" height="22" viewBox="0 0 22 22" fill="none"><defs><rect id="path_0" x="0" y="0" width="22" height="22" /></defs><g opacity="1" transform="translate(0 0)  rotate(0 11 11)"><mask id="bg-mask-0" fill="white"><use xlink:href="#path_0"></use></mask><g mask="url(#bg-mask-0)" ><path id="直线 1 (轮廓)" fill-rule="evenodd" style="fill:#000000" transform="translate(2.322222222222223 10.388827777777777)  rotate(0 8.677777777777777 0.6111722222222222)" opacity="1" d="M17.06,1.14C17.07,1.13 17.08,1.12 17.08,1.12C17.09,1.11 17.1,1.11 17.11,1.1C17.12,1.1 17.12,1.09 17.13,1.08C17.14,1.08 17.15,1.07 17.15,1.06C17.16,1.06 17.17,1.05 17.18,1.04C17.18,1.04 17.19,1.03 17.2,1.02C17.2,1.01 17.21,1.01 17.22,1C17.22,0.99 17.23,0.98 17.24,0.98C17.24,0.97 17.25,0.96 17.25,0.95C17.26,0.94 17.26,0.93 17.27,0.93C17.27,0.92 17.28,0.91 17.28,0.9C17.29,0.89 17.29,0.88 17.3,0.87C17.3,0.86 17.31,0.85 17.31,0.84C17.31,0.84 17.32,0.83 17.32,0.82C17.32,0.81 17.33,0.8 17.33,0.79C17.33,0.78 17.33,0.77 17.34,0.76C17.34,0.75 17.34,0.74 17.34,0.73C17.35,0.72 17.35,0.71 17.35,0.7C17.35,0.69 17.35,0.68 17.35,0.67C17.35,0.66 17.35,0.65 17.35,0.64C17.36,0.63 17.36,0.62 17.36,0.61C17.36,0.59 17.35,0.57 17.35,0.56C17.35,0.52 17.34,0.49 17.33,0.45C17.33,0.42 17.31,0.38 17.3,0.35C17.28,0.32 17.27,0.29 17.24,0.26C17.22,0.23 17.2,0.2 17.18,0.18C17.16,0.16 17.15,0.15 17.13,0.14C17.12,0.13 17.1,0.11 17.08,0.1C17.07,0.09 17.05,0.08 17.03,0.07C17.01,0.06 17,0.05 16.98,0.05C16.96,0.04 16.94,0.03 16.92,0.03C16.9,0.02 16.88,0.02 16.86,0.01C16.84,0.01 16.82,0 16.8,0C16.78,0 16.76,0 16.74,0L0.61,0C0.6,0 0.59,0 0.58,0C0.57,0 0.56,0 0.55,0C0.54,0 0.53,0.01 0.52,0.01C0.51,0.01 0.5,0.01 0.49,0.01C0.48,0.01 0.47,0.02 0.46,0.02C0.45,0.02 0.44,0.02 0.43,0.03C0.42,0.03 0.41,0.03 0.41,0.04C0.4,0.04 0.39,0.04 0.38,0.05C0.37,0.05 0.36,0.05 0.35,0.06C0.34,0.06 0.33,0.07 0.32,0.07C0.31,0.08 0.31,0.08 0.3,0.09C0.29,0.09 0.28,0.1 0.27,0.1C0.26,0.11 0.26,0.11 0.25,0.12C0.24,0.13 0.23,0.13 0.22,0.14C0.22,0.15 0.21,0.15 0.2,0.16C0.19,0.17 0.19,0.17 0.18,0.18C0.17,0.19 0.17,0.19 0.16,0.2C0.15,0.21 0.15,0.22 0.14,0.22C0.13,0.23 0.13,0.24 0.12,0.25C0.11,0.26 0.11,0.26 0.1,0.27C0.1,0.28 0.09,0.29 0.09,0.3C0.08,0.31 0.08,0.31 0.07,0.32C0.07,0.33 0.06,0.34 0.06,0.35C0.05,0.36 0.05,0.37 0.05,0.38C0.04,0.39 0.04,0.4 0.04,0.41C0.03,0.41 0.03,0.42 0.03,0.43C0.02,0.44 0.02,0.45 0.02,0.46C0.02,0.47 0.01,0.48 0.01,0.49C0.01,0.5 0.01,0.51 0.01,0.52C0.01,0.53 0,0.54 0,0.55C0,0.56 0,0.57 0,0.58C0,0.59 0,0.6 0,0.61L0,0.61L0,0.61L0,0.61C0,0.62 0,0.63 0,0.64C0,0.65 0,0.66 0,0.67C0,0.68 0.01,0.69 0.01,0.7C0.01,0.71 0.01,0.72 0.01,0.73C0.01,0.74 0.02,0.75 0.02,0.76C0.02,0.77 0.02,0.78 0.03,0.79C0.03,0.8 0.03,0.81 0.04,0.82C0.04,0.83 0.04,0.84 0.05,0.85C0.05,0.86 0.05,0.86 0.06,0.87C0.06,0.88 0.07,0.89 0.07,0.9C0.08,0.91 0.08,0.92 0.09,0.93C0.09,0.93 0.1,0.94 0.1,0.95C0.11,0.96 0.11,0.97 0.12,0.98C0.13,0.98 0.13,0.99 0.14,1C0.15,1.01 0.15,1.01 0.16,1.02C0.17,1.03 0.17,1.04 0.18,1.04C0.19,1.05 0.19,1.06 0.2,1.06C0.21,1.07 0.22,1.08 0.22,1.08C0.23,1.09 0.24,1.1 0.25,1.1C0.26,1.11 0.26,1.11 0.27,1.12C0.28,1.13 0.29,1.13 0.3,1.14C0.31,1.14 0.31,1.15 0.32,1.15C0.33,1.16 0.34,1.16 0.35,1.16C0.36,1.17 0.37,1.17 0.38,1.18C0.39,1.18 0.4,1.18 0.41,1.19C0.41,1.19 0.42,1.19 0.43,1.2C0.44,1.2 0.45,1.2 0.46,1.2C0.47,1.21 0.48,1.21 0.49,1.21C0.5,1.21 0.51,1.21 0.52,1.22C0.53,1.22 0.54,1.22 0.55,1.22C0.56,1.22 0.57,1.22 0.58,1.22C0.59,1.22 0.6,1.22 0.61,1.22L0.61,1.22L16.74,1.22C16.75,1.22 16.76,1.22 16.77,1.22C16.78,1.22 16.79,1.22 16.8,1.22C16.81,1.22 16.82,1.22 16.83,1.22C16.84,1.21 16.85,1.21 16.86,1.21C16.87,1.21 16.88,1.21 16.89,1.2C16.9,1.2 16.91,1.2 16.92,1.2C16.93,1.19 16.94,1.19 16.95,1.19C16.96,1.18 16.97,1.18 16.98,1.18C16.99,1.17 17,1.17 17.01,1.16C17.01,1.16 17.02,1.15 17.03,1.15C17.04,1.15 17.05,1.14 17.06,1.14Z " /></g></g></svg>