<svg xmlns="http://www.w3.org/2000/svg" xmlns:xlink="http://www.w3.org/1999/xlink" width="22" height="22" viewBox="0 0 22 22" fill="none"><defs><rect id="path_0" x="0" y="0" width="22" height="22" /></defs><g opacity="1" transform="translate(0 0)  rotate(0 11 11)"><mask id="bg-mask-0" fill="white"><use xlink:href="#path_0"></use></mask><g mask="url(#bg-mask-0)" ><path id="并集" fill-rule="evenodd" style="fill:#000000" transform="translate(2.6277777777777658 1.6500000000000057)  rotate(0 8.372222222222222 9.35)" opacity="1" d="M0 1.47C0 0.66 0.66 0 1.47 0L15.28 0C16.09 0 16.74 0.66 16.74 1.47L16.74 4.28C16.74 5.09 16.09 5.74 15.28 5.74L1.47 5.74C0.66 5.74 0 5.09 0 4.28L0 1.47Z M15.52 4.28C15.52 4.31 15.52 4.34 15.5 4.37C15.49 4.4 15.47 4.43 15.45 4.45C15.43 4.47 15.4 4.49 15.37 4.5C15.34 4.52 15.31 4.52 15.28 4.52L1.47 4.52C1.43 4.52 1.4 4.52 1.37 4.5C1.34 4.49 1.32 4.47 1.29 4.45C1.27 4.43 1.25 4.4 1.24 4.37C1.23 4.34 1.22 4.31 1.22 4.28L1.22 1.47C1.22 1.43 1.23 1.4 1.24 1.37C1.25 1.34 1.27 1.32 1.29 1.29C1.32 1.27 1.34 1.25 1.37 1.24C1.4 1.23 1.43 1.22 1.47 1.22L15.28 1.22C15.31 1.22 15.34 1.23 15.37 1.24C15.4 1.25 15.43 1.27 15.45 1.29C15.47 1.32 15.49 1.34 15.5 1.37C15.52 1.4 15.52 1.43 15.52 1.47L15.52 4.28Z M12.8333 2.87444C12.8333 2.33444 13.2733 1.89444 13.8133 1.89444C14.3533 1.89444 14.7933 2.33444 14.7933 2.87444C14.7933 3.41444 14.3533 3.85444 13.8133 3.85444C13.2733 3.85444 12.8333 3.41444 12.8333 2.87444Z M1.47 12.2178C0.66 12.2178 0 11.5678 0 10.7578L0 7.94778C0 7.13778 0.66 6.47778 1.47 6.47778L15.28 6.47778C16.09 6.47778 16.74 7.13778 16.74 7.94778L16.74 10.7578C16.74 11.5678 16.09 12.2178 15.28 12.2178L1.47 12.2178Z M1.47 7.69778L15.28 7.69778C15.31 7.69778 15.34 7.70778 15.37 7.71778C15.4 7.72778 15.43 7.74778 15.45 7.76778C15.47 7.79778 15.49 7.81778 15.5 7.84778C15.52 7.87778 15.52 7.90778 15.52 7.94778L15.52 10.7578C15.52 10.7878 15.52 10.8178 15.5 10.8478C15.49 10.8778 15.47 10.9078 15.45 10.9278C15.43 10.9478 15.4 10.9678 15.37 10.9778C15.34 10.9978 15.31 10.9978 15.28 10.9978L1.47 10.9978C1.43 10.9978 1.4 10.9978 1.37 10.9778C1.34 10.9678 1.32 10.9478 1.29 10.9278C1.27 10.9078 1.25 10.8778 1.24 10.8478C1.23 10.8178 1.22 10.7878 1.22 10.7578L1.22 7.94778C1.22 7.90778 1.23 7.87778 1.24 7.84778C1.25 7.81778 1.27 7.79778 1.29 7.76778C1.32 7.74778 1.34 7.72778 1.37 7.71778C1.4 7.70778 1.43 7.69778 1.47 7.69778Z M13.8133 8.37222C13.2733 8.37222 12.8333 8.81222 12.8333 9.35222C12.8333 9.89222 13.2733 10.3322 13.8133 10.3322C14.3533 10.3322 14.7933 9.89222 14.7933 9.35222C14.7933 8.81222 14.3533 8.37222 13.8133 8.37222Z M16.74 17.2356C16.74 18.0456 16.09 18.6956 15.28 18.6956L1.47 18.6956C0.66 18.6956 0 18.0456 0 17.2356L0 14.4256C0 13.6156 0.66 12.9556 1.47 12.9556L15.28 12.9556C16.09 12.9556 16.74 13.6156 16.74 14.4256L16.74 17.2356Z M15.52 14.4256L15.52 17.2356C15.52 17.2656 15.52 17.2956 15.5 17.3256C15.49 17.3556 15.47 17.3856 15.45 17.4056C15.43 17.4256 15.4 17.4456 15.37 17.4556C15.34 17.4756 15.31 17.4756 15.28 17.4756L1.47 17.4756C1.43 17.4756 1.4 17.4756 1.37 17.4556C1.34 17.4456 1.32 17.4256 1.29 17.4056C1.27 17.3856 1.25 17.3556 1.24 17.3256C1.23 17.2956 1.22 17.2656 1.22 17.2356L1.22 14.4256C1.22 14.3856 1.23 14.3556 1.24 14.3256C1.25 14.2956 1.27 14.2756 1.29 14.2456C1.32 14.2256 1.34 14.2056 1.37 14.1956C1.4 14.1856 1.43 14.1756 1.47 14.1756L15.28 14.1756C15.31 14.1756 15.34 14.1856 15.37 14.1956C15.4 14.2056 15.43 14.2256 15.45 14.2456C15.47 14.2756 15.49 14.2956 15.5 14.3256C15.52 14.3556 15.52 14.3856 15.52 14.4256Z M13.8133 14.6667C13.2733 14.6667 12.8333 15.1067 12.8333 15.6467C12.8333 16.1867 13.2733 16.6267 13.8133 16.6267C14.3533 16.6267 14.7933 16.1867 14.7933 15.6467C14.7933 15.1067 14.3533 14.6667 13.8133 14.6667Z " /></g></g></svg>