<svg xmlns="http://www.w3.org/2000/svg" xmlns:xlink="http://www.w3.org/1999/xlink" width="22" height="22" viewBox="0 0 22 22" fill="none"><defs><rect id="path_0" x="0" y="0" width="22" height="22" /></defs><g opacity="1" transform="translate(0 0)  rotate(0 11 11)"><mask id="bg-mask-0" fill="white"><use xlink:href="#path_0"></use></mask><g mask="url(#bg-mask-0)" ><path id="并集" fill-rule="evenodd" style="fill:#000000" transform="translate(2.503808233669516 2.34822180469689)  rotate(0 9.212443118625217 9.235895962185328)" opacity="1" d="M1.6 0.01C1.17 -0.03 0.74 0.12 0.44 0.43C0.13 0.73 -0.03 1.15 0 1.59L0.66 9.62C0.69 10.04 0.9 10.41 1.23 10.66L8.53 18.04C9.1 18.61 10.03 18.62 10.61 18.05L17.99 10.73C18.57 10.16 18.57 9.23 18 8.66L10.59 1.18C10.42 1 10.21 0.88 9.98 0.81C9.87 0.77 9.75 0.74 9.62 0.73L1.6 0.01ZM17.18 9.78C17.17 9.81 17.15 9.84 17.13 9.86L9.75 17.18C9.72 17.2 9.7 17.22 9.67 17.23C9.64 17.24 9.61 17.25 9.57 17.25C9.54 17.25 9.51 17.24 9.48 17.23C9.45 17.22 9.43 17.2 9.4 17.18L2.1 9.8C2.06 9.76 2.01 9.73 1.97 9.69C1.96 9.68 1.94 9.67 1.93 9.66C1.92 9.64 1.91 9.63 1.9 9.62C1.89 9.59 1.88 9.55 1.87 9.52L1.22 1.49C1.22 1.45 1.22 1.42 1.24 1.38C1.25 1.35 1.27 1.32 1.29 1.29C1.32 1.27 1.35 1.25 1.38 1.24C1.42 1.22 1.45 1.22 1.49 1.22L9.51 1.95C9.53 1.95 9.55 1.96 9.57 1.96C9.59 1.97 9.61 1.97 9.62 1.98C9.66 1.99 9.69 2.01 9.72 2.04L17.13 9.52C17.16 9.54 17.17 9.57 17.19 9.6C17.2 9.63 17.2 9.66 17.2 9.69C17.2 9.72 17.2 9.75 17.18 9.78ZM6.91 4.05C7.67 4.82 7.66 6.06 6.89 6.82C6.13 7.58 4.89 7.57 4.13 6.8C3.37 6.04 3.37 4.8 4.14 4.04C4.91 3.28 6.15 3.28 6.91 4.05ZM6.2 5.16C6.18 5.11 6.16 5.07 6.13 5.03C6.11 4.99 6.07 4.95 6.04 4.91C6 4.88 5.96 4.84 5.92 4.82C5.88 4.79 5.84 4.77 5.8 4.75C5.75 4.73 5.71 4.72 5.66 4.71C5.65577 4.70916 5.65162 4.70831 5.64753 4.70748C5.60317 4.69845 5.56577 4.69085 5.52 4.7C5.47423 4.69085 5.43683 4.69845 5.39247 4.70748C5.38838 4.70831 5.38423 4.70916 5.38 4.71C5.33 4.72 5.29 4.73 5.24 4.75C5.2 4.76 5.16 4.79 5.12 4.81C5.08 4.84 5.04 4.87 5 4.91C4.96 4.94 4.93 4.98 4.91 5.02C4.88 5.06 4.86 5.11 4.84 5.15C4.82 5.19 4.81 5.24 4.8 5.28C4.79 5.33 4.78 5.38 4.78 5.43C4.78 5.47 4.79 5.52 4.8 5.57C4.81 5.61 4.82 5.66 4.84 5.7C4.85 5.75 4.88 5.79 4.9 5.83C4.93 5.87 4.96 5.91 5 5.94C5.03 5.98 5.07 6.01 5.11 6.04C5.15 6.07 5.19 6.09 5.24 6.11C5.28 6.12 5.33 6.14 5.37 6.15C5.42 6.16 5.47 6.16 5.51 6.16C5.56 6.16 5.61 6.16 5.65 6.15C5.7 6.14 5.75 6.13 5.79 6.11C5.83 6.09 5.88 6.07 5.92 6.04C5.96 6.02 6 5.99 6.03 5.95C6.07 5.91 6.1 5.88 6.13 5.83C6.16 5.79 6.18 5.75 6.2 5.71C6.21 5.66 6.23 5.62 6.24 5.57C6.25 5.53 6.25 5.48 6.25 5.43C6.25 5.38 6.25 5.34 6.24 5.29C6.23 5.24 6.22 5.2 6.2 5.16Z" /></g></g></svg>