<svg xmlns="http://www.w3.org/2000/svg" xmlns:xlink="http://www.w3.org/1999/xlink" width="22" height="22.000000000000455" viewBox="0 0 22 22.000000000000455" fill="none"><defs><rect id="path_0" x="0" y="0" width="22" height="22.000000000000394" /></defs><g opacity="1" transform="translate(0 0)  rotate(0 11 11.000000000000197)"><mask id="bg-mask-0" fill="white"><use xlink:href="#path_0"></use></mask><g mask="url(#bg-mask-0)" ><path id="并集" fill-rule="evenodd" style="fill:#000000" transform="translate(1.5950000000000077 1.515554875247725)  rotate(0 9.224721103244358 9.283304256863255)" opacity="1" d="M1.68 5.1C1.69 5.09 1.69 5.08 1.7 5.07C1.71 5.07 1.71 5.06 1.72 5.05C1.72 5.04 1.73 5.03 1.73 5.03C1.74 5.02 1.75 5.01 1.75 5L1.77 4.97C1.77 4.97 1.77 4.96 1.78 4.95C1.78 4.94 1.79 4.93 1.79 4.92C1.79 4.91 1.8 4.9 1.8 4.89C1.81 4.88 1.81 4.87 1.81 4.86C1.81 4.86 1.82 4.85 1.82 4.84L1.82 4.81C1.83 4.8 1.83 4.79 1.83 4.78L1.83 4.75C1.83 4.74 1.84 4.73 1.84 4.72L1.84 3.18L10.36 3.18L10.36 4.78C10.36 4.79 10.37 4.8 10.37 4.81L10.38 4.84L10.38 4.86C10.39 4.87 10.39 4.88 10.39 4.89C10.4 4.9 10.4 4.91 10.4 4.92C10.41 4.93 10.41 4.94 10.42 4.95C10.42 4.96 10.42 4.97 10.43 4.97L10.44 5C10.45 5.01 10.45 5.02 10.46 5.03C10.47 5.03 10.47 5.04 10.48 5.05C10.48 5.06 10.49 5.07 10.5 5.07C10.5 5.08 10.51 5.09 10.51 5.1C10.52 5.1 10.53 5.11 10.54 5.12C10.54 5.13 10.55 5.13 10.56 5.14L10.58 5.16C10.59 5.17 10.6 5.17 10.6 5.18C10.61 5.18 10.62 5.19 10.63 5.19L10.65 5.21L10.68 5.23C10.69 5.23 10.7 5.24 10.71 5.24C10.72 5.24 10.73 5.25 10.73 5.25C10.74 5.25 10.75 5.26 10.76 5.26C10.77 5.27 10.78 5.27 10.79 5.27C10.8 5.27 10.81 5.28 10.82 5.28L10.85 5.29L10.88 5.29C10.89 5.29 10.9 5.29 10.91 5.3L11.03 5.3C11.05 5.29 11.07 5.29 11.09 5.29C11.11 5.28 11.13 5.28 11.15 5.27C11.17 5.26 11.19 5.26 11.21 5.25C11.22 5.24 11.24 5.23 11.26 5.22C11.28 5.21 11.3 5.2 11.31 5.19C11.33 5.18 11.35 5.17 11.36 5.15C11.38 5.14 11.39 5.13 11.41 5.11C11.43 5.08 11.46 5.05 11.48 5.02C11.5 4.99 11.52 4.95 11.53 4.92C11.55 4.88 11.56 4.84 11.57 4.8C11.58 4.76 11.58 4.73 11.58 4.69L11.58 3.06C11.58 2.99 11.57 2.91 11.56 2.84C11.54 2.77 11.52 2.7 11.49 2.63C11.46 2.57 11.43 2.5 11.39 2.44C11.35 2.39 11.31 2.33 11.26 2.28C11.21 2.23 11.15 2.19 11.1 2.15C11.04 2.11 10.97 2.08 10.91 2.05C10.84 2.02 10.77 2 10.7 1.98C10.63 1.97 10.55 1.96 10.48 1.96L6.45 1.96L6.44 1.94L6.44 1.91C6.44 1.9 6.43 1.89 6.43 1.88C6.43 1.87 6.43 1.86 6.42 1.85C6.42 1.84 6.42 1.83 6.41 1.82C6.41 1.81 6.41 1.8 6.4 1.79C6.4 1.78 6.39 1.77 6.39 1.76L6.39 1.77L5.69 0.34C5.67 0.3 5.65 0.27 5.63 0.24L5.54 0.15C5.51 0.12 5.48 0.1 5.45 0.08C5.41 0.06 5.38 0.05 5.34 0.03C5.32 0.03 5.3 0.02 5.28 0.02L5.22 0L5.1 0C5.08 0 5.06 0 5.04 0.01C5.02 0.01 5 0.02 4.98 0.02C4.97 0.03 4.95 0.03 4.93 0.04C4.91 0.05 4.89 0.05 4.87 0.06C4.83 0.08 4.8 0.1 4.77 0.13C4.74 0.15 4.71 0.18 4.68 0.21C4.66 0.24 4.63 0.27 4.61 0.31C4.59 0.34 4.58 0.38 4.56 0.41C4.56 0.43 4.55 0.45 4.55 0.47L4.54 0.53C4.53 0.55 4.53 0.57 4.53 0.59L4.53 0.65C4.53 0.67 4.54 0.69 4.54 0.71C4.54 0.73 4.55 0.75 4.55 0.77C4.56 0.79 4.56 0.81 4.57 0.83C4.58 0.84 4.58 0.86 4.59 0.88L5.12 1.96L1.71 1.96C1.64 1.96 1.57 1.97 1.49 1.98C1.42 2 1.35 2.02 1.29 2.05C1.22 2.08 1.16 2.11 1.1 2.15C1.04 2.19 0.99 2.23 0.94 2.28C0.89 2.33 0.84 2.39 0.8 2.44C0.76 2.5 0.73 2.57 0.7 2.63C0.67 2.7 0.65 2.77 0.64 2.84C0.62 2.91 0.61 2.99 0.61 3.06L0.61 4.69C0.61 4.71 0.62 4.73 0.62 4.75C0.62 4.77 0.62 4.79 0.63 4.81C0.63 4.83 0.64 4.85 0.64 4.86C0.65 4.88 0.65 4.9 0.66 4.92C0.67 4.94 0.68 4.96 0.69 4.97L0.72 5.03C0.73 5.04 0.74 5.06 0.75 5.07C0.77 5.09 0.78 5.1 0.79 5.12C0.81 5.13 0.82 5.15 0.84 5.16C0.85 5.17 0.87 5.18 0.89 5.19C0.9 5.21 0.92 5.22 0.94 5.23C0.96 5.24 0.97 5.24 0.99 5.25C1.01 5.26 1.03 5.27 1.05 5.27C1.07 5.28 1.09 5.28 1.11 5.29C1.13 5.29 1.15 5.29 1.17 5.3L1.29 5.3L1.32 5.29L1.35 5.29C1.36 5.28 1.37 5.28 1.37 5.28L1.4 5.27C1.41 5.27 1.42 5.27 1.43 5.26C1.44 5.26 1.45 5.25 1.46 5.25C1.47 5.25 1.48 5.24 1.49 5.24C1.5 5.24 1.5 5.23 1.51 5.23L1.54 5.21C1.55 5.21 1.56 5.2 1.57 5.19C1.57 5.19 1.58 5.18 1.59 5.18C1.6 5.17 1.61 5.17 1.61 5.16C1.62 5.15 1.63 5.15 1.64 5.14C1.64 5.13 1.65 5.13 1.66 5.12C1.66 5.11 1.67 5.1 1.68 5.1ZM3.25 4.39C3.24 4.4 3.24 4.41 3.23 4.42C3.23 4.42 3.22 4.43 3.22 4.44L3.2 4.47C3.2 4.48 3.19 4.48 3.19 4.49C3.18 4.5 3.18 4.51 3.18 4.52C3.17 4.53 3.17 4.54 3.16 4.55L3.16 4.58C3.15 4.59 3.15 4.6 3.15 4.61C3.14 4.62 3.14 4.63 3.14 4.64L3.14 4.67L3.13 4.7L3.13 4.81L3.14 4.84L3.14 4.87C3.14 4.88 3.14 4.89 3.15 4.9C3.15 4.91 3.15 4.92 3.16 4.93L3.16 4.96C3.17 4.97 3.17 4.98 3.18 4.99C3.18 5 3.18 5.01 3.19 5.02C3.19 5.03 3.2 5.03 3.2 5.04L3.22 5.07C3.22 5.08 3.23 5.09 3.23 5.09C3.24 5.1 3.24 5.11 3.25 5.12C3.25 5.13 3.26 5.14 3.27 5.14C3.27 5.15 3.28 5.16 3.29 5.17L3.33 5.21C3.34 5.21 3.34 5.22 3.35 5.23C3.36 5.23 3.37 5.24 3.38 5.25C3.38 5.25 3.39 5.26 3.4 5.26C3.41 5.27 3.42 5.27 3.43 5.28L3.45 5.29C3.46 5.3 3.47 5.3 3.48 5.31C3.49 5.31 3.5 5.32 3.51 5.32C3.52 5.32 3.53 5.33 3.53 5.33C3.54 5.33 3.55 5.34 3.56 5.34C3.57 5.34 3.58 5.35 3.59 5.35L3.62 5.35C3.63 5.36 3.64 5.36 3.65 5.36L3.71 5.36C3.72 5.37 3.73 5.37 3.74 5.37L7.66 5.37L6.21 6.99L0.58 6.99C0.57 6.99 0.56 7 0.55 7L0.52 7C0.51 7 0.5 7 0.49 7.01L0.46 7.01C0.45 7.01 0.44 7.02 0.43 7.02C0.42 7.02 0.41 7.03 0.41 7.03C0.4 7.03 0.39 7.04 0.38 7.04C0.37 7.04 0.36 7.05 0.35 7.05C0.34 7.06 0.33 7.06 0.32 7.07L0.3 7.08C0.29 7.09 0.28 7.09 0.27 7.1C0.26 7.1 0.26 7.11 0.25 7.11C0.24 7.12 0.23 7.13 0.22 7.13C0.22 7.14 0.21 7.15 0.2 7.15C0.19 7.16 0.19 7.17 0.18 7.17C0.17 7.18 0.17 7.19 0.16 7.19C0.15 7.2 0.15 7.21 0.14 7.22C0.13 7.22 0.13 7.23 0.12 7.24C0.11 7.25 0.11 7.26 0.1 7.26C0.1 7.27 0.09 7.28 0.09 7.29L0.07 7.32C0.07 7.33 0.06 7.33 0.06 7.34C0.05 7.35 0.05 7.36 0.05 7.37C0.04 7.38 0.04 7.39 0.04 7.4C0.03 7.41 0.03 7.42 0.03 7.43C0.02 7.44 0.02 7.45 0.02 7.46C0.02 7.47 0.01 7.48 0.01 7.48L0.01 7.52L0 7.54L0 7.66L0.01 7.69L0.01 7.72C0.01 7.73 0.02 7.74 0.02 7.75C0.02 7.76 0.02 7.77 0.03 7.78C0.03 7.79 0.03 7.8 0.04 7.81C0.04 7.82 0.04 7.83 0.05 7.84C0.05 7.85 0.05 7.86 0.06 7.87C0.06 7.87 0.07 7.88 0.07 7.89L0.09 7.92C0.09 7.93 0.1 7.94 0.1 7.94C0.11 7.95 0.11 7.96 0.12 7.97L0.14 7.99C0.15 8 0.15 8.01 0.16 8.02C0.17 8.02 0.17 8.03 0.18 8.04C0.19 8.04 0.19 8.05 0.2 8.06C0.21 8.06 0.22 8.07 0.22 8.08C0.23 8.08 0.24 8.09 0.25 8.1C0.26 8.1 0.26 8.11 0.27 8.11C0.28 8.12 0.29 8.12 0.3 8.13L0.32 8.14C0.33 8.15 0.34 8.15 0.35 8.16C0.36 8.16 0.37 8.17 0.38 8.17C0.39 8.17 0.4 8.18 0.41 8.18C0.41 8.18 0.42 8.19 0.43 8.19C0.44 8.19 0.45 8.19 0.46 8.2L0.49 8.2C0.5 8.21 0.51 8.21 0.52 8.21L0.58 8.21C0.59 8.22 0.6 8.22 0.61 8.22L5.81 8.22L5.81 10.61L5.08 10.39C5.07 10.38 5.05 10.37 5.03 10.37C5.01 10.37 4.99 10.36 4.97 10.36L4.85 10.36C4.83 10.36 4.81 10.37 4.79 10.37C4.77 10.37 4.75 10.38 4.73 10.38C4.71 10.39 4.69 10.4 4.67 10.4C4.65 10.41 4.64 10.42 4.62 10.43C4.6 10.44 4.58 10.45 4.57 10.46C4.55 10.47 4.53 10.48 4.52 10.49C4.5 10.51 4.49 10.52 4.47 10.53L4.43 10.58C4.42 10.59 4.41 10.61 4.4 10.63C4.39 10.64 4.38 10.66 4.37 10.68C4.36 10.7 4.35 10.71 4.34 10.73C4.33 10.75 4.33 10.77 4.32 10.79C4.31 10.81 4.31 10.83 4.3 10.85L4.3 10.92C4.29 10.94 4.29 10.96 4.29 10.98C4.29 11.01 4.3 11.03 4.3 11.05C4.3 11.07 4.3 11.09 4.31 11.11C4.31 11.14 4.32 11.16 4.33 11.18C4.34 11.2 4.35 11.22 4.35 11.24C4.36 11.26 4.38 11.28 4.39 11.3C4.41 11.33 4.43 11.36 4.45 11.38L4.53 11.46C4.56 11.48 4.59 11.5 4.62 11.51C4.66 11.53 4.69 11.54 4.72 11.55L5.61 11.83C5.69 11.85 5.78 11.87 5.86 11.87C5.95 11.88 6.03 11.88 6.12 11.86C6.2 11.85 6.28 11.82 6.36 11.79C6.44 11.76 6.52 11.71 6.59 11.66C6.66 11.61 6.72 11.55 6.78 11.49C6.83 11.42 6.88 11.35 6.92 11.27C6.96 11.2 6.99 11.12 7 11.03C7.03 10.95 7.04 10.86 7.04 10.78L7.04 8.22L10.76 8.22C10.77 8.22 10.78 8.22 10.79 8.21L10.84 8.21C10.85 8.21 10.87 8.21 10.88 8.2L10.9 8.2C10.91 8.19 10.92 8.19 10.93 8.19C10.94 8.19 10.95 8.18 10.96 8.18C10.97 8.18 10.98 8.17 10.99 8.17C11 8.17 11.01 8.16 11.02 8.16L11.04 8.14L11.07 8.13C11.08 8.12 11.09 8.12 11.1 8.11C11.1 8.11 11.11 8.1 11.12 8.1L11.14 8.08C11.15 8.07 11.16 8.06 11.17 8.06C11.17 8.05 11.18 8.04 11.19 8.04C11.19 8.03 11.2 8.02 11.21 8.02C11.22 8.01 11.22 8 11.23 7.99C11.23 7.98 11.24 7.98 11.25 7.97C11.25 7.96 11.26 7.95 11.26 7.94C11.27 7.94 11.28 7.93 11.28 7.92L11.29 7.89C11.3 7.88 11.3 7.87 11.31 7.87C11.31 7.86 11.32 7.85 11.32 7.84C11.32 7.83 11.33 7.82 11.33 7.81C11.33 7.8 11.34 7.79 11.34 7.78C11.34 7.77 11.35 7.76 11.35 7.75L11.35 7.72C11.36 7.71 11.36 7.7 11.36 7.69L11.36 7.66C11.36 7.65 11.37 7.64 11.37 7.64L11.37 7.57C11.37 7.56 11.36 7.55 11.36 7.54L11.36 7.52C11.36 7.51 11.36 7.49 11.35 7.48L11.35 7.46C11.35 7.45 11.34 7.44 11.34 7.43C11.34 7.42 11.33 7.41 11.33 7.4C11.33 7.39 11.32 7.38 11.32 7.37C11.32 7.36 11.31 7.35 11.31 7.34L11.29 7.32L11.28 7.29C11.28 7.28 11.27 7.27 11.26 7.26C11.26 7.26 11.25 7.25 11.25 7.24L11.23 7.22C11.22 7.21 11.22 7.2 11.21 7.19C11.2 7.19 11.19 7.18 11.19 7.17C11.18 7.17 11.17 7.16 11.17 7.15C11.16 7.15 11.15 7.14 11.14 7.13L11.12 7.11C11.11 7.11 11.1 7.1 11.1 7.1C11.09 7.09 11.08 7.09 11.07 7.08L11.04 7.07L11.02 7.05C11.01 7.05 11 7.04 10.99 7.04C10.98 7.04 10.97 7.03 10.96 7.03C10.95 7.03 10.94 7.02 10.93 7.02C10.92 7.02 10.91 7.01 10.9 7.01L10.88 7.01C10.87 7 10.85 7 10.84 7L10.82 7C10.81 7 10.8 6.99 10.79 6.99L7.85 6.99L9.48 5.16L9.54 5.07C9.56 5.04 9.58 5.01 9.59 4.97C9.6 4.94 9.61 4.9 9.62 4.87C9.63 4.83 9.63 4.79 9.63 4.76L9.63 4.67C9.62 4.66 9.62 4.65 9.62 4.64C9.62 4.63 9.62 4.62 9.61 4.61C9.61 4.6 9.61 4.59 9.6 4.58L9.6 4.55C9.59 4.54 9.59 4.53 9.58 4.52C9.58 4.51 9.58 4.5 9.57 4.49C9.57 4.48 9.56 4.48 9.56 4.47L9.54 4.44C9.54 4.43 9.53 4.42 9.53 4.42C9.52 4.41 9.52 4.4 9.51 4.39C9.51 4.38 9.5 4.37 9.49 4.37C9.49 4.36 9.48 4.35 9.47 4.34L9.45 4.32L9.43 4.3C9.42 4.3 9.42 4.29 9.41 4.28C9.4 4.28 9.39 4.27 9.38 4.26C9.38 4.26 9.37 4.25 9.36 4.25C9.35 4.24 9.34 4.24 9.33 4.23L9.31 4.22C9.3 4.21 9.29 4.21 9.28 4.2C9.27 4.2 9.26 4.19 9.25 4.19C9.25 4.19 9.24 4.18 9.23 4.18C9.22 4.18 9.21 4.17 9.2 4.17C9.19 4.17 9.18 4.16 9.17 4.16L9.14 4.16C9.13 4.15 9.12 4.15 9.11 4.15L9.05 4.15C9.04 4.14 9.03 4.14 9.02 4.14L3.74 4.14C3.73 4.14 3.72 4.14 3.71 4.15L3.65 4.15C3.64 4.15 3.63 4.15 3.62 4.16L3.59 4.16C3.58 4.16 3.57 4.17 3.56 4.17C3.55 4.17 3.54 4.18 3.53 4.18C3.53 4.18 3.52 4.19 3.51 4.19C3.5 4.19 3.49 4.2 3.48 4.2C3.47 4.21 3.46 4.21 3.45 4.22L3.43 4.23C3.42 4.24 3.41 4.24 3.4 4.25C3.39 4.25 3.38 4.26 3.38 4.26C3.37 4.27 3.36 4.28 3.35 4.28C3.34 4.29 3.34 4.3 3.33 4.3L3.29 4.34C3.28 4.35 3.27 4.36 3.27 4.37C3.26 4.37 3.25 4.38 3.25 4.39ZM17.35 18.33C17.35 18.32 17.34 18.31 17.34 18.31C17.33 18.3 17.33 18.29 17.32 18.28L17.31 18.25C17.3 18.25 17.3 18.24 17.29 18.23C17.29 18.22 17.28 18.21 17.28 18.2C17.27 18.19 17.27 18.18 17.27 18.17C17.26 18.16 17.26 18.15 17.26 18.14C17.25 18.14 17.25 18.13 17.25 18.12L16.38 14.91L11.55 14.91L10.47 18.15C10.47 18.17 10.46 18.19 10.45 18.2C10.44 18.22 10.44 18.24 10.43 18.26C10.42 18.28 10.4 18.29 10.39 18.31C10.38 18.32 10.37 18.34 10.36 18.36C10.34 18.37 10.33 18.39 10.31 18.4C10.3 18.41 10.29 18.43 10.27 18.44C10.25 18.45 10.24 18.46 10.22 18.47C10.2 18.48 10.19 18.49 10.17 18.5L10.11 18.53C10.09 18.53 10.07 18.54 10.06 18.54C10.04 18.55 10.02 18.55 10 18.56C9.98 18.56 9.96 18.56 9.94 18.57L9.88 18.57C9.86 18.57 9.84 18.56 9.82 18.56C9.8 18.56 9.78 18.56 9.76 18.55C9.74 18.55 9.72 18.54 9.7 18.54C9.69 18.53 9.67 18.53 9.66 18.52C9.64 18.51 9.63 18.51 9.61 18.5C9.6 18.49 9.59 18.48 9.57 18.47C9.56 18.47 9.55 18.46 9.53 18.45L9.5 18.42C9.48 18.41 9.47 18.4 9.46 18.39C9.45 18.37 9.44 18.36 9.43 18.35C9.42 18.34 9.41 18.33 9.4 18.31C9.39 18.3 9.38 18.29 9.37 18.27C9.36 18.26 9.36 18.25 9.35 18.23C9.34 18.22 9.34 18.2 9.33 18.19C9.32 18.17 9.32 18.16 9.31 18.14C9.31 18.13 9.3 18.11 9.3 18.1C9.3 18.08 9.29 18.07 9.29 18.05L9.29 18C9.28 17.99 9.28 17.97 9.28 17.96C9.28 17.89 9.29 17.83 9.31 17.76L13.3 5.77C13.32 5.71 13.34 5.66 13.36 5.62C13.39 5.57 13.42 5.53 13.45 5.49C13.48 5.44 13.51 5.41 13.55 5.37C13.59 5.34 13.63 5.3 13.67 5.27C13.71 5.24 13.75 5.22 13.8 5.2C13.85 5.17 13.89 5.15 13.94 5.14C13.99 5.12 14.05 5.11 14.1 5.11C14.15 5.1 14.2 5.1 14.26 5.1C14.31 5.1 14.36 5.1 14.41 5.11C14.47 5.12 14.52 5.14 14.57 5.16C14.61 5.17 14.66 5.2 14.7 5.22C14.75 5.25 14.79 5.27 14.83 5.31C14.87 5.34 14.91 5.37 14.95 5.41L15.04 5.53C15.07 5.57 15.1 5.62 15.12 5.67C15.14 5.71 15.16 5.77 15.17 5.82L18.43 17.8C18.44 17.85 18.45 17.9 18.45 17.96L18.45 18.01C18.45 18.02 18.44 18.04 18.44 18.05C18.44 18.07 18.43 18.09 18.43 18.1C18.43 18.12 18.42 18.14 18.42 18.15L18.4 18.2C18.39 18.21 18.39 18.23 18.38 18.24C18.37 18.26 18.36 18.27 18.35 18.29C18.34 18.3 18.33 18.31 18.32 18.33L18.29 18.36C18.28 18.38 18.27 18.39 18.26 18.4C18.25 18.41 18.23 18.42 18.22 18.43C18.21 18.44 18.19 18.45 18.18 18.46C18.17 18.47 18.15 18.48 18.14 18.49C18.12 18.5 18.11 18.5 18.09 18.51C18.08 18.52 18.06 18.53 18.05 18.53C18.03 18.54 18.01 18.54 18 18.55L17.97 18.55C17.96 18.55 17.95 18.56 17.94 18.56L17.91 18.56C17.9 18.56 17.89 18.56 17.88 18.57L17.79 18.57L17.76 18.56L17.73 18.56C17.72 18.56 17.71 18.55 17.7 18.55C17.69 18.55 17.68 18.55 17.67 18.54C17.66 18.54 17.65 18.54 17.64 18.53L17.62 18.53C17.61 18.52 17.6 18.52 17.59 18.51C17.58 18.51 17.57 18.5 17.56 18.5L17.54 18.49C17.53 18.48 17.52 18.48 17.51 18.47C17.5 18.47 17.49 18.46 17.48 18.45C17.48 18.45 17.47 18.44 17.46 18.44L17.44 18.42L17.42 18.4L17.39 18.37L17.37 18.35L17.35 18.33ZM11.96 13.69L14.2 6.92L16.04 13.69L11.96 13.69Z" /></g></g></svg>