<svg xmlns="http://www.w3.org/2000/svg" xmlns:xlink="http://www.w3.org/1999/xlink" width="22" height="22" viewBox="0 0 22 22" fill="none"><defs><rect id="path_0" x="0" y="0" width="22" height="22" /></defs><g opacity="1" transform="translate(0 0)  rotate(0 11 11)"><mask id="bg-mask-0" fill="white"><use xlink:href="#path_0"></use></mask><g mask="url(#bg-mask-0)" ><path id="并集" fill-rule="evenodd" style="fill:#000000" transform="translate(1.7111111111111104 2.012312254235333)  rotate(0 8.555306582980686 9.07726593017578)" opacity="1" d="M0.82 0.43C0.83 0.42 0.84 0.4 0.84 0.38L0.87 0.32C0.88 0.31 0.89 0.29 0.9 0.27C0.91 0.26 0.92 0.24 0.94 0.22C0.95 0.21 0.96 0.19 0.98 0.18L1.02 0.14C1.04 0.13 1.05 0.11 1.07 0.1C1.08 0.09 1.1 0.08 1.12 0.07C1.14 0.06 1.16 0.05 1.17 0.05C1.19 0.04 1.21 0.03 1.23 0.03C1.25 0.02 1.27 0.02 1.29 0.01C1.31 0.01 1.33 0 1.35 0L1.47 0C1.49 0 1.51 0.01 1.53 0.01C1.55 0.02 1.57 0.02 1.59 0.03C1.6 0.03 1.62 0.04 1.64 0.05C1.66 0.05 1.68 0.06 1.7 0.07C1.71 0.08 1.73 0.09 1.75 0.1C1.76 0.11 1.78 0.13 1.8 0.14L4.19 2.1L4.21 2.12C4.22 2.12 4.22 2.13 4.23 2.14C4.24 2.14 4.25 2.15 4.25 2.16L4.27 2.18C4.28 2.19 4.28 2.2 4.29 2.2C4.3 2.21 4.3 2.22 4.31 2.23C4.31 2.24 4.32 2.25 4.32 2.26L4.34 2.28C4.34 2.29 4.35 2.3 4.35 2.31C4.36 2.32 4.36 2.33 4.36 2.33C4.37 2.34 4.37 2.35 4.37 2.36C4.38 2.37 4.38 2.38 4.38 2.39C4.39 2.4 4.39 2.41 4.39 2.42C4.39 2.43 4.4 2.44 4.4 2.45L4.4 2.48C4.41 2.49 4.41 2.5 4.41 2.51L4.41 2.63L4.4 2.66L4.4 2.69C4.4 2.7 4.39 2.71 4.39 2.72L4.38 2.75C4.38 2.76 4.38 2.76 4.37 2.77C4.37 2.78 4.37 2.79 4.36 2.8C4.36 2.81 4.36 2.82 4.35 2.83C4.35 2.84 4.34 2.85 4.34 2.86C4.33 2.86 4.33 2.87 4.32 2.88C4.32 2.89 4.31 2.9 4.31 2.91L4.29 2.93C4.28 2.94 4.28 2.95 4.27 2.96C4.23 3.01 4.17 3.06 4.11 3.09C4.07 3.12 4.03 3.14 3.99 3.15C3.95 3.16 3.9 3.17 3.86 3.18L3.74 3.18C3.72 3.18 3.7 3.17 3.68 3.17L3.62 3.15C3.6 3.15 3.58 3.14 3.57 3.13C3.55 3.13 3.53 3.12 3.51 3.11C3.49 3.1 3.48 3.09 3.46 3.08C3.44 3.07 3.43 3.05 3.41 3.04L1.02 1.08C1.01 1.07 0.99 1.06 0.98 1.04C0.96 1.03 0.95 1.01 0.94 1C0.92 0.98 0.91 0.97 0.9 0.95C0.89 0.94 0.88 0.92 0.87 0.9C0.86 0.88 0.85 0.86 0.84 0.85C0.84 0.83 0.83 0.81 0.82 0.79C0.82 0.77 0.81 0.75 0.81 0.73C0.8 0.71 0.8 0.69 0.8 0.67L0.8 0.55C0.8 0.53 0.8 0.51 0.81 0.49C0.81 0.47 0.82 0.45 0.82 0.43ZM15.22 18.14C15.09 18.12 14.96 18.08 14.84 18.03L12.47 17.05C12.47 17.04 12.46 17.04 12.46 17.04C12.45 17.04 12.43 17.03 12.42 17.02C12.39 17.01 12.36 16.99 12.33 16.97L12.25 16.89C12.23 16.87 12.21 16.84 12.19 16.81C12.17 16.78 12.15 16.75 12.14 16.71C12.13 16.69 12.12 16.68 12.12 16.66C12.11 16.64 12.11 16.62 12.1 16.6L12.1 16.54C12.09 16.52 12.09 16.5 12.09 16.48C12.09 16.46 12.09 16.44 12.1 16.42L12.1 16.36C12.11 16.34 12.11 16.32 12.12 16.3C12.12 16.28 12.13 16.26 12.14 16.25C12.14 16.24 12.15 16.23 12.15 16.22C12.16 16.21 12.16 16.2 12.16 16.19L12.18 16.17C12.19 16.16 12.19 16.15 12.2 16.14C12.2 16.13 12.2 16.13 12.21 16.12C12.21 16.11 12.22 16.1 12.22 16.09C12.23 16.08 12.23 16.07 12.24 16.07C12.24 16.06 12.24 16.05 12.25 16.04C12.25 16.03 12.26 16.02 12.27 16.01C12.27 16.01 12.28 16 12.28 15.99L12.3 15.97C12.31 15.96 12.31 15.95 12.32 15.94C12.33 15.94 12.33 15.93 12.34 15.92L12.36 15.9C12.37 15.89 12.38 15.89 12.39 15.88C12.39 15.87 12.4 15.87 12.41 15.86C12.42 15.86 12.43 15.85 12.43 15.85C12.44 15.84 12.45 15.83 12.46 15.83C12.47 15.82 12.48 15.82 12.49 15.81C12.49 15.81 12.5 15.81 12.51 15.8C12.52 15.8 12.53 15.79 12.54 15.79C12.55 15.79 12.56 15.78 12.57 15.78C12.58 15.77 12.59 15.77 12.6 15.77L12.63 15.76C12.63 15.76 12.64 15.76 12.65 15.75L12.68 15.75L12.71 15.74L12.83 15.74C12.84 15.75 12.85 15.75 12.86 15.75L12.89 15.75L12.92 15.76C12.93 15.76 12.94 15.77 12.95 15.77C12.96 15.77 12.97 15.77 12.98 15.78C12.99 15.78 13 15.78 13.01 15.79L15.38 16.77C15.41 16.78 15.44 16.79 15.47 16.79C15.5 16.8 15.53 16.8 15.56 16.79C15.59 16.79 15.62 16.78 15.64 16.78C15.67 16.77 15.7 16.75 15.73 16.73C15.75 16.72 15.77 16.7 15.79 16.67C15.8 16.67 15.8 16.67 15.81 16.66C15.81 16.62 15.82 16.6 15.82 16.56L15.82 1.81Q15.82 1.735 15.79 1.66L15.76 1.6C15.74 1.58 15.73 1.56 15.71 1.55C15.69 1.53 15.68 1.51 15.66 1.5C15.64 1.49 15.62 1.48 15.59 1.47C15.55 1.45 15.5 1.44 15.45 1.44L5.54 1.44L5.51 1.43L5.48 1.43C5.47 1.43 5.46 1.42 5.45 1.42C5.45 1.42 5.44 1.42 5.43 1.41C5.42 1.41 5.41 1.41 5.4 1.4C5.39 1.4 5.38 1.4 5.37 1.39C5.36 1.39 5.35 1.38 5.34 1.38C5.33 1.38 5.32 1.37 5.31 1.37L5.29 1.35C5.28 1.35 5.27 1.34 5.26 1.34C5.25 1.33 5.25 1.32 5.24 1.32C5.23 1.31 5.22 1.31 5.22 1.3C5.21 1.29 5.2 1.29 5.19 1.28L5.15 1.24C5.14 1.23 5.14 1.22 5.13 1.22C5.12 1.21 5.12 1.2 5.11 1.19C5.11 1.18 5.1 1.18 5.09 1.17C5.09 1.16 5.08 1.15 5.08 1.14L5.06 1.12C5.06 1.11 5.06 1.1 5.05 1.09C5.05 1.08 5.04 1.07 5.04 1.06C5.03 1.05 5.03 1.04 5.03 1.03C5.02 1.02 5.02 1.01 5.02 1C5.01 1 5.01 0.99 5.01 0.98C5.01 0.97 5.01 0.96 5 0.95L5 0.92L4.99 0.89L4.99 0.77L5 0.74L5 0.71C5.01 0.7 5.01 0.69 5.01 0.68C5.01 0.67 5.01 0.66 5.02 0.65C5.02 0.64 5.02 0.63 5.03 0.62C5.03 0.61 5.03 0.6 5.04 0.59C5.04 0.58 5.05 0.58 5.05 0.57C5.06 0.56 5.06 0.55 5.06 0.54L5.08 0.51C5.08 0.5 5.09 0.5 5.09 0.49C5.1 0.48 5.11 0.47 5.11 0.46C5.12 0.46 5.12 0.45 5.13 0.44C5.14 0.43 5.14 0.42 5.15 0.42C5.16 0.41 5.16 0.4 5.17 0.39C5.18 0.39 5.18 0.38 5.19 0.38L5.22 0.35C5.22 0.35 5.23 0.34 5.24 0.34L5.26 0.32C5.27 0.31 5.28 0.31 5.29 0.3L5.31 0.29C5.32 0.28 5.33 0.28 5.34 0.28C5.35 0.27 5.36 0.27 5.37 0.26C5.38 0.26 5.39 0.26 5.4 0.25C5.41 0.25 5.42 0.25 5.43 0.24C5.44 0.24 5.45 0.24 5.45 0.23L5.48 0.23C5.49 0.23 5.5 0.23 5.51 0.22L15.52 0.22C15.63 0.22 15.74 0.23 15.84 0.25C15.94 0.27 16.04 0.3 16.14 0.34C16.24 0.38 16.32 0.43 16.41 0.49C16.49 0.55 16.57 0.61 16.64 0.68C16.72 0.75 16.78 0.83 16.84 0.92C16.9 1 16.95 1.09 16.99 1.19C17.03 1.28 17.06 1.38 17.08 1.49C17.1 1.59 17.11 1.7 17.11 1.81L17.11 16.43C17.11 16.56 17.09 16.69 17.06 16.82C17.03 16.95 16.98 17.06 16.92 17.18C16.91 17.2 16.91 17.21 16.9 17.23C16.88 17.26 16.87 17.29 16.85 17.31C16.79 17.43 16.72 17.53 16.63 17.63C16.54 17.73 16.44 17.81 16.33 17.89C16.22 17.96 16.11 18.02 15.98 18.06C15.86 18.11 15.74 18.13 15.61 18.15C15.48 18.16 15.35 18.16 15.22 18.14ZM6.2 3.42C6.19 3.43 6.19 3.44 6.19 3.45C6.18 3.46 6.18 3.47 6.17 3.48L6.17 3.51C6.16 3.52 6.16 3.53 6.16 3.54C6.16 3.55 6.15 3.56 6.15 3.57L6.15 3.6L6.14 3.62L6.14 3.74L6.15 3.77L6.15 3.8C6.15 3.81 6.16 3.82 6.16 3.83C6.16 3.84 6.16 3.85 6.17 3.86L6.17 3.89C6.18 3.9 6.18 3.91 6.19 3.92C6.19 3.93 6.19 3.94 6.2 3.95C6.2 3.95 6.21 3.96 6.21 3.97L6.23 4C6.23 4.01 6.24 4.02 6.24 4.02C6.25 4.03 6.25 4.04 6.26 4.05L6.28 4.07C6.28 4.08 6.29 4.09 6.3 4.1L6.32 4.12C6.33 4.12 6.33 4.13 6.34 4.14C6.35 4.14 6.35 4.15 6.36 4.16C6.37 4.16 6.38 4.17 6.39 4.18C6.39 4.18 6.4 4.19 6.41 4.19C6.42 4.2 6.43 4.2 6.44 4.21L6.46 4.22C6.47 4.23 6.48 4.23 6.49 4.24C6.5 4.24 6.51 4.25 6.52 4.25C6.53 4.25 6.54 4.26 6.55 4.26C6.55 4.26 6.56 4.27 6.57 4.27L6.6 4.28L6.63 4.28C6.64 4.29 6.65 4.29 6.66 4.29L6.69 4.29C6.7 4.29 6.71 4.29 6.72 4.3L14.2 4.3C14.21 4.3 14.22 4.3 14.23 4.29L14.29 4.29C14.3 4.29 14.31 4.29 14.32 4.28L14.35 4.28C14.36 4.28 14.37 4.27 14.38 4.27C14.39 4.27 14.4 4.26 14.41 4.26C14.42 4.26 14.43 4.25 14.44 4.25C14.45 4.25 14.46 4.24 14.46 4.24C14.47 4.23 14.48 4.23 14.49 4.22L14.52 4.21L14.54 4.19C14.55 4.19 14.56 4.18 14.57 4.18C14.58 4.17 14.58 4.16 14.59 4.16L14.61 4.14C14.62 4.13 14.63 4.12 14.64 4.12C14.64 4.11 14.65 4.1 14.66 4.1C14.66 4.09 14.67 4.08 14.68 4.07C14.68 4.06 14.69 4.06 14.69 4.05C14.7 4.04 14.71 4.03 14.71 4.02C14.72 4.02 14.72 4.01 14.73 4L14.74 3.97C14.75 3.96 14.75 3.95 14.75 3.95C14.76 3.94 14.76 3.93 14.77 3.92C14.77 3.91 14.77 3.9 14.78 3.89C14.78 3.88 14.78 3.87 14.79 3.86L14.8 3.83L14.8 3.8C14.8 3.79 14.81 3.78 14.81 3.77L14.81 3.62C14.81 3.61 14.81 3.59 14.8 3.57C14.8 3.55 14.79 3.53 14.79 3.51C14.78 3.49 14.78 3.47 14.77 3.45C14.76 3.43 14.75 3.41 14.74 3.4C14.73 3.38 14.72 3.36 14.71 3.35C14.7 3.33 14.69 3.31 14.68 3.3C14.66 3.28 14.65 3.27 14.64 3.25L14.59 3.21C14.58 3.2 14.56 3.19 14.54 3.18C14.53 3.17 14.51 3.16 14.49 3.15C14.47 3.14 14.46 3.13 14.44 3.12C14.42 3.11 14.4 3.11 14.38 3.1C14.36 3.09 14.34 3.09 14.32 3.09C14.3 3.08 14.28 3.08 14.26 3.08C14.24 3.07 14.22 3.07 14.2 3.07L6.72 3.07C6.71 3.07 6.7 3.08 6.69 3.08L6.66 3.08C6.65 3.08 6.64 3.08 6.63 3.09L6.6 3.09C6.59 3.09 6.58 3.1 6.57 3.1C6.56 3.1 6.55 3.11 6.55 3.11C6.54 3.11 6.53 3.12 6.52 3.12C6.51 3.12 6.5 3.13 6.49 3.13C6.48 3.14 6.47 3.14 6.46 3.15L6.44 3.16C6.43 3.17 6.42 3.17 6.41 3.18C6.4 3.18 6.39 3.19 6.39 3.19C6.38 3.2 6.37 3.21 6.36 3.21C6.35 3.22 6.35 3.23 6.34 3.23C6.33 3.24 6.33 3.25 6.32 3.25L6.3 3.27C6.29 3.28 6.28 3.29 6.28 3.3C6.27 3.3 6.27 3.31 6.26 3.32C6.25 3.33 6.25 3.34 6.24 3.35C6.24 3.35 6.23 3.36 6.23 3.37L6.21 3.4C6.21 3.41 6.2 3.41 6.2 3.42ZM0.22 4.52C0.23 4.52 0.24 4.53 0.25 4.54C0.26 4.54 0.26 4.55 0.27 4.55C0.28 4.56 0.29 4.56 0.3 4.57L0.32 4.58C0.33 4.59 0.34 4.59 0.35 4.6C0.36 4.6 0.37 4.61 0.38 4.61C0.39 4.61 0.4 4.62 0.41 4.62C0.41 4.62 0.42 4.63 0.43 4.63C0.44 4.63 0.45 4.63 0.46 4.64L0.49 4.64C0.5 4.65 0.51 4.65 0.52 4.65L0.58 4.65C0.59 4.66 0.6 4.66 0.61 4.66L2.52 4.66C2.57 4.66 2.61 4.67 2.66 4.68C2.68 4.69 2.7 4.7 2.72 4.72C2.74 4.73 2.76 4.75 2.77 4.76C2.79 4.78 2.81 4.8 2.82 4.82L2.85 4.88C2.87 4.92 2.88 4.97 2.88 5.02L2.88 16.45C2.88 16.59 2.9 16.72 2.93 16.86C2.97 16.99 3.02 17.11 3.08 17.23C3.15 17.34 3.23 17.45 3.32 17.55C3.41 17.65 3.52 17.73 3.64 17.81C3.75 17.88 3.87 17.93 4 17.97C4.13 18.01 4.26 18.04 4.4 18.04C4.53 18.05 4.67 18.04 4.8 18.01C4.93 17.98 5.06 17.94 5.18 17.88L7.14 16.9C7.17 16.89 7.2 16.87 7.23 16.84C7.25 16.83 7.26 16.82 7.27 16.81C7.29 16.8 7.3 16.79 7.31 16.77C7.32 16.76 7.34 16.75 7.35 16.73C7.36 16.72 7.37 16.7 7.38 16.69C7.39 16.68 7.4 16.66 7.41 16.64C7.41 16.63 7.42 16.61 7.43 16.6C7.44 16.58 7.44 16.56 7.45 16.55L7.46 16.5C7.47 16.48 7.47 16.46 7.47 16.44C7.48 16.43 7.48 16.41 7.48 16.39L7.48 16.28C7.47 16.27 7.47 16.25 7.47 16.23C7.46 16.21 7.46 16.2 7.45 16.18C7.45 16.16 7.44 16.15 7.44 16.13C7.43 16.11 7.42 16.1 7.42 16.08C7.41 16.07 7.41 16.06 7.4 16.05C7.4 16.05 7.39 16.04 7.39 16.03C7.38 16.02 7.37 16.01 7.37 16C7.36 16 7.36 15.99 7.35 15.98C7.35 15.97 7.34 15.96 7.33 15.96C7.33 15.95 7.32 15.94 7.31 15.93L7.29 15.91C7.28 15.91 7.28 15.9 7.27 15.89C7.26 15.89 7.25 15.88 7.25 15.87C7.24 15.87 7.23 15.86 7.22 15.85C7.21 15.85 7.21 15.84 7.2 15.84C7.19 15.83 7.18 15.83 7.17 15.82C7.16 15.82 7.15 15.81 7.15 15.81C7.14 15.8 7.13 15.8 7.12 15.8C7.11 15.79 7.1 15.79 7.09 15.78C7.08 15.78 7.07 15.78 7.06 15.77C7.05 15.77 7.04 15.77 7.03 15.76L7 15.76C6.99 15.75 6.99 15.75 6.98 15.75L6.95 15.75L6.92 15.74L6.83 15.74C6.82 15.74 6.81 15.74 6.8 15.75L6.77 15.75C6.76 15.75 6.75 15.75 6.74 15.76L6.71 15.76C6.7 15.77 6.69 15.77 6.68 15.77C6.67 15.78 6.66 15.78 6.65 15.78C6.64 15.79 6.63 15.79 6.62 15.79C6.61 15.8 6.6 15.8 6.6 15.81L4.63 16.78C4.61 16.8 4.58 16.81 4.55 16.81C4.52 16.82 4.49 16.82 4.46 16.82C4.42 16.82 4.39 16.81 4.36 16.8C4.33 16.79 4.3 16.78 4.28 16.76C4.25 16.75 4.23 16.73 4.2 16.71C4.18 16.68 4.17 16.66 4.15 16.63C4.14 16.61 4.12 16.58 4.12 16.55C4.11 16.52 4.1 16.49 4.1 16.45L4.1 5.02C4.1 4.91 4.09 4.81 4.07 4.7C4.05 4.6 4.02 4.5 3.98 4.4C3.94 4.31 3.89 4.22 3.83 4.13C3.78 4.05 3.71 3.97 3.64 3.9C3.57 3.83 3.49 3.76 3.4 3.7C3.32 3.65 3.23 3.6 3.13 3.56C3.04 3.52 2.94 3.49 2.83 3.47C2.73 3.44 2.62 3.43 2.52 3.43L0.58 3.43C0.57 3.43 0.56 3.44 0.55 3.44L0.52 3.44C0.51 3.44 0.5 3.44 0.49 3.45L0.46 3.45C0.45 3.45 0.44 3.46 0.43 3.46C0.42 3.46 0.41 3.47 0.41 3.47C0.4 3.47 0.39 3.48 0.38 3.48C0.37 3.48 0.36 3.49 0.35 3.49C0.34 3.5 0.33 3.5 0.32 3.51L0.3 3.52C0.29 3.53 0.28 3.53 0.27 3.54C0.26 3.54 0.26 3.55 0.25 3.55C0.24 3.56 0.23 3.57 0.22 3.57C0.22 3.58 0.21 3.59 0.2 3.59C0.19 3.6 0.19 3.61 0.18 3.61C0.17 3.62 0.17 3.63 0.16 3.63C0.15 3.64 0.15 3.65 0.14 3.66C0.13 3.66 0.13 3.67 0.12 3.68C0.11 3.69 0.11 3.7 0.1 3.7C0.1 3.71 0.09 3.72 0.09 3.73L0.07 3.76C0.07 3.77 0.06 3.77 0.06 3.78C0.06 3.79 0.05 3.8 0.05 3.81C0.04 3.82 0.04 3.83 0.04 3.84C0.03 3.85 0.03 3.86 0.03 3.87C0.02 3.88 0.02 3.89 0.02 3.9C0.02 3.91 0.01 3.92 0.01 3.92L0.01 3.96L0 3.98L0 4.1L0.01 4.13L0.01 4.16C0.01 4.17 0.02 4.18 0.02 4.19C0.02 4.2 0.02 4.21 0.03 4.22C0.03 4.23 0.03 4.24 0.04 4.25C0.04 4.26 0.04 4.27 0.05 4.28C0.05 4.29 0.06 4.3 0.06 4.31C0.06 4.31 0.07 4.32 0.07 4.33L0.09 4.36C0.09 4.37 0.1 4.38 0.1 4.38C0.11 4.39 0.11 4.4 0.12 4.41L0.14 4.43C0.15 4.44 0.15 4.45 0.16 4.46C0.17 4.46 0.17 4.47 0.18 4.48C0.19 4.48 0.19 4.49 0.2 4.5C0.21 4.5 0.22 4.51 0.22 4.52ZM12.92 6L8.26 6C7.45 6 6.8 6.66 6.8 7.47L6.8 13.35C6.8 14.16 7.45 14.82 8.26 14.82L12.92 14.82C13.73 14.82 14.39 14.16 14.39 13.35L14.39 7.47C14.39 6.66 13.73 6 12.92 6ZM8.26 7.22L12.92 7.22C12.96 7.22 12.99 7.23 13.02 7.24C13.05 7.26 13.07 7.27 13.1 7.3C13.12 7.32 13.14 7.34 13.15 7.37C13.16 7.4 13.17 7.44 13.17 7.47L13.17 13.35C13.17 13.38 13.16 13.41 13.15 13.44C13.14 13.47 13.12 13.5 13.1 13.52C13.07 13.54 13.05 13.56 13.02 13.57C12.99 13.59 12.96 13.59 12.92 13.59L8.26 13.59C8.23 13.59 8.2 13.59 8.17 13.57C8.14 13.56 8.11 13.54 8.09 13.52C8.07 13.5 8.05 13.47 8.04 13.44C8.03 13.41 8.02 13.38 8.02 13.35L8.02 7.47C8.02 7.44 8.03 7.4 8.04 7.37C8.05 7.34 8.07 7.32 8.09 7.3C8.11 7.27 8.14 7.26 8.17 7.24C8.2 7.23 8.23 7.22 8.26 7.22Z" /></g></g></svg>