<svg xmlns="http://www.w3.org/2000/svg" xmlns:xlink="http://www.w3.org/1999/xlink" width="22" height="22" viewBox="0 0 22 22" fill="none"><defs><rect id="path_0" x="0" y="0" width="22" height="22" /></defs><g opacity="1" transform="translate(0 0)  rotate(0 11 11)"><mask id="bg-mask-0" fill="white"><use xlink:href="#path_0"></use></mask><g mask="url(#bg-mask-0)" ><path id="并集" fill-rule="evenodd" style="fill:#000000" transform="translate(2.4750000000000014 2.474999999596264)  rotate(0 8.525 8.525)" opacity="1" d="M9.05,0.3C9.04,0.29 9.04,0.28 9.03,0.27C9.03,0.26 9.02,0.26 9.02,0.25C9.01,0.24 9,0.23 9,0.22C8.99,0.22 8.98,0.21 8.98,0.2C8.97,0.19 8.96,0.19 8.96,0.18C8.95,0.17 8.94,0.17 8.94,0.16C8.93,0.15 8.92,0.15 8.91,0.14C8.91,0.13 8.9,0.13 8.89,0.12C8.88,0.11 8.87,0.11 8.86,0.1C8.86,0.1 8.85,0.09 8.84,0.09L8.81,0.07C8.8,0.07 8.8,0.06 8.79,0.06C8.78,0.05 8.77,0.05 8.76,0.05C8.75,0.04 8.74,0.04 8.73,0.04C8.72,0.03 8.71,0.03 8.7,0.03C8.69,0.02 8.68,0.02 8.67,0.02C8.66,0.02 8.65,0.01 8.64,0.01C8.63,0.01 8.63,0.01 8.62,0.01C8.6,0 8.59,0 8.58,0C8.58,0 8.57,0 8.56,0C8.54,0 8.53,0 8.52,0C8.52,0 8.51,0 8.49,0C8.48,0 8.47,0 8.47,0L8.44,0.01C8.43,0.01 8.41,0.01 8.41,0.01C8.4,0.01 8.39,0.02 8.38,0.02C8.37,0.02 8.36,0.02 8.35,0.03C8.34,0.03 8.33,0.03 8.32,0.04C8.31,0.04 8.3,0.04 8.29,0.05C8.28,0.05 8.27,0.05 8.26,0.06C8.25,0.06 8.25,0.07 8.24,0.07L8.21,0.09C8.2,0.09 8.19,0.1 8.19,0.1C8.18,0.11 8.17,0.11 8.16,0.12C8.15,0.13 8.14,0.13 8.14,0.14C8.13,0.15 8.12,0.15 8.11,0.16C8.11,0.17 8.1,0.17 8.09,0.18C8.09,0.19 8.08,0.19 8.07,0.2C8.07,0.21 8.06,0.22 8.05,0.22C8.05,0.23 8.04,0.24 8.03,0.25C8.03,0.26 8.02,0.26 8.02,0.27C8.01,0.28 8.01,0.29 8,0.3L7.99,0.32C7.98,0.33 7.98,0.34 7.97,0.35C7.97,0.36 7.96,0.37 7.96,0.38C7.96,0.39 7.95,0.4 7.95,0.41C7.95,0.41 7.94,0.42 7.94,0.43C7.94,0.44 7.93,0.45 7.93,0.46C7.93,0.47 7.93,0.48 7.93,0.49C7.92,0.5 7.92,0.51 7.92,0.52L7.92,0.55C7.92,0.56 7.92,0.57 7.92,0.58C7.91,0.59 7.91,0.6 7.91,0.61L7.91,7.91L0.61,7.91C0.6,7.91 0.59,7.91 0.58,7.92C0.57,7.92 0.56,7.92 0.55,7.92L0.52,7.92C0.51,7.92 0.5,7.92 0.49,7.93C0.48,7.93 0.47,7.93 0.46,7.93C0.45,7.93 0.44,7.94 0.43,7.94C0.42,7.94 0.41,7.95 0.41,7.95C0.4,7.95 0.39,7.96 0.38,7.96C0.37,7.96 0.36,7.97 0.35,7.97C0.34,7.98 0.33,7.98 0.32,7.99L0.3,8C0.29,8.01 0.28,8.01 0.27,8.02C0.26,8.02 0.26,8.03 0.25,8.03C0.24,8.04 0.23,8.05 0.22,8.05C0.22,8.06 0.21,8.07 0.2,8.07C0.19,8.08 0.19,8.09 0.18,8.09C0.17,8.1 0.17,8.11 0.16,8.11C0.15,8.12 0.15,8.13 0.14,8.14C0.13,8.14 0.13,8.15 0.12,8.16C0.11,8.17 0.11,8.18 0.1,8.19C0.1,8.19 0.09,8.2 0.09,8.21L0.07,8.24C0.07,8.25 0.06,8.25 0.06,8.26C0.05,8.27 0.05,8.28 0.05,8.29C0.04,8.3 0.04,8.31 0.04,8.32C0.03,8.33 0.03,8.34 0.03,8.35C0.02,8.36 0.02,8.37 0.02,8.38C0.02,8.39 0.01,8.4 0.01,8.41C0.01,8.41 0.01,8.43 0.01,8.44L0,8.47C0,8.47 0,8.48 0,8.49C0,8.51 0,8.52 0,8.52C0,8.53 0,8.54 0,8.56C0,8.57 0,8.58 0,8.58C0,8.59 0,8.6 0.01,8.62C0.01,8.63 0.01,8.63 0.01,8.64C0.01,8.65 0.02,8.66 0.02,8.67C0.02,8.68 0.02,8.69 0.03,8.7C0.03,8.71 0.03,8.72 0.04,8.73C0.04,8.74 0.04,8.75 0.05,8.76C0.05,8.77 0.05,8.78 0.06,8.79C0.06,8.8 0.07,8.8 0.07,8.81L0.09,8.84C0.09,8.85 0.1,8.86 0.1,8.86C0.11,8.87 0.11,8.88 0.12,8.89C0.13,8.9 0.13,8.91 0.14,8.91C0.15,8.92 0.15,8.93 0.16,8.94C0.17,8.94 0.17,8.95 0.18,8.96C0.19,8.96 0.19,8.97 0.2,8.98C0.21,8.98 0.22,8.99 0.22,9C0.23,9 0.24,9.01 0.25,9.02C0.26,9.02 0.26,9.03 0.27,9.03C0.28,9.04 0.29,9.04 0.3,9.05L0.32,9.06C0.33,9.07 0.34,9.07 0.35,9.08C0.36,9.08 0.37,9.09 0.38,9.09C0.39,9.09 0.4,9.1 0.41,9.1C0.41,9.1 0.42,9.11 0.43,9.11L0.46,9.12C0.47,9.12 0.48,9.12 0.49,9.13C0.5,9.13 0.51,9.13 0.52,9.13L0.55,9.13C0.56,9.13 0.57,9.13 0.58,9.14L7.91,9.14L7.91,16.44C7.91,16.46 7.92,16.47 7.92,16.49C7.92,16.51 7.92,16.53 7.92,16.54C7.93,16.56 7.93,16.58 7.93,16.6C7.94,16.61 7.94,16.63 7.95,16.65C7.96,16.66 7.96,16.68 7.97,16.7C7.98,16.71 7.99,16.73 7.99,16.74C8,16.76 8.01,16.77 8.02,16.79C8.03,16.8 8.04,16.82 8.06,16.83C8.07,16.84 8.08,16.86 8.09,16.87C8.1,16.88 8.12,16.89 8.13,16.9C8.14,16.92 8.16,16.93 8.17,16.94C8.19,16.95 8.2,16.96 8.22,16.97C8.23,16.98 8.25,16.98 8.26,16.99C8.28,17 8.3,17.01 8.31,17.01C8.33,17.02 8.35,17.02 8.36,17.03C8.38,17.03 8.4,17.04 8.41,17.04C8.45,17.05 8.49,17.05 8.52,17.05C8.56,17.05 8.6,17.05 8.64,17.04C8.68,17.03 8.72,17.02 8.75,17C8.79,16.99 8.83,16.97 8.86,16.95C8.89,16.93 8.92,16.9 8.95,16.88C8.95,16.88 8.96,16.87 8.96,16.87C8.99,16.84 9.01,16.81 9.03,16.78C9.05,16.75 9.07,16.71 9.09,16.67C9.1,16.64 9.12,16.6 9.12,16.56C9.13,16.52 9.14,16.48 9.14,16.44L9.14,9.14L16.44,9.14C16.45,9.14 16.46,9.14 16.47,9.13C16.48,9.13 16.49,9.13 16.5,9.13L16.53,9.13C16.54,9.13 16.55,9.13 16.56,9.12C16.57,9.12 16.58,9.12 16.59,9.12C16.6,9.12 16.61,9.11 16.62,9.11C16.63,9.11 16.64,9.1 16.64,9.1C16.65,9.1 16.66,9.09 16.67,9.09C16.68,9.09 16.69,9.08 16.7,9.08C16.71,9.07 16.72,9.07 16.73,9.06L16.75,9.05C16.76,9.04 16.77,9.04 16.78,9.03C16.79,9.03 16.79,9.02 16.8,9.02C16.81,9.01 16.82,9 16.83,9C16.83,8.99 16.84,8.98 16.85,8.98C16.86,8.97 16.86,8.96 16.87,8.96C16.88,8.95 16.89,8.94 16.89,8.94C16.9,8.93 16.9,8.92 16.91,8.91C16.92,8.91 16.92,8.9 16.93,8.89C16.94,8.88 16.94,8.87 16.95,8.86C16.95,8.86 16.96,8.85 16.96,8.84L16.98,8.81C16.98,8.8 16.99,8.8 16.99,8.79C17,8.78 17,8.77 17,8.76C17.01,8.75 17.01,8.74 17.01,8.73C17.02,8.72 17.02,8.71 17.02,8.7L17.03,8.67C17.03,8.66 17.04,8.65 17.04,8.64C17.04,8.63 17.04,8.62 17.04,8.61L17.05,8.58C17.05,8.58 17.05,8.57 17.05,8.56C17.05,8.54 17.05,8.53 17.05,8.52L17.05,8.52C17.05,8.48 17.05,8.44 17.04,8.4C17.03,8.36 17.02,8.33 17,8.29C16.99,8.25 16.97,8.22 16.95,8.19C16.92,8.15 16.9,8.12 16.87,8.09C16.86,8.08 16.84,8.07 16.83,8.05C16.81,8.04 16.79,8.03 16.78,8.02C16.76,8.01 16.74,8 16.73,7.99C16.71,7.98 16.69,7.97 16.67,7.96C16.65,7.95 16.64,7.95 16.62,7.94C16.6,7.93 16.58,7.93 16.56,7.93C16.54,7.92 16.52,7.92 16.5,7.92C16.48,7.92 16.46,7.91 16.44,7.91L9.14,7.91L9.14,0.58C9.13,0.57 9.13,0.56 9.13,0.55L9.13,0.52C9.13,0.51 9.13,0.5 9.13,0.49C9.12,0.48 9.12,0.47 9.12,0.46L9.11,0.43C9.11,0.42 9.1,0.41 9.1,0.41C9.1,0.4 9.09,0.39 9.09,0.38C9.09,0.37 9.08,0.36 9.08,0.35C9.07,0.34 9.07,0.33 9.06,0.32L9.05,0.3Z " /></g></g></svg>