<svg xmlns="http://www.w3.org/2000/svg" xmlns:xlink="http://www.w3.org/1999/xlink" width="22" height="22" viewBox="0 0 22 22" fill="none"><defs><rect id="path_0" x="0" y="0" width="22" height="22" /></defs><g opacity="1" transform="translate(-1.1368683772161603e-13 1.1368683772161603e-13)  rotate(0 11 11)"><mask id="bg-mask-0" fill="white"><use xlink:href="#path_0"></use></mask><g mask="url(#bg-mask-0)" ><path id="并集" fill-rule="evenodd" style="fill:#000000" transform="translate(1.9555555555555557 1.344444444444445)  rotate(0 9.105555555555556 9.716666666666667)" opacity="1" d="M8.19 0C10.48 0 12.34 1.8 12.46 4.05C12.03 4.15 11.62 4.29 11.24 4.47L11.24 4.28C11.24 4.07 11.22 3.86 11.18 3.66C11.14 3.46 11.08 3.27 11 3.09C10.93 2.91 10.83 2.73 10.72 2.57C10.61 2.41 10.49 2.26 10.35 2.12C10.21 1.98 10.06 1.85 9.9 1.74C9.73 1.63 9.56 1.54 9.38 1.46C9.19 1.38 9 1.32 8.81 1.28C8.6 1.24 8.4 1.22 8.19 1.22C7.98 1.22 7.77 1.24 7.57 1.28C7.37 1.32 7.18 1.38 7 1.46C6.82 1.54 6.65 1.63 6.48 1.74C6.32 1.85 6.17 1.98 6.03 2.12C5.89 2.26 5.76 2.41 5.65 2.57C5.54 2.73 5.45 2.91 5.37 3.09C5.29 3.27 5.24 3.46 5.2 3.66C5.15 3.86 5.13 4.07 5.13 4.28C5.13 4.49 5.15 4.69 5.2 4.89C5.24 5.09 5.29 5.28 5.37 5.47C5.45 5.65 5.54 5.82 5.65 5.99C5.76 6.15 5.89 6.3 6.03 6.44C6.17 6.58 6.32 6.7 6.48 6.81C6.65 6.92 6.82 7.02 7 7.09Q7.27 7.21 7.57 7.27C7.77 7.31 7.98 7.33 8.19 7.33C8.28 7.33 8.37 7.33 8.46 7.32Q8.19 7.905 8.07 8.55C5.76 8.49 3.91 6.6 3.91 4.28C3.91 1.92 5.83 0 8.19 0ZM13.7 5.14C16.19 5.14 18.21 7.16 18.21 9.66C18.21 12.15 16.19 14.17 13.7 14.17C11.2 14.17 9.18 12.15 9.18 9.66C9.18 7.16 11.2 5.14 13.7 5.14ZM13.49 7.1C13.48 7.11 13.46 7.12 13.45 7.13L13.42 7.16C13.4 7.17 13.39 7.18 13.38 7.2L13.35 7.23C13.35 7.25 13.34 7.26 13.33 7.27C13.32 7.29 13.32 7.3 13.31 7.32C13.3 7.33 13.3 7.35 13.29 7.36C13.29 7.38 13.28 7.39 13.28 7.41C13.28 7.43 13.28 7.44 13.27 7.46L13.27 9.17L11.56 9.17C11.55 9.17 11.53 9.17 11.52 9.18C11.5 9.18 11.48 9.18 11.47 9.19C11.45 9.19 11.44 9.2 11.42 9.2C11.41 9.21 11.39 9.22 11.38 9.22C11.37 9.23 11.35 9.24 11.34 9.25C11.33 9.26 11.31 9.27 11.3 9.28L11.27 9.31C11.25 9.32 11.24 9.33 11.23 9.35L11.2 9.38C11.2 9.4 11.19 9.41 11.18 9.42C11.17 9.44 11.17 9.45 11.16 9.47C11.15 9.48 11.15 9.5 11.14 9.51C11.14 9.53 11.13 9.54 11.13 9.56C11.13 9.58 11.13 9.59 11.12 9.61L11.12 9.66C11.12 9.69 11.13 9.72 11.13 9.75L11.16 9.84C11.17 9.87 11.19 9.9 11.2 9.93C11.22 9.95 11.24 9.98 11.27 10C11.29 10.02 11.31 10.04 11.34 10.06C11.37 10.08 11.39 10.1 11.42 10.11C11.45 10.12 11.48 10.13 11.52 10.13C11.55 10.14 11.58 10.14 11.61 10.14L13.27 10.14L13.27 11.85C13.28 11.87 13.28 11.89 13.28 11.9C13.28 11.92 13.29 11.93 13.29 11.95C13.3 11.96 13.3 11.98 13.31 11.99C13.32 12.01 13.32 12.02 13.33 12.04C13.34 12.05 13.35 12.06 13.35 12.08C13.36 12.09 13.37 12.1 13.38 12.12C13.39 12.13 13.4 12.14 13.42 12.15L13.45 12.18C13.46 12.19 13.48 12.2 13.49 12.21C13.5 12.22 13.52 12.23 13.53 12.24C13.54 12.24 13.56 12.25 13.57 12.26C13.59 12.26 13.6 12.27 13.62 12.27C13.63 12.28 13.65 12.28 13.67 12.29L13.86 12.29L13.95 12.26C13.98 12.25 14.01 12.23 14.03 12.21C14.06 12.19 14.08 12.17 14.11 12.15C14.13 12.13 14.15 12.1 14.17 12.08C14.19 12.05 14.2 12.02 14.21 11.99C14.23 11.96 14.23 11.93 14.24 11.9C14.25 11.87 14.25 11.84 14.25 11.81L14.25 10.14L15.91 10.14C15.94 10.14 15.98 10.14 16.01 10.13C16.04 10.13 16.07 10.12 16.1 10.11C16.13 10.09 16.16 10.08 16.18 10.06C16.21 10.04 16.23 10.02 16.26 10C16.28 9.98 16.3 9.95 16.32 9.93C16.34 9.9 16.35 9.87 16.36 9.84C16.38 9.81 16.39 9.78 16.39 9.75C16.4 9.72 16.4 9.69 16.4 9.66C16.4 9.62 16.4 9.59 16.39 9.56C16.39 9.53 16.38 9.5 16.36 9.47C16.35 9.44 16.34 9.41 16.32 9.38C16.3 9.36 16.28 9.33 16.26 9.31C16.23 9.29 16.21 9.27 16.18 9.25C16.16 9.23 16.13 9.22 16.1 9.2C16.07 9.19 16.04 9.18 16.01 9.18C15.98 9.17 15.94 9.17 15.91 9.17L14.25 9.17L14.25 7.51C14.25 7.47 14.25 7.44 14.24 7.41C14.23 7.38 14.23 7.35 14.21 7.32C14.2 7.29 14.19 7.26 14.17 7.23C14.15 7.21 14.13 7.18 14.11 7.16C14.08 7.14 14.06 7.12 14.03 7.1C14.01 7.08 13.98 7.07 13.95 7.05C13.92 7.04 13.89 7.03 13.86 7.03C13.82 7.02 13.79 7.02 13.76 7.02L13.71 7.02C13.7 7.02 13.68 7.02 13.67 7.03C13.65 7.03 13.63 7.03 13.62 7.04C13.6 7.04 13.59 7.05 13.57 7.05C13.56 7.06 13.54 7.07 13.53 7.07C13.52 7.08 13.5 7.09 13.49 7.1ZM2.86 13.18C3 13.03 3.15 12.88 3.31 12.73C3.47 12.59 3.63 12.45 3.8 12.33C3.97 12.2 4.15 12.08 4.33 11.96C4.51 11.85 4.7 11.74 4.9 11.64C5.1 11.55 5.3 11.46 5.5 11.38C5.71 11.3 5.92 11.22 6.14 11.16C6.35 11.1 6.57 11.05 6.8 11.01C7.22 10.93 7.65 10.88 8.09 10.88C8.01 10.49 7.96 10.08 7.96 9.66C3.63 9.77 0.14 13.04 0 17.11L0 18.33C0.02 18.62 0.14 18.89 0.34 19.09C0.56 19.31 0.85 19.43 1.16 19.43L15.22 19.43C15.52 19.43 15.82 19.31 16.04 19.09C16.24 18.89 16.36 18.62 16.38 18.33L16.38 17.11L16.37 17.11C16.35 16.35 16.2 15.62 15.96 14.93Q15.405 15.17 14.79 15.29L14.8 15.3C14.87 15.49 14.93 15.69 14.98 15.9C15.08 16.3 15.14 16.72 15.15 17.15L15.15 18.21L1.22 18.21L1.22 17.15C1.24 16.73 1.3 16.31 1.4 15.9C1.45 15.69 1.51 15.5 1.58 15.3C1.65 15.11 1.73 14.91 1.82 14.73C1.91 14.54 2.01 14.36 2.11 14.18C2.22 14 2.34 13.83 2.46 13.67C2.59 13.5 2.72 13.34 2.86 13.18Z" /></g></g></svg>