<svg xmlns="http://www.w3.org/2000/svg" xmlns:xlink="http://www.w3.org/1999/xlink" width="22" height="22" viewBox="0 0 22 22" fill="none"><defs><rect id="path_0" x="0" y="0" width="22" height="22" /></defs><g opacity="1" transform="translate(0 0)  rotate(0 11 11)"><mask id="bg-mask-0" fill="white"><use xlink:href="#path_0"></use></mask><g mask="url(#bg-mask-0)" ><path id="圆形 1 (轮廓)" fill-rule="evenodd" style="fill:#000000" transform="translate(7.577777777777776 3.666666666666668)  rotate(0 3.4833333333333334 3.4833333333333334)" opacity="1" d="M6.97 3.48C6.97 5.41 5.41 6.97 3.48 6.97C1.56 6.97 0 5.41 0 3.48C0 1.56 1.56 0 3.48 0C5.41 0 6.97 1.56 6.97 3.48ZM5.7 3.94C5.73 3.79 5.74 3.64 5.74 3.48C5.74 3.33 5.73 3.18 5.7 3.03C5.67 2.88 5.63 2.74 5.57 2.6C5.51 2.47 5.44 2.34 5.36 2.22C5.28 2.1 5.19 1.99 5.08 1.88C4.98 1.78 4.87 1.69 4.75 1.61C4.63 1.53 4.5 1.46 4.36 1.4C4.23 1.34 4.09 1.3 3.94 1.27C3.79 1.24 3.64 1.22 3.48 1.22C3.33 1.22 3.18 1.24 3.03 1.27C2.88 1.3 2.74 1.34 2.6 1.4C2.47 1.46 2.34 1.53 2.22 1.61C2.1 1.69 1.99 1.78 1.88 1.88C1.78 1.99 1.69 2.1 1.61 2.22C1.53 2.34 1.46 2.47 1.4 2.6C1.34 2.74 1.3 2.88 1.27 3.03C1.24 3.18 1.22 3.33 1.22 3.48C1.22 3.64 1.24 3.79 1.27 3.94C1.3 4.09 1.34 4.23 1.4 4.36C1.46 4.5 1.53 4.63 1.61 4.75C1.69 4.87 1.78 4.98 1.88 5.08C1.99 5.19 2.1 5.28 2.22 5.36C2.34 5.44 2.47 5.51 2.6 5.57C2.74 5.63 2.88 5.67 3.03 5.7C3.18 5.73 3.33 5.74 3.48 5.74C3.64 5.74 3.79 5.73 3.94 5.7C4.09 5.67 4.23 5.63 4.36 5.57C4.5 5.51 4.63 5.44 4.75 5.36C4.87 5.28 4.98 5.19 5.08 5.08C5.19 4.98 5.28 4.87 5.36 4.75C5.44 4.63 5.51 4.5 5.57 4.36C5.63 4.23 5.67 4.09 5.7 3.94Z" /><path id="_形状结合 (轮廓)" fill-rule="evenodd" style="fill:#000000" transform="translate(3.055555555555557 1.3447500000000066)  rotate(0 7.944444444444444 9.676944444444443)" opacity="1" d="M0 9.05L0 4.8C0 4.04 0.44 3.35 1.12 3.01L6.79 0.26C7.52 -0.09 8.37 -0.09 9.1 0.26L14.77 3.01C15.45 3.35 15.89 4.04 15.89 4.8L15.89 9.05C15.89 13.7 12.93 17.75 8.61 19.24C8.6 19.24 8.58 19.25 8.55 19.26C8.16 19.39 7.73 19.39 7.34 19.26L7.31 19.25L7.28 19.24C2.96 17.75 0 13.7 0 9.05ZM8.22 18.08C8.69 17.92 9.15 17.72 9.59 17.49C10.02 17.25 10.44 16.99 10.84 16.69C11.23 16.4 11.59 16.08 11.94 15.73C12.28 15.38 12.59 15.01 12.88 14.62C13.16 14.22 13.41 13.8 13.63 13.37C13.86 12.93 14.04 12.48 14.2 12.01C14.35 11.54 14.47 11.06 14.55 10.57C14.63 10.06 14.67 9.56 14.67 9.05L14.67 4.8C14.67 4.73 14.66 4.66 14.64 4.59C14.62 4.52 14.59 4.46 14.55 4.4C14.51 4.34 14.47 4.28 14.41 4.23C14.36 4.18 14.3 4.14 14.24 4.11L8.57 1.36C8.47 1.32 8.37 1.28 8.26 1.26C8.16 1.23 8.05 1.22 7.94 1.22C7.84 1.22 7.73 1.23 7.63 1.26C7.52 1.28 7.42 1.32 7.32 1.37L1.65 4.11L1.47 4.23C1.42 4.28 1.38 4.34 1.34 4.4C1.3 4.46 1.27 4.52 1.25 4.59C1.23 4.66 1.22 4.73 1.22 4.8L1.22 9.05C1.22 9.56 1.26 10.06 1.34 10.57C1.42 11.06 1.54 11.54 1.69 12.01C1.84 12.48 2.03 12.93 2.25 13.37C2.48 13.8 2.73 14.22 3.01 14.62C3.3 15.01 3.61 15.38 3.95 15.73C4.3 16.08 4.66 16.4 5.05 16.7C5.45 16.99 5.87 17.26 6.3 17.49C6.75 17.72 7.21 17.92 7.68 18.09L7.69 18.09L7.72 18.1C7.79 18.12 7.87 18.13 7.94 18.13C8.02 18.13 8.09 18.12 8.16 18.1C8.18 18.09 8.2 18.09 8.22 18.08Z" /><path id="交集 (轮廓)" fill-rule="evenodd" style="fill:#000000" transform="translate(4.652568223741319 11.488888888888894)  rotate(0 6.3877 4.604875)" opacity="1" d="M6.41 0C9.4 0 11.94 1.86 12.78 4.42C11.49 6.57 9.47 8.25 7.01 9.1C7 9.1 6.98 9.11 6.95 9.12C6.56 9.24 6.14 9.24 5.74 9.12L5.71 9.1L5.69 9.1C3.27 8.27 1.29 6.64 0 4.55C0.79 1.92 3.36 0 6.41 0ZM8.18 1.49C7.9 1.41 7.61 1.34 7.32 1.29C7.02 1.25 6.72 1.22 6.41 1.22C6.1 1.22 5.79 1.25 5.48 1.29C5.19 1.34 4.89 1.41 4.61 1.5C4.33 1.59 4.06 1.71 3.8 1.84C3.55 1.97 3.3 2.11 3.07 2.28C2.84 2.45 2.63 2.63 2.43 2.82C2.24 3.02 2.06 3.23 1.9 3.45C1.73 3.67 1.59 3.9 1.47 4.15C1.43 4.23 1.39 4.31 1.36 4.39C1.4 4.45 1.45 4.52 1.5 4.58Q1.74 4.91 2.01 5.21C2.19 5.42 2.38 5.61 2.57 5.8C2.77 5.99 2.98 6.17 3.19 6.34C3.4 6.51 3.62 6.68 3.85 6.83C4.08 6.98 4.31 7.13 4.55 7.26C5.04 7.53 5.55 7.76 6.09 7.94L6.1 7.94L6.12 7.95C6.2 7.98 6.27 7.99 6.35 7.99C6.42 7.99 6.49 7.98 6.57 7.96C6.58 7.95 6.6 7.94 6.62 7.94C6.89 7.85 7.15 7.74 7.41 7.62C7.67 7.51 7.93 7.38 8.17 7.24C8.42 7.1 8.66 6.96 8.89 6.8C9.12 6.64 9.35 6.47 9.56 6.3C9.78 6.12 9.98 5.94 10.18 5.74C10.38 5.55 10.57 5.35 10.75 5.14C10.94 4.93 11.11 4.71 11.27 4.48C11.32 4.42 11.36 4.35 11.41 4.28C11.38 4.21 11.34 4.13 11.3 4.06C11.18 3.82 11.03 3.6 10.87 3.38C10.71 3.17 10.53 2.96 10.33 2.77C10.14 2.58 9.92 2.41 9.7 2.25C9.47 2.09 9.23 1.94 8.97 1.82C8.72 1.69 8.45 1.58 8.18 1.49Z" /></g></g></svg>