<svg xmlns="http://www.w3.org/2000/svg" xmlns:xlink="http://www.w3.org/1999/xlink" width="22" height="22" viewBox="0 0 22 22" fill="none"><defs><rect id="path_0" x="0" y="0" width="22" height="22" /></defs><g opacity="1" transform="translate(0 0)  rotate(0 11 11)"><mask id="bg-mask-0" fill="white"><use xlink:href="#path_0"></use></mask><g mask="url(#bg-mask-0)" ><path id="并集" fill-rule="evenodd" style="fill:#000000" transform="translate(2.81111111111111 1.344444444444445)  rotate(0 8.188888888888888 9.657627529568142)" opacity="1" d="M8.19 8.56C5.83 8.56 3.91 6.64 3.91 4.28C3.91 1.92 5.83 0 8.19 0C10.55 0 12.47 1.92 12.47 4.28C12.47 6.64 10.55 8.56 8.19 8.56ZM5.65 2.57C5.54 2.73 5.45 2.91 5.37 3.09C5.29 3.27 5.24 3.46 5.2 3.66C5.15 3.86 5.13 4.07 5.13 4.28C5.13 4.49 5.15 4.69 5.2 4.89C5.24 5.09 5.29 5.28 5.37 5.47C5.45 5.65 5.54 5.82 5.65 5.99C5.76 6.15 5.89 6.3 6.03 6.44C6.17 6.58 6.32 6.7 6.48 6.81C6.65 6.92 6.82 7.02 7 7.09Q7.27 7.21 7.57 7.27C7.77 7.31 7.98 7.33 8.19 7.33C8.4 7.33 8.6 7.31 8.81 7.27C9 7.23 9.19 7.17 9.38 7.09C9.56 7.02 9.73 6.92 9.9 6.81C10.06 6.7 10.21 6.58 10.35 6.44C10.49 6.3 10.61 6.15 10.72 5.99C10.83 5.82 10.93 5.65 11 5.47C11.08 5.28 11.14 5.09 11.18 4.89C11.22 4.69 11.24 4.49 11.24 4.28C11.24 4.07 11.22 3.86 11.18 3.66C11.14 3.46 11.08 3.27 11 3.09C10.93 2.91 10.83 2.73 10.72 2.57C10.61 2.41 10.49 2.26 10.35 2.12C10.21 1.98 10.06 1.85 9.9 1.74C9.73 1.63 9.56 1.54 9.38 1.46C9.19 1.38 9 1.32 8.81 1.28C8.6 1.24 8.4 1.22 8.19 1.22C7.98 1.22 7.77 1.24 7.57 1.28C7.37 1.32 7.18 1.38 7 1.46C6.82 1.54 6.65 1.63 6.48 1.74C6.32 1.85 6.17 1.98 6.03 2.12C5.89 2.26 5.76 2.41 5.65 2.57ZM16.37 16.99C16.23 12.85 12.62 9.53 8.19 9.53C3.75 9.53 0.14 12.85 0 16.99L0 18.21C0.02 18.5 0.14 18.77 0.34 18.97C0.56 19.19 0.85 19.31 1.16 19.31L14.95 19.31C15.13 19.32 15.31 19.31 15.48 19.28C15.69 19.23 15.88 19.13 16.04 18.97C16.24 18.77 16.36 18.5 16.38 18.21L16.38 16.99L16.37 16.99ZM5.5 11.26C5.71 11.17 5.92 11.1 6.14 11.04C6.35 10.98 6.57 10.93 6.8 10.89C7.25 10.8 7.72 10.76 8.19 10.76C8.66 10.76 9.13 10.8 9.58 10.89C9.8 10.93 10.02 10.98 10.24 11.04C10.46 11.1 10.67 11.17 10.88 11.26C11.08 11.33 11.28 11.42 11.48 11.52C11.67 11.62 11.86 11.72 12.05 11.84C12.23 11.95 12.41 12.07 12.58 12.2C12.75 12.33 12.91 12.47 13.07 12.61C13.22 12.75 13.37 12.9 13.51 13.06C13.66 13.21 13.79 13.37 13.91 13.54C14.04 13.71 14.15 13.88 14.26 14.06C14.37 14.24 14.47 14.42 14.56 14.6C14.65 14.79 14.73 14.98 14.8 15.18C14.87 15.37 14.93 15.57 14.98 15.77C15.08 16.18 15.14 16.6 15.15 17.02C15.15 17.05 15.15 17.07 15.16 17.09L15.16 17.59C15.16 17.87 14.93 18.09 14.66 18.09L1.72 18.09C1.45 18.09 1.22 17.86 1.22 17.59L1.22 17.03C1.24 16.6 1.3 16.19 1.4 15.77C1.45 15.57 1.51 15.37 1.58 15.18C1.65 14.98 1.73 14.79 1.82 14.61C1.91 14.42 2.01 14.24 2.11 14.06C2.22 13.88 2.34 13.71 2.46 13.54C2.59 13.38 2.72 13.21 2.86 13.06C3 12.9 3.15 12.75 3.31 12.61C3.46 12.47 3.63 12.33 3.8 12.2C3.97 12.07 4.15 11.95 4.33 11.84C4.51 11.73 4.7 11.62 4.9 11.52C5.1 11.42 5.3 11.33 5.5 11.26Z" /></g></g></svg>