<svg xmlns="http://www.w3.org/2000/svg" xmlns:xlink="http://www.w3.org/1999/xlink" width="22" height="22" viewBox="0 0 22 22" fill="none"><defs><rect id="path_0" x="0" y="0" width="22" height="22" /></defs><g opacity="1" transform="translate(0 0)  rotate(0 11 11)"><mask id="bg-mask-0" fill="white"><use xlink:href="#path_0"></use></mask><g mask="url(#bg-mask-0)" ><path id="并集 (轮廓)" fill-rule="evenodd" style="fill:#000000" transform="translate(2.81111111111111 1.344444444444445)  rotate(0 8.18934722222222 9.716666666666667)" opacity="1" d="M5.4 3.02C5.45 2.91 5.51 2.8 5.58 2.69C5.6 2.65 5.63 2.61 5.65 2.57C5.76 2.41 5.89 2.26 6.03 2.12C6.17 1.98 6.32 1.85 6.48 1.74C6.52 1.72 6.56 1.69 6.6 1.67C6.71 1.6 6.82 1.54 6.93 1.49C6.95 1.48 6.98 1.47 7 1.46C7.09 1.42 7.19 1.39 7.29 1.36C7.38 1.33 7.48 1.3 7.57 1.28Q7.84 1.235 8.11 1.22L8.31 1.22C8.48 1.23 8.64 1.25 8.81 1.28C8.9 1.3 8.98 1.32 9.07 1.35C9.17 1.38 9.28 1.42 9.38 1.46C9.4 1.47 9.42 1.48 9.45 1.49C9.56 1.54 9.67 1.6 9.77 1.66C9.81 1.69 9.86 1.72 9.9 1.74C10.06 1.85 10.21 1.98 10.35 2.12C10.46 2.22 10.55 2.34 10.64 2.46C11.2 2.5 11.72 2.63 12.21 2.83C12.07 2.43 11.87 2.06 11.63 1.73C11.51 1.58 11.39 1.43 11.26 1.3C11.02 1.05 10.75 0.83 10.46 0.65C10.3 0.55 10.13 0.46 9.96 0.38C9.8 0.31 9.63 0.25 9.46 0.19C9.08 0.07 8.67 0.01 8.24 0L8.1 0Q7.5 0.015 6.96 0.18C6.78 0.23 6.61 0.3 6.44 0.37C6.29 0.44 6.13 0.52 5.99 0.61C5.41 0.96 4.92 1.44 4.56 2.01C4.46 2.17 4.37 2.34 4.29 2.51C4.22 2.67 4.16 2.83 4.1 3C3.99 3.36 3.93 3.73 3.91 4.11L3.91 4.28C3.91 4.34 3.91 4.4 3.92 4.46C3.93 4.82 3.99 5.17 4.09 5.5C4.12 5.59 4.14 5.68 4.18 5.77C4.21 5.86 4.25 5.94 4.29 6.03C4.5 6.5 4.79 6.92 5.15 7.28C5.18 6.73 5.3 6.2 5.49 5.71C5.46 5.65 5.43 5.6 5.4 5.54C5.39 5.51 5.38 5.49 5.37 5.47C5.33 5.37 5.3 5.28 5.27 5.18C5.24 5.08 5.22 4.99 5.2 4.89C5.16 4.7 5.14 4.51 5.13 4.32L5.13 4.21C5.14 4.02 5.16 3.84 5.2 3.66C5.22 3.56 5.24 3.47 5.27 3.38C5.3 3.28 5.33 3.18 5.37 3.09C5.38 3.07 5.39 3.04 5.4 3.02ZM6.48 7.33C6.48 5.44 8.01 3.91 9.9 3.91C11.79 3.91 13.32 5.44 13.32 7.33C13.32 8.76 12.44 9.99 11.2 10.5C10.8 10.67 10.36 10.76 9.9 10.76C9.43 10.76 8.98 10.66 8.57 10.49C7.34 9.97 6.48 8.75 6.48 7.33ZM8.34 8.89C8.44 8.99 8.55 9.08 8.67 9.16C8.79 9.24 8.91 9.31 9.04 9.36C9.18 9.42 9.31 9.46 9.46 9.49C9.6 9.52 9.75 9.53 9.9 9.53C10.05 9.53 10.2 9.52 10.34 9.49C10.49 9.46 10.62 9.42 10.76 9.36C10.89 9.31 11.01 9.24 11.13 9.16C11.25 9.08 11.36 8.99 11.46 8.89C11.56 8.79 11.65 8.68 11.72 8.56C11.8 8.44 11.87 8.32 11.93 8.19C11.98 8.06 12.03 7.92 12.06 7.78C12.09 7.63 12.1 7.48 12.1 7.33C12.1 7.18 12.09 7.03 12.06 6.89C12.03 6.75 11.98 6.61 11.93 6.48C11.87 6.35 11.8 6.22 11.72 6.1C11.65 5.99 11.56 5.88 11.46 5.78C11.36 5.68 11.25 5.59 11.13 5.51C11.01 5.43 10.89 5.36 10.76 5.31C10.62 5.25 10.49 5.21 10.34 5.18C10.2 5.15 10.05 5.13 9.9 5.13C9.75 5.13 9.6 5.15 9.46 5.18C9.31 5.21 9.18 5.25 9.04 5.31C8.91 5.36 8.79 5.43 8.67 5.51C8.55 5.59 8.44 5.68 8.34 5.78C8.24 5.88 8.15 5.99 8.08 6.1C8 6.22 7.93 6.35 7.87 6.48C7.82 6.61 7.77 6.75 7.74 6.89C7.71 7.03 7.7 7.18 7.7 7.33C7.7 7.48 7.71 7.63 7.74 7.78C7.77 7.92 7.82 8.06 7.87 8.19C7.93 8.32 8 8.44 8.08 8.56C8.15 8.68 8.24 8.79 8.34 8.89ZM1.22 17.18L1.22 17.71C1.22 17.99 1.45 18.21 1.72 18.21L2.2 18.21L2.2 19.43L1.16 19.43C1.1 19.43 1.04 19.43 0.98 19.42C0.74 19.38 0.51 19.27 0.34 19.09C0.14 18.89 0.02 18.62 0 18.33L0 17.11C0.03 16.23 0.22 15.38 0.54 14.59L0.6 14.47C0.69 14.25 0.79 14.03 0.91 13.83C0.94 13.76 0.98 13.7 1.02 13.64L1.14 13.43C1.16 13.41 1.17 13.39 1.19 13.36C1.51 12.85 1.91 12.38 2.35 11.96C2.38 11.93 2.41 11.9 2.45 11.87C2.48 11.84 2.51 11.81 2.55 11.78C2.61 11.72 2.68 11.66 2.75 11.6C2.77 11.59 2.79 11.57 2.81 11.55C2.83 11.53 2.85 11.52 2.87 11.5C2.96 11.43 3.06 11.35 3.16 11.28C3.18 11.26 3.21 11.24 3.24 11.22L3.69 10.92C3.7 10.92 3.71 10.91 3.71 10.91C3.73 10.89 3.75 10.88 3.78 10.87C3.9 10.79 4.03 10.72 4.16 10.65C4.17 10.64 4.19 10.64 4.2 10.63C4.22 10.62 4.25 10.61 4.27 10.59C4.36 10.54 4.46 10.5 4.56 10.45C4.58 10.44 4.59 10.44 4.61 10.43C4.87 10.31 5.15 10.2 5.42 10.11C5.44 10.1 5.47 10.09 5.49 10.09C5.57 10.06 5.66 10.03 5.75 10C5.96 10.39 6.21 10.75 6.51 11.07C6.45 11.08 6.4 11.09 6.34 11.11C6.27 11.13 6.2 11.14 6.14 11.16C6.12 11.17 6.11 11.17 6.1 11.17L6.1 11.18C6.02 11.2 5.94 11.22 5.87 11.25L5.85 11.25C5.74 11.29 5.62 11.33 5.5 11.38C5.42 11.41 5.34 11.44 5.25 11.48C5.23 11.49 5.2 11.5 5.17 11.52C5.14 11.53 5.1 11.55 5.07 11.56C5.01 11.59 4.96 11.62 4.9 11.64C4.88 11.66 4.85 11.67 4.83 11.68L4.77 11.71C4.76 11.72 4.74 11.72 4.73 11.73C4.62 11.79 4.5 11.86 4.39 11.92C4.37 11.94 4.35 11.95 4.34 11.96L4.33 11.96C4.2 12.04 4.07 12.13 3.94 12.22C3.93 12.23 3.92 12.23 3.91 12.24C3.87 12.27 3.84 12.3 3.8 12.33C3.72 12.38 3.65 12.44 3.57 12.51C3.48 12.58 3.39 12.66 3.31 12.73C3.25 12.79 3.18 12.85 3.12 12.91C3.03 13 2.95 13.09 2.86 13.18C2.72 13.34 2.59 13.5 2.46 13.67C2.38 13.77 2.31 13.88 2.23 13.99C2.22 14.02 2.2 14.05 2.18 14.08C2.16 14.11 2.14 14.15 2.11 14.18L2.07 14.25C2.04 14.3 2.02 14.35 1.99 14.4C1.93 14.5 1.87 14.62 1.82 14.73C1.73 14.91 1.65 15.11 1.58 15.3C1.51 15.5 1.45 15.69 1.4 15.9C1.3 16.31 1.24 16.73 1.23 17.15C1.23 17.16 1.22 17.17 1.22 17.18ZM11.71 11.87C11.85 11.91 11.99 11.95 12.12 12C12.32 12.07 12.51 12.15 12.7 12.23C13 12.37 13.3 12.54 13.57 12.72C13.75 12.83 13.91 12.95 14.07 13.08C14.42 13.36 14.74 13.67 15.02 14.02C15.76 14.93 16.24 16.04 16.36 17.25C16.37 17.41 16.38 17.56 16.38 17.71L16.38 18.52C16.38 18.76 16.28 18.99 16.11 19.16C15.94 19.34 15.7 19.43 15.46 19.43L4.22 19.43C3.97 19.43 3.74 19.34 3.57 19.16C3.51 19.11 3.46 19.04 3.42 18.97C3.34 18.84 3.3 18.68 3.3 18.52L3.3 17.68C3.3 17.54 3.31 17.41 3.32 17.28L3.32 17.26C3.38 16.62 3.54 16 3.79 15.43C4.13 14.66 4.63 13.97 5.24 13.4C5.3 13.34 5.37 13.28 5.43 13.23C6.27 12.5 7.31 11.98 8.46 11.75C8.88 11.66 9.31 11.62 9.76 11.61L9.95 11.61C10.41 11.62 10.86 11.67 11.29 11.76C11.43 11.79 11.57 11.83 11.71 11.87ZM15 16.58C14.92 16.31 14.83 16.04 14.7 15.79C14.57 15.5 14.41 15.23 14.21 14.97C14.08 14.8 13.94 14.63 13.79 14.48C13.72 14.4 13.65 14.33 13.57 14.26C13.45 14.15 13.34 14.05 13.21 13.96C13.12 13.89 13.02 13.82 12.93 13.76C12.88 13.73 12.84 13.7 12.79 13.67C12.56 13.53 12.33 13.4 12.09 13.3C12.02 13.27 11.96 13.24 11.89 13.22C11.57 13.09 11.24 13 10.9 12.93C10.6 12.87 10.29 12.84 9.97 12.83L9.77 12.83C9.43 12.84 9.1 12.87 8.77 12.93C8.43 13 8.1 13.09 7.78 13.22C7.47 13.34 7.17 13.49 6.89 13.67C6.66 13.81 6.44 13.97 6.24 14.14C6.2 14.18 6.15 14.22 6.11 14.26C6.09 14.27 6.08 14.29 6.06 14.31C5.84 14.51 5.64 14.73 5.46 14.97C5.27 15.23 5.11 15.5 4.97 15.79C4.96 15.82 4.94 15.85 4.93 15.88C4.81 16.14 4.72 16.41 4.65 16.68C4.6 16.91 4.56 17.15 4.54 17.39C4.53 17.44 4.53 17.5 4.52 17.56L4.52 17.92C4.52 18.08 4.65 18.21 4.82 18.21L14.86 18.21C15.02 18.21 15.16 18.08 15.16 17.92L15.16 17.69C15.16 17.64 15.15 17.6 15.15 17.56C15.15 17.46 15.14 17.37 15.13 17.28C15.11 17.08 15.07 16.88 15.02 16.68C15.02 16.65 15.01 16.61 15 16.58Z" /></g></g></svg>