<svg xmlns="http://www.w3.org/2000/svg" xmlns:xlink="http://www.w3.org/1999/xlink" width="22" height="22" viewBox="0 0 22 22" fill="none"><defs><rect id="path_0" x="0" y="0" width="22" height="22" /></defs><g opacity="1" transform="translate(0 0)  rotate(0 11 11)"><mask id="bg-mask-0" fill="white"><use xlink:href="#path_0"></use></mask><g mask="url(#bg-mask-0)" ><path id="并集" fill-rule="evenodd" style="fill:#000000" transform="translate(1.344444444444445 1.3444444444444439)  rotate(0 9.655555555555555 9.655555555555555)" opacity="1" d="M3.64 17.21C3.47 17.08 3.31 16.94 3.15 16.79C1.22 15.03 0 12.48 0 9.66C0 4.32 4.32 0 9.66 0C14.99 0 19.31 4.32 19.31 9.66C19.31 12.38 18.19 14.83 16.38 16.59C16.37 16.59 16.37 16.59 16.37 16.6C16.19 16.77 16.01 16.93 15.82 17.09C15.79 17.11 15.75 17.14 15.72 17.17C14.06 18.51 11.95 19.31 9.66 19.31C9.49 19.31 9.32 19.31 9.16 19.3C7.08 19.19 5.17 18.43 3.64 17.21ZM18.04 8.79C18.02 8.51 17.97 8.23 17.92 7.95C17.86 7.68 17.79 7.41 17.71 7.15C17.63 6.88 17.53 6.63 17.43 6.37C17.32 6.12 17.2 5.88 17.07 5.64C16.94 5.4 16.8 5.17 16.65 4.94C16.5 4.72 16.34 4.5 16.16 4.29C15.99 4.08 15.81 3.88 15.62 3.69C15.43 3.5 15.23 3.32 15.02 3.15C14.81 2.97 14.59 2.81 14.37 2.66C14.14 2.51 13.91 2.37 13.67 2.24C13.43 2.11 13.19 1.99 12.94 1.88C12.68 1.78 12.43 1.68 12.16 1.6C11.9 1.52 11.63 1.45 11.36 1.39C11.08 1.34 10.8 1.29 10.52 1.27C10.23 1.24 9.95 1.22 9.66 1.22C9.37 1.22 9.08 1.24 8.79 1.27C8.51 1.29 8.23 1.34 7.95 1.39C7.68 1.45 7.41 1.52 7.15 1.6C6.88 1.68 6.63 1.78 6.37 1.88C6.12 1.99 5.88 2.11 5.64 2.24C5.4 2.37 5.17 2.51 4.94 2.66C4.72 2.81 4.5 2.97 4.29 3.15Q3.975 3.405 3.69 3.69Q3.405 3.975 3.15 4.29C2.97 4.5 2.81 4.72 2.66 4.94C2.51 5.17 2.37 5.4 2.24 5.64C2.11 5.88 1.99 6.12 1.88 6.37C1.78 6.63 1.68 6.88 1.6 7.15C1.52 7.41 1.45 7.68 1.39 7.95C1.34 8.23 1.29 8.51 1.27 8.79C1.24 9.08 1.22 9.37 1.22 9.66C1.22 9.95 1.24 10.23 1.27 10.52C1.29 10.8 1.34 11.08 1.39 11.36C1.45 11.63 1.52 11.9 1.6 12.16C1.68 12.43 1.78 12.68 1.88 12.94C1.99 13.19 2.11 13.43 2.24 13.67C2.37 13.91 2.51 14.14 2.66 14.37C2.81 14.59 2.97 14.81 3.15 15.02C3.17 15.04 3.18 15.06 3.2 15.09C3.85 12.26 6.52 10.14 9.72 10.14C12.87 10.14 15.51 12.21 16.2 14.97C16.36 14.78 16.51 14.58 16.65 14.37C16.8 14.14 16.94 13.91 17.07 13.67C17.2 13.43 17.32 13.19 17.43 12.94C17.53 12.68 17.63 12.43 17.71 12.16C17.79 11.9 17.86 11.63 17.92 11.36C17.97 11.08 18.02 10.8 18.04 10.52C18.07 10.23 18.09 9.95 18.09 9.66C18.09 9.37 18.07 9.08 18.04 8.79ZM6.23 5.81C6.23 3.88 7.79 2.32 9.72 2.32C11.64 2.32 13.2 3.88 13.2 5.81C13.2 7.73 11.64 9.29 9.72 9.29C7.79 9.29 6.23 7.73 6.23 5.81ZM8.45 3.93C8.58 3.85 8.7 3.78 8.84 3.72C8.97 3.66 9.11 3.62 9.26 3.59C9.41 3.56 9.56 3.54 9.72 3.54C9.87 3.54 10.02 3.56 10.17 3.59C10.32 3.62 10.46 3.66 10.6 3.72C10.73 3.78 10.86 3.85 10.98 3.93C11.1 4.01 11.21 4.1 11.32 4.21C11.42 4.31 11.51 4.42 11.59 4.54C11.67 4.66 11.74 4.79 11.8 4.93C11.86 5.06 11.9 5.2 11.93 5.35C11.96 5.5 11.98 5.65 11.98 5.81C11.98 5.96 11.96 6.11 11.93 6.26C11.9 6.41 11.86 6.55 11.8 6.69C11.74 6.82 11.67 6.95 11.59 7.07C11.51 7.19 11.42 7.3 11.32 7.4C11.21 7.51 11.1 7.6 10.98 7.68C10.86 7.76 10.73 7.83 10.6 7.89C10.46 7.95 10.32 7.99 10.17 8.02C10.02 8.05 9.87 8.07 9.72 8.07C9.56 8.07 9.41 8.05 9.26 8.02C9.11 7.99 8.97 7.95 8.84 7.89C8.7 7.83 8.58 7.76 8.45 7.68C8.33 7.6 8.22 7.51 8.12 7.4C8.02 7.3 7.92 7.19 7.84 7.07C7.76 6.95 7.69 6.82 7.63 6.69C7.58 6.55 7.53 6.41 7.5 6.26C7.47 6.11 7.46 5.96 7.46 5.81C7.46 5.65 7.47 5.5 7.5 5.35C7.53 5.2 7.58 5.06 7.63 4.93C7.69 4.79 7.76 4.66 7.84 4.54C7.92 4.42 8.02 4.31 8.12 4.21C8.22 4.1 8.33 4.01 8.45 3.93ZM7.11 17.7C7.16 17.71 7.2 17.73 7.25 17.74C7.5 17.82 7.76 17.88 8.03 17.93C8.1 17.95 8.18 17.96 8.26 17.97C8.44 18 8.61 18.03 8.79 18.04C8.8 18.05 8.81 18.05 8.82 18.05L8.85 18.05C9.11 18.08 9.38 18.09 9.66 18.09C9.95 18.09 10.23 18.07 10.52 18.04C10.72 18.03 10.91 18 11.11 17.96C11.18 17.95 11.25 17.94 11.32 17.92C11.59 17.87 11.86 17.8 12.12 17.72L12.14 17.72C12.15 17.72 12.16 17.71 12.16 17.71C12.43 17.63 12.68 17.53 12.94 17.43C13.16 17.33 13.37 17.23 13.59 17.12L13.6 17.11C13.84 16.99 14.07 16.85 14.29 16.7C14.31 16.69 14.34 16.67 14.36 16.66C14.36 16.65 14.37 16.65 14.37 16.65C14.38 16.64 14.39 16.63 14.4 16.63C14.58 16.5 14.76 16.37 14.93 16.23C14.99 16.18 15.06 16.13 15.12 16.08C15.13 16.07 15.14 16.07 15.14 16.06C15.12 15.78 15.08 15.5 15.01 15.23C14.93 14.92 14.81 14.62 14.67 14.33C14.53 14.04 14.36 13.77 14.17 13.51C13.97 13.26 13.75 13.02 13.51 12.8C13.26 12.58 13 12.38 12.72 12.2C12.43 12.03 12.12 11.88 11.81 11.75C11.48 11.63 11.14 11.53 10.8 11.47C10.44 11.4 10.08 11.37 9.72 11.37C9.35 11.37 8.99 11.4 8.63 11.47C8.29 11.53 7.95 11.63 7.63 11.75C7.31 11.88 7.01 12.03 6.72 12.2C6.43 12.38 6.17 12.58 5.92 12.8C5.68 13.02 5.46 13.26 5.26 13.51C5.07 13.77 4.9 14.04 4.76 14.33C4.62 14.62 4.51 14.92 4.43 15.23C4.35 15.53 4.3 15.84 4.28 16.16C4.29 16.16 4.3 16.17 4.3 16.17C4.33 16.19 4.35 16.21 4.38 16.23C4.41 16.26 4.45 16.29 4.48 16.32C4.63 16.43 4.78 16.54 4.93 16.64L4.94 16.65C5.17 16.8 5.4 16.94 5.64 17.07C5.88 17.2 6.12 17.32 6.37 17.43C6.62 17.53 6.86 17.62 7.11 17.7Z" /></g></g></svg>