<svg xmlns="http://www.w3.org/2000/svg" xmlns:xlink="http://www.w3.org/1999/xlink" width="22" height="22.000000000000455" viewBox="0 0 22 22.000000000000455" fill="none"><defs><rect id="path_0" x="0" y="0" width="22" height="22.000000000000394" /></defs><g opacity="1" transform="translate(0 0)  rotate(0 11 11.000000000000197)"><mask id="bg-mask-0" fill="white"><use xlink:href="#path_0"></use></mask><g mask="url(#bg-mask-0)" ><path id="并集 (轮廓)" fill-rule="evenodd" style="fill:#000000" transform="translate(0.22000000000003994 3.4222222222222842)  rotate(0 10.779847222222223 7.702031193798664)" opacity="1" d="M3.2 8.97C3.48 9.14 3.86 9.1 4.1 8.86L4.42 8.54L4.42 13.94C4.42 14.75 5.08 15.4 5.89 15.4L15.67 15.4C16.48 15.4 17.14 14.75 17.14 13.94L17.14 8.54L17.46 8.86C17.7 9.1 18.08 9.14 18.36 8.96C18.41 8.93 18.45 8.9 18.49 8.86L21.35 6.01C21.63 5.72 21.63 5.25 21.35 4.97L16.81 0.43C16.49 0.12 16.07 -0.03 15.66 0L13.53 0L13.53 0.15C13.49 1.63 12.27 2.82 10.78 2.82C9.26 2.82 8.03 1.58 8.03 0.07L8.03 0L5.89 0C5.49 -0.02 5.07 0.12 4.75 0.43L0.22 4.97C-0.07 5.26 -0.07 5.72 0.22 6.01L3.07 8.86C3.11 8.9 3.15 8.94 3.2 8.97ZM10.78 4.04C11.05 4.04 11.32 4.01 11.58 3.96C11.84 3.9 12.09 3.83 12.33 3.72C12.56 3.62 12.79 3.5 13 3.36C13.21 3.22 13.41 3.05 13.59 2.87C13.77 2.69 13.93 2.5 14.07 2.29C14.22 2.07 14.34 1.85 14.44 1.61C14.49 1.49 14.54 1.36 14.58 1.23L15.7 1.23L15.75 1.22L15.8 1.22C15.82 1.23 15.84 1.23 15.85 1.24C15.89 1.25 15.91 1.27 15.94 1.29L20.14 5.49L17.97 7.65L15.91 5.59L15.91 13.94C15.91 13.97 15.91 14 15.89 14.03C15.88 14.06 15.87 14.09 15.84 14.11C15.82 14.13 15.79 14.15 15.76 14.16C15.73 14.18 15.7 14.18 15.67 14.18L5.89 14.18C5.86 14.18 5.83 14.18 5.8 14.16C5.77 14.15 5.74 14.13 5.72 14.11C5.7 14.09 5.68 14.06 5.67 14.03C5.65 14 5.65 13.97 5.65 13.94L5.65 5.59L3.59 7.65L1.43 5.49L5.62 1.29C5.64 1.27 5.67 1.25 5.71 1.24C5.72 1.23 5.74 1.23 5.76 1.23C5.77 1.22 5.79 1.22 5.81 1.22L5.85 1.23L6.98 1.23C7.02 1.36 7.07 1.49 7.12 1.61C7.22 1.85 7.34 2.07 7.49 2.29C7.63 2.5 7.79 2.69 7.97 2.87C8.15 3.05 8.35 3.22 8.56 3.36C8.77 3.5 9 3.62 9.23 3.72C9.48 3.83 9.72 3.9 9.98 3.96C10.24 4.01 10.51 4.04 10.78 4.04Z" /></g></g></svg>