<svg xmlns="http://www.w3.org/2000/svg" xmlns:xlink="http://www.w3.org/1999/xlink" width="22" height="22" viewBox="0 0 22 22" fill="none"><defs><rect id="path_0" x="0" y="0" width="22" height="22" /></defs><g opacity="1" transform="translate(0 0)  rotate(0 11 11)"><mask id="bg-mask-0" fill="white"><use xlink:href="#path_0"></use></mask><g mask="url(#bg-mask-0)" ><path id="_形状结合 (轮廓)" fill-rule="evenodd" style="fill:#000000" transform="translate(3.055555555555557 1.3447500000000066)  rotate(0 7.944444444444444 9.676944444444443)" opacity="1" d="M9.1 0.26L14.77 3.01C15.45 3.35 15.89 4.04 15.89 4.8L15.89 9.05C15.89 13.7 12.93 17.75 8.61 19.24C8.6 19.24 8.58 19.25 8.55 19.26C8.16 19.39 7.73 19.39 7.34 19.26L7.31 19.25L7.28 19.24C2.96 17.75 0 13.7 0 9.05L0 4.8C0 4.04 0.44 3.35 1.12 3.01L6.79 0.26C7.52 -0.09 8.37 -0.09 9.1 0.26ZM7.94 1.22C7.84 1.22 7.73 1.23 7.63 1.26C7.52 1.28 7.42 1.32 7.32 1.36L7.32 1.37L1.65 4.11C1.59 4.14 1.53 4.18 1.47 4.23C1.42 4.28 1.38 4.34 1.34 4.4C1.3 4.46 1.27 4.52 1.25 4.59C1.23 4.66 1.22 4.73 1.22 4.8L1.22 9.05C1.22 9.56 1.26 10.06 1.34 10.57C1.42 11.06 1.54 11.54 1.69 12.01C1.84 12.48 2.03 12.93 2.25 13.37C2.48 13.8 2.73 14.22 3.01 14.62C3.3 15.01 3.61 15.38 3.95 15.73C4.3 16.08 4.66 16.4 5.05 16.7C5.45 16.99 5.87 17.26 6.3 17.49C6.75 17.72 7.21 17.92 7.68 18.09L7.69 18.09L7.72 18.1C7.79 18.12 7.87 18.13 7.94 18.13C8.02 18.13 8.09 18.12 8.16 18.1C8.18 18.09 8.2 18.09 8.22 18.08C8.69 17.92 9.15 17.72 9.59 17.49C10.02 17.25 10.44 16.99 10.84 16.69C11.23 16.4 11.59 16.08 11.94 15.73C12.28 15.38 12.59 15.01 12.88 14.62C13.16 14.22 13.41 13.8 13.63 13.37C13.86 12.93 14.04 12.48 14.2 12.01C14.35 11.54 14.47 11.06 14.55 10.57C14.63 10.06 14.67 9.56 14.67 9.05L14.67 4.8C14.67 4.73 14.66 4.66 14.64 4.59C14.62 4.52 14.59 4.46 14.55 4.4C14.51 4.34 14.47 4.28 14.41 4.23C14.36 4.18 14.3 4.14 14.24 4.11L8.57 1.36C8.47 1.32 8.37 1.28 8.26 1.26C8.16 1.23 8.05 1.22 7.94 1.22Z" /></g></g></svg>