<svg xmlns="http://www.w3.org/2000/svg" xmlns:xlink="http://www.w3.org/1999/xlink" width="22" height="22" viewBox="0 0 22 22" fill="none"><defs><rect id="path_0" x="0" y="0" width="22" height="22" /></defs><g opacity="1" transform="translate(0 0)  rotate(0 11 11)"><mask id="bg-mask-0" fill="white"><use xlink:href="#path_0"></use></mask><g mask="url(#bg-mask-0)" ><path id="并集" fill-rule="evenodd" style="fill:#000000" transform="translate(1.4666666666666668 1.4666666666666668)  rotate(0 9.533333333333333 9.533333333333333)" opacity="1" d="M9.74 0.04C9.75 0.04 9.76 0.04 9.77 0.05C9.78 0.05 9.79 0.06 9.79 0.06C9.8 0.06 9.81 0.07 9.82 0.07L9.85 0.09C9.86 0.09 9.86 0.1 9.87 0.1C9.88 0.11 9.89 0.11 9.9 0.12C9.9 0.13 9.91 0.13 9.92 0.14C9.93 0.15 9.94 0.15 9.94 0.16C9.95 0.17 9.96 0.17 9.97 0.18C9.97 0.19 9.98 0.19 9.99 0.2C9.99 0.21 10 0.22 10.01 0.22C10.01 0.23 10.02 0.24 10.02 0.25C10.03 0.26 10.04 0.26 10.04 0.27C10.05 0.28 10.05 0.29 10.06 0.3L10.07 0.32C10.08 0.33 10.08 0.34 10.09 0.35C10.09 0.36 10.09 0.37 10.1 0.38C10.1 0.39 10.11 0.4 10.11 0.41C10.11 0.41 10.12 0.42 10.12 0.43C10.12 0.44 10.12 0.45 10.13 0.46L10.13 0.49C10.13 0.5 10.14 0.51 10.14 0.52L10.14 0.7C10.14 0.71 10.13 0.72 10.13 0.73L10.13 0.76C10.12 0.77 10.12 0.78 10.12 0.79C10.12 0.8 10.11 0.81 10.11 0.82C10.11 0.83 10.1 0.84 10.1 0.84C10.09 0.85 10.09 0.86 10.09 0.87C10.08 0.88 10.08 0.89 10.07 0.9L10.06 0.93C10.05 0.93 10.05 0.94 10.04 0.95C10.04 0.96 10.03 0.97 10.02 0.98C10.02 0.98 10.01 0.99 10.01 1C10 1.01 9.99 1.01 9.99 1.02L9.97 1.04C9.96 1.05 9.95 1.06 9.94 1.06C9.94 1.07 9.93 1.08 9.92 1.08L9.9 1.1C9.89 1.11 9.88 1.11 9.87 1.12C9.86 1.12 9.86 1.13 9.85 1.14L9.82 1.15C9.81 1.15 9.8 1.16 9.79 1.16C9.79 1.17 9.78 1.17 9.77 1.18C9.76 1.18 9.75 1.18 9.74 1.19C9.73 1.19 9.72 1.19 9.71 1.2L9.68 1.2C9.67 1.21 9.66 1.21 9.65 1.21C9.64 1.21 9.63 1.21 9.62 1.22L9.53 1.22C9.25 1.22 8.96 1.24 8.68 1.26C8.41 1.29 8.13 1.34 7.86 1.39C7.59 1.45 7.32 1.51 7.06 1.6C6.8 1.68 6.55 1.77 6.3 1.87C6.05 1.98 5.81 2.1 5.57 2.22C5.34 2.35 5.11 2.49 4.89 2.64C4.67 2.79 4.45 2.95 4.25 3.12C4.04 3.29 3.85 3.47 3.66 3.66C3.47 3.85 3.29 4.04 3.12 4.25C2.95 4.45 2.79 4.67 2.64 4.89C2.49 5.11 2.35 5.34 2.22 5.57C2.1 5.81 1.98 6.05 1.87 6.3C1.77 6.55 1.68 6.8 1.6 7.06C1.51 7.32 1.45 7.59 1.39 7.86C1.34 8.13 1.29 8.41 1.26 8.68C1.24 8.96 1.22 9.25 1.22 9.53C1.22 9.82 1.24 10.1 1.26 10.38C1.29 10.66 1.34 10.94 1.39 11.21C1.45 11.48 1.51 11.74 1.6 12C1.68 12.26 1.77 12.52 1.87 12.77C1.98 13.02 2.1 13.26 2.22 13.49C2.35 13.73 2.49 13.96 2.64 14.18C2.79 14.4 2.95 14.61 3.12 14.82C3.29 15.02 3.47 15.22 3.66 15.41C3.85 15.6 4.04 15.78 4.25 15.95C4.45 16.12 4.67 16.28 4.89 16.43C5.11 16.58 5.34 16.71 5.57 16.84C5.81 16.97 6.05 17.09 6.3 17.19C6.55 17.3 6.8 17.39 7.06 17.47C7.32 17.55 7.59 17.62 7.86 17.68C8.13 17.73 8.41 17.77 8.68 17.8C8.96 17.83 9.25 17.84 9.53 17.84C9.82 17.84 10.1 17.83 10.38 17.8C10.66 17.77 10.94 17.73 11.21 17.68C11.48 17.62 11.74 17.55 12 17.47C12.26 17.39 12.52 17.3 12.77 17.19C13.02 17.09 13.26 16.97 13.49 16.84C13.73 16.71 13.96 16.58 14.18 16.43C14.4 16.28 14.61 16.12 14.82 15.95C15.02 15.78 15.22 15.6 15.41 15.41C15.6 15.22 15.78 15.02 15.95 14.82C16.12 14.61 16.28 14.4 16.43 14.18C16.58 13.96 16.71 13.73 16.84 13.49C16.97 13.26 17.09 13.02 17.19 12.77C17.3 12.52 17.39 12.26 17.47 12C17.55 11.74 17.62 11.48 17.68 11.21C17.73 10.94 17.77 10.66 17.8 10.38C17.83 10.1 17.84 9.82 17.84 9.53C17.84 9.52 17.84 9.51 17.85 9.5L17.85 9.44C17.85 9.43 17.85 9.42 17.86 9.41L17.86 9.39C17.87 9.38 17.87 9.37 17.87 9.36C17.87 9.35 17.88 9.34 17.88 9.33C17.88 9.32 17.89 9.31 17.89 9.3C17.89 9.29 17.9 9.28 17.9 9.27C17.91 9.26 17.91 9.25 17.92 9.24L17.93 9.22C17.94 9.21 17.94 9.2 17.95 9.19C17.95 9.18 17.96 9.18 17.96 9.17L17.98 9.15C17.99 9.14 18 9.13 18 9.12C18.01 9.12 18.02 9.11 18.02 9.1C18.03 9.09 18.04 9.09 18.04 9.08C18.05 9.07 18.06 9.07 18.07 9.06L18.09 9.04C18.1 9.04 18.11 9.03 18.12 9.02C18.12 9.02 18.13 9.01 18.14 9.01L18.17 8.99C18.18 8.99 18.19 8.99 18.19 8.98C18.2 8.98 18.21 8.97 18.22 8.97C18.23 8.96 18.24 8.96 18.25 8.96C18.26 8.95 18.27 8.95 18.28 8.95C18.29 8.95 18.3 8.94 18.31 8.94C18.32 8.94 18.33 8.94 18.34 8.93L18.37 8.93L18.4 8.92L18.52 8.92L18.54 8.93L18.57 8.93C18.59 8.94 18.59 8.94 18.6 8.94C18.61 8.94 18.62 8.95 18.63 8.95C18.64 8.95 18.65 8.95 18.66 8.96C18.67 8.96 18.68 8.96 18.69 8.97C18.7 8.97 18.71 8.98 18.72 8.98C18.73 8.99 18.74 8.99 18.74 8.99L18.77 9.01C18.78 9.01 18.79 9.02 18.8 9.02C18.8 9.03 18.81 9.04 18.82 9.04C18.83 9.05 18.84 9.05 18.84 9.06C18.85 9.07 18.86 9.07 18.87 9.08C18.87 9.09 18.88 9.09 18.89 9.1C18.89 9.11 18.9 9.12 18.91 9.12C18.92 9.13 18.92 9.14 18.93 9.15L18.95 9.17C18.95 9.18 18.96 9.18 18.96 9.19C18.97 9.2 18.98 9.21 18.98 9.22L18.99 9.24C19 9.25 19 9.26 19.01 9.27C19.01 9.28 19.02 9.29 19.02 9.3C19.02 9.31 19.03 9.32 19.03 9.33C19.03 9.34 19.04 9.35 19.04 9.36L19.05 9.39L19.05 9.41C19.06 9.42 19.06 9.43 19.06 9.44L19.06 9.47C19.06 9.48 19.07 9.49 19.07 9.5L19.07 9.53C19.07 9.86 19.05 10.18 19.02 10.51C18.98 10.83 18.94 11.14 18.87 11.45C18.81 11.76 18.73 12.07 18.64 12.37C18.55 12.67 18.44 12.96 18.32 13.24C18.2 13.53 18.06 13.81 17.92 14.08C17.77 14.35 17.61 14.61 17.44 14.86C17.27 15.12 17.08 15.36 16.89 15.6C16.7 15.83 16.49 16.06 16.28 16.28C16.06 16.49 15.83 16.7 15.6 16.89C15.36 17.08 15.12 17.27 14.86 17.44C14.61 17.61 14.35 17.77 14.08 17.92C13.81 18.06 13.53 18.2 13.24 18.32C12.96 18.44 12.67 18.55 12.37 18.64C12.07 18.73 11.76 18.81 11.45 18.87C11.14 18.94 10.83 18.98 10.51 19.02C10.18 19.05 9.86 19.07 9.53 19.07C9.21 19.07 8.88 19.05 8.56 19.02C8.24 18.98 7.92 18.94 7.61 18.87C7.3 18.81 7 18.73 6.7 18.64C6.4 18.55 6.11 18.44 5.82 18.32C5.54 18.2 5.26 18.06 4.99 17.92C4.72 17.77 4.46 17.61 4.2 17.44C3.95 17.27 3.7 17.08 3.47 16.89C3.23 16.7 3.01 16.49 2.79 16.28C2.58 16.06 2.37 15.83 2.18 15.6C1.98 15.36 1.8 15.12 1.63 14.86C1.46 14.61 1.3 14.35 1.15 14.08C1 13.81 0.87 13.53 0.75 13.24C0.63 12.96 0.52 12.67 0.43 12.37C0.33 12.07 0.26 11.76 0.19 11.45C0.13 11.14 0.08 10.83 0.05 10.51C0.02 10.18 0 9.86 0 9.53C0 9.21 0.02 8.88 0.05 8.56C0.08 8.24 0.13 7.92 0.19 7.61C0.26 7.3 0.33 7 0.43 6.7C0.52 6.4 0.63 6.11 0.75 5.82C0.87 5.54 1 5.26 1.15 4.99C1.3 4.72 1.46 4.46 1.63 4.2C1.8 3.95 1.98 3.7 2.18 3.47C2.37 3.23 2.58 3.01 2.79 2.79C3.01 2.58 3.23 2.37 3.47 2.18C3.7 1.98 3.95 1.8 4.2 1.63C4.46 1.46 4.72 1.3 4.99 1.15C5.26 1 5.54 0.87 5.82 0.75C6.11 0.63 6.4 0.52 6.7 0.43C7 0.33 7.3 0.26 7.61 0.19C7.92 0.13 8.24 0.08 8.56 0.05C8.88 0.02 9.21 0 9.53 0L9.59 0L9.62 0.01L9.65 0.01C9.66 0.01 9.67 0.02 9.68 0.02C9.69 0.02 9.7 0.02 9.71 0.03C9.72 0.03 9.73 0.03 9.74 0.04ZM11.73 3.7L11.73 3.76C11.73 3.77 11.74 3.78 11.74 3.79L11.74 3.82C11.74 3.83 11.74 3.84 11.75 3.85L11.75 3.88C11.75 3.89 11.76 3.9 11.76 3.9C11.76 3.91 11.77 3.92 11.77 3.93C11.77 3.94 11.78 3.95 11.78 3.96C11.78 3.97 11.79 3.98 11.79 3.99C11.8 4 11.8 4.01 11.81 4.02L11.82 4.04C11.83 4.05 11.83 4.06 11.84 4.07C11.84 4.08 11.85 4.08 11.85 4.09C11.86 4.1 11.87 4.11 11.87 4.12C11.88 4.12 11.88 4.13 11.89 4.14C11.9 4.15 11.91 4.15 11.91 4.16C11.92 4.17 11.93 4.17 11.93 4.18C11.94 4.19 11.95 4.19 11.96 4.2C11.96 4.21 11.97 4.21 11.98 4.22C11.99 4.22 12 4.23 12 4.24C12.01 4.24 12.02 4.25 12.03 4.25L12.06 4.27C12.07 4.27 12.07 4.28 12.08 4.28C12.09 4.28 12.1 4.29 12.11 4.29C12.12 4.3 12.13 4.3 12.14 4.3C12.15 4.31 12.16 4.31 12.17 4.31C12.18 4.32 12.19 4.32 12.2 4.32C12.21 4.32 12.21 4.33 12.22 4.33L12.26 4.33L12.28 4.34L16.9 4.34L15.49 5.75C15.48 5.76 15.48 5.77 15.47 5.78C15.46 5.78 15.46 5.79 15.45 5.8L15.43 5.82C15.43 5.83 15.42 5.84 15.41 5.85C15.41 5.86 15.4 5.86 15.4 5.87C15.39 5.88 15.39 5.89 15.38 5.9C15.38 5.91 15.37 5.92 15.37 5.92C15.36 5.93 15.36 5.94 15.36 5.95C15.35 5.96 15.35 5.97 15.35 5.98C15.34 5.99 15.34 6 15.34 6.01L15.33 6.04C15.33 6.05 15.32 6.06 15.32 6.07L15.32 6.1C15.32 6.11 15.31 6.12 15.31 6.13L15.31 6.25C15.31 6.26 15.32 6.27 15.32 6.28L15.32 6.31C15.32 6.32 15.33 6.33 15.33 6.34L15.34 6.36C15.34 6.37 15.34 6.38 15.35 6.39C15.35 6.4 15.35 6.41 15.36 6.42C15.36 6.43 15.36 6.44 15.37 6.45C15.37 6.46 15.38 6.47 15.38 6.47C15.39 6.48 15.39 6.49 15.4 6.5C15.4 6.51 15.41 6.52 15.41 6.53C15.42 6.53 15.43 6.54 15.43 6.55L15.45 6.57C15.46 6.58 15.46 6.59 15.47 6.6L15.49 6.62L15.51 6.64C15.52 6.65 15.53 6.65 15.53 6.66L15.56 6.68C15.57 6.68 15.57 6.69 15.58 6.69C15.59 6.7 15.6 6.71 15.61 6.71L15.63 6.73C15.64 6.73 15.65 6.74 15.66 6.74C15.67 6.74 15.68 6.75 15.69 6.75C15.7 6.76 15.71 6.76 15.72 6.76C15.72 6.76 15.73 6.77 15.74 6.77L15.77 6.78C15.78 6.78 15.79 6.78 15.8 6.79L15.83 6.79C15.84 6.79 15.85 6.79 15.86 6.8L15.98 6.8C15.99 6.79 16 6.79 16.01 6.79L16.04 6.79C16.05 6.78 16.06 6.78 16.07 6.78L16.1 6.77C16.11 6.77 16.12 6.76 16.13 6.76C16.14 6.76 16.15 6.76 16.16 6.75C16.16 6.75 16.17 6.74 16.18 6.74C16.19 6.74 16.2 6.73 16.21 6.73C16.22 6.72 16.23 6.72 16.24 6.71L16.26 6.69C16.27 6.69 16.28 6.68 16.29 6.68L16.31 6.66L16.33 6.64C16.34 6.63 16.35 6.63 16.35 6.62L18.45 4.52C18.5 4.47 18.55 4.41 18.59 4.35C18.63 4.29 18.67 4.22 18.69 4.16C18.72 4.09 18.74 4.02 18.75 3.95C18.77 3.88 18.77 3.81 18.77 3.74C18.77 3.67 18.77 3.6 18.75 3.53C18.74 3.46 18.72 3.4 18.69 3.33C18.67 3.26 18.63 3.2 18.59 3.14C18.55 3.08 18.5 3.02 18.45 2.97L16.35 0.87L16.33 0.85C16.32 0.84 16.32 0.83 16.31 0.83C16.3 0.82 16.29 0.82 16.28 0.81C16.28 0.8 16.27 0.8 16.26 0.79L16.23 0.78C16.23 0.77 16.22 0.77 16.21 0.76C16.2 0.76 16.19 0.75 16.18 0.75C16.17 0.74 16.16 0.74 16.15 0.74C16.15 0.73 16.14 0.73 16.13 0.72L16.1 0.72L16.07 0.71C16.06 0.7 16.05 0.7 16.04 0.7L16.01 0.7C16 0.69 15.99 0.69 15.98 0.69L15.86 0.69C15.85 0.69 15.84 0.69 15.83 0.7L15.8 0.7C15.79 0.7 15.78 0.7 15.77 0.71L15.74 0.72L15.72 0.72C15.71 0.73 15.7 0.73 15.69 0.74C15.68 0.74 15.67 0.74 15.66 0.75C15.65 0.75 15.64 0.76 15.63 0.76L15.61 0.78L15.58 0.79L15.56 0.81C15.55 0.82 15.54 0.82 15.53 0.83L15.51 0.85L15.49 0.87L15.45 0.91C15.44 0.93 15.42 0.94 15.41 0.96L15.38 1.01C15.37 1.03 15.36 1.05 15.36 1.07C15.35 1.08 15.34 1.1 15.34 1.12C15.33 1.14 15.33 1.16 15.32 1.18C15.32 1.2 15.32 1.22 15.31 1.24L15.31 1.36C15.31 1.38 15.32 1.4 15.32 1.42C15.33 1.44 15.33 1.46 15.34 1.48C15.34 1.5 15.35 1.52 15.36 1.53C15.36 1.55 15.37 1.57 15.38 1.59C15.39 1.61 15.4 1.62 15.41 1.64C15.42 1.66 15.44 1.67 15.45 1.69L15.49 1.73L16.87 3.12L12.26 3.12C12.25 3.13 12.23 3.13 12.22 3.13C12.21 3.13 12.21 3.13 12.2 3.14L12.17 3.14C12.16 3.15 12.15 3.15 12.14 3.15C12.13 3.16 12.12 3.16 12.11 3.16C12.1 3.17 12.09 3.17 12.08 3.18C12.07 3.18 12.07 3.18 12.06 3.19L12.03 3.2C12.02 3.21 12.01 3.21 12 3.22C12 3.23 11.99 3.23 11.98 3.24C11.97 3.24 11.96 3.25 11.96 3.25L11.93 3.28L11.91 3.3L11.89 3.32C11.88 3.32 11.88 3.33 11.87 3.34C11.87 3.35 11.86 3.36 11.85 3.36C11.85 3.37 11.84 3.38 11.84 3.39C11.83 3.4 11.83 3.41 11.82 3.41L11.81 3.44C11.8 3.45 11.8 3.46 11.79 3.47C11.79 3.48 11.78 3.48 11.78 3.49C11.78 3.5 11.77 3.51 11.77 3.52C11.77 3.53 11.76 3.54 11.76 3.55C11.76 3.56 11.75 3.57 11.75 3.58L11.75 3.61C11.74 3.62 11.74 3.63 11.74 3.64L11.74 3.67C11.74 3.68 11.73 3.69 11.73 3.7ZM13.23 9.55C13.24 9.55 13.25 9.56 13.25 9.56C13.26 9.56 13.27 9.57 13.28 9.57C13.29 9.57 13.3 9.58 13.31 9.58C13.32 9.58 13.33 9.59 13.34 9.59C13.35 9.6 13.36 9.6 13.37 9.61L13.39 9.62C13.4 9.62 13.41 9.63 13.42 9.64C13.43 9.64 13.43 9.65 13.44 9.65C13.45 9.66 13.46 9.67 13.47 9.67C13.47 9.68 13.48 9.68 13.49 9.69C13.5 9.7 13.5 9.71 13.51 9.71C13.52 9.72 13.52 9.73 13.53 9.73C13.54 9.74 13.54 9.75 13.55 9.76C13.56 9.76 13.56 9.77 13.57 9.78C13.57 9.79 13.58 9.8 13.59 9.8C13.59 9.81 13.6 9.82 13.6 9.83L13.62 9.86C13.62 9.87 13.63 9.87 13.63 9.88C13.63 9.89 13.64 9.9 13.64 9.91C13.65 9.92 13.65 9.93 13.65 9.94C13.66 9.95 13.66 9.96 13.66 9.97C13.67 9.98 13.67 9.99 13.67 10C13.67 10.01 13.68 10.01 13.68 10.02L13.68 10.06L13.69 10.08L13.69 10.2L13.68 10.23L13.68 10.26C13.68 10.27 13.67 10.28 13.67 10.29C13.67 10.3 13.67 10.31 13.66 10.32C13.66 10.33 13.66 10.34 13.65 10.35C13.65 10.36 13.65 10.37 13.64 10.38C13.64 10.39 13.63 10.4 13.63 10.41C13.63 10.41 13.62 10.42 13.62 10.43L13.6 10.46C13.6 10.47 13.59 10.48 13.59 10.48C13.58 10.49 13.57 10.5 13.57 10.51L13.55 10.53C13.54 10.54 13.54 10.55 13.53 10.56C13.52 10.56 13.52 10.57 13.51 10.58C13.5 10.58 13.5 10.59 13.49 10.6C13.48 10.6 13.47 10.61 13.47 10.62C13.46 10.62 13.45 10.63 13.44 10.64C13.43 10.64 13.43 10.65 13.42 10.65C13.41 10.66 13.4 10.66 13.39 10.67L13.37 10.68C13.36 10.69 13.35 10.69 13.34 10.7C13.33 10.7 13.32 10.71 13.31 10.71C13.3 10.71 13.29 10.72 13.28 10.72C13.27 10.72 13.26 10.73 13.25 10.73C13.25 10.73 13.24 10.73 13.23 10.74L13.2 10.74C13.19 10.75 13.18 10.75 13.17 10.75L13.11 10.75C13.1 10.76 13.09 10.76 13.08 10.76L9.66 10.76C9.58 10.76 9.51 10.75 9.43 10.73C9.36 10.72 9.29 10.7 9.23 10.67C9.16 10.64 9.1 10.61 9.04 10.57C8.98 10.53 8.93 10.48 8.88 10.43C8.83 10.38 8.78 10.33 8.74 10.27C8.7 10.21 8.67 10.15 8.64 10.08C8.61 10.02 8.59 9.95 8.58 9.88C8.56 9.8 8.56 9.73 8.56 9.66L8.56 4.19C8.56 4.18 8.57 4.17 8.57 4.16L8.57 4.13C8.58 4.12 8.58 4.11 8.58 4.1C8.58 4.09 8.59 4.08 8.59 4.07C8.59 4.06 8.6 4.05 8.6 4.04C8.61 4.03 8.61 4.03 8.61 4.02C8.62 4.01 8.62 4 8.63 3.99L8.64 3.96C8.65 3.96 8.65 3.95 8.66 3.94C8.66 3.93 8.67 3.92 8.68 3.91C8.68 3.91 8.69 3.9 8.69 3.89L8.71 3.87L8.73 3.85C8.74 3.84 8.75 3.83 8.76 3.83C8.76 3.82 8.77 3.81 8.78 3.8C8.79 3.8 8.8 3.79 8.8 3.79C8.81 3.78 8.82 3.78 8.83 3.77L8.85 3.75L8.88 3.74C8.89 3.73 8.9 3.73 8.91 3.73C8.91 3.72 8.92 3.72 8.93 3.71C8.94 3.71 8.95 3.71 8.96 3.7C8.97 3.7 8.98 3.7 8.99 3.69C9 3.69 9.01 3.69 9.02 3.68L9.05 3.68C9.06 3.68 9.07 3.68 9.08 3.67L9.26 3.67C9.27 3.68 9.28 3.68 9.29 3.68L9.31 3.68C9.32 3.69 9.33 3.69 9.34 3.69C9.35 3.7 9.36 3.7 9.37 3.7C9.38 3.71 9.39 3.71 9.4 3.71C9.41 3.72 9.42 3.72 9.43 3.73C9.44 3.73 9.45 3.73 9.46 3.74L9.48 3.75C9.49 3.76 9.5 3.76 9.51 3.77C9.51 3.78 9.52 3.78 9.53 3.79C9.54 3.79 9.55 3.8 9.55 3.8L9.58 3.83L9.6 3.85C9.61 3.85 9.61 3.86 9.62 3.87C9.63 3.87 9.63 3.88 9.64 3.89C9.65 3.9 9.65 3.91 9.66 3.91C9.66 3.92 9.67 3.93 9.68 3.94C9.68 3.95 9.69 3.96 9.69 3.96L9.71 3.99C9.71 4 9.71 4.01 9.72 4.02C9.72 4.03 9.73 4.03 9.73 4.04C9.74 4.05 9.74 4.06 9.74 4.07C9.75 4.08 9.75 4.09 9.75 4.1C9.75 4.11 9.76 4.12 9.76 4.13C9.76 4.14 9.76 4.15 9.77 4.16L9.77 4.19L9.78 4.22L9.78 9.53L13.11 9.53C13.12 9.53 13.13 9.54 13.14 9.54L13.17 9.54C13.18 9.54 13.19 9.54 13.2 9.55L13.23 9.55Z" /></g></g></svg>