<svg xmlns="http://www.w3.org/2000/svg" xmlns:xlink="http://www.w3.org/1999/xlink" width="22" height="22" viewBox="0 0 22 22" fill="none"><defs><rect id="path_0" x="0" y="0" width="22" height="22" /></defs><g opacity="1" transform="translate(0 0)  rotate(0 11 11)"><mask id="bg-mask-0" fill="white"><use xlink:href="#path_0"></use></mask><g mask="url(#bg-mask-0)" ><path id="并集" fill-rule="evenodd" style="fill:#000000" transform="translate(2.47862607174946 1.8524149174000186)  rotate(-4.196970809839925 8.549756452772352 9.107388814290363)" opacity="1" d="M0 17.68L0 17.6C0 17.57 0 17.53 0.01 17.49C0.02 17.45 0.03 17.41 0.04 17.38C0.06 17.34 0.08 17.31 0.1 17.27C0.12 17.24 0.14 17.21 0.17 17.18L5.55 11.52C4.33 10.3 3.58 8.61 3.58 6.76C3.58 3.03 6.61 0 10.34 0C14.07 0 17.1 3.03 17.1 6.76C17.1 10.49 14.07 13.52 10.34 13.52C8.91 13.52 7.58 13.07 6.48 12.31L1.05 18.02C1.04 18.04 1.03 18.05 1.01 18.07C1 18.08 0.98 18.09 0.96 18.1C0.95 18.11 0.93 18.13 0.91 18.14C0.9 18.15 0.88 18.15 0.86 18.16C0.84 18.17 0.82 18.18 0.8 18.18C0.78 18.19 0.77 18.2 0.75 18.2C0.73 18.2 0.71 18.21 0.69 18.21L0.51 18.21C0.49 18.2 0.47 18.2 0.45 18.19C0.43 18.19 0.41 18.18 0.39 18.17C0.37 18.17 0.35 18.16 0.34 18.15L0.28 18.12C0.27 18.11 0.25 18.1 0.24 18.09C0.22 18.07 0.21 18.06 0.19 18.05C0.18 18.03 0.16 18.02 0.15 18L0.11 17.96C0.1 17.94 0.09 17.92 0.08 17.91L0.05 17.85L0.03 17.8C0.02 17.78 0.02 17.76 0.01 17.74C0.01 17.72 0.01 17.7 0 17.68ZM14.61 3.24C14.73 3.37 14.83 3.52 14.93 3.66C15.13 3.96 15.3 4.27 15.44 4.6C15.58 4.94 15.69 5.28 15.76 5.64C15.84 6.01 15.88 6.38 15.88 6.76Q15.88 7.33 15.76 7.87C15.69 8.23 15.58 8.58 15.44 8.91C15.3 9.24 15.13 9.55 14.93 9.85C14.83 10 14.73 10.14 14.61 10.28C14.5 10.41 14.38 10.55 14.26 10.67C14.13 10.8 14 10.92 13.86 11.03C13.72 11.14 13.58 11.25 13.44 11.35C13.14 11.55 12.83 11.72 12.5 11.86C12.16 12 11.81 12.11 11.46 12.18C11.09 12.26 10.72 12.29 10.34 12.29C9.96 12.29 9.59 12.26 9.22 12.18C8.87 12.11 8.52 12 8.19 11.86C8.02 11.79 7.86 11.71 7.7 11.63C7.55 11.54 7.4 11.45 7.25 11.35C7.1 11.25 6.96 11.14 6.82 11.03C6.68 10.92 6.55 10.8 6.43 10.67C6.3 10.55 6.18 10.41 6.07 10.28C5.96 10.14 5.85 10 5.75 9.85C5.55 9.55 5.38 9.24 5.24 8.91C5.1 8.58 4.99 8.23 4.92 7.87C4.84 7.51 4.81 7.14 4.81 6.76C4.81 6.38 4.84 6.01 4.92 5.64C4.99 5.28 5.1 4.94 5.24 4.6C5.38 4.27 5.55 3.96 5.75 3.66C5.85 3.52 5.96 3.37 6.07 3.24C6.18 3.1 6.3 2.97 6.43 2.84C6.55 2.72 6.68 2.6 6.82 2.49C6.96 2.37 7.1 2.27 7.25 2.17C7.54 1.97 7.86 1.8 8.19 1.66C8.52 1.52 8.87 1.41 9.22 1.33C9.59 1.26 9.96 1.22 10.34 1.22C10.72 1.22 11.09 1.26 11.46 1.33C11.81 1.41 12.16 1.52 12.5 1.66C12.83 1.8 13.14 1.97 13.44 2.17C13.58 2.27 13.72 2.37 13.86 2.49C14 2.6 14.13 2.72 14.26 2.84C14.38 2.97 14.5 3.1 14.61 3.24ZM14.5 7.76C14.52 7.75 14.54 7.74 14.55 7.72C14.57 7.71 14.59 7.7 14.6 7.69C14.62 7.67 14.63 7.66 14.65 7.65C14.66 7.63 14.67 7.62 14.68 7.6C14.7 7.58 14.71 7.57 14.72 7.55C14.73 7.53 14.74 7.52 14.75 7.5C14.76 7.48 14.77 7.46 14.77 7.44C14.78 7.43 14.79 7.41 14.79 7.39C14.8 7.37 14.8 7.35 14.8 7.33C14.81 7.31 14.81 7.29 14.81 7.27L14.81 7.16C14.81 7.14 14.8 7.12 14.8 7.11C14.8 7.09 14.79 7.07 14.79 7.05C14.78 7.04 14.78 7.02 14.77 7C14.76 6.99 14.76 6.97 14.75 6.95C14.74 6.94 14.73 6.92 14.72 6.91C14.72 6.89 14.71 6.88 14.7 6.87C14.69 6.85 14.67 6.84 14.66 6.82L14.63 6.79L14.59 6.75C14.57 6.74 14.56 6.73 14.54 6.72C14.53 6.71 14.51 6.7 14.5 6.69C14.48 6.68 14.47 6.67 14.45 6.67C14.43 6.66 14.42 6.65 14.4 6.65C14.39 6.64 14.37 6.64 14.35 6.63C14.33 6.63 14.32 6.62 14.3 6.62L14.25 6.62L6.45 6.04L6.36 6.04C6.35 6.04 6.33 6.04 6.32 6.05L6.3 6.05C6.29 6.05 6.28 6.05 6.27 6.06L6.24 6.06C6.23 6.07 6.22 6.07 6.21 6.07C6.2 6.07 6.19 6.08 6.18 6.08C6.17 6.09 6.16 6.09 6.15 6.09L6.13 6.11C6.12 6.11 6.11 6.12 6.1 6.12C6.09 6.13 6.08 6.13 6.07 6.14C6.07 6.14 6.06 6.15 6.05 6.15C6.04 6.16 6.03 6.16 6.02 6.17C6.02 6.18 6.01 6.18 6 6.19L5.94 6.25C5.93 6.26 5.93 6.27 5.92 6.28C5.91 6.28 5.91 6.29 5.9 6.3L5.88 6.33C5.88 6.33 5.87 6.34 5.87 6.35C5.86 6.36 5.86 6.37 5.85 6.38C5.85 6.39 5.85 6.4 5.84 6.41C5.84 6.41 5.83 6.42 5.83 6.43C5.83 6.44 5.82 6.45 5.82 6.46C5.82 6.47 5.81 6.48 5.81 6.49C5.81 6.5 5.81 6.51 5.8 6.52L5.8 6.55C5.8 6.56 5.8 6.57 5.79 6.58L5.79 6.73L5.8 6.76L5.8 6.79C5.81 6.8 5.81 6.81 5.81 6.82C5.82 6.83 5.82 6.84 5.82 6.85C5.82 6.86 5.83 6.87 5.83 6.88C5.83 6.88 5.84 6.89 5.84 6.9C5.85 6.91 5.85 6.92 5.86 6.93C5.86 6.94 5.87 6.95 5.87 6.96C5.88 6.96 5.88 6.97 5.88 6.98C5.89 6.99 5.9 7 5.9 7.01C5.91 7.01 5.91 7.02 5.92 7.03C5.93 7.04 5.93 7.05 5.94 7.05C5.95 7.06 5.95 7.07 5.96 7.07C5.97 7.08 5.97 7.09 5.98 7.1C5.99 7.1 5.99 7.11 6 7.12C6.01 7.12 6.02 7.13 6.03 7.13C6.03 7.14 6.04 7.15 6.05 7.15C6.06 7.16 6.07 7.16 6.07 7.17C6.08 7.17 6.09 7.18 6.1 7.18C6.11 7.19 6.12 7.19 6.13 7.2C6.14 7.2 6.14 7.21 6.15 7.21C6.16 7.22 6.17 7.22 6.18 7.22L6.21 7.23L6.24 7.24C6.25 7.24 6.26 7.25 6.27 7.25L6.3 7.25C6.31 7.26 6.32 7.26 6.33 7.26L6.36 7.26L14.16 7.83C14.18 7.84 14.2 7.84 14.22 7.84C14.24 7.84 14.26 7.83 14.28 7.83C14.3 7.83 14.32 7.82 14.34 7.82C14.36 7.82 14.37 7.81 14.39 7.8C14.41 7.8 14.43 7.79 14.45 7.78C14.47 7.77 14.49 7.77 14.5 7.76Z" /></g></g></svg>