<svg xmlns="http://www.w3.org/2000/svg" xmlns:xlink="http://www.w3.org/1999/xlink" width="22" height="22" viewBox="0 0 22 22" fill="none"><defs><rect id="path_0" x="0" y="0" width="22" height="22" /></defs><g opacity="1" transform="translate(0 0)  rotate(0 11 11)"><mask id="bg-mask-0" fill="white"><use xlink:href="#path_0"></use></mask><g mask="url(#bg-mask-0)" ><path id="并集" fill-rule="evenodd" style="fill:#000000" transform="translate(2.200000000000081 1.5888885965302517)  rotate(0 8.86111111111111 9.349940321180556)" opacity="1" d="M5.12 1.33L4.58 0.32C4.56 0.28 4.54 0.25 4.51 0.22C4.49 0.19 4.46 0.16 4.43 0.14C4.4 0.11 4.37 0.09 4.33 0.07C4.3 0.05 4.26 0.04 4.22 0.03C4.2 0.02 4.18 0.02 4.16 0.01C4.14 0.01 4.13 0 4.1 0L3.98 0C3.96 0 3.95 0.01 3.93 0.01C3.91 0.02 3.89 0.02 3.87 0.03C3.85 0.03 3.83 0.04 3.81 0.05C3.79 0.05 3.77 0.06 3.76 0.07L3.75 0.07C3.72 0.09 3.69 0.11 3.65 0.14L3.57 0.22C3.55 0.26 3.52 0.29 3.51 0.32C3.49 0.36 3.47 0.39 3.46 0.43C3.45 0.45 3.45 0.47 3.45 0.49C3.44 0.51 3.44 0.53 3.44 0.55C3.43 0.57 3.43 0.59 3.43 0.61C3.43 0.63 3.43 0.65 3.44 0.67C3.44 0.69 3.44 0.71 3.45 0.73C3.45 0.75 3.45 0.77 3.46 0.79C3.47 0.81 3.47 0.83 3.48 0.84L3.51 0.9L3.74 1.34L1.54 1.34C1.43 1.34 1.33 1.35 1.23 1.38C1.13 1.39 1.03 1.42 0.94 1.46C0.85 1.5 0.76 1.55 0.68 1.6C0.6 1.65 0.52 1.71 0.45 1.78C0.38 1.85 0.32 1.92 0.26 2C0.21 2.08 0.16 2.17 0.12 2.26C0.08 2.35 0.05 2.44 0.03 2.54Q0 2.69 0 2.84L0 3.72L0.01 3.75L0.01 3.79L0.02 3.82C0.02 3.83 0.03 3.84 0.03 3.85C0.03 3.86 0.04 3.87 0.04 3.88C0.05 3.89 0.05 3.9 0.05 3.91C0.06 3.92 0.06 3.93 0.07 3.94C0.07 3.95 0.08 3.96 0.08 3.97C0.09 3.98 0.09 3.99 0.1 4C0.11 4.01 0.11 4.02 0.12 4.03C0.12 4.04 0.13 4.05 0.14 4.06C0.14 4.07 0.15 4.07 0.16 4.08L0.18 4.11L0.21 4.13C0.21 4.14 0.22 4.15 0.23 4.16C0.24 4.16 0.25 4.17 0.26 4.18C0.27 4.18 0.27 4.19 0.28 4.2C0.29 4.21 0.3 4.21 0.31 4.22C0.32 4.22 0.33 4.23 0.34 4.24C0.35 4.24 0.36 4.25 0.37 4.25C0.38 4.26 0.39 4.26 0.4 4.27C0.41 4.27 0.42 4.28 0.43 4.28C0.44 4.29 0.45 4.29 0.46 4.29C0.47 4.3 0.49 4.3 0.5 4.3C0.51 4.31 0.52 4.31 0.53 4.31C0.54 4.31 0.55 4.32 0.56 4.32L0.6 4.32C0.61 4.33 0.62 4.33 0.63 4.33L0.77 4.33C0.78 4.33 0.79 4.33 0.8 4.32L0.84 4.32C0.85 4.32 0.86 4.31 0.87 4.31C0.88 4.31 0.89 4.31 0.9 4.3C0.91 4.3 0.93 4.3 0.94 4.29C0.95 4.29 0.96 4.29 0.97 4.28C0.98 4.28 0.99 4.27 1 4.27C1.01 4.26 1.02 4.26 1.03 4.25C1.04 4.25 1.05 4.24 1.06 4.24C1.07 4.23 1.08 4.22 1.09 4.22C1.1 4.21 1.11 4.21 1.12 4.2C1.13 4.19 1.13 4.18 1.14 4.18C1.15 4.17 1.16 4.16 1.17 4.16C1.18 4.15 1.19 4.14 1.19 4.13L1.22 4.11L1.24 4.08C1.25 4.07 1.26 4.07 1.26 4.06C1.27 4.05 1.27 4.04 1.28 4.03C1.29 4.02 1.29 4.01 1.3 4C1.31 3.99 1.31 3.98 1.32 3.97C1.32 3.96 1.33 3.95 1.33 3.94C1.34 3.93 1.34 3.92 1.35 3.91C1.35 3.9 1.35 3.89 1.36 3.88C1.36 3.87 1.37 3.86 1.37 3.85C1.37 3.84 1.38 3.83 1.38 3.82L1.39 3.79L1.39 3.75L1.4 3.72L1.4 2.84C1.4 2.82 1.4 2.8 1.41 2.79C1.42 2.77 1.43 2.75 1.44 2.74C1.45 2.73 1.47 2.72 1.49 2.71C1.5 2.71 1.52 2.7 1.54 2.7L7.63 2.7C7.65 2.7 7.66 2.71 7.68 2.71C7.7 2.72 7.71 2.73 7.73 2.74C7.74 2.75 7.75 2.77 7.76 2.79C7.76 2.8 7.77 2.82 7.77 2.84L7.77 3.82C7.78 3.83 7.78 3.84 7.78 3.85C7.78 3.86 7.79 3.88 7.79 3.89C7.79 3.9 7.79 3.91 7.8 3.92C7.8 3.93 7.8 3.94 7.81 3.95C7.81 3.96 7.82 3.97 7.82 3.98C7.82 3.99 7.83 4 7.83 4.01C7.84 4.02 7.84 4.03 7.85 4.04C7.86 4.05 7.86 4.06 7.87 4.07C7.87 4.08 7.88 4.09 7.88 4.1L7.91 4.13L7.93 4.15L7.95 4.18C7.96 4.18 7.96 4.19 7.97 4.2C7.98 4.21 7.99 4.22 8 4.22L8.02 4.25C8.03 4.25 8.04 4.26 8.05 4.27C8.06 4.27 8.07 4.28 8.08 4.29L8.11 4.3C8.12 4.31 8.13 4.31 8.14 4.32C8.15 4.33 8.16 4.33 8.17 4.34C8.18 4.34 8.19 4.34 8.2 4.35C8.21 4.35 8.22 4.36 8.23 4.36C8.24 4.36 8.25 4.37 8.26 4.37C8.27 4.37 8.29 4.38 8.3 4.38C8.31 4.38 8.32 4.39 8.33 4.39L8.36 4.39C8.38 4.39 8.39 4.4 8.4 4.4L8.54 4.4L8.57 4.39L8.6 4.39C8.61 4.39 8.63 4.38 8.64 4.38C8.65 4.38 8.66 4.37 8.67 4.37C8.68 4.37 8.69 4.36 8.7 4.36C8.71 4.36 8.72 4.35 8.74 4.35C8.74 4.34 8.76 4.34 8.77 4.34C8.78 4.33 8.79 4.33 8.8 4.32C8.81 4.31 8.82 4.31 8.83 4.3L8.86 4.29C8.86 4.28 8.87 4.27 8.88 4.27C8.89 4.26 8.9 4.25 8.91 4.25L8.94 4.22C8.95 4.22 8.95 4.21 8.96 4.2C8.97 4.19 8.98 4.18 8.99 4.18L9.01 4.15C9.02 4.14 9.02 4.13 9.03 4.13C9.04 4.12 9.04 4.11 9.05 4.1C9.06 4.09 9.06 4.08 9.07 4.07C9.07 4.06 9.08 4.05 9.08 4.04C9.09 4.03 9.09 4.02 9.1 4.01C9.1 4 9.11 3.99 9.11 3.98C9.12 3.97 9.12 3.96 9.13 3.95C9.13 3.94 9.13 3.93 9.14 3.92C9.14 3.91 9.14 3.9 9.15 3.89L9.15 3.85C9.16 3.84 9.16 3.83 9.16 3.82L9.16 3.79C9.16 3.78 9.17 3.77 9.17 3.75L9.17 2.84C9.17 2.74 9.16 2.64 9.13 2.54C9.12 2.44 9.08 2.35 9.05 2.26C9.01 2.17 8.96 2.08 8.9 2C8.85 1.92 8.79 1.85 8.72 1.78C8.65 1.71 8.57 1.65 8.49 1.6C8.41 1.55 8.32 1.5 8.23 1.46C8.13 1.42 8.04 1.39 7.94 1.38C7.83 1.35 7.73 1.34 7.63 1.34L5.13 1.34C5.13 1.34 5.12 1.34 5.12 1.33ZM17.1 5.82C17.11 5.82 17.12 5.81 17.13 5.81C17.14 5.8 17.15 5.8 17.16 5.79L17.18 5.78C17.19 5.78 17.2 5.77 17.21 5.76C17.21 5.76 17.22 5.75 17.23 5.75L17.25 5.73C17.26 5.72 17.27 5.72 17.28 5.71C17.28 5.7 17.29 5.69 17.3 5.69C17.31 5.68 17.31 5.67 17.32 5.67C17.33 5.66 17.33 5.65 17.34 5.64C17.35 5.64 17.35 5.63 17.36 5.62C17.36 5.61 17.37 5.6 17.38 5.6C17.38 5.59 17.39 5.58 17.39 5.57L17.41 5.54C17.41 5.53 17.41 5.53 17.42 5.52C17.42 5.51 17.43 5.5 17.43 5.49C17.43 5.48 17.44 5.47 17.44 5.46C17.45 5.45 17.45 5.44 17.45 5.43C17.45 5.42 17.46 5.41 17.46 5.4C17.46 5.39 17.46 5.39 17.47 5.38L17.47 5.34L17.48 5.32L17.48 5.26C17.48 4.97 17.45 4.69 17.39 4.42Q17.315 4.015 17.15 3.64C17.05 3.39 16.92 3.15 16.77 2.93C16.62 2.71 16.45 2.51 16.26 2.32C16.07 2.13 15.87 1.96 15.65 1.81C15.42 1.66 15.19 1.53 14.94 1.43C14.69 1.32 14.43 1.24 14.16 1.18C13.88 1.13 13.6 1.1 13.32 1.1L13.26 1.1L13.23 1.11L13.2 1.11C13.19 1.11 13.18 1.12 13.17 1.12C13.16 1.12 13.15 1.12 13.15 1.13C13.14 1.13 13.13 1.13 13.12 1.14C13.11 1.14 13.1 1.14 13.09 1.15C13.08 1.15 13.07 1.15 13.06 1.16C13.05 1.16 13.04 1.17 13.03 1.17L13.01 1.19C13 1.19 12.99 1.2 12.98 1.2L12.96 1.22C12.95 1.23 12.94 1.23 12.93 1.24C12.93 1.25 12.92 1.25 12.91 1.26C12.9 1.26 12.9 1.27 12.89 1.28L12.87 1.3C12.86 1.31 12.86 1.32 12.85 1.32C12.84 1.33 12.84 1.34 12.83 1.35C12.83 1.36 12.82 1.36 12.81 1.37C12.81 1.38 12.8 1.39 12.8 1.4L12.78 1.42C12.78 1.43 12.77 1.44 12.77 1.45C12.77 1.46 12.76 1.47 12.76 1.48C12.75 1.49 12.75 1.5 12.75 1.51C12.74 1.51 12.74 1.52 12.74 1.53C12.73 1.54 12.73 1.55 12.73 1.56C12.73 1.57 12.72 1.58 12.72 1.59L12.72 1.62L12.71 1.65L12.71 1.77L12.72 1.8L12.72 1.83C12.72 1.84 12.73 1.85 12.73 1.86C12.73 1.87 12.73 1.88 12.74 1.89C12.74 1.9 12.74 1.91 12.75 1.92C12.75 1.93 12.75 1.94 12.76 1.94C12.76 1.95 12.77 1.96 12.77 1.97C12.77 1.98 12.78 1.99 12.78 2L12.8 2.03C12.8 2.03 12.81 2.04 12.81 2.05C12.82 2.06 12.83 2.07 12.83 2.08C12.84 2.08 12.84 2.09 12.85 2.1L12.87 2.12C12.88 2.13 12.88 2.14 12.89 2.14C12.9 2.15 12.9 2.16 12.91 2.16L12.93 2.18C12.94 2.19 12.95 2.2 12.96 2.2L12.98 2.22C12.99 2.22 13 2.23 13.01 2.24L13.03 2.25C13.04 2.26 13.05 2.26 13.06 2.26C13.07 2.27 13.08 2.27 13.09 2.28C13.1 2.28 13.11 2.28 13.12 2.29C13.13 2.29 13.14 2.29 13.15 2.3L13.17 2.3C13.18 2.31 13.19 2.31 13.2 2.31C13.21 2.31 13.22 2.31 13.23 2.32L13.32 2.32C13.52 2.32 13.72 2.34 13.91 2.38C14.1 2.42 14.29 2.48 14.46 2.55C14.64 2.63 14.8 2.72 14.96 2.82C15.12 2.93 15.26 3.05 15.4 3.18C15.53 3.31 15.65 3.46 15.76 3.62C15.86 3.77 15.95 3.94 16.03 4.11C16.1 4.29 16.16 4.47 16.2 4.66C16.24 4.86 16.26 5.06 16.26 5.26L16.26 5.34C16.26 5.35 16.27 5.37 16.27 5.38L16.27 5.4C16.28 5.41 16.28 5.42 16.28 5.43C16.28 5.44 16.29 5.45 16.29 5.46C16.29 5.47 16.3 5.48 16.3 5.49C16.31 5.5 16.31 5.51 16.31 5.52L16.33 5.54L16.34 5.57C16.35 5.58 16.35 5.59 16.36 5.6L16.38 5.62C16.38 5.63 16.39 5.64 16.39 5.64C16.4 5.65 16.41 5.66 16.41 5.67C16.42 5.67 16.43 5.68 16.43 5.69C16.44 5.69 16.45 5.7 16.46 5.71C16.46 5.72 16.47 5.72 16.48 5.73C16.49 5.73 16.5 5.74 16.5 5.75C16.51 5.75 16.52 5.76 16.53 5.76C16.54 5.77 16.54 5.78 16.55 5.78L16.58 5.79C16.59 5.8 16.6 5.8 16.61 5.81C16.61 5.81 16.62 5.82 16.63 5.82C16.64 5.82 16.65 5.83 16.66 5.83C16.67 5.83 16.68 5.84 16.69 5.84C16.7 5.84 16.71 5.85 16.72 5.85L16.75 5.85C16.76 5.86 16.77 5.86 16.78 5.86L16.81 5.86C16.82 5.86 16.83 5.87 16.84 5.87L16.9 5.87C16.91 5.87 16.92 5.86 16.93 5.86L16.96 5.86C16.97 5.86 16.98 5.86 16.99 5.85L17.01 5.85C17.02 5.85 17.03 5.84 17.04 5.84C17.05 5.84 17.06 5.83 17.07 5.83C17.08 5.83 17.09 5.82 17.1 5.82ZM5.32 8.16C5.3 8.24 5.27 8.32 5.23 8.4C5.2 8.47 5.15 8.54 5.1 8.61C5.04 8.68 4.98 8.73 4.91 8.79C4.84 8.84 4.77 8.88 4.69 8.91C4.62 8.95 4.53 8.97 4.45 8.99C4.37 9 4.28 9.01 4.2 9C4.11 9 4.03 8.99 3.95 8.96L3.41 8.81C3.39 8.8 3.37 8.8 3.35 8.79C3.33 8.78 3.31 8.77 3.3 8.76C3.28 8.75 3.26 8.74 3.25 8.73C3.23 8.72 3.21 8.71 3.2 8.7C3.18 8.69 3.17 8.67 3.15 8.66C3.14 8.64 3.12 8.63 3.11 8.61L3.07 8.57C3.06 8.55 3.05 8.53 3.04 8.52C3.03 8.48 3.01 8.45 3 8.41C2.99 8.39 2.98 8.36 2.98 8.32C2.97 8.29 2.97 8.26 2.97 8.23L2.97 8.14C2.97 8.11 2.98 8.08 2.99 8.05C2.99 8.04 3 8.03 3 8.02C3 8.01 3.01 8 3.01 7.99C3.01 7.98 3.02 7.98 3.02 7.97C3.03 7.96 3.03 7.95 3.03 7.94L3.05 7.91C3.05 7.9 3.06 7.9 3.07 7.89C3.07 7.88 3.08 7.87 3.08 7.86L3.1 7.84C3.11 7.83 3.11 7.82 3.12 7.81C3.13 7.81 3.13 7.8 3.14 7.79C3.15 7.79 3.15 7.78 3.16 7.77C3.17 7.77 3.18 7.76 3.18 7.75C3.19 7.75 3.2 7.74 3.21 7.73C3.21 7.73 3.22 7.72 3.23 7.72C3.24 7.71 3.25 7.7 3.26 7.7C3.26 7.69 3.27 7.69 3.28 7.68C3.29 7.68 3.3 7.68 3.31 7.67C3.32 7.67 3.33 7.66 3.34 7.66C3.35 7.65 3.36 7.65 3.36 7.65C3.37 7.64 3.38 7.64 3.39 7.64C3.4 7.63 3.41 7.63 3.42 7.63L3.45 7.62L3.48 7.62L3.51 7.61L3.66 7.61C3.67 7.62 3.68 7.62 3.69 7.62L3.72 7.62C3.73 7.63 3.74 7.63 3.75 7.63L4.13 7.74L4.13 6.82L0.64 6.82C0.63 6.82 0.62 6.81 0.61 6.81L0.58 6.81C0.57 6.81 0.56 6.81 0.55 6.8L0.53 6.8C0.52 6.8 0.51 6.79 0.5 6.79C0.49 6.79 0.48 6.78 0.47 6.78C0.46 6.78 0.45 6.77 0.44 6.77C0.43 6.77 0.42 6.76 0.41 6.76C0.4 6.75 0.39 6.75 0.39 6.74L0.36 6.73C0.35 6.72 0.34 6.72 0.33 6.71C0.33 6.71 0.32 6.7 0.31 6.7L0.29 6.68C0.28 6.67 0.27 6.66 0.26 6.66C0.26 6.65 0.25 6.64 0.24 6.64C0.23 6.63 0.23 6.62 0.22 6.62C0.21 6.61 0.21 6.6 0.2 6.59C0.19 6.59 0.19 6.58 0.18 6.57C0.18 6.56 0.17 6.55 0.17 6.54C0.16 6.54 0.15 6.53 0.15 6.52L0.13 6.49C0.13 6.48 0.13 6.48 0.12 6.47C0.12 6.46 0.11 6.45 0.11 6.44C0.11 6.43 0.1 6.42 0.1 6.41C0.09 6.4 0.09 6.39 0.09 6.38C0.09 6.37 0.08 6.36 0.08 6.35C0.08 6.34 0.08 6.33 0.07 6.32L0.07 6.29L0.06 6.27L0.06 6.15L0.07 6.12L0.07 6.09C0.08 6.08 0.08 6.07 0.08 6.06C0.08 6.05 0.09 6.04 0.09 6.03C0.09 6.02 0.09 6.01 0.1 6C0.1 5.99 0.11 5.98 0.11 5.97C0.11 5.96 0.12 5.95 0.12 5.94C0.13 5.94 0.13 5.93 0.13 5.92L0.15 5.89C0.15 5.88 0.16 5.87 0.17 5.87C0.17 5.86 0.18 5.85 0.18 5.84L0.2 5.82C0.21 5.81 0.21 5.8 0.22 5.79C0.23 5.79 0.23 5.78 0.24 5.77C0.25 5.77 0.26 5.76 0.26 5.75C0.27 5.75 0.28 5.74 0.29 5.73L0.31 5.71C0.32 5.71 0.33 5.7 0.33 5.7C0.34 5.69 0.35 5.69 0.36 5.68L0.39 5.67C0.39 5.66 0.4 5.66 0.41 5.65C0.42 5.65 0.43 5.64 0.44 5.64C0.45 5.64 0.46 5.63 0.47 5.63C0.48 5.63 0.49 5.62 0.5 5.62C0.51 5.62 0.52 5.61 0.53 5.61L0.55 5.61C0.56 5.6 0.57 5.6 0.58 5.6L0.64 5.6C0.65 5.59 0.66 5.59 0.67 5.59L4.19 5.59C4.2 5.58 4.21 5.56 4.23 5.54C4.25 5.51 4.27 5.48 4.3 5.45L5.3 4.4L2.63 4.4L2.6 4.39L2.57 4.39C2.56 4.39 2.55 4.38 2.54 4.38C2.53 4.38 2.52 4.38 2.51 4.37C2.5 4.37 2.49 4.37 2.48 4.36C2.47 4.36 2.46 4.36 2.46 4.35C2.45 4.35 2.44 4.35 2.43 4.34C2.42 4.34 2.41 4.33 2.4 4.33L2.37 4.31C2.37 4.31 2.36 4.3 2.35 4.3C2.34 4.29 2.33 4.29 2.32 4.28C2.32 4.27 2.31 4.27 2.3 4.26L2.28 4.24C2.27 4.24 2.26 4.23 2.26 4.22C2.25 4.21 2.24 4.21 2.24 4.2L2.22 4.18C2.21 4.17 2.2 4.16 2.2 4.15L2.18 4.13C2.18 4.12 2.17 4.11 2.16 4.1L2.15 4.08C2.15 4.07 2.14 4.06 2.14 4.05C2.13 4.04 2.13 4.03 2.12 4.02C2.12 4.01 2.12 4 2.11 3.99C2.11 3.99 2.11 3.98 2.1 3.97L2.1 3.94C2.09 3.93 2.09 3.92 2.09 3.91C2.09 3.9 2.09 3.89 2.08 3.88L2.08 3.7C2.09 3.69 2.09 3.68 2.09 3.67C2.09 3.66 2.09 3.65 2.1 3.64L2.1 3.61C2.11 3.6 2.11 3.59 2.11 3.58C2.12 3.57 2.12 3.56 2.12 3.56C2.13 3.55 2.13 3.54 2.14 3.53C2.14 3.52 2.15 3.51 2.15 3.5L2.16 3.47C2.17 3.47 2.18 3.46 2.18 3.45C2.19 3.44 2.19 3.43 2.2 3.42L2.22 3.4C2.22 3.39 2.23 3.39 2.24 3.38C2.24 3.37 2.25 3.36 2.26 3.36C2.26 3.35 2.27 3.34 2.28 3.34C2.29 3.33 2.29 3.32 2.3 3.32L2.32 3.3C2.33 3.29 2.34 3.29 2.35 3.28C2.36 3.28 2.37 3.27 2.37 3.26L2.4 3.25C2.41 3.25 2.42 3.24 2.43 3.24C2.44 3.23 2.45 3.23 2.46 3.22C2.46 3.22 2.47 3.22 2.48 3.21C2.49 3.21 2.5 3.21 2.51 3.2L2.54 3.2C2.55 3.19 2.56 3.19 2.57 3.19C2.58 3.19 2.59 3.19 2.6 3.18L6.81 3.18C6.82 3.19 6.83 3.19 6.84 3.19C6.85 3.19 6.86 3.19 6.87 3.2L6.9 3.2C6.91 3.21 6.92 3.21 6.93 3.21C6.94 3.22 6.95 3.22 6.96 3.22L6.98 3.24C6.99 3.24 7 3.25 7.01 3.25L7.04 3.26C7.04 3.27 7.05 3.28 7.06 3.28C7.07 3.29 7.08 3.29 7.09 3.3L7.11 3.32C7.12 3.32 7.13 3.33 7.13 3.34C7.14 3.34 7.15 3.35 7.15 3.36C7.16 3.36 7.17 3.37 7.17 3.38C7.18 3.39 7.19 3.39 7.2 3.4C7.2 3.41 7.21 3.42 7.21 3.42C7.22 3.43 7.22 3.44 7.23 3.45C7.24 3.46 7.24 3.47 7.25 3.47L7.26 3.5C7.27 3.51 7.27 3.52 7.27 3.53C7.28 3.54 7.28 3.55 7.29 3.56C7.29 3.56 7.29 3.57 7.3 3.58C7.3 3.59 7.3 3.6 7.31 3.61C7.31 3.62 7.31 3.63 7.32 3.64L7.32 3.67C7.32 3.68 7.32 3.69 7.33 3.7L7.33 3.79C7.33 3.83 7.33 3.87 7.32 3.9C7.32 3.94 7.3 3.98 7.29 4.02C7.27 4.05 7.26 4.09 7.24 4.12C7.22 4.15 7.19 4.18 7.16 4.21L5.85 5.59L8.51 5.59C8.52 5.59 8.54 5.6 8.55 5.6C8.57 5.6 8.59 5.6 8.61 5.61C8.62 5.61 8.64 5.61 8.66 5.62C8.68 5.62 8.7 5.63 8.71 5.64C8.73 5.64 8.75 5.65 8.77 5.66C8.78 5.67 8.8 5.68 8.81 5.69C8.83 5.7 8.85 5.71 8.86 5.72C8.88 5.73 8.89 5.74 8.91 5.75C8.92 5.77 8.93 5.78 8.94 5.79C8.96 5.81 8.97 5.82 8.98 5.84C8.99 5.85 9 5.87 9.01 5.88C9.02 5.9 9.03 5.92 9.04 5.93C9.05 5.95 9.06 5.97 9.06 5.99C9.07 6 9.08 6.02 9.08 6.04C9.08 6.06 9.09 6.07 9.09 6.09C9.1 6.11 9.1 6.13 9.1 6.15L9.1 6.26C9.1 6.28 9.1 6.3 9.09 6.32C9.09 6.34 9.08 6.35 9.08 6.37C9.08 6.39 9.07 6.41 9.06 6.43C9.06 6.44 9.05 6.46 9.04 6.48C9.03 6.49 9.02 6.51 9.01 6.53C9 6.54 8.99 6.56 8.98 6.57C8.97 6.59 8.96 6.6 8.94 6.62C8.93 6.63 8.92 6.65 8.9 6.66C8.89 6.67 8.87 6.68 8.86 6.69C8.84 6.71 8.83 6.71 8.81 6.73C8.8 6.74 8.78 6.74 8.76 6.75C8.75 6.76 8.73 6.77 8.71 6.78C8.69 6.78 8.68 6.79 8.66 6.79C8.64 6.8 8.62 6.8 8.6 6.81L8.55 6.81C8.53 6.82 8.51 6.82 8.49 6.82L5.35 6.82L5.35 7.91C5.35 7.99 5.34 8.08 5.32 8.16ZM9.46 18.32C9.45 18.3 9.44 18.28 9.44 18.27C9.43 18.25 9.43 18.23 9.42 18.22L9.42 18.16C9.41 18.15 9.41 18.13 9.41 18.11L9.41 18.06C9.41 18.04 9.41 18.02 9.42 18C9.42 17.97 9.43 17.93 9.44 17.9L12.96 7.31C12.98 7.26 13 7.21 13.02 7.17C13.05 7.12 13.07 7.08 13.11 7.04C13.14 6.99 13.17 6.96 13.21 6.92C13.24 6.89 13.28 6.85 13.33 6.82C13.37 6.79 13.41 6.77 13.46 6.75C13.5 6.72 13.55 6.7 13.6 6.69C13.65 6.67 13.7 6.66 13.75 6.65L13.92 6.65C13.97 6.65 14.02 6.65 14.07 6.66C14.12 6.67 14.17 6.69 14.22 6.71C14.27 6.72 14.32 6.75 14.36 6.77C14.41 6.8 14.45 6.82 14.49 6.86C14.53 6.89 14.57 6.92 14.6 6.96C14.64 7 14.67 7.04 14.7 7.08C14.73 7.12 14.75 7.17 14.78 7.22C14.8 7.26 14.82 7.31 14.83 7.37L17.7 17.93C17.71 17.95 17.71 17.97 17.71 17.99C17.72 18.01 17.72 18.03 17.72 18.05L17.72 18.17C17.71 18.19 17.71 18.21 17.71 18.23C17.7 18.25 17.7 18.26 17.69 18.28C17.68 18.3 17.68 18.32 17.67 18.34C17.66 18.36 17.65 18.37 17.64 18.39C17.63 18.41 17.62 18.43 17.61 18.44C17.6 18.46 17.59 18.47 17.57 18.49C17.56 18.51 17.55 18.52 17.53 18.53C17.52 18.55 17.5 18.56 17.49 18.57C17.47 18.58 17.45 18.6 17.44 18.61L17.38 18.64C17.37 18.64 17.35 18.65 17.33 18.66C17.31 18.67 17.29 18.67 17.27 18.68C17.26 18.68 17.25 18.68 17.24 18.69L17.21 18.69C17.2 18.69 17.19 18.69 17.18 18.7L17.06 18.7L17.03 18.69L17 18.69C16.99 18.69 16.98 18.69 16.97 18.68L16.94 18.68C16.94 18.67 16.93 18.67 16.92 18.67C16.91 18.67 16.9 18.66 16.89 18.66C16.88 18.65 16.87 18.65 16.86 18.65C16.85 18.64 16.84 18.64 16.83 18.63L16.81 18.62C16.8 18.61 16.79 18.61 16.78 18.6C16.77 18.6 16.77 18.59 16.76 18.59C16.75 18.58 16.74 18.58 16.73 18.57L16.71 18.55C16.7 18.54 16.69 18.54 16.69 18.53L16.65 18.49C16.64 18.48 16.63 18.47 16.63 18.46L16.61 18.44C16.6 18.43 16.6 18.42 16.59 18.41L16.58 18.39C16.57 18.38 16.57 18.37 16.56 18.36C16.56 18.35 16.56 18.34 16.55 18.33C16.55 18.32 16.54 18.32 16.54 18.31C16.54 18.3 16.53 18.29 16.53 18.28C16.53 18.27 16.52 18.26 16.52 18.25L15.73 15.34L11.58 15.34L10.6 18.28C10.6 18.3 10.59 18.32 10.58 18.34C10.57 18.36 10.56 18.37 10.55 18.39C10.54 18.41 10.53 18.42 10.52 18.44C10.51 18.46 10.5 18.47 10.48 18.49C10.47 18.5 10.46 18.52 10.44 18.53C10.43 18.55 10.41 18.56 10.4 18.57C10.38 18.58 10.37 18.59 10.35 18.61C10.33 18.62 10.31 18.63 10.3 18.64C10.26 18.65 10.22 18.67 10.18 18.68C10.15 18.69 10.11 18.69 10.07 18.7L9.95 18.7L9.83 18.67C9.81 18.66 9.8 18.66 9.78 18.65C9.76 18.64 9.75 18.64 9.73 18.63C9.72 18.62 9.7 18.61 9.69 18.6C9.67 18.59 9.66 18.58 9.64 18.57L9.6 18.53L9.57 18.5C9.56 18.48 9.54 18.47 9.53 18.46C9.52 18.44 9.51 18.43 9.5 18.41C9.49 18.4 9.49 18.38 9.48 18.36L9.46 18.32ZM11.99 14.12L13.86 8.47L15.4 14.12L11.99 14.12ZM8.39 16.02C8.38 16 8.37 15.99 8.36 15.97C8.35 15.95 8.34 15.93 8.33 15.92C8.32 15.9 8.31 15.88 8.3 15.87L8.21 15.78C8.2 15.77 8.18 15.76 8.16 15.75C8.14 15.74 8.13 15.73 8.11 15.72C8.09 15.71 8.07 15.7 8.06 15.69C8.04 15.68 8.02 15.68 8 15.67C7.98 15.67 7.96 15.66 7.94 15.66C7.92 15.65 7.9 15.65 7.88 15.65C7.86 15.65 7.84 15.64 7.82 15.64C7.44 15.64 7.06 15.61 6.69 15.53C6.33 15.46 5.97 15.35 5.63 15.2C5.47 15.13 5.3 15.05 5.14 14.97C4.98 14.88 4.83 14.79 4.68 14.69C4.53 14.58 4.39 14.48 4.25 14.36C4.11 14.25 3.97 14.13 3.85 14C3.72 13.87 3.6 13.74 3.48 13.6C3.37 13.46 3.26 13.31 3.16 13.17C3.06 13.02 2.96 12.86 2.88 12.7C2.79 12.54 2.71 12.38 2.64 12.21C2.5 11.87 2.39 11.52 2.31 11.16C2.24 10.78 2.2 10.41 2.2 10.02L2.2 9.96L2.19 9.93L2.19 9.9C2.19 9.89 2.18 9.88 2.18 9.87C2.18 9.86 2.18 9.85 2.17 9.84C2.17 9.84 2.17 9.83 2.16 9.82C2.16 9.81 2.16 9.8 2.15 9.79C2.15 9.78 2.15 9.77 2.14 9.76C2.14 9.75 2.13 9.74 2.13 9.73L2.11 9.71C2.11 9.7 2.1 9.69 2.1 9.68L2.08 9.66C2.07 9.65 2.07 9.64 2.06 9.63C2.05 9.63 2.05 9.62 2.04 9.61L2.02 9.59L2 9.57C1.99 9.56 1.98 9.56 1.98 9.55C1.97 9.54 1.96 9.54 1.95 9.53C1.94 9.53 1.94 9.52 1.93 9.51C1.92 9.51 1.91 9.5 1.9 9.5L1.88 9.48C1.87 9.48 1.86 9.47 1.85 9.47C1.84 9.47 1.83 9.46 1.82 9.46C1.81 9.45 1.8 9.45 1.79 9.45C1.79 9.44 1.78 9.44 1.77 9.44C1.76 9.43 1.75 9.43 1.74 9.43C1.73 9.43 1.72 9.42 1.71 9.42L1.68 9.42L1.65 9.41L1.53 9.41L1.5 9.42L1.47 9.42C1.46 9.42 1.45 9.43 1.44 9.43C1.43 9.43 1.42 9.43 1.41 9.44C1.4 9.44 1.39 9.44 1.38 9.45C1.37 9.45 1.36 9.45 1.36 9.46C1.35 9.46 1.34 9.47 1.33 9.47C1.32 9.47 1.31 9.48 1.3 9.48L1.27 9.5C1.27 9.5 1.26 9.51 1.25 9.51C1.24 9.52 1.23 9.53 1.22 9.53C1.22 9.54 1.21 9.54 1.2 9.55L1.18 9.57C1.17 9.58 1.16 9.58 1.16 9.59C1.15 9.6 1.14 9.6 1.14 9.61L1.12 9.63C1.11 9.64 1.1 9.65 1.1 9.66L1.08 9.68C1.08 9.69 1.07 9.7 1.06 9.71L1.05 9.73C1.05 9.74 1.04 9.75 1.04 9.76C1.03 9.77 1.03 9.78 1.02 9.79C1.02 9.8 1.02 9.81 1.01 9.82C1.01 9.83 1.01 9.84 1 9.84L1 9.87C0.99 9.88 0.99 9.89 0.99 9.9C0.99 9.91 0.99 9.92 0.98 9.93L0.98 10.02C0.98 10.26 0.99 10.49 1.01 10.72C1.04 10.95 1.07 11.18 1.12 11.4C1.16 11.62 1.22 11.84 1.29 12.06C1.35 12.27 1.43 12.48 1.52 12.69C1.6 12.89 1.7 13.09 1.8 13.29C1.91 13.48 2.02 13.67 2.15 13.85C2.27 14.03 2.4 14.21 2.54 14.38C2.68 14.55 2.83 14.71 2.98 14.86C3.14 15.02 3.3 15.16 3.47 15.3C3.64 15.44 3.81 15.57 4 15.7C4.18 15.82 4.37 15.94 4.56 16.04C4.75 16.15 4.95 16.24 5.16 16.33C5.36 16.42 5.57 16.49 5.79 16.56C6 16.63 6.22 16.68 6.44 16.73C6.67 16.77 6.89 16.81 7.12 16.83C7.36 16.85 7.59 16.87 7.82 16.87L7.85 16.87C7.86 16.87 7.87 16.86 7.88 16.86L7.91 16.86C7.92 16.86 7.93 16.86 7.94 16.85L7.97 16.85C7.98 16.85 7.99 16.84 8 16.84C8.01 16.84 8.02 16.83 8.03 16.83C8.04 16.83 8.05 16.82 8.06 16.82C8.07 16.82 8.07 16.81 8.08 16.81C8.09 16.8 8.1 16.8 8.11 16.79L8.14 16.78C8.14 16.77 8.15 16.77 8.16 16.76C8.17 16.76 8.18 16.75 8.19 16.75C8.19 16.74 8.2 16.73 8.21 16.73C8.22 16.72 8.23 16.72 8.23 16.71L8.25 16.69L8.27 16.67L8.3 16.64C8.3 16.64 8.31 16.63 8.31 16.62C8.32 16.61 8.32 16.6 8.33 16.6C8.34 16.59 8.34 16.58 8.35 16.57L8.36 16.54C8.37 16.53 8.37 16.53 8.37 16.52C8.38 16.51 8.38 16.5 8.39 16.49C8.39 16.48 8.39 16.47 8.4 16.46C8.4 16.45 8.4 16.44 8.41 16.43L8.41 16.4C8.42 16.39 8.42 16.39 8.42 16.38C8.42 16.37 8.42 16.35 8.43 16.34L8.43 16.2C8.43 16.18 8.43 16.16 8.42 16.14C8.42 16.12 8.41 16.1 8.41 16.08C8.4 16.06 8.39 16.04 8.39 16.02Z" /></g></g></svg>