<svg xmlns="http://www.w3.org/2000/svg" xmlns:xlink="http://www.w3.org/1999/xlink" width="22" height="22" viewBox="0 0 22 22" fill="none"><defs><rect id="path_0" x="0" y="0" width="22" height="22" /></defs><g opacity="1" transform="translate(0 0)  rotate(0 11 11)"><mask id="bg-mask-0" fill="white"><use xlink:href="#path_0"></use></mask><g mask="url(#bg-mask-0)" ><path id="并集" fill-rule="evenodd" style="fill:#000000" transform="translate(1.3444444444444343 1.3444444444444343)  rotate(0 9.655555555555555 9.655555555555555)" opacity="1" d="M9.66 0C4.32 0 0 4.32 0 9.66C0 14.99 4.32 19.31 9.66 19.31C14.99 19.31 19.31 14.99 19.31 9.66C19.31 4.32 14.99 0 9.66 0Z M10.52 1.27C10.23 1.24 9.95 1.22 9.66 1.22C9.37 1.22 9.08 1.24 8.79 1.27C8.51 1.29 8.23 1.34 7.95 1.39C7.68 1.45 7.41 1.52 7.15 1.6C6.88 1.68 6.63 1.78 6.37 1.88C6.12 1.99 5.88 2.11 5.64 2.24C5.4 2.37 5.17 2.51 4.94 2.66C4.72 2.81 4.5 2.98 4.29 3.15Q3.975 3.405 3.69 3.69Q3.405 3.975 3.15 4.29C2.98 4.5 2.81 4.72 2.66 4.94C2.51 5.17 2.37 5.4 2.24 5.64C2.11 5.88 1.99 6.12 1.88 6.37C1.78 6.63 1.68 6.88 1.6 7.15C1.52 7.41 1.45 7.68 1.39 7.95C1.34 8.23 1.29 8.51 1.27 8.79C1.24 9.08 1.22 9.37 1.22 9.66C1.22 9.95 1.24 10.23 1.27 10.52C1.29 10.8 1.34 11.08 1.39 11.36C1.45 11.63 1.52 11.9 1.6 12.16C1.68 12.43 1.78 12.68 1.88 12.94C1.99 13.19 2.11 13.43 2.24 13.67C2.37 13.91 2.51 14.14 2.66 14.37C2.81 14.59 2.98 14.81 3.15 15.02C3.32 15.23 3.5 15.43 3.69 15.62C3.88 15.81 4.08 15.99 4.29 16.16C4.5 16.34 4.72 16.5 4.94 16.65C5.17 16.8 5.4 16.94 5.64 17.07C5.88 17.2 6.12 17.32 6.37 17.43C6.63 17.53 6.88 17.63 7.15 17.71C7.41 17.79 7.68 17.86 7.95 17.92C8.23 17.97 8.51 18.02 8.79 18.05C9.08 18.07 9.37 18.09 9.66 18.09C9.95 18.09 10.23 18.07 10.52 18.05C10.8 18.02 11.08 17.97 11.36 17.92C11.63 17.86 11.9 17.79 12.16 17.71C12.43 17.63 12.68 17.53 12.94 17.43C13.19 17.32 13.43 17.2 13.67 17.07C13.91 16.94 14.14 16.8 14.37 16.65C14.59 16.5 14.81 16.34 15.02 16.16C15.23 15.99 15.43 15.81 15.62 15.62C15.81 15.43 15.99 15.23 16.16 15.02C16.34 14.81 16.5 14.59 16.65 14.37C16.8 14.14 16.94 13.91 17.07 13.67C17.2 13.43 17.32 13.19 17.43 12.94C17.53 12.68 17.63 12.43 17.71 12.16C17.79 11.9 17.86 11.63 17.92 11.36C17.97 11.08 18.02 10.8 18.05 10.52C18.07 10.23 18.09 9.95 18.09 9.66C18.09 9.37 18.07 9.08 18.05 8.79C18.02 8.51 17.97 8.23 17.92 7.95C17.86 7.68 17.79 7.41 17.71 7.15C17.63 6.88 17.53 6.63 17.43 6.37C17.32 6.12 17.2 5.88 17.07 5.64C16.94 5.4 16.8 5.17 16.65 4.94C16.5 4.72 16.34 4.5 16.16 4.29C15.99 4.08 15.81 3.88 15.62 3.69C15.43 3.5 15.23 3.32 15.02 3.15C14.81 2.98 14.59 2.81 14.37 2.66C14.14 2.51 13.91 2.37 13.67 2.24C13.43 2.11 13.19 1.99 12.94 1.88C12.68 1.78 12.43 1.68 12.16 1.6C11.9 1.52 11.63 1.45 11.36 1.39C11.08 1.34 10.8 1.29 10.52 1.27Z M6.42173 5.60922C6.42173 5.61922 6.41173 5.62922 6.41173 5.63922L6.41173 5.66922C6.41173 5.67922 6.40173 5.68922 6.40173 5.69922L6.40173 8.35922C6.40173 8.37922 6.41173 8.39922 6.41173 8.41922C6.42173 8.43922 6.42173 8.45922 6.43173 8.47922C6.43173 8.48922 6.44173 8.50922 6.45173 8.52922C6.45173 8.54922 6.46173 8.56922 6.47173 8.58922C6.48173 8.59922 6.49173 8.61922 6.50173 8.63922C6.51173 8.64922 6.53173 8.66922 6.54173 8.68922C6.55173 8.69922 6.56173 8.71922 6.58173 8.72922L6.62173 8.76922C6.64173 8.77922 6.65173 8.78922 6.67173 8.80922C6.69173 8.81922 6.71173 8.82922 6.72173 8.83922C6.74173 8.84922 6.76173 8.84922 6.78173 8.85922C6.80173 8.86922 6.81173 8.87922 6.83173 8.87922C6.85173 8.88922 6.87173 8.88922 6.89173 8.89922C6.91173 8.89922 6.93173 8.89922 6.95173 8.90922L7.07173 8.90922C7.08173 8.89922 7.09173 8.89922 7.10173 8.89922L7.13173 8.89922C7.14173 8.89922 7.15173 8.88922 7.16173 8.88922C7.17173 8.88922 7.18173 8.88922 7.19173 8.87922C7.20173 8.87922 7.21173 8.87922 7.22173 8.86922C7.23173 8.86922 7.24173 8.86922 7.24173 8.85922C7.25173 8.85922 7.26173 8.84922 7.27173 8.84922C7.28173 8.84922 7.29173 8.83922 7.30173 8.83922C7.31173 8.82922 7.32173 8.82922 7.33173 8.81922C7.33173 8.81922 7.34173 8.80922 7.35173 8.80922C7.36173 8.79922 7.37173 8.78922 7.38173 8.78922C7.38173 8.77922 7.39173 8.77922 7.40173 8.76922L7.42173 8.74922C7.43173 8.73922 7.44173 8.73922 7.44173 8.72922C7.45173 8.71922 7.46173 8.71922 7.46173 8.70922L7.48173 8.68922C7.49173 8.67922 7.50173 8.66922 7.50173 8.65922L7.52173 8.63922C7.52173 8.62922 7.53173 8.61922 7.54173 8.60922C7.54173 8.59922 7.55173 8.58922 7.55173 8.58922C7.55173 8.57922 7.56173 8.56922 7.56173 8.55922C7.57173 8.54922 7.57173 8.53922 7.58173 8.52922C7.58173 8.51922 7.58173 8.50922 7.59173 8.49922C7.59173 8.48922 7.59173 8.47922 7.60173 8.47922L7.60173 8.44922C7.61173 8.43922 7.61173 8.42922 7.61173 8.41922C7.61173 8.40922 7.61173 8.39922 7.62173 8.38922L7.62173 5.66922C7.61173 5.65922 7.61173 5.64922 7.61173 5.63922C7.61173 5.62922 7.61173 5.61922 7.60173 5.60922L7.60173 5.57922C7.59173 5.56922 7.59173 5.55922 7.59173 5.55922C7.58173 5.54922 7.58173 5.53922 7.58173 5.52922C7.57173 5.51922 7.57173 5.50922 7.56173 5.49922C7.56173 5.48922 7.55173 5.47922 7.55173 5.46922C7.55173 5.45922 7.54173 5.45922 7.54173 5.44922C7.53173 5.43922 7.52173 5.42922 7.52173 5.41922L7.50173 5.39922C7.50173 5.38922 7.49173 5.37922 7.48173 5.36922L7.46173 5.34922C7.46173 5.33922 7.45173 5.33922 7.44173 5.32922C7.44173 5.31922 7.43173 5.31922 7.42173 5.30922L7.40173 5.28922C7.39173 5.27922 7.38173 5.27922 7.38173 5.26922C7.37173 5.25922 7.36173 5.25922 7.35173 5.24922C7.34173 5.24922 7.33173 5.23922 7.33173 5.23922C7.32173 5.22922 7.31173 5.22922 7.30173 5.21922C7.29173 5.21922 7.28173 5.20922 7.27173 5.20922C7.26173 5.19922 7.25173 5.19922 7.24173 5.19922C7.24173 5.18922 7.23173 5.18922 7.22173 5.18922C7.21173 5.17922 7.20173 5.17922 7.19173 5.17922C7.18173 5.16922 7.17173 5.16922 7.16173 5.16922C7.15173 5.16922 7.14173 5.15922 7.13173 5.15922L7.10173 5.15922C7.09173 5.15922 7.08173 5.14922 7.07173 5.14922L6.95173 5.14922C6.94173 5.14922 6.93173 5.15922 6.92173 5.15922L6.89173 5.15922C6.88173 5.15922 6.87173 5.16922 6.86173 5.16922C6.85173 5.16922 6.84173 5.16922 6.83173 5.17922C6.82173 5.17922 6.81173 5.17922 6.81173 5.18922C6.80173 5.18922 6.79173 5.18922 6.78173 5.19922C6.77173 5.19922 6.76173 5.19922 6.75173 5.20922C6.74173 5.20922 6.73173 5.21922 6.72173 5.21922L6.70173 5.23922C6.69173 5.23922 6.68173 5.24922 6.67173 5.24922L6.65173 5.26922C6.64173 5.27922 6.63173 5.27922 6.62173 5.28922C6.62173 5.29922 6.61173 5.29922 6.60173 5.30922L6.56173 5.34922C6.55173 5.35922 6.55173 5.36922 6.54173 5.36922C6.53173 5.37922 6.53173 5.38922 6.52173 5.39922L6.50173 5.41922C6.50173 5.42922 6.49173 5.43922 6.49173 5.44922L6.47173 5.46922C6.47173 5.47922 6.46173 5.48922 6.46173 5.49922C6.45173 5.50922 6.45173 5.51922 6.45173 5.52922C6.44173 5.53922 6.44173 5.54922 6.44173 5.55922C6.43173 5.55922 6.43173 5.56922 6.43173 5.57922C6.42173 5.58922 6.42173 5.59922 6.42173 5.60922Z M12.0044 5.17922C11.9944 5.17922 11.9844 5.17922 11.9844 5.18922C11.9744 5.18922 11.9644 5.18922 11.9544 5.19922C11.9444 5.19922 11.9344 5.19922 11.9244 5.20922C11.9144 5.20922 11.9044 5.21922 11.8944 5.21922L11.8744 5.23922C11.8644 5.23922 11.8544 5.24922 11.8444 5.24922L11.8244 5.26922C11.8144 5.27922 11.8044 5.27922 11.7944 5.28922C11.7944 5.29922 11.7844 5.29922 11.7744 5.30922L11.7544 5.32922L11.7344 5.34922C11.7244 5.35922 11.7244 5.36922 11.7144 5.36922C11.7044 5.37922 11.7044 5.38922 11.6944 5.39922L11.6744 5.41922C11.6744 5.42922 11.6644 5.43922 11.6644 5.44922L11.6444 5.46922C11.6444 5.47922 11.6344 5.48922 11.6344 5.49922C11.6244 5.50922 11.6244 5.51922 11.6244 5.52922C11.6144 5.53922 11.6144 5.54922 11.6144 5.55922C11.6044 5.55922 11.6044 5.56922 11.6044 5.57922C11.5944 5.58922 11.5944 5.59922 11.5944 5.60922C11.5944 5.61922 11.5844 5.62922 11.5844 5.63922L11.5844 5.66922C11.5844 5.67922 11.5744 5.68922 11.5744 5.69922L11.5744 8.35922C11.5744 8.37922 11.5844 8.39922 11.5844 8.41922C11.5944 8.43922 11.5944 8.45922 11.6044 8.47922C11.6044 8.48922 11.6144 8.50922 11.6244 8.52922C11.6244 8.54922 11.6344 8.56922 11.6444 8.58922C11.6544 8.59922 11.6644 8.61922 11.6744 8.63922C11.6844 8.64922 11.7044 8.66922 11.7144 8.68922C11.7244 8.69922 11.7344 8.71922 11.7544 8.72922L11.7944 8.76922C11.8144 8.77922 11.8244 8.78922 11.8444 8.80922C11.8644 8.81922 11.8844 8.82922 11.8944 8.83922C11.9144 8.84922 11.9344 8.84922 11.9544 8.85922C11.9744 8.86922 11.9844 8.87922 12.0044 8.87922C12.0244 8.88922 12.0444 8.88922 12.0644 8.89922C12.0844 8.89922 12.1044 8.89922 12.1244 8.90922L12.2444 8.90922C12.2544 8.89922 12.2644 8.89922 12.2744 8.89922L12.3044 8.89922C12.3144 8.89922 12.3244 8.88922 12.3344 8.88922C12.3444 8.88922 12.3544 8.88922 12.3644 8.87922C12.3744 8.87922 12.3844 8.87922 12.3944 8.86922C12.4044 8.86922 12.4144 8.86922 12.4144 8.85922C12.4244 8.85922 12.4344 8.84922 12.4444 8.84922C12.4544 8.84922 12.4644 8.83922 12.4744 8.83922C12.4844 8.82922 12.4944 8.82922 12.5044 8.81922C12.5044 8.81922 12.5144 8.80922 12.5244 8.80922C12.5344 8.79922 12.5444 8.78922 12.5544 8.78922C12.5544 8.77922 12.5644 8.77922 12.5744 8.76922L12.5944 8.74922C12.6044 8.73922 12.6144 8.73922 12.6144 8.72922C12.6244 8.71922 12.6344 8.71922 12.6344 8.70922L12.6544 8.68922C12.6644 8.67922 12.6744 8.66922 12.6744 8.65922L12.6944 8.63922C12.6944 8.62922 12.7044 8.61922 12.7144 8.60922C12.7144 8.59922 12.7244 8.58922 12.7244 8.58922C12.7244 8.57922 12.7344 8.56922 12.7344 8.55922C12.7444 8.54922 12.7444 8.53922 12.7544 8.52922C12.7544 8.51922 12.7544 8.50922 12.7644 8.49922C12.7644 8.48922 12.7644 8.47922 12.7744 8.47922L12.7744 8.44922C12.7844 8.43922 12.7844 8.42922 12.7844 8.41922C12.7844 8.40922 12.7844 8.39922 12.7944 8.38922L12.7944 5.66922C12.7844 5.65922 12.7844 5.64922 12.7844 5.63922C12.7844 5.62922 12.7844 5.61922 12.7744 5.60922L12.7744 5.57922C12.7644 5.56922 12.7644 5.55922 12.7644 5.55922C12.7544 5.54922 12.7544 5.53922 12.7544 5.52922C12.7444 5.51922 12.7444 5.50922 12.7344 5.49922C12.7344 5.48922 12.7244 5.47922 12.7244 5.46922C12.7244 5.45922 12.7144 5.45922 12.7144 5.44922C12.7044 5.43922 12.6944 5.42922 12.6944 5.41922L12.6744 5.39922C12.6744 5.38922 12.6644 5.37922 12.6544 5.36922L12.6344 5.34922C12.6344 5.33922 12.6244 5.33922 12.6144 5.32922C12.6144 5.31922 12.6044 5.31922 12.5944 5.30922L12.5744 5.28922C12.5644 5.27922 12.5544 5.27922 12.5544 5.26922C12.5444 5.25922 12.5344 5.25922 12.5244 5.24922C12.5144 5.24922 12.5044 5.23922 12.5044 5.23922C12.4944 5.22922 12.4844 5.22922 12.4744 5.21922C12.4644 5.21922 12.4544 5.20922 12.4444 5.20922C12.4344 5.19922 12.4244 5.19922 12.4144 5.19922C12.4144 5.18922 12.4044 5.18922 12.3944 5.18922C12.3844 5.17922 12.3744 5.17922 12.3644 5.17922C12.3544 5.16922 12.3444 5.16922 12.3344 5.16922C12.3244 5.16922 12.3144 5.15922 12.3044 5.15922L12.2744 5.15922C12.2644 5.15922 12.2544 5.14922 12.2444 5.14922L12.1244 5.14922C12.1144 5.14922 12.1044 5.15922 12.0944 5.15922L12.0644 5.15922C12.0544 5.15922 12.0444 5.16922 12.0344 5.16922C12.0244 5.16922 12.0144 5.16922 12.0044 5.17922Z M4.86689 10.5011L4.86689 10.6211C4.86689 10.6311 4.86689 10.6411 4.87689 10.6511L4.87689 10.6811C4.87689 10.6911 4.87689 10.7011 4.88689 10.7111L4.88689 10.7411C4.89689 10.7511 4.89689 10.7611 4.89689 10.7711C4.90689 10.7811 4.90689 10.7911 4.90689 10.8011C4.91689 10.8111 4.91689 10.8211 4.92689 10.8311C4.92689 10.8411 4.93689 10.8511 4.94689 10.8711C4.95689 10.9011 4.97689 10.9411 4.99689 10.9711C5.05689 11.0711 5.11689 11.1811 5.19689 11.2911C5.29689 11.4411 5.40689 11.5911 5.52689 11.7411C5.67689 11.9211 5.83689 12.0811 6.00689 12.2411C6.20689 12.4311 6.42689 12.6011 6.65689 12.7511C6.91689 12.9211 7.18689 13.0711 7.47689 13.2011C7.79689 13.3311 8.12689 13.4411 8.47689 13.5111C8.85689 13.5911 9.24689 13.6311 9.65689 13.6311C10.0669 13.6311 10.4569 13.5911 10.8369 13.5111C11.1869 13.4411 11.5169 13.3311 11.8369 13.2011C12.1269 13.0711 12.3969 12.9211 12.6569 12.7511C12.8869 12.6011 13.1069 12.4311 13.3069 12.2411C13.4769 12.0811 13.6369 11.9211 13.7869 11.7411C13.9069 11.5911 14.0169 11.4411 14.1169 11.2911C14.1969 11.1811 14.2569 11.0711 14.3169 10.9711C14.3369 10.9411 14.3569 10.9011 14.3669 10.8711C14.3769 10.8511 14.3869 10.8411 14.3869 10.8311C14.4069 10.7911 14.4269 10.7411 14.4269 10.7011C14.4369 10.6611 14.4469 10.6211 14.4469 10.5711L14.4469 10.5411C14.4469 10.5111 14.4369 10.4911 14.4369 10.4611C14.4269 10.4311 14.4269 10.4111 14.4169 10.3811C14.4069 10.3511 14.3969 10.3311 14.3869 10.3011C14.3669 10.2811 14.3569 10.2511 14.3369 10.2311C14.3269 10.2111 14.3069 10.1811 14.2869 10.1611C14.2669 10.1411 14.2469 10.1211 14.2269 10.1111C14.2069 10.0911 14.1869 10.0711 14.1669 10.0611C14.1369 10.0411 14.1169 10.0311 14.0869 10.0211C14.0469 10.0011 14.0069 9.98111 13.9669 9.97111C13.9269 9.96111 13.8769 9.96111 13.8369 9.96111L13.7969 9.96111C13.7669 9.96111 13.7469 9.97111 13.7169 9.97111C13.6869 9.98111 13.6569 9.98111 13.6369 9.99111C13.6069 10.0011 13.5869 10.0111 13.5569 10.0311C13.5369 10.0411 13.5069 10.0511 13.4869 10.0711C13.4669 10.0811 13.4469 10.1011 13.4269 10.1211L13.3669 10.1811C13.3469 10.2011 13.3369 10.2211 13.3169 10.2511C13.3069 10.2711 13.2869 10.2911 13.2769 10.3211L13.2469 10.3811C13.2069 10.4611 13.1569 10.5311 13.1069 10.6111C13.0269 10.7311 12.9369 10.8411 12.8469 10.9511C12.7369 11.0911 12.6069 11.2211 12.4769 11.3411C12.3169 11.4911 12.1569 11.6211 11.9769 11.7311C11.7869 11.8711 11.5769 11.9811 11.3569 12.0711C11.1169 12.1811 10.8569 12.2611 10.5869 12.3111C10.2869 12.3711 9.97689 12.4011 9.65689 12.4011C9.32689 12.4011 9.01689 12.3711 8.72689 12.3111C8.45689 12.2611 8.19689 12.1811 7.95689 12.0711C7.73689 11.9811 7.52689 11.8711 7.32689 11.7311C7.15689 11.6211 6.98689 11.4911 6.83689 11.3411C6.70689 11.2211 6.57689 11.0911 6.46689 10.9511C6.36689 10.8411 6.28689 10.7311 6.20689 10.6111C6.15689 10.5311 6.10689 10.4611 6.06689 10.3811L6.03689 10.3211L6.03689 10.3111L6.01689 10.2911C6.01689 10.2811 6.00689 10.2711 6.00689 10.2611C5.99689 10.2511 5.99689 10.2411 5.98689 10.2411C5.98689 10.2311 5.97689 10.2211 5.96689 10.2111C5.96689 10.2011 5.95689 10.1911 5.95689 10.1911C5.94689 10.1811 5.93689 10.1711 5.93689 10.1611C5.92689 10.1611 5.91689 10.1511 5.91689 10.1411C5.90689 10.1411 5.89689 10.1311 5.88689 10.1211C5.88689 10.1111 5.87689 10.1111 5.86689 10.1011C5.85689 10.1011 5.85689 10.0911 5.84689 10.0811C5.83689 10.0811 5.82689 10.0711 5.81689 10.0711C5.81689 10.0611 5.80689 10.0511 5.79689 10.0511C5.78689 10.0411 5.77689 10.0411 5.76689 10.0311C5.75689 10.0311 5.75689 10.0311 5.74689 10.0211C5.73689 10.0211 5.72689 10.0111 5.71689 10.0111C5.70689 10.0011 5.69689 10.0011 5.68689 10.0011C5.67689 9.99111 5.66689 9.99111 5.65689 9.99111C5.64689 9.98111 5.63689 9.98111 5.62689 9.98111C5.62689 9.98111 5.61689 9.97111 5.60689 9.97111L5.57689 9.97111C5.56689 9.97111 5.55689 9.96111 5.54689 9.96111L5.42689 9.96111C5.41689 9.96111 5.40689 9.96111 5.39689 9.97111L5.36689 9.97111C5.35689 9.97111 5.34689 9.97111 5.33689 9.98111L5.30689 9.98111C5.29689 9.99111 5.28689 9.99111 5.27689 9.99111C5.26689 10.0011 5.25689 10.0011 5.24689 10.0011L5.22689 10.0211C5.21689 10.0211 5.20689 10.0211 5.19689 10.0311C5.18689 10.0311 5.17689 10.0411 5.16689 10.0411L5.14689 10.0611C5.13689 10.0611 5.12689 10.0711 5.11689 10.0811C5.10689 10.0811 5.10689 10.0911 5.09689 10.0911L5.07689 10.1111C5.06689 10.1211 5.05689 10.1311 5.04689 10.1311C5.04689 10.1411 5.03689 10.1511 5.02689 10.1611L5.00689 10.1811C5.00689 10.1911 4.99689 10.1911 4.98689 10.2011C4.98689 10.2111 4.97689 10.2211 4.97689 10.2311C4.96689 10.2311 4.96689 10.2411 4.95689 10.2511C4.95689 10.2611 4.94689 10.2711 4.94689 10.2811L4.92689 10.3011C4.92689 10.3111 4.91689 10.3211 4.91689 10.3311C4.91689 10.3411 4.90689 10.3511 4.90689 10.3611C4.89689 10.3711 4.89689 10.3811 4.89689 10.3911C4.89689 10.4011 4.88689 10.4111 4.88689 10.4211C4.88689 10.4311 4.88689 10.4411 4.87689 10.4511L4.87689 10.4711C4.87689 10.4811 4.86689 10.4911 4.86689 10.5011Z " /></g></g></svg>