<svg xmlns="http://www.w3.org/2000/svg" xmlns:xlink="http://www.w3.org/1999/xlink" width="22" height="22" viewBox="0 0 22 22" fill="none"><defs><rect id="path_0" x="0" y="0" width="22" height="22" /></defs><g opacity="1" transform="translate(0 0)  rotate(0 11 11)"><mask id="bg-mask-0" fill="white"><use xlink:href="#path_0"></use></mask><g mask="url(#bg-mask-0)" ><path id="并集" fill-rule="evenodd" style="fill:#000000" transform="translate(1.4666666666666668 2.9773333333332914)  rotate(0 9.774111260308159 8.022666592068141)" opacity="1" d="M1.47 16.05C0.66 16.05 0 15.39 0 14.58L0 1.47C0 0.66 0.66 0 1.47 0L14.67 0C15.48 0 16.13 0.66 16.13 1.47L16.13 3.62L17.08 2.73C17.5 2.33 18.13 2.22 18.66 2.46C19.2 2.69 19.55 3.22 19.55 3.8L19.55 12.4C19.55 12.98 19.2 13.51 18.66 13.74C18.13 13.97 17.5 13.87 17.08 13.46L16.13 12.58L16.13 14.58C16.13 15.39 15.48 16.05 14.67 16.05L1.47 16.05ZM14.89 1.37C14.88 1.34 14.86 1.32 14.84 1.29C14.82 1.27 14.79 1.25 14.76 1.24C14.73 1.23 14.7 1.22 14.67 1.22L1.47 1.22C1.43 1.22 1.4 1.23 1.37 1.24C1.34 1.25 1.32 1.27 1.29 1.29C1.27 1.32 1.25 1.34 1.24 1.37C1.23 1.4 1.22 1.43 1.22 1.47L1.22 14.58C1.22 14.61 1.23 14.64 1.24 14.67C1.25 14.7 1.27 14.73 1.29 14.75C1.32 14.77 1.34 14.79 1.37 14.8C1.4 14.82 1.43 14.82 1.47 14.82L14.67 14.82C14.7 14.82 14.73 14.82 14.76 14.8C14.79 14.79 14.82 14.77 14.84 14.75C14.86 14.73 14.88 14.7 14.89 14.67C14.9 14.64 14.91 14.61 14.91 14.58L14.91 1.47C14.91 1.43 14.9 1.4 14.89 1.37ZM17.97 3.58C17.99 3.57 18.02 3.57 18.04 3.56L18.11 3.56C18.13 3.56 18.16 3.57 18.18 3.58C18.2 3.59 18.22 3.6 18.24 3.62C18.26 3.63 18.27 3.65 18.29 3.67L18.32 3.73C18.32 3.76 18.33 3.78 18.33 3.8L18.33 12.4C18.33 12.42 18.32 12.44 18.32 12.47L18.29 12.53C18.27 12.55 18.26 12.57 18.24 12.58C18.22 12.6 18.2 12.61 18.18 12.62C18.16 12.63 18.13 12.64 18.11 12.64L18.04 12.64C18.02 12.63 17.99 12.62 17.97 12.61C17.95 12.6 17.93 12.59 17.91 12.57L16.13 10.9L16.13 5.3L17.91 3.62C17.93 3.61 17.95 3.59 17.97 3.58Z" /></g></g></svg>