<svg xmlns="http://www.w3.org/2000/svg" xmlns:xlink="http://www.w3.org/1999/xlink" width="22" height="22" viewBox="0 0 22 22" fill="none"><defs><rect id="path_0" x="0" y="0" width="22" height="22" /></defs><g opacity="1" transform="translate(0 0)  rotate(0 11 11)"><mask id="bg-mask-0" fill="white"><use xlink:href="#path_0"></use></mask><g mask="url(#bg-mask-0)" ><path id="并集" fill-rule="evenodd" style="fill:#000000" transform="translate(2.320999738905165 1.4313750372992615)  rotate(0 8.679000261094835 9.568624962700737)" opacity="1" d="M7.21 0.39L1.47 3.71C0.56 4.23 0 5.2 0 6.25L0 12.89C0 13.93 0.56 14.9 1.47 15.43L7.21 18.74C8.12 19.27 9.24 19.27 10.15 18.74L15.89 15.43C16.8 14.9 17.36 13.93 17.36 12.89L17.36 6.25C17.36 5.2 16.8 4.23 15.89 3.71L10.15 0.39C9.24 -0.13 8.12 -0.13 7.21 0.39ZM7.82 1.45C7.96 1.38 8.09 1.32 8.24 1.28C8.31 1.26 8.38 1.25 8.46 1.24C8.53 1.23 8.6 1.22 8.68 1.22C8.75 1.22 8.83 1.23 8.9 1.24C8.97 1.25 9.05 1.26 9.12 1.28C9.26 1.32 9.4 1.38 9.53 1.45L15.28 4.77C15.41 4.84 15.53 4.94 15.64 5.04C15.69 5.1 15.74 5.15 15.78 5.21C15.83 5.27 15.87 5.33 15.91 5.39C15.94 5.46 15.98 5.53 16 5.59C16.03 5.66 16.06 5.73 16.08 5.8C16.12 5.95 16.14 6.1 16.14 6.25L16.14 12.89C16.14 13.04 16.12 13.19 16.08 13.33C16.04 13.48 15.98 13.61 15.91 13.74C15.87 13.81 15.83 13.87 15.78 13.93C15.74 13.98 15.69 14.04 15.64 14.09C15.53 14.2 15.41 14.29 15.28 14.37L9.53 17.69C9.4 17.76 9.26 17.82 9.12 17.86C8.97 17.9 8.83 17.92 8.68 17.92C8.53 17.92 8.38 17.9 8.24 17.86C8.09 17.82 7.96 17.76 7.82 17.69L2.08 14.37C1.95 14.29 1.83 14.2 1.72 14.09C1.67 14.04 1.62 13.98 1.57 13.93C1.53 13.87 1.49 13.81 1.45 13.74C1.41 13.68 1.38 13.61 1.35 13.54C1.32 13.47 1.3 13.4 1.28 13.33C1.24 13.19 1.22 13.04 1.22 12.89L1.22 6.25C1.22 6.1 1.24 5.95 1.28 5.8C1.3 5.73 1.32 5.66 1.35 5.59C1.38 5.53 1.41 5.46 1.45 5.39L1.57 5.21C1.62 5.15 1.67 5.1 1.72 5.04C1.83 4.94 1.95 4.84 2.08 4.77L7.82 1.45ZM4.77 9.57C4.77 7.41 6.52 5.66 8.68 5.66C10.84 5.66 12.59 7.41 12.59 9.57C12.59 11.73 10.84 13.48 8.68 13.48C6.52 13.48 4.77 11.73 4.77 9.57ZM10.58 11.47C10.7 11.35 10.81 11.21 10.91 11.07C11.01 10.93 11.09 10.77 11.16 10.61C11.23 10.45 11.28 10.28 11.31 10.11C11.35 9.93 11.37 9.75 11.37 9.57C11.37 9.38 11.35 9.2 11.31 9.03C11.28 8.85 11.23 8.68 11.16 8.52C11.09 8.36 11.01 8.21 10.91 8.07C10.81 7.92 10.7 7.79 10.58 7.67C10.46 7.54 10.32 7.43 10.18 7.34C10.04 7.24 9.89 7.16 9.73 7.09C9.56 7.02 9.4 6.97 9.22 6.93C9.04 6.9 8.86 6.88 8.68 6.88C8.49 6.88 8.31 6.9 8.14 6.93C7.96 6.97 7.8 7.02 7.63 7.09C7.47 7.16 7.32 7.24 7.18 7.34C7.03 7.43 6.9 7.54 6.78 7.67C6.65 7.79 6.54 7.92 6.45 8.07C6.35 8.21 6.27 8.36 6.2 8.52C6.13 8.68 6.08 8.85 6.05 9.03C6.01 9.2 5.99 9.38 5.99 9.57C5.99 9.75 6.01 9.93 6.05 10.11C6.08 10.28 6.13 10.45 6.2 10.61C6.27 10.77 6.35 10.93 6.45 11.07C6.54 11.21 6.65 11.35 6.78 11.47C6.9 11.59 7.03 11.7 7.18 11.8C7.32 11.9 7.47 11.98 7.63 12.05C7.8 12.12 7.96 12.17 8.14 12.2C8.31 12.24 8.49 12.26 8.68 12.26C8.86 12.26 9.04 12.24 9.22 12.2C9.4 12.17 9.56 12.12 9.73 12.05C9.89 11.98 10.04 11.9 10.18 11.8C10.32 11.7 10.46 11.59 10.58 11.47Z" /></g></g></svg>