<svg xmlns="http://www.w3.org/2000/svg" xmlns:xlink="http://www.w3.org/1999/xlink" width="22" height="22" viewBox="0 0 22 22" fill="none"><defs><rect id="path_0" x="0" y="0" width="22" height="22" /></defs><g opacity="1" transform="translate(0 0)  rotate(0 11 11)"><mask id="bg-mask-0" fill="white"><use xlink:href="#path_0"></use></mask><g mask="url(#bg-mask-0)" ><path id="并集" fill-rule="evenodd" style="fill:#000000" transform="translate(1.344444444444445 3.238888888888887)  rotate(0 9.655555555555555 7.761111111111111)" opacity="1" d="M1.47 15.52C0.66 15.52 0 14.87 0 14.06L0 1.47C0 0.66 0.66 0 1.47 0L17.84 0C18.65 0 19.31 0.66 19.31 1.47L19.31 14.06C19.31 14.87 18.65 15.52 17.84 15.52L1.47 15.52ZM17.82 1.22C17.84 1.22 17.87 1.23 17.89 1.23C17.92 1.24 17.94 1.25 17.96 1.27C17.98 1.28 18 1.3 18.01 1.32C18.03 1.35 18.04 1.37 18.05 1.39C18.06 1.42 18.06 1.44 18.06 1.47C18.06 1.49 18.06 1.52 18.05 1.54C18.04 1.57 18.03 1.59 18.01 1.61C18 1.63 17.98 1.65 17.96 1.67L9.8 7.39C9.77 7.41 9.75 7.42 9.73 7.43C9.71 7.43 9.68 7.44 9.65 7.44C9.63 7.44 9.61 7.43 9.58 7.43C9.56 7.42 9.54 7.41 9.52 7.39L1.35 1.67C1.33 1.65 1.31 1.63 1.3 1.61C1.28 1.59 1.27 1.57 1.26 1.54C1.25 1.52 1.25 1.49 1.25 1.47C1.25 1.44 1.25 1.42 1.26 1.39C1.27 1.37 1.28 1.35 1.3 1.32C1.31 1.3 1.33 1.28 1.35 1.27C1.37 1.25 1.39 1.24 1.42 1.23C1.44 1.23 1.47 1.22 1.49 1.22L17.82 1.22ZM1.47 14.3L17.84 14.3C17.88 14.3 17.91 14.29 17.94 14.28C17.97 14.27 17.99 14.25 18.02 14.23C18.04 14.21 18.06 14.18 18.07 14.15C18.08 14.12 18.09 14.09 18.09 14.06L18.09 3.07L10.5 8.39C9.99 8.75 9.32 8.75 8.81 8.39L1.22 3.07L1.22 14.06C1.22 14.09 1.23 14.12 1.24 14.15C1.25 14.18 1.27 14.21 1.29 14.23C1.32 14.25 1.34 14.27 1.37 14.28C1.4 14.29 1.43 14.3 1.47 14.3Z" /></g></g></svg>