<svg xmlns="http://www.w3.org/2000/svg" xmlns:xlink="http://www.w3.org/1999/xlink" width="22" height="22" viewBox="0 0 22 22" fill="none"><defs><rect id="path_0" x="0" y="0" width="22" height="22" /></defs><g opacity="1" transform="translate(0 0)  rotate(0 11 11)"><mask id="bg-mask-0" fill="white"><use xlink:href="#path_0"></use></mask><g mask="url(#bg-mask-0)" ><path id="减去顶层" fill-rule="evenodd" style="fill:#000000" transform="translate(2.322222222222223 3.9111111111111114)  rotate(0 8.677777777777777 7.088949966430664)" opacity="1" d="M6.26 14.18L3.76 14.18C3.75 14.18 3.74 14.18 3.73 14.17L3.67 14.17C3.66 14.16 3.65 14.16 3.64 14.16C3.63 14.16 3.62 14.15 3.61 14.15C3.6 14.15 3.59 14.15 3.58 14.14C3.57 14.14 3.56 14.14 3.56 14.13C3.55 14.13 3.54 14.12 3.53 14.12C3.52 14.12 3.51 14.11 3.5 14.11C3.49 14.1 3.48 14.1 3.48 14.09C3.47 14.09 3.46 14.08 3.45 14.08L3.43 14.06C3.42 14.05 3.41 14.05 3.4 14.04L3.38 14.02C3.37 14.01 3.36 14.01 3.36 14C3.35 13.99 3.34 13.99 3.34 13.98L3.32 13.96C3.31 13.95 3.3 13.94 3.3 13.93L3.28 13.91C3.28 13.9 3.27 13.89 3.27 13.88C3.26 13.87 3.26 13.86 3.25 13.86C3.25 13.85 3.24 13.84 3.24 13.83C3.23 13.82 3.23 13.81 3.22 13.8C3.22 13.79 3.22 13.78 3.21 13.77C3.21 13.76 3.21 13.75 3.2 13.75L3.2 13.72C3.19 13.71 3.19 13.7 3.19 13.69C3.19 13.68 3.19 13.67 3.18 13.66L3.18 13.48C3.19 13.47 3.19 13.46 3.19 13.45C3.19 13.44 3.19 13.43 3.2 13.42L3.2 13.39C3.21 13.38 3.21 13.37 3.21 13.36C3.22 13.35 3.22 13.34 3.22 13.33C3.23 13.32 3.23 13.31 3.24 13.31C3.24 13.3 3.25 13.29 3.25 13.28C3.25 13.27 3.26 13.26 3.26 13.25C3.27 13.24 3.28 13.24 3.28 13.23C3.29 13.22 3.29 13.21 3.3 13.2C3.3 13.19 3.31 13.19 3.32 13.18C3.32 13.17 3.33 13.16 3.34 13.16C3.34 13.15 3.35 13.14 3.36 13.13L3.38 13.11C3.39 13.11 3.39 13.1 3.4 13.09C3.41 13.09 3.42 13.08 3.42 13.08C3.43 13.07 3.44 13.06 3.45 13.06C3.46 13.05 3.47 13.05 3.47 13.04C3.48 13.04 3.49 13.03 3.5 13.03C3.51 13.02 3.52 13.02 3.53 13.01C3.54 13.01 3.55 13.01 3.56 13C3.56 13 3.57 12.99 3.58 12.99C3.59 12.99 3.6 12.98 3.61 12.98C3.62 12.98 3.63 12.98 3.64 12.97L3.67 12.97C3.68 12.97 3.69 12.96 3.7 12.96L4.4 12.96L4.4 1.22L3.7 1.22C3.69 1.21 3.68 1.21 3.67 1.21C3.66 1.21 3.65 1.21 3.64 1.2L3.61 1.2C3.6 1.19 3.59 1.19 3.58 1.19C3.57 1.18 3.56 1.18 3.56 1.18C3.55 1.17 3.54 1.17 3.53 1.16C3.52 1.16 3.51 1.16 3.5 1.15C3.49 1.15 3.48 1.14 3.48 1.14C3.47 1.13 3.46 1.13 3.45 1.12C3.44 1.11 3.43 1.11 3.43 1.1C3.42 1.1 3.41 1.09 3.4 1.08C3.39 1.08 3.39 1.07 3.38 1.06C3.37 1.06 3.36 1.05 3.36 1.04C3.35 1.04 3.34 1.03 3.34 1.02C3.33 1.01 3.32 1.01 3.32 1L3.3 0.98C3.29 0.97 3.29 0.96 3.28 0.95C3.28 0.94 3.27 0.93 3.27 0.93C3.26 0.92 3.26 0.91 3.25 0.9C3.25 0.89 3.24 0.88 3.24 0.87L3.22 0.85C3.22 0.84 3.22 0.83 3.21 0.82C3.21 0.81 3.21 0.8 3.2 0.79L3.2 0.76C3.19 0.75 3.19 0.74 3.19 0.73C3.19 0.72 3.19 0.71 3.18 0.7L3.18 0.52C3.19 0.51 3.19 0.5 3.19 0.49C3.19 0.48 3.19 0.47 3.2 0.46L3.2 0.43C3.21 0.42 3.21 0.41 3.21 0.41C3.22 0.4 3.22 0.39 3.22 0.38C3.23 0.37 3.23 0.36 3.24 0.35C3.24 0.34 3.25 0.33 3.25 0.32C3.25 0.31 3.26 0.31 3.26 0.3C3.27 0.29 3.28 0.28 3.28 0.27L3.3 0.25C3.3 0.24 3.31 0.23 3.32 0.22L3.34 0.2C3.34 0.19 3.35 0.19 3.36 0.18C3.36 0.17 3.37 0.17 3.38 0.16L3.4 0.14C3.41 0.13 3.42 0.13 3.42 0.12C3.43 0.11 3.44 0.11 3.45 0.1C3.46 0.1 3.47 0.09 3.47 0.09C3.48 0.08 3.49 0.08 3.5 0.07C3.51 0.07 3.52 0.06 3.53 0.06C3.54 0.05 3.55 0.05 3.56 0.05C3.56 0.04 3.57 0.04 3.58 0.04C3.59 0.03 3.6 0.03 3.61 0.03C3.62 0.02 3.63 0.02 3.64 0.02C3.65 0.02 3.66 0.01 3.67 0.01L3.7 0.01C3.71 0.01 3.72 0 3.73 0L6.29 0C6.3 0 6.31 0.01 6.32 0.01L6.35 0.01C6.36 0.01 6.37 0.02 6.38 0.02C6.39 0.02 6.4 0.02 6.41 0.03C6.42 0.03 6.43 0.03 6.44 0.04C6.45 0.04 6.46 0.04 6.47 0.05C6.48 0.05 6.49 0.05 6.49 0.06C6.5 0.06 6.51 0.07 6.52 0.07C6.53 0.08 6.54 0.08 6.55 0.09C6.56 0.09 6.56 0.1 6.57 0.1C6.58 0.11 6.59 0.11 6.6 0.12L6.62 0.14C6.63 0.15 6.64 0.15 6.64 0.16C6.65 0.17 6.66 0.17 6.67 0.18C6.67 0.19 6.68 0.19 6.69 0.2C6.69 0.21 6.7 0.22 6.71 0.22C6.71 0.23 6.72 0.24 6.72 0.25C6.73 0.26 6.74 0.26 6.74 0.27C6.75 0.28 6.75 0.29 6.76 0.3C6.76 0.31 6.77 0.31 6.77 0.32C6.78 0.33 6.78 0.34 6.79 0.35C6.79 0.36 6.79 0.37 6.8 0.38C6.8 0.39 6.81 0.4 6.81 0.41C6.81 0.41 6.82 0.42 6.82 0.43C6.82 0.44 6.82 0.45 6.83 0.46L6.83 0.49C6.83 0.5 6.84 0.51 6.84 0.52L6.84 0.7C6.84 0.71 6.83 0.72 6.83 0.73L6.83 0.76C6.82 0.77 6.82 0.78 6.82 0.79C6.82 0.8 6.81 0.81 6.81 0.82C6.81 0.83 6.8 0.84 6.8 0.84C6.79 0.85 6.79 0.86 6.79 0.87C6.78 0.88 6.78 0.89 6.77 0.9C6.77 0.91 6.76 0.92 6.76 0.93C6.75 0.93 6.75 0.94 6.74 0.95C6.74 0.96 6.73 0.97 6.72 0.98C6.72 0.98 6.71 0.99 6.71 1C6.7 1.01 6.69 1.01 6.69 1.02L6.67 1.04C6.66 1.05 6.65 1.06 6.64 1.06C6.64 1.07 6.63 1.08 6.62 1.08C6.61 1.09 6.61 1.1 6.6 1.1C6.59 1.11 6.58 1.11 6.57 1.12C6.56 1.12 6.56 1.13 6.55 1.14C6.54 1.14 6.53 1.15 6.52 1.15C6.51 1.15 6.5 1.16 6.49 1.16C6.49 1.17 6.48 1.17 6.47 1.18C6.46 1.18 6.45 1.18 6.44 1.19C6.43 1.19 6.42 1.19 6.41 1.2L6.38 1.2C6.37 1.21 6.36 1.21 6.35 1.21C6.34 1.21 6.33 1.21 6.32 1.22L5.62 1.22L5.62 12.96L6.32 12.96C6.33 12.96 6.34 12.97 6.35 12.97L6.38 12.97C6.39 12.98 6.4 12.98 6.41 12.98C6.42 12.98 6.43 12.99 6.44 12.99C6.45 12.99 6.46 13 6.47 13C6.48 13.01 6.49 13.01 6.49 13.01C6.5 13.02 6.51 13.02 6.52 13.03C6.53 13.03 6.54 13.04 6.55 13.04L6.57 13.06C6.58 13.06 6.59 13.07 6.6 13.08C6.61 13.08 6.61 13.09 6.62 13.09L6.64 13.11C6.65 13.12 6.66 13.13 6.67 13.13C6.67 13.14 6.68 13.15 6.69 13.16L6.71 13.18C6.71 13.19 6.72 13.19 6.72 13.2C6.73 13.21 6.74 13.22 6.74 13.23L6.76 13.25C6.76 13.26 6.77 13.27 6.77 13.28C6.78 13.29 6.78 13.3 6.79 13.31C6.79 13.31 6.79 13.32 6.8 13.33C6.8 13.34 6.81 13.35 6.81 13.36C6.81 13.37 6.82 13.38 6.82 13.39C6.82 13.4 6.82 13.41 6.83 13.42L6.83 13.45C6.83 13.46 6.84 13.47 6.84 13.48L6.84 13.66C6.84 13.67 6.83 13.68 6.83 13.69L6.83 13.72C6.82 13.72 6.82 13.73 6.82 13.74C6.82 13.75 6.81 13.76 6.81 13.77C6.81 13.78 6.8 13.79 6.8 13.8C6.79 13.81 6.79 13.82 6.79 13.83C6.78 13.84 6.78 13.85 6.77 13.85C6.77 13.86 6.76 13.87 6.76 13.88C6.75 13.89 6.75 13.9 6.74 13.91L6.72 13.93C6.72 13.94 6.71 13.95 6.71 13.95C6.7 13.96 6.69 13.97 6.69 13.98C6.68 13.98 6.67 13.99 6.67 14C6.66 14.01 6.65 14.01 6.64 14.02C6.64 14.03 6.63 14.03 6.62 14.04L6.6 14.06C6.59 14.06 6.58 14.07 6.57 14.07C6.56 14.08 6.56 14.09 6.55 14.09C6.54 14.1 6.53 14.1 6.52 14.11C6.51 14.11 6.5 14.11 6.49 14.12C6.49 14.12 6.48 14.13 6.47 14.13C6.46 14.14 6.45 14.14 6.44 14.14C6.43 14.15 6.42 14.15 6.41 14.15C6.4 14.15 6.39 14.16 6.38 14.16C6.37 14.16 6.36 14.16 6.35 14.17L6.29 14.17C6.28 14.18 6.27 14.18 6.26 14.18ZM1.47 4.58C1.43 4.58 1.4 4.59 1.37 4.6C1.34 4.61 1.32 4.63 1.29 4.65C1.27 4.68 1.25 4.7 1.24 4.73C1.23 4.76 1.22 4.79 1.22 4.83L1.22 9.35C1.22 9.38 1.23 9.42 1.24 9.45C1.25 9.47 1.27 9.5 1.29 9.52C1.32 9.55 1.34 9.56 1.37 9.58C1.4 9.59 1.43 9.59 1.47 9.59L3.73 9.59L3.73 10.82L1.47 10.82C0.66 10.82 0 10.16 0 9.35L0 4.83C0 4.02 0.66 3.36 1.47 3.36L3.73 3.36L3.73 4.58L1.47 4.58ZM16.06 9.52C16.04 9.55 16.01 9.56 15.98 9.58C15.95 9.59 15.92 9.59 15.89 9.59L6.17 9.59L6.17 10.82L15.89 10.82C16.7 10.82 17.36 10.16 17.36 9.35L17.36 4.83C17.36 4.02 16.7 3.36 15.89 3.36L6.17 3.36L6.17 4.58L15.89 4.58C15.92 4.58 15.95 4.59 15.98 4.6C16.01 4.61 16.04 4.63 16.06 4.65C16.08 4.68 16.1 4.7 16.11 4.73C16.13 4.76 16.13 4.79 16.13 4.83L16.13 9.35C16.13 9.38 16.13 9.42 16.11 9.45C16.1 9.47 16.08 9.5 16.06 9.52Z" /></g></g></svg>