<svg xmlns="http://www.w3.org/2000/svg" xmlns:xlink="http://www.w3.org/1999/xlink" width="22" height="22" viewBox="0 0 22 22" fill="none"><defs><rect id="path_0" x="0" y="0" width="22" height="22" /></defs><g opacity="1" transform="translate(0 0)  rotate(0 11 11)"><mask id="bg-mask-0" fill="white"><use xlink:href="#path_0"></use></mask><g mask="url(#bg-mask-0)" ><path id="并集" fill-rule="evenodd" style="fill:#000000" transform="translate(3.5846738329193357 1.5394978064432898)  rotate(0 7.670213814355776 9.74216367779766)" opacity="1" d="M14.12,6.22C14.12,6.55 14.09,6.88 14.02,7.2C13.96,7.52 13.86,7.83 13.74,8.13C13.61,8.43 13.46,8.72 13.28,8.99C13.09,9.27 12.89,9.52 12.65,9.75L3.97,18.44C3.95,18.45 3.94,18.47 3.93,18.48C3.92,18.49 3.91,18.51 3.9,18.52C3.89,18.54 3.88,18.55 3.87,18.57C3.86,18.58 3.85,18.6 3.85,18.61C3.84,18.63 3.83,18.65 3.83,18.66C3.82,18.68 3.81,18.7 3.81,18.71C3.8,18.73 3.8,18.75 3.8,18.76C3.8,18.78 3.79,18.8 3.79,18.82C3.79,18.83 3.79,18.85 3.79,18.87C3.79,18.89 3.79,18.91 3.79,18.92C3.79,18.94 3.79,18.96 3.8,18.98C3.8,18.99 3.8,19.01 3.81,19.03C3.81,19.04 3.82,19.06 3.82,19.08C3.83,19.09 3.84,19.11 3.84,19.13C3.85,19.14 3.86,19.16 3.87,19.17C3.88,19.19 3.89,19.2 3.9,19.22C3.92,19.25 3.94,19.28 3.97,19.3C3.97,19.31 3.98,19.32 3.99,19.33C4,19.33 4,19.34 4.01,19.35L4.03,19.36C4.04,19.37 4.05,19.38 4.06,19.38C4.07,19.39 4.08,19.39 4.08,19.4C4.09,19.4 4.1,19.41 4.11,19.41C4.12,19.42 4.13,19.42 4.14,19.42C4.15,19.43 4.16,19.43 4.16,19.44C4.17,19.44 4.18,19.44 4.19,19.45C4.2,19.45 4.21,19.45 4.22,19.46L4.25,19.47C4.26,19.47 4.27,19.47 4.28,19.47C4.29,19.47 4.3,19.47 4.31,19.48C4.32,19.48 4.33,19.48 4.34,19.48C4.35,19.48 4.36,19.48 4.37,19.48C4.38,19.48 4.39,19.48 4.4,19.48C4.41,19.48 4.42,19.48 4.43,19.48C4.44,19.48 4.45,19.48 4.46,19.48C4.47,19.48 4.48,19.48 4.49,19.48C4.5,19.47 4.51,19.47 4.52,19.47C4.53,19.47 4.54,19.47 4.55,19.47L4.58,19.46C4.59,19.45 4.6,19.45 4.6,19.45C4.61,19.44 4.62,19.44 4.63,19.44C4.64,19.43 4.65,19.43 4.66,19.42C4.67,19.42 4.68,19.42 4.69,19.41C4.7,19.41 4.71,19.4 4.71,19.4C4.72,19.39 4.73,19.39 4.74,19.38C4.75,19.38 4.76,19.37 4.76,19.36L4.79,19.35C4.79,19.34 4.8,19.33 4.81,19.33C4.82,19.32 4.82,19.31 4.83,19.3L13.52,10.62C13.66,10.47 13.8,10.32 13.93,10.16C14.06,10.01 14.18,9.84 14.29,9.67C14.41,9.5 14.51,9.33 14.61,9.15C14.7,8.97 14.79,8.79 14.87,8.6C14.94,8.41 15.01,8.22 15.07,8.03C15.13,7.84 15.18,7.64 15.22,7.44C15.26,7.24 15.29,7.04 15.31,6.84C15.33,6.63 15.34,6.42 15.34,6.22C15.34,6.01 15.33,5.81 15.31,5.6C15.29,5.4 15.26,5.2 15.22,5C15.18,4.8 15.13,4.6 15.07,4.41C15.01,4.22 14.94,4.03 14.87,3.84C14.79,3.65 14.7,3.47 14.61,3.29C14.51,3.11 14.41,2.94 14.29,2.77C14.18,2.6 14.06,2.43 13.93,2.28C13.8,2.12 13.66,1.97 13.52,1.82C13.37,1.68 13.22,1.54 13.06,1.41C12.9,1.28 12.74,1.16 12.57,1.04C12.4,0.93 12.23,0.83 12.05,0.73C11.87,0.64 11.69,0.55 11.5,0.47C11.31,0.39 11.12,0.33 10.93,0.27C10.73,0.21 10.54,0.16 10.34,0.12C10.14,0.08 9.93,0.05 9.73,0.03C9.53,0.01 9.32,0 9.12,0C8.91,0 8.71,0.01 8.5,0.03C8.3,0.05 8.1,0.08 7.9,0.12C7.7,0.16 7.5,0.21 7.31,0.27C7.11,0.33 6.93,0.4 6.74,0.47C6.55,0.55 6.37,0.64 6.19,0.73C6.01,0.83 5.84,0.93 5.67,1.05C5.5,1.16 5.33,1.28 5.18,1.41C5.02,1.54 4.86,1.68 4.72,1.82L1.22,5.32L1.22,0.81C1.22,0.8 1.22,0.79 1.22,0.78C1.22,0.77 1.22,0.76 1.22,0.75C1.22,0.74 1.22,0.73 1.22,0.72C1.21,0.71 1.21,0.7 1.21,0.69C1.21,0.68 1.21,0.67 1.2,0.66L1.2,0.63C1.19,0.62 1.19,0.61 1.19,0.6C1.18,0.59 1.18,0.58 1.18,0.57C1.17,0.57 1.17,0.56 1.16,0.55C1.16,0.54 1.16,0.53 1.15,0.52C1.15,0.51 1.14,0.5 1.14,0.49C1.13,0.49 1.13,0.48 1.12,0.47C1.11,0.46 1.11,0.45 1.1,0.44L1.08,0.42C1.08,0.41 1.07,0.41 1.06,0.4C1.06,0.39 1.05,0.38 1.04,0.38C1.04,0.37 1.03,0.36 1.02,0.36C1.01,0.35 1.01,0.34 1,0.34L0.98,0.32C0.97,0.31 0.96,0.31 0.95,0.3C0.94,0.29 0.93,0.29 0.93,0.28C0.92,0.28 0.91,0.27 0.9,0.27C0.89,0.26 0.88,0.26 0.87,0.26C0.86,0.25 0.85,0.25 0.85,0.24C0.84,0.24 0.83,0.24 0.82,0.23C0.81,0.23 0.8,0.23 0.79,0.22L0.76,0.22C0.75,0.21 0.74,0.21 0.73,0.21C0.72,0.21 0.71,0.21 0.7,0.2C0.69,0.2 0.68,0.2 0.67,0.2C0.66,0.2 0.65,0.2 0.64,0.2C0.63,0.2 0.62,0.2 0.61,0.2C0.6,0.2 0.59,0.2 0.58,0.2C0.57,0.2 0.56,0.2 0.55,0.2C0.54,0.2 0.53,0.2 0.52,0.2C0.51,0.21 0.5,0.21 0.49,0.21C0.48,0.21 0.47,0.21 0.46,0.22L0.43,0.22C0.42,0.23 0.42,0.23 0.41,0.23C0.4,0.24 0.39,0.24 0.38,0.24C0.37,0.25 0.36,0.25 0.35,0.26C0.34,0.26 0.33,0.26 0.32,0.27C0.31,0.27 0.31,0.28 0.3,0.28C0.29,0.29 0.28,0.29 0.27,0.3C0.26,0.31 0.26,0.31 0.25,0.32L0.22,0.34C0.22,0.34 0.21,0.35 0.2,0.36C0.19,0.36 0.19,0.37 0.18,0.38C0.17,0.38 0.17,0.39 0.16,0.4C0.15,0.41 0.15,0.41 0.14,0.42L0.12,0.44C0.12,0.45 0.11,0.46 0.1,0.47C0.1,0.48 0.09,0.49 0.09,0.49C0.08,0.5 0.08,0.51 0.07,0.52C0.07,0.53 0.06,0.54 0.06,0.55C0.06,0.56 0.05,0.57 0.05,0.57C0.04,0.58 0.04,0.59 0.04,0.6C0.03,0.61 0.03,0.62 0.03,0.63L0.02,0.66C0.02,0.67 0.01,0.68 0.01,0.69C0.01,0.7 0.01,0.71 0.01,0.72C0.01,0.73 0,0.74 0,0.75C0,0.76 0,0.77 0,0.78C0,0.79 0,0.8 0,0.81L0,5.44C0,5.58 0.01,5.71 0.04,5.85C0.07,5.98 0.11,6.11 0.16,6.24C0.21,6.36 0.27,6.48 0.35,6.59C0.43,6.71 0.51,6.81 0.61,6.91C0.71,7.01 0.81,7.09 0.93,7.17C1.04,7.24 1.16,7.31 1.28,7.36C1.41,7.41 1.54,7.45 1.67,7.48C1.81,7.51 1.94,7.52 2.08,7.52L6.63,7.52C6.65,7.52 6.67,7.52 6.69,7.52C6.71,7.51 6.73,7.51 6.75,7.51C6.77,7.5 6.79,7.5 6.81,7.49C6.83,7.49 6.85,7.48 6.87,7.47C6.88,7.46 6.9,7.46 6.92,7.45C6.94,7.44 6.95,7.43 6.97,7.42C6.99,7.4 7,7.39 7.02,7.38C7.03,7.37 7.05,7.35 7.06,7.34C7.08,7.33 7.09,7.31 7.1,7.3C7.12,7.28 7.13,7.26 7.14,7.25C7.15,7.23 7.16,7.21 7.17,7.2C7.18,7.18 7.19,7.16 7.2,7.14C7.2,7.12 7.21,7.1 7.22,7.09C7.22,7.07 7.23,7.05 7.23,7.03C7.24,7.01 7.24,6.99 7.24,6.97C7.24,6.95 7.24,6.93 7.24,6.91C7.24,6.89 7.24,6.87 7.24,6.85C7.24,6.83 7.24,6.81 7.23,6.79C7.23,6.77 7.22,6.75 7.22,6.73C7.21,6.71 7.2,6.69 7.2,6.67C7.19,6.66 7.18,6.64 7.17,6.62C7.16,6.6 7.15,6.59 7.14,6.57C7.13,6.55 7.12,6.54 7.1,6.52C7.09,6.51 7.08,6.49 7.06,6.48C7.04,6.45 7.01,6.43 6.99,6.41C6.96,6.39 6.93,6.37 6.9,6.36C6.87,6.34 6.84,6.33 6.8,6.32C6.77,6.31 6.74,6.3 6.7,6.3C6.68,6.3 6.66,6.3 6.63,6.3L2.08,6.3C2.05,6.3 2.01,6.29 1.98,6.29L5.58,2.69C5.82,2.45 6.07,2.24 6.35,2.06C6.62,1.88 6.9,1.73 7.21,1.6C7.51,1.48 7.82,1.38 8.14,1.32C8.46,1.25 8.79,1.22 9.12,1.22C9.45,1.22 9.77,1.25 10.1,1.32C10.42,1.38 10.73,1.48 11.03,1.6C11.33,1.73 11.62,1.88 11.89,2.06C12.17,2.24 12.42,2.45 12.65,2.69C12.89,2.92 13.09,3.17 13.28,3.45C13.46,3.72 13.61,4 13.74,4.31C13.86,4.61 13.96,4.92 14.02,5.24C14.09,5.56 14.12,5.89 14.12,6.22Z " /></g></g></svg>