<svg xmlns="http://www.w3.org/2000/svg" xmlns:xlink="http://www.w3.org/1999/xlink" width="22" height="22" viewBox="0 0 22 22" fill="none"><defs><rect id="path_0" x="0" y="0" width="22" height="22" /></defs><g opacity="1" transform="translate(0 0)  rotate(0 11 11)"><mask id="bg-mask-0" fill="white"><use xlink:href="#path_0"></use></mask><g mask="url(#bg-mask-0)" ><path id="并集" fill-rule="evenodd" style="fill:#000000" transform="translate(2.5373328454913278 2.537332613932797)  rotate(0 8.462667284087772 8.462667399867028)" opacity="1" d="M5.48 9.15C4.51 9.15 3.58 8.76 2.89 8.07L1.07 6.26C0.39 5.57 0 4.64 0 3.67C0 2.69 0.39 1.76 1.07 1.07C1.76 0.39 2.69 0 3.67 0C4.64 0 5.57 0.39 6.26 1.07L8.07 2.89C8.76 3.58 9.15 4.51 9.15 5.48C9.15 6.18 8.95 6.87 8.57 7.45L7.68 6.56C7.7 6.51 7.72 6.46 7.74 6.42C7.8 6.27 7.85 6.12 7.88 5.96C7.91 5.8 7.93 5.64 7.93 5.48C7.93 5.32 7.91 5.16 7.88 5C7.85 4.84 7.8 4.69 7.74 4.55C7.68 4.4 7.6 4.26 7.51 4.13C7.43 3.99 7.32 3.87 7.21 3.75L5.39 1.94C5.28 1.82 5.16 1.72 5.02 1.63C4.89 1.54 4.75 1.47 4.6 1.41C4.45 1.35 4.3 1.3 4.15 1.27C3.99 1.24 3.83 1.22 3.67 1.22C3.51 1.22 3.34 1.24 3.19 1.27C3.03 1.3 2.88 1.35 2.73 1.41C2.58 1.47 2.44 1.54 2.31 1.63C2.18 1.72 2.05 1.82 1.94 1.94C1.82 2.05 1.72 2.18 1.63 2.31C1.54 2.44 1.47 2.58 1.41 2.73C1.35 2.88 1.3 3.03 1.27 3.19C1.24 3.34 1.22 3.5 1.22 3.66C1.22 3.83 1.24 3.99 1.27 4.15C1.3 4.3 1.35 4.45 1.41 4.6C1.47 4.75 1.54 4.89 1.63 5.02C1.72 5.16 1.82 5.28 1.94 5.39L3.75 7.21C3.87 7.32 3.99 7.43 4.13 7.51C4.26 7.6 4.4 7.68 4.55 7.74C4.69 7.8 4.84 7.85 5 7.88C5.16 7.91 5.32 7.93 5.48 7.93C5.64 7.93 5.8 7.91 5.96 7.88C6.03 7.86 6.11 7.85 6.18 7.82L7.12 8.76C6.61 9.01 6.05 9.15 5.48 9.15ZM6.03 5.46C6.04 5.47 6.05 5.47 6.05 5.48C6.06 5.48 6.07 5.49 6.08 5.49L6.1 5.51L6.13 5.53C6.13 5.54 6.14 5.54 6.15 5.55L6.17 5.57L11.36 10.76C11.38 10.78 11.41 10.81 11.43 10.85C11.45 10.88 11.47 10.91 11.49 10.95C11.5 10.99 11.51 11.02 11.52 11.06C11.53 11.1 11.54 11.14 11.54 11.18L11.54 11.19C11.54 11.22 11.53 11.26 11.53 11.29C11.52 11.33 11.51 11.36 11.5 11.4C11.49 11.43 11.47 11.46 11.45 11.49C11.44 11.52 11.42 11.55 11.39 11.58C11.38 11.59 11.37 11.61 11.36 11.62C11.34 11.63 11.33 11.64 11.32 11.65L11.28 11.69C11.26 11.7 11.25 11.71 11.23 11.72C11.22 11.72 11.2 11.73 11.18 11.74C11.17 11.75 11.15 11.76 11.14 11.76C11.12 11.77 11.1 11.77 11.08 11.78C11.07 11.78 11.05 11.79 11.03 11.79C11.02 11.79 11 11.79 10.98 11.8L10.87 11.8C10.86 11.79 10.84 11.79 10.82 11.79C10.8 11.79 10.79 11.78 10.77 11.78C10.75 11.77 10.74 11.77 10.72 11.76C10.7 11.76 10.69 11.75 10.67 11.74C10.65 11.74 10.64 11.73 10.62 11.72C10.61 11.71 10.59 11.7 10.58 11.69C10.55 11.67 10.52 11.65 10.49 11.62L5.31 6.43L5.29 6.41C5.28 6.4 5.27 6.4 5.27 6.39L5.25 6.37C5.24 6.36 5.24 6.35 5.23 6.34C5.23 6.33 5.22 6.32 5.22 6.32L5.2 6.29C5.2 6.28 5.19 6.27 5.19 6.26C5.18 6.25 5.18 6.24 5.17 6.24C5.17 6.23 5.17 6.22 5.16 6.21C5.16 6.2 5.16 6.19 5.15 6.18L5.15 6.15C5.14 6.14 5.14 6.13 5.14 6.12C5.14 6.11 5.14 6.1 5.13 6.09L5.13 5.91C5.14 5.9 5.14 5.89 5.14 5.88C5.14 5.87 5.14 5.86 5.15 5.85L5.15 5.82C5.16 5.82 5.16 5.81 5.16 5.8C5.17 5.79 5.17 5.78 5.17 5.77C5.18 5.76 5.18 5.75 5.19 5.74C5.19 5.73 5.2 5.72 5.2 5.71C5.21 5.7 5.21 5.7 5.21 5.69C5.22 5.68 5.23 5.67 5.23 5.66L5.25 5.64C5.25 5.63 5.26 5.62 5.27 5.61L5.29 5.59C5.29 5.58 5.3 5.58 5.31 5.57C5.31 5.56 5.32 5.56 5.33 5.55L5.37 5.51C5.38 5.51 5.39 5.5 5.4 5.49C5.41 5.49 5.42 5.48 5.42 5.48C5.43 5.47 5.44 5.47 5.45 5.46C5.46 5.46 5.47 5.45 5.48 5.45C5.49 5.45 5.5 5.44 5.51 5.44C5.51 5.43 5.52 5.43 5.53 5.43C5.54 5.42 5.55 5.42 5.56 5.42L5.59 5.41C5.6 5.41 5.61 5.4 5.62 5.4L5.65 5.4C5.66 5.4 5.67 5.39 5.68 5.39L5.8 5.39C5.81 5.39 5.82 5.4 5.83 5.4L5.86 5.4C5.87 5.4 5.88 5.41 5.89 5.41L5.92 5.42C5.93 5.42 5.94 5.42 5.94 5.43C5.95 5.43 5.96 5.43 5.97 5.44C5.98 5.44 5.99 5.45 6 5.45C6.01 5.45 6.02 5.46 6.03 5.46ZM13.26 15.7C13.1 15.7 12.94 15.69 12.78 15.66C12.62 15.63 12.47 15.58 12.32 15.52C12.18 15.46 12.04 15.38 11.9 15.29C11.77 15.2 11.64 15.1 11.53 14.99L9.72 13.17C9.6 13.06 9.5 12.93 9.41 12.8C9.32 12.67 9.25 12.53 9.19 12.38C9.12 12.23 9.08 12.08 9.05 11.92C9.02 11.77 9 11.61 9 11.44C9 11.28 9.02 11.12 9.05 10.96C9.06 10.89 9.08 10.82 9.1 10.75L8.16 9.81C7.91 10.31 7.78 10.87 7.78 11.44C7.78 12.42 8.16 13.35 8.85 14.04L10.67 15.85C11.35 16.54 12.29 16.93 13.26 16.93C14.23 16.93 15.16 16.54 15.85 15.85C16.54 15.16 16.93 14.23 16.93 13.26C16.93 12.29 16.54 11.35 15.85 10.67L14.04 8.85C13.35 8.16 12.42 7.78 11.44 7.78C10.74 7.78 10.06 7.98 9.47 8.35L10.37 9.25C10.41 9.23 10.46 9.21 10.51 9.19C10.66 9.12 10.81 9.08 10.96 9.05C11.12 9.02 11.28 9 11.45 9C11.61 9 11.77 9.02 11.92 9.05C12.08 9.08 12.23 9.12 12.38 9.19C12.53 9.25 12.67 9.32 12.8 9.41C12.93 9.5 13.06 9.6 13.17 9.72L14.99 11.53C15.1 11.64 15.2 11.77 15.29 11.9C15.38 12.04 15.46 12.18 15.52 12.32C15.58 12.47 15.63 12.62 15.66 12.78C15.69 12.94 15.7 13.1 15.7 13.26C15.7 13.42 15.69 13.58 15.66 13.74C15.63 13.9 15.58 14.05 15.52 14.2C15.46 14.34 15.38 14.48 15.29 14.62C15.2 14.75 15.1 14.87 14.99 14.99C14.87 15.1 14.75 15.2 14.62 15.29C14.48 15.38 14.34 15.46 14.2 15.52C14.05 15.58 13.9 15.63 13.74 15.66C13.58 15.69 13.42 15.7 13.26 15.7Z" /></g></g></svg>