<svg xmlns="http://www.w3.org/2000/svg" xmlns:xlink="http://www.w3.org/1999/xlink" width="22" height="22" viewBox="0 0 22 22" fill="none"><defs><rect id="path_0" x="0" y="0" width="22" height="22" /></defs><g opacity="1" transform="translate(0 0)  rotate(0 11 11)"><mask id="bg-mask-0" fill="white"><use xlink:href="#path_0"></use></mask><g mask="url(#bg-mask-0)" ><path id="并集" fill-rule="evenodd" style="fill:#000000" transform="translate(1.4666665480162742 1.4666666086569116)  rotate(0 9.51316655476888 9.533333333333333)" opacity="1" d="M4.03 0.07C4.01 0.06 4 0.05 3.98 0.04C3.96 0.04 3.94 0.03 3.92 0.02C3.9 0.02 3.88 0.01 3.86 0.01C3.84 0.01 3.82 0 3.8 0L3.75 0C3.71 0 3.68 0 3.64 0.01C3.61 0.02 3.57 0.02 3.54 0.04C3.51 0.05 3.47 0.06 3.44 0.08C3.41 0.1 3.38 0.12 3.36 0.14L0.22 2.78C0.2 2.79 0.18 2.81 0.17 2.82C0.15 2.84 0.14 2.85 0.13 2.87C0.11 2.89 0.1 2.91 0.09 2.93L0.06 2.99L0.03 3.05C0.03 3.07 0.02 3.09 0.01 3.11C0.01 3.13 0.01 3.16 0 3.18L0 3.24C0 3.28 0 3.31 0.01 3.35C0.02 3.39 0.02 3.42 0.04 3.45C0.05 3.49 0.06 3.52 0.08 3.55L0.14 3.64C0.15 3.64 0.16 3.65 0.16 3.66C0.17 3.67 0.18 3.67 0.18 3.68C0.19 3.69 0.2 3.69 0.21 3.7C0.21 3.71 0.22 3.71 0.23 3.72L0.25 3.74C0.26 3.74 0.27 3.75 0.28 3.76C0.29 3.76 0.29 3.77 0.3 3.77L0.33 3.79C0.34 3.79 0.35 3.8 0.36 3.8C0.37 3.8 0.37 3.81 0.38 3.81C0.39 3.81 0.4 3.82 0.41 3.82C0.42 3.83 0.43 3.83 0.44 3.83C0.45 3.83 0.46 3.84 0.47 3.84C0.48 3.84 0.49 3.84 0.5 3.85L0.71 3.85C0.72 3.85 0.73 3.84 0.74 3.84L0.77 3.84C0.78 3.83 0.79 3.83 0.79 3.83C0.8 3.82 0.81 3.82 0.82 3.82C0.83 3.81 0.84 3.81 0.85 3.81C0.86 3.8 0.87 3.8 0.88 3.79C0.89 3.79 0.9 3.79 0.9 3.78C0.91 3.78 0.92 3.77 0.93 3.76C0.94 3.76 0.95 3.75 0.96 3.75C0.96 3.74 0.97 3.74 0.98 3.73C0.99 3.73 1 3.72 1 3.71L4.14 1.08C4.15 1.07 4.16 1.07 4.16 1.06C4.17 1.05 4.18 1.05 4.19 1.04C4.19 1.03 4.2 1.02 4.21 1.02C4.21 1.01 4.22 1 4.23 0.99C4.23 0.99 4.24 0.98 4.24 0.97C4.25 0.96 4.26 0.95 4.26 0.94C4.27 0.94 4.27 0.93 4.28 0.92L4.29 0.89C4.3 0.88 4.3 0.88 4.3 0.87C4.31 0.86 4.31 0.85 4.32 0.84C4.32 0.83 4.32 0.82 4.33 0.81C4.33 0.8 4.33 0.79 4.34 0.78L4.34 0.75C4.35 0.74 4.35 0.73 4.35 0.72L4.35 0.69C4.36 0.68 4.36 0.67 4.36 0.66L4.36 0.55C4.36 0.53 4.35 0.52 4.35 0.51L4.35 0.49L4.34 0.46C4.34 0.45 4.34 0.44 4.33 0.43C4.33 0.42 4.33 0.41 4.32 0.4C4.32 0.39 4.31 0.38 4.31 0.37C4.31 0.36 4.3 0.35 4.3 0.34C4.29 0.33 4.29 0.33 4.29 0.32C4.28 0.31 4.28 0.3 4.27 0.29C4.26 0.28 4.26 0.27 4.25 0.27C4.25 0.26 4.24 0.25 4.24 0.24C4.23 0.23 4.22 0.23 4.22 0.22C4.2 0.2 4.19 0.19 4.18 0.17C4.16 0.16 4.15 0.15 4.13 0.13C4.12 0.12 4.1 0.11 4.08 0.1C4.07 0.09 4.05 0.08 4.03 0.07ZM18.98 3.48C18.98 3.47 18.98 3.47 18.99 3.46C18.99 3.45 19 3.44 19 3.43C19 3.42 19 3.41 19.01 3.4L19.01 3.37C19.02 3.36 19.02 3.35 19.02 3.34L19.02 3.31C19.02 3.3 19.03 3.29 19.03 3.28L19.03 3.22C19.03 3.21 19.03 3.2 19.02 3.19L19.02 3.13C19.01 3.12 19.01 3.11 19.01 3.1C19.01 3.09 19.01 3.08 19 3.07C19 3.06 19 3.05 18.99 3.04C18.99 3.03 18.99 3.03 18.98 3.02C18.98 3.01 18.97 3 18.97 2.99C18.97 2.98 18.96 2.97 18.96 2.96L18.94 2.94C18.94 2.93 18.93 2.92 18.93 2.91C18.92 2.9 18.92 2.89 18.91 2.89C18.9 2.88 18.9 2.87 18.89 2.86L18.87 2.84C18.87 2.83 18.86 2.82 18.85 2.82C18.85 2.81 18.84 2.8 18.83 2.8C18.82 2.79 18.82 2.78 18.81 2.78L15.67 0.14L15.58 0.08C15.56 0.07 15.55 0.06 15.53 0.06C15.52 0.05 15.5 0.04 15.48 0.04C15.47 0.03 15.45 0.02 15.43 0.02C15.41 0.02 15.4 0.01 15.38 0.01C15.36 0.01 15.35 0 15.33 0L15.22 0C15.2 0 15.19 0.01 15.17 0.01C15.15 0.01 15.13 0.02 15.12 0.02C15.1 0.03 15.08 0.03 15.07 0.04C15.05 0.04 15.03 0.05 15.02 0.06C15 0.07 14.99 0.07 14.97 0.08C14.96 0.09 14.94 0.1 14.93 0.11C14.91 0.12 14.9 0.13 14.88 0.14C14.87 0.16 14.86 0.17 14.85 0.18C14.83 0.19 14.82 0.21 14.81 0.22C14.79 0.25 14.76 0.28 14.75 0.31C14.74 0.33 14.73 0.34 14.72 0.36C14.71 0.37 14.71 0.39 14.7 0.41C14.7 0.42 14.69 0.44 14.69 0.46C14.68 0.47 14.68 0.49 14.68 0.51C14.67 0.53 14.67 0.54 14.67 0.56L14.67 0.67C14.67 0.68 14.67 0.7 14.68 0.72C14.68 0.74 14.68 0.75 14.69 0.77C14.69 0.79 14.7 0.81 14.7 0.82C14.71 0.84 14.72 0.85 14.72 0.87C14.73 0.89 14.74 0.9 14.75 0.92C14.76 0.93 14.77 0.95 14.78 0.96C14.79 0.98 14.8 0.99 14.81 1C14.82 1.02 14.83 1.03 14.85 1.04C14.86 1.06 14.87 1.07 14.89 1.08L18.02 3.71C18.03 3.72 18.04 3.72 18.05 3.73L18.14 3.79C18.18 3.81 18.21 3.82 18.25 3.83C18.28 3.84 18.32 3.85 18.36 3.85C18.39 3.86 18.43 3.86 18.47 3.85L18.53 3.85C18.55 3.84 18.57 3.84 18.59 3.83C18.61 3.83 18.62 3.82 18.64 3.81C18.66 3.8 18.68 3.8 18.7 3.79C18.72 3.78 18.73 3.77 18.75 3.76C18.77 3.74 18.78 3.73 18.8 3.72L18.84 3.68C18.86 3.67 18.87 3.65 18.88 3.64C18.89 3.63 18.9 3.62 18.9 3.61C18.91 3.61 18.91 3.6 18.92 3.59C18.93 3.58 18.93 3.57 18.94 3.56C18.94 3.56 18.95 3.55 18.95 3.54C18.96 3.53 18.96 3.52 18.97 3.51C18.97 3.5 18.97 3.49 18.98 3.48ZM9.53 19.07C4.54 19.07 0.49 15.02 0.49 10.02C0.49 5.03 4.54 0.98 9.53 0.98C14.53 0.98 18.58 5.03 18.58 10.02C18.58 15.02 14.53 19.07 9.53 19.07ZM17.36 10.02C17.36 10.29 17.34 10.56 17.32 10.82C17.29 11.08 17.25 11.34 17.2 11.6C17.15 11.85 17.08 12.1 17 12.35C16.93 12.59 16.84 12.83 16.74 13.07C16.64 13.3 16.53 13.53 16.41 13.75C16.29 13.97 16.16 14.19 16.02 14.4C15.88 14.6 15.73 14.8 15.57 15C15.41 15.19 15.24 15.38 15.06 15.55C14.89 15.73 14.7 15.9 14.51 16.06C14.31 16.22 14.11 16.37 13.91 16.51C13.7 16.65 13.48 16.78 13.26 16.9C13.04 17.02 12.81 17.13 12.58 17.23C12.34 17.33 12.1 17.42 11.86 17.49C11.61 17.57 11.36 17.63 11.11 17.69C10.85 17.74 10.6 17.78 10.34 17.8C10.07 17.83 9.8 17.84 9.53 17.84C9.26 17.84 9 17.83 8.73 17.8C8.47 17.78 8.21 17.74 7.96 17.69C7.7 17.63 7.45 17.57 7.21 17.49C6.96 17.42 6.72 17.33 6.49 17.23C6.26 17.13 6.03 17.02 5.81 16.9C5.58 16.78 5.37 16.65 5.16 16.51C4.95 16.37 4.75 16.22 4.56 16.06C4.36 15.9 4.18 15.73 4 15.55C3.82 15.38 3.66 15.19 3.5 15C3.34 14.8 3.19 14.6 3.05 14.4C2.91 14.19 2.77 13.97 2.65 13.75C2.53 13.53 2.42 13.3 2.33 13.07Q2.18 12.71 2.06 12.35C1.99 12.1 1.92 11.85 1.87 11.6C1.82 11.34 1.78 11.08 1.75 10.82C1.72 10.56 1.71 10.29 1.71 10.02C1.71 9.75 1.72 9.49 1.75 9.22C1.78 8.96 1.82 8.7 1.87 8.44C1.92 8.19 1.99 7.94 2.06 7.7Q2.18 7.325 2.33 6.98C2.42 6.74 2.53 6.52 2.65 6.29C2.77 6.07 2.91 5.86 3.05 5.65C3.19 5.44 3.34 5.24 3.5 5.05C3.66 4.85 3.82 4.67 4 4.49C4.18 4.31 4.36 4.15 4.56 3.99C4.75 3.83 4.95 3.68 5.16 3.53C5.37 3.39 5.58 3.26 5.81 3.14C6.03 3.02 6.26 2.91 6.49 2.81C6.72 2.71 6.96 2.63 7.21 2.55C7.45 2.48 7.7 2.41 7.96 2.36C8.21 2.31 8.47 2.27 8.73 2.24C9 2.21 9.26 2.2 9.53 2.2C9.8 2.2 10.07 2.21 10.34 2.24C10.6 2.27 10.85 2.31 11.11 2.36C11.36 2.41 11.61 2.48 11.86 2.55C12.1 2.63 12.34 2.71 12.58 2.81C12.81 2.91 13.04 3.02 13.26 3.14C13.48 3.26 13.7 3.39 13.91 3.53C14.11 3.68 14.31 3.83 14.51 3.99C14.7 4.15 14.89 4.31 15.06 4.49C15.24 4.67 15.41 4.85 15.57 5.05C15.73 5.24 15.88 5.44 16.02 5.65C16.16 5.86 16.29 6.07 16.41 6.29C16.53 6.52 16.64 6.74 16.74 6.98C16.84 7.21 16.93 7.45 17 7.7C17.08 7.94 17.15 8.19 17.2 8.44C17.25 8.7 17.29 8.96 17.32 9.22C17.34 9.49 17.36 9.75 17.36 10.02ZM13.12 11.17C13.11 11.18 13.1 11.18 13.09 11.19C13.09 11.19 13.08 11.19 13.07 11.2C13.06 11.2 13.05 11.21 13.04 11.21C13.03 11.21 13.02 11.22 13.01 11.22C13 11.22 12.99 11.22 12.98 11.23L12.95 11.23C12.94 11.23 12.93 11.24 12.92 11.24L9.66 11.24C9.58 11.24 9.51 11.24 9.43 11.22C9.36 11.21 9.29 11.19 9.23 11.16C9.16 11.13 9.1 11.1 9.04 11.06C8.98 11.02 8.93 10.97 8.88 10.92C8.83 10.87 8.78 10.82 8.74 10.76C8.7 10.7 8.67 10.64 8.64 10.57C8.61 10.51 8.59 10.44 8.58 10.37C8.56 10.29 8.56 10.22 8.56 10.14L8.56 4.92C8.56 4.91 8.57 4.9 8.57 4.89L8.57 4.86C8.58 4.85 8.58 4.84 8.58 4.83C8.58 4.82 8.59 4.81 8.59 4.81C8.59 4.8 8.6 4.79 8.6 4.78C8.61 4.77 8.61 4.76 8.61 4.75C8.62 4.74 8.62 4.73 8.63 4.72L8.64 4.7C8.65 4.69 8.65 4.68 8.66 4.67C8.66 4.66 8.67 4.66 8.68 4.65C8.68 4.64 8.69 4.63 8.69 4.62C8.7 4.62 8.71 4.61 8.71 4.6C8.72 4.59 8.73 4.59 8.73 4.58C8.74 4.57 8.75 4.57 8.76 4.56C8.76 4.55 8.77 4.55 8.78 4.54C8.79 4.53 8.8 4.53 8.8 4.52C8.81 4.51 8.82 4.51 8.83 4.5C8.84 4.5 8.84 4.49 8.85 4.49L8.88 4.47C8.89 4.47 8.9 4.46 8.91 4.46C8.91 4.46 8.92 4.45 8.93 4.45C8.94 4.44 8.95 4.44 8.96 4.44C8.97 4.43 8.98 4.43 8.99 4.43C9 4.42 9.01 4.42 9.02 4.42C9.03 4.42 9.04 4.41 9.05 4.41L9.08 4.41L9.11 4.4L9.23 4.4L9.26 4.41L9.29 4.41C9.3 4.41 9.31 4.42 9.31 4.42C9.32 4.42 9.33 4.42 9.34 4.43C9.35 4.43 9.36 4.43 9.37 4.44C9.38 4.44 9.39 4.44 9.4 4.45C9.41 4.45 9.42 4.46 9.43 4.46C9.44 4.46 9.45 4.47 9.46 4.47L9.48 4.49C9.49 4.49 9.5 4.5 9.51 4.5L9.53 4.52C9.54 4.53 9.55 4.53 9.55 4.54C9.56 4.55 9.57 4.55 9.58 4.56C9.58 4.57 9.59 4.57 9.6 4.58L9.62 4.6C9.63 4.61 9.63 4.62 9.64 4.62C9.65 4.63 9.65 4.64 9.66 4.65C9.66 4.66 9.67 4.66 9.68 4.67C9.68 4.68 9.69 4.69 9.69 4.7L9.71 4.72C9.71 4.73 9.71 4.74 9.72 4.75C9.72 4.76 9.73 4.77 9.73 4.78C9.74 4.79 9.74 4.8 9.74 4.81C9.75 4.81 9.75 4.82 9.75 4.83C9.75 4.84 9.76 4.85 9.76 4.86C9.76 4.87 9.76 4.88 9.77 4.89L9.77 4.92L9.78 4.95L9.78 10.02L12.89 10.02L12.92 10.03L12.95 10.03C12.96 10.04 12.97 10.04 12.98 10.04C12.99 10.04 13 10.05 13.01 10.05C13.02 10.05 13.03 10.05 13.04 10.06C13.05 10.06 13.06 10.07 13.07 10.07C13.08 10.07 13.09 10.08 13.09 10.08C13.1 10.09 13.11 10.09 13.12 10.09L13.15 10.11C13.16 10.11 13.16 10.12 13.17 10.12C13.18 10.13 13.19 10.14 13.2 10.14C13.2 10.15 13.21 10.15 13.22 10.16C13.23 10.17 13.24 10.17 13.24 10.18C13.25 10.19 13.26 10.19 13.27 10.2C13.27 10.21 13.28 10.22 13.29 10.22C13.29 10.23 13.3 10.24 13.31 10.25C13.31 10.25 13.32 10.26 13.32 10.27L13.34 10.29C13.35 10.3 13.35 10.31 13.36 10.32L13.37 10.34C13.38 10.35 13.38 10.36 13.39 10.37C13.39 10.38 13.39 10.39 13.4 10.4C13.4 10.41 13.41 10.42 13.41 10.43C13.41 10.44 13.42 10.45 13.42 10.46C13.42 10.47 13.42 10.48 13.43 10.49L13.43 10.51C13.43 10.52 13.44 10.53 13.44 10.54L13.44 10.72C13.44 10.73 13.43 10.74 13.43 10.75L13.43 10.78C13.42 10.79 13.42 10.8 13.42 10.81C13.42 10.82 13.41 10.83 13.41 10.84C13.41 10.85 13.4 10.86 13.4 10.87C13.39 10.88 13.39 10.89 13.39 10.89C13.38 10.9 13.38 10.91 13.37 10.92L13.36 10.95L13.34 10.97C13.34 10.98 13.33 10.99 13.32 11C13.32 11 13.31 11.01 13.31 11.02L13.29 11.04C13.28 11.05 13.27 11.06 13.27 11.07C13.26 11.07 13.25 11.08 13.24 11.09L13.22 11.11C13.21 11.11 13.2 11.12 13.2 11.12C13.19 11.13 13.18 11.14 13.17 11.14L13.15 11.16L13.12 11.17Z" /></g></g></svg>