<svg xmlns="http://www.w3.org/2000/svg" xmlns:xlink="http://www.w3.org/1999/xlink" width="22" height="22" viewBox="0 0 22 22" fill="none"><defs><rect id="path_0" x="0" y="0" width="22" height="22" /></defs><g opacity="1" transform="translate(0 0)  rotate(0 11 11)"><mask id="bg-mask-0" fill="white"><use xlink:href="#path_0"></use></mask><g mask="url(#bg-mask-0)" ><path id="并集" fill-rule="evenodd" style="fill:#000000" transform="translate(3.5444444444444443 1.344444444444445)  rotate(0 7.394444444444444 9.777777777777777)" opacity="1" d="M14.05 5L9.42 0.38C9.19 0.14 8.87 0.02 8.56 0.02L8.56 0L1.47 0C0.66 0 0 0.66 0 1.47L0 17.84C0 18.65 0.66 19.31 1.47 19.31L8.07 19.31L8.07 18.09L1.47 18.09C1.43 18.09 1.4 18.08 1.37 18.07C1.34 18.06 1.32 18.04 1.29 18.02C1.27 17.99 1.25 17.97 1.24 17.94C1.23 17.91 1.22 17.88 1.22 17.84L1.22 1.47C1.22 1.43 1.23 1.4 1.24 1.37C1.25 1.34 1.27 1.32 1.29 1.29C1.32 1.27 1.34 1.25 1.37 1.24C1.4 1.23 1.43 1.22 1.47 1.22L7.33 1.22L7.33 5.87C7.33 6.54 7.88 7.09 8.56 7.09L13.2 7.09L13.2 8.07L14.42 8.07L14.42 5.87L14.4 5.87C14.4 5.55 14.28 5.24 14.05 5ZM12.87 5.87L8.56 5.87L8.56 1.24L13.18 5.87L12.87 5.87ZM13 18.33C13.04 18.33 13.07 18.33 13.11 18.32C13.15 18.32 13.18 18.3 13.22 18.29C13.25 18.28 13.28 18.26 13.31 18.24C13.35 18.22 13.37 18.19 13.4 18.17C13.43 18.14 13.45 18.11 13.47 18.08C13.49 18.05 13.51 18.02 13.52 17.98C13.54 17.95 13.55 17.91 13.56 17.88C13.56 17.84 13.57 17.8 13.57 17.77L13.57 12.41C13.57 12.29 13.56 12.18 13.53 12.07C13.51 11.97 13.48 11.86 13.44 11.76C13.4 11.66 13.35 11.57 13.29 11.48C13.23 11.39 13.16 11.31 13.08 11.24C13.01 11.16 12.93 11.1 12.84 11.04C12.75 10.98 12.66 10.93 12.56 10.89C12.46 10.84 12.36 10.81 12.25 10.79C12.14 10.77 12.03 10.76 11.92 10.76C11.8 10.76 11.69 10.77 11.58 10.79C11.48 10.81 11.37 10.84 11.27 10.89C11.18 10.93 11.08 10.98 10.99 11.04C10.91 11.1 10.83 11.16 10.75 11.24C10.67 11.31 10.61 11.39 10.55 11.48C10.49 11.57 10.44 11.66 10.4 11.76C10.35 11.86 10.32 11.97 10.3 12.07C10.28 12.18 10.27 12.29 10.27 12.41L10.27 17.46C10.27 17.47 10.26 17.48 10.26 17.49L10.26 17.52C10.26 17.53 10.26 17.54 10.25 17.55L10.25 17.58C10.25 17.59 10.24 17.6 10.24 17.61C10.24 17.62 10.23 17.63 10.23 17.64C10.23 17.65 10.22 17.65 10.22 17.66C10.22 17.67 10.21 17.68 10.21 17.69C10.2 17.7 10.2 17.71 10.19 17.72C10.19 17.73 10.18 17.74 10.18 17.75C10.17 17.75 10.17 17.76 10.16 17.77C10.16 17.78 10.15 17.79 10.15 17.79C10.14 17.8 10.13 17.81 10.13 17.82L10.11 17.84L10.09 17.86L10.07 17.88C10.06 17.89 10.05 17.9 10.04 17.9C10.04 17.91 10.03 17.92 10.02 17.92C10.01 17.93 10 17.93 10 17.94C9.99 17.94 9.98 17.95 9.97 17.95C9.96 17.96 9.95 17.96 9.94 17.97C9.93 17.97 9.93 17.98 9.92 17.98C9.91 17.99 9.9 17.99 9.89 17.99C9.88 18 9.87 18 9.86 18.01C9.85 18.01 9.84 18.01 9.83 18.02L9.8 18.02C9.79 18.03 9.79 18.03 9.77 18.03C9.76 18.03 9.75 18.03 9.74 18.04L9.6 18.04C9.58 18.04 9.56 18.03 9.54 18.03C9.52 18.03 9.5 18.02 9.48 18.02L9.42 17.99C9.4 17.99 9.39 17.98 9.37 17.97C9.35 17.96 9.33 17.95 9.32 17.94C9.3 17.93 9.28 17.92 9.27 17.9C9.25 17.89 9.24 17.88 9.22 17.86C9.21 17.85 9.2 17.83 9.18 17.82C9.17 17.8 9.16 17.79 9.15 17.77C9.14 17.75 9.13 17.74 9.12 17.72L9.09 17.66C9.08 17.65 9.08 17.63 9.07 17.61C9.07 17.59 9.06 17.57 9.06 17.55C9.05 17.53 9.05 17.51 9.05 17.49C9.05 17.47 9.04 17.45 9.04 17.43L9.04 12.41C9.04 12.21 9.06 12.02 9.1 11.83C9.14 11.64 9.2 11.46 9.27 11.29C9.34 11.12 9.43 10.95 9.54 10.8C9.64 10.65 9.75 10.51 9.89 10.37C10.02 10.24 10.16 10.13 10.31 10.02C10.46 9.92 10.63 9.83 10.8 9.76C10.97 9.68 11.15 9.63 11.34 9.59C11.53 9.55 11.72 9.53 11.92 9.53C12.11 9.53 12.31 9.55 12.49 9.59C12.68 9.63 12.86 9.68 13.03 9.76C13.21 9.83 13.37 9.92 13.52 10.02C13.68 10.13 13.82 10.24 13.95 10.37C14.08 10.51 14.19 10.65 14.3 10.8C14.4 10.95 14.49 11.12 14.56 11.29C14.64 11.46 14.69 11.64 14.73 11.83C14.77 12.02 14.79 12.21 14.79 12.41L14.79 17.77C14.79 17.88 14.78 18 14.75 18.12C14.73 18.23 14.7 18.34 14.65 18.45C14.61 18.56 14.55 18.66 14.49 18.76C14.42 18.86 14.35 18.95 14.27 19.03C14.18 19.12 14.09 19.19 13.99 19.26C13.9 19.32 13.79 19.37 13.68 19.42C13.58 19.47 13.47 19.5 13.35 19.52C13.23 19.54 13.12 19.56 13 19.56C12.88 19.56 12.76 19.54 12.64 19.52C12.52 19.5 12.41 19.46 12.3 19.42C12.2 19.37 12.1 19.31 12 19.25C11.9 19.19 11.82 19.11 11.73 19.03C11.65 18.95 11.58 18.86 11.52 18.77C11.45 18.67 11.4 18.57 11.35 18.46C11.31 18.35 11.27 18.24 11.25 18.13C11.22 18.01 11.21 17.89 11.21 17.77L11.21 12.07C11.22 12.06 11.22 12.05 11.22 12.04L11.22 12.01C11.22 12 11.23 11.99 11.23 11.98C11.23 11.97 11.23 11.96 11.24 11.95C11.24 11.94 11.24 11.94 11.25 11.93C11.25 11.92 11.25 11.91 11.26 11.9C11.26 11.89 11.27 11.88 11.27 11.87C11.27 11.86 11.28 11.85 11.28 11.84L11.3 11.82C11.3 11.81 11.31 11.8 11.31 11.79C11.32 11.78 11.33 11.78 11.33 11.77C11.34 11.76 11.34 11.75 11.35 11.74C11.36 11.74 11.36 11.73 11.37 11.72L11.41 11.68C11.42 11.67 11.43 11.66 11.44 11.66C11.44 11.65 11.45 11.65 11.46 11.64L11.48 11.62C11.49 11.62 11.5 11.61 11.51 11.61L11.53 11.59C11.54 11.59 11.55 11.58 11.56 11.58C11.57 11.57 11.58 11.57 11.59 11.57C11.6 11.56 11.61 11.56 11.62 11.56C11.63 11.55 11.64 11.55 11.65 11.55C11.66 11.54 11.66 11.54 11.67 11.54L11.7 11.53L11.73 11.53L11.76 11.52L11.87 11.52C11.88 11.52 11.9 11.52 11.91 11.53C11.93 11.53 11.94 11.53 11.95 11.54C11.97 11.54 11.98 11.54 12 11.55C12.01 11.55 12.03 11.55 12.04 11.56L12.08 11.58C12.09 11.58 12.11 11.59 12.12 11.6C12.13 11.61 12.15 11.61 12.16 11.62L12.19 11.65C12.21 11.66 12.22 11.66 12.23 11.67C12.24 11.68 12.25 11.7 12.26 11.71L12.29 11.74L12.32 11.77C12.33 11.79 12.33 11.8 12.34 11.81C12.35 11.82 12.36 11.84 12.36 11.85C12.37 11.86 12.38 11.88 12.38 11.89C12.4 11.93 12.41 11.97 12.42 12.01C12.43 12.05 12.43 12.09 12.43 12.13L12.43 17.77C12.43 17.81 12.44 17.84 12.44 17.88C12.45 17.92 12.46 17.95 12.48 17.99C12.49 18.02 12.51 18.05 12.53 18.08C12.55 18.11 12.57 18.14 12.6 18.17C12.63 18.19 12.65 18.22 12.68 18.24C12.71 18.26 12.75 18.27 12.78 18.29C12.81 18.3 12.85 18.32 12.88 18.32C12.92 18.33 12.96 18.33 13 18.33Z" /></g></g></svg>