<svg xmlns="http://www.w3.org/2000/svg" xmlns:xlink="http://www.w3.org/1999/xlink" width="22" height="22" viewBox="0 0 22 22" fill="none"><defs><rect id="path_0" x="0" y="0" width="22" height="22" /></defs><g opacity="1" transform="translate(0 0)  rotate(0 11 11)"><mask id="bg-mask-0" fill="white"><use xlink:href="#path_0"></use></mask><g mask="url(#bg-mask-0)" ><path id="并集" fill-rule="evenodd" style="fill:#000000" transform="translate(2.0777777777777775 2.9333333333333336)  rotate(0 8.433333333333334 8.372222222222222)" opacity="1" d="M16.87 12.53L16.87 1.47C16.87 0.66 16.21 0 15.4 0L5.01 0C4.2 0 3.54 0.66 3.54 1.47L3.54 12.28C3.2 12.09 2.8 11.98 2.38 11.98C1.07 11.98 0 13.04 0 14.36C0 15.68 1.07 16.74 2.38 16.74C3.7 16.74 4.77 15.68 4.77 14.36L4.77 5.13L15.64 5.13L15.64 10.45C15.3 10.25 14.9 10.14 14.48 10.14C13.17 10.14 12.1 11.21 12.1 12.53C12.1 13.84 13.17 14.91 14.48 14.91C15.8 14.91 16.87 13.84 16.87 12.53ZM4.77 3.91L15.64 3.91L15.64 1.47C15.64 1.43 15.64 1.4 15.63 1.37C15.61 1.34 15.6 1.32 15.57 1.29C15.55 1.27 15.52 1.25 15.5 1.24C15.47 1.23 15.43 1.22 15.4 1.22L5.01 1.22C4.98 1.22 4.95 1.23 4.92 1.24C4.89 1.25 4.86 1.27 4.84 1.29C4.82 1.32 4.8 1.34 4.79 1.37C4.77 1.4 4.77 1.43 4.77 1.47L4.77 3.91ZM14.25 11.39C14.32 11.37 14.4 11.37 14.48 11.37C14.56 11.37 14.64 11.37 14.72 11.39C14.79 11.41 14.86 11.43 14.94 11.46C15 11.49 15.07 11.52 15.13 11.56C15.19 11.61 15.25 11.65 15.3 11.71C15.36 11.76 15.4 11.82 15.45 11.88C15.49 11.94 15.52 12.01 15.55 12.08C15.58 12.15 15.61 12.22 15.62 12.29C15.64 12.37 15.64 12.45 15.64 12.53C15.64 12.61 15.64 12.69 15.62 12.76C15.61 12.84 15.58 12.91 15.55 12.98C15.52 13.05 15.49 13.11 15.45 13.18C15.4 13.24 15.36 13.3 15.3 13.35C15.25 13.4 15.19 13.45 15.13 13.49C15.07 13.53 15 13.57 14.94 13.6C14.86 13.63 14.79 13.65 14.72 13.67C14.64 13.68 14.56 13.69 14.48 13.69C14.4 13.69 14.32 13.68 14.25 13.67C14.17 13.65 14.1 13.63 14.03 13.6C13.96 13.57 13.9 13.53 13.84 13.49C13.77 13.45 13.72 13.4 13.66 13.35C13.61 13.3 13.56 13.24 13.52 13.18C13.48 13.11 13.44 13.05 13.41 12.98C13.38 12.91 13.36 12.84 13.35 12.76C13.33 12.69 13.32 12.61 13.32 12.53Q13.32 12.41 13.35 12.29C13.36 12.22 13.38 12.15 13.41 12.08C13.44 12.01 13.48 11.94 13.52 11.88C13.56 11.82 13.61 11.76 13.66 11.71C13.72 11.65 13.77 11.61 13.84 11.56C13.9 11.52 13.96 11.49 14.03 11.46C14.1 11.43 14.17 11.41 14.25 11.39ZM2.38 13.2C2.46 13.2 2.54 13.21 2.62 13.22C2.69 13.24 2.76 13.26 2.84 13.29C2.9 13.32 2.97 13.36 3.03 13.4C3.09 13.44 3.15 13.49 3.2 13.54C3.26 13.59 3.3 13.65 3.35 13.71C3.39 13.77 3.42 13.84 3.45 13.91C3.48 13.98 3.51 14.05 3.52 14.13C3.54 14.2 3.54 14.28 3.54 14.36C3.54 14.44 3.54 14.52 3.52 14.6C3.51 14.67 3.48 14.74 3.45 14.81C3.42 14.88 3.39 14.95 3.35 15.01C3.3 15.07 3.26 15.13 3.2 15.18C3.15 15.24 3.09 15.28 3.03 15.32C2.97 15.37 2.9 15.4 2.84 15.43C2.76 15.46 2.69 15.48 2.62 15.5C2.54 15.51 2.46 15.52 2.38 15.52C2.3 15.52 2.22 15.51 2.15 15.5C2.07 15.48 2 15.46 1.93 15.43C1.86 15.4 1.8 15.37 1.74 15.32C1.67 15.28 1.62 15.24 1.56 15.18C1.51 15.13 1.46 15.07 1.42 15.01C1.38 14.95 1.34 14.88 1.31 14.81C1.28 14.74 1.26 14.67 1.25 14.6C1.23 14.52 1.22 14.44 1.22 14.36C1.22 14.28 1.23 14.2 1.25 14.13C1.26 14.05 1.28 13.98 1.31 13.91C1.34 13.84 1.38 13.77 1.42 13.71C1.46 13.65 1.51 13.59 1.56 13.54C1.62 13.49 1.67 13.44 1.74 13.4C1.8 13.36 1.86 13.32 1.93 13.29C2 13.26 2.07 13.24 2.15 13.22C2.22 13.21 2.3 13.2 2.38 13.2Z" /></g></g></svg>