<svg xmlns="http://www.w3.org/2000/svg" xmlns:xlink="http://www.w3.org/1999/xlink" width="22" height="22" viewBox="0 0 22 22" fill="none"><defs><rect id="path_0" x="0" y="0" width="22" height="22" /></defs><g opacity="1" transform="translate(0 0)  rotate(0 11 11)"><mask id="bg-mask-0" fill="white"><use xlink:href="#path_0"></use></mask><g mask="url(#bg-mask-0)" ><path id="并集" fill-rule="evenodd" style="fill:#000000" transform="translate(2.199999456621004 1.588888899076606)  rotate(0 8.555549037121597 9.35)" opacity="1" d="M3.17 4.4C3.14 4.49 3.12 4.58 3.11 4.67C3.09 4.77 3.07 4.86 3.06 4.95C3.04 5.05 3.03 5.14 3.02 5.24C3.01 5.33 3.01 5.43 3 5.52C3 5.62 2.99 5.71 2.99 5.81L2.99 10.6C2.99 10.7 3 10.79 3 10.89C3.01 10.98 3.02 11.07 3.02 11.17C3.03 11.26 3.05 11.36 3.06 11.45C3.08 11.54 3.09 11.63 3.11 11.73L3.17 12C3.2 12.1 3.22 12.19 3.25 12.28C3.28 12.37 3.31 12.46 3.34 12.54C3.37 12.63 3.41 12.72 3.44 12.81C3.48 12.9 3.52 12.98 3.56 13.07C3.6 13.15 3.64 13.24 3.68 13.32L3.77 13.47L3.1 14.16C3.07 14.1 3.03 14.05 3 13.99C2.9 13.8 2.81 13.61 2.72 13.41C2.64 13.21 2.56 13.01 2.5 12.8C2.43 12.59 2.38 12.37 2.34 12.16C2.25 11.75 2.21 11.33 2.2 10.9L2.2 10.57L2.19 10.54L2.19 10.51C2.19 10.5 2.18 10.49 2.18 10.49C2.18 10.48 2.18 10.47 2.17 10.46C2.17 10.45 2.17 10.44 2.16 10.43C2.16 10.42 2.16 10.41 2.15 10.4C2.15 10.39 2.14 10.38 2.14 10.37C2.14 10.36 2.13 10.35 2.13 10.34L2.11 10.32C2.11 10.31 2.1 10.3 2.1 10.29L2.08 10.27C2.07 10.26 2.07 10.25 2.06 10.25C2.05 10.24 2.05 10.23 2.04 10.22C2.03 10.22 2.03 10.21 2.02 10.2L2 10.18C1.99 10.17 1.98 10.17 1.98 10.16C1.97 10.15 1.96 10.15 1.95 10.14C1.94 10.14 1.94 10.13 1.93 10.12C1.92 10.12 1.91 10.11 1.9 10.11L1.88 10.09C1.87 10.09 1.86 10.09 1.85 10.08C1.84 10.08 1.83 10.07 1.82 10.07C1.81 10.07 1.8 10.06 1.79 10.06L1.77 10.05C1.76 10.05 1.75 10.04 1.74 10.04C1.73 10.04 1.72 10.04 1.71 10.03L1.68 10.03L1.65 10.02L1.53 10.02L1.5 10.03L1.47 10.03C1.46 10.04 1.45 10.04 1.44 10.04C1.43 10.04 1.42 10.05 1.41 10.05C1.4 10.05 1.39 10.05 1.38 10.06C1.37 10.06 1.36 10.07 1.36 10.07C1.35 10.07 1.34 10.08 1.33 10.08C1.32 10.09 1.31 10.09 1.3 10.09L1.27 10.11C1.27 10.11 1.26 10.12 1.25 10.12C1.24 10.13 1.23 10.14 1.22 10.14C1.22 10.15 1.21 10.15 1.2 10.16L1.18 10.18C1.17 10.19 1.16 10.19 1.16 10.2L1.14 10.22C1.13 10.23 1.12 10.24 1.12 10.25C1.11 10.25 1.1 10.26 1.1 10.27L1.08 10.29C1.08 10.3 1.07 10.31 1.06 10.32L1.05 10.34C1.05 10.35 1.04 10.36 1.04 10.37C1.03 10.38 1.03 10.39 1.02 10.4C1.02 10.41 1.02 10.42 1.01 10.43C1.01 10.44 1.01 10.45 1 10.46L1 10.49C0.99 10.49 0.99 10.5 0.99 10.51C0.99 10.52 0.99 10.53 0.98 10.54L0.98 10.82C0.98 11.09 0.99 11.35 1.02 11.62C1.05 11.88 1.09 12.15 1.14 12.4C1.19 12.66 1.26 12.91 1.33 13.16C1.41 13.41 1.5 13.65 1.6 13.89C1.7 14.12 1.81 14.35 1.93 14.57C1.96 14.63 1.99 14.69 2.03 14.75C2.09 14.85 2.15 14.96 2.22 15.06L0.17 17.17C0.16 17.19 0.15 17.2 0.13 17.22C0.12 17.24 0.11 17.25 0.1 17.27C0.09 17.28 0.08 17.3 0.07 17.32L0.04 17.38C0.04 17.39 0.03 17.41 0.02 17.43C0.02 17.45 0.01 17.47 0.01 17.49C0.01 17.51 0 17.53 0 17.55L0 17.67C0.01 17.69 0.01 17.71 0.01 17.73C0.02 17.75 0.02 17.77 0.03 17.79C0.04 17.81 0.04 17.82 0.05 17.84L0.08 17.9C0.09 17.91 0.1 17.93 0.11 17.95C0.12 17.96 0.13 17.98 0.14 17.99C0.16 18.01 0.17 18.03 0.19 18.04L0.23 18.08C0.25 18.1 0.28 18.12 0.31 18.13C0.35 18.15 0.38 18.17 0.41 18.18C0.44 18.19 0.48 18.2 0.51 18.2C0.55 18.21 0.59 18.21 0.62 18.21L0.68 18.21C0.7 18.2 0.72 18.2 0.74 18.2C0.76 18.19 0.78 18.19 0.8 18.18C0.82 18.18 0.83 18.17 0.85 18.16L0.91 18.13C0.93 18.12 0.94 18.11 0.96 18.1C0.98 18.09 0.99 18.08 1.01 18.07C1.02 18.05 1.04 18.04 1.05 18.03L16.94 1.65C16.96 1.62 16.99 1.59 17.01 1.56C17.02 1.55 17.03 1.53 17.04 1.52C17.05 1.5 17.05 1.48 17.06 1.47C17.07 1.45 17.07 1.43 17.08 1.42L17.09 1.37C17.1 1.35 17.1 1.33 17.1 1.32C17.11 1.3 17.11 1.28 17.11 1.26L17.11 1.16C17.11 1.14 17.1 1.12 17.1 1.1C17.1 1.09 17.09 1.07 17.09 1.05C17.08 1.04 17.08 1.02 17.07 1C17.06 0.99 17.06 0.97 17.05 0.95C17.04 0.94 17.03 0.92 17.02 0.91C17.01 0.89 17 0.88 17 0.86C16.98 0.85 16.97 0.84 16.96 0.82C16.95 0.81 16.94 0.8 16.93 0.78C16.92 0.78 16.91 0.77 16.9 0.76L16.88 0.74C16.87 0.74 16.86 0.73 16.86 0.73C16.85 0.72 16.84 0.71 16.83 0.71L16.81 0.69C16.8 0.69 16.79 0.68 16.78 0.68C16.77 0.67 16.76 0.67 16.75 0.67C16.74 0.66 16.73 0.66 16.72 0.65C16.72 0.65 16.71 0.65 16.7 0.64C16.69 0.64 16.68 0.64 16.67 0.63L16.64 0.63C16.63 0.62 16.62 0.62 16.61 0.62L16.58 0.62C16.57 0.61 16.56 0.61 16.55 0.61L16.43 0.61C16.42 0.62 16.41 0.62 16.4 0.62L16.37 0.62L16.34 0.63C16.33 0.63 16.32 0.64 16.31 0.64C16.3 0.64 16.29 0.65 16.28 0.65C16.28 0.65 16.27 0.66 16.26 0.66C16.25 0.66 16.24 0.67 16.23 0.67L16.2 0.69C16.19 0.69 16.19 0.7 16.18 0.7C16.17 0.71 16.16 0.71 16.15 0.72C16.14 0.72 16.14 0.73 16.13 0.74C16.12 0.74 16.11 0.75 16.11 0.76C16.1 0.76 16.09 0.77 16.08 0.78L16.06 0.8L13.9 3.03L13.78 2.82L13.63 2.58C13.57 2.5 13.52 2.42 13.46 2.35C13.41 2.27 13.35 2.2 13.29 2.12C13.23 2.05 13.17 1.98 13.1 1.91C13.04 1.84 12.97 1.77 12.91 1.7C12.84 1.63 12.77 1.57 12.7 1.5C12.63 1.44 12.56 1.38 12.48 1.32C12.41 1.26 12.33 1.2 12.26 1.14C12.18 1.09 12.1 1.03 12.03 0.98C11.95 0.93 11.87 0.88 11.78 0.83C11.7 0.78 11.62 0.73 11.54 0.69C11.45 0.64 11.37 0.6 11.28 0.56C11.2 0.52 11.11 0.48 11.02 0.44C10.93 0.41 10.84 0.37 10.76 0.34L10.49 0.25C10.39 0.22 10.3 0.2 10.21 0.17C10.12 0.15 10.03 0.13 9.93 0.11C9.84 0.09 9.75 0.08 9.65 0.06C9.56 0.05 9.46 0.04 9.37 0.03C9.27 0.02 9.18 0.01 9.08 0.01C8.99 0 8.9 0 8.8 0C8.7 0 8.61 0 8.52 0.01C8.42 0.01 8.33 0.02 8.23 0.03C8.14 0.04 8.04 0.05 7.95 0.06C7.85 0.08 7.76 0.09 7.67 0.11C7.57 0.13 7.48 0.15 7.39 0.17C7.3 0.2 7.21 0.22 7.11 0.25L6.84 0.34C6.76 0.37 6.67 0.41 6.58 0.44C6.49 0.48 6.4 0.52 6.32 0.56C6.23 0.6 6.15 0.64 6.06 0.69C5.98 0.73 5.9 0.78 5.82 0.83C5.73 0.88 5.65 0.93 5.57 0.98C5.5 1.03 5.42 1.09 5.34 1.14C5.27 1.2 5.19 1.26 5.12 1.32C5.04 1.38 4.97 1.44 4.9 1.5C4.83 1.57 4.76 1.63 4.69 1.7C4.63 1.77 4.56 1.84 4.5 1.91C4.43 1.98 4.37 2.05 4.31 2.12C4.25 2.2 4.19 2.27 4.14 2.35C4.08 2.42 4.03 2.5 3.97 2.58L3.82 2.82C3.77 2.9 3.73 2.98 3.68 3.07C3.63 3.15 3.59 3.24 3.55 3.32C3.51 3.41 3.47 3.5 3.44 3.58C3.4 3.67 3.37 3.76 3.33 3.85L3.24 4.12C3.22 4.21 3.19 4.3 3.17 4.4ZM5.56 2.56C5.77 2.35 6 2.17 6.25 2C6.5 1.83 6.76 1.69 7.05 1.57C7.33 1.45 7.62 1.37 7.91 1.31C8.21 1.25 8.5 1.22 8.8 1.22C9.08 1.22 9.36 1.25 9.63 1.3C9.93 1.35 10.21 1.43 10.49 1.54C10.78 1.66 11.05 1.8 11.31 1.97C11.44 2.06 11.57 2.15 11.69 2.25C11.81 2.35 11.93 2.45 12.04 2.56C12.15 2.68 12.26 2.79 12.36 2.92C12.46 3.04 12.55 3.17 12.64 3.3C12.72 3.43 12.8 3.56 12.87 3.7C12.92 3.79 12.96 3.87 12.99 3.96L4.66 12.55C4.63 12.47 4.6 12.4 4.56 12.33C4.45 12.04 4.36 11.76 4.3 11.46C4.25 11.16 4.22 10.87 4.22 10.57L4.22 5.81C4.22 5.51 4.25 5.21 4.3 4.92C4.36 4.62 4.45 4.33 4.56 4.05C4.68 3.77 4.82 3.5 4.99 3.25C5.16 3 5.35 2.78 5.56 2.56ZM7.67 16.27C7.76 16.28 7.85 16.3 7.95 16.32C8.04 16.33 8.14 16.34 8.23 16.35C8.33 16.36 8.42 16.37 8.52 16.37C8.61 16.38 8.7 16.38 8.8 16.38C8.89 16.38 8.99 16.38 9.08 16.37C9.18 16.37 9.27 16.36 9.37 16.35C9.46 16.34 9.56 16.33 9.65 16.32C9.74 16.3 9.84 16.28 9.93 16.27C10.02 16.25 10.11 16.23 10.21 16.21C10.3 16.18 10.39 16.16 10.48 16.13L10.75 16.04C10.84 16.01 10.93 15.97 11.01 15.94C11.1 15.9 11.19 15.86 11.27 15.82C11.36 15.78 11.44 15.74 11.53 15.7C11.61 15.65 11.69 15.61 11.78 15.56L12.02 15.41C12.1 15.35 12.17 15.3 12.25 15.24C12.32 15.19 12.4 15.13 12.47 15.07C12.55 15.01 12.62 14.95 12.69 14.88C12.76 14.82 12.83 14.75 12.89 14.69C12.96 14.62 13.03 14.55 13.09 14.48C13.15 14.41 13.22 14.34 13.28 14.27C13.34 14.19 13.4 14.12 13.45 14.05C13.51 13.97 13.56 13.89 13.62 13.81C13.67 13.74 13.72 13.65 13.77 13.57C13.82 13.49 13.86 13.41 13.91 13.33C13.96 13.24 14 13.16 14.04 13.07C14.08 12.99 14.12 12.9 14.15 12.81C14.19 12.73 14.23 12.64 14.26 12.55L14.35 12.28C14.38 12.19 14.4 12.1 14.43 12.01C14.45 11.92 14.47 11.82 14.49 11.73C14.51 11.64 14.52 11.55 14.54 11.45C14.55 11.36 14.57 11.26 14.58 11.17C14.58 11.08 14.59 10.98 14.6 10.89C14.6 10.79 14.6 10.7 14.61 10.6L14.61 5.78L13.38 7.03L13.38 10.57C13.38 10.85 13.36 11.13 13.31 11.41C13.25 11.7 13.17 11.98 13.06 12.26C12.95 12.55 12.81 12.82 12.64 13.08C12.55 13.21 12.46 13.34 12.36 13.46C12.26 13.58 12.15 13.7 12.04 13.81C11.93 13.92 11.81 14.03 11.69 14.13C11.57 14.23 11.44 14.32 11.31 14.41C11.05 14.58 10.78 14.72 10.49 14.83C10.21 14.94 9.93 15.02 9.63 15.08C9.36 15.13 9.08 15.16 8.8 15.16C8.5 15.16 8.21 15.13 7.91 15.07C7.62 15.01 7.33 14.92 7.05 14.81C6.77 14.69 6.5 14.55 6.25 14.38L5.39 15.27C5.45 15.31 5.51 15.36 5.57 15.4C5.65 15.45 5.73 15.5 5.82 15.55C5.9 15.6 5.98 15.65 6.06 15.69C6.15 15.74 6.23 15.78 6.32 15.82C6.4 15.86 6.49 15.9 6.58 15.94C6.67 15.97 6.76 16.01 6.84 16.04L7.11 16.13C7.21 16.16 7.3 16.18 7.39 16.2C7.48 16.23 7.57 16.25 7.67 16.27ZM16.62 10.27C16.63 10.28 16.64 10.28 16.64 10.29C16.65 10.3 16.65 10.31 16.66 10.32L16.67 10.34C16.68 10.35 16.68 10.36 16.69 10.37C16.69 10.38 16.69 10.39 16.7 10.4C16.7 10.41 16.71 10.42 16.71 10.43C16.71 10.44 16.72 10.45 16.72 10.46L16.73 10.49L16.73 10.51C16.73 10.52 16.74 10.53 16.74 10.54L16.74 10.97C16.74 11.19 16.73 11.4 16.7 11.62C16.68 11.88 16.64 12.15 16.58 12.4C16.57 12.46 16.56 12.51 16.55 12.56C16.51 12.75 16.46 12.94 16.4 13.13C16.4 13.14 16.39 13.15 16.39 13.16C16.31 13.41 16.22 13.65 16.12 13.89C16.03 14.12 15.91 14.35 15.79 14.57C15.75 14.65 15.71 14.72 15.67 14.79C15.58 14.94 15.49 15.08 15.4 15.23C15.31 15.36 15.21 15.49 15.12 15.61C15.06 15.69 15 15.76 14.94 15.83C14.79 16.02 14.63 16.19 14.46 16.36L14.44 16.39L14.39 16.44C14.23 16.6 14.05 16.75 13.88 16.9C13.8 16.96 13.73 17.02 13.66 17.07C13.56 17.15 13.46 17.22 13.36 17.29L13.27 17.35C13.23 17.38 13.2 17.4 13.16 17.43C13.04 17.5 12.92 17.58 12.79 17.65C12.74 17.68 12.68 17.72 12.62 17.75C12.39 17.87 12.16 17.98 11.93 18.08C11.69 18.18 11.45 18.27 11.21 18.35C10.96 18.42 10.7 18.49 10.45 18.54C10.19 18.59 9.93 18.63 9.67 18.66C9.46 18.68 9.25 18.69 9.05 18.7L8.71 18.7C8.49 18.7 8.27 18.68 8.06 18.66C7.79 18.63 7.53 18.59 7.27 18.54C7.02 18.49 6.77 18.42 6.52 18.35C6.27 18.27 6.03 18.18 5.79 18.08C5.56 17.98 5.33 17.87 5.1 17.75C5.04 17.71 4.97 17.67 4.9 17.64C4.78 17.57 4.67 17.49 4.55 17.42C4.52 17.4 4.48 17.38 4.45 17.35C4.42 17.33 4.38 17.3 4.34 17.28L4.1 17.1C4.02 17.04 3.93 16.97 3.85 16.9C3.84 16.89 3.83 16.89 3.82 16.88L4.68 16C4.74 16.05 4.8 16.09 4.86 16.14C4.91 16.18 4.96 16.22 5.02 16.26C5.06 16.29 5.1 16.31 5.14 16.34L5.23 16.4C5.32 16.46 5.41 16.52 5.5 16.57C5.56 16.61 5.62 16.64 5.69 16.67C5.88 16.78 6.07 16.87 6.27 16.95C6.47 17.04 6.67 17.11 6.88 17.18C7.09 17.24 7.3 17.3 7.52 17.34C7.89 17.42 8.27 17.46 8.65 17.47C8.72 17.48 8.79 17.48 8.86 17.48L8.95 17.48C9.37 17.47 9.79 17.43 10.2 17.34C10.42 17.3 10.63 17.24 10.84 17.18C11.05 17.11 11.25 17.04 11.45 16.95C11.65 16.87 11.85 16.78 12.04 16.67C12.1 16.64 12.17 16.6 12.24 16.56C12.31 16.51 12.39 16.47 12.46 16.42C12.5 16.4 12.54 16.37 12.59 16.34C12.61 16.32 12.64 16.3 12.67 16.28C12.75 16.22 12.83 16.17 12.91 16.1C12.98 16.06 13.04 16.01 13.1 15.96C13.25 15.83 13.39 15.7 13.53 15.56C13.55 15.55 13.56 15.54 13.57 15.53L13.61 15.49C13.75 15.35 13.88 15.2 14 15.05C14.05 14.99 14.1 14.93 14.15 14.86C14.24 14.76 14.31 14.65 14.39 14.54C14.47 14.42 14.55 14.29 14.62 14.16C14.65 14.11 14.69 14.05 14.72 13.99C14.82 13.8 14.91 13.61 15 13.41C15.08 13.21 15.16 13.01 15.22 12.8C15.23 12.79 15.23 12.78 15.23 12.77C15.28 12.62 15.32 12.46 15.35 12.31C15.37 12.26 15.38 12.21 15.39 12.16C15.47 11.77 15.51 11.38 15.52 10.98L15.52 10.57L15.53 10.54L15.53 10.51C15.54 10.5 15.54 10.49 15.54 10.49C15.54 10.48 15.55 10.47 15.55 10.46C15.55 10.45 15.55 10.44 15.56 10.43C15.56 10.42 15.56 10.41 15.57 10.4C15.57 10.39 15.58 10.38 15.58 10.37C15.59 10.36 15.59 10.35 15.59 10.34L15.61 10.32C15.61 10.31 15.62 10.3 15.62 10.29C15.63 10.28 15.64 10.28 15.64 10.27C15.65 10.26 15.65 10.25 15.66 10.25C15.67 10.24 15.67 10.23 15.68 10.22C15.69 10.22 15.69 10.21 15.7 10.2C15.71 10.19 15.72 10.19 15.72 10.18C15.73 10.17 15.74 10.17 15.75 10.16C15.75 10.15 15.76 10.15 15.77 10.14C15.78 10.14 15.78 10.13 15.79 10.12C15.8 10.12 15.81 10.11 15.82 10.11L15.84 10.09C15.85 10.09 15.86 10.09 15.87 10.08C15.88 10.08 15.89 10.07 15.9 10.07C15.91 10.07 15.92 10.06 15.93 10.06C15.94 10.05 15.95 10.05 15.96 10.05C15.97 10.05 15.98 10.04 15.99 10.04C15.99 10.04 16 10.04 16.01 10.03L16.04 10.03L16.07 10.02L16.19 10.02L16.22 10.03L16.25 10.03C16.26 10.04 16.27 10.04 16.28 10.04C16.29 10.04 16.3 10.05 16.31 10.05C16.32 10.05 16.33 10.05 16.34 10.06C16.35 10.06 16.36 10.07 16.37 10.07C16.38 10.07 16.39 10.08 16.39 10.08C16.4 10.09 16.41 10.09 16.42 10.09L16.45 10.11C16.46 10.11 16.46 10.12 16.47 10.12C16.48 10.13 16.49 10.14 16.5 10.14C16.5 10.15 16.51 10.15 16.52 10.16C16.53 10.17 16.54 10.17 16.54 10.18C16.55 10.19 16.56 10.19 16.57 10.2C16.57 10.21 16.58 10.22 16.59 10.22C16.59 10.23 16.6 10.24 16.61 10.25C16.61 10.25 16.62 10.26 16.62 10.27Z" /></g></g></svg>