<svg xmlns="http://www.w3.org/2000/svg" xmlns:xlink="http://www.w3.org/1999/xlink" width="22" height="22" viewBox="0 0 22 22" fill="none"><defs><rect id="path_0" x="0" y="0" width="22" height="22" /></defs><g opacity="1" transform="translate(0 0)  rotate(0 11 11)"><mask id="bg-mask-0" fill="white"><use xlink:href="#path_0"></use></mask><g mask="url(#bg-mask-0)" ><path id="并集 (轮廓)" fill-rule="evenodd" style="fill:#000000" transform="translate(3.116666666666667 1.5888888888888886)  rotate(0 7.883333333333333 9.35)" opacity="1" d="M2.02 10.6L2.02 5.52C2.03 5.43 2.04 5.33 2.04 5.24C2.05 5.14 2.07 5.05 2.08 4.95C2.09 4.86 2.11 4.77 2.13 4.67C2.15 4.58 2.17 4.49 2.19 4.39C2.21 4.3 2.24 4.21 2.27 4.12C2.29 4.03 2.32 3.94 2.36 3.85C2.39 3.76 2.42 3.67 2.46 3.58C2.49 3.5 2.53 3.41 2.57 3.32C2.61 3.24 2.66 3.15 2.7 3.07C2.75 2.99 2.79 2.9 2.84 2.82C2.89 2.74 2.94 2.66 3 2.58C3.05 2.5 3.1 2.42 3.16 2.35C3.22 2.27 3.27 2.2 3.33 2.12C3.39 2.05 3.46 1.98 3.52 1.91C3.58 1.84 3.65 1.77 3.72 1.7C3.78 1.63 3.85 1.57 3.92 1.5C3.99 1.44 4.07 1.38 4.14 1.32C4.21 1.26 4.29 1.2 4.36 1.14C4.44 1.09 4.52 1.03 4.6 0.98C4.68 0.93 4.76 0.87 4.84 0.83C4.92 0.78 5 0.73 5.09 0.69C5.17 0.64 5.25 0.6 5.34 0.56C5.43 0.52 5.51 0.48 5.6 0.44C5.69 0.41 5.78 0.37 5.87 0.34L6.14 0.25C6.23 0.22 6.32 0.2 6.41 0.17C6.5 0.15 6.6 0.13 6.69 0.11C6.78 0.09 6.88 0.08 6.97 0.06C7.06 0.05 7.16 0.04 7.25 0.03C7.35 0.02 7.44 0.01 7.54 0.01C7.63 0 7.73 0 7.82 0C7.92 0 8.01 0 8.11 0.01C8.2 0.01 8.3 0.02 8.39 0.03C8.49 0.04 8.58 0.05 8.67 0.06C8.77 0.08 8.86 0.09 8.95 0.11C9.05 0.13 9.14 0.15 9.23 0.17C9.33 0.2 9.42 0.22 9.51 0.25L9.78 0.34C9.87 0.37 9.96 0.41 10.04 0.44C10.13 0.48 10.22 0.52 10.3 0.56C10.39 0.6 10.48 0.64 10.56 0.69C10.64 0.73 10.73 0.78 10.81 0.83C10.89 0.87 10.97 0.93 11.05 0.98C11.13 1.03 11.2 1.09 11.28 1.14C11.36 1.2 11.43 1.26 11.51 1.32L11.72 1.5C11.79 1.57 11.86 1.63 11.93 1.7C11.99 1.77 12.06 1.84 12.12 1.91C12.19 1.98 12.25 2.05 12.31 2.12C12.37 2.2 12.43 2.27 12.49 2.35C12.54 2.42 12.6 2.5 12.65 2.58L12.8 2.82C12.85 2.9 12.9 2.99 12.94 3.07C12.99 3.15 13.03 3.24 13.07 3.32C13.11 3.41 13.15 3.5 13.19 3.58C13.22 3.67 13.26 3.76 13.29 3.85L13.38 4.12C13.41 4.21 13.43 4.3 13.45 4.39C13.48 4.49 13.5 4.58 13.52 4.67C13.53 4.77 13.55 4.86 13.56 4.95C13.58 5.05 13.59 5.14 13.6 5.24C13.61 5.33 13.62 5.43 13.62 5.52C13.63 5.62 13.63 5.71 13.63 5.81L13.63 10.6C13.63 10.7 13.62 10.79 13.62 10.89C13.61 10.98 13.61 11.08 13.6 11.17C13.59 11.26 13.58 11.36 13.56 11.45C13.55 11.55 13.53 11.64 13.51 11.73C13.49 11.82 13.47 11.92 13.45 12.01C13.42 12.1 13.4 12.19 13.37 12.28L13.28 12.55C13.25 12.64 13.21 12.73 13.18 12.82C13.14 12.9 13.1 12.99 13.06 13.07C13.02 13.16 12.98 13.24 12.93 13.33C12.89 13.41 12.84 13.49 12.79 13.57C12.74 13.66 12.69 13.73 12.64 13.81C12.59 13.89 12.53 13.97 12.47 14.05C12.42 14.12 12.36 14.2 12.3 14.27C12.24 14.34 12.18 14.41 12.11 14.48C12.05 14.55 11.98 14.62 11.92 14.69C11.85 14.75 11.78 14.82 11.71 14.88C11.64 14.95 11.57 15.01 11.49 15.07C11.42 15.13 11.35 15.19 11.27 15.24C11.19 15.3 11.12 15.35 11.04 15.41L10.8 15.56C10.72 15.61 10.63 15.65 10.55 15.7C10.47 15.74 10.38 15.78 10.3 15.82C10.21 15.86 10.12 15.9 10.04 15.94C9.95 15.97 9.86 16.01 9.77 16.04L9.5 16.13C9.41 16.16 9.32 16.18 9.23 16.2C9.14 16.23 9.04 16.25 8.95 16.27C8.86 16.29 8.76 16.3 8.67 16.32C8.58 16.33 8.48 16.34 8.39 16.35C8.3 16.36 8.2 16.37 8.11 16.37C8.01 16.38 7.92 16.38 7.82 16.38C7.73 16.38 7.63 16.38 7.54 16.37C7.44 16.37 7.35 16.36 7.25 16.35C7.16 16.34 7.06 16.33 6.97 16.31C6.88 16.3 6.78 16.28 6.69 16.27C6.6 16.25 6.5 16.23 6.41 16.2C6.32 16.18 6.23 16.16 6.14 16.13L5.87 16.04C5.78 16.01 5.69 15.97 5.6 15.94C5.51 15.9 5.43 15.86 5.34 15.82C5.25 15.78 5.17 15.74 5.09 15.69C5 15.65 4.92 15.6 4.84 15.55L4.6 15.4C4.52 15.35 4.44 15.29 4.36 15.24C4.29 15.18 4.21 15.12 4.14 15.06C4.07 15 3.99 14.94 3.92 14.87C3.85 14.81 3.78 14.74 3.72 14.68C3.65 14.61 3.59 14.54 3.52 14.47L3.34 14.26C3.28 14.19 3.22 14.11 3.16 14.04C3.11 13.96 3.05 13.88 3 13.8C2.95 13.73 2.9 13.65 2.85 13.57C2.8 13.48 2.75 13.4 2.71 13.32C2.66 13.24 2.62 13.15 2.58 13.07C2.54 12.98 2.5 12.9 2.46 12.81C2.43 12.72 2.39 12.63 2.36 12.54C2.33 12.46 2.3 12.37 2.27 12.28C2.24 12.19 2.22 12.09 2.2 12C2.17 11.91 2.15 11.82 2.13 11.73C2.11 11.63 2.1 11.54 2.08 11.45C2.07 11.36 2.06 11.26 2.05 11.17C2.04 11.07 2.03 10.98 2.03 10.89C2.02 10.79 2.02 10.7 2.02 10.6ZM12.41 10.57C12.41 10.85 12.38 11.13 12.33 11.41C12.27 11.7 12.19 11.98 12.08 12.26C11.97 12.55 11.83 12.82 11.66 13.08C11.57 13.21 11.48 13.34 11.38 13.46C11.28 13.58 11.17 13.7 11.06 13.81C10.95 13.92 10.83 14.03 10.71 14.13C10.59 14.23 10.46 14.32 10.33 14.41C10.07 14.58 9.8 14.72 9.51 14.83C9.23 14.94 8.95 15.02 8.66 15.08C8.38 15.13 8.1 15.16 7.82 15.16C7.52 15.16 7.23 15.13 6.94 15.07C6.64 15.01 6.35 14.92 6.07 14.81C5.79 14.69 5.52 14.55 5.27 14.38C5.02 14.21 4.79 14.02 4.58 13.81C4.37 13.6 4.18 13.37 4.02 13.13C3.85 12.87 3.7 12.61 3.59 12.33C3.47 12.05 3.38 11.76 3.33 11.46C3.27 11.17 3.24 10.87 3.24 10.57L3.24 5.81C3.24 5.51 3.27 5.21 3.33 4.92C3.38 4.62 3.47 4.33 3.59 4.05C3.7 3.77 3.85 3.5 4.02 3.25C4.18 3 4.37 2.78 4.58 2.56C4.79 2.35 5.02 2.17 5.27 2C5.52 1.83 5.79 1.69 6.07 1.57C6.35 1.45 6.64 1.37 6.94 1.31C7.23 1.25 7.52 1.22 7.82 1.22C8.1 1.22 8.38 1.25 8.66 1.3C8.95 1.35 9.23 1.43 9.51 1.54C9.8 1.66 10.07 1.8 10.33 1.97C10.46 2.06 10.59 2.15 10.71 2.25C10.83 2.35 10.95 2.45 11.06 2.56C11.17 2.68 11.28 2.79 11.38 2.92C11.48 3.04 11.57 3.17 11.66 3.3C11.74 3.43 11.82 3.56 11.89 3.7C11.96 3.84 12.03 3.98 12.08 4.12C12.19 4.39 12.27 4.68 12.33 4.97C12.38 5.25 12.41 5.53 12.41 5.81L12.41 10.57ZM14.87 10.09L14.84 10.11C14.83 10.11 14.82 10.12 14.82 10.12C14.81 10.13 14.8 10.14 14.79 10.14L14.77 10.16C14.76 10.17 14.75 10.17 14.74 10.18C14.74 10.19 14.73 10.19 14.72 10.2C14.72 10.21 14.71 10.22 14.7 10.22C14.7 10.23 14.69 10.24 14.68 10.25L14.66 10.27C14.66 10.28 14.65 10.28 14.65 10.29C14.64 10.3 14.64 10.31 14.63 10.32L14.62 10.34C14.61 10.35 14.61 10.36 14.6 10.37C14.6 10.38 14.59 10.39 14.59 10.4C14.59 10.41 14.58 10.42 14.58 10.43C14.58 10.44 14.57 10.45 14.57 10.46C14.57 10.47 14.57 10.48 14.56 10.49L14.56 10.51C14.55 10.52 14.55 10.53 14.55 10.54L14.55 10.6C14.54 10.61 14.54 10.62 14.54 10.63L14.54 10.98C14.53 11.38 14.49 11.77 14.41 12.16L14.38 12.31C14.34 12.46 14.3 12.62 14.25 12.77L14.25 12.8C14.18 13.01 14.11 13.21 14.02 13.41C13.94 13.61 13.84 13.8 13.74 13.99C13.71 14.05 13.68 14.11 13.64 14.16C13.57 14.29 13.49 14.42 13.41 14.54C13.33 14.65 13.26 14.76 13.18 14.86C13.13 14.93 13.08 14.99 13.02 15.05C12.9 15.2 12.77 15.35 12.63 15.49L12.59 15.53L12.56 15.56C12.42 15.7 12.27 15.83 12.12 15.96C12.06 16.01 12 16.06 11.93 16.1C11.86 16.16 11.78 16.22 11.7 16.28L11.61 16.34C11.57 16.37 11.52 16.4 11.48 16.42C11.41 16.47 11.34 16.52 11.26 16.56C11.19 16.6 11.13 16.64 11.06 16.67C10.87 16.78 10.67 16.87 10.48 16.95C10.28 17.04 10.07 17.11 9.86 17.18C9.65 17.24 9.44 17.3 9.23 17.34C8.81 17.43 8.39 17.47 7.97 17.48L7.88 17.48C7.81 17.48 7.74 17.48 7.67 17.47C7.29 17.46 6.91 17.42 6.54 17.34C6.32 17.3 6.11 17.24 5.9 17.18C5.69 17.11 5.49 17.04 5.29 16.95C5.09 16.87 4.9 16.78 4.71 16.67C4.65 16.64 4.59 16.61 4.52 16.57C4.43 16.52 4.34 16.46 4.26 16.4C4.22 16.38 4.19 16.36 4.16 16.34C4.12 16.31 4.08 16.29 4.04 16.26C3.99 16.22 3.93 16.18 3.88 16.14C3.8 16.08 3.72 16.02 3.65 15.96C3.5 15.83 3.35 15.7 3.21 15.56C3.2 15.55 3.19 15.54 3.17 15.53C3.16 15.51 3.15 15.5 3.14 15.49C3 15.35 2.87 15.2 2.74 15.05C2.69 14.99 2.64 14.93 2.6 14.87L2.42 14.63L2.36 14.54C2.33 14.5 2.3 14.46 2.28 14.41C2.23 14.34 2.18 14.27 2.14 14.19C2.1 14.13 2.06 14.06 2.03 13.99C1.92 13.8 1.83 13.61 1.75 13.41C1.66 13.21 1.59 13.01 1.52 12.8C1.46 12.59 1.4 12.37 1.36 12.16C1.27 11.75 1.23 11.33 1.22 10.9L1.22 10.54C1.21 10.53 1.21 10.52 1.21 10.51C1.21 10.5 1.21 10.49 1.2 10.49L1.2 10.46C1.19 10.45 1.19 10.44 1.19 10.43C1.18 10.42 1.18 10.41 1.18 10.4C1.17 10.39 1.17 10.38 1.16 10.37C1.16 10.36 1.15 10.35 1.15 10.34L1.14 10.32C1.13 10.31 1.12 10.3 1.12 10.29L1.1 10.27C1.1 10.26 1.09 10.25 1.08 10.25C1.08 10.24 1.07 10.23 1.06 10.22L1.04 10.2C1.04 10.19 1.03 10.19 1.02 10.18L1 10.16C0.99 10.15 0.98 10.15 0.98 10.14C0.97 10.14 0.96 10.13 0.95 10.12C0.94 10.12 0.93 10.11 0.93 10.11L0.9 10.09C0.89 10.09 0.88 10.09 0.87 10.08C0.86 10.08 0.85 10.07 0.84 10.07C0.84 10.07 0.83 10.06 0.82 10.06C0.81 10.05 0.8 10.05 0.79 10.05C0.78 10.05 0.77 10.04 0.76 10.04C0.75 10.04 0.74 10.04 0.73 10.03L0.7 10.03L0.67 10.02L0.55 10.02L0.52 10.03L0.49 10.03C0.48 10.04 0.47 10.04 0.46 10.04C0.45 10.04 0.44 10.05 0.43 10.05C0.42 10.05 0.41 10.05 0.41 10.06C0.4 10.06 0.39 10.07 0.38 10.07C0.37 10.07 0.36 10.08 0.35 10.08C0.34 10.09 0.33 10.09 0.32 10.09L0.3 10.11C0.29 10.11 0.28 10.12 0.27 10.12C0.26 10.13 0.26 10.14 0.25 10.14C0.24 10.15 0.23 10.15 0.22 10.16C0.22 10.17 0.21 10.17 0.2 10.18L0.18 10.2L0.16 10.22C0.15 10.23 0.15 10.24 0.14 10.25C0.13 10.25 0.13 10.26 0.12 10.27L0.1 10.29C0.1 10.3 0.09 10.31 0.09 10.32L0.07 10.34C0.07 10.35 0.06 10.36 0.06 10.37C0.05 10.38 0.05 10.39 0.05 10.4C0.04 10.41 0.04 10.42 0.04 10.43C0.03 10.44 0.03 10.45 0.03 10.46C0.02 10.47 0.02 10.48 0.02 10.49C0.02 10.49 0.01 10.5 0.01 10.51L0.01 10.54L0 10.57L0 10.82C0 11.09 0.01 11.35 0.04 11.62C0.07 11.88 0.11 12.15 0.16 12.4C0.21 12.66 0.28 12.91 0.35 13.16C0.43 13.41 0.52 13.65 0.62 13.89C0.72 14.12 0.83 14.35 0.95 14.57C0.98 14.63 1.02 14.69 1.05 14.75C1.12 14.87 1.2 14.99 1.27 15.12C1.3 15.15 1.32 15.19 1.35 15.23C1.37 15.25 1.39 15.28 1.41 15.31C1.48 15.41 1.55 15.52 1.63 15.61C1.68 15.69 1.74 15.76 1.8 15.83C1.95 16.01 2.1 16.18 2.26 16.35C2.28 16.36 2.29 16.38 2.31 16.39L2.34 16.42C2.51 16.59 2.68 16.75 2.87 16.9C2.95 16.97 3.04 17.04 3.13 17.1C3.2 17.16 3.28 17.22 3.36 17.28C3.4 17.3 3.44 17.33 3.47 17.35C3.51 17.37 3.54 17.4 3.57 17.42C3.69 17.49 3.81 17.57 3.93 17.64C3.99 17.67 4.06 17.71 4.13 17.75C4.35 17.87 4.58 17.98 4.81 18.08C5.05 18.18 5.29 18.27 5.54 18.35C5.79 18.42 6.04 18.49 6.3 18.54C6.55 18.59 6.82 18.63 7.08 18.66C7.3 18.68 7.51 18.69 7.73 18.7L8.07 18.7C8.28 18.69 8.48 18.68 8.69 18.66C8.95 18.63 9.21 18.59 9.47 18.54C9.73 18.49 9.98 18.42 10.23 18.35C10.47 18.27 10.72 18.18 10.95 18.08C11.19 17.98 11.42 17.87 11.64 17.75C11.7 17.72 11.76 17.68 11.81 17.65C11.94 17.58 12.06 17.5 12.18 17.43C12.22 17.4 12.26 17.38 12.29 17.35L12.38 17.29C12.48 17.22 12.58 17.15 12.68 17.07C12.75 17.02 12.83 16.96 12.9 16.9C13.08 16.75 13.25 16.6 13.41 16.44L13.46 16.39C13.47 16.38 13.48 16.37 13.48 16.36C13.65 16.19 13.81 16.02 13.97 15.83C14.03 15.76 14.08 15.69 14.14 15.61C14.24 15.49 14.33 15.36 14.42 15.23C14.52 15.08 14.61 14.94 14.69 14.79C14.74 14.72 14.78 14.65 14.81 14.57C14.94 14.35 15.05 14.12 15.15 13.89C15.25 13.65 15.34 13.41 15.41 13.16C15.42 13.15 15.42 13.14 15.42 13.13C15.48 12.94 15.53 12.75 15.57 12.56C15.58 12.51 15.6 12.46 15.61 12.4C15.66 12.15 15.7 11.88 15.73 11.62C15.75 11.4 15.76 11.19 15.77 10.97L15.77 10.6C15.77 10.59 15.76 10.58 15.76 10.57L15.76 10.54C15.76 10.53 15.76 10.52 15.75 10.51L15.75 10.49L15.74 10.46C15.74 10.45 15.73 10.44 15.73 10.43C15.73 10.42 15.72 10.41 15.72 10.4C15.72 10.39 15.71 10.38 15.71 10.37C15.7 10.36 15.7 10.35 15.69 10.34L15.68 10.32C15.67 10.31 15.67 10.3 15.66 10.29C15.66 10.28 15.65 10.28 15.65 10.27L15.63 10.25C15.62 10.24 15.62 10.23 15.61 10.22C15.6 10.22 15.59 10.21 15.59 10.2C15.58 10.19 15.57 10.19 15.57 10.18C15.56 10.17 15.55 10.17 15.54 10.16C15.54 10.15 15.53 10.15 15.52 10.14C15.51 10.14 15.5 10.13 15.5 10.12C15.49 10.12 15.48 10.11 15.47 10.11L15.44 10.09C15.43 10.09 15.43 10.09 15.42 10.08C15.41 10.08 15.4 10.07 15.39 10.07C15.38 10.07 15.37 10.06 15.36 10.06C15.35 10.05 15.34 10.05 15.33 10.05C15.32 10.05 15.31 10.04 15.3 10.04C15.29 10.04 15.29 10.04 15.28 10.03L15.24 10.03L15.22 10.02L15.1 10.02L15.07 10.03L15.04 10.03C15.03 10.04 15.02 10.04 15.01 10.04C15 10.04 14.99 10.05 14.98 10.05C14.97 10.05 14.96 10.05 14.95 10.06C14.94 10.06 14.93 10.07 14.92 10.07C14.91 10.07 14.9 10.08 14.89 10.08C14.89 10.09 14.88 10.09 14.87 10.09Z" /></g></g></svg>